M48
;DRILL file {Pcbnew (2013-07-07 BZR 4022)-stable} date 02/05/2014 11:16:09
;FORMAT={-:-/ absolute / inch / decimal}
FMAT,2
INCH,TZ
T1C0.020
T2C0.032
T3C0.039
T4C0.040
T5C0.043
T6C0.060
T7C0.063
T8C0.126
%
G90
G05
M72
T1
X4.165Y-4.54
X4.23Y-4.59
X4.55Y-4.8
X4.585Y-4.835
X4.59Y-4.985
X4.645Y-4.985
X4.84Y-4.985
X4.86Y-3.79
X4.895Y-4.985
X4.91Y-3.74
X5.03Y-3.75
X5.08Y-4.845
X5.08Y-4.995
X5.11Y-3.81
X5.13Y-5.14
X5.16Y-3.5
X5.21Y-3.54
X5.26Y-5.09
X5.36Y-3.45
X5.43Y-4.99
X5.44Y-4.75
X5.47Y-4.8
X5.47Y-5.04
X5.5Y-4.85
X5.51Y-3.41
X5.56Y-3.65
X5.65Y-3.65
X5.72Y-3.41
X5.74Y-3.65
X5.79Y-4.8
X5.83Y-3.65
X5.85Y-4.5
X5.87Y-4.3
X5.885Y-4.465
X5.91Y-4.85
X5.92Y-4.75
X5.98Y-4.58
X6.03Y-4.12
X6.05Y-3.61
X6.055Y-3.775
X6.07Y-3.92
X6.07Y-4.
X6.1Y-3.58
X6.1Y-4.94
X6.11Y-4.12
X6.135Y-3.775
X6.14Y-4.81
X6.16Y-3.5
X6.21Y-4.9
X6.215Y-3.535
X6.28Y-4.065
X6.28Y-4.11
X6.28Y-4.465
X6.39Y-3.6
X6.46Y-3.61
X6.52Y-3.71
X6.56Y-3.59
X6.6Y-3.72
X6.645Y-3.72
X6.825Y-3.98
X6.825Y-4.2
X6.825Y-4.42
X6.825Y-4.64
X6.825Y-4.86
X6.825Y-5.08
X6.88Y-3.98
X6.88Y-4.2
X6.88Y-4.42
X6.88Y-4.64
X6.88Y-4.86
X6.88Y-5.08
T2
X4.095Y-4.98
X4.095Y-5.08
X4.68Y-4.76
X4.68Y-5.06
X4.9Y-4.45
X4.97Y-4.72
X4.97Y-5.02
X5.1493Y-4.69
X5.2Y-4.45
X5.22Y-4.7607
X5.2907Y-4.69
X6.56Y-3.88
X6.56Y-3.98
X6.56Y-4.1
X6.56Y-4.2
X6.56Y-4.32
X6.56Y-4.42
X6.56Y-4.54
X6.56Y-4.64
X6.56Y-4.76
X6.56Y-4.86
X6.56Y-4.98
X6.56Y-5.08
X6.665Y-3.98
X6.665Y-4.2
X6.665Y-4.42
X6.665Y-4.64
X6.665Y-4.86
X6.665Y-5.08
X6.78Y-3.49
X6.78Y-3.59
X6.965Y-3.98
X6.965Y-4.2
X6.965Y-4.42
X6.965Y-4.64
X6.965Y-4.86
X6.965Y-5.08
X7.055Y-3.98
X7.055Y-4.2
X7.055Y-4.42
X7.055Y-4.64
X7.055Y-4.86
X7.055Y-5.08
X7.355Y-3.98
X7.355Y-4.2
X7.355Y-4.42
X7.355Y-4.64
X7.355Y-4.86
X7.355Y-5.08
X7.495Y-3.91
X7.495Y-4.01
X7.495Y-4.11
X7.495Y-4.21
X7.495Y-4.31
X7.495Y-4.41
X7.495Y-4.51
X7.495Y-4.61
X7.495Y-4.71
X7.495Y-4.81
X7.495Y-4.91
X7.495Y-5.01
T3
X3.83Y-3.45
X3.83Y-3.55
X3.83Y-3.65
X3.83Y-3.75
X3.83Y-3.85
X3.83Y-3.95
X3.83Y-4.05
X3.83Y-4.15
X3.83Y-4.25
X3.83Y-4.35
X3.83Y-4.45
X3.83Y-4.55
X3.83Y-4.65
X3.83Y-4.75
X3.83Y-4.85
X3.93Y-3.45
X3.93Y-3.55
X3.93Y-3.65
X3.93Y-3.75
X3.93Y-3.85
X3.93Y-3.95
X3.93Y-4.05
X3.93Y-4.15
X3.93Y-4.25
X3.93Y-4.35
X3.93Y-4.45
X3.93Y-4.55
X3.93Y-4.65
X3.93Y-4.75
X3.93Y-4.85
X4.03Y-3.45
X4.03Y-3.55
X4.03Y-3.65
X4.03Y-3.75
X4.03Y-3.85
X4.03Y-3.95
X4.03Y-4.05
X4.03Y-4.15
X4.03Y-4.25
X4.03Y-4.35
X4.03Y-4.45
X4.03Y-4.55
X4.03Y-4.65
X4.03Y-4.75
X4.03Y-4.85
X4.31Y-3.2325
X4.31Y-3.3325
X4.31Y-5.2325
X4.31Y-5.3325
X4.4Y-3.9
X4.4Y-4.
X4.4Y-4.1
X4.4Y-4.2
X4.4Y-4.3
X4.41Y-3.2325
X4.41Y-3.3325
X4.41Y-5.2325
X4.41Y-5.3325
X4.5Y-3.9
X4.5Y-4.
X4.5Y-4.1
X4.5Y-4.2
X4.5Y-4.3
X4.51Y-3.2325
X4.51Y-3.3325
X4.51Y-5.2325
X4.51Y-5.3325
X4.6Y-3.9
X4.6Y-4.
X4.6Y-4.1
X4.6Y-4.2
X4.6Y-4.3
X4.61Y-3.2325
X4.61Y-3.3325
X4.61Y-5.2325
X4.61Y-5.3325
X4.7Y-3.9
X4.7Y-4.
X4.7Y-4.1
X4.7Y-4.2
X4.7Y-4.3
X4.71Y-3.2325
X4.71Y-3.3325
X4.71Y-5.2325
X4.71Y-5.3325
X4.8Y-3.9
X4.8Y-4.
X4.8Y-4.1
X4.8Y-4.2
X4.8Y-4.3
X4.81Y-3.2325
X4.81Y-3.3325
X4.81Y-5.2325
X4.81Y-5.3325
X4.9Y-3.9
X4.9Y-4.
X4.9Y-4.1
X4.9Y-4.2
X4.9Y-4.3
X4.91Y-3.2325
X4.91Y-3.3325
X4.91Y-5.2325
X4.91Y-5.3325
X5.Y-3.9
X5.Y-4.
X5.Y-4.1
X5.Y-4.2
X5.Y-4.3
X5.01Y-3.2325
X5.01Y-3.3325
X5.01Y-5.2325
X5.01Y-5.3325
X5.1Y-3.9
X5.1Y-4.
X5.1Y-4.1
X5.1Y-4.2
X5.1Y-4.3
X5.11Y-3.2325
X5.11Y-3.3325
X5.11Y-5.2325
X5.11Y-5.3325
X5.2Y-3.9
X5.2Y-4.
X5.2Y-4.1
X5.2Y-4.2
X5.2Y-4.3
X5.21Y-3.2325
X5.21Y-3.3325
X5.21Y-5.2325
X5.21Y-5.3325
X5.3Y-3.9
X5.3Y-4.
X5.3Y-4.1
X5.3Y-4.2
X5.3Y-4.3
X5.3Y-4.4
X5.3Y-4.5
X5.31Y-3.2325
X5.31Y-3.3325
X5.31Y-5.2325
X5.31Y-5.3325
X5.4Y-3.9
X5.4Y-4.
X5.4Y-4.1
X5.4Y-4.2
X5.4Y-4.3
X5.4Y-4.4
X5.4Y-4.5
X5.4Y-4.6
X5.41Y-3.2325
X5.41Y-3.3325
X5.41Y-5.2325
X5.41Y-5.3325
X5.5Y-3.9
X5.5Y-4.
X5.5Y-4.1
X5.5Y-4.2
X5.5Y-4.3
X5.5Y-4.4
X5.5Y-4.5
X5.5Y-4.6
X5.51Y-3.2325
X5.51Y-3.3325
X5.51Y-5.2325
X5.51Y-5.3325
X5.6Y-4.
X5.6Y-4.1
X5.6Y-4.2
X5.6Y-4.3
X5.6Y-4.4
X5.6Y-4.5
X5.6Y-4.6
X5.61Y-3.2325
X5.61Y-3.3325
X5.61Y-5.2325
X5.61Y-5.3325
X5.7Y-4.1
X5.7Y-4.2
X5.7Y-4.3
X5.7Y-4.4
X5.7Y-4.5
X5.71Y-3.2325
X5.71Y-3.3325
X5.71Y-5.2325
X5.71Y-5.3325
X5.81Y-3.2325
X5.81Y-3.3325
X5.81Y-5.2325
X5.81Y-5.3325
X5.91Y-3.2325
X5.91Y-3.3325
X5.91Y-5.2325
X5.91Y-5.3325
X6.01Y-3.2325
X6.01Y-3.3325
X6.01Y-5.2325
X6.01Y-5.3325
X6.11Y-3.2325
X6.11Y-3.3325
X6.11Y-5.2325
X6.11Y-5.3325
X6.21Y-3.2325
X6.21Y-3.3325
X6.21Y-5.2325
X6.21Y-5.3325
X6.31Y-3.2325
X6.31Y-3.3325
X6.31Y-5.2325
X6.31Y-5.3325
X6.41Y-3.2325
X6.41Y-3.3325
X6.41Y-5.2325
X6.41Y-5.3325
X6.51Y-3.2325
X6.51Y-3.3325
X6.51Y-5.2325
X6.51Y-5.3325
X6.61Y-3.2325
X6.61Y-3.3325
X6.61Y-5.2325
X6.61Y-5.3325
X6.71Y-3.2325
X6.71Y-3.3325
X6.71Y-5.2325
X6.71Y-5.3325
T4
X4.08Y-3.055
X4.08Y-5.51
X4.18Y-3.055
X4.18Y-5.51
X4.28Y-3.055
X4.28Y-5.51
X4.38Y-3.055
X4.38Y-5.51
X4.41Y-4.45
X4.445Y-4.85
X4.445Y-5.05
X4.48Y-3.055
X4.48Y-5.51
X4.58Y-3.055
X4.58Y-5.51
X4.61Y-4.45
X4.68Y-3.055
X4.68Y-5.51
X4.78Y-3.055
X4.78Y-5.51
X4.88Y-3.055
X4.88Y-5.51
X4.98Y-3.055
X4.98Y-5.51
X5.08Y-3.055
X5.08Y-5.51
X5.18Y-3.055
X5.18Y-5.51
X5.28Y-3.055
X5.28Y-5.51
X5.38Y-3.055
X5.38Y-5.51
X5.48Y-3.055
X5.48Y-5.51
X5.58Y-3.055
X5.58Y-5.51
X5.68Y-3.055
X5.68Y-5.51
X5.78Y-3.055
X5.78Y-5.51
X5.88Y-3.055
X5.88Y-5.51
X5.98Y-3.055
X5.98Y-5.51
X6.08Y-3.055
X6.08Y-5.51
X6.18Y-3.055
X6.18Y-5.51
X6.28Y-3.055
X6.28Y-5.51
X6.38Y-3.055
X6.38Y-5.51
X6.48Y-3.055
X6.48Y-5.51
X6.58Y-3.055
X6.58Y-5.51
X6.68Y-5.51
X6.78Y-5.51
X6.95Y-3.595
X7.15Y-3.595
T5
X4.205Y-4.905
X4.205Y-5.205
X4.9Y-4.57
X5.2Y-4.57
X6.665Y-3.87
X6.665Y-4.09
X6.665Y-4.31
X6.665Y-4.53
X6.665Y-4.75
X6.665Y-4.97
X6.88Y-3.32
X6.965Y-3.87
X6.965Y-4.09
X6.965Y-4.31
X6.965Y-4.53
X6.965Y-4.75
X6.965Y-4.97
X7.055Y-3.87
X7.055Y-4.09
X7.055Y-4.31
X7.055Y-4.53
X7.055Y-4.75
X7.055Y-4.97
X7.18Y-3.32
X7.355Y-3.87
X7.355Y-4.09
X7.355Y-4.31
X7.355Y-4.53
X7.355Y-4.75
X7.355Y-4.97
T6
X6.932Y-5.2414
X6.932Y-5.4186
X7.188Y-5.2414
X7.188Y-5.4186
T7
X3.875Y-5.03
X3.875Y-5.23
X6.93Y-3.1
X7.13Y-3.1
X7.42Y-3.305
X7.42Y-3.505
X7.42Y-3.705
T8
X3.855Y-3.08
X3.855Y-5.485
X7.44Y-3.08
X7.44Y-5.485
T0
M30
