G04 (created by PCBNEW (2013-07-07 BZR 4022)-stable) date 11/04/2014 09:32:08*
%MOIN*%
G04 Gerber Fmt 3.4, Leading zero omitted, Abs format*
%FSLAX34Y34*%
G01*
G70*
G90*
G04 APERTURE LIST*
%ADD10C,0.00590551*%
%ADD11C,0.00885827*%
%ADD12C,0.011811*%
%ADD13C,0.023622*%
%ADD14C,0.00787402*%
%ADD15C,0.00984252*%
%ADD16C,0.012*%
%ADD17C,0.01*%
%ADD18C,0.008*%
%ADD19C,0.0670551*%
%ADD20R,0.088X0.088*%
%ADD21R,0.038X0.128*%
%ADD22R,0.128X0.038*%
%ADD23R,0.063X0.063*%
%ADD24C,0.063*%
%ADD25R,0.068X0.068*%
%ADD26C,0.068*%
%ADD27R,0.108X0.108*%
%ADD28C,0.108*%
%ADD29C,0.20485*%
%ADD30C,0.078*%
%ADD31R,0.078X0.078*%
%ADD32R,0.0749291X0.0749291*%
%ADD33C,0.0749291*%
G04 APERTURE END LIST*
G54D10*
G54D11*
X67325Y-32046D02*
X67512Y-32046D01*
X67287Y-32159D02*
X67418Y-31765D01*
X67550Y-32159D01*
X67681Y-32159D02*
X67681Y-31765D01*
X67775Y-31765D01*
X67831Y-31784D01*
X67868Y-31821D01*
X67887Y-31859D01*
X67906Y-31934D01*
X67906Y-31990D01*
X67887Y-32065D01*
X67868Y-32103D01*
X67831Y-32140D01*
X67775Y-32159D01*
X67681Y-32159D01*
X68299Y-32121D02*
X68281Y-32140D01*
X68224Y-32159D01*
X68187Y-32159D01*
X68131Y-32140D01*
X68093Y-32103D01*
X68074Y-32065D01*
X68056Y-31990D01*
X68056Y-31934D01*
X68074Y-31859D01*
X68093Y-31821D01*
X68131Y-31784D01*
X68187Y-31765D01*
X68224Y-31765D01*
X68281Y-31784D01*
X68299Y-31803D01*
X68637Y-31896D02*
X68637Y-32159D01*
X68543Y-31746D02*
X68449Y-32028D01*
X68693Y-32028D01*
G54D12*
X69775Y-32014D02*
X70224Y-32014D01*
X71775Y-32014D02*
X72224Y-32014D01*
X72000Y-32239D02*
X72000Y-31789D01*
X72975Y-35914D02*
X73424Y-35914D01*
X73200Y-36139D02*
X73200Y-35689D01*
X72975Y-33914D02*
X73424Y-33914D01*
X39714Y-50524D02*
X39714Y-50075D01*
X39475Y-52314D02*
X39924Y-52314D01*
X39700Y-52539D02*
X39700Y-52089D01*
X56866Y-35810D02*
X56950Y-35839D01*
X57091Y-35839D01*
X57147Y-35810D01*
X57175Y-35782D01*
X57203Y-35726D01*
X57203Y-35670D01*
X57175Y-35614D01*
X57147Y-35585D01*
X57091Y-35557D01*
X56978Y-35529D01*
X56922Y-35501D01*
X56894Y-35473D01*
X56866Y-35417D01*
X56866Y-35360D01*
X56894Y-35304D01*
X56922Y-35276D01*
X56978Y-35248D01*
X57119Y-35248D01*
X57203Y-35276D01*
X57372Y-35248D02*
X57709Y-35248D01*
X57541Y-35839D02*
X57541Y-35248D01*
X57906Y-35839D02*
X57906Y-35248D01*
X58103Y-35670D01*
X58300Y-35248D01*
X58300Y-35839D01*
X58525Y-35248D02*
X58890Y-35248D01*
X58694Y-35473D01*
X58778Y-35473D01*
X58834Y-35501D01*
X58862Y-35529D01*
X58890Y-35585D01*
X58890Y-35726D01*
X58862Y-35782D01*
X58834Y-35810D01*
X58778Y-35839D01*
X58609Y-35839D01*
X58553Y-35810D01*
X58525Y-35782D01*
X59115Y-35304D02*
X59143Y-35276D01*
X59200Y-35248D01*
X59340Y-35248D01*
X59397Y-35276D01*
X59425Y-35304D01*
X59453Y-35360D01*
X59453Y-35417D01*
X59425Y-35501D01*
X59087Y-35839D01*
X59453Y-35839D01*
X59903Y-35529D02*
X59706Y-35529D01*
X59706Y-35839D02*
X59706Y-35248D01*
X59987Y-35248D01*
X60465Y-35445D02*
X60465Y-35839D01*
X60325Y-35220D02*
X60184Y-35642D01*
X60550Y-35642D01*
X61224Y-35839D02*
X61224Y-35248D01*
X61365Y-35248D01*
X61449Y-35276D01*
X61506Y-35332D01*
X61534Y-35389D01*
X61562Y-35501D01*
X61562Y-35585D01*
X61534Y-35698D01*
X61506Y-35754D01*
X61449Y-35810D01*
X61365Y-35839D01*
X61224Y-35839D01*
X61815Y-35839D02*
X61815Y-35445D01*
X61815Y-35248D02*
X61787Y-35276D01*
X61815Y-35304D01*
X61843Y-35276D01*
X61815Y-35248D01*
X61815Y-35304D01*
X62068Y-35810D02*
X62124Y-35839D01*
X62237Y-35839D01*
X62293Y-35810D01*
X62321Y-35754D01*
X62321Y-35726D01*
X62293Y-35670D01*
X62237Y-35642D01*
X62152Y-35642D01*
X62096Y-35614D01*
X62068Y-35557D01*
X62068Y-35529D01*
X62096Y-35473D01*
X62152Y-35445D01*
X62237Y-35445D01*
X62293Y-35473D01*
X62827Y-35810D02*
X62771Y-35839D01*
X62659Y-35839D01*
X62602Y-35810D01*
X62574Y-35782D01*
X62546Y-35726D01*
X62546Y-35557D01*
X62574Y-35501D01*
X62602Y-35473D01*
X62659Y-35445D01*
X62771Y-35445D01*
X62827Y-35473D01*
X63165Y-35839D02*
X63109Y-35810D01*
X63080Y-35782D01*
X63052Y-35726D01*
X63052Y-35557D01*
X63080Y-35501D01*
X63109Y-35473D01*
X63165Y-35445D01*
X63249Y-35445D01*
X63305Y-35473D01*
X63334Y-35501D01*
X63362Y-35557D01*
X63362Y-35726D01*
X63334Y-35782D01*
X63305Y-35810D01*
X63249Y-35839D01*
X63165Y-35839D01*
X63559Y-35445D02*
X63699Y-35839D01*
X63840Y-35445D01*
X64290Y-35810D02*
X64233Y-35839D01*
X64121Y-35839D01*
X64065Y-35810D01*
X64037Y-35754D01*
X64037Y-35529D01*
X64065Y-35473D01*
X64121Y-35445D01*
X64233Y-35445D01*
X64290Y-35473D01*
X64318Y-35529D01*
X64318Y-35585D01*
X64037Y-35642D01*
X64571Y-35839D02*
X64571Y-35445D01*
X64571Y-35557D02*
X64599Y-35501D01*
X64627Y-35473D01*
X64683Y-35445D01*
X64740Y-35445D01*
X64880Y-35445D02*
X65021Y-35839D01*
X65161Y-35445D02*
X65021Y-35839D01*
X64965Y-35979D01*
X64937Y-36007D01*
X64880Y-36035D01*
X57920Y-36783D02*
X57920Y-36193D01*
X58061Y-36193D01*
X58145Y-36221D01*
X58201Y-36277D01*
X58230Y-36333D01*
X58258Y-36446D01*
X58258Y-36530D01*
X58230Y-36643D01*
X58201Y-36699D01*
X58145Y-36755D01*
X58061Y-36783D01*
X57920Y-36783D01*
X58764Y-36783D02*
X58764Y-36474D01*
X58736Y-36418D01*
X58679Y-36390D01*
X58567Y-36390D01*
X58511Y-36418D01*
X58764Y-36755D02*
X58708Y-36783D01*
X58567Y-36783D01*
X58511Y-36755D01*
X58483Y-36699D01*
X58483Y-36643D01*
X58511Y-36587D01*
X58567Y-36558D01*
X58708Y-36558D01*
X58764Y-36530D01*
X59298Y-36390D02*
X59298Y-36783D01*
X59045Y-36390D02*
X59045Y-36699D01*
X59073Y-36755D01*
X59129Y-36783D01*
X59214Y-36783D01*
X59270Y-36755D01*
X59298Y-36727D01*
X59832Y-36390D02*
X59832Y-36868D01*
X59804Y-36924D01*
X59776Y-36952D01*
X59720Y-36980D01*
X59636Y-36980D01*
X59579Y-36952D01*
X59832Y-36755D02*
X59776Y-36783D01*
X59664Y-36783D01*
X59607Y-36755D01*
X59579Y-36727D01*
X59551Y-36671D01*
X59551Y-36502D01*
X59579Y-36446D01*
X59607Y-36418D01*
X59664Y-36390D01*
X59776Y-36390D01*
X59832Y-36418D01*
X60114Y-36783D02*
X60114Y-36193D01*
X60367Y-36783D02*
X60367Y-36474D01*
X60339Y-36418D01*
X60282Y-36390D01*
X60198Y-36390D01*
X60142Y-36418D01*
X60114Y-36446D01*
X60564Y-36390D02*
X60789Y-36390D01*
X60648Y-36193D02*
X60648Y-36699D01*
X60676Y-36755D01*
X60732Y-36783D01*
X60789Y-36783D01*
X61210Y-36755D02*
X61154Y-36783D01*
X61042Y-36783D01*
X60985Y-36755D01*
X60957Y-36699D01*
X60957Y-36474D01*
X60985Y-36418D01*
X61042Y-36390D01*
X61154Y-36390D01*
X61210Y-36418D01*
X61239Y-36474D01*
X61239Y-36530D01*
X60957Y-36587D01*
X61492Y-36783D02*
X61492Y-36390D01*
X61492Y-36502D02*
X61520Y-36446D01*
X61548Y-36418D01*
X61604Y-36390D01*
X61660Y-36390D01*
X61857Y-36783D02*
X61857Y-36193D01*
X61857Y-36418D02*
X61913Y-36390D01*
X62026Y-36390D01*
X62082Y-36418D01*
X62110Y-36446D01*
X62138Y-36502D01*
X62138Y-36671D01*
X62110Y-36727D01*
X62082Y-36755D01*
X62026Y-36783D01*
X61913Y-36783D01*
X61857Y-36755D01*
X62476Y-36783D02*
X62420Y-36755D01*
X62392Y-36727D01*
X62363Y-36671D01*
X62363Y-36502D01*
X62392Y-36446D01*
X62420Y-36418D01*
X62476Y-36390D01*
X62560Y-36390D01*
X62616Y-36418D01*
X62645Y-36446D01*
X62673Y-36502D01*
X62673Y-36671D01*
X62645Y-36727D01*
X62616Y-36755D01*
X62560Y-36783D01*
X62476Y-36783D01*
X63179Y-36783D02*
X63179Y-36474D01*
X63151Y-36418D01*
X63095Y-36390D01*
X62982Y-36390D01*
X62926Y-36418D01*
X63179Y-36755D02*
X63123Y-36783D01*
X62982Y-36783D01*
X62926Y-36755D01*
X62898Y-36699D01*
X62898Y-36643D01*
X62926Y-36587D01*
X62982Y-36558D01*
X63123Y-36558D01*
X63179Y-36530D01*
X63460Y-36783D02*
X63460Y-36390D01*
X63460Y-36502D02*
X63488Y-36446D01*
X63516Y-36418D01*
X63573Y-36390D01*
X63629Y-36390D01*
X64079Y-36783D02*
X64079Y-36193D01*
X64079Y-36755D02*
X64023Y-36783D01*
X63910Y-36783D01*
X63854Y-36755D01*
X63826Y-36727D01*
X63798Y-36671D01*
X63798Y-36502D01*
X63826Y-36446D01*
X63854Y-36418D01*
X63910Y-36390D01*
X64023Y-36390D01*
X64079Y-36418D01*
X45964Y-36448D02*
X46302Y-36448D01*
X46133Y-37039D02*
X46133Y-36448D01*
X46498Y-37039D02*
X46498Y-36448D01*
X46751Y-37039D02*
X46751Y-36729D01*
X46723Y-36673D01*
X46667Y-36645D01*
X46583Y-36645D01*
X46526Y-36673D01*
X46498Y-36701D01*
X47258Y-37010D02*
X47201Y-37039D01*
X47089Y-37039D01*
X47033Y-37010D01*
X47005Y-36954D01*
X47005Y-36729D01*
X47033Y-36673D01*
X47089Y-36645D01*
X47201Y-36645D01*
X47258Y-36673D01*
X47286Y-36729D01*
X47286Y-36785D01*
X47005Y-36842D01*
X48186Y-36729D02*
X47989Y-36729D01*
X47989Y-37039D02*
X47989Y-36448D01*
X48270Y-36448D01*
X48495Y-37039D02*
X48495Y-36645D01*
X48495Y-36757D02*
X48523Y-36701D01*
X48551Y-36673D01*
X48607Y-36645D01*
X48664Y-36645D01*
X49086Y-37010D02*
X49029Y-37039D01*
X48917Y-37039D01*
X48861Y-37010D01*
X48832Y-36954D01*
X48832Y-36729D01*
X48861Y-36673D01*
X48917Y-36645D01*
X49029Y-36645D01*
X49086Y-36673D01*
X49114Y-36729D01*
X49114Y-36785D01*
X48832Y-36842D01*
X49592Y-37010D02*
X49535Y-37039D01*
X49423Y-37039D01*
X49367Y-37010D01*
X49339Y-36954D01*
X49339Y-36729D01*
X49367Y-36673D01*
X49423Y-36645D01*
X49535Y-36645D01*
X49592Y-36673D01*
X49620Y-36729D01*
X49620Y-36785D01*
X49339Y-36842D01*
X50295Y-36870D02*
X50576Y-36870D01*
X50239Y-37039D02*
X50435Y-36448D01*
X50632Y-37039D01*
X51082Y-36645D02*
X51082Y-37039D01*
X50829Y-36645D02*
X50829Y-36954D01*
X50857Y-37010D01*
X50913Y-37039D01*
X50998Y-37039D01*
X51054Y-37010D01*
X51082Y-36982D01*
X51279Y-36645D02*
X51504Y-36645D01*
X51363Y-36448D02*
X51363Y-36954D01*
X51392Y-37010D01*
X51448Y-37039D01*
X51504Y-37039D01*
X51785Y-37039D02*
X51729Y-37010D01*
X51701Y-36982D01*
X51673Y-36926D01*
X51673Y-36757D01*
X51701Y-36701D01*
X51729Y-36673D01*
X51785Y-36645D01*
X51870Y-36645D01*
X51926Y-36673D01*
X51954Y-36701D01*
X51982Y-36757D01*
X51982Y-36926D01*
X51954Y-36982D01*
X51926Y-37010D01*
X51870Y-37039D01*
X51785Y-37039D01*
X52235Y-36645D02*
X52235Y-37235D01*
X52235Y-36673D02*
X52291Y-36645D01*
X52404Y-36645D01*
X52460Y-36673D01*
X52488Y-36701D01*
X52516Y-36757D01*
X52516Y-36926D01*
X52488Y-36982D01*
X52460Y-37010D01*
X52404Y-37039D01*
X52291Y-37039D01*
X52235Y-37010D01*
X52769Y-37039D02*
X52769Y-36645D01*
X52769Y-36448D02*
X52741Y-36476D01*
X52769Y-36504D01*
X52798Y-36476D01*
X52769Y-36448D01*
X52769Y-36504D01*
X53135Y-37039D02*
X53079Y-37010D01*
X53051Y-36954D01*
X53051Y-36448D01*
X53444Y-37039D02*
X53388Y-37010D01*
X53360Y-36982D01*
X53332Y-36926D01*
X53332Y-36757D01*
X53360Y-36701D01*
X53388Y-36673D01*
X53444Y-36645D01*
X53529Y-36645D01*
X53585Y-36673D01*
X53613Y-36701D01*
X53641Y-36757D01*
X53641Y-36926D01*
X53613Y-36982D01*
X53585Y-37010D01*
X53529Y-37039D01*
X53444Y-37039D01*
X53810Y-36645D02*
X54035Y-36645D01*
X53894Y-36448D02*
X53894Y-36954D01*
X53922Y-37010D01*
X53979Y-37039D01*
X54035Y-37039D01*
G54D13*
X44600Y-35837D02*
X44600Y-34262D01*
X45200Y-34262D01*
X45350Y-34337D01*
X45425Y-34412D01*
X45500Y-34562D01*
X45500Y-34787D01*
X45425Y-34937D01*
X45350Y-35012D01*
X45200Y-35087D01*
X44600Y-35087D01*
X46850Y-35837D02*
X46850Y-35012D01*
X46775Y-34862D01*
X46625Y-34787D01*
X46325Y-34787D01*
X46175Y-34862D01*
X46850Y-35762D02*
X46700Y-35837D01*
X46325Y-35837D01*
X46175Y-35762D01*
X46100Y-35612D01*
X46100Y-35462D01*
X46175Y-35312D01*
X46325Y-35237D01*
X46700Y-35237D01*
X46850Y-35162D01*
X47600Y-34787D02*
X47600Y-36362D01*
X47600Y-34862D02*
X47750Y-34787D01*
X48050Y-34787D01*
X48200Y-34862D01*
X48275Y-34937D01*
X48350Y-35087D01*
X48350Y-35537D01*
X48275Y-35687D01*
X48200Y-35762D01*
X48050Y-35837D01*
X47750Y-35837D01*
X47600Y-35762D01*
X49700Y-35837D02*
X49700Y-35012D01*
X49625Y-34862D01*
X49475Y-34787D01*
X49175Y-34787D01*
X49025Y-34862D01*
X49700Y-35762D02*
X49550Y-35837D01*
X49175Y-35837D01*
X49025Y-35762D01*
X48950Y-35612D01*
X48950Y-35462D01*
X49025Y-35312D01*
X49175Y-35237D01*
X49550Y-35237D01*
X49700Y-35162D01*
X50449Y-35837D02*
X50449Y-34787D01*
X50449Y-35087D02*
X50524Y-34937D01*
X50599Y-34862D01*
X50749Y-34787D01*
X50899Y-34787D01*
X52099Y-35837D02*
X52099Y-35012D01*
X52024Y-34862D01*
X51874Y-34787D01*
X51574Y-34787D01*
X51424Y-34862D01*
X52099Y-35762D02*
X51949Y-35837D01*
X51574Y-35837D01*
X51424Y-35762D01*
X51349Y-35612D01*
X51349Y-35462D01*
X51424Y-35312D01*
X51574Y-35237D01*
X51949Y-35237D01*
X52099Y-35162D01*
X52699Y-34787D02*
X53524Y-34787D01*
X52699Y-35837D01*
X53524Y-35837D01*
X53974Y-34787D02*
X54799Y-34787D01*
X53974Y-35837D01*
X54799Y-35837D01*
X55399Y-35837D02*
X55399Y-34787D01*
X55399Y-34262D02*
X55324Y-34337D01*
X55399Y-34412D01*
X55474Y-34337D01*
X55399Y-34262D01*
X55399Y-34412D01*
G54D12*
X71275Y-36714D02*
X71724Y-36714D01*
X69275Y-36714D02*
X69724Y-36714D01*
X69500Y-36939D02*
X69500Y-36489D01*
X45214Y-48724D02*
X45214Y-48275D01*
X44975Y-50514D02*
X45424Y-50514D01*
X45200Y-50739D02*
X45200Y-50289D01*
X57889Y-41039D02*
X57889Y-40448D01*
X58030Y-40448D01*
X58114Y-40476D01*
X58170Y-40532D01*
X58198Y-40589D01*
X58226Y-40701D01*
X58226Y-40785D01*
X58198Y-40898D01*
X58170Y-40954D01*
X58114Y-41010D01*
X58030Y-41039D01*
X57889Y-41039D01*
X58479Y-41039D02*
X58479Y-40645D01*
X58479Y-40757D02*
X58508Y-40701D01*
X58536Y-40673D01*
X58592Y-40645D01*
X58648Y-40645D01*
X58929Y-41039D02*
X58873Y-41010D01*
X58845Y-40982D01*
X58817Y-40926D01*
X58817Y-40757D01*
X58845Y-40701D01*
X58873Y-40673D01*
X58929Y-40645D01*
X59014Y-40645D01*
X59070Y-40673D01*
X59098Y-40701D01*
X59126Y-40757D01*
X59126Y-40926D01*
X59098Y-40982D01*
X59070Y-41010D01*
X59014Y-41039D01*
X58929Y-41039D01*
X59295Y-40645D02*
X59520Y-40645D01*
X59379Y-40448D02*
X59379Y-40954D01*
X59407Y-41010D01*
X59464Y-41039D01*
X59520Y-41039D01*
X59942Y-41010D02*
X59886Y-41039D01*
X59773Y-41039D01*
X59717Y-41010D01*
X59689Y-40954D01*
X59689Y-40729D01*
X59717Y-40673D01*
X59773Y-40645D01*
X59886Y-40645D01*
X59942Y-40673D01*
X59970Y-40729D01*
X59970Y-40785D01*
X59689Y-40842D01*
X60223Y-41039D02*
X60223Y-40448D01*
X60279Y-40814D02*
X60448Y-41039D01*
X60448Y-40645D02*
X60223Y-40870D01*
X61460Y-41039D02*
X61123Y-41039D01*
X61292Y-41039D02*
X61292Y-40448D01*
X61235Y-40532D01*
X61179Y-40589D01*
X61123Y-40617D01*
X61826Y-40448D02*
X61882Y-40448D01*
X61938Y-40476D01*
X61967Y-40504D01*
X61995Y-40560D01*
X62023Y-40673D01*
X62023Y-40814D01*
X61995Y-40926D01*
X61967Y-40982D01*
X61938Y-41010D01*
X61882Y-41039D01*
X61826Y-41039D01*
X61770Y-41010D01*
X61742Y-40982D01*
X61713Y-40926D01*
X61685Y-40814D01*
X61685Y-40673D01*
X61713Y-40560D01*
X61742Y-40504D01*
X61770Y-40476D01*
X61826Y-40448D01*
X62276Y-41039D02*
X62276Y-40448D01*
X62416Y-40448D01*
X62501Y-40476D01*
X62557Y-40532D01*
X62585Y-40589D01*
X62613Y-40701D01*
X62613Y-40785D01*
X62585Y-40898D01*
X62557Y-40954D01*
X62501Y-41010D01*
X62416Y-41039D01*
X62276Y-41039D01*
X62979Y-40448D02*
X63091Y-40448D01*
X63148Y-40476D01*
X63204Y-40532D01*
X63232Y-40645D01*
X63232Y-40842D01*
X63204Y-40954D01*
X63148Y-41010D01*
X63091Y-41039D01*
X62979Y-41039D01*
X62923Y-41010D01*
X62866Y-40954D01*
X62838Y-40842D01*
X62838Y-40645D01*
X62866Y-40532D01*
X62923Y-40476D01*
X62979Y-40448D01*
X63682Y-40729D02*
X63485Y-40729D01*
X63485Y-41039D02*
X63485Y-40448D01*
X63766Y-40448D01*
G54D11*
X57555Y-45143D02*
X57555Y-44789D01*
X57639Y-44789D01*
X57690Y-44805D01*
X57724Y-44839D01*
X57740Y-44873D01*
X57757Y-44940D01*
X57757Y-44991D01*
X57740Y-45059D01*
X57724Y-45092D01*
X57690Y-45126D01*
X57639Y-45143D01*
X57555Y-45143D01*
X57892Y-45042D02*
X58061Y-45042D01*
X57859Y-45143D02*
X57977Y-44789D01*
X58095Y-45143D01*
X57766Y-44109D02*
X57749Y-44126D01*
X57698Y-44143D01*
X57665Y-44143D01*
X57614Y-44126D01*
X57580Y-44092D01*
X57563Y-44059D01*
X57546Y-43991D01*
X57546Y-43940D01*
X57563Y-43873D01*
X57580Y-43839D01*
X57614Y-43805D01*
X57665Y-43789D01*
X57698Y-43789D01*
X57749Y-43805D01*
X57766Y-43822D01*
X58086Y-44143D02*
X57918Y-44143D01*
X57918Y-43789D01*
X57732Y-42789D02*
X57563Y-42789D01*
X57546Y-42957D01*
X57563Y-42940D01*
X57597Y-42924D01*
X57681Y-42924D01*
X57715Y-42940D01*
X57732Y-42957D01*
X57749Y-42991D01*
X57749Y-43075D01*
X57732Y-43109D01*
X57715Y-43126D01*
X57681Y-43143D01*
X57597Y-43143D01*
X57563Y-43126D01*
X57546Y-43109D01*
X57850Y-42789D02*
X57968Y-43143D01*
X58086Y-42789D01*
X57730Y-41805D02*
X57696Y-41789D01*
X57645Y-41789D01*
X57595Y-41805D01*
X57561Y-41839D01*
X57544Y-41873D01*
X57527Y-41940D01*
X57527Y-41991D01*
X57544Y-42059D01*
X57561Y-42092D01*
X57595Y-42126D01*
X57645Y-42143D01*
X57679Y-42143D01*
X57730Y-42126D01*
X57746Y-42109D01*
X57746Y-41991D01*
X57679Y-41991D01*
X57898Y-42143D02*
X57898Y-41789D01*
X58101Y-42143D01*
X58101Y-41789D01*
X58269Y-42143D02*
X58269Y-41789D01*
X58354Y-41789D01*
X58404Y-41805D01*
X58438Y-41839D01*
X58455Y-41873D01*
X58472Y-41940D01*
X58472Y-41991D01*
X58455Y-42059D01*
X58438Y-42092D01*
X58404Y-42126D01*
X58354Y-42143D01*
X58269Y-42143D01*
X41246Y-46429D02*
X41331Y-46457D01*
X41359Y-46485D01*
X41387Y-46542D01*
X41387Y-46626D01*
X41359Y-46682D01*
X41331Y-46710D01*
X41275Y-46739D01*
X41050Y-46739D01*
X41050Y-46148D01*
X41246Y-46148D01*
X41303Y-46176D01*
X41331Y-46204D01*
X41359Y-46260D01*
X41359Y-46317D01*
X41331Y-46373D01*
X41303Y-46401D01*
X41246Y-46429D01*
X41050Y-46429D01*
X41640Y-46739D02*
X41640Y-46148D01*
X41921Y-46739D02*
X41921Y-46148D01*
X42259Y-46739D01*
X42259Y-46148D01*
X42540Y-46739D02*
X42540Y-46148D01*
X42681Y-46148D01*
X42765Y-46176D01*
X42821Y-46232D01*
X42849Y-46289D01*
X42878Y-46401D01*
X42878Y-46485D01*
X42849Y-46598D01*
X42821Y-46654D01*
X42765Y-46710D01*
X42681Y-46739D01*
X42540Y-46739D01*
X47069Y-31273D02*
X47019Y-31256D01*
X46934Y-31256D01*
X46901Y-31273D01*
X46884Y-31290D01*
X46867Y-31324D01*
X46867Y-31357D01*
X46884Y-31391D01*
X46901Y-31408D01*
X46934Y-31425D01*
X47002Y-31442D01*
X47036Y-31459D01*
X47053Y-31475D01*
X47069Y-31509D01*
X47069Y-31543D01*
X47053Y-31577D01*
X47036Y-31594D01*
X47002Y-31610D01*
X46918Y-31610D01*
X46867Y-31594D01*
X46732Y-31273D02*
X46681Y-31256D01*
X46597Y-31256D01*
X46563Y-31273D01*
X46546Y-31290D01*
X46530Y-31324D01*
X46530Y-31357D01*
X46546Y-31391D01*
X46563Y-31408D01*
X46597Y-31425D01*
X46665Y-31442D01*
X46698Y-31459D01*
X46715Y-31475D01*
X46732Y-31509D01*
X46732Y-31543D01*
X46715Y-31577D01*
X46698Y-31594D01*
X46665Y-31610D01*
X46580Y-31610D01*
X46530Y-31594D01*
X48103Y-31256D02*
X48103Y-31610D01*
X47985Y-31357D01*
X47867Y-31610D01*
X47867Y-31256D01*
X47631Y-31610D02*
X47563Y-31610D01*
X47530Y-31594D01*
X47496Y-31560D01*
X47479Y-31492D01*
X47479Y-31374D01*
X47496Y-31307D01*
X47530Y-31273D01*
X47563Y-31256D01*
X47631Y-31256D01*
X47665Y-31273D01*
X47698Y-31307D01*
X47715Y-31374D01*
X47715Y-31492D01*
X47698Y-31560D01*
X47665Y-31594D01*
X47631Y-31610D01*
X49002Y-31256D02*
X49002Y-31610D01*
X48884Y-31357D01*
X48766Y-31610D01*
X48766Y-31256D01*
X48597Y-31256D02*
X48597Y-31610D01*
X49833Y-31290D02*
X49850Y-31273D01*
X49901Y-31256D01*
X49934Y-31256D01*
X49985Y-31273D01*
X50019Y-31307D01*
X50036Y-31340D01*
X50053Y-31408D01*
X50053Y-31459D01*
X50036Y-31526D01*
X50019Y-31560D01*
X49985Y-31594D01*
X49934Y-31610D01*
X49901Y-31610D01*
X49850Y-31594D01*
X49833Y-31577D01*
X49513Y-31256D02*
X49681Y-31256D01*
X49681Y-31610D01*
X58103Y-31256D02*
X58103Y-31610D01*
X57985Y-31357D01*
X57867Y-31610D01*
X57867Y-31256D01*
X57631Y-31610D02*
X57563Y-31610D01*
X57530Y-31594D01*
X57496Y-31560D01*
X57479Y-31492D01*
X57479Y-31374D01*
X57496Y-31307D01*
X57530Y-31273D01*
X57563Y-31256D01*
X57631Y-31256D01*
X57665Y-31273D01*
X57698Y-31307D01*
X57715Y-31374D01*
X57715Y-31492D01*
X57698Y-31560D01*
X57665Y-31594D01*
X57631Y-31610D01*
X57069Y-31273D02*
X57019Y-31256D01*
X56934Y-31256D01*
X56901Y-31273D01*
X56884Y-31290D01*
X56867Y-31324D01*
X56867Y-31357D01*
X56884Y-31391D01*
X56901Y-31408D01*
X56934Y-31425D01*
X57002Y-31442D01*
X57036Y-31459D01*
X57053Y-31475D01*
X57069Y-31509D01*
X57069Y-31543D01*
X57053Y-31577D01*
X57036Y-31594D01*
X57002Y-31610D01*
X56918Y-31610D01*
X56867Y-31594D01*
X56732Y-31273D02*
X56681Y-31256D01*
X56597Y-31256D01*
X56563Y-31273D01*
X56546Y-31290D01*
X56530Y-31324D01*
X56530Y-31357D01*
X56546Y-31391D01*
X56563Y-31408D01*
X56597Y-31425D01*
X56665Y-31442D01*
X56698Y-31459D01*
X56715Y-31475D01*
X56732Y-31509D01*
X56732Y-31543D01*
X56715Y-31577D01*
X56698Y-31594D01*
X56665Y-31610D01*
X56580Y-31610D01*
X56530Y-31594D01*
X59002Y-31256D02*
X59002Y-31610D01*
X58884Y-31357D01*
X58766Y-31610D01*
X58766Y-31256D01*
X58597Y-31256D02*
X58597Y-31610D01*
X59833Y-31290D02*
X59850Y-31273D01*
X59901Y-31256D01*
X59934Y-31256D01*
X59985Y-31273D01*
X60019Y-31307D01*
X60036Y-31340D01*
X60053Y-31408D01*
X60053Y-31459D01*
X60036Y-31526D01*
X60019Y-31560D01*
X59985Y-31594D01*
X59934Y-31610D01*
X59901Y-31610D01*
X59850Y-31594D01*
X59833Y-31577D01*
X59513Y-31256D02*
X59681Y-31256D01*
X59681Y-31610D01*
X64103Y-31256D02*
X64103Y-31610D01*
X63985Y-31357D01*
X63867Y-31610D01*
X63867Y-31256D01*
X63631Y-31610D02*
X63563Y-31610D01*
X63530Y-31594D01*
X63496Y-31560D01*
X63479Y-31492D01*
X63479Y-31374D01*
X63496Y-31307D01*
X63530Y-31273D01*
X63563Y-31256D01*
X63631Y-31256D01*
X63665Y-31273D01*
X63698Y-31307D01*
X63715Y-31374D01*
X63715Y-31492D01*
X63698Y-31560D01*
X63665Y-31594D01*
X63631Y-31610D01*
X65002Y-31256D02*
X65002Y-31610D01*
X64884Y-31357D01*
X64766Y-31610D01*
X64766Y-31256D01*
X64597Y-31256D02*
X64597Y-31610D01*
X65833Y-31290D02*
X65850Y-31273D01*
X65901Y-31256D01*
X65934Y-31256D01*
X65985Y-31273D01*
X66019Y-31307D01*
X66036Y-31340D01*
X66053Y-31408D01*
X66053Y-31459D01*
X66036Y-31526D01*
X66019Y-31560D01*
X65985Y-31594D01*
X65934Y-31610D01*
X65901Y-31610D01*
X65850Y-31594D01*
X65833Y-31577D01*
X65513Y-31256D02*
X65681Y-31256D01*
X65681Y-31610D01*
X63069Y-31273D02*
X63019Y-31256D01*
X62934Y-31256D01*
X62901Y-31273D01*
X62884Y-31290D01*
X62867Y-31324D01*
X62867Y-31357D01*
X62884Y-31391D01*
X62901Y-31408D01*
X62934Y-31425D01*
X63002Y-31442D01*
X63036Y-31459D01*
X63053Y-31475D01*
X63069Y-31509D01*
X63069Y-31543D01*
X63053Y-31577D01*
X63036Y-31594D01*
X63002Y-31610D01*
X62918Y-31610D01*
X62867Y-31594D01*
X62732Y-31273D02*
X62681Y-31256D01*
X62597Y-31256D01*
X62563Y-31273D01*
X62546Y-31290D01*
X62530Y-31324D01*
X62530Y-31357D01*
X62546Y-31391D01*
X62563Y-31408D01*
X62597Y-31425D01*
X62665Y-31442D01*
X62698Y-31459D01*
X62715Y-31475D01*
X62732Y-31509D01*
X62732Y-31543D01*
X62715Y-31577D01*
X62698Y-31594D01*
X62665Y-31610D01*
X62580Y-31610D01*
X62530Y-31594D01*
X53044Y-31256D02*
X53044Y-31610D01*
X52960Y-31610D01*
X52909Y-31594D01*
X52875Y-31560D01*
X52859Y-31526D01*
X52842Y-31459D01*
X52842Y-31408D01*
X52859Y-31340D01*
X52875Y-31307D01*
X52909Y-31273D01*
X52960Y-31256D01*
X53044Y-31256D01*
X52707Y-31357D02*
X52538Y-31357D01*
X52740Y-31256D02*
X52622Y-31610D01*
X52504Y-31256D01*
X53833Y-31290D02*
X53850Y-31273D01*
X53901Y-31256D01*
X53934Y-31256D01*
X53985Y-31273D01*
X54019Y-31307D01*
X54036Y-31340D01*
X54053Y-31408D01*
X54053Y-31459D01*
X54036Y-31526D01*
X54019Y-31560D01*
X53985Y-31594D01*
X53934Y-31610D01*
X53901Y-31610D01*
X53850Y-31594D01*
X53833Y-31577D01*
X53513Y-31256D02*
X53681Y-31256D01*
X53681Y-31610D01*
G54D14*
X60300Y-31050D02*
X60300Y-31800D01*
X54300Y-31050D02*
X54300Y-31800D01*
X50300Y-31050D02*
X50300Y-31800D01*
X44300Y-31100D02*
X44300Y-31800D01*
X64300Y-54650D02*
X64300Y-53800D01*
X60300Y-54650D02*
X60300Y-53800D01*
X56300Y-54600D02*
X56300Y-53800D01*
X52300Y-54650D02*
X52300Y-53800D01*
X48300Y-54600D02*
X48300Y-53800D01*
X44300Y-54650D02*
X44300Y-53800D01*
G54D11*
X59766Y-54309D02*
X59749Y-54326D01*
X59698Y-54343D01*
X59665Y-54343D01*
X59614Y-54326D01*
X59580Y-54292D01*
X59563Y-54259D01*
X59546Y-54191D01*
X59546Y-54140D01*
X59563Y-54073D01*
X59580Y-54039D01*
X59614Y-54005D01*
X59665Y-53989D01*
X59698Y-53989D01*
X59749Y-54005D01*
X59766Y-54022D01*
X60086Y-54343D02*
X59918Y-54343D01*
X59918Y-53989D01*
X58555Y-54343D02*
X58555Y-53989D01*
X58639Y-53989D01*
X58690Y-54005D01*
X58724Y-54039D01*
X58740Y-54073D01*
X58757Y-54140D01*
X58757Y-54191D01*
X58740Y-54259D01*
X58724Y-54292D01*
X58690Y-54326D01*
X58639Y-54343D01*
X58555Y-54343D01*
X58892Y-54242D02*
X59061Y-54242D01*
X58859Y-54343D02*
X58977Y-53989D01*
X59095Y-54343D01*
X47766Y-54309D02*
X47749Y-54326D01*
X47698Y-54343D01*
X47665Y-54343D01*
X47614Y-54326D01*
X47580Y-54292D01*
X47563Y-54259D01*
X47546Y-54191D01*
X47546Y-54140D01*
X47563Y-54073D01*
X47580Y-54039D01*
X47614Y-54005D01*
X47665Y-53989D01*
X47698Y-53989D01*
X47749Y-54005D01*
X47766Y-54022D01*
X48086Y-54343D02*
X47918Y-54343D01*
X47918Y-53989D01*
X46555Y-54343D02*
X46555Y-53989D01*
X46639Y-53989D01*
X46690Y-54005D01*
X46724Y-54039D01*
X46740Y-54073D01*
X46757Y-54140D01*
X46757Y-54191D01*
X46740Y-54259D01*
X46724Y-54292D01*
X46690Y-54326D01*
X46639Y-54343D01*
X46555Y-54343D01*
X46892Y-54242D02*
X47061Y-54242D01*
X46859Y-54343D02*
X46977Y-53989D01*
X47095Y-54343D01*
X42859Y-31256D02*
X42977Y-31425D01*
X43061Y-31256D02*
X43061Y-31610D01*
X42926Y-31610D01*
X42892Y-31594D01*
X42875Y-31577D01*
X42859Y-31543D01*
X42859Y-31492D01*
X42875Y-31459D01*
X42892Y-31442D01*
X42926Y-31425D01*
X43061Y-31425D01*
X42740Y-31610D02*
X42504Y-31256D01*
X42504Y-31610D02*
X42740Y-31256D01*
X44069Y-31610D02*
X43867Y-31610D01*
X43968Y-31256D02*
X43968Y-31610D01*
X43783Y-31610D02*
X43546Y-31256D01*
X43546Y-31610D02*
X43783Y-31256D01*
X66740Y-54343D02*
X66622Y-54174D01*
X66538Y-54343D02*
X66538Y-53989D01*
X66673Y-53989D01*
X66707Y-54005D01*
X66724Y-54022D01*
X66740Y-54056D01*
X66740Y-54107D01*
X66724Y-54140D01*
X66707Y-54157D01*
X66673Y-54174D01*
X66538Y-54174D01*
X66859Y-53989D02*
X67095Y-54343D01*
X67095Y-53989D02*
X66859Y-54343D01*
X67530Y-53989D02*
X67732Y-53989D01*
X67631Y-54343D02*
X67631Y-53989D01*
X67816Y-53989D02*
X68053Y-54343D01*
X68053Y-53989D02*
X67816Y-54343D01*
X63530Y-53989D02*
X63732Y-53989D01*
X63631Y-54343D02*
X63631Y-53989D01*
X63816Y-53989D02*
X64053Y-54343D01*
X64053Y-53989D02*
X63816Y-54343D01*
X62740Y-54343D02*
X62622Y-54174D01*
X62538Y-54343D02*
X62538Y-53989D01*
X62673Y-53989D01*
X62707Y-54005D01*
X62724Y-54022D01*
X62740Y-54056D01*
X62740Y-54107D01*
X62724Y-54140D01*
X62707Y-54157D01*
X62673Y-54174D01*
X62538Y-54174D01*
X62859Y-53989D02*
X63095Y-54343D01*
X63095Y-53989D02*
X62859Y-54343D01*
X55530Y-53989D02*
X55732Y-53989D01*
X55631Y-54343D02*
X55631Y-53989D01*
X55816Y-53989D02*
X56053Y-54343D01*
X56053Y-53989D02*
X55816Y-54343D01*
X54740Y-54343D02*
X54622Y-54174D01*
X54538Y-54343D02*
X54538Y-53989D01*
X54673Y-53989D01*
X54707Y-54005D01*
X54724Y-54022D01*
X54740Y-54056D01*
X54740Y-54107D01*
X54724Y-54140D01*
X54707Y-54157D01*
X54673Y-54174D01*
X54538Y-54174D01*
X54859Y-53989D02*
X55095Y-54343D01*
X55095Y-53989D02*
X54859Y-54343D01*
X51530Y-53989D02*
X51732Y-53989D01*
X51631Y-54343D02*
X51631Y-53989D01*
X51816Y-53989D02*
X52053Y-54343D01*
X52053Y-53989D02*
X51816Y-54343D01*
X50740Y-54343D02*
X50622Y-54174D01*
X50538Y-54343D02*
X50538Y-53989D01*
X50673Y-53989D01*
X50707Y-54005D01*
X50724Y-54022D01*
X50740Y-54056D01*
X50740Y-54107D01*
X50724Y-54140D01*
X50707Y-54157D01*
X50673Y-54174D01*
X50538Y-54174D01*
X50859Y-53989D02*
X51095Y-54343D01*
X51095Y-53989D02*
X50859Y-54343D01*
X43530Y-53989D02*
X43732Y-53989D01*
X43631Y-54343D02*
X43631Y-53989D01*
X43816Y-53989D02*
X44053Y-54343D01*
X44053Y-53989D02*
X43816Y-54343D01*
X42740Y-54343D02*
X42622Y-54174D01*
X42538Y-54343D02*
X42538Y-53989D01*
X42673Y-53989D01*
X42707Y-54005D01*
X42724Y-54022D01*
X42740Y-54056D01*
X42740Y-54107D01*
X42724Y-54140D01*
X42707Y-54157D01*
X42673Y-54174D01*
X42538Y-54174D01*
X42859Y-53989D02*
X43095Y-54343D01*
X43095Y-53989D02*
X42859Y-54343D01*
G54D12*
X44960Y-46029D02*
X45045Y-46057D01*
X45073Y-46085D01*
X45101Y-46142D01*
X45101Y-46226D01*
X45073Y-46282D01*
X45045Y-46310D01*
X44989Y-46339D01*
X44764Y-46339D01*
X44764Y-45748D01*
X44960Y-45748D01*
X45017Y-45776D01*
X45045Y-45804D01*
X45073Y-45860D01*
X45073Y-45917D01*
X45045Y-45973D01*
X45017Y-46001D01*
X44960Y-46029D01*
X44764Y-46029D01*
X45664Y-46339D02*
X45326Y-46339D01*
X45495Y-46339D02*
X45495Y-45748D01*
X45439Y-45832D01*
X45382Y-45889D01*
X45326Y-45917D01*
G54D11*
X41062Y-48739D02*
X41062Y-48148D01*
X41287Y-48148D01*
X41343Y-48176D01*
X41371Y-48204D01*
X41400Y-48260D01*
X41400Y-48345D01*
X41371Y-48401D01*
X41343Y-48429D01*
X41287Y-48457D01*
X41062Y-48457D01*
X41653Y-48739D02*
X41653Y-48148D01*
X41878Y-48148D01*
X41934Y-48176D01*
X41962Y-48204D01*
X41990Y-48260D01*
X41990Y-48345D01*
X41962Y-48401D01*
X41934Y-48429D01*
X41878Y-48457D01*
X41653Y-48457D01*
X42243Y-48739D02*
X42243Y-48148D01*
X42440Y-48570D01*
X42637Y-48148D01*
X42637Y-48739D01*
X41057Y-47148D02*
X41057Y-47626D01*
X41086Y-47682D01*
X41114Y-47710D01*
X41170Y-47739D01*
X41282Y-47739D01*
X41339Y-47710D01*
X41367Y-47682D01*
X41395Y-47626D01*
X41395Y-47148D01*
X41648Y-47570D02*
X41929Y-47570D01*
X41592Y-47739D02*
X41789Y-47148D01*
X41985Y-47739D01*
X42520Y-47739D02*
X42323Y-47457D01*
X42182Y-47739D02*
X42182Y-47148D01*
X42407Y-47148D01*
X42464Y-47176D01*
X42492Y-47204D01*
X42520Y-47260D01*
X42520Y-47345D01*
X42492Y-47401D01*
X42464Y-47429D01*
X42407Y-47457D01*
X42182Y-47457D01*
X42688Y-47148D02*
X43026Y-47148D01*
X42857Y-47739D02*
X42857Y-47148D01*
X41387Y-45739D02*
X41050Y-45739D01*
X41218Y-45739D02*
X41218Y-45148D01*
X41162Y-45232D01*
X41106Y-45289D01*
X41050Y-45317D01*
X41949Y-45739D02*
X41612Y-45739D01*
X41781Y-45739D02*
X41781Y-45148D01*
X41724Y-45232D01*
X41668Y-45289D01*
X41612Y-45317D01*
X41387Y-44739D02*
X41050Y-44739D01*
X41218Y-44739D02*
X41218Y-44148D01*
X41162Y-44232D01*
X41106Y-44289D01*
X41050Y-44317D01*
X41753Y-44148D02*
X41809Y-44148D01*
X41865Y-44176D01*
X41893Y-44204D01*
X41921Y-44260D01*
X41949Y-44373D01*
X41949Y-44514D01*
X41921Y-44626D01*
X41893Y-44682D01*
X41865Y-44710D01*
X41809Y-44739D01*
X41753Y-44739D01*
X41696Y-44710D01*
X41668Y-44682D01*
X41640Y-44626D01*
X41612Y-44514D01*
X41612Y-44373D01*
X41640Y-44260D01*
X41668Y-44204D01*
X41696Y-44176D01*
X41753Y-44148D01*
X41087Y-43739D02*
X41200Y-43739D01*
X41256Y-43710D01*
X41284Y-43682D01*
X41340Y-43598D01*
X41368Y-43485D01*
X41368Y-43260D01*
X41340Y-43204D01*
X41312Y-43176D01*
X41256Y-43148D01*
X41143Y-43148D01*
X41087Y-43176D01*
X41059Y-43204D01*
X41031Y-43260D01*
X41031Y-43401D01*
X41059Y-43457D01*
X41087Y-43485D01*
X41143Y-43514D01*
X41256Y-43514D01*
X41312Y-43485D01*
X41340Y-43457D01*
X41368Y-43401D01*
X41143Y-42301D02*
X41087Y-42273D01*
X41059Y-42245D01*
X41031Y-42189D01*
X41031Y-42160D01*
X41059Y-42104D01*
X41087Y-42076D01*
X41143Y-42048D01*
X41256Y-42048D01*
X41312Y-42076D01*
X41340Y-42104D01*
X41368Y-42160D01*
X41368Y-42189D01*
X41340Y-42245D01*
X41312Y-42273D01*
X41256Y-42301D01*
X41143Y-42301D01*
X41087Y-42329D01*
X41059Y-42357D01*
X41031Y-42414D01*
X41031Y-42526D01*
X41059Y-42582D01*
X41087Y-42610D01*
X41143Y-42639D01*
X41256Y-42639D01*
X41312Y-42610D01*
X41340Y-42582D01*
X41368Y-42526D01*
X41368Y-42414D01*
X41340Y-42357D01*
X41312Y-42329D01*
X41256Y-42301D01*
X41003Y-41148D02*
X41396Y-41148D01*
X41143Y-41739D01*
X41312Y-40048D02*
X41200Y-40048D01*
X41143Y-40076D01*
X41115Y-40104D01*
X41059Y-40189D01*
X41031Y-40301D01*
X41031Y-40526D01*
X41059Y-40582D01*
X41087Y-40610D01*
X41143Y-40639D01*
X41256Y-40639D01*
X41312Y-40610D01*
X41340Y-40582D01*
X41368Y-40526D01*
X41368Y-40385D01*
X41340Y-40329D01*
X41312Y-40301D01*
X41256Y-40273D01*
X41143Y-40273D01*
X41087Y-40301D01*
X41059Y-40329D01*
X41031Y-40385D01*
X41340Y-39148D02*
X41059Y-39148D01*
X41031Y-39429D01*
X41059Y-39401D01*
X41115Y-39373D01*
X41256Y-39373D01*
X41312Y-39401D01*
X41340Y-39429D01*
X41368Y-39485D01*
X41368Y-39626D01*
X41340Y-39682D01*
X41312Y-39710D01*
X41256Y-39739D01*
X41115Y-39739D01*
X41059Y-39710D01*
X41031Y-39682D01*
X41312Y-38345D02*
X41312Y-38739D01*
X41171Y-38120D02*
X41031Y-38542D01*
X41396Y-38542D01*
X41003Y-37148D02*
X41368Y-37148D01*
X41171Y-37373D01*
X41256Y-37373D01*
X41312Y-37401D01*
X41340Y-37429D01*
X41368Y-37485D01*
X41368Y-37626D01*
X41340Y-37682D01*
X41312Y-37710D01*
X41256Y-37739D01*
X41087Y-37739D01*
X41031Y-37710D01*
X41003Y-37682D01*
X41031Y-36204D02*
X41059Y-36176D01*
X41115Y-36148D01*
X41256Y-36148D01*
X41312Y-36176D01*
X41340Y-36204D01*
X41368Y-36260D01*
X41368Y-36317D01*
X41340Y-36401D01*
X41003Y-36739D01*
X41368Y-36739D01*
X41368Y-35739D02*
X41031Y-35739D01*
X41200Y-35739D02*
X41200Y-35148D01*
X41143Y-35232D01*
X41087Y-35289D01*
X41031Y-35317D01*
X41171Y-34148D02*
X41228Y-34148D01*
X41284Y-34176D01*
X41312Y-34204D01*
X41340Y-34260D01*
X41368Y-34373D01*
X41368Y-34514D01*
X41340Y-34626D01*
X41312Y-34682D01*
X41284Y-34710D01*
X41228Y-34739D01*
X41171Y-34739D01*
X41115Y-34710D01*
X41087Y-34682D01*
X41059Y-34626D01*
X41031Y-34514D01*
X41031Y-34373D01*
X41059Y-34260D01*
X41087Y-34204D01*
X41115Y-34176D01*
X41171Y-34148D01*
X37060Y-45387D02*
X37060Y-45050D01*
X37060Y-45218D02*
X37651Y-45218D01*
X37567Y-45162D01*
X37510Y-45106D01*
X37482Y-45050D01*
X37060Y-45949D02*
X37060Y-45612D01*
X37060Y-45781D02*
X37651Y-45781D01*
X37567Y-45724D01*
X37510Y-45668D01*
X37482Y-45612D01*
X37060Y-44387D02*
X37060Y-44050D01*
X37060Y-44218D02*
X37651Y-44218D01*
X37567Y-44162D01*
X37510Y-44106D01*
X37482Y-44050D01*
X37651Y-44753D02*
X37651Y-44809D01*
X37623Y-44865D01*
X37595Y-44893D01*
X37539Y-44921D01*
X37426Y-44949D01*
X37285Y-44949D01*
X37173Y-44921D01*
X37117Y-44893D01*
X37089Y-44865D01*
X37060Y-44809D01*
X37060Y-44753D01*
X37089Y-44696D01*
X37117Y-44668D01*
X37173Y-44640D01*
X37285Y-44612D01*
X37426Y-44612D01*
X37539Y-44640D01*
X37595Y-44668D01*
X37623Y-44696D01*
X37651Y-44753D01*
X37060Y-43387D02*
X37060Y-43500D01*
X37089Y-43556D01*
X37117Y-43584D01*
X37201Y-43640D01*
X37314Y-43668D01*
X37539Y-43668D01*
X37595Y-43640D01*
X37623Y-43612D01*
X37651Y-43556D01*
X37651Y-43443D01*
X37623Y-43387D01*
X37595Y-43359D01*
X37539Y-43331D01*
X37398Y-43331D01*
X37342Y-43359D01*
X37314Y-43387D01*
X37285Y-43443D01*
X37285Y-43556D01*
X37314Y-43612D01*
X37342Y-43640D01*
X37398Y-43668D01*
X37398Y-42443D02*
X37426Y-42387D01*
X37454Y-42359D01*
X37510Y-42331D01*
X37539Y-42331D01*
X37595Y-42359D01*
X37623Y-42387D01*
X37651Y-42443D01*
X37651Y-42556D01*
X37623Y-42612D01*
X37595Y-42640D01*
X37539Y-42668D01*
X37510Y-42668D01*
X37454Y-42640D01*
X37426Y-42612D01*
X37398Y-42556D01*
X37398Y-42443D01*
X37370Y-42387D01*
X37342Y-42359D01*
X37285Y-42331D01*
X37173Y-42331D01*
X37117Y-42359D01*
X37089Y-42387D01*
X37060Y-42443D01*
X37060Y-42556D01*
X37089Y-42612D01*
X37117Y-42640D01*
X37173Y-42668D01*
X37285Y-42668D01*
X37342Y-42640D01*
X37370Y-42612D01*
X37398Y-42556D01*
X37651Y-41303D02*
X37651Y-41696D01*
X37060Y-41443D01*
X37651Y-40612D02*
X37651Y-40500D01*
X37623Y-40443D01*
X37595Y-40415D01*
X37510Y-40359D01*
X37398Y-40331D01*
X37173Y-40331D01*
X37117Y-40359D01*
X37089Y-40387D01*
X37060Y-40443D01*
X37060Y-40556D01*
X37089Y-40612D01*
X37117Y-40640D01*
X37173Y-40668D01*
X37314Y-40668D01*
X37370Y-40640D01*
X37398Y-40612D01*
X37426Y-40556D01*
X37426Y-40443D01*
X37398Y-40387D01*
X37370Y-40359D01*
X37314Y-40331D01*
X37651Y-39640D02*
X37651Y-39359D01*
X37370Y-39331D01*
X37398Y-39359D01*
X37426Y-39415D01*
X37426Y-39556D01*
X37398Y-39612D01*
X37370Y-39640D01*
X37314Y-39668D01*
X37173Y-39668D01*
X37117Y-39640D01*
X37089Y-39612D01*
X37060Y-39556D01*
X37060Y-39415D01*
X37089Y-39359D01*
X37117Y-39331D01*
X37454Y-38612D02*
X37060Y-38612D01*
X37679Y-38471D02*
X37257Y-38331D01*
X37257Y-38696D01*
X37651Y-37303D02*
X37651Y-37668D01*
X37426Y-37471D01*
X37426Y-37556D01*
X37398Y-37612D01*
X37370Y-37640D01*
X37314Y-37668D01*
X37173Y-37668D01*
X37117Y-37640D01*
X37089Y-37612D01*
X37060Y-37556D01*
X37060Y-37387D01*
X37089Y-37331D01*
X37117Y-37303D01*
X37595Y-36331D02*
X37623Y-36359D01*
X37651Y-36415D01*
X37651Y-36556D01*
X37623Y-36612D01*
X37595Y-36640D01*
X37539Y-36668D01*
X37482Y-36668D01*
X37398Y-36640D01*
X37060Y-36303D01*
X37060Y-36668D01*
X37060Y-35668D02*
X37060Y-35331D01*
X37060Y-35500D02*
X37651Y-35500D01*
X37567Y-35443D01*
X37510Y-35387D01*
X37482Y-35331D01*
X37651Y-34471D02*
X37651Y-34528D01*
X37623Y-34584D01*
X37595Y-34612D01*
X37539Y-34640D01*
X37426Y-34668D01*
X37285Y-34668D01*
X37173Y-34640D01*
X37117Y-34612D01*
X37089Y-34584D01*
X37060Y-34528D01*
X37060Y-34471D01*
X37089Y-34415D01*
X37117Y-34387D01*
X37173Y-34359D01*
X37285Y-34331D01*
X37426Y-34331D01*
X37539Y-34359D01*
X37595Y-34387D01*
X37623Y-34415D01*
X37651Y-34471D01*
X75993Y-38698D02*
X75993Y-38901D01*
X75993Y-38800D02*
X75639Y-38800D01*
X75689Y-38833D01*
X75723Y-38867D01*
X75740Y-38901D01*
X75672Y-40901D02*
X75655Y-40884D01*
X75639Y-40850D01*
X75639Y-40766D01*
X75655Y-40732D01*
X75672Y-40715D01*
X75706Y-40698D01*
X75740Y-40698D01*
X75790Y-40715D01*
X75993Y-40918D01*
X75993Y-40698D01*
X75639Y-42918D02*
X75639Y-42698D01*
X75774Y-42816D01*
X75774Y-42766D01*
X75790Y-42732D01*
X75807Y-42715D01*
X75841Y-42698D01*
X75925Y-42698D01*
X75959Y-42715D01*
X75976Y-42732D01*
X75993Y-42766D01*
X75993Y-42867D01*
X75976Y-42901D01*
X75959Y-42918D01*
X75757Y-44732D02*
X75993Y-44732D01*
X75622Y-44816D02*
X75875Y-44901D01*
X75875Y-44681D01*
X75639Y-46715D02*
X75639Y-46884D01*
X75807Y-46901D01*
X75790Y-46884D01*
X75774Y-46850D01*
X75774Y-46766D01*
X75790Y-46732D01*
X75807Y-46715D01*
X75841Y-46698D01*
X75925Y-46698D01*
X75959Y-46715D01*
X75976Y-46732D01*
X75993Y-46766D01*
X75993Y-46850D01*
X75976Y-46884D01*
X75959Y-46901D01*
X75639Y-48732D02*
X75639Y-48800D01*
X75655Y-48833D01*
X75672Y-48850D01*
X75723Y-48884D01*
X75790Y-48901D01*
X75925Y-48901D01*
X75959Y-48884D01*
X75976Y-48867D01*
X75993Y-48833D01*
X75993Y-48766D01*
X75976Y-48732D01*
X75959Y-48715D01*
X75925Y-48698D01*
X75841Y-48698D01*
X75807Y-48715D01*
X75790Y-48732D01*
X75774Y-48766D01*
X75774Y-48833D01*
X75790Y-48867D01*
X75807Y-48884D01*
X75841Y-48901D01*
X75655Y-40069D02*
X75639Y-40103D01*
X75639Y-40154D01*
X75655Y-40204D01*
X75689Y-40238D01*
X75723Y-40255D01*
X75790Y-40272D01*
X75841Y-40272D01*
X75909Y-40255D01*
X75942Y-40238D01*
X75976Y-40204D01*
X75993Y-40154D01*
X75993Y-40120D01*
X75976Y-40069D01*
X75959Y-40053D01*
X75841Y-40053D01*
X75841Y-40120D01*
X75993Y-39901D02*
X75639Y-39901D01*
X75993Y-39698D01*
X75639Y-39698D01*
X75993Y-39530D02*
X75639Y-39530D01*
X75639Y-39445D01*
X75655Y-39395D01*
X75689Y-39361D01*
X75723Y-39344D01*
X75790Y-39327D01*
X75841Y-39327D01*
X75909Y-39344D01*
X75942Y-39361D01*
X75976Y-39395D01*
X75993Y-39445D01*
X75993Y-39530D01*
X75655Y-42069D02*
X75639Y-42103D01*
X75639Y-42154D01*
X75655Y-42204D01*
X75689Y-42238D01*
X75723Y-42255D01*
X75790Y-42272D01*
X75841Y-42272D01*
X75909Y-42255D01*
X75942Y-42238D01*
X75976Y-42204D01*
X75993Y-42154D01*
X75993Y-42120D01*
X75976Y-42069D01*
X75959Y-42053D01*
X75841Y-42053D01*
X75841Y-42120D01*
X75993Y-41901D02*
X75639Y-41901D01*
X75993Y-41698D01*
X75639Y-41698D01*
X75993Y-41530D02*
X75639Y-41530D01*
X75639Y-41445D01*
X75655Y-41395D01*
X75689Y-41361D01*
X75723Y-41344D01*
X75790Y-41327D01*
X75841Y-41327D01*
X75909Y-41344D01*
X75942Y-41361D01*
X75976Y-41395D01*
X75993Y-41445D01*
X75993Y-41530D01*
X75655Y-44069D02*
X75639Y-44103D01*
X75639Y-44154D01*
X75655Y-44204D01*
X75689Y-44238D01*
X75723Y-44255D01*
X75790Y-44272D01*
X75841Y-44272D01*
X75909Y-44255D01*
X75942Y-44238D01*
X75976Y-44204D01*
X75993Y-44154D01*
X75993Y-44120D01*
X75976Y-44069D01*
X75959Y-44053D01*
X75841Y-44053D01*
X75841Y-44120D01*
X75993Y-43901D02*
X75639Y-43901D01*
X75993Y-43698D01*
X75639Y-43698D01*
X75993Y-43530D02*
X75639Y-43530D01*
X75639Y-43445D01*
X75655Y-43395D01*
X75689Y-43361D01*
X75723Y-43344D01*
X75790Y-43327D01*
X75841Y-43327D01*
X75909Y-43344D01*
X75942Y-43361D01*
X75976Y-43395D01*
X75993Y-43445D01*
X75993Y-43530D01*
X75655Y-46069D02*
X75639Y-46103D01*
X75639Y-46154D01*
X75655Y-46204D01*
X75689Y-46238D01*
X75723Y-46255D01*
X75790Y-46272D01*
X75841Y-46272D01*
X75909Y-46255D01*
X75942Y-46238D01*
X75976Y-46204D01*
X75993Y-46154D01*
X75993Y-46120D01*
X75976Y-46069D01*
X75959Y-46053D01*
X75841Y-46053D01*
X75841Y-46120D01*
X75993Y-45901D02*
X75639Y-45901D01*
X75993Y-45698D01*
X75639Y-45698D01*
X75993Y-45530D02*
X75639Y-45530D01*
X75639Y-45445D01*
X75655Y-45395D01*
X75689Y-45361D01*
X75723Y-45344D01*
X75790Y-45327D01*
X75841Y-45327D01*
X75909Y-45344D01*
X75942Y-45361D01*
X75976Y-45395D01*
X75993Y-45445D01*
X75993Y-45530D01*
X75655Y-48069D02*
X75639Y-48103D01*
X75639Y-48154D01*
X75655Y-48204D01*
X75689Y-48238D01*
X75723Y-48255D01*
X75790Y-48272D01*
X75841Y-48272D01*
X75909Y-48255D01*
X75942Y-48238D01*
X75976Y-48204D01*
X75993Y-48154D01*
X75993Y-48120D01*
X75976Y-48069D01*
X75959Y-48053D01*
X75841Y-48053D01*
X75841Y-48120D01*
X75993Y-47901D02*
X75639Y-47901D01*
X75993Y-47698D01*
X75639Y-47698D01*
X75993Y-47530D02*
X75639Y-47530D01*
X75639Y-47445D01*
X75655Y-47395D01*
X75689Y-47361D01*
X75723Y-47344D01*
X75790Y-47327D01*
X75841Y-47327D01*
X75909Y-47344D01*
X75942Y-47361D01*
X75976Y-47395D01*
X75993Y-47445D01*
X75993Y-47530D01*
X75655Y-50069D02*
X75639Y-50103D01*
X75639Y-50154D01*
X75655Y-50204D01*
X75689Y-50238D01*
X75723Y-50255D01*
X75790Y-50272D01*
X75841Y-50272D01*
X75909Y-50255D01*
X75942Y-50238D01*
X75976Y-50204D01*
X75993Y-50154D01*
X75993Y-50120D01*
X75976Y-50069D01*
X75959Y-50053D01*
X75841Y-50053D01*
X75841Y-50120D01*
X75993Y-49901D02*
X75639Y-49901D01*
X75993Y-49698D01*
X75639Y-49698D01*
X75993Y-49530D02*
X75639Y-49530D01*
X75639Y-49445D01*
X75655Y-49395D01*
X75689Y-49361D01*
X75723Y-49344D01*
X75790Y-49327D01*
X75841Y-49327D01*
X75909Y-49344D01*
X75942Y-49361D01*
X75976Y-49395D01*
X75993Y-49445D01*
X75993Y-49530D01*
X62069Y-31594D02*
X62103Y-31610D01*
X62154Y-31610D01*
X62204Y-31594D01*
X62238Y-31560D01*
X62255Y-31526D01*
X62272Y-31459D01*
X62272Y-31408D01*
X62255Y-31340D01*
X62238Y-31307D01*
X62204Y-31273D01*
X62154Y-31256D01*
X62120Y-31256D01*
X62069Y-31273D01*
X62053Y-31290D01*
X62053Y-31408D01*
X62120Y-31408D01*
X61901Y-31256D02*
X61901Y-31610D01*
X61698Y-31256D01*
X61698Y-31610D01*
X61530Y-31256D02*
X61530Y-31610D01*
X61445Y-31610D01*
X61395Y-31594D01*
X61361Y-31560D01*
X61344Y-31526D01*
X61327Y-31459D01*
X61327Y-31408D01*
X61344Y-31340D01*
X61361Y-31307D01*
X61395Y-31273D01*
X61445Y-31256D01*
X61530Y-31256D01*
X60867Y-31610D02*
X61036Y-31610D01*
X61053Y-31442D01*
X61036Y-31459D01*
X61002Y-31475D01*
X60918Y-31475D01*
X60884Y-31459D01*
X60867Y-31442D01*
X60850Y-31408D01*
X60850Y-31324D01*
X60867Y-31290D01*
X60884Y-31273D01*
X60918Y-31256D01*
X61002Y-31256D01*
X61036Y-31273D01*
X61053Y-31290D01*
X60749Y-31610D02*
X60631Y-31256D01*
X60513Y-31610D01*
X56069Y-31594D02*
X56103Y-31610D01*
X56154Y-31610D01*
X56204Y-31594D01*
X56238Y-31560D01*
X56255Y-31526D01*
X56272Y-31459D01*
X56272Y-31408D01*
X56255Y-31340D01*
X56238Y-31307D01*
X56204Y-31273D01*
X56154Y-31256D01*
X56120Y-31256D01*
X56069Y-31273D01*
X56053Y-31290D01*
X56053Y-31408D01*
X56120Y-31408D01*
X55901Y-31256D02*
X55901Y-31610D01*
X55698Y-31256D01*
X55698Y-31610D01*
X55530Y-31256D02*
X55530Y-31610D01*
X55445Y-31610D01*
X55395Y-31594D01*
X55361Y-31560D01*
X55344Y-31526D01*
X55327Y-31459D01*
X55327Y-31408D01*
X55344Y-31340D01*
X55361Y-31307D01*
X55395Y-31273D01*
X55445Y-31256D01*
X55530Y-31256D01*
X54867Y-31610D02*
X55036Y-31610D01*
X55053Y-31442D01*
X55036Y-31459D01*
X55002Y-31475D01*
X54918Y-31475D01*
X54884Y-31459D01*
X54867Y-31442D01*
X54850Y-31408D01*
X54850Y-31324D01*
X54867Y-31290D01*
X54884Y-31273D01*
X54918Y-31256D01*
X55002Y-31256D01*
X55036Y-31273D01*
X55053Y-31290D01*
X54749Y-31610D02*
X54631Y-31256D01*
X54513Y-31610D01*
X50867Y-31610D02*
X51036Y-31610D01*
X51053Y-31442D01*
X51036Y-31459D01*
X51002Y-31475D01*
X50918Y-31475D01*
X50884Y-31459D01*
X50867Y-31442D01*
X50850Y-31408D01*
X50850Y-31324D01*
X50867Y-31290D01*
X50884Y-31273D01*
X50918Y-31256D01*
X51002Y-31256D01*
X51036Y-31273D01*
X51053Y-31290D01*
X50749Y-31610D02*
X50631Y-31256D01*
X50513Y-31610D01*
X52069Y-31594D02*
X52103Y-31610D01*
X52154Y-31610D01*
X52204Y-31594D01*
X52238Y-31560D01*
X52255Y-31526D01*
X52272Y-31459D01*
X52272Y-31408D01*
X52255Y-31340D01*
X52238Y-31307D01*
X52204Y-31273D01*
X52154Y-31256D01*
X52120Y-31256D01*
X52069Y-31273D01*
X52053Y-31290D01*
X52053Y-31408D01*
X52120Y-31408D01*
X51901Y-31256D02*
X51901Y-31610D01*
X51698Y-31256D01*
X51698Y-31610D01*
X51530Y-31256D02*
X51530Y-31610D01*
X51445Y-31610D01*
X51395Y-31594D01*
X51361Y-31560D01*
X51344Y-31526D01*
X51327Y-31459D01*
X51327Y-31408D01*
X51344Y-31340D01*
X51361Y-31307D01*
X51395Y-31273D01*
X51445Y-31256D01*
X51530Y-31256D01*
X44867Y-31610D02*
X45036Y-31610D01*
X45053Y-31442D01*
X45036Y-31459D01*
X45002Y-31475D01*
X44918Y-31475D01*
X44884Y-31459D01*
X44867Y-31442D01*
X44850Y-31408D01*
X44850Y-31324D01*
X44867Y-31290D01*
X44884Y-31273D01*
X44918Y-31256D01*
X45002Y-31256D01*
X45036Y-31273D01*
X45053Y-31290D01*
X44749Y-31610D02*
X44631Y-31256D01*
X44513Y-31610D01*
X46069Y-31594D02*
X46103Y-31610D01*
X46154Y-31610D01*
X46204Y-31594D01*
X46238Y-31560D01*
X46255Y-31526D01*
X46272Y-31459D01*
X46272Y-31408D01*
X46255Y-31340D01*
X46238Y-31307D01*
X46204Y-31273D01*
X46154Y-31256D01*
X46120Y-31256D01*
X46069Y-31273D01*
X46053Y-31290D01*
X46053Y-31408D01*
X46120Y-31408D01*
X45901Y-31256D02*
X45901Y-31610D01*
X45698Y-31256D01*
X45698Y-31610D01*
X45530Y-31256D02*
X45530Y-31610D01*
X45445Y-31610D01*
X45395Y-31594D01*
X45361Y-31560D01*
X45344Y-31526D01*
X45327Y-31459D01*
X45327Y-31408D01*
X45344Y-31340D01*
X45361Y-31307D01*
X45395Y-31273D01*
X45445Y-31256D01*
X45530Y-31256D01*
X40867Y-31610D02*
X41036Y-31610D01*
X41053Y-31442D01*
X41036Y-31459D01*
X41002Y-31475D01*
X40918Y-31475D01*
X40884Y-31459D01*
X40867Y-31442D01*
X40850Y-31408D01*
X40850Y-31324D01*
X40867Y-31290D01*
X40884Y-31273D01*
X40918Y-31256D01*
X41002Y-31256D01*
X41036Y-31273D01*
X41053Y-31290D01*
X40749Y-31610D02*
X40631Y-31256D01*
X40513Y-31610D01*
X42069Y-31594D02*
X42103Y-31610D01*
X42154Y-31610D01*
X42204Y-31594D01*
X42238Y-31560D01*
X42255Y-31526D01*
X42272Y-31459D01*
X42272Y-31408D01*
X42255Y-31340D01*
X42238Y-31307D01*
X42204Y-31273D01*
X42154Y-31256D01*
X42120Y-31256D01*
X42069Y-31273D01*
X42053Y-31290D01*
X42053Y-31408D01*
X42120Y-31408D01*
X41901Y-31256D02*
X41901Y-31610D01*
X41698Y-31256D01*
X41698Y-31610D01*
X41530Y-31256D02*
X41530Y-31610D01*
X41445Y-31610D01*
X41395Y-31594D01*
X41361Y-31560D01*
X41344Y-31526D01*
X41327Y-31459D01*
X41327Y-31408D01*
X41344Y-31340D01*
X41361Y-31307D01*
X41395Y-31273D01*
X41445Y-31256D01*
X41530Y-31256D01*
X64832Y-53989D02*
X64663Y-53989D01*
X64646Y-54157D01*
X64663Y-54140D01*
X64697Y-54124D01*
X64781Y-54124D01*
X64815Y-54140D01*
X64832Y-54157D01*
X64849Y-54191D01*
X64849Y-54275D01*
X64832Y-54309D01*
X64815Y-54326D01*
X64781Y-54343D01*
X64697Y-54343D01*
X64663Y-54326D01*
X64646Y-54309D01*
X64950Y-53989D02*
X65068Y-54343D01*
X65186Y-53989D01*
X65530Y-54005D02*
X65496Y-53989D01*
X65445Y-53989D01*
X65395Y-54005D01*
X65361Y-54039D01*
X65344Y-54073D01*
X65327Y-54140D01*
X65327Y-54191D01*
X65344Y-54259D01*
X65361Y-54292D01*
X65395Y-54326D01*
X65445Y-54343D01*
X65479Y-54343D01*
X65530Y-54326D01*
X65546Y-54309D01*
X65546Y-54191D01*
X65479Y-54191D01*
X65698Y-54343D02*
X65698Y-53989D01*
X65901Y-54343D01*
X65901Y-53989D01*
X66069Y-54343D02*
X66069Y-53989D01*
X66154Y-53989D01*
X66204Y-54005D01*
X66238Y-54039D01*
X66255Y-54073D01*
X66272Y-54140D01*
X66272Y-54191D01*
X66255Y-54259D01*
X66238Y-54292D01*
X66204Y-54326D01*
X66154Y-54343D01*
X66069Y-54343D01*
X60732Y-53989D02*
X60563Y-53989D01*
X60546Y-54157D01*
X60563Y-54140D01*
X60597Y-54124D01*
X60681Y-54124D01*
X60715Y-54140D01*
X60732Y-54157D01*
X60749Y-54191D01*
X60749Y-54275D01*
X60732Y-54309D01*
X60715Y-54326D01*
X60681Y-54343D01*
X60597Y-54343D01*
X60563Y-54326D01*
X60546Y-54309D01*
X60850Y-53989D02*
X60968Y-54343D01*
X61086Y-53989D01*
X61530Y-54005D02*
X61496Y-53989D01*
X61445Y-53989D01*
X61395Y-54005D01*
X61361Y-54039D01*
X61344Y-54073D01*
X61327Y-54140D01*
X61327Y-54191D01*
X61344Y-54259D01*
X61361Y-54292D01*
X61395Y-54326D01*
X61445Y-54343D01*
X61479Y-54343D01*
X61530Y-54326D01*
X61546Y-54309D01*
X61546Y-54191D01*
X61479Y-54191D01*
X61698Y-54343D02*
X61698Y-53989D01*
X61901Y-54343D01*
X61901Y-53989D01*
X62069Y-54343D02*
X62069Y-53989D01*
X62154Y-53989D01*
X62204Y-54005D01*
X62238Y-54039D01*
X62255Y-54073D01*
X62272Y-54140D01*
X62272Y-54191D01*
X62255Y-54259D01*
X62238Y-54292D01*
X62204Y-54326D01*
X62154Y-54343D01*
X62069Y-54343D01*
X56732Y-53989D02*
X56563Y-53989D01*
X56546Y-54157D01*
X56563Y-54140D01*
X56597Y-54124D01*
X56681Y-54124D01*
X56715Y-54140D01*
X56732Y-54157D01*
X56749Y-54191D01*
X56749Y-54275D01*
X56732Y-54309D01*
X56715Y-54326D01*
X56681Y-54343D01*
X56597Y-54343D01*
X56563Y-54326D01*
X56546Y-54309D01*
X56850Y-53989D02*
X56968Y-54343D01*
X57086Y-53989D01*
X57530Y-54005D02*
X57496Y-53989D01*
X57445Y-53989D01*
X57395Y-54005D01*
X57361Y-54039D01*
X57344Y-54073D01*
X57327Y-54140D01*
X57327Y-54191D01*
X57344Y-54259D01*
X57361Y-54292D01*
X57395Y-54326D01*
X57445Y-54343D01*
X57479Y-54343D01*
X57530Y-54326D01*
X57546Y-54309D01*
X57546Y-54191D01*
X57479Y-54191D01*
X57698Y-54343D02*
X57698Y-53989D01*
X57901Y-54343D01*
X57901Y-53989D01*
X58069Y-54343D02*
X58069Y-53989D01*
X58154Y-53989D01*
X58204Y-54005D01*
X58238Y-54039D01*
X58255Y-54073D01*
X58272Y-54140D01*
X58272Y-54191D01*
X58255Y-54259D01*
X58238Y-54292D01*
X58204Y-54326D01*
X58154Y-54343D01*
X58069Y-54343D01*
X52732Y-53989D02*
X52563Y-53989D01*
X52546Y-54157D01*
X52563Y-54140D01*
X52597Y-54124D01*
X52681Y-54124D01*
X52715Y-54140D01*
X52732Y-54157D01*
X52749Y-54191D01*
X52749Y-54275D01*
X52732Y-54309D01*
X52715Y-54326D01*
X52681Y-54343D01*
X52597Y-54343D01*
X52563Y-54326D01*
X52546Y-54309D01*
X52850Y-53989D02*
X52968Y-54343D01*
X53086Y-53989D01*
X53530Y-54005D02*
X53496Y-53989D01*
X53445Y-53989D01*
X53395Y-54005D01*
X53361Y-54039D01*
X53344Y-54073D01*
X53327Y-54140D01*
X53327Y-54191D01*
X53344Y-54259D01*
X53361Y-54292D01*
X53395Y-54326D01*
X53445Y-54343D01*
X53479Y-54343D01*
X53530Y-54326D01*
X53546Y-54309D01*
X53546Y-54191D01*
X53479Y-54191D01*
X53698Y-54343D02*
X53698Y-53989D01*
X53901Y-54343D01*
X53901Y-53989D01*
X54069Y-54343D02*
X54069Y-53989D01*
X54154Y-53989D01*
X54204Y-54005D01*
X54238Y-54039D01*
X54255Y-54073D01*
X54272Y-54140D01*
X54272Y-54191D01*
X54255Y-54259D01*
X54238Y-54292D01*
X54204Y-54326D01*
X54154Y-54343D01*
X54069Y-54343D01*
X40732Y-53989D02*
X40563Y-53989D01*
X40546Y-54157D01*
X40563Y-54140D01*
X40597Y-54124D01*
X40681Y-54124D01*
X40715Y-54140D01*
X40732Y-54157D01*
X40749Y-54191D01*
X40749Y-54275D01*
X40732Y-54309D01*
X40715Y-54326D01*
X40681Y-54343D01*
X40597Y-54343D01*
X40563Y-54326D01*
X40546Y-54309D01*
X40850Y-53989D02*
X40968Y-54343D01*
X41086Y-53989D01*
X41530Y-54005D02*
X41496Y-53989D01*
X41445Y-53989D01*
X41395Y-54005D01*
X41361Y-54039D01*
X41344Y-54073D01*
X41327Y-54140D01*
X41327Y-54191D01*
X41344Y-54259D01*
X41361Y-54292D01*
X41395Y-54326D01*
X41445Y-54343D01*
X41479Y-54343D01*
X41530Y-54326D01*
X41546Y-54309D01*
X41546Y-54191D01*
X41479Y-54191D01*
X41698Y-54343D02*
X41698Y-53989D01*
X41901Y-54343D01*
X41901Y-53989D01*
X42069Y-54343D02*
X42069Y-53989D01*
X42154Y-53989D01*
X42204Y-54005D01*
X42238Y-54039D01*
X42255Y-54073D01*
X42272Y-54140D01*
X42272Y-54191D01*
X42255Y-54259D01*
X42238Y-54292D01*
X42204Y-54326D01*
X42154Y-54343D01*
X42069Y-54343D01*
X48732Y-53989D02*
X48563Y-53989D01*
X48546Y-54157D01*
X48563Y-54140D01*
X48597Y-54124D01*
X48681Y-54124D01*
X48715Y-54140D01*
X48732Y-54157D01*
X48749Y-54191D01*
X48749Y-54275D01*
X48732Y-54309D01*
X48715Y-54326D01*
X48681Y-54343D01*
X48597Y-54343D01*
X48563Y-54326D01*
X48546Y-54309D01*
X48850Y-53989D02*
X48968Y-54343D01*
X49086Y-53989D01*
X49530Y-54005D02*
X49496Y-53989D01*
X49445Y-53989D01*
X49395Y-54005D01*
X49361Y-54039D01*
X49344Y-54073D01*
X49327Y-54140D01*
X49327Y-54191D01*
X49344Y-54259D01*
X49361Y-54292D01*
X49395Y-54326D01*
X49445Y-54343D01*
X49479Y-54343D01*
X49530Y-54326D01*
X49546Y-54309D01*
X49546Y-54191D01*
X49479Y-54191D01*
X49698Y-54343D02*
X49698Y-53989D01*
X49901Y-54343D01*
X49901Y-53989D01*
X50069Y-54343D02*
X50069Y-53989D01*
X50154Y-53989D01*
X50204Y-54005D01*
X50238Y-54039D01*
X50255Y-54073D01*
X50272Y-54140D01*
X50272Y-54191D01*
X50255Y-54259D01*
X50238Y-54292D01*
X50204Y-54326D01*
X50154Y-54343D01*
X50069Y-54343D01*
X45530Y-54005D02*
X45496Y-53989D01*
X45445Y-53989D01*
X45395Y-54005D01*
X45361Y-54039D01*
X45344Y-54073D01*
X45327Y-54140D01*
X45327Y-54191D01*
X45344Y-54259D01*
X45361Y-54292D01*
X45395Y-54326D01*
X45445Y-54343D01*
X45479Y-54343D01*
X45530Y-54326D01*
X45546Y-54309D01*
X45546Y-54191D01*
X45479Y-54191D01*
X45698Y-54343D02*
X45698Y-53989D01*
X45901Y-54343D01*
X45901Y-53989D01*
X46069Y-54343D02*
X46069Y-53989D01*
X46154Y-53989D01*
X46204Y-54005D01*
X46238Y-54039D01*
X46255Y-54073D01*
X46272Y-54140D01*
X46272Y-54191D01*
X46255Y-54259D01*
X46238Y-54292D01*
X46204Y-54326D01*
X46154Y-54343D01*
X46069Y-54343D01*
X44732Y-53989D02*
X44563Y-53989D01*
X44546Y-54157D01*
X44563Y-54140D01*
X44597Y-54124D01*
X44681Y-54124D01*
X44715Y-54140D01*
X44732Y-54157D01*
X44749Y-54191D01*
X44749Y-54275D01*
X44732Y-54309D01*
X44715Y-54326D01*
X44681Y-54343D01*
X44597Y-54343D01*
X44563Y-54326D01*
X44546Y-54309D01*
X44850Y-53989D02*
X44968Y-54343D01*
X45086Y-53989D01*
G54D12*
X69617Y-55629D02*
X69701Y-55657D01*
X69729Y-55685D01*
X69757Y-55742D01*
X69757Y-55826D01*
X69729Y-55882D01*
X69701Y-55910D01*
X69645Y-55939D01*
X69420Y-55939D01*
X69420Y-55348D01*
X69617Y-55348D01*
X69673Y-55376D01*
X69701Y-55404D01*
X69729Y-55460D01*
X69729Y-55517D01*
X69701Y-55573D01*
X69673Y-55601D01*
X69617Y-55629D01*
X69420Y-55629D01*
X70123Y-55348D02*
X70235Y-55348D01*
X70292Y-55376D01*
X70348Y-55432D01*
X70376Y-55545D01*
X70376Y-55742D01*
X70348Y-55854D01*
X70292Y-55910D01*
X70235Y-55939D01*
X70123Y-55939D01*
X70067Y-55910D01*
X70011Y-55854D01*
X69982Y-55742D01*
X69982Y-55545D01*
X70011Y-55432D01*
X70067Y-55376D01*
X70123Y-55348D01*
X70742Y-55348D02*
X70854Y-55348D01*
X70910Y-55376D01*
X70967Y-55432D01*
X70995Y-55545D01*
X70995Y-55742D01*
X70967Y-55854D01*
X70910Y-55910D01*
X70854Y-55939D01*
X70742Y-55939D01*
X70685Y-55910D01*
X70629Y-55854D01*
X70601Y-55742D01*
X70601Y-55545D01*
X70629Y-55432D01*
X70685Y-55376D01*
X70742Y-55348D01*
X71164Y-55348D02*
X71501Y-55348D01*
X71332Y-55939D02*
X71332Y-55348D01*
X71810Y-55348D02*
X71867Y-55348D01*
X71923Y-55376D01*
X71951Y-55404D01*
X71979Y-55460D01*
X72007Y-55573D01*
X72007Y-55714D01*
X71979Y-55826D01*
X71951Y-55882D01*
X71923Y-55910D01*
X71867Y-55939D01*
X71810Y-55939D01*
X71754Y-55910D01*
X71726Y-55882D01*
X71698Y-55826D01*
X71670Y-55714D01*
X71670Y-55573D01*
X71698Y-55460D01*
X71726Y-55404D01*
X71754Y-55376D01*
X71810Y-55348D01*
X64185Y-29239D02*
X64101Y-29210D01*
X63960Y-29210D01*
X63904Y-29239D01*
X63876Y-29267D01*
X63848Y-29323D01*
X63848Y-29379D01*
X63876Y-29435D01*
X63904Y-29464D01*
X63960Y-29492D01*
X64073Y-29520D01*
X64129Y-29548D01*
X64157Y-29576D01*
X64185Y-29632D01*
X64185Y-29689D01*
X64157Y-29745D01*
X64129Y-29773D01*
X64073Y-29801D01*
X63932Y-29801D01*
X63848Y-29773D01*
X63595Y-29210D02*
X63595Y-29801D01*
X63370Y-29801D01*
X63314Y-29773D01*
X63285Y-29745D01*
X63257Y-29689D01*
X63257Y-29604D01*
X63285Y-29548D01*
X63314Y-29520D01*
X63370Y-29492D01*
X63595Y-29492D01*
X63004Y-29210D02*
X63004Y-29801D01*
X62414Y-29210D02*
X62751Y-29210D01*
X62582Y-29210D02*
X62582Y-29801D01*
X62639Y-29717D01*
X62695Y-29660D01*
X62751Y-29632D01*
X58185Y-29239D02*
X58101Y-29210D01*
X57960Y-29210D01*
X57904Y-29239D01*
X57876Y-29267D01*
X57848Y-29323D01*
X57848Y-29379D01*
X57876Y-29435D01*
X57904Y-29464D01*
X57960Y-29492D01*
X58073Y-29520D01*
X58129Y-29548D01*
X58157Y-29576D01*
X58185Y-29632D01*
X58185Y-29689D01*
X58157Y-29745D01*
X58129Y-29773D01*
X58073Y-29801D01*
X57932Y-29801D01*
X57848Y-29773D01*
X57595Y-29210D02*
X57595Y-29801D01*
X57370Y-29801D01*
X57314Y-29773D01*
X57285Y-29745D01*
X57257Y-29689D01*
X57257Y-29604D01*
X57285Y-29548D01*
X57314Y-29520D01*
X57370Y-29492D01*
X57595Y-29492D01*
X57004Y-29210D02*
X57004Y-29801D01*
X56779Y-29801D02*
X56414Y-29801D01*
X56611Y-29576D01*
X56526Y-29576D01*
X56470Y-29548D01*
X56442Y-29520D01*
X56414Y-29464D01*
X56414Y-29323D01*
X56442Y-29267D01*
X56470Y-29239D01*
X56526Y-29210D01*
X56695Y-29210D01*
X56751Y-29239D01*
X56779Y-29267D01*
X53157Y-29210D02*
X53157Y-29801D01*
X52904Y-29745D02*
X52876Y-29773D01*
X52820Y-29801D01*
X52679Y-29801D01*
X52623Y-29773D01*
X52595Y-29745D01*
X52567Y-29689D01*
X52567Y-29632D01*
X52595Y-29548D01*
X52932Y-29210D01*
X52567Y-29210D01*
X51976Y-29267D02*
X52004Y-29239D01*
X52089Y-29210D01*
X52145Y-29210D01*
X52229Y-29239D01*
X52285Y-29295D01*
X52314Y-29351D01*
X52342Y-29464D01*
X52342Y-29548D01*
X52314Y-29660D01*
X52285Y-29717D01*
X52229Y-29773D01*
X52145Y-29801D01*
X52089Y-29801D01*
X52004Y-29773D01*
X51976Y-29745D01*
X51751Y-29745D02*
X51723Y-29773D01*
X51667Y-29801D01*
X51526Y-29801D01*
X51470Y-29773D01*
X51442Y-29745D01*
X51414Y-29689D01*
X51414Y-29632D01*
X51442Y-29548D01*
X51779Y-29210D01*
X51414Y-29210D01*
X48185Y-29239D02*
X48101Y-29210D01*
X47960Y-29210D01*
X47904Y-29239D01*
X47876Y-29267D01*
X47848Y-29323D01*
X47848Y-29379D01*
X47876Y-29435D01*
X47904Y-29464D01*
X47960Y-29492D01*
X48073Y-29520D01*
X48129Y-29548D01*
X48157Y-29576D01*
X48185Y-29632D01*
X48185Y-29689D01*
X48157Y-29745D01*
X48129Y-29773D01*
X48073Y-29801D01*
X47932Y-29801D01*
X47848Y-29773D01*
X47595Y-29210D02*
X47595Y-29801D01*
X47370Y-29801D01*
X47314Y-29773D01*
X47285Y-29745D01*
X47257Y-29689D01*
X47257Y-29604D01*
X47285Y-29548D01*
X47314Y-29520D01*
X47370Y-29492D01*
X47595Y-29492D01*
X47004Y-29210D02*
X47004Y-29801D01*
X46751Y-29745D02*
X46723Y-29773D01*
X46667Y-29801D01*
X46526Y-29801D01*
X46470Y-29773D01*
X46442Y-29745D01*
X46414Y-29689D01*
X46414Y-29632D01*
X46442Y-29548D01*
X46779Y-29210D01*
X46414Y-29210D01*
X43523Y-29801D02*
X43523Y-29323D01*
X43495Y-29267D01*
X43467Y-29239D01*
X43410Y-29210D01*
X43298Y-29210D01*
X43242Y-29239D01*
X43213Y-29267D01*
X43185Y-29323D01*
X43185Y-29801D01*
X42932Y-29379D02*
X42651Y-29379D01*
X42988Y-29210D02*
X42792Y-29801D01*
X42595Y-29210D01*
X42060Y-29210D02*
X42257Y-29492D01*
X42398Y-29210D02*
X42398Y-29801D01*
X42173Y-29801D01*
X42117Y-29773D01*
X42089Y-29745D01*
X42060Y-29689D01*
X42060Y-29604D01*
X42089Y-29548D01*
X42117Y-29520D01*
X42173Y-29492D01*
X42398Y-29492D01*
X41892Y-29801D02*
X41554Y-29801D01*
X41723Y-29210D02*
X41723Y-29801D01*
X41414Y-29801D02*
X41048Y-29801D01*
X41245Y-29576D01*
X41161Y-29576D01*
X41104Y-29548D01*
X41076Y-29520D01*
X41048Y-29464D01*
X41048Y-29323D01*
X41076Y-29267D01*
X41104Y-29239D01*
X41161Y-29210D01*
X41329Y-29210D01*
X41386Y-29239D01*
X41414Y-29267D01*
X65076Y-55848D02*
X65076Y-56326D01*
X65104Y-56382D01*
X65132Y-56410D01*
X65189Y-56439D01*
X65301Y-56439D01*
X65357Y-56410D01*
X65386Y-56382D01*
X65414Y-56326D01*
X65414Y-55848D01*
X65667Y-56270D02*
X65948Y-56270D01*
X65611Y-56439D02*
X65807Y-55848D01*
X66004Y-56439D01*
X66539Y-56439D02*
X66342Y-56157D01*
X66201Y-56439D02*
X66201Y-55848D01*
X66426Y-55848D01*
X66482Y-55876D01*
X66510Y-55904D01*
X66539Y-55960D01*
X66539Y-56045D01*
X66510Y-56101D01*
X66482Y-56129D01*
X66426Y-56157D01*
X66201Y-56157D01*
X66707Y-55848D02*
X67045Y-55848D01*
X66876Y-56439D02*
X66876Y-55848D01*
X67213Y-55904D02*
X67242Y-55876D01*
X67298Y-55848D01*
X67438Y-55848D01*
X67495Y-55876D01*
X67523Y-55904D01*
X67551Y-55960D01*
X67551Y-56017D01*
X67523Y-56101D01*
X67185Y-56439D01*
X67551Y-56439D01*
X61076Y-55848D02*
X61076Y-56326D01*
X61104Y-56382D01*
X61132Y-56410D01*
X61189Y-56439D01*
X61301Y-56439D01*
X61357Y-56410D01*
X61386Y-56382D01*
X61414Y-56326D01*
X61414Y-55848D01*
X61667Y-56270D02*
X61948Y-56270D01*
X61611Y-56439D02*
X61807Y-55848D01*
X62004Y-56439D01*
X62539Y-56439D02*
X62342Y-56157D01*
X62201Y-56439D02*
X62201Y-55848D01*
X62426Y-55848D01*
X62482Y-55876D01*
X62510Y-55904D01*
X62539Y-55960D01*
X62539Y-56045D01*
X62510Y-56101D01*
X62482Y-56129D01*
X62426Y-56157D01*
X62201Y-56157D01*
X62707Y-55848D02*
X63045Y-55848D01*
X62876Y-56439D02*
X62876Y-55848D01*
X63495Y-56045D02*
X63495Y-56439D01*
X63354Y-55820D02*
X63213Y-56242D01*
X63579Y-56242D01*
X57442Y-56439D02*
X57442Y-55848D01*
X57695Y-55904D02*
X57723Y-55876D01*
X57779Y-55848D01*
X57920Y-55848D01*
X57976Y-55876D01*
X58004Y-55904D01*
X58032Y-55960D01*
X58032Y-56017D01*
X58004Y-56101D01*
X57667Y-56439D01*
X58032Y-56439D01*
X58623Y-56382D02*
X58595Y-56410D01*
X58510Y-56439D01*
X58454Y-56439D01*
X58370Y-56410D01*
X58314Y-56354D01*
X58285Y-56298D01*
X58257Y-56185D01*
X58257Y-56101D01*
X58285Y-55989D01*
X58314Y-55932D01*
X58370Y-55876D01*
X58454Y-55848D01*
X58510Y-55848D01*
X58595Y-55876D01*
X58623Y-55904D01*
X59185Y-56439D02*
X58848Y-56439D01*
X59017Y-56439D02*
X59017Y-55848D01*
X58960Y-55932D01*
X58904Y-55989D01*
X58848Y-56017D01*
X53076Y-55848D02*
X53076Y-56326D01*
X53104Y-56382D01*
X53132Y-56410D01*
X53189Y-56439D01*
X53301Y-56439D01*
X53357Y-56410D01*
X53386Y-56382D01*
X53414Y-56326D01*
X53414Y-55848D01*
X53667Y-56270D02*
X53948Y-56270D01*
X53611Y-56439D02*
X53807Y-55848D01*
X54004Y-56439D01*
X54539Y-56439D02*
X54342Y-56157D01*
X54201Y-56439D02*
X54201Y-55848D01*
X54426Y-55848D01*
X54482Y-55876D01*
X54510Y-55904D01*
X54539Y-55960D01*
X54539Y-56045D01*
X54510Y-56101D01*
X54482Y-56129D01*
X54426Y-56157D01*
X54201Y-56157D01*
X54707Y-55848D02*
X55045Y-55848D01*
X54876Y-56439D02*
X54876Y-55848D01*
X55551Y-56439D02*
X55213Y-56439D01*
X55382Y-56439D02*
X55382Y-55848D01*
X55326Y-55932D01*
X55270Y-55989D01*
X55213Y-56017D01*
X49076Y-55848D02*
X49076Y-56326D01*
X49104Y-56382D01*
X49132Y-56410D01*
X49189Y-56439D01*
X49301Y-56439D01*
X49357Y-56410D01*
X49386Y-56382D01*
X49414Y-56326D01*
X49414Y-55848D01*
X49667Y-56270D02*
X49948Y-56270D01*
X49611Y-56439D02*
X49807Y-55848D01*
X50004Y-56439D01*
X50539Y-56439D02*
X50342Y-56157D01*
X50201Y-56439D02*
X50201Y-55848D01*
X50426Y-55848D01*
X50482Y-55876D01*
X50510Y-55904D01*
X50539Y-55960D01*
X50539Y-56045D01*
X50510Y-56101D01*
X50482Y-56129D01*
X50426Y-56157D01*
X50201Y-56157D01*
X50707Y-55848D02*
X51045Y-55848D01*
X50876Y-56439D02*
X50876Y-55848D01*
X51523Y-55848D02*
X51242Y-55848D01*
X51213Y-56129D01*
X51242Y-56101D01*
X51298Y-56073D01*
X51438Y-56073D01*
X51495Y-56101D01*
X51523Y-56129D01*
X51551Y-56185D01*
X51551Y-56326D01*
X51523Y-56382D01*
X51495Y-56410D01*
X51438Y-56439D01*
X51298Y-56439D01*
X51242Y-56410D01*
X51213Y-56382D01*
X45442Y-56439D02*
X45442Y-55848D01*
X45695Y-55904D02*
X45723Y-55876D01*
X45779Y-55848D01*
X45920Y-55848D01*
X45976Y-55876D01*
X46004Y-55904D01*
X46032Y-55960D01*
X46032Y-56017D01*
X46004Y-56101D01*
X45667Y-56439D01*
X46032Y-56439D01*
X46623Y-56382D02*
X46595Y-56410D01*
X46510Y-56439D01*
X46454Y-56439D01*
X46370Y-56410D01*
X46314Y-56354D01*
X46285Y-56298D01*
X46257Y-56185D01*
X46257Y-56101D01*
X46285Y-55989D01*
X46314Y-55932D01*
X46370Y-55876D01*
X46454Y-55848D01*
X46510Y-55848D01*
X46595Y-55876D01*
X46623Y-55904D01*
X46820Y-55848D02*
X47185Y-55848D01*
X46988Y-56073D01*
X47073Y-56073D01*
X47129Y-56101D01*
X47157Y-56129D01*
X47185Y-56185D01*
X47185Y-56326D01*
X47157Y-56382D01*
X47129Y-56410D01*
X47073Y-56439D01*
X46904Y-56439D01*
X46848Y-56410D01*
X46820Y-56382D01*
X41076Y-55848D02*
X41076Y-56326D01*
X41104Y-56382D01*
X41132Y-56410D01*
X41189Y-56439D01*
X41301Y-56439D01*
X41357Y-56410D01*
X41386Y-56382D01*
X41414Y-56326D01*
X41414Y-55848D01*
X41667Y-56270D02*
X41948Y-56270D01*
X41611Y-56439D02*
X41807Y-55848D01*
X42004Y-56439D01*
X42539Y-56439D02*
X42342Y-56157D01*
X42201Y-56439D02*
X42201Y-55848D01*
X42426Y-55848D01*
X42482Y-55876D01*
X42510Y-55904D01*
X42539Y-55960D01*
X42539Y-56045D01*
X42510Y-56101D01*
X42482Y-56129D01*
X42426Y-56157D01*
X42201Y-56157D01*
X42707Y-55848D02*
X43045Y-55848D01*
X42876Y-56439D02*
X42876Y-55848D01*
X43495Y-55848D02*
X43382Y-55848D01*
X43326Y-55876D01*
X43298Y-55904D01*
X43242Y-55989D01*
X43213Y-56101D01*
X43213Y-56326D01*
X43242Y-56382D01*
X43270Y-56410D01*
X43326Y-56439D01*
X43438Y-56439D01*
X43495Y-56410D01*
X43523Y-56382D01*
X43551Y-56326D01*
X43551Y-56185D01*
X43523Y-56129D01*
X43495Y-56101D01*
X43438Y-56073D01*
X43326Y-56073D01*
X43270Y-56101D01*
X43242Y-56129D01*
X43213Y-56185D01*
X51750Y-48648D02*
X52087Y-48648D01*
X51918Y-49239D02*
X51918Y-48648D01*
X52593Y-49239D02*
X52256Y-49239D01*
X52424Y-49239D02*
X52424Y-48648D01*
X52368Y-48732D01*
X52312Y-48789D01*
X52256Y-48817D01*
G54D10*
X39300Y-34000D02*
X37800Y-34000D01*
X37800Y-34000D02*
X37800Y-49000D01*
X37800Y-49000D02*
X40800Y-49000D01*
X40800Y-49000D02*
X40800Y-34000D01*
X40800Y-34000D02*
X39300Y-34000D01*
X38400Y-33800D02*
X40200Y-33800D01*
X40200Y-33800D02*
X40200Y-32400D01*
X40200Y-32400D02*
X38400Y-32400D01*
X38400Y-32400D02*
X38400Y-33800D01*
X42700Y-52500D02*
X40900Y-52500D01*
X40900Y-52500D02*
X40900Y-53900D01*
X40900Y-53900D02*
X42700Y-53900D01*
X42700Y-53900D02*
X42700Y-52500D01*
G54D15*
X56000Y-40000D02*
X64250Y-40000D01*
X64250Y-40000D02*
X64250Y-49000D01*
X64250Y-49000D02*
X56000Y-49000D01*
X56000Y-49000D02*
X56000Y-40000D01*
G54D10*
X67800Y-52269D02*
X67800Y-51769D01*
X67800Y-51769D02*
X42800Y-51769D01*
X42800Y-51769D02*
X42800Y-53769D01*
X42800Y-53769D02*
X67800Y-53769D01*
X67800Y-53769D02*
X67800Y-52269D01*
G54D16*
X74450Y-38300D02*
X74450Y-38300D01*
X74450Y-38300D02*
X75450Y-38300D01*
X75450Y-38300D02*
X75450Y-48300D01*
X74450Y-48300D02*
X74450Y-38300D01*
X74450Y-39300D02*
X75450Y-39300D01*
X75450Y-48300D02*
X75450Y-50050D01*
X75450Y-50050D02*
X75450Y-50300D01*
X75450Y-50300D02*
X74450Y-50300D01*
X74450Y-50300D02*
X74450Y-48300D01*
G54D17*
X44300Y-54600D02*
X48300Y-54600D01*
X44300Y-55600D02*
X48300Y-55600D01*
X48300Y-55600D02*
X48300Y-54600D01*
X44300Y-54600D02*
X44300Y-55600D01*
X50300Y-30050D02*
X54300Y-30050D01*
X50300Y-31050D02*
X54300Y-31050D01*
X54300Y-31050D02*
X54300Y-30050D01*
X50300Y-30050D02*
X50300Y-31050D01*
X56300Y-54600D02*
X60300Y-54600D01*
X56300Y-55600D02*
X60300Y-55600D01*
X60300Y-55600D02*
X60300Y-54600D01*
X56300Y-54600D02*
X56300Y-55600D01*
X40300Y-54600D02*
X44300Y-54600D01*
X40300Y-55600D02*
X44300Y-55600D01*
X44300Y-55600D02*
X44300Y-54600D01*
X40300Y-54600D02*
X40300Y-55600D01*
X48300Y-54600D02*
X52300Y-54600D01*
X48300Y-55600D02*
X52300Y-55600D01*
X52300Y-55600D02*
X52300Y-54600D01*
X48300Y-54600D02*
X48300Y-55600D01*
X60300Y-54600D02*
X64300Y-54600D01*
X60300Y-55600D02*
X64300Y-55600D01*
X64300Y-55600D02*
X64300Y-54600D01*
X60300Y-54600D02*
X60300Y-55600D01*
X40300Y-30050D02*
X44300Y-30050D01*
X40300Y-31050D02*
X44300Y-31050D01*
X44300Y-31050D02*
X44300Y-30050D01*
X40300Y-30050D02*
X40300Y-31050D01*
X64300Y-54600D02*
X68300Y-54600D01*
X64300Y-55600D02*
X68300Y-55600D01*
X68300Y-55600D02*
X68300Y-54600D01*
X64300Y-54600D02*
X64300Y-55600D01*
X52300Y-54600D02*
X56300Y-54600D01*
X52300Y-55600D02*
X56300Y-55600D01*
X56300Y-55600D02*
X56300Y-54600D01*
X52300Y-54600D02*
X52300Y-55600D01*
G54D10*
X66487Y-32329D02*
X66487Y-31829D01*
X66487Y-31829D02*
X41487Y-31829D01*
X41487Y-31829D02*
X41487Y-33829D01*
X41487Y-33829D02*
X66487Y-33829D01*
X66487Y-33829D02*
X66487Y-32329D01*
G54D17*
X60300Y-30050D02*
X60300Y-31050D01*
X60300Y-31050D02*
X54300Y-31050D01*
X54300Y-31050D02*
X54300Y-30050D01*
X54300Y-30050D02*
X60300Y-30050D01*
X66300Y-30050D02*
X66300Y-31050D01*
X66300Y-31050D02*
X60300Y-31050D01*
X60300Y-31050D02*
X60300Y-30050D01*
X60300Y-30050D02*
X66300Y-30050D01*
X50300Y-30050D02*
X50300Y-31050D01*
X50300Y-31050D02*
X44300Y-31050D01*
X44300Y-31050D02*
X44300Y-30050D01*
X44300Y-30050D02*
X50300Y-30050D01*
G54D16*
X37750Y-53300D02*
X37750Y-49300D01*
X37250Y-53300D02*
X40250Y-53300D01*
X40250Y-53300D02*
X40250Y-49300D01*
X40250Y-49300D02*
X37250Y-49300D01*
X37250Y-49300D02*
X37250Y-53300D01*
X66100Y-44620D02*
X66100Y-46600D01*
X66100Y-46600D02*
X65100Y-46600D01*
X65100Y-46600D02*
X65100Y-44600D01*
X65100Y-44600D02*
X66100Y-44600D01*
X65850Y-44600D02*
X66100Y-44850D01*
G54D10*
X47505Y-44500D02*
G75*
G03X47505Y-44500I-2405J0D01*
G74*
G01*
X70000Y-51900D02*
X71200Y-51900D01*
X70000Y-54700D02*
X71200Y-54700D01*
X72600Y-54900D02*
X72600Y-51700D01*
X72600Y-51700D02*
X68600Y-51700D01*
X68600Y-51700D02*
X68600Y-54900D01*
X68600Y-54900D02*
X72600Y-54900D01*
X71307Y-53300D02*
G75*
G03X71307Y-53300I-707J0D01*
G74*
G01*
G54D16*
X72950Y-29500D02*
X72950Y-32500D01*
X66950Y-29500D02*
X66950Y-32500D01*
X72950Y-30000D02*
X66950Y-30000D01*
X72950Y-32500D02*
X66950Y-32500D01*
X72950Y-29500D02*
X66950Y-29500D01*
X66100Y-46820D02*
X66100Y-48800D01*
X66100Y-48800D02*
X65100Y-48800D01*
X65100Y-48800D02*
X65100Y-46800D01*
X65100Y-46800D02*
X66100Y-46800D01*
X65850Y-46800D02*
X66100Y-47050D01*
X66100Y-49020D02*
X66100Y-51000D01*
X66100Y-51000D02*
X65100Y-51000D01*
X65100Y-51000D02*
X65100Y-49000D01*
X65100Y-49000D02*
X66100Y-49000D01*
X65850Y-49000D02*
X66100Y-49250D01*
X68880Y-34850D02*
X66900Y-34850D01*
X66900Y-34850D02*
X66900Y-33850D01*
X66900Y-33850D02*
X68900Y-33850D01*
X68900Y-33850D02*
X68900Y-34850D01*
X68900Y-34600D02*
X68650Y-34850D01*
G54D18*
X46800Y-50600D02*
X46800Y-50400D01*
X46800Y-47600D02*
X46800Y-47800D01*
X46800Y-47800D02*
X46400Y-47800D01*
X46400Y-47800D02*
X46400Y-50400D01*
X46400Y-50400D02*
X47200Y-50400D01*
X47200Y-50400D02*
X47200Y-47800D01*
X47200Y-47800D02*
X46800Y-47800D01*
X46600Y-50400D02*
X46400Y-50200D01*
X73550Y-43900D02*
X73350Y-43900D01*
X70550Y-43900D02*
X70750Y-43900D01*
X70750Y-43900D02*
X70750Y-44300D01*
X70750Y-44300D02*
X73350Y-44300D01*
X73350Y-44300D02*
X73350Y-43500D01*
X73350Y-43500D02*
X70750Y-43500D01*
X70750Y-43500D02*
X70750Y-43900D01*
X73350Y-44100D02*
X73150Y-44300D01*
X69650Y-43900D02*
X69450Y-43900D01*
X66650Y-43900D02*
X66850Y-43900D01*
X66850Y-43900D02*
X66850Y-44300D01*
X66850Y-44300D02*
X69450Y-44300D01*
X69450Y-44300D02*
X69450Y-43500D01*
X69450Y-43500D02*
X66850Y-43500D01*
X66850Y-43500D02*
X66850Y-43900D01*
X69450Y-44100D02*
X69250Y-44300D01*
X73550Y-46100D02*
X73350Y-46100D01*
X70550Y-46100D02*
X70750Y-46100D01*
X70750Y-46100D02*
X70750Y-46500D01*
X70750Y-46500D02*
X73350Y-46500D01*
X73350Y-46500D02*
X73350Y-45700D01*
X73350Y-45700D02*
X70750Y-45700D01*
X70750Y-45700D02*
X70750Y-46100D01*
X73350Y-46300D02*
X73150Y-46500D01*
X69650Y-41700D02*
X69450Y-41700D01*
X66650Y-41700D02*
X66850Y-41700D01*
X66850Y-41700D02*
X66850Y-42100D01*
X66850Y-42100D02*
X69450Y-42100D01*
X69450Y-42100D02*
X69450Y-41300D01*
X69450Y-41300D02*
X66850Y-41300D01*
X66850Y-41300D02*
X66850Y-41700D01*
X69450Y-41900D02*
X69250Y-42100D01*
X73550Y-41700D02*
X73350Y-41700D01*
X70550Y-41700D02*
X70750Y-41700D01*
X70750Y-41700D02*
X70750Y-42100D01*
X70750Y-42100D02*
X73350Y-42100D01*
X73350Y-42100D02*
X73350Y-41300D01*
X73350Y-41300D02*
X70750Y-41300D01*
X70750Y-41300D02*
X70750Y-41700D01*
X73350Y-41900D02*
X73150Y-42100D01*
X69650Y-46100D02*
X69450Y-46100D01*
X66650Y-46100D02*
X66850Y-46100D01*
X66850Y-46100D02*
X66850Y-46500D01*
X66850Y-46500D02*
X69450Y-46500D01*
X69450Y-46500D02*
X69450Y-45700D01*
X69450Y-45700D02*
X66850Y-45700D01*
X66850Y-45700D02*
X66850Y-46100D01*
X69450Y-46300D02*
X69250Y-46500D01*
X69650Y-48300D02*
X69450Y-48300D01*
X66650Y-48300D02*
X66850Y-48300D01*
X66850Y-48300D02*
X66850Y-48700D01*
X66850Y-48700D02*
X69450Y-48700D01*
X69450Y-48700D02*
X69450Y-47900D01*
X69450Y-47900D02*
X66850Y-47900D01*
X66850Y-47900D02*
X66850Y-48300D01*
X69450Y-48500D02*
X69250Y-48700D01*
X69650Y-39500D02*
X69450Y-39500D01*
X66650Y-39500D02*
X66850Y-39500D01*
X66850Y-39500D02*
X66850Y-39900D01*
X66850Y-39900D02*
X69450Y-39900D01*
X69450Y-39900D02*
X69450Y-39100D01*
X69450Y-39100D02*
X66850Y-39100D01*
X66850Y-39100D02*
X66850Y-39500D01*
X69450Y-39700D02*
X69250Y-39900D01*
X73550Y-39500D02*
X73350Y-39500D01*
X70550Y-39500D02*
X70750Y-39500D01*
X70750Y-39500D02*
X70750Y-39900D01*
X70750Y-39900D02*
X73350Y-39900D01*
X73350Y-39900D02*
X73350Y-39100D01*
X73350Y-39100D02*
X70750Y-39100D01*
X70750Y-39100D02*
X70750Y-39500D01*
X73350Y-39700D02*
X73150Y-39900D01*
X73550Y-50500D02*
X73350Y-50500D01*
X70550Y-50500D02*
X70750Y-50500D01*
X70750Y-50500D02*
X70750Y-50900D01*
X70750Y-50900D02*
X73350Y-50900D01*
X73350Y-50900D02*
X73350Y-50100D01*
X73350Y-50100D02*
X70750Y-50100D01*
X70750Y-50100D02*
X70750Y-50500D01*
X73350Y-50700D02*
X73150Y-50900D01*
X69650Y-50500D02*
X69450Y-50500D01*
X66650Y-50500D02*
X66850Y-50500D01*
X66850Y-50500D02*
X66850Y-50900D01*
X66850Y-50900D02*
X69450Y-50900D01*
X69450Y-50900D02*
X69450Y-50100D01*
X69450Y-50100D02*
X66850Y-50100D01*
X66850Y-50100D02*
X66850Y-50500D01*
X69450Y-50700D02*
X69250Y-50900D01*
X73550Y-48300D02*
X73350Y-48300D01*
X70550Y-48300D02*
X70750Y-48300D01*
X70750Y-48300D02*
X70750Y-48700D01*
X70750Y-48700D02*
X73350Y-48700D01*
X73350Y-48700D02*
X73350Y-47900D01*
X73350Y-47900D02*
X70750Y-47900D01*
X70750Y-47900D02*
X70750Y-48300D01*
X73350Y-48500D02*
X73150Y-48700D01*
X49700Y-50200D02*
X49700Y-50000D01*
X49700Y-47200D02*
X49700Y-47400D01*
X49700Y-47400D02*
X49300Y-47400D01*
X49300Y-47400D02*
X49300Y-50000D01*
X49300Y-50000D02*
X50100Y-50000D01*
X50100Y-50000D02*
X50100Y-47400D01*
X50100Y-47400D02*
X49700Y-47400D01*
X49500Y-50000D02*
X49300Y-49800D01*
X49000Y-44500D02*
X49200Y-44500D01*
X52000Y-44500D02*
X51800Y-44500D01*
X51800Y-44500D02*
X51800Y-44100D01*
X51800Y-44100D02*
X49200Y-44100D01*
X49200Y-44100D02*
X49200Y-44900D01*
X49200Y-44900D02*
X51800Y-44900D01*
X51800Y-44900D02*
X51800Y-44500D01*
X49200Y-44300D02*
X49400Y-44100D01*
G54D16*
X75200Y-32900D02*
X75200Y-36900D01*
X75700Y-32900D02*
X72700Y-32900D01*
X72700Y-32900D02*
X72700Y-36900D01*
X72700Y-36900D02*
X75700Y-36900D01*
X75700Y-36900D02*
X75700Y-32900D01*
X53260Y-46546D02*
X51139Y-46546D01*
X51139Y-46546D02*
X50785Y-46900D01*
X50785Y-46900D02*
X50785Y-47607D01*
X50785Y-47607D02*
X51492Y-48314D01*
X51492Y-48314D02*
X52907Y-48314D01*
X52907Y-48314D02*
X53614Y-47607D01*
X53614Y-47607D02*
X53614Y-46900D01*
X53614Y-46900D02*
X53260Y-46546D01*
X66100Y-42420D02*
X66100Y-44400D01*
X66100Y-44400D02*
X65100Y-44400D01*
X65100Y-44400D02*
X65100Y-42400D01*
X65100Y-42400D02*
X66100Y-42400D01*
X65850Y-42400D02*
X66100Y-42650D01*
X40450Y-51280D02*
X40450Y-49300D01*
X40450Y-49300D02*
X41450Y-49300D01*
X41450Y-49300D02*
X41450Y-51300D01*
X41450Y-51300D02*
X40450Y-51300D01*
X40700Y-51300D02*
X40450Y-51050D01*
X66100Y-40220D02*
X66100Y-42200D01*
X66100Y-42200D02*
X65100Y-42200D01*
X65100Y-42200D02*
X65100Y-40200D01*
X65100Y-40200D02*
X66100Y-40200D01*
X65850Y-40200D02*
X66100Y-40450D01*
X66100Y-38020D02*
X66100Y-40000D01*
X66100Y-40000D02*
X65100Y-40000D01*
X65100Y-40000D02*
X65100Y-38000D01*
X65100Y-38000D02*
X66100Y-38000D01*
X65850Y-38000D02*
X66100Y-38250D01*
X72250Y-35950D02*
G75*
G03X72250Y-35950I-1750J0D01*
G74*
G01*
X46200Y-49500D02*
G75*
G03X46200Y-49500I-1750J0D01*
G74*
G01*
X70550Y-40600D02*
X70850Y-40600D01*
X70850Y-40600D02*
X70850Y-41000D01*
X70850Y-41000D02*
X73250Y-41000D01*
X73250Y-41000D02*
X73250Y-40600D01*
X73250Y-40600D02*
X73550Y-40600D01*
X73250Y-40600D02*
X73250Y-40200D01*
X73250Y-40200D02*
X70850Y-40200D01*
X70850Y-40200D02*
X70850Y-40600D01*
X71050Y-41000D02*
X71050Y-40200D01*
X71150Y-40200D02*
X71150Y-41000D01*
X52000Y-45700D02*
X51700Y-45700D01*
X51700Y-45700D02*
X51700Y-45300D01*
X51700Y-45300D02*
X49300Y-45300D01*
X49300Y-45300D02*
X49300Y-45700D01*
X49300Y-45700D02*
X49000Y-45700D01*
X49300Y-45700D02*
X49300Y-46100D01*
X49300Y-46100D02*
X51700Y-46100D01*
X51700Y-46100D02*
X51700Y-45700D01*
X51500Y-45300D02*
X51500Y-46100D01*
X51400Y-46100D02*
X51400Y-45300D01*
X42050Y-52050D02*
X42050Y-51750D01*
X42050Y-51750D02*
X42450Y-51750D01*
X42450Y-51750D02*
X42450Y-49350D01*
X42450Y-49350D02*
X42050Y-49350D01*
X42050Y-49350D02*
X42050Y-49050D01*
X42050Y-49350D02*
X41650Y-49350D01*
X41650Y-49350D02*
X41650Y-51750D01*
X41650Y-51750D02*
X42050Y-51750D01*
X42450Y-51550D02*
X41650Y-51550D01*
X41650Y-51450D02*
X42450Y-51450D01*
X71800Y-33200D02*
X71500Y-33200D01*
X71500Y-33200D02*
X71500Y-32800D01*
X71500Y-32800D02*
X69100Y-32800D01*
X69100Y-32800D02*
X69100Y-33200D01*
X69100Y-33200D02*
X68800Y-33200D01*
X69100Y-33200D02*
X69100Y-33600D01*
X69100Y-33600D02*
X71500Y-33600D01*
X71500Y-33600D02*
X71500Y-33200D01*
X71300Y-32800D02*
X71300Y-33600D01*
X71200Y-33600D02*
X71200Y-32800D01*
X70550Y-49400D02*
X70850Y-49400D01*
X70850Y-49400D02*
X70850Y-49800D01*
X70850Y-49800D02*
X73250Y-49800D01*
X73250Y-49800D02*
X73250Y-49400D01*
X73250Y-49400D02*
X73550Y-49400D01*
X73250Y-49400D02*
X73250Y-49000D01*
X73250Y-49000D02*
X70850Y-49000D01*
X70850Y-49000D02*
X70850Y-49400D01*
X71050Y-49800D02*
X71050Y-49000D01*
X71150Y-49000D02*
X71150Y-49800D01*
X66650Y-49400D02*
X66950Y-49400D01*
X66950Y-49400D02*
X66950Y-49800D01*
X66950Y-49800D02*
X69350Y-49800D01*
X69350Y-49800D02*
X69350Y-49400D01*
X69350Y-49400D02*
X69650Y-49400D01*
X69350Y-49400D02*
X69350Y-49000D01*
X69350Y-49000D02*
X66950Y-49000D01*
X66950Y-49000D02*
X66950Y-49400D01*
X67150Y-49800D02*
X67150Y-49000D01*
X67250Y-49000D02*
X67250Y-49800D01*
X70550Y-47200D02*
X70850Y-47200D01*
X70850Y-47200D02*
X70850Y-47600D01*
X70850Y-47600D02*
X73250Y-47600D01*
X73250Y-47600D02*
X73250Y-47200D01*
X73250Y-47200D02*
X73550Y-47200D01*
X73250Y-47200D02*
X73250Y-46800D01*
X73250Y-46800D02*
X70850Y-46800D01*
X70850Y-46800D02*
X70850Y-47200D01*
X71050Y-47600D02*
X71050Y-46800D01*
X71150Y-46800D02*
X71150Y-47600D01*
X66650Y-47200D02*
X66950Y-47200D01*
X66950Y-47200D02*
X66950Y-47600D01*
X66950Y-47600D02*
X69350Y-47600D01*
X69350Y-47600D02*
X69350Y-47200D01*
X69350Y-47200D02*
X69650Y-47200D01*
X69350Y-47200D02*
X69350Y-46800D01*
X69350Y-46800D02*
X66950Y-46800D01*
X66950Y-46800D02*
X66950Y-47200D01*
X67150Y-47600D02*
X67150Y-46800D01*
X67250Y-46800D02*
X67250Y-47600D01*
X66650Y-38400D02*
X66950Y-38400D01*
X66950Y-38400D02*
X66950Y-38800D01*
X66950Y-38800D02*
X69350Y-38800D01*
X69350Y-38800D02*
X69350Y-38400D01*
X69350Y-38400D02*
X69650Y-38400D01*
X69350Y-38400D02*
X69350Y-38000D01*
X69350Y-38000D02*
X66950Y-38000D01*
X66950Y-38000D02*
X66950Y-38400D01*
X67150Y-38800D02*
X67150Y-38000D01*
X67250Y-38000D02*
X67250Y-38800D01*
X70550Y-45000D02*
X70850Y-45000D01*
X70850Y-45000D02*
X70850Y-45400D01*
X70850Y-45400D02*
X73250Y-45400D01*
X73250Y-45400D02*
X73250Y-45000D01*
X73250Y-45000D02*
X73550Y-45000D01*
X73250Y-45000D02*
X73250Y-44600D01*
X73250Y-44600D02*
X70850Y-44600D01*
X70850Y-44600D02*
X70850Y-45000D01*
X71050Y-45400D02*
X71050Y-44600D01*
X71150Y-44600D02*
X71150Y-45400D01*
X66650Y-45000D02*
X66950Y-45000D01*
X66950Y-45000D02*
X66950Y-45400D01*
X66950Y-45400D02*
X69350Y-45400D01*
X69350Y-45400D02*
X69350Y-45000D01*
X69350Y-45000D02*
X69650Y-45000D01*
X69350Y-45000D02*
X69350Y-44600D01*
X69350Y-44600D02*
X66950Y-44600D01*
X66950Y-44600D02*
X66950Y-45000D01*
X67150Y-45400D02*
X67150Y-44600D01*
X67250Y-44600D02*
X67250Y-45400D01*
X70550Y-38400D02*
X70850Y-38400D01*
X70850Y-38400D02*
X70850Y-38800D01*
X70850Y-38800D02*
X73250Y-38800D01*
X73250Y-38800D02*
X73250Y-38400D01*
X73250Y-38400D02*
X73550Y-38400D01*
X73250Y-38400D02*
X73250Y-38000D01*
X73250Y-38000D02*
X70850Y-38000D01*
X70850Y-38000D02*
X70850Y-38400D01*
X71050Y-38800D02*
X71050Y-38000D01*
X71150Y-38000D02*
X71150Y-38800D01*
X66650Y-40600D02*
X66950Y-40600D01*
X66950Y-40600D02*
X66950Y-41000D01*
X66950Y-41000D02*
X69350Y-41000D01*
X69350Y-41000D02*
X69350Y-40600D01*
X69350Y-40600D02*
X69650Y-40600D01*
X69350Y-40600D02*
X69350Y-40200D01*
X69350Y-40200D02*
X66950Y-40200D01*
X66950Y-40200D02*
X66950Y-40600D01*
X67150Y-41000D02*
X67150Y-40200D01*
X67250Y-40200D02*
X67250Y-41000D01*
X70550Y-42800D02*
X70850Y-42800D01*
X70850Y-42800D02*
X70850Y-43200D01*
X70850Y-43200D02*
X73250Y-43200D01*
X73250Y-43200D02*
X73250Y-42800D01*
X73250Y-42800D02*
X73550Y-42800D01*
X73250Y-42800D02*
X73250Y-42400D01*
X73250Y-42400D02*
X70850Y-42400D01*
X70850Y-42400D02*
X70850Y-42800D01*
X71050Y-43200D02*
X71050Y-42400D01*
X71150Y-42400D02*
X71150Y-43200D01*
X66650Y-42800D02*
X66950Y-42800D01*
X66950Y-42800D02*
X66950Y-43200D01*
X66950Y-43200D02*
X69350Y-43200D01*
X69350Y-43200D02*
X69350Y-42800D01*
X69350Y-42800D02*
X69650Y-42800D01*
X69350Y-42800D02*
X69350Y-42400D01*
X69350Y-42400D02*
X66950Y-42400D01*
X66950Y-42400D02*
X66950Y-42800D01*
X67150Y-43200D02*
X67150Y-42400D01*
X67250Y-42400D02*
X67250Y-43200D01*
G54D18*
X64823Y-45666D02*
X64842Y-45685D01*
X64861Y-45742D01*
X64861Y-45780D01*
X64842Y-45838D01*
X64804Y-45876D01*
X64766Y-45895D01*
X64690Y-45914D01*
X64633Y-45914D01*
X64557Y-45895D01*
X64519Y-45876D01*
X64480Y-45838D01*
X64461Y-45780D01*
X64461Y-45742D01*
X64480Y-45685D01*
X64500Y-45666D01*
X64595Y-45323D02*
X64861Y-45323D01*
X64442Y-45419D02*
X64728Y-45514D01*
X64728Y-45266D01*
X64823Y-47866D02*
X64842Y-47885D01*
X64861Y-47942D01*
X64861Y-47980D01*
X64842Y-48038D01*
X64804Y-48076D01*
X64766Y-48095D01*
X64690Y-48114D01*
X64633Y-48114D01*
X64557Y-48095D01*
X64519Y-48076D01*
X64480Y-48038D01*
X64461Y-47980D01*
X64461Y-47942D01*
X64480Y-47885D01*
X64500Y-47866D01*
X64461Y-47504D02*
X64461Y-47695D01*
X64652Y-47714D01*
X64633Y-47695D01*
X64614Y-47657D01*
X64614Y-47561D01*
X64633Y-47523D01*
X64652Y-47504D01*
X64690Y-47485D01*
X64785Y-47485D01*
X64823Y-47504D01*
X64842Y-47523D01*
X64861Y-47561D01*
X64861Y-47657D01*
X64842Y-47695D01*
X64823Y-47714D01*
X64823Y-50066D02*
X64842Y-50085D01*
X64861Y-50142D01*
X64861Y-50180D01*
X64842Y-50238D01*
X64804Y-50276D01*
X64766Y-50295D01*
X64690Y-50314D01*
X64633Y-50314D01*
X64557Y-50295D01*
X64519Y-50276D01*
X64480Y-50238D01*
X64461Y-50180D01*
X64461Y-50142D01*
X64480Y-50085D01*
X64500Y-50066D01*
X64461Y-49723D02*
X64461Y-49799D01*
X64480Y-49838D01*
X64500Y-49857D01*
X64557Y-49895D01*
X64633Y-49914D01*
X64785Y-49914D01*
X64823Y-49895D01*
X64842Y-49876D01*
X64861Y-49838D01*
X64861Y-49761D01*
X64842Y-49723D01*
X64823Y-49704D01*
X64785Y-49685D01*
X64690Y-49685D01*
X64652Y-49704D01*
X64633Y-49723D01*
X64614Y-49761D01*
X64614Y-49838D01*
X64633Y-49876D01*
X64652Y-49895D01*
X64690Y-49914D01*
X67083Y-33573D02*
X67064Y-33592D01*
X67007Y-33611D01*
X66969Y-33611D01*
X66911Y-33592D01*
X66873Y-33554D01*
X66854Y-33516D01*
X66835Y-33440D01*
X66835Y-33383D01*
X66854Y-33307D01*
X66873Y-33269D01*
X66911Y-33230D01*
X66969Y-33211D01*
X67007Y-33211D01*
X67064Y-33230D01*
X67083Y-33250D01*
X67273Y-33611D02*
X67350Y-33611D01*
X67388Y-33592D01*
X67407Y-33573D01*
X67445Y-33516D01*
X67464Y-33440D01*
X67464Y-33288D01*
X67445Y-33250D01*
X67426Y-33230D01*
X67388Y-33211D01*
X67311Y-33211D01*
X67273Y-33230D01*
X67254Y-33250D01*
X67235Y-33288D01*
X67235Y-33383D01*
X67254Y-33421D01*
X67273Y-33440D01*
X67311Y-33459D01*
X67388Y-33459D01*
X67426Y-33440D01*
X67445Y-33421D01*
X67464Y-33383D01*
X47072Y-49421D02*
X46810Y-49588D01*
X47072Y-49707D02*
X46522Y-49707D01*
X46522Y-49516D01*
X46548Y-49469D01*
X46575Y-49445D01*
X46627Y-49421D01*
X46705Y-49421D01*
X46758Y-49445D01*
X46784Y-49469D01*
X46810Y-49516D01*
X46810Y-49707D01*
X47072Y-48945D02*
X47072Y-49230D01*
X47072Y-49088D02*
X46522Y-49088D01*
X46601Y-49135D01*
X46653Y-49183D01*
X46679Y-49230D01*
X46522Y-48778D02*
X46522Y-48469D01*
X46732Y-48635D01*
X46732Y-48564D01*
X46758Y-48516D01*
X46784Y-48492D01*
X46836Y-48469D01*
X46967Y-48469D01*
X47020Y-48492D01*
X47046Y-48516D01*
X47072Y-48564D01*
X47072Y-48707D01*
X47046Y-48754D01*
X47020Y-48778D01*
X71966Y-44172D02*
X71800Y-43910D01*
X71680Y-44172D02*
X71680Y-43622D01*
X71871Y-43622D01*
X71919Y-43648D01*
X71942Y-43675D01*
X71966Y-43727D01*
X71966Y-43805D01*
X71942Y-43858D01*
X71919Y-43884D01*
X71871Y-43910D01*
X71680Y-43910D01*
X72419Y-43622D02*
X72180Y-43622D01*
X72157Y-43884D01*
X72180Y-43858D01*
X72228Y-43832D01*
X72347Y-43832D01*
X72395Y-43858D01*
X72419Y-43884D01*
X72442Y-43936D01*
X72442Y-44067D01*
X72419Y-44120D01*
X72395Y-44146D01*
X72347Y-44172D01*
X72228Y-44172D01*
X72180Y-44146D01*
X72157Y-44120D01*
X68066Y-44172D02*
X67900Y-43910D01*
X67780Y-44172D02*
X67780Y-43622D01*
X67971Y-43622D01*
X68019Y-43648D01*
X68042Y-43675D01*
X68066Y-43727D01*
X68066Y-43805D01*
X68042Y-43858D01*
X68019Y-43884D01*
X67971Y-43910D01*
X67780Y-43910D01*
X68495Y-43622D02*
X68400Y-43622D01*
X68352Y-43648D01*
X68328Y-43675D01*
X68280Y-43753D01*
X68257Y-43858D01*
X68257Y-44067D01*
X68280Y-44120D01*
X68304Y-44146D01*
X68352Y-44172D01*
X68447Y-44172D01*
X68495Y-44146D01*
X68519Y-44120D01*
X68542Y-44067D01*
X68542Y-43936D01*
X68519Y-43884D01*
X68495Y-43858D01*
X68447Y-43832D01*
X68352Y-43832D01*
X68304Y-43858D01*
X68280Y-43884D01*
X68257Y-43936D01*
X71966Y-46372D02*
X71800Y-46110D01*
X71680Y-46372D02*
X71680Y-45822D01*
X71871Y-45822D01*
X71919Y-45848D01*
X71942Y-45875D01*
X71966Y-45927D01*
X71966Y-46005D01*
X71942Y-46058D01*
X71919Y-46084D01*
X71871Y-46110D01*
X71680Y-46110D01*
X72133Y-45822D02*
X72466Y-45822D01*
X72252Y-46372D01*
X68066Y-41972D02*
X67900Y-41710D01*
X67780Y-41972D02*
X67780Y-41422D01*
X67971Y-41422D01*
X68019Y-41448D01*
X68042Y-41475D01*
X68066Y-41527D01*
X68066Y-41605D01*
X68042Y-41658D01*
X68019Y-41684D01*
X67971Y-41710D01*
X67780Y-41710D01*
X68495Y-41605D02*
X68495Y-41972D01*
X68376Y-41396D02*
X68257Y-41789D01*
X68566Y-41789D01*
X71966Y-41972D02*
X71800Y-41710D01*
X71680Y-41972D02*
X71680Y-41422D01*
X71871Y-41422D01*
X71919Y-41448D01*
X71942Y-41475D01*
X71966Y-41527D01*
X71966Y-41605D01*
X71942Y-41658D01*
X71919Y-41684D01*
X71871Y-41710D01*
X71680Y-41710D01*
X72133Y-41422D02*
X72442Y-41422D01*
X72276Y-41632D01*
X72347Y-41632D01*
X72395Y-41658D01*
X72419Y-41684D01*
X72442Y-41736D01*
X72442Y-41867D01*
X72419Y-41920D01*
X72395Y-41946D01*
X72347Y-41972D01*
X72204Y-41972D01*
X72157Y-41946D01*
X72133Y-41920D01*
X68066Y-46372D02*
X67900Y-46110D01*
X67780Y-46372D02*
X67780Y-45822D01*
X67971Y-45822D01*
X68019Y-45848D01*
X68042Y-45875D01*
X68066Y-45927D01*
X68066Y-46005D01*
X68042Y-46058D01*
X68019Y-46084D01*
X67971Y-46110D01*
X67780Y-46110D01*
X68352Y-46058D02*
X68304Y-46032D01*
X68280Y-46005D01*
X68257Y-45953D01*
X68257Y-45927D01*
X68280Y-45875D01*
X68304Y-45848D01*
X68352Y-45822D01*
X68447Y-45822D01*
X68495Y-45848D01*
X68519Y-45875D01*
X68542Y-45927D01*
X68542Y-45953D01*
X68519Y-46005D01*
X68495Y-46032D01*
X68447Y-46058D01*
X68352Y-46058D01*
X68304Y-46084D01*
X68280Y-46110D01*
X68257Y-46163D01*
X68257Y-46267D01*
X68280Y-46320D01*
X68304Y-46346D01*
X68352Y-46372D01*
X68447Y-46372D01*
X68495Y-46346D01*
X68519Y-46320D01*
X68542Y-46267D01*
X68542Y-46163D01*
X68519Y-46110D01*
X68495Y-46084D01*
X68447Y-46058D01*
X67828Y-48572D02*
X67661Y-48310D01*
X67542Y-48572D02*
X67542Y-48022D01*
X67733Y-48022D01*
X67780Y-48048D01*
X67804Y-48075D01*
X67828Y-48127D01*
X67828Y-48205D01*
X67804Y-48258D01*
X67780Y-48284D01*
X67733Y-48310D01*
X67542Y-48310D01*
X68304Y-48572D02*
X68019Y-48572D01*
X68161Y-48572D02*
X68161Y-48022D01*
X68114Y-48101D01*
X68066Y-48153D01*
X68019Y-48179D01*
X68614Y-48022D02*
X68661Y-48022D01*
X68709Y-48048D01*
X68733Y-48075D01*
X68757Y-48127D01*
X68780Y-48232D01*
X68780Y-48363D01*
X68757Y-48467D01*
X68733Y-48520D01*
X68709Y-48546D01*
X68661Y-48572D01*
X68614Y-48572D01*
X68566Y-48546D01*
X68542Y-48520D01*
X68519Y-48467D01*
X68495Y-48363D01*
X68495Y-48232D01*
X68519Y-48127D01*
X68542Y-48075D01*
X68566Y-48048D01*
X68614Y-48022D01*
X68066Y-39772D02*
X67900Y-39510D01*
X67780Y-39772D02*
X67780Y-39222D01*
X67971Y-39222D01*
X68019Y-39248D01*
X68042Y-39275D01*
X68066Y-39327D01*
X68066Y-39405D01*
X68042Y-39458D01*
X68019Y-39484D01*
X67971Y-39510D01*
X67780Y-39510D01*
X68257Y-39275D02*
X68280Y-39248D01*
X68328Y-39222D01*
X68447Y-39222D01*
X68495Y-39248D01*
X68519Y-39275D01*
X68542Y-39327D01*
X68542Y-39379D01*
X68519Y-39458D01*
X68233Y-39772D01*
X68542Y-39772D01*
X71966Y-39772D02*
X71800Y-39510D01*
X71680Y-39772D02*
X71680Y-39222D01*
X71871Y-39222D01*
X71919Y-39248D01*
X71942Y-39275D01*
X71966Y-39327D01*
X71966Y-39405D01*
X71942Y-39458D01*
X71919Y-39484D01*
X71871Y-39510D01*
X71680Y-39510D01*
X72442Y-39772D02*
X72157Y-39772D01*
X72300Y-39772D02*
X72300Y-39222D01*
X72252Y-39301D01*
X72204Y-39353D01*
X72157Y-39379D01*
X71728Y-50772D02*
X71561Y-50510D01*
X71442Y-50772D02*
X71442Y-50222D01*
X71633Y-50222D01*
X71680Y-50248D01*
X71704Y-50275D01*
X71728Y-50327D01*
X71728Y-50405D01*
X71704Y-50458D01*
X71680Y-50484D01*
X71633Y-50510D01*
X71442Y-50510D01*
X72204Y-50772D02*
X71919Y-50772D01*
X72061Y-50772D02*
X72061Y-50222D01*
X72014Y-50301D01*
X71966Y-50353D01*
X71919Y-50379D01*
X72680Y-50772D02*
X72395Y-50772D01*
X72538Y-50772D02*
X72538Y-50222D01*
X72490Y-50301D01*
X72442Y-50353D01*
X72395Y-50379D01*
X67828Y-50772D02*
X67661Y-50510D01*
X67542Y-50772D02*
X67542Y-50222D01*
X67733Y-50222D01*
X67780Y-50248D01*
X67804Y-50275D01*
X67828Y-50327D01*
X67828Y-50405D01*
X67804Y-50458D01*
X67780Y-50484D01*
X67733Y-50510D01*
X67542Y-50510D01*
X68304Y-50772D02*
X68019Y-50772D01*
X68161Y-50772D02*
X68161Y-50222D01*
X68114Y-50301D01*
X68066Y-50353D01*
X68019Y-50379D01*
X68495Y-50275D02*
X68519Y-50248D01*
X68566Y-50222D01*
X68685Y-50222D01*
X68733Y-50248D01*
X68757Y-50275D01*
X68780Y-50327D01*
X68780Y-50379D01*
X68757Y-50458D01*
X68471Y-50772D01*
X68780Y-50772D01*
X71966Y-48572D02*
X71800Y-48310D01*
X71680Y-48572D02*
X71680Y-48022D01*
X71871Y-48022D01*
X71919Y-48048D01*
X71942Y-48075D01*
X71966Y-48127D01*
X71966Y-48205D01*
X71942Y-48258D01*
X71919Y-48284D01*
X71871Y-48310D01*
X71680Y-48310D01*
X72204Y-48572D02*
X72300Y-48572D01*
X72347Y-48546D01*
X72371Y-48520D01*
X72419Y-48441D01*
X72442Y-48336D01*
X72442Y-48127D01*
X72419Y-48075D01*
X72395Y-48048D01*
X72347Y-48022D01*
X72252Y-48022D01*
X72204Y-48048D01*
X72180Y-48075D01*
X72157Y-48127D01*
X72157Y-48258D01*
X72180Y-48310D01*
X72204Y-48336D01*
X72252Y-48363D01*
X72347Y-48363D01*
X72395Y-48336D01*
X72419Y-48310D01*
X72442Y-48258D01*
X49972Y-49021D02*
X49710Y-49188D01*
X49972Y-49307D02*
X49422Y-49307D01*
X49422Y-49116D01*
X49448Y-49069D01*
X49475Y-49045D01*
X49527Y-49021D01*
X49605Y-49021D01*
X49658Y-49045D01*
X49684Y-49069D01*
X49710Y-49116D01*
X49710Y-49307D01*
X49972Y-48545D02*
X49972Y-48830D01*
X49972Y-48688D02*
X49422Y-48688D01*
X49501Y-48735D01*
X49553Y-48783D01*
X49579Y-48830D01*
X49605Y-48116D02*
X49972Y-48116D01*
X49396Y-48235D02*
X49789Y-48354D01*
X49789Y-48045D01*
X50178Y-44772D02*
X50011Y-44510D01*
X49892Y-44772D02*
X49892Y-44222D01*
X50083Y-44222D01*
X50130Y-44248D01*
X50154Y-44275D01*
X50178Y-44327D01*
X50178Y-44405D01*
X50154Y-44458D01*
X50130Y-44484D01*
X50083Y-44510D01*
X49892Y-44510D01*
X50654Y-44772D02*
X50369Y-44772D01*
X50511Y-44772D02*
X50511Y-44222D01*
X50464Y-44301D01*
X50416Y-44353D01*
X50369Y-44379D01*
X51107Y-44222D02*
X50869Y-44222D01*
X50845Y-44484D01*
X50869Y-44458D01*
X50916Y-44432D01*
X51035Y-44432D01*
X51083Y-44458D01*
X51107Y-44484D01*
X51130Y-44536D01*
X51130Y-44667D01*
X51107Y-44720D01*
X51083Y-44746D01*
X51035Y-44772D01*
X50916Y-44772D01*
X50869Y-44746D01*
X50845Y-44720D01*
X64823Y-43466D02*
X64842Y-43485D01*
X64861Y-43542D01*
X64861Y-43580D01*
X64842Y-43638D01*
X64804Y-43676D01*
X64766Y-43695D01*
X64690Y-43714D01*
X64633Y-43714D01*
X64557Y-43695D01*
X64519Y-43676D01*
X64480Y-43638D01*
X64461Y-43580D01*
X64461Y-43542D01*
X64480Y-43485D01*
X64500Y-43466D01*
X64461Y-43333D02*
X64461Y-43085D01*
X64614Y-43219D01*
X64614Y-43161D01*
X64633Y-43123D01*
X64652Y-43104D01*
X64690Y-43085D01*
X64785Y-43085D01*
X64823Y-43104D01*
X64842Y-43123D01*
X64861Y-43161D01*
X64861Y-43276D01*
X64842Y-43314D01*
X64823Y-43333D01*
X40823Y-52257D02*
X40842Y-52276D01*
X40861Y-52333D01*
X40861Y-52371D01*
X40842Y-52428D01*
X40804Y-52466D01*
X40766Y-52485D01*
X40690Y-52504D01*
X40633Y-52504D01*
X40557Y-52485D01*
X40519Y-52466D01*
X40480Y-52428D01*
X40461Y-52371D01*
X40461Y-52333D01*
X40480Y-52276D01*
X40500Y-52257D01*
X40861Y-51876D02*
X40861Y-52104D01*
X40861Y-51990D02*
X40461Y-51990D01*
X40519Y-52028D01*
X40557Y-52066D01*
X40576Y-52104D01*
X40461Y-51628D02*
X40461Y-51590D01*
X40480Y-51552D01*
X40500Y-51533D01*
X40538Y-51514D01*
X40614Y-51495D01*
X40709Y-51495D01*
X40785Y-51514D01*
X40823Y-51533D01*
X40842Y-51552D01*
X40861Y-51590D01*
X40861Y-51628D01*
X40842Y-51666D01*
X40823Y-51685D01*
X40785Y-51704D01*
X40709Y-51723D01*
X40614Y-51723D01*
X40538Y-51704D01*
X40500Y-51685D01*
X40480Y-51666D01*
X40461Y-51628D01*
X64823Y-41266D02*
X64842Y-41285D01*
X64861Y-41342D01*
X64861Y-41380D01*
X64842Y-41438D01*
X64804Y-41476D01*
X64766Y-41495D01*
X64690Y-41514D01*
X64633Y-41514D01*
X64557Y-41495D01*
X64519Y-41476D01*
X64480Y-41438D01*
X64461Y-41380D01*
X64461Y-41342D01*
X64480Y-41285D01*
X64500Y-41266D01*
X64500Y-41114D02*
X64480Y-41095D01*
X64461Y-41057D01*
X64461Y-40961D01*
X64480Y-40923D01*
X64500Y-40904D01*
X64538Y-40885D01*
X64576Y-40885D01*
X64633Y-40904D01*
X64861Y-41133D01*
X64861Y-40885D01*
X64823Y-39066D02*
X64842Y-39085D01*
X64861Y-39142D01*
X64861Y-39180D01*
X64842Y-39238D01*
X64804Y-39276D01*
X64766Y-39295D01*
X64690Y-39314D01*
X64633Y-39314D01*
X64557Y-39295D01*
X64519Y-39276D01*
X64480Y-39238D01*
X64461Y-39180D01*
X64461Y-39142D01*
X64480Y-39085D01*
X64500Y-39066D01*
X64861Y-38685D02*
X64861Y-38914D01*
X64861Y-38799D02*
X64461Y-38799D01*
X64519Y-38838D01*
X64557Y-38876D01*
X64576Y-38914D01*
X70433Y-35073D02*
X70414Y-35092D01*
X70357Y-35111D01*
X70319Y-35111D01*
X70261Y-35092D01*
X70223Y-35054D01*
X70204Y-35016D01*
X70185Y-34940D01*
X70185Y-34883D01*
X70204Y-34807D01*
X70223Y-34769D01*
X70261Y-34730D01*
X70319Y-34711D01*
X70357Y-34711D01*
X70414Y-34730D01*
X70433Y-34750D01*
X70566Y-34711D02*
X70833Y-34711D01*
X70661Y-35111D01*
X45573Y-49566D02*
X45592Y-49585D01*
X45611Y-49642D01*
X45611Y-49680D01*
X45592Y-49738D01*
X45554Y-49776D01*
X45516Y-49795D01*
X45440Y-49814D01*
X45383Y-49814D01*
X45307Y-49795D01*
X45269Y-49776D01*
X45230Y-49738D01*
X45211Y-49680D01*
X45211Y-49642D01*
X45230Y-49585D01*
X45250Y-49566D01*
X45383Y-49338D02*
X45364Y-49376D01*
X45345Y-49395D01*
X45307Y-49414D01*
X45288Y-49414D01*
X45250Y-49395D01*
X45230Y-49376D01*
X45211Y-49338D01*
X45211Y-49261D01*
X45230Y-49223D01*
X45250Y-49204D01*
X45288Y-49185D01*
X45307Y-49185D01*
X45345Y-49204D01*
X45364Y-49223D01*
X45383Y-49261D01*
X45383Y-49338D01*
X45402Y-49376D01*
X45421Y-49395D01*
X45459Y-49414D01*
X45535Y-49414D01*
X45573Y-49395D01*
X45592Y-49376D01*
X45611Y-49338D01*
X45611Y-49261D01*
X45592Y-49223D01*
X45573Y-49204D01*
X45535Y-49185D01*
X45459Y-49185D01*
X45421Y-49204D01*
X45402Y-49223D01*
X45383Y-49261D01*
X71754Y-40761D02*
X71754Y-40361D01*
X71850Y-40361D01*
X71907Y-40380D01*
X71945Y-40419D01*
X71964Y-40457D01*
X71983Y-40533D01*
X71983Y-40590D01*
X71964Y-40666D01*
X71945Y-40704D01*
X71907Y-40742D01*
X71850Y-40761D01*
X71754Y-40761D01*
X72326Y-40495D02*
X72326Y-40761D01*
X72230Y-40342D02*
X72135Y-40628D01*
X72383Y-40628D01*
X50014Y-45861D02*
X50014Y-45461D01*
X50109Y-45461D01*
X50166Y-45480D01*
X50204Y-45519D01*
X50223Y-45557D01*
X50242Y-45633D01*
X50242Y-45690D01*
X50223Y-45766D01*
X50204Y-45804D01*
X50166Y-45842D01*
X50109Y-45861D01*
X50014Y-45861D01*
X50623Y-45861D02*
X50395Y-45861D01*
X50509Y-45861D02*
X50509Y-45461D01*
X50471Y-45519D01*
X50433Y-45557D01*
X50395Y-45576D01*
X50985Y-45461D02*
X50795Y-45461D01*
X50776Y-45652D01*
X50795Y-45633D01*
X50833Y-45614D01*
X50928Y-45614D01*
X50966Y-45633D01*
X50985Y-45652D01*
X51004Y-45690D01*
X51004Y-45785D01*
X50985Y-45823D01*
X50966Y-45842D01*
X50928Y-45861D01*
X50833Y-45861D01*
X50795Y-45842D01*
X50776Y-45823D01*
X42211Y-51035D02*
X41811Y-51035D01*
X41811Y-50940D01*
X41830Y-50883D01*
X41869Y-50845D01*
X41907Y-50826D01*
X41983Y-50807D01*
X42040Y-50807D01*
X42116Y-50826D01*
X42154Y-50845D01*
X42192Y-50883D01*
X42211Y-50940D01*
X42211Y-51035D01*
X42211Y-50426D02*
X42211Y-50654D01*
X42211Y-50540D02*
X41811Y-50540D01*
X41869Y-50578D01*
X41907Y-50616D01*
X41926Y-50654D01*
X41945Y-50083D02*
X42211Y-50083D01*
X41792Y-50178D02*
X42078Y-50273D01*
X42078Y-50026D01*
X69814Y-33361D02*
X69814Y-32961D01*
X69909Y-32961D01*
X69966Y-32980D01*
X70004Y-33019D01*
X70023Y-33057D01*
X70042Y-33133D01*
X70042Y-33190D01*
X70023Y-33266D01*
X70004Y-33304D01*
X69966Y-33342D01*
X69909Y-33361D01*
X69814Y-33361D01*
X70423Y-33361D02*
X70195Y-33361D01*
X70309Y-33361D02*
X70309Y-32961D01*
X70271Y-33019D01*
X70233Y-33057D01*
X70195Y-33076D01*
X70557Y-32961D02*
X70804Y-32961D01*
X70671Y-33114D01*
X70728Y-33114D01*
X70766Y-33133D01*
X70785Y-33152D01*
X70804Y-33190D01*
X70804Y-33285D01*
X70785Y-33323D01*
X70766Y-33342D01*
X70728Y-33361D01*
X70614Y-33361D01*
X70576Y-33342D01*
X70557Y-33323D01*
X71564Y-49561D02*
X71564Y-49161D01*
X71659Y-49161D01*
X71716Y-49180D01*
X71754Y-49219D01*
X71773Y-49257D01*
X71792Y-49333D01*
X71792Y-49390D01*
X71773Y-49466D01*
X71754Y-49504D01*
X71716Y-49542D01*
X71659Y-49561D01*
X71564Y-49561D01*
X72173Y-49561D02*
X71945Y-49561D01*
X72059Y-49561D02*
X72059Y-49161D01*
X72021Y-49219D01*
X71983Y-49257D01*
X71945Y-49276D01*
X72326Y-49200D02*
X72345Y-49180D01*
X72383Y-49161D01*
X72478Y-49161D01*
X72516Y-49180D01*
X72535Y-49200D01*
X72554Y-49238D01*
X72554Y-49276D01*
X72535Y-49333D01*
X72307Y-49561D01*
X72554Y-49561D01*
X67664Y-49561D02*
X67664Y-49161D01*
X67759Y-49161D01*
X67816Y-49180D01*
X67854Y-49219D01*
X67873Y-49257D01*
X67892Y-49333D01*
X67892Y-49390D01*
X67873Y-49466D01*
X67854Y-49504D01*
X67816Y-49542D01*
X67759Y-49561D01*
X67664Y-49561D01*
X68273Y-49561D02*
X68045Y-49561D01*
X68159Y-49561D02*
X68159Y-49161D01*
X68121Y-49219D01*
X68083Y-49257D01*
X68045Y-49276D01*
X68654Y-49561D02*
X68426Y-49561D01*
X68540Y-49561D02*
X68540Y-49161D01*
X68502Y-49219D01*
X68464Y-49257D01*
X68426Y-49276D01*
X71564Y-47361D02*
X71564Y-46961D01*
X71659Y-46961D01*
X71716Y-46980D01*
X71754Y-47019D01*
X71773Y-47057D01*
X71792Y-47133D01*
X71792Y-47190D01*
X71773Y-47266D01*
X71754Y-47304D01*
X71716Y-47342D01*
X71659Y-47361D01*
X71564Y-47361D01*
X72173Y-47361D02*
X71945Y-47361D01*
X72059Y-47361D02*
X72059Y-46961D01*
X72021Y-47019D01*
X71983Y-47057D01*
X71945Y-47076D01*
X72421Y-46961D02*
X72459Y-46961D01*
X72497Y-46980D01*
X72516Y-47000D01*
X72535Y-47038D01*
X72554Y-47114D01*
X72554Y-47209D01*
X72535Y-47285D01*
X72516Y-47323D01*
X72497Y-47342D01*
X72459Y-47361D01*
X72421Y-47361D01*
X72383Y-47342D01*
X72364Y-47323D01*
X72345Y-47285D01*
X72326Y-47209D01*
X72326Y-47114D01*
X72345Y-47038D01*
X72364Y-47000D01*
X72383Y-46980D01*
X72421Y-46961D01*
X67854Y-47361D02*
X67854Y-46961D01*
X67950Y-46961D01*
X68007Y-46980D01*
X68045Y-47019D01*
X68064Y-47057D01*
X68083Y-47133D01*
X68083Y-47190D01*
X68064Y-47266D01*
X68045Y-47304D01*
X68007Y-47342D01*
X67950Y-47361D01*
X67854Y-47361D01*
X68273Y-47361D02*
X68350Y-47361D01*
X68388Y-47342D01*
X68407Y-47323D01*
X68445Y-47266D01*
X68464Y-47190D01*
X68464Y-47038D01*
X68445Y-47000D01*
X68426Y-46980D01*
X68388Y-46961D01*
X68311Y-46961D01*
X68273Y-46980D01*
X68254Y-47000D01*
X68235Y-47038D01*
X68235Y-47133D01*
X68254Y-47171D01*
X68273Y-47190D01*
X68311Y-47209D01*
X68388Y-47209D01*
X68426Y-47190D01*
X68445Y-47171D01*
X68464Y-47133D01*
X67854Y-38561D02*
X67854Y-38161D01*
X67950Y-38161D01*
X68007Y-38180D01*
X68045Y-38219D01*
X68064Y-38257D01*
X68083Y-38333D01*
X68083Y-38390D01*
X68064Y-38466D01*
X68045Y-38504D01*
X68007Y-38542D01*
X67950Y-38561D01*
X67854Y-38561D01*
X68464Y-38561D02*
X68235Y-38561D01*
X68350Y-38561D02*
X68350Y-38161D01*
X68311Y-38219D01*
X68273Y-38257D01*
X68235Y-38276D01*
X71754Y-45161D02*
X71754Y-44761D01*
X71850Y-44761D01*
X71907Y-44780D01*
X71945Y-44819D01*
X71964Y-44857D01*
X71983Y-44933D01*
X71983Y-44990D01*
X71964Y-45066D01*
X71945Y-45104D01*
X71907Y-45142D01*
X71850Y-45161D01*
X71754Y-45161D01*
X72211Y-44933D02*
X72173Y-44914D01*
X72154Y-44895D01*
X72135Y-44857D01*
X72135Y-44838D01*
X72154Y-44800D01*
X72173Y-44780D01*
X72211Y-44761D01*
X72288Y-44761D01*
X72326Y-44780D01*
X72345Y-44800D01*
X72364Y-44838D01*
X72364Y-44857D01*
X72345Y-44895D01*
X72326Y-44914D01*
X72288Y-44933D01*
X72211Y-44933D01*
X72173Y-44952D01*
X72154Y-44971D01*
X72135Y-45009D01*
X72135Y-45085D01*
X72154Y-45123D01*
X72173Y-45142D01*
X72211Y-45161D01*
X72288Y-45161D01*
X72326Y-45142D01*
X72345Y-45123D01*
X72364Y-45085D01*
X72364Y-45009D01*
X72345Y-44971D01*
X72326Y-44952D01*
X72288Y-44933D01*
X67854Y-45161D02*
X67854Y-44761D01*
X67950Y-44761D01*
X68007Y-44780D01*
X68045Y-44819D01*
X68064Y-44857D01*
X68083Y-44933D01*
X68083Y-44990D01*
X68064Y-45066D01*
X68045Y-45104D01*
X68007Y-45142D01*
X67950Y-45161D01*
X67854Y-45161D01*
X68216Y-44761D02*
X68483Y-44761D01*
X68311Y-45161D01*
X71754Y-38561D02*
X71754Y-38161D01*
X71850Y-38161D01*
X71907Y-38180D01*
X71945Y-38219D01*
X71964Y-38257D01*
X71983Y-38333D01*
X71983Y-38390D01*
X71964Y-38466D01*
X71945Y-38504D01*
X71907Y-38542D01*
X71850Y-38561D01*
X71754Y-38561D01*
X72135Y-38200D02*
X72154Y-38180D01*
X72192Y-38161D01*
X72288Y-38161D01*
X72326Y-38180D01*
X72345Y-38200D01*
X72364Y-38238D01*
X72364Y-38276D01*
X72345Y-38333D01*
X72116Y-38561D01*
X72364Y-38561D01*
X67854Y-40761D02*
X67854Y-40361D01*
X67950Y-40361D01*
X68007Y-40380D01*
X68045Y-40419D01*
X68064Y-40457D01*
X68083Y-40533D01*
X68083Y-40590D01*
X68064Y-40666D01*
X68045Y-40704D01*
X68007Y-40742D01*
X67950Y-40761D01*
X67854Y-40761D01*
X68216Y-40361D02*
X68464Y-40361D01*
X68330Y-40514D01*
X68388Y-40514D01*
X68426Y-40533D01*
X68445Y-40552D01*
X68464Y-40590D01*
X68464Y-40685D01*
X68445Y-40723D01*
X68426Y-40742D01*
X68388Y-40761D01*
X68273Y-40761D01*
X68235Y-40742D01*
X68216Y-40723D01*
X71754Y-42961D02*
X71754Y-42561D01*
X71850Y-42561D01*
X71907Y-42580D01*
X71945Y-42619D01*
X71964Y-42657D01*
X71983Y-42733D01*
X71983Y-42790D01*
X71964Y-42866D01*
X71945Y-42904D01*
X71907Y-42942D01*
X71850Y-42961D01*
X71754Y-42961D01*
X72326Y-42561D02*
X72250Y-42561D01*
X72211Y-42580D01*
X72192Y-42600D01*
X72154Y-42657D01*
X72135Y-42733D01*
X72135Y-42885D01*
X72154Y-42923D01*
X72173Y-42942D01*
X72211Y-42961D01*
X72288Y-42961D01*
X72326Y-42942D01*
X72345Y-42923D01*
X72364Y-42885D01*
X72364Y-42790D01*
X72345Y-42752D01*
X72326Y-42733D01*
X72288Y-42714D01*
X72211Y-42714D01*
X72173Y-42733D01*
X72154Y-42752D01*
X72135Y-42790D01*
X67854Y-42961D02*
X67854Y-42561D01*
X67950Y-42561D01*
X68007Y-42580D01*
X68045Y-42619D01*
X68064Y-42657D01*
X68083Y-42733D01*
X68083Y-42790D01*
X68064Y-42866D01*
X68045Y-42904D01*
X68007Y-42942D01*
X67950Y-42961D01*
X67854Y-42961D01*
X68445Y-42561D02*
X68254Y-42561D01*
X68235Y-42752D01*
X68254Y-42733D01*
X68292Y-42714D01*
X68388Y-42714D01*
X68426Y-42733D01*
X68445Y-42752D01*
X68464Y-42790D01*
X68464Y-42885D01*
X68445Y-42923D01*
X68426Y-42942D01*
X68388Y-42961D01*
X68292Y-42961D01*
X68254Y-42942D01*
X68235Y-42923D01*
%LPC*%
G54D19*
X38300Y-34500D03*
X39300Y-34500D03*
X40300Y-34500D03*
X38300Y-35500D03*
X39300Y-35500D03*
X40300Y-35500D03*
X38300Y-36500D03*
X39300Y-36500D03*
X40300Y-36500D03*
X38300Y-37500D03*
X39300Y-37500D03*
X40300Y-37500D03*
X38300Y-38500D03*
X39300Y-38500D03*
X40300Y-38500D03*
X38300Y-39500D03*
X39300Y-39500D03*
X40300Y-39500D03*
X38300Y-40500D03*
X39300Y-40500D03*
X40300Y-40500D03*
X38300Y-41500D03*
X39300Y-41500D03*
X40300Y-41500D03*
X38300Y-42500D03*
X39300Y-42500D03*
X40300Y-42500D03*
X38300Y-43500D03*
X39300Y-43500D03*
X40300Y-43500D03*
X38300Y-44500D03*
X39300Y-44500D03*
X40300Y-44500D03*
X38300Y-45500D03*
X39300Y-45500D03*
X40300Y-45500D03*
X38300Y-46500D03*
X39300Y-46500D03*
X40300Y-46500D03*
X38300Y-47500D03*
X39300Y-47500D03*
X40300Y-47500D03*
X38300Y-48500D03*
X39300Y-48500D03*
X40300Y-48500D03*
G54D20*
X39300Y-33300D03*
G54D21*
X38650Y-33100D03*
X39950Y-33100D03*
G54D22*
X39250Y-32650D03*
G54D20*
X41800Y-53000D03*
G54D21*
X42450Y-53200D03*
X41150Y-53200D03*
G54D22*
X41850Y-53650D03*
G54D19*
X57000Y-42000D03*
X57000Y-41000D03*
X57000Y-43000D03*
X57000Y-44000D03*
X57000Y-45000D03*
X67300Y-52269D03*
X67300Y-53269D03*
X66300Y-52269D03*
X66300Y-53269D03*
X65300Y-52269D03*
X65300Y-53269D03*
X64300Y-52269D03*
X64300Y-53269D03*
X63300Y-52269D03*
X63300Y-53269D03*
X62300Y-52269D03*
X62300Y-53269D03*
X61300Y-52269D03*
X61300Y-53269D03*
X60300Y-52269D03*
X60300Y-53269D03*
X59300Y-52269D03*
X59300Y-53269D03*
X58300Y-52269D03*
X58300Y-53269D03*
X57300Y-52269D03*
X57300Y-53269D03*
X56300Y-52269D03*
X56300Y-53269D03*
X55300Y-52269D03*
X55300Y-53269D03*
X54300Y-52269D03*
X54300Y-53269D03*
X53300Y-52269D03*
X53300Y-53269D03*
X52300Y-52269D03*
X52300Y-53269D03*
X51300Y-52269D03*
X51300Y-53269D03*
X50300Y-52269D03*
X50300Y-53269D03*
X49300Y-52269D03*
X49300Y-53269D03*
X48300Y-52269D03*
X48300Y-53269D03*
X47300Y-52269D03*
X47300Y-53269D03*
X46300Y-52269D03*
X46300Y-53269D03*
X45300Y-52269D03*
X45300Y-53269D03*
X44300Y-52269D03*
X44300Y-53269D03*
X43300Y-52269D03*
X43300Y-53269D03*
G54D23*
X74950Y-38800D03*
G54D24*
X74950Y-39800D03*
X74950Y-40800D03*
X74950Y-41800D03*
X74950Y-42800D03*
X74950Y-43800D03*
X74950Y-44800D03*
X74950Y-45800D03*
X74950Y-46800D03*
X74950Y-47800D03*
X74950Y-48800D03*
X74950Y-49800D03*
G54D25*
X47800Y-55100D03*
G54D26*
X46800Y-55100D03*
X45800Y-55100D03*
X44800Y-55100D03*
G54D25*
X53800Y-30550D03*
G54D26*
X52800Y-30550D03*
X51800Y-30550D03*
X50800Y-30550D03*
G54D25*
X59800Y-55100D03*
G54D26*
X58800Y-55100D03*
X57800Y-55100D03*
X56800Y-55100D03*
G54D25*
X43800Y-55100D03*
G54D26*
X42800Y-55100D03*
X41800Y-55100D03*
X40800Y-55100D03*
G54D25*
X51800Y-55100D03*
G54D26*
X50800Y-55100D03*
X49800Y-55100D03*
X48800Y-55100D03*
G54D25*
X63800Y-55100D03*
G54D26*
X62800Y-55100D03*
X61800Y-55100D03*
X60800Y-55100D03*
G54D25*
X43800Y-30550D03*
G54D26*
X42800Y-30550D03*
X41800Y-30550D03*
X40800Y-30550D03*
G54D25*
X67800Y-55100D03*
G54D26*
X66800Y-55100D03*
X65800Y-55100D03*
X64800Y-55100D03*
G54D25*
X55800Y-55100D03*
G54D26*
X54800Y-55100D03*
X53800Y-55100D03*
X52800Y-55100D03*
G54D19*
X65987Y-32329D03*
X65987Y-33329D03*
X64987Y-32329D03*
X64987Y-33329D03*
X63987Y-32329D03*
X63987Y-33329D03*
X62987Y-32329D03*
X62987Y-33329D03*
X61987Y-32329D03*
X61987Y-33329D03*
X60987Y-32329D03*
X60987Y-33329D03*
X59987Y-32329D03*
X59987Y-33329D03*
X58987Y-32329D03*
X58987Y-33329D03*
X57987Y-32329D03*
X57987Y-33329D03*
X56987Y-32329D03*
X56987Y-33329D03*
X55987Y-32329D03*
X55987Y-33329D03*
X54987Y-32329D03*
X54987Y-33329D03*
X53987Y-32329D03*
X53987Y-33329D03*
X52987Y-32329D03*
X52987Y-33329D03*
X51987Y-32329D03*
X51987Y-33329D03*
X50987Y-32329D03*
X50987Y-33329D03*
X49987Y-32329D03*
X49987Y-33329D03*
X48987Y-32329D03*
X48987Y-33329D03*
X47987Y-32329D03*
X47987Y-33329D03*
X46987Y-32329D03*
X46987Y-33329D03*
X45987Y-32329D03*
X45987Y-33329D03*
X44987Y-32329D03*
X44987Y-33329D03*
X43987Y-32329D03*
X43987Y-33329D03*
X42987Y-32329D03*
X42987Y-33329D03*
X41987Y-32329D03*
X41987Y-33329D03*
G54D25*
X59800Y-30550D03*
G54D26*
X58800Y-30550D03*
X57800Y-30550D03*
X56800Y-30550D03*
X55800Y-30550D03*
X54800Y-30550D03*
G54D25*
X65800Y-30550D03*
G54D26*
X64800Y-30550D03*
X63800Y-30550D03*
X62800Y-30550D03*
X61800Y-30550D03*
X60800Y-30550D03*
G54D25*
X49800Y-30550D03*
G54D26*
X48800Y-30550D03*
X47800Y-30550D03*
X46800Y-30550D03*
X45800Y-30550D03*
X44800Y-30550D03*
G54D27*
X38750Y-50300D03*
G54D28*
X38750Y-52300D03*
G54D24*
X65600Y-45100D03*
X65600Y-46100D03*
G54D29*
X38550Y-54850D03*
X38550Y-30800D03*
X74400Y-30800D03*
X74400Y-54850D03*
G54D30*
X44100Y-44500D03*
X46100Y-44500D03*
G54D28*
X71879Y-52414D03*
X69320Y-52414D03*
X69320Y-54185D03*
X71879Y-54185D03*
G54D27*
X71950Y-31000D03*
G54D28*
X69950Y-31000D03*
X67950Y-31000D03*
G54D24*
X65600Y-47300D03*
X65600Y-48300D03*
X65600Y-49500D03*
X65600Y-50500D03*
X68400Y-34350D03*
X67400Y-34350D03*
X46800Y-50600D03*
X46800Y-47600D03*
X73550Y-43900D03*
X70550Y-43900D03*
X69650Y-43900D03*
X66650Y-43900D03*
X73550Y-46100D03*
X70550Y-46100D03*
X69650Y-41700D03*
X66650Y-41700D03*
X73550Y-41700D03*
X70550Y-41700D03*
X69650Y-46100D03*
X66650Y-46100D03*
X69650Y-48300D03*
X66650Y-48300D03*
X69650Y-39500D03*
X66650Y-39500D03*
X73550Y-39500D03*
X70550Y-39500D03*
X73550Y-50500D03*
X70550Y-50500D03*
X69650Y-50500D03*
X66650Y-50500D03*
X73550Y-48300D03*
X70550Y-48300D03*
X49700Y-50200D03*
X49700Y-47200D03*
X49000Y-44500D03*
X52000Y-44500D03*
G54D28*
X74200Y-35900D03*
X74200Y-33900D03*
G54D10*
G36*
X51938Y-46900D02*
X51492Y-47345D01*
X51047Y-46900D01*
X51492Y-46454D01*
X51938Y-46900D01*
X51938Y-46900D01*
G37*
G54D24*
X52200Y-47607D03*
X52907Y-46900D03*
X65600Y-42900D03*
X65600Y-43900D03*
X40950Y-50800D03*
X40950Y-49800D03*
X65600Y-40700D03*
X65600Y-41700D03*
X65600Y-38500D03*
X65600Y-39500D03*
G54D31*
X71500Y-35950D03*
G54D30*
X69500Y-35950D03*
G54D31*
X44450Y-50500D03*
G54D30*
X44450Y-48500D03*
G54D32*
X70550Y-40600D03*
G54D33*
X73550Y-40600D03*
G54D32*
X52000Y-45700D03*
G54D33*
X49000Y-45700D03*
G54D32*
X42050Y-52050D03*
G54D33*
X42050Y-49050D03*
G54D32*
X71800Y-33200D03*
G54D33*
X68800Y-33200D03*
G54D32*
X70550Y-49400D03*
G54D33*
X73550Y-49400D03*
G54D32*
X66650Y-49400D03*
G54D33*
X69650Y-49400D03*
G54D32*
X70550Y-47200D03*
G54D33*
X73550Y-47200D03*
G54D32*
X66650Y-47200D03*
G54D33*
X69650Y-47200D03*
G54D32*
X66650Y-38400D03*
G54D33*
X69650Y-38400D03*
G54D32*
X70550Y-45000D03*
G54D33*
X73550Y-45000D03*
G54D32*
X66650Y-45000D03*
G54D33*
X69650Y-45000D03*
G54D32*
X70550Y-38400D03*
G54D33*
X73550Y-38400D03*
G54D32*
X66650Y-40600D03*
G54D33*
X69650Y-40600D03*
G54D32*
X70550Y-42800D03*
G54D33*
X73550Y-42800D03*
G54D32*
X66650Y-42800D03*
G54D33*
X69650Y-42800D03*
G54D19*
X56000Y-41000D03*
X55000Y-41000D03*
X54000Y-41000D03*
X53000Y-41000D03*
X52000Y-41000D03*
X52000Y-40000D03*
X52000Y-39000D03*
X53000Y-39000D03*
X53000Y-40000D03*
X54000Y-39000D03*
X54000Y-40000D03*
X55000Y-40000D03*
X56000Y-42000D03*
X55000Y-42000D03*
X54000Y-42000D03*
X53000Y-42000D03*
X52000Y-42000D03*
X52000Y-43000D03*
X53000Y-43000D03*
X54000Y-43000D03*
X55000Y-43000D03*
X56000Y-43000D03*
X53000Y-44000D03*
X54000Y-44000D03*
X55000Y-44000D03*
X56000Y-44000D03*
X56000Y-45000D03*
X56000Y-46000D03*
X55000Y-46000D03*
X54000Y-45000D03*
X54000Y-46000D03*
X53000Y-45000D03*
X55000Y-45000D03*
X51000Y-43000D03*
X50000Y-43000D03*
X49000Y-43000D03*
X48000Y-43000D03*
X47000Y-43000D03*
X46000Y-43000D03*
X45000Y-43000D03*
X44000Y-43000D03*
X44000Y-42000D03*
X44000Y-41000D03*
X44000Y-40000D03*
X44000Y-39000D03*
X45000Y-39000D03*
X46000Y-39000D03*
X47000Y-39000D03*
X48000Y-39000D03*
X49000Y-39000D03*
X50000Y-39000D03*
X51000Y-39000D03*
X55000Y-39000D03*
X56000Y-40000D03*
X51000Y-40000D03*
X51000Y-41000D03*
X51000Y-42000D03*
X50000Y-42000D03*
X49000Y-42000D03*
X48000Y-42000D03*
X47000Y-42000D03*
X46000Y-42000D03*
X45000Y-42000D03*
X45000Y-41000D03*
X45000Y-40000D03*
X46000Y-40000D03*
X47000Y-40000D03*
X48000Y-40000D03*
X49000Y-40000D03*
X50000Y-40000D03*
X50000Y-41000D03*
X49000Y-41000D03*
X48000Y-41000D03*
X47000Y-41000D03*
X46000Y-41000D03*
M02*
