M48
;DRILL file {Pcbnew (2013-07-07 BZR 4022)-stable} date 11/04/2014 09:32:29
;FORMAT={-:-/ absolute / inch / decimal}
FMAT,2
INCH,TZ
T1C0.020
T2C0.032
T3C0.039
T4C0.040
T5C0.043
T6C0.060
T7C0.063
T8C0.126
%
G90
G05
M72
T1
X4.165Y-4.54
X4.23Y-4.59
X4.31Y-4.82
X4.34Y-4.79
X4.65Y-3.78
X4.8Y-3.74
X4.95Y-3.765
X5.Y-3.81
X5.05Y-3.5
X5.1Y-3.55
X5.13Y-5.14
X5.15Y-3.46
X5.26Y-5.09
X5.4Y-3.41
X5.43Y-4.99
X5.44Y-4.75
X5.47Y-4.8
X5.47Y-5.04
X5.5Y-4.85
X5.56Y-3.65
X5.6Y-3.41
X5.65Y-3.65
X5.74Y-3.65
X5.79Y-4.8
X5.83Y-3.65
X5.87Y-4.3
X5.87Y-4.465
X5.92Y-4.75
X5.92Y-4.85
X5.98Y-4.58
X6.02Y-3.55
X6.03Y-4.12
X6.07Y-3.92
X6.07Y-4.
X6.0701Y-3.7601
X6.08Y-4.94
X6.1Y-3.55
X6.11Y-4.12
X6.14Y-4.81
X6.15Y-3.43
X6.15Y-3.76
X6.15Y-4.9
X6.21Y-3.5
X6.28Y-4.055
X6.28Y-4.095
X6.28Y-4.465
X6.39Y-3.6
X6.45Y-3.62
X6.52Y-3.71
X6.55Y-3.6
X6.57Y-3.75
X6.6Y-3.72
X6.73Y-3.71
X6.77Y-3.71
X6.825Y-3.95
X6.825Y-4.17
X6.825Y-4.39
X6.825Y-4.61
X6.825Y-4.83
X6.825Y-5.05
X6.88Y-3.95
X6.88Y-4.17
X6.88Y-4.39
X6.88Y-4.61
X6.88Y-4.83
X6.88Y-5.05
X6.91Y-3.71
X6.95Y-3.71
T2
X4.095Y-4.98
X4.095Y-5.08
X4.68Y-4.76
X4.68Y-5.06
X4.9Y-4.45
X4.97Y-4.72
X4.97Y-5.02
X5.1493Y-4.69
X5.2Y-4.45
X5.22Y-4.7607
X5.2907Y-4.69
X6.56Y-3.85
X6.56Y-3.95
X6.56Y-4.07
X6.56Y-4.17
X6.56Y-4.29
X6.56Y-4.39
X6.56Y-4.51
X6.56Y-4.61
X6.56Y-4.73
X6.56Y-4.83
X6.56Y-4.95
X6.56Y-5.05
X6.665Y-3.95
X6.665Y-4.17
X6.665Y-4.39
X6.665Y-4.61
X6.665Y-4.83
X6.665Y-5.05
X6.74Y-3.435
X6.84Y-3.435
X6.965Y-3.95
X6.965Y-4.17
X6.965Y-4.39
X6.965Y-4.61
X6.965Y-4.83
X6.965Y-5.05
X7.055Y-3.95
X7.055Y-4.17
X7.055Y-4.39
X7.055Y-4.61
X7.055Y-4.83
X7.055Y-5.05
X7.355Y-3.95
X7.355Y-4.17
X7.355Y-4.39
X7.355Y-4.61
X7.355Y-4.83
X7.355Y-5.05
X7.495Y-3.88
X7.495Y-3.98
X7.495Y-4.08
X7.495Y-4.18
X7.495Y-4.28
X7.495Y-4.38
X7.495Y-4.48
X7.495Y-4.58
X7.495Y-4.68
X7.495Y-4.78
X7.495Y-4.88
X7.495Y-4.98
T3
X3.83Y-3.45
X3.83Y-3.55
X3.83Y-3.65
X3.83Y-3.75
X3.83Y-3.85
X3.83Y-3.95
X3.83Y-4.05
X3.83Y-4.15
X3.83Y-4.25
X3.83Y-4.35
X3.83Y-4.45
X3.83Y-4.55
X3.83Y-4.65
X3.83Y-4.75
X3.83Y-4.85
X3.93Y-3.45
X3.93Y-3.55
X3.93Y-3.65
X3.93Y-3.75
X3.93Y-3.85
X3.93Y-3.95
X3.93Y-4.05
X3.93Y-4.15
X3.93Y-4.25
X3.93Y-4.35
X3.93Y-4.45
X3.93Y-4.55
X3.93Y-4.65
X3.93Y-4.75
X3.93Y-4.85
X4.03Y-3.45
X4.03Y-3.55
X4.03Y-3.65
X4.03Y-3.75
X4.03Y-3.85
X4.03Y-3.95
X4.03Y-4.05
X4.03Y-4.15
X4.03Y-4.25
X4.03Y-4.35
X4.03Y-4.45
X4.03Y-4.55
X4.03Y-4.65
X4.03Y-4.75
X4.03Y-4.85
X4.1987Y-3.233
X4.1987Y-3.333
X4.2987Y-3.233
X4.2987Y-3.333
X4.33Y-5.2269
X4.33Y-5.3269
X4.3987Y-3.233
X4.3987Y-3.333
X4.4Y-3.9
X4.4Y-4.
X4.4Y-4.1
X4.4Y-4.2
X4.4Y-4.3
X4.43Y-5.2269
X4.43Y-5.3269
X4.4987Y-3.233
X4.4987Y-3.333
X4.5Y-3.9
X4.5Y-4.
X4.5Y-4.1
X4.5Y-4.2
X4.5Y-4.3
X4.53Y-5.2269
X4.53Y-5.3269
X4.5987Y-3.233
X4.5987Y-3.333
X4.6Y-3.9
X4.6Y-4.
X4.6Y-4.1
X4.6Y-4.2
X4.6Y-4.3
X4.63Y-5.2269
X4.63Y-5.3269
X4.6987Y-3.233
X4.6987Y-3.333
X4.7Y-3.9
X4.7Y-4.
X4.7Y-4.1
X4.7Y-4.2
X4.7Y-4.3
X4.73Y-5.2269
X4.73Y-5.3269
X4.7987Y-3.233
X4.7987Y-3.333
X4.8Y-3.9
X4.8Y-4.
X4.8Y-4.1
X4.8Y-4.2
X4.8Y-4.3
X4.83Y-5.2269
X4.83Y-5.3269
X4.8987Y-3.233
X4.8987Y-3.333
X4.9Y-3.9
X4.9Y-4.
X4.9Y-4.1
X4.9Y-4.2
X4.9Y-4.3
X4.93Y-5.2269
X4.93Y-5.3269
X4.9987Y-3.233
X4.9987Y-3.333
X5.Y-3.9
X5.Y-4.
X5.Y-4.1
X5.Y-4.2
X5.Y-4.3
X5.03Y-5.2269
X5.03Y-5.3269
X5.0987Y-3.233
X5.0987Y-3.333
X5.1Y-3.9
X5.1Y-4.
X5.1Y-4.1
X5.1Y-4.2
X5.1Y-4.3
X5.13Y-5.2269
X5.13Y-5.3269
X5.1987Y-3.233
X5.1987Y-3.333
X5.2Y-3.9
X5.2Y-4.
X5.2Y-4.1
X5.2Y-4.2
X5.2Y-4.3
X5.23Y-5.2269
X5.23Y-5.3269
X5.2987Y-3.233
X5.2987Y-3.333
X5.3Y-3.9
X5.3Y-4.
X5.3Y-4.1
X5.3Y-4.2
X5.3Y-4.3
X5.3Y-4.4
X5.3Y-4.5
X5.33Y-5.2269
X5.33Y-5.3269
X5.3987Y-3.233
X5.3987Y-3.333
X5.4Y-3.9
X5.4Y-4.
X5.4Y-4.1
X5.4Y-4.2
X5.4Y-4.3
X5.4Y-4.4
X5.4Y-4.5
X5.4Y-4.6
X5.43Y-5.2269
X5.43Y-5.3269
X5.4987Y-3.233
X5.4987Y-3.333
X5.5Y-3.9
X5.5Y-4.
X5.5Y-4.1
X5.5Y-4.2
X5.5Y-4.3
X5.5Y-4.4
X5.5Y-4.5
X5.5Y-4.6
X5.53Y-5.2269
X5.53Y-5.3269
X5.5987Y-3.233
X5.5987Y-3.333
X5.6Y-4.
X5.6Y-4.1
X5.6Y-4.2
X5.6Y-4.3
X5.6Y-4.4
X5.6Y-4.5
X5.6Y-4.6
X5.63Y-5.2269
X5.63Y-5.3269
X5.6987Y-3.233
X5.6987Y-3.333
X5.7Y-4.1
X5.7Y-4.2
X5.7Y-4.3
X5.7Y-4.4
X5.7Y-4.5
X5.73Y-5.2269
X5.73Y-5.3269
X5.7987Y-3.233
X5.7987Y-3.333
X5.83Y-5.2269
X5.83Y-5.3269
X5.8987Y-3.233
X5.8987Y-3.333
X5.93Y-5.2269
X5.93Y-5.3269
X5.9987Y-3.233
X5.9987Y-3.333
X6.03Y-5.2269
X6.03Y-5.3269
X6.0987Y-3.233
X6.0987Y-3.333
X6.13Y-5.2269
X6.13Y-5.3269
X6.1987Y-3.233
X6.1987Y-3.333
X6.23Y-5.2269
X6.23Y-5.3269
X6.2987Y-3.233
X6.2987Y-3.333
X6.33Y-5.2269
X6.33Y-5.3269
X6.3987Y-3.233
X6.3987Y-3.333
X6.43Y-5.2269
X6.43Y-5.3269
X6.4987Y-3.233
X6.4987Y-3.333
X6.53Y-5.2269
X6.53Y-5.3269
X6.5987Y-3.233
X6.5987Y-3.333
X6.63Y-5.2269
X6.63Y-5.3269
X6.73Y-5.2269
X6.73Y-5.3269
T4
X4.08Y-3.055
X4.08Y-5.51
X4.18Y-3.055
X4.18Y-5.51
X4.28Y-3.055
X4.28Y-5.51
X4.38Y-3.055
X4.38Y-5.51
X4.41Y-4.45
X4.445Y-4.85
X4.445Y-5.05
X4.48Y-3.055
X4.48Y-5.51
X4.58Y-3.055
X4.58Y-5.51
X4.61Y-4.45
X4.68Y-3.055
X4.68Y-5.51
X4.78Y-3.055
X4.78Y-5.51
X4.88Y-3.055
X4.88Y-5.51
X4.98Y-3.055
X4.98Y-5.51
X5.08Y-3.055
X5.08Y-5.51
X5.18Y-3.055
X5.18Y-5.51
X5.28Y-3.055
X5.28Y-5.51
X5.38Y-3.055
X5.38Y-5.51
X5.48Y-3.055
X5.48Y-5.51
X5.58Y-3.055
X5.58Y-5.51
X5.68Y-3.055
X5.68Y-5.51
X5.78Y-3.055
X5.78Y-5.51
X5.88Y-3.055
X5.88Y-5.51
X5.98Y-3.055
X5.98Y-5.51
X6.08Y-3.055
X6.08Y-5.51
X6.18Y-3.055
X6.18Y-5.51
X6.28Y-3.055
X6.28Y-5.51
X6.38Y-3.055
X6.38Y-5.51
X6.48Y-3.055
X6.48Y-5.51
X6.58Y-3.055
X6.58Y-5.51
X6.68Y-5.51
X6.78Y-5.51
X6.95Y-3.595
X7.15Y-3.595
T5
X4.205Y-4.905
X4.205Y-5.205
X4.9Y-4.57
X5.2Y-4.57
X6.665Y-3.84
X6.665Y-4.06
X6.665Y-4.28
X6.665Y-4.5
X6.665Y-4.72
X6.665Y-4.94
X6.88Y-3.32
X6.965Y-3.84
X6.965Y-4.06
X6.965Y-4.28
X6.965Y-4.5
X6.965Y-4.72
X6.965Y-4.94
X7.055Y-3.84
X7.055Y-4.06
X7.055Y-4.28
X7.055Y-4.5
X7.055Y-4.72
X7.055Y-4.94
X7.18Y-3.32
X7.355Y-3.84
X7.355Y-4.06
X7.355Y-4.28
X7.355Y-4.5
X7.355Y-4.72
X7.355Y-4.94
T6
X6.932Y-5.2414
X6.932Y-5.4186
X7.188Y-5.2414
X7.188Y-5.4186
T7
X3.875Y-5.03
X3.875Y-5.23
X6.795Y-3.1
X6.995Y-3.1
X7.195Y-3.1
X7.42Y-3.39
X7.42Y-3.59
T8
X3.855Y-3.08
X3.855Y-5.485
X7.44Y-3.08
X7.44Y-5.485
T0
M30
