G04 (created by PCBNEW (2013-07-07 BZR 4022)-stable) date 02/05/2014 11:15:50*
%MOIN*%
G04 Gerber Fmt 3.4, Leading zero omitted, Abs format*
%FSLAX34Y34*%
G01*
G70*
G90*
G04 APERTURE LIST*
%ADD10C,0.00590551*%
%ADD11C,0.0590551*%
%ADD12C,0.07*%
%ADD13R,0.055X0.055*%
%ADD14C,0.055*%
%ADD15R,0.06X0.06*%
%ADD16C,0.06*%
%ADD17R,0.1X0.1*%
%ADD18C,0.1*%
%ADD19C,0.19685*%
%ADD20R,0.07X0.07*%
%ADD21R,0.0669291X0.0669291*%
%ADD22C,0.0669291*%
%ADD23R,0.11811X0.0393701*%
%ADD24C,0.0295*%
%ADD25C,0.035*%
%ADD26C,0.016*%
%ADD27C,0.08*%
%ADD28C,0.03*%
%ADD29C,0.05*%
%ADD30C,0.008*%
G04 APERTURE END LIST*
G54D10*
G54D11*
X67100Y-32325D03*
X67100Y-33325D03*
X66100Y-32325D03*
X66100Y-33325D03*
X65100Y-32325D03*
X65100Y-33325D03*
X64100Y-32325D03*
X64100Y-33325D03*
X63100Y-32325D03*
X63100Y-33325D03*
X62100Y-32325D03*
X62100Y-33325D03*
X61100Y-32325D03*
X61100Y-33325D03*
X60100Y-32325D03*
X60100Y-33325D03*
X59100Y-32325D03*
X59100Y-33325D03*
X58100Y-32325D03*
X58100Y-33325D03*
X57100Y-32325D03*
X57100Y-33325D03*
X56100Y-32325D03*
X56100Y-33325D03*
X55100Y-32325D03*
X55100Y-33325D03*
X54100Y-32325D03*
X54100Y-33325D03*
X53100Y-32325D03*
X53100Y-33325D03*
X52100Y-32325D03*
X52100Y-33325D03*
X51100Y-32325D03*
X51100Y-33325D03*
X50100Y-32325D03*
X50100Y-33325D03*
X49100Y-32325D03*
X49100Y-33325D03*
X48100Y-32325D03*
X48100Y-33325D03*
X47100Y-32325D03*
X47100Y-33325D03*
X46100Y-32325D03*
X46100Y-33325D03*
X45100Y-32325D03*
X45100Y-33325D03*
X44100Y-32325D03*
X44100Y-33325D03*
X43100Y-32325D03*
X43100Y-33325D03*
G54D12*
X44100Y-44500D03*
X46100Y-44500D03*
G54D11*
X38300Y-34500D03*
X39300Y-34500D03*
X40300Y-34500D03*
X38300Y-35500D03*
X39300Y-35500D03*
X40300Y-35500D03*
X38300Y-36500D03*
X39300Y-36500D03*
X40300Y-36500D03*
X38300Y-37500D03*
X39300Y-37500D03*
X40300Y-37500D03*
X38300Y-38500D03*
X39300Y-38500D03*
X40300Y-38500D03*
X38300Y-39500D03*
X39300Y-39500D03*
X40300Y-39500D03*
X38300Y-40500D03*
X39300Y-40500D03*
X40300Y-40500D03*
X38300Y-41500D03*
X39300Y-41500D03*
X40300Y-41500D03*
X38300Y-42500D03*
X39300Y-42500D03*
X40300Y-42500D03*
X38300Y-43500D03*
X39300Y-43500D03*
X40300Y-43500D03*
X38300Y-44500D03*
X39300Y-44500D03*
X40300Y-44500D03*
X38300Y-45500D03*
X39300Y-45500D03*
X40300Y-45500D03*
X38300Y-46500D03*
X39300Y-46500D03*
X40300Y-46500D03*
X38300Y-47500D03*
X39300Y-47500D03*
X40300Y-47500D03*
X38300Y-48500D03*
X39300Y-48500D03*
X40300Y-48500D03*
X57000Y-42000D03*
X57000Y-41000D03*
X57000Y-43000D03*
X57000Y-44000D03*
X57000Y-45000D03*
X67100Y-52325D03*
X67100Y-53325D03*
X66100Y-52325D03*
X66100Y-53325D03*
X65100Y-52325D03*
X65100Y-53325D03*
X64100Y-52325D03*
X64100Y-53325D03*
X63100Y-52325D03*
X63100Y-53325D03*
X62100Y-52325D03*
X62100Y-53325D03*
X61100Y-52325D03*
X61100Y-53325D03*
X60100Y-52325D03*
X60100Y-53325D03*
X59100Y-52325D03*
X59100Y-53325D03*
X58100Y-52325D03*
X58100Y-53325D03*
X57100Y-52325D03*
X57100Y-53325D03*
X56100Y-52325D03*
X56100Y-53325D03*
X55100Y-52325D03*
X55100Y-53325D03*
X54100Y-52325D03*
X54100Y-53325D03*
X53100Y-52325D03*
X53100Y-53325D03*
X52100Y-52325D03*
X52100Y-53325D03*
X51100Y-52325D03*
X51100Y-53325D03*
X50100Y-52325D03*
X50100Y-53325D03*
X49100Y-52325D03*
X49100Y-53325D03*
X48100Y-52325D03*
X48100Y-53325D03*
X47100Y-52325D03*
X47100Y-53325D03*
X46100Y-52325D03*
X46100Y-53325D03*
X45100Y-52325D03*
X45100Y-53325D03*
X44100Y-52325D03*
X44100Y-53325D03*
X43100Y-52325D03*
X43100Y-53325D03*
G54D13*
X74950Y-39100D03*
G54D14*
X74950Y-40100D03*
X74950Y-41100D03*
X74950Y-42100D03*
X74950Y-43100D03*
X74950Y-44100D03*
X74950Y-45100D03*
X74950Y-46100D03*
X74950Y-47100D03*
X74950Y-48100D03*
X74950Y-49100D03*
X74950Y-50100D03*
G54D15*
X47800Y-55100D03*
G54D16*
X46800Y-55100D03*
X45800Y-55100D03*
X44800Y-55100D03*
G54D15*
X53800Y-30550D03*
G54D16*
X52800Y-30550D03*
X51800Y-30550D03*
X50800Y-30550D03*
G54D15*
X59800Y-55100D03*
G54D16*
X58800Y-55100D03*
X57800Y-55100D03*
X56800Y-55100D03*
G54D15*
X43800Y-55100D03*
G54D16*
X42800Y-55100D03*
X41800Y-55100D03*
X40800Y-55100D03*
G54D15*
X51800Y-55100D03*
G54D16*
X50800Y-55100D03*
X49800Y-55100D03*
X48800Y-55100D03*
G54D15*
X63800Y-55100D03*
G54D16*
X62800Y-55100D03*
X61800Y-55100D03*
X60800Y-55100D03*
G54D15*
X43800Y-30550D03*
G54D16*
X42800Y-30550D03*
X41800Y-30550D03*
X40800Y-30550D03*
G54D15*
X67800Y-55100D03*
G54D16*
X66800Y-55100D03*
X65800Y-55100D03*
X64800Y-55100D03*
G54D15*
X55800Y-55100D03*
G54D16*
X54800Y-55100D03*
X53800Y-55100D03*
X52800Y-55100D03*
G54D15*
X59800Y-30550D03*
G54D16*
X58800Y-30550D03*
X57800Y-30550D03*
X56800Y-30550D03*
X55800Y-30550D03*
X54800Y-30550D03*
G54D15*
X65800Y-30550D03*
G54D16*
X64800Y-30550D03*
X63800Y-30550D03*
X62800Y-30550D03*
X61800Y-30550D03*
X60800Y-30550D03*
G54D15*
X49800Y-30550D03*
G54D16*
X48800Y-30550D03*
X47800Y-30550D03*
X46800Y-30550D03*
X45800Y-30550D03*
X44800Y-30550D03*
G54D17*
X38750Y-50300D03*
G54D18*
X38750Y-52300D03*
G54D14*
X65600Y-45400D03*
X65600Y-46400D03*
G54D19*
X38550Y-54850D03*
X38550Y-30800D03*
X74400Y-30800D03*
X74400Y-54850D03*
G54D18*
X71879Y-52414D03*
X69320Y-52414D03*
X69320Y-54185D03*
X71879Y-54185D03*
G54D17*
X74200Y-37050D03*
G54D18*
X74200Y-35050D03*
X74200Y-33050D03*
G54D14*
X65600Y-47600D03*
X65600Y-48600D03*
X65600Y-49800D03*
X65600Y-50800D03*
X67800Y-34900D03*
X67800Y-35900D03*
X46800Y-50600D03*
X46800Y-47600D03*
X73550Y-44200D03*
X70550Y-44200D03*
X69650Y-44200D03*
X66650Y-44200D03*
X73550Y-46400D03*
X70550Y-46400D03*
X69650Y-42000D03*
X66650Y-42000D03*
X73550Y-42000D03*
X70550Y-42000D03*
X69650Y-46400D03*
X66650Y-46400D03*
X69650Y-48600D03*
X66650Y-48600D03*
X69650Y-39800D03*
X66650Y-39800D03*
X73550Y-39800D03*
X70550Y-39800D03*
X73550Y-50800D03*
X70550Y-50800D03*
X69650Y-50800D03*
X66650Y-50800D03*
X73550Y-48600D03*
X70550Y-48600D03*
X49700Y-50200D03*
X49700Y-47200D03*
X49000Y-44500D03*
X52000Y-44500D03*
G54D18*
X71300Y-31000D03*
X69300Y-31000D03*
G54D10*
G36*
X51881Y-46900D02*
X51492Y-47288D01*
X51103Y-46900D01*
X51492Y-46511D01*
X51881Y-46900D01*
X51881Y-46900D01*
G37*
G54D14*
X52200Y-47607D03*
X52907Y-46900D03*
X65600Y-43200D03*
X65600Y-44200D03*
X40950Y-50800D03*
X40950Y-49800D03*
X65600Y-41000D03*
X65600Y-42000D03*
X65600Y-38800D03*
X65600Y-39800D03*
G54D20*
X71500Y-35950D03*
G54D12*
X69500Y-35950D03*
G54D20*
X44450Y-50500D03*
G54D12*
X44450Y-48500D03*
G54D21*
X70550Y-40900D03*
G54D22*
X73550Y-40900D03*
G54D21*
X52000Y-45700D03*
G54D22*
X49000Y-45700D03*
G54D21*
X42050Y-52050D03*
G54D22*
X42050Y-49050D03*
G54D21*
X71800Y-33200D03*
G54D22*
X68800Y-33200D03*
G54D21*
X70550Y-49700D03*
G54D22*
X73550Y-49700D03*
G54D21*
X66650Y-49700D03*
G54D22*
X69650Y-49700D03*
G54D21*
X70550Y-47500D03*
G54D22*
X73550Y-47500D03*
G54D21*
X66650Y-47500D03*
G54D22*
X69650Y-47500D03*
G54D21*
X66650Y-38700D03*
G54D22*
X69650Y-38700D03*
G54D21*
X70550Y-45300D03*
G54D22*
X73550Y-45300D03*
G54D21*
X66650Y-45300D03*
G54D22*
X69650Y-45300D03*
G54D21*
X70550Y-38700D03*
G54D22*
X73550Y-38700D03*
G54D21*
X66650Y-40900D03*
G54D22*
X69650Y-40900D03*
G54D21*
X70550Y-43100D03*
G54D22*
X73550Y-43100D03*
G54D21*
X66650Y-43100D03*
G54D22*
X69650Y-43100D03*
G54D23*
X41400Y-53450D03*
X41400Y-52950D03*
X39300Y-33100D03*
X39300Y-33600D03*
G54D11*
X56000Y-41000D03*
X56000Y-42000D03*
X55000Y-42000D03*
X55000Y-41000D03*
X55000Y-40000D03*
X56000Y-40000D03*
X54000Y-40000D03*
X54000Y-41000D03*
X54000Y-42000D03*
X53000Y-42000D03*
X53000Y-41000D03*
X53000Y-40000D03*
X53000Y-39000D03*
X54000Y-39000D03*
X55000Y-39000D03*
X55000Y-43000D03*
X56000Y-43000D03*
X54000Y-43000D03*
X53000Y-43000D03*
X55000Y-44000D03*
X54000Y-44000D03*
X53000Y-44000D03*
X53000Y-45000D03*
X54000Y-45000D03*
X55000Y-45000D03*
X56000Y-45000D03*
X56000Y-44000D03*
X54000Y-46000D03*
X55000Y-46000D03*
X56000Y-46000D03*
X52000Y-43000D03*
X51000Y-43000D03*
X50000Y-43000D03*
X49000Y-43000D03*
X48000Y-43000D03*
X47000Y-43000D03*
X47000Y-42000D03*
X48000Y-42000D03*
X49000Y-42000D03*
X50000Y-42000D03*
X51000Y-42000D03*
X52000Y-42000D03*
X46000Y-43000D03*
X45000Y-43000D03*
X44000Y-43000D03*
X44000Y-42000D03*
X45000Y-42000D03*
X46000Y-42000D03*
X44000Y-41000D03*
X44000Y-40000D03*
X45000Y-40000D03*
X45000Y-41000D03*
X46000Y-41000D03*
X47000Y-41000D03*
X48000Y-41000D03*
X49000Y-41000D03*
X50000Y-41000D03*
X51000Y-41000D03*
X52000Y-41000D03*
X52000Y-40000D03*
X51000Y-40000D03*
X50000Y-40000D03*
X49000Y-40000D03*
X48000Y-40000D03*
X47000Y-40000D03*
X46000Y-40000D03*
X44000Y-39000D03*
X45000Y-39000D03*
X46000Y-39000D03*
X47000Y-39000D03*
X48000Y-39000D03*
X49000Y-39000D03*
X50000Y-39000D03*
X51000Y-39000D03*
X52000Y-39000D03*
G54D24*
X58500Y-45000D03*
X50800Y-49950D03*
X50800Y-48450D03*
X66450Y-37200D03*
X62800Y-40650D03*
X62800Y-41100D03*
X58850Y-44650D03*
X62800Y-44650D03*
X58700Y-43000D03*
X66000Y-37200D03*
X46450Y-49850D03*
X45900Y-49850D03*
X48950Y-49850D03*
X48400Y-49850D03*
X45500Y-48000D03*
X45850Y-48350D03*
X68800Y-39800D03*
X68250Y-39800D03*
X68800Y-42000D03*
X68250Y-42000D03*
X68800Y-44200D03*
X68250Y-44200D03*
X68800Y-46400D03*
X68250Y-46400D03*
X68800Y-48600D03*
X68250Y-48600D03*
X68800Y-50800D03*
X68250Y-50800D03*
X60500Y-36100D03*
X62150Y-35350D03*
X51100Y-38100D03*
X50300Y-37500D03*
X49100Y-37400D03*
X48600Y-37900D03*
X65200Y-37100D03*
X61100Y-41200D03*
X57900Y-48000D03*
X59200Y-47500D03*
X60300Y-41200D03*
X65600Y-35900D03*
X59100Y-48500D03*
X60700Y-40000D03*
X64600Y-36100D03*
X61350Y-37750D03*
X57200Y-34100D03*
X58300Y-36500D03*
X55000Y-48500D03*
X52600Y-50900D03*
X57400Y-36500D03*
X54700Y-48000D03*
X51300Y-51400D03*
X55100Y-34100D03*
X55600Y-36500D03*
X54400Y-47500D03*
X60550Y-37750D03*
X61000Y-35800D03*
X61600Y-35000D03*
X54300Y-49900D03*
X54700Y-50400D03*
X53600Y-34500D03*
X51600Y-35000D03*
X52100Y-35400D03*
X61400Y-48100D03*
X60700Y-39200D03*
X63900Y-36000D03*
X59800Y-45800D03*
X56500Y-36500D03*
X42300Y-45900D03*
X61000Y-49400D03*
X62100Y-49000D03*
X41650Y-45400D03*
G54D25*
X52000Y-45700D02*
X52650Y-45700D01*
X50800Y-49950D02*
X50800Y-50350D01*
X52750Y-48450D02*
X50800Y-48450D01*
X53600Y-47600D02*
X52750Y-48450D01*
X53600Y-46650D02*
X53600Y-47600D01*
X52650Y-45700D02*
X53600Y-46650D01*
X62800Y-41100D02*
X62800Y-40650D01*
X71500Y-35950D02*
X70650Y-35950D01*
X70650Y-35950D02*
X69400Y-37200D01*
X58700Y-43000D02*
X58850Y-44650D01*
X62800Y-41100D02*
X62800Y-44650D01*
X69400Y-37200D02*
X66450Y-37200D01*
X66450Y-37200D02*
X66000Y-37200D01*
X46450Y-49850D02*
X46500Y-49800D01*
X48950Y-49850D02*
X48400Y-49850D01*
X45850Y-49250D02*
X45900Y-49850D01*
X45850Y-48350D02*
X45850Y-49250D01*
X45500Y-48000D02*
X45850Y-48350D01*
X70650Y-35950D02*
X69500Y-37100D01*
G54D26*
X74950Y-39100D02*
X74250Y-39100D01*
X74250Y-39100D02*
X73550Y-39800D01*
X74950Y-41100D02*
X74450Y-41100D01*
X74450Y-41100D02*
X73550Y-42000D01*
X74950Y-43100D02*
X74650Y-43100D01*
X74650Y-43100D02*
X73550Y-44200D01*
X72100Y-44950D02*
X72100Y-39150D01*
X72100Y-39150D02*
X74200Y-37050D01*
X74950Y-45100D02*
X74850Y-45100D01*
X74850Y-45100D02*
X73550Y-46400D01*
X72100Y-44950D02*
X73550Y-46400D01*
X74950Y-47100D02*
X74950Y-47200D01*
X74950Y-47200D02*
X73550Y-48600D01*
X73550Y-50800D02*
X73550Y-50500D01*
X73550Y-50500D02*
X74950Y-49100D01*
G54D27*
X38300Y-34500D02*
X38300Y-48500D01*
G54D25*
X65600Y-39800D02*
X68800Y-39800D01*
G54D28*
X68250Y-39800D02*
X68800Y-39800D01*
G54D25*
X65600Y-42000D02*
X68800Y-42000D01*
G54D28*
X68250Y-42000D02*
X68800Y-42000D01*
G54D25*
X65600Y-44200D02*
X68800Y-44200D01*
G54D28*
X68250Y-44200D02*
X68800Y-44200D01*
G54D25*
X65600Y-46400D02*
X68800Y-46400D01*
G54D28*
X68250Y-46400D02*
X68800Y-46400D01*
G54D25*
X65600Y-48600D02*
X68800Y-48600D01*
G54D28*
X68250Y-48600D02*
X68800Y-48600D01*
G54D25*
X65600Y-50800D02*
X66650Y-50800D01*
X66650Y-50800D02*
X68800Y-50800D01*
X68250Y-50800D02*
X68800Y-50800D01*
G54D26*
X40300Y-48500D02*
X41500Y-47300D01*
X46500Y-47300D02*
X46800Y-47600D01*
X41500Y-47300D02*
X46500Y-47300D01*
X51492Y-46900D02*
X51450Y-46900D01*
X50250Y-45700D02*
X49000Y-45700D01*
X51450Y-46900D02*
X50250Y-45700D01*
X49000Y-44500D02*
X46100Y-44500D01*
X49000Y-44500D02*
X49000Y-45700D01*
X49700Y-47200D02*
X50400Y-47900D01*
X51907Y-47900D02*
X52200Y-47607D01*
X50400Y-47900D02*
X51907Y-47900D01*
X50500Y-37100D02*
X53500Y-37100D01*
X53500Y-37100D02*
X54802Y-35797D01*
X43500Y-36900D02*
X50300Y-36900D01*
X50300Y-36900D02*
X50500Y-37100D01*
X59599Y-35803D02*
X59996Y-35803D01*
X62100Y-33700D02*
X62100Y-33329D01*
X59996Y-35803D02*
X62100Y-33700D01*
X54802Y-35797D02*
X59599Y-35803D01*
X42400Y-38000D02*
X42400Y-41400D01*
X42400Y-41400D02*
X40300Y-43500D01*
X42400Y-38000D02*
X43500Y-36900D01*
X61600Y-32800D02*
X61625Y-32800D01*
X61625Y-32800D02*
X62100Y-32325D01*
X50700Y-36700D02*
X53300Y-36700D01*
X53300Y-36700D02*
X54600Y-35400D01*
X43300Y-36500D02*
X50500Y-36500D01*
X50500Y-36500D02*
X50700Y-36700D01*
X54600Y-35400D02*
X59800Y-35400D01*
X61600Y-32800D02*
X61600Y-33600D01*
X62070Y-32329D02*
X61600Y-32800D01*
X62100Y-32329D02*
X62070Y-32329D01*
X59800Y-35400D02*
X61600Y-33600D01*
X42000Y-37800D02*
X42000Y-40800D01*
X42000Y-40800D02*
X40300Y-42500D01*
X42000Y-37800D02*
X43300Y-36500D01*
X47900Y-47100D02*
X47900Y-51000D01*
X47900Y-51000D02*
X47900Y-51500D01*
X47900Y-51500D02*
X47100Y-52300D01*
X47300Y-46500D02*
X47900Y-47100D01*
X47300Y-46500D02*
X40300Y-46500D01*
X50900Y-36300D02*
X53100Y-36300D01*
X53100Y-36300D02*
X54400Y-35000D01*
X43100Y-36100D02*
X50700Y-36100D01*
X50700Y-36100D02*
X50900Y-36300D01*
X61100Y-33329D02*
X61100Y-33400D01*
X59500Y-35000D02*
X54400Y-35000D01*
X61100Y-33400D02*
X59500Y-35000D01*
X41600Y-37600D02*
X41600Y-40200D01*
X41600Y-40200D02*
X40300Y-41500D01*
X41600Y-37600D02*
X43100Y-36100D01*
X60200Y-32825D02*
X60600Y-32825D01*
X60600Y-32825D02*
X61100Y-32325D01*
X60075Y-32825D02*
X59875Y-32825D01*
X59875Y-32825D02*
X59700Y-33000D01*
X59600Y-33200D02*
X59600Y-33100D01*
X59600Y-33100D02*
X59700Y-33000D01*
X51100Y-35900D02*
X52900Y-35900D01*
X52900Y-35900D02*
X54200Y-34600D01*
X42900Y-35700D02*
X50900Y-35700D01*
X50900Y-35700D02*
X51100Y-35900D01*
X59600Y-33700D02*
X59600Y-33200D01*
X41200Y-37400D02*
X41200Y-39600D01*
X41200Y-39600D02*
X40300Y-40500D01*
X41200Y-37400D02*
X42900Y-35700D01*
X58600Y-34600D02*
X54200Y-34600D01*
X59600Y-33700D02*
X58600Y-34600D01*
X60075Y-32825D02*
X60200Y-32825D01*
X64000Y-43800D02*
X64000Y-39600D01*
X64000Y-39600D02*
X60500Y-36100D01*
X64000Y-43800D02*
X65600Y-45400D01*
X65600Y-45400D02*
X66050Y-45850D01*
X70050Y-45850D02*
X70100Y-45800D01*
X66050Y-45850D02*
X70050Y-45850D01*
G54D29*
X70100Y-45300D02*
X70100Y-45800D01*
X70100Y-45800D02*
X70100Y-46400D01*
X70550Y-46400D02*
X70100Y-46400D01*
X70100Y-46400D02*
X69650Y-46400D01*
X70550Y-45300D02*
X70100Y-45300D01*
X70100Y-45300D02*
X69650Y-45300D01*
G54D26*
X47500Y-50700D02*
X47500Y-50925D01*
X47500Y-50925D02*
X46100Y-52325D01*
X46600Y-53375D02*
X46600Y-52825D01*
X46600Y-52825D02*
X46100Y-52325D01*
X40900Y-46900D02*
X47100Y-46900D01*
X47100Y-46900D02*
X47500Y-47300D01*
X47500Y-47300D02*
X47500Y-50700D01*
X47800Y-55100D02*
X46600Y-53900D01*
X46600Y-53900D02*
X46600Y-53375D01*
X40900Y-46900D02*
X40300Y-47500D01*
X62150Y-35350D02*
X65600Y-38800D01*
X65600Y-38800D02*
X66050Y-39250D01*
X66050Y-39250D02*
X70100Y-39250D01*
G54D29*
X70100Y-38700D02*
X70100Y-39250D01*
X70100Y-39250D02*
X70100Y-39800D01*
X70550Y-39800D02*
X70100Y-39800D01*
X70100Y-39800D02*
X69650Y-39800D01*
X69650Y-38700D02*
X70100Y-38700D01*
X70100Y-38700D02*
X70550Y-38700D01*
G54D26*
X55700Y-37900D02*
X51300Y-37900D01*
X51300Y-37900D02*
X51100Y-38100D01*
X57725Y-39900D02*
X57700Y-39900D01*
X57700Y-39900D02*
X55700Y-37900D01*
X57725Y-43275D02*
X57725Y-39900D01*
X51600Y-32829D02*
X51100Y-33329D01*
X51600Y-32829D02*
X51600Y-32000D01*
X51900Y-31700D02*
X52650Y-31700D01*
X51600Y-32000D02*
X51900Y-31700D01*
X52650Y-31700D02*
X53800Y-30550D01*
X57725Y-43275D02*
X57000Y-44000D01*
X51575Y-31200D02*
X51225Y-31200D01*
X51225Y-31200D02*
X50100Y-32325D01*
X50300Y-37500D02*
X55900Y-37500D01*
X58150Y-39750D02*
X58150Y-43850D01*
X55900Y-37500D02*
X58150Y-39750D01*
X58150Y-43850D02*
X57000Y-45000D01*
X52800Y-30550D02*
X52800Y-30600D01*
X51229Y-31200D02*
X50100Y-32329D01*
X52200Y-31200D02*
X51575Y-31200D01*
X51575Y-31200D02*
X51229Y-31200D01*
X52800Y-30600D02*
X52200Y-31200D01*
X49100Y-32329D02*
X49100Y-31250D01*
X49100Y-31250D02*
X49800Y-30550D01*
X48600Y-32600D02*
X48600Y-32825D01*
X48600Y-32825D02*
X49100Y-33325D01*
X43700Y-37300D02*
X49000Y-37300D01*
X49000Y-37300D02*
X49100Y-37400D01*
X48600Y-32600D02*
X48600Y-30750D01*
X48600Y-30750D02*
X48800Y-30550D01*
X42800Y-38200D02*
X42800Y-42000D01*
X42800Y-42000D02*
X40300Y-44500D01*
X42800Y-38200D02*
X43700Y-37300D01*
X43900Y-37700D02*
X48400Y-37700D01*
X48400Y-37700D02*
X48600Y-37900D01*
X43200Y-38400D02*
X43200Y-42600D01*
X43200Y-38400D02*
X43900Y-37700D01*
X43200Y-42600D02*
X40300Y-45500D01*
X48100Y-32329D02*
X48100Y-30850D01*
X48100Y-30850D02*
X47800Y-30550D01*
X66600Y-35700D02*
X65200Y-37100D01*
X61597Y-46602D02*
X60200Y-48000D01*
X61597Y-46602D02*
X61597Y-41697D01*
X61597Y-41697D02*
X61100Y-41200D01*
X60200Y-48000D02*
X57900Y-48000D01*
X66600Y-35700D02*
X66600Y-31350D01*
X66600Y-31350D02*
X65800Y-30550D01*
X65600Y-35900D02*
X65600Y-31350D01*
X65600Y-31350D02*
X64800Y-30550D01*
X61200Y-42100D02*
X61200Y-46400D01*
X61200Y-46400D02*
X60100Y-47500D01*
X61200Y-42100D02*
X60300Y-41200D01*
X59200Y-47500D02*
X60100Y-47500D01*
X64600Y-36100D02*
X64600Y-31350D01*
X64600Y-31350D02*
X63800Y-30550D01*
X62000Y-41300D02*
X62000Y-46800D01*
X62000Y-46800D02*
X60300Y-48500D01*
X59100Y-48500D02*
X60300Y-48500D01*
X62000Y-41300D02*
X60700Y-40000D01*
X56600Y-53025D02*
X56600Y-52825D01*
X56600Y-52825D02*
X56100Y-52325D01*
X55800Y-55100D02*
X56600Y-54300D01*
X56600Y-54300D02*
X56600Y-53025D01*
X54800Y-55100D02*
X54800Y-54600D01*
X54800Y-54600D02*
X56100Y-53300D01*
X58600Y-53100D02*
X58600Y-52825D01*
X58600Y-52825D02*
X58100Y-52325D01*
X59800Y-55100D02*
X58600Y-53900D01*
X58600Y-53900D02*
X58600Y-53100D01*
X58800Y-55100D02*
X58800Y-55000D01*
X58100Y-54300D02*
X58100Y-53300D01*
X58800Y-55000D02*
X58100Y-54300D01*
X63600Y-40000D02*
X63600Y-45600D01*
X63600Y-45600D02*
X65600Y-47600D01*
X65600Y-47600D02*
X66050Y-48050D01*
X70050Y-48050D02*
X70100Y-48000D01*
X66050Y-48050D02*
X70050Y-48050D01*
G54D29*
X70100Y-47500D02*
X70100Y-48000D01*
X70100Y-48000D02*
X70100Y-48600D01*
G54D26*
X63600Y-40000D02*
X61350Y-37750D01*
G54D29*
X70550Y-48600D02*
X70100Y-48600D01*
X70100Y-48600D02*
X69650Y-48600D01*
X70550Y-47500D02*
X70100Y-47500D01*
X70100Y-47500D02*
X69650Y-47500D01*
G54D26*
X60600Y-53250D02*
X60600Y-53600D01*
X60900Y-53900D02*
X61400Y-53900D01*
X60600Y-53600D02*
X60900Y-53900D01*
X60600Y-53250D02*
X60600Y-51600D01*
X60600Y-51600D02*
X59898Y-50898D01*
X59801Y-50898D02*
X59898Y-50898D01*
X59799Y-50897D02*
X52600Y-50900D01*
X63800Y-55100D02*
X62600Y-53900D01*
X62600Y-53900D02*
X61400Y-53900D01*
X59801Y-50898D02*
X59799Y-50897D01*
X59800Y-30550D02*
X59750Y-30550D01*
X59750Y-30550D02*
X58600Y-31700D01*
X58600Y-31700D02*
X58000Y-31700D01*
X58000Y-31700D02*
X57600Y-32100D01*
X57600Y-32100D02*
X57600Y-33700D01*
X57600Y-33700D02*
X57200Y-34100D01*
X52600Y-50900D02*
X50100Y-50900D01*
X50100Y-50900D02*
X49100Y-51900D01*
X49100Y-51900D02*
X49100Y-52300D01*
X60800Y-42500D02*
X60800Y-46200D01*
X60000Y-47000D02*
X58100Y-47000D01*
X60800Y-46200D02*
X60000Y-47000D01*
X59800Y-41500D02*
X59800Y-38000D01*
X59800Y-38000D02*
X58300Y-36500D01*
X56600Y-48500D02*
X58100Y-47000D01*
X56600Y-48500D02*
X55000Y-48500D01*
X60800Y-42500D02*
X59800Y-41500D01*
X51300Y-51400D02*
X50200Y-51400D01*
X50200Y-51400D02*
X49600Y-52000D01*
X51300Y-51400D02*
X59200Y-51400D01*
X60400Y-54400D02*
X62200Y-54400D01*
X59600Y-53600D02*
X60400Y-54400D01*
X59600Y-51800D02*
X59600Y-53600D01*
X59200Y-51400D02*
X59600Y-51800D01*
X49600Y-52800D02*
X49100Y-53300D01*
X49600Y-52000D02*
X49600Y-52800D01*
X54700Y-48000D02*
X56500Y-48000D01*
X60400Y-42700D02*
X60400Y-46000D01*
X59400Y-38500D02*
X57400Y-36500D01*
X59400Y-41700D02*
X59400Y-38500D01*
X59400Y-41700D02*
X60400Y-42700D01*
X57900Y-46600D02*
X56500Y-48000D01*
X60400Y-46000D02*
X59800Y-46600D01*
X59800Y-46600D02*
X57900Y-46600D01*
X62800Y-55100D02*
X62800Y-55000D01*
X62800Y-55000D02*
X62200Y-54400D01*
X51600Y-53100D02*
X51325Y-52825D01*
X55600Y-33600D02*
X55100Y-34100D01*
X56000Y-31700D02*
X56650Y-31700D01*
X56650Y-31700D02*
X57800Y-30550D01*
X55600Y-33600D02*
X55600Y-32100D01*
X55600Y-32100D02*
X56000Y-31700D01*
X50100Y-52270D02*
X50100Y-52300D01*
X58600Y-39500D02*
X58600Y-42100D01*
X58600Y-42100D02*
X59300Y-42800D01*
X58700Y-46200D02*
X57700Y-46200D01*
X59300Y-45600D02*
X58700Y-46200D01*
X59300Y-42800D02*
X59300Y-45600D01*
X57700Y-46200D02*
X56400Y-47500D01*
X58600Y-39500D02*
X55600Y-36500D01*
X56400Y-47500D02*
X54400Y-47500D01*
X51800Y-55100D02*
X51800Y-55000D01*
X51800Y-55000D02*
X51600Y-54800D01*
X51600Y-54800D02*
X51600Y-53100D01*
X51325Y-52825D02*
X51050Y-52825D01*
X51050Y-52825D02*
X50625Y-52825D01*
X50625Y-52825D02*
X50100Y-52300D01*
X63200Y-40400D02*
X63200Y-47400D01*
X63200Y-47400D02*
X65600Y-49800D01*
X63200Y-40400D02*
X60550Y-37750D01*
X65600Y-49800D02*
X66075Y-50275D01*
X70025Y-50275D02*
X70100Y-50350D01*
X66075Y-50275D02*
X70025Y-50275D01*
G54D29*
X70100Y-50800D02*
X70100Y-50350D01*
X70100Y-50350D02*
X70100Y-49700D01*
X70550Y-50800D02*
X70100Y-50800D01*
X70100Y-50800D02*
X69650Y-50800D01*
X70550Y-49700D02*
X70100Y-49700D01*
X70100Y-49700D02*
X69650Y-49700D01*
G54D26*
X64400Y-42000D02*
X64400Y-39200D01*
X64400Y-39200D02*
X61000Y-35800D01*
X64400Y-42000D02*
X65600Y-43200D01*
X65600Y-43200D02*
X66050Y-43650D01*
X69950Y-43650D02*
X70100Y-43500D01*
X66050Y-43650D02*
X69950Y-43650D01*
G54D29*
X70100Y-43100D02*
X70100Y-43500D01*
X70100Y-43500D02*
X70100Y-44200D01*
X70550Y-44200D02*
X70100Y-44200D01*
X70100Y-44200D02*
X69650Y-44200D01*
X70550Y-43100D02*
X70100Y-43100D01*
X70100Y-43100D02*
X69650Y-43100D01*
G54D26*
X61600Y-35600D02*
X61600Y-35000D01*
X64800Y-40200D02*
X64800Y-38800D01*
X64800Y-38800D02*
X61600Y-35600D01*
X64800Y-40200D02*
X65600Y-41000D01*
X65600Y-41000D02*
X66050Y-41450D01*
X70050Y-41450D02*
X70100Y-41400D01*
X66050Y-41450D02*
X70050Y-41450D01*
G54D29*
X70100Y-40900D02*
X70100Y-41400D01*
X70100Y-41400D02*
X70100Y-42000D01*
X70550Y-42000D02*
X70100Y-42000D01*
X70100Y-42000D02*
X69650Y-42000D01*
X70550Y-40900D02*
X70100Y-40900D01*
X70100Y-40900D02*
X69650Y-40900D01*
G54D26*
X43800Y-55100D02*
X43800Y-55000D01*
X44600Y-54200D02*
X44600Y-53050D01*
X43800Y-55000D02*
X44600Y-54200D01*
X44600Y-53050D02*
X44600Y-52825D01*
X44600Y-52825D02*
X44100Y-52325D01*
X44600Y-52800D02*
X44100Y-52300D01*
X44600Y-53050D02*
X44600Y-52800D01*
X42800Y-55100D02*
X42800Y-54625D01*
X42800Y-54625D02*
X44100Y-53325D01*
X46800Y-55100D02*
X46800Y-55025D01*
X46800Y-55025D02*
X45100Y-53325D01*
X45600Y-52350D02*
X45600Y-52825D01*
X45600Y-52825D02*
X45100Y-53325D01*
X45600Y-51800D02*
X46800Y-50600D01*
X45600Y-52350D02*
X45600Y-51800D01*
X50800Y-55100D02*
X50800Y-53600D01*
X50800Y-53600D02*
X51100Y-53300D01*
X63800Y-51200D02*
X64600Y-52000D01*
X65000Y-53900D02*
X66600Y-53900D01*
X64600Y-53500D02*
X65000Y-53900D01*
X64600Y-52000D02*
X64600Y-53500D01*
X54300Y-49900D02*
X60400Y-49900D01*
X67800Y-55100D02*
X66600Y-53900D01*
X61700Y-51200D02*
X63800Y-51200D01*
X60400Y-49900D02*
X61700Y-51200D01*
X61500Y-51600D02*
X63300Y-51600D01*
X64400Y-54400D02*
X66100Y-54400D01*
X63600Y-53600D02*
X64400Y-54400D01*
X63600Y-51900D02*
X63600Y-53600D01*
X63300Y-51600D02*
X63600Y-51900D01*
X54700Y-50400D02*
X60300Y-50400D01*
X66800Y-55100D02*
X66100Y-54400D01*
X60300Y-50400D02*
X61500Y-51600D01*
X47600Y-32675D02*
X47600Y-32825D01*
X47600Y-32825D02*
X48100Y-33325D01*
X43800Y-30550D02*
X43850Y-30550D01*
X47600Y-32000D02*
X47600Y-32675D01*
X46800Y-31200D02*
X47600Y-32000D01*
X44500Y-31200D02*
X46800Y-31200D01*
X43850Y-30550D02*
X44500Y-31200D01*
X43700Y-31700D02*
X46125Y-31700D01*
X46125Y-31700D02*
X46470Y-31700D01*
X42800Y-30800D02*
X43700Y-31700D01*
X46470Y-31700D02*
X47100Y-32329D01*
X42800Y-30550D02*
X42800Y-30800D01*
X41300Y-34500D02*
X40300Y-35500D01*
X41300Y-34500D02*
X53600Y-34500D01*
X49899Y-34895D02*
X51495Y-34895D01*
X51495Y-34895D02*
X51600Y-35000D01*
X42700Y-34903D02*
X41896Y-34903D01*
X41896Y-34903D02*
X40300Y-36500D01*
X49899Y-34895D02*
X42700Y-34903D01*
X51100Y-35300D02*
X51300Y-35500D01*
X52000Y-35500D02*
X52100Y-35400D01*
X51300Y-35500D02*
X52000Y-35500D01*
X42500Y-35300D02*
X40300Y-37500D01*
X51100Y-35300D02*
X42500Y-35300D01*
X63600Y-35700D02*
X63900Y-36000D01*
X63600Y-35700D02*
X63600Y-31350D01*
X63600Y-31350D02*
X62800Y-30550D01*
X62400Y-40900D02*
X62400Y-47100D01*
X62400Y-47100D02*
X61400Y-48100D01*
X60700Y-39200D02*
X62400Y-40900D01*
X59800Y-45800D02*
X59800Y-42700D01*
X59000Y-39000D02*
X56500Y-36500D01*
X59000Y-41900D02*
X59000Y-39000D01*
X59800Y-42700D02*
X59000Y-41900D01*
X61000Y-49400D02*
X49650Y-49400D01*
X49650Y-49400D02*
X48450Y-48200D01*
X42300Y-45900D02*
X47550Y-45900D01*
X47550Y-45900D02*
X48450Y-46800D01*
X48450Y-48200D02*
X48450Y-46800D01*
X62100Y-49000D02*
X49850Y-49000D01*
X49850Y-49000D02*
X48850Y-48000D01*
X41650Y-45400D02*
X47650Y-45400D01*
X47650Y-45400D02*
X48850Y-46600D01*
X48850Y-48000D02*
X48850Y-46600D01*
X53600Y-33700D02*
X53600Y-32829D01*
X53600Y-32829D02*
X54100Y-32329D01*
X40700Y-34100D02*
X53200Y-34100D01*
X53200Y-34100D02*
X53600Y-33700D01*
X40700Y-34100D02*
X40300Y-34500D01*
G54D27*
X39300Y-35500D02*
X39300Y-33800D01*
X42050Y-52050D02*
X41550Y-52050D01*
X41400Y-51250D02*
X40950Y-50800D01*
X41400Y-52200D02*
X41400Y-51250D01*
X41550Y-52050D02*
X41400Y-52200D01*
G54D26*
X42050Y-52050D02*
X42050Y-52300D01*
X42050Y-52300D02*
X41400Y-52950D01*
G54D27*
X44450Y-50500D02*
X42950Y-50500D01*
X42950Y-50500D02*
X42050Y-51400D01*
X40050Y-50800D02*
X40050Y-50500D01*
X40050Y-50500D02*
X39300Y-49750D01*
X40950Y-50800D02*
X40950Y-50900D01*
X42050Y-52050D02*
X42050Y-52500D01*
X40700Y-51450D02*
X40050Y-50800D01*
X40700Y-52450D02*
X40700Y-51450D01*
X41000Y-52750D02*
X40700Y-52450D01*
X41800Y-52750D02*
X41000Y-52750D01*
X42050Y-52500D02*
X41800Y-52750D01*
X42050Y-52050D02*
X42050Y-51400D01*
X42050Y-51400D02*
X42050Y-50800D01*
X44450Y-50500D02*
X42350Y-50500D01*
X42050Y-50800D02*
X41400Y-50800D01*
X41400Y-50800D02*
X40950Y-50800D01*
X42350Y-50500D02*
X42050Y-50800D01*
X38750Y-50300D02*
X39250Y-50800D01*
X39250Y-50800D02*
X40050Y-50800D01*
X40050Y-50800D02*
X40950Y-50800D01*
G54D26*
X39300Y-33600D02*
X38800Y-33750D01*
X38800Y-33750D02*
X39000Y-34250D01*
X39000Y-34250D02*
X39600Y-34250D01*
X39600Y-34250D02*
X39800Y-33750D01*
X39800Y-33750D02*
X39350Y-33650D01*
X39350Y-33650D02*
X39300Y-33600D01*
G54D27*
X39300Y-48500D02*
X39300Y-49750D01*
X39300Y-49750D02*
X38750Y-50300D01*
X39300Y-36500D02*
X39300Y-35500D01*
X39300Y-41500D02*
X39300Y-40500D01*
X39300Y-40500D02*
X39300Y-39500D01*
X39300Y-39500D02*
X39300Y-38500D01*
X39300Y-38500D02*
X39300Y-37500D01*
X39300Y-37500D02*
X39300Y-36500D01*
X39300Y-44500D02*
X39300Y-43500D01*
X39300Y-43500D02*
X39300Y-42500D01*
X39300Y-42500D02*
X39300Y-41500D01*
X39300Y-45500D02*
X39300Y-44500D01*
X39300Y-46500D02*
X39300Y-45500D01*
X39300Y-47500D02*
X39300Y-46500D01*
X39300Y-48500D02*
X39300Y-47500D01*
G54D10*
G36*
X76005Y-54842D02*
X75973Y-55161D01*
X75883Y-55461D01*
X75736Y-55737D01*
X75538Y-55980D01*
X75524Y-55992D01*
X75524Y-54739D01*
X75524Y-30689D01*
X75481Y-30473D01*
X75397Y-30269D01*
X75275Y-30086D01*
X75120Y-29929D01*
X74937Y-29806D01*
X74734Y-29720D01*
X74518Y-29676D01*
X74297Y-29674D01*
X74081Y-29716D01*
X73876Y-29798D01*
X73692Y-29919D01*
X73534Y-30073D01*
X73410Y-30255D01*
X73323Y-30458D01*
X73277Y-30674D01*
X73274Y-30894D01*
X73314Y-31111D01*
X73395Y-31316D01*
X73514Y-31501D01*
X73667Y-31660D01*
X73848Y-31786D01*
X74050Y-31874D01*
X74266Y-31921D01*
X74486Y-31926D01*
X74703Y-31888D01*
X74909Y-31808D01*
X75095Y-31690D01*
X75255Y-31538D01*
X75382Y-31358D01*
X75471Y-31156D01*
X75520Y-30941D01*
X75524Y-30689D01*
X75524Y-54739D01*
X75481Y-54523D01*
X75440Y-54423D01*
X75440Y-38683D01*
X74866Y-38110D01*
X73451Y-38110D01*
X73871Y-37690D01*
X74713Y-37690D01*
X74740Y-37684D01*
X74766Y-37674D01*
X74788Y-37659D01*
X74808Y-37639D01*
X74823Y-37616D01*
X74834Y-37591D01*
X74839Y-37564D01*
X74840Y-37537D01*
X74840Y-36766D01*
X74840Y-32987D01*
X74815Y-32864D01*
X74767Y-32748D01*
X74698Y-32643D01*
X74609Y-32554D01*
X74505Y-32484D01*
X74390Y-32435D01*
X74267Y-32410D01*
X74141Y-32409D01*
X74018Y-32433D01*
X73902Y-32480D01*
X73797Y-32548D01*
X73707Y-32636D01*
X73636Y-32740D01*
X73587Y-32855D01*
X73560Y-32978D01*
X73559Y-33103D01*
X73581Y-33227D01*
X73628Y-33343D01*
X73696Y-33449D01*
X73783Y-33539D01*
X73886Y-33611D01*
X74001Y-33661D01*
X74123Y-33688D01*
X74249Y-33691D01*
X74372Y-33669D01*
X74489Y-33624D01*
X74595Y-33556D01*
X74686Y-33470D01*
X74759Y-33367D01*
X74810Y-33252D01*
X74838Y-33130D01*
X74840Y-32987D01*
X74840Y-36766D01*
X74840Y-36536D01*
X74834Y-36509D01*
X74824Y-36483D01*
X74809Y-36461D01*
X74789Y-36441D01*
X74766Y-36426D01*
X74741Y-36415D01*
X74714Y-36410D01*
X74687Y-36409D01*
X73686Y-36409D01*
X73659Y-36415D01*
X73633Y-36425D01*
X73611Y-36440D01*
X73591Y-36460D01*
X73576Y-36483D01*
X73565Y-36508D01*
X73560Y-36535D01*
X73559Y-36562D01*
X73559Y-37378D01*
X72828Y-38110D01*
X69990Y-38110D01*
X69990Y-35901D01*
X69971Y-35807D01*
X69940Y-35731D01*
X69940Y-30937D01*
X69915Y-30814D01*
X69867Y-30698D01*
X69798Y-30593D01*
X69709Y-30504D01*
X69605Y-30434D01*
X69490Y-30385D01*
X69367Y-30360D01*
X69241Y-30359D01*
X69118Y-30383D01*
X69002Y-30430D01*
X68897Y-30498D01*
X68807Y-30586D01*
X68736Y-30690D01*
X68687Y-30805D01*
X68660Y-30928D01*
X68659Y-31053D01*
X68681Y-31177D01*
X68728Y-31293D01*
X68796Y-31399D01*
X68883Y-31489D01*
X68986Y-31561D01*
X69101Y-31611D01*
X69223Y-31638D01*
X69349Y-31641D01*
X69472Y-31619D01*
X69589Y-31574D01*
X69695Y-31506D01*
X69786Y-31420D01*
X69859Y-31317D01*
X69910Y-31202D01*
X69938Y-31080D01*
X69940Y-30937D01*
X69940Y-35731D01*
X69934Y-35718D01*
X69881Y-35638D01*
X69813Y-35570D01*
X69734Y-35516D01*
X69645Y-35479D01*
X69551Y-35460D01*
X69455Y-35459D01*
X69360Y-35477D01*
X69274Y-35512D01*
X69274Y-33153D01*
X69256Y-33062D01*
X69221Y-32976D01*
X69169Y-32898D01*
X69104Y-32832D01*
X69026Y-32780D01*
X68941Y-32744D01*
X68849Y-32725D01*
X68756Y-32725D01*
X68665Y-32742D01*
X68579Y-32777D01*
X68501Y-32828D01*
X68434Y-32893D01*
X68382Y-32970D01*
X68345Y-33055D01*
X68326Y-33146D01*
X68324Y-33239D01*
X68341Y-33331D01*
X68375Y-33418D01*
X68426Y-33496D01*
X68490Y-33563D01*
X68567Y-33616D01*
X68652Y-33653D01*
X68743Y-33673D01*
X68836Y-33675D01*
X68928Y-33659D01*
X69015Y-33625D01*
X69093Y-33575D01*
X69161Y-33511D01*
X69214Y-33435D01*
X69252Y-33350D01*
X69273Y-33259D01*
X69274Y-33153D01*
X69274Y-35512D01*
X69271Y-35513D01*
X69191Y-35566D01*
X69122Y-35633D01*
X69068Y-35712D01*
X69030Y-35801D01*
X69010Y-35895D01*
X69009Y-35991D01*
X69026Y-36085D01*
X69062Y-36175D01*
X69114Y-36255D01*
X69180Y-36324D01*
X69259Y-36379D01*
X69347Y-36418D01*
X69441Y-36438D01*
X69537Y-36440D01*
X69632Y-36424D01*
X69721Y-36389D01*
X69803Y-36337D01*
X69872Y-36271D01*
X69928Y-36193D01*
X69967Y-36105D01*
X69988Y-36011D01*
X69990Y-35901D01*
X69990Y-38110D01*
X68215Y-38110D01*
X68215Y-35859D01*
X68199Y-35779D01*
X68168Y-35704D01*
X68123Y-35636D01*
X68065Y-35578D01*
X67998Y-35533D01*
X67923Y-35501D01*
X67843Y-35485D01*
X67762Y-35484D01*
X67682Y-35499D01*
X67606Y-35530D01*
X67538Y-35575D01*
X67480Y-35631D01*
X67434Y-35699D01*
X67402Y-35773D01*
X67385Y-35853D01*
X67384Y-35934D01*
X67399Y-36014D01*
X67429Y-36090D01*
X67473Y-36159D01*
X67529Y-36217D01*
X67596Y-36264D01*
X67671Y-36296D01*
X67750Y-36314D01*
X67831Y-36315D01*
X67912Y-36301D01*
X67988Y-36272D01*
X68056Y-36228D01*
X68115Y-36172D01*
X68162Y-36105D01*
X68195Y-36031D01*
X68213Y-35952D01*
X68215Y-35859D01*
X68215Y-38110D01*
X65866Y-38110D01*
X65515Y-37758D01*
X65515Y-37096D01*
X66755Y-35855D01*
X66768Y-35839D01*
X66781Y-35824D01*
X66782Y-35823D01*
X66782Y-35822D01*
X66792Y-35804D01*
X66802Y-35786D01*
X66802Y-35785D01*
X66803Y-35784D01*
X66809Y-35765D01*
X66815Y-35745D01*
X66815Y-35744D01*
X66815Y-35743D01*
X66817Y-35723D01*
X66819Y-35703D01*
X66819Y-35700D01*
X66819Y-35700D01*
X66819Y-35700D01*
X66820Y-35700D01*
X66820Y-34236D01*
X67540Y-33516D01*
X67540Y-31983D01*
X66776Y-31219D01*
X66770Y-31212D01*
X66757Y-31196D01*
X66756Y-31195D01*
X66756Y-31194D01*
X66756Y-31194D01*
X66755Y-31194D01*
X66240Y-30678D01*
X66240Y-30236D01*
X66234Y-30209D01*
X66224Y-30183D01*
X66209Y-30161D01*
X66189Y-30141D01*
X66166Y-30126D01*
X66141Y-30115D01*
X66114Y-30110D01*
X66087Y-30109D01*
X65486Y-30109D01*
X65486Y-30110D01*
X64804Y-30110D01*
X64759Y-30109D01*
X64758Y-30110D01*
X63804Y-30110D01*
X63759Y-30109D01*
X63758Y-30110D01*
X62804Y-30110D01*
X62759Y-30109D01*
X62758Y-30110D01*
X61804Y-30110D01*
X61759Y-30109D01*
X61675Y-30125D01*
X61595Y-30158D01*
X61522Y-30205D01*
X61461Y-30265D01*
X61412Y-30337D01*
X61378Y-30416D01*
X61360Y-30500D01*
X61359Y-30586D01*
X61374Y-30671D01*
X61402Y-30741D01*
X61083Y-31060D01*
X60466Y-31060D01*
X60240Y-30833D01*
X60240Y-30236D01*
X60234Y-30209D01*
X60224Y-30183D01*
X60209Y-30161D01*
X60189Y-30141D01*
X60166Y-30126D01*
X60141Y-30115D01*
X60114Y-30110D01*
X60087Y-30109D01*
X59486Y-30109D01*
X59486Y-30110D01*
X58804Y-30110D01*
X58759Y-30109D01*
X58758Y-30110D01*
X57804Y-30110D01*
X57759Y-30109D01*
X57758Y-30110D01*
X56804Y-30110D01*
X56759Y-30109D01*
X56758Y-30110D01*
X55804Y-30110D01*
X55759Y-30109D01*
X55675Y-30125D01*
X55595Y-30158D01*
X55522Y-30205D01*
X55461Y-30265D01*
X55412Y-30337D01*
X55378Y-30416D01*
X55360Y-30500D01*
X55359Y-30586D01*
X55374Y-30671D01*
X55402Y-30741D01*
X55083Y-31060D01*
X54466Y-31060D01*
X54240Y-30833D01*
X54240Y-30236D01*
X54234Y-30209D01*
X54224Y-30183D01*
X54209Y-30161D01*
X54189Y-30141D01*
X54166Y-30126D01*
X54141Y-30115D01*
X54114Y-30110D01*
X54087Y-30109D01*
X53486Y-30109D01*
X53486Y-30110D01*
X52804Y-30110D01*
X52759Y-30109D01*
X52758Y-30110D01*
X51804Y-30110D01*
X51759Y-30109D01*
X51675Y-30125D01*
X51595Y-30158D01*
X51522Y-30205D01*
X51461Y-30265D01*
X51412Y-30337D01*
X51378Y-30416D01*
X51360Y-30500D01*
X51359Y-30586D01*
X51374Y-30671D01*
X51402Y-30741D01*
X51149Y-30993D01*
X51143Y-30995D01*
X51142Y-30996D01*
X51141Y-30996D01*
X51123Y-31006D01*
X51105Y-31015D01*
X51104Y-31016D01*
X51103Y-31016D01*
X51087Y-31029D01*
X51071Y-31042D01*
X51070Y-31043D01*
X51069Y-31043D01*
X51069Y-31043D01*
X51069Y-31044D01*
X51053Y-31060D01*
X50466Y-31060D01*
X50240Y-30833D01*
X50240Y-30236D01*
X50234Y-30209D01*
X50224Y-30183D01*
X50209Y-30161D01*
X50189Y-30141D01*
X50166Y-30126D01*
X50141Y-30115D01*
X50114Y-30110D01*
X50087Y-30109D01*
X49486Y-30109D01*
X49486Y-30110D01*
X48804Y-30110D01*
X48759Y-30109D01*
X48758Y-30110D01*
X47804Y-30110D01*
X47759Y-30109D01*
X47758Y-30110D01*
X46804Y-30110D01*
X46759Y-30109D01*
X46758Y-30110D01*
X45804Y-30110D01*
X45759Y-30109D01*
X45758Y-30110D01*
X45735Y-30110D01*
X45735Y-30114D01*
X45675Y-30125D01*
X45595Y-30158D01*
X45522Y-30205D01*
X45461Y-30265D01*
X45412Y-30337D01*
X45378Y-30416D01*
X45360Y-30500D01*
X45359Y-30586D01*
X45374Y-30671D01*
X45402Y-30741D01*
X45163Y-30980D01*
X44591Y-30980D01*
X44240Y-30628D01*
X44240Y-30236D01*
X44234Y-30209D01*
X44224Y-30183D01*
X44209Y-30161D01*
X44189Y-30141D01*
X44166Y-30126D01*
X44141Y-30115D01*
X44114Y-30110D01*
X44087Y-30109D01*
X43486Y-30109D01*
X43486Y-30110D01*
X42804Y-30110D01*
X42759Y-30109D01*
X42675Y-30125D01*
X42595Y-30158D01*
X42522Y-30205D01*
X42461Y-30265D01*
X42412Y-30337D01*
X42378Y-30416D01*
X42360Y-30500D01*
X42359Y-30586D01*
X42374Y-30671D01*
X42406Y-30752D01*
X42453Y-30824D01*
X42513Y-30886D01*
X42584Y-30935D01*
X42656Y-30967D01*
X42685Y-30996D01*
X42685Y-32188D01*
X42683Y-32192D01*
X42665Y-32276D01*
X42664Y-32361D01*
X42679Y-32445D01*
X42685Y-32459D01*
X42685Y-33188D01*
X42683Y-33192D01*
X42665Y-33276D01*
X42664Y-33328D01*
X42240Y-33753D01*
X42240Y-30506D01*
X42223Y-30422D01*
X42190Y-30342D01*
X42142Y-30270D01*
X42081Y-30209D01*
X42010Y-30161D01*
X41930Y-30127D01*
X41846Y-30110D01*
X41759Y-30109D01*
X41675Y-30125D01*
X41595Y-30158D01*
X41522Y-30205D01*
X41461Y-30265D01*
X41412Y-30337D01*
X41378Y-30416D01*
X41360Y-30500D01*
X41359Y-30586D01*
X41374Y-30671D01*
X41406Y-30752D01*
X41453Y-30824D01*
X41513Y-30886D01*
X41584Y-30935D01*
X41663Y-30970D01*
X41747Y-30989D01*
X41833Y-30990D01*
X41918Y-30975D01*
X41999Y-30944D01*
X42072Y-30898D01*
X42134Y-30838D01*
X42184Y-30768D01*
X42219Y-30689D01*
X42238Y-30605D01*
X42240Y-30506D01*
X42240Y-33753D01*
X42113Y-33880D01*
X40700Y-33880D01*
X40679Y-33881D01*
X40659Y-33883D01*
X40658Y-33884D01*
X40657Y-33884D01*
X40637Y-33890D01*
X40618Y-33895D01*
X40617Y-33896D01*
X40616Y-33896D01*
X40598Y-33906D01*
X40580Y-33915D01*
X40579Y-33916D01*
X40578Y-33916D01*
X40562Y-33929D01*
X40546Y-33942D01*
X40545Y-33943D01*
X40544Y-33943D01*
X40544Y-33943D01*
X40544Y-33944D01*
X40410Y-34078D01*
X40345Y-34065D01*
X40260Y-34064D01*
X40176Y-34080D01*
X40097Y-34112D01*
X40025Y-34159D01*
X39964Y-34218D01*
X39916Y-34289D01*
X39883Y-34367D01*
X39865Y-34451D01*
X39864Y-34536D01*
X39879Y-34620D01*
X39910Y-34697D01*
X39910Y-35304D01*
X39883Y-35367D01*
X39865Y-35451D01*
X39864Y-35536D01*
X39879Y-35620D01*
X39910Y-35697D01*
X39910Y-36304D01*
X39883Y-36367D01*
X39865Y-36451D01*
X39864Y-36536D01*
X39879Y-36620D01*
X39910Y-36697D01*
X39910Y-37304D01*
X39883Y-37367D01*
X39865Y-37451D01*
X39864Y-37536D01*
X39879Y-37620D01*
X39910Y-37697D01*
X39910Y-38304D01*
X39883Y-38367D01*
X39865Y-38451D01*
X39864Y-38536D01*
X39879Y-38620D01*
X39910Y-38697D01*
X39910Y-39304D01*
X39883Y-39367D01*
X39865Y-39451D01*
X39864Y-39536D01*
X39879Y-39620D01*
X39910Y-39697D01*
X39910Y-40304D01*
X39883Y-40367D01*
X39865Y-40451D01*
X39864Y-40536D01*
X39879Y-40620D01*
X39910Y-40697D01*
X39910Y-41304D01*
X39883Y-41367D01*
X39865Y-41451D01*
X39864Y-41536D01*
X39879Y-41620D01*
X39910Y-41697D01*
X39910Y-42304D01*
X39883Y-42367D01*
X39865Y-42451D01*
X39864Y-42536D01*
X39879Y-42620D01*
X39910Y-42697D01*
X39910Y-43304D01*
X39883Y-43367D01*
X39865Y-43451D01*
X39864Y-43536D01*
X39879Y-43620D01*
X39910Y-43697D01*
X39910Y-44304D01*
X39883Y-44367D01*
X39865Y-44451D01*
X39864Y-44536D01*
X39879Y-44620D01*
X39910Y-44697D01*
X39910Y-45304D01*
X39883Y-45367D01*
X39865Y-45451D01*
X39864Y-45536D01*
X39879Y-45620D01*
X39910Y-45699D01*
X39957Y-45771D01*
X40016Y-45833D01*
X40086Y-45881D01*
X40164Y-45915D01*
X40248Y-45934D01*
X40333Y-45936D01*
X40417Y-45921D01*
X40497Y-45890D01*
X40569Y-45844D01*
X40631Y-45785D01*
X40680Y-45716D01*
X40715Y-45638D01*
X40733Y-45554D01*
X40735Y-45457D01*
X40721Y-45389D01*
X42571Y-43540D01*
X43783Y-43540D01*
X43846Y-43540D01*
X52283Y-43540D01*
X52460Y-43716D01*
X52460Y-45216D01*
X53783Y-46540D01*
X56216Y-46540D01*
X57540Y-45216D01*
X57540Y-44771D01*
X58305Y-44005D01*
X58318Y-43989D01*
X58331Y-43974D01*
X58332Y-43973D01*
X58332Y-43972D01*
X58342Y-43954D01*
X58352Y-43936D01*
X58352Y-43935D01*
X58353Y-43934D01*
X58359Y-43915D01*
X58365Y-43895D01*
X58365Y-43894D01*
X58365Y-43893D01*
X58367Y-43873D01*
X58369Y-43853D01*
X58369Y-43850D01*
X58369Y-43850D01*
X58369Y-43850D01*
X58370Y-43850D01*
X58370Y-42340D01*
X58528Y-42340D01*
X59080Y-42891D01*
X59080Y-45508D01*
X58608Y-45980D01*
X57700Y-45980D01*
X57679Y-45981D01*
X57659Y-45983D01*
X57658Y-45984D01*
X57657Y-45984D01*
X57637Y-45990D01*
X57618Y-45995D01*
X57617Y-45996D01*
X57616Y-45996D01*
X57598Y-46006D01*
X57580Y-46015D01*
X57579Y-46016D01*
X57578Y-46016D01*
X57562Y-46029D01*
X57546Y-46042D01*
X57545Y-46043D01*
X57544Y-46043D01*
X57544Y-46043D01*
X57544Y-46044D01*
X56308Y-47280D01*
X54586Y-47280D01*
X54584Y-47277D01*
X54537Y-47245D01*
X54485Y-47224D01*
X54430Y-47212D01*
X54373Y-47212D01*
X54318Y-47222D01*
X54266Y-47243D01*
X54218Y-47274D01*
X54178Y-47314D01*
X54146Y-47360D01*
X54124Y-47412D01*
X54112Y-47467D01*
X54112Y-47510D01*
X54110Y-47510D01*
X54110Y-48583D01*
X53913Y-48780D01*
X53322Y-48780D01*
X53322Y-46859D01*
X53306Y-46779D01*
X53275Y-46704D01*
X53230Y-46636D01*
X53172Y-46578D01*
X53105Y-46533D01*
X53030Y-46501D01*
X52950Y-46485D01*
X52869Y-46484D01*
X52789Y-46499D01*
X52713Y-46530D01*
X52645Y-46575D01*
X52587Y-46631D01*
X52541Y-46699D01*
X52509Y-46773D01*
X52492Y-46853D01*
X52491Y-46934D01*
X52506Y-47014D01*
X52536Y-47090D01*
X52580Y-47159D01*
X52636Y-47217D01*
X52703Y-47264D01*
X52778Y-47296D01*
X52857Y-47314D01*
X52939Y-47315D01*
X53019Y-47301D01*
X53095Y-47272D01*
X53163Y-47228D01*
X53222Y-47172D01*
X53269Y-47105D01*
X53302Y-47031D01*
X53320Y-46952D01*
X53322Y-46859D01*
X53322Y-48780D01*
X52615Y-48780D01*
X52615Y-47566D01*
X52599Y-47486D01*
X52568Y-47411D01*
X52523Y-47343D01*
X52465Y-47285D01*
X52398Y-47240D01*
X52323Y-47208D01*
X52243Y-47192D01*
X52162Y-47191D01*
X52082Y-47207D01*
X52021Y-47231D01*
X52021Y-46886D01*
X52016Y-46859D01*
X52006Y-46834D01*
X51991Y-46811D01*
X51971Y-46791D01*
X51582Y-46402D01*
X51559Y-46387D01*
X51534Y-46376D01*
X51507Y-46371D01*
X51479Y-46371D01*
X51452Y-46376D01*
X51427Y-46386D01*
X51404Y-46401D01*
X51384Y-46421D01*
X51333Y-46472D01*
X50405Y-45544D01*
X50389Y-45531D01*
X50374Y-45518D01*
X50373Y-45517D01*
X50372Y-45517D01*
X50354Y-45507D01*
X50336Y-45497D01*
X50335Y-45497D01*
X50334Y-45496D01*
X50315Y-45490D01*
X50295Y-45484D01*
X50294Y-45484D01*
X50293Y-45484D01*
X50273Y-45482D01*
X50253Y-45480D01*
X50250Y-45480D01*
X50250Y-45480D01*
X50250Y-45480D01*
X50250Y-45480D01*
X49422Y-45480D01*
X49421Y-45476D01*
X49369Y-45398D01*
X49304Y-45332D01*
X49226Y-45280D01*
X49220Y-45277D01*
X49220Y-44851D01*
X49256Y-44828D01*
X49315Y-44772D01*
X49362Y-44705D01*
X49395Y-44631D01*
X49413Y-44552D01*
X49415Y-44459D01*
X49399Y-44379D01*
X49368Y-44304D01*
X49323Y-44236D01*
X49265Y-44178D01*
X49198Y-44133D01*
X49123Y-44101D01*
X49043Y-44085D01*
X48962Y-44084D01*
X48882Y-44099D01*
X48806Y-44130D01*
X48738Y-44175D01*
X48680Y-44231D01*
X48647Y-44280D01*
X46539Y-44280D01*
X46534Y-44268D01*
X46481Y-44188D01*
X46413Y-44120D01*
X46334Y-44066D01*
X46245Y-44029D01*
X46151Y-44010D01*
X46055Y-44009D01*
X45960Y-44027D01*
X45871Y-44063D01*
X45791Y-44116D01*
X45722Y-44183D01*
X45668Y-44262D01*
X45630Y-44351D01*
X45610Y-44445D01*
X45609Y-44541D01*
X45626Y-44635D01*
X45662Y-44725D01*
X45714Y-44805D01*
X45780Y-44874D01*
X45859Y-44929D01*
X45947Y-44968D01*
X46041Y-44988D01*
X46137Y-44990D01*
X46232Y-44974D01*
X46321Y-44939D01*
X46403Y-44887D01*
X46472Y-44821D01*
X46528Y-44743D01*
X46538Y-44720D01*
X48648Y-44720D01*
X48673Y-44759D01*
X48729Y-44817D01*
X48780Y-44852D01*
X48780Y-45276D01*
X48779Y-45277D01*
X48701Y-45328D01*
X48634Y-45393D01*
X48582Y-45470D01*
X48545Y-45555D01*
X48526Y-45646D01*
X48524Y-45739D01*
X48541Y-45831D01*
X48575Y-45918D01*
X48626Y-45996D01*
X48690Y-46063D01*
X48767Y-46116D01*
X48852Y-46153D01*
X48943Y-46173D01*
X49036Y-46175D01*
X49128Y-46159D01*
X49215Y-46125D01*
X49293Y-46075D01*
X49361Y-46011D01*
X49414Y-45935D01*
X49421Y-45920D01*
X50158Y-45920D01*
X51022Y-46783D01*
X50995Y-46810D01*
X50980Y-46833D01*
X50969Y-46858D01*
X50964Y-46885D01*
X50963Y-46913D01*
X50969Y-46940D01*
X50979Y-46965D01*
X50994Y-46988D01*
X51013Y-47008D01*
X51403Y-47397D01*
X51426Y-47412D01*
X51451Y-47423D01*
X51478Y-47428D01*
X51506Y-47428D01*
X51533Y-47423D01*
X51558Y-47413D01*
X51581Y-47398D01*
X51600Y-47378D01*
X51990Y-46989D01*
X52005Y-46966D01*
X52016Y-46941D01*
X52021Y-46914D01*
X52021Y-46886D01*
X52021Y-47231D01*
X52006Y-47237D01*
X51938Y-47282D01*
X51880Y-47339D01*
X51834Y-47406D01*
X51802Y-47481D01*
X51785Y-47560D01*
X51784Y-47642D01*
X51791Y-47680D01*
X50491Y-47680D01*
X50104Y-47293D01*
X50113Y-47252D01*
X50115Y-47159D01*
X50099Y-47079D01*
X50068Y-47004D01*
X50023Y-46936D01*
X49965Y-46878D01*
X49898Y-46833D01*
X49823Y-46801D01*
X49743Y-46785D01*
X49662Y-46784D01*
X49582Y-46799D01*
X49506Y-46830D01*
X49438Y-46875D01*
X49380Y-46931D01*
X49334Y-46999D01*
X49302Y-47073D01*
X49285Y-47153D01*
X49284Y-47234D01*
X49299Y-47314D01*
X49329Y-47390D01*
X49373Y-47459D01*
X49429Y-47517D01*
X49496Y-47564D01*
X49571Y-47596D01*
X49650Y-47614D01*
X49731Y-47615D01*
X49793Y-47604D01*
X50244Y-48055D01*
X50260Y-48068D01*
X50275Y-48081D01*
X50276Y-48082D01*
X50277Y-48082D01*
X50295Y-48092D01*
X50313Y-48102D01*
X50314Y-48102D01*
X50315Y-48103D01*
X50334Y-48109D01*
X50354Y-48115D01*
X50355Y-48115D01*
X50356Y-48115D01*
X50376Y-48117D01*
X50396Y-48119D01*
X50399Y-48119D01*
X50399Y-48119D01*
X50399Y-48119D01*
X50400Y-48120D01*
X51907Y-48120D01*
X51927Y-48118D01*
X51947Y-48116D01*
X51948Y-48115D01*
X51949Y-48115D01*
X51969Y-48109D01*
X51988Y-48104D01*
X51989Y-48103D01*
X51990Y-48103D01*
X52008Y-48093D01*
X52026Y-48084D01*
X52027Y-48083D01*
X52028Y-48083D01*
X52044Y-48070D01*
X52060Y-48057D01*
X52062Y-48056D01*
X52062Y-48056D01*
X52062Y-48056D01*
X52062Y-48055D01*
X52106Y-48011D01*
X52150Y-48021D01*
X52231Y-48022D01*
X52312Y-48008D01*
X52388Y-47979D01*
X52456Y-47935D01*
X52515Y-47879D01*
X52562Y-47813D01*
X52595Y-47738D01*
X52613Y-47659D01*
X52615Y-47566D01*
X52615Y-48780D01*
X49941Y-48780D01*
X49070Y-47908D01*
X49070Y-46600D01*
X49068Y-46579D01*
X49066Y-46559D01*
X49065Y-46558D01*
X49065Y-46557D01*
X49059Y-46537D01*
X49054Y-46518D01*
X49053Y-46517D01*
X49053Y-46516D01*
X49043Y-46498D01*
X49034Y-46480D01*
X49033Y-46479D01*
X49033Y-46478D01*
X49020Y-46462D01*
X49007Y-46446D01*
X49006Y-46445D01*
X49006Y-46444D01*
X49006Y-46444D01*
X49005Y-46444D01*
X47805Y-45244D01*
X47789Y-45231D01*
X47774Y-45218D01*
X47773Y-45217D01*
X47772Y-45217D01*
X47754Y-45207D01*
X47736Y-45197D01*
X47735Y-45197D01*
X47734Y-45196D01*
X47715Y-45190D01*
X47695Y-45184D01*
X47694Y-45184D01*
X47693Y-45184D01*
X47673Y-45182D01*
X47653Y-45180D01*
X47650Y-45180D01*
X47650Y-45180D01*
X47650Y-45180D01*
X47650Y-45180D01*
X41836Y-45180D01*
X41834Y-45177D01*
X41787Y-45145D01*
X41735Y-45124D01*
X41680Y-45112D01*
X41623Y-45112D01*
X41568Y-45122D01*
X41516Y-45143D01*
X41468Y-45174D01*
X41428Y-45214D01*
X41396Y-45260D01*
X41374Y-45312D01*
X41362Y-45367D01*
X41362Y-45424D01*
X41372Y-45479D01*
X41393Y-45532D01*
X41423Y-45579D01*
X41443Y-45599D01*
X41439Y-45604D01*
X42076Y-46082D01*
X42112Y-46120D01*
X42159Y-46152D01*
X42210Y-46174D01*
X42265Y-46186D01*
X42322Y-46188D01*
X42377Y-46178D01*
X42430Y-46157D01*
X42477Y-46127D01*
X42485Y-46120D01*
X47458Y-46120D01*
X48230Y-46891D01*
X48230Y-48200D01*
X48231Y-48220D01*
X48233Y-48240D01*
X48234Y-48241D01*
X48234Y-48242D01*
X48240Y-48262D01*
X48245Y-48281D01*
X48246Y-48282D01*
X48246Y-48283D01*
X48256Y-48301D01*
X48265Y-48319D01*
X48266Y-48320D01*
X48266Y-48321D01*
X48279Y-48337D01*
X48292Y-48353D01*
X48293Y-48354D01*
X48293Y-48355D01*
X48293Y-48355D01*
X48294Y-48355D01*
X49494Y-49555D01*
X49510Y-49568D01*
X49525Y-49581D01*
X49526Y-49582D01*
X49527Y-49582D01*
X49545Y-49592D01*
X49563Y-49602D01*
X49564Y-49602D01*
X49565Y-49603D01*
X49584Y-49609D01*
X49604Y-49615D01*
X49605Y-49615D01*
X49606Y-49615D01*
X49626Y-49617D01*
X49646Y-49619D01*
X49649Y-49619D01*
X49649Y-49619D01*
X49649Y-49619D01*
X49650Y-49620D01*
X50963Y-49620D01*
X51135Y-49791D01*
X51135Y-50508D01*
X50963Y-50680D01*
X50115Y-50680D01*
X50115Y-50159D01*
X50099Y-50079D01*
X50068Y-50004D01*
X50023Y-49936D01*
X49965Y-49878D01*
X49898Y-49833D01*
X49823Y-49801D01*
X49743Y-49785D01*
X49662Y-49784D01*
X49582Y-49799D01*
X49506Y-49830D01*
X49438Y-49875D01*
X49380Y-49931D01*
X49334Y-49999D01*
X49302Y-50073D01*
X49285Y-50153D01*
X49284Y-50234D01*
X49299Y-50314D01*
X49329Y-50390D01*
X49373Y-50459D01*
X49429Y-50517D01*
X49496Y-50564D01*
X49571Y-50596D01*
X49650Y-50614D01*
X49731Y-50615D01*
X49812Y-50601D01*
X49888Y-50572D01*
X49956Y-50528D01*
X50015Y-50472D01*
X50062Y-50405D01*
X50095Y-50331D01*
X50113Y-50252D01*
X50115Y-50159D01*
X50115Y-50680D01*
X50100Y-50680D01*
X50079Y-50681D01*
X50059Y-50683D01*
X50058Y-50684D01*
X50057Y-50684D01*
X50037Y-50690D01*
X50018Y-50695D01*
X50017Y-50696D01*
X50016Y-50696D01*
X49998Y-50706D01*
X49980Y-50715D01*
X49979Y-50716D01*
X49978Y-50716D01*
X49962Y-50729D01*
X49946Y-50742D01*
X49945Y-50743D01*
X49944Y-50743D01*
X49944Y-50743D01*
X49944Y-50744D01*
X48944Y-51744D01*
X48931Y-51760D01*
X48922Y-51771D01*
X48660Y-52033D01*
X48660Y-52260D01*
X48660Y-52290D01*
X48660Y-53266D01*
X48666Y-53272D01*
X48665Y-53276D01*
X48664Y-53361D01*
X48679Y-53445D01*
X48710Y-53524D01*
X48757Y-53596D01*
X48816Y-53658D01*
X48849Y-53680D01*
X49360Y-54191D01*
X49360Y-55095D01*
X49359Y-55136D01*
X49374Y-55221D01*
X49406Y-55302D01*
X49453Y-55374D01*
X49513Y-55436D01*
X49584Y-55485D01*
X49663Y-55520D01*
X49747Y-55539D01*
X49760Y-55539D01*
X49760Y-55540D01*
X49794Y-55540D01*
X49833Y-55540D01*
X49838Y-55540D01*
X50794Y-55540D01*
X50833Y-55540D01*
X50838Y-55540D01*
X51498Y-55540D01*
X51512Y-55540D01*
X52113Y-55540D01*
X52140Y-55534D01*
X52166Y-55524D01*
X52188Y-55509D01*
X52208Y-55489D01*
X52223Y-55466D01*
X52234Y-55441D01*
X52239Y-55414D01*
X52240Y-55387D01*
X52240Y-54816D01*
X52466Y-54590D01*
X53083Y-54590D01*
X53402Y-54909D01*
X53378Y-54966D01*
X53360Y-55050D01*
X53359Y-55136D01*
X53374Y-55221D01*
X53406Y-55302D01*
X53453Y-55374D01*
X53513Y-55436D01*
X53584Y-55485D01*
X53663Y-55520D01*
X53736Y-55536D01*
X53735Y-55540D01*
X53794Y-55540D01*
X53833Y-55540D01*
X53838Y-55540D01*
X54794Y-55540D01*
X54833Y-55540D01*
X54838Y-55540D01*
X55498Y-55540D01*
X55512Y-55540D01*
X56113Y-55540D01*
X56140Y-55534D01*
X56166Y-55524D01*
X56188Y-55509D01*
X56208Y-55489D01*
X56223Y-55466D01*
X56234Y-55441D01*
X56239Y-55414D01*
X56240Y-55387D01*
X56240Y-54971D01*
X56621Y-54590D01*
X57083Y-54590D01*
X57402Y-54909D01*
X57378Y-54966D01*
X57360Y-55050D01*
X57359Y-55136D01*
X57374Y-55221D01*
X57406Y-55302D01*
X57453Y-55374D01*
X57513Y-55436D01*
X57584Y-55485D01*
X57663Y-55520D01*
X57747Y-55539D01*
X57760Y-55539D01*
X57760Y-55540D01*
X57794Y-55540D01*
X57833Y-55540D01*
X57838Y-55540D01*
X58794Y-55540D01*
X58833Y-55540D01*
X58838Y-55540D01*
X59498Y-55540D01*
X59512Y-55540D01*
X60113Y-55540D01*
X60140Y-55534D01*
X60166Y-55524D01*
X60188Y-55509D01*
X60208Y-55489D01*
X60223Y-55466D01*
X60234Y-55441D01*
X60239Y-55414D01*
X60240Y-55387D01*
X60240Y-54916D01*
X60466Y-54690D01*
X61183Y-54690D01*
X61402Y-54909D01*
X61378Y-54966D01*
X61360Y-55050D01*
X61359Y-55136D01*
X61374Y-55221D01*
X61406Y-55302D01*
X61453Y-55374D01*
X61513Y-55436D01*
X61584Y-55485D01*
X61663Y-55520D01*
X61747Y-55539D01*
X61760Y-55539D01*
X61760Y-55540D01*
X61794Y-55540D01*
X61833Y-55540D01*
X61838Y-55540D01*
X62794Y-55540D01*
X62833Y-55540D01*
X62838Y-55540D01*
X63498Y-55540D01*
X63512Y-55540D01*
X64113Y-55540D01*
X64140Y-55534D01*
X64166Y-55524D01*
X64188Y-55509D01*
X64208Y-55489D01*
X64223Y-55466D01*
X64234Y-55441D01*
X64239Y-55414D01*
X64240Y-55387D01*
X64240Y-54916D01*
X64536Y-54620D01*
X66008Y-54620D01*
X66360Y-54971D01*
X66360Y-55095D01*
X66359Y-55136D01*
X66374Y-55221D01*
X66406Y-55302D01*
X66453Y-55374D01*
X66513Y-55436D01*
X66584Y-55485D01*
X66663Y-55520D01*
X66747Y-55539D01*
X66760Y-55539D01*
X66760Y-55540D01*
X66794Y-55540D01*
X66833Y-55540D01*
X66838Y-55540D01*
X67498Y-55540D01*
X67512Y-55540D01*
X68113Y-55540D01*
X68140Y-55534D01*
X68166Y-55524D01*
X68188Y-55509D01*
X68208Y-55489D01*
X68223Y-55466D01*
X68234Y-55441D01*
X68239Y-55414D01*
X68240Y-55387D01*
X68240Y-54786D01*
X68234Y-54759D01*
X68224Y-54733D01*
X68209Y-54711D01*
X68189Y-54691D01*
X68166Y-54676D01*
X68141Y-54665D01*
X68114Y-54660D01*
X68087Y-54659D01*
X67671Y-54659D01*
X67535Y-54524D01*
X67535Y-53282D01*
X67535Y-52282D01*
X67518Y-52198D01*
X67486Y-52119D01*
X67438Y-52048D01*
X67378Y-51987D01*
X67308Y-51940D01*
X67229Y-51907D01*
X67145Y-51890D01*
X67060Y-51889D01*
X66976Y-51905D01*
X66897Y-51937D01*
X66825Y-51984D01*
X66764Y-52043D01*
X66716Y-52114D01*
X66683Y-52192D01*
X66665Y-52276D01*
X66664Y-52361D01*
X66679Y-52445D01*
X66710Y-52524D01*
X66757Y-52596D01*
X66816Y-52658D01*
X66886Y-52706D01*
X66964Y-52740D01*
X67048Y-52759D01*
X67133Y-52761D01*
X67217Y-52746D01*
X67297Y-52715D01*
X67369Y-52669D01*
X67431Y-52610D01*
X67480Y-52541D01*
X67515Y-52463D01*
X67533Y-52379D01*
X67535Y-52282D01*
X67535Y-53282D01*
X67518Y-53198D01*
X67486Y-53119D01*
X67438Y-53048D01*
X67378Y-52987D01*
X67308Y-52940D01*
X67229Y-52907D01*
X67145Y-52890D01*
X67060Y-52889D01*
X66976Y-52905D01*
X66897Y-52937D01*
X66825Y-52984D01*
X66764Y-53043D01*
X66716Y-53114D01*
X66683Y-53192D01*
X66665Y-53276D01*
X66664Y-53361D01*
X66679Y-53445D01*
X66710Y-53524D01*
X66757Y-53596D01*
X66816Y-53658D01*
X66886Y-53706D01*
X66964Y-53740D01*
X67048Y-53759D01*
X67133Y-53761D01*
X67217Y-53746D01*
X67297Y-53715D01*
X67369Y-53669D01*
X67431Y-53610D01*
X67480Y-53541D01*
X67515Y-53463D01*
X67533Y-53379D01*
X67535Y-53282D01*
X67535Y-54524D01*
X66755Y-53744D01*
X66739Y-53731D01*
X66724Y-53718D01*
X66723Y-53717D01*
X66722Y-53717D01*
X66704Y-53707D01*
X66686Y-53697D01*
X66685Y-53697D01*
X66684Y-53696D01*
X66665Y-53690D01*
X66645Y-53684D01*
X66644Y-53684D01*
X66643Y-53684D01*
X66623Y-53682D01*
X66603Y-53680D01*
X66600Y-53680D01*
X66600Y-53680D01*
X66600Y-53680D01*
X66600Y-53680D01*
X65786Y-53680D01*
X65540Y-53433D01*
X65540Y-52260D01*
X65530Y-52260D01*
X65518Y-52198D01*
X65486Y-52119D01*
X65438Y-52048D01*
X65378Y-51987D01*
X65308Y-51940D01*
X65229Y-51907D01*
X65145Y-51890D01*
X65140Y-51889D01*
X65140Y-51860D01*
X64768Y-51860D01*
X64757Y-51846D01*
X64756Y-51845D01*
X64756Y-51844D01*
X64756Y-51844D01*
X64755Y-51844D01*
X63955Y-51044D01*
X63939Y-51031D01*
X63924Y-51018D01*
X63923Y-51017D01*
X63922Y-51017D01*
X63904Y-51007D01*
X63886Y-50997D01*
X63885Y-50997D01*
X63884Y-50996D01*
X63865Y-50990D01*
X63845Y-50984D01*
X63844Y-50984D01*
X63843Y-50984D01*
X63823Y-50982D01*
X63803Y-50980D01*
X63800Y-50980D01*
X63800Y-50980D01*
X63800Y-50980D01*
X63800Y-50980D01*
X63086Y-50980D01*
X62590Y-50483D01*
X62590Y-47208D01*
X62592Y-47204D01*
X62602Y-47186D01*
X62602Y-47185D01*
X62603Y-47184D01*
X62609Y-47165D01*
X62615Y-47145D01*
X62615Y-47144D01*
X62615Y-47143D01*
X62617Y-47123D01*
X62619Y-47103D01*
X62619Y-47100D01*
X62619Y-47100D01*
X62619Y-47100D01*
X62620Y-47100D01*
X62620Y-40900D01*
X62618Y-40879D01*
X62616Y-40859D01*
X62615Y-40858D01*
X62615Y-40857D01*
X62609Y-40837D01*
X62604Y-40818D01*
X62603Y-40817D01*
X62603Y-40816D01*
X62593Y-40798D01*
X62584Y-40780D01*
X62583Y-40779D01*
X62583Y-40778D01*
X62570Y-40762D01*
X62557Y-40746D01*
X62556Y-40745D01*
X62556Y-40744D01*
X62556Y-40744D01*
X62555Y-40744D01*
X62440Y-40628D01*
X62440Y-40511D01*
X62648Y-40290D01*
X62778Y-40290D01*
X62980Y-40491D01*
X62980Y-47400D01*
X62981Y-47420D01*
X62983Y-47440D01*
X62984Y-47441D01*
X62984Y-47442D01*
X62990Y-47462D01*
X62995Y-47481D01*
X62996Y-47482D01*
X62996Y-47483D01*
X63006Y-47501D01*
X63015Y-47519D01*
X63016Y-47520D01*
X63016Y-47521D01*
X63029Y-47537D01*
X63042Y-47553D01*
X63043Y-47554D01*
X63043Y-47555D01*
X63043Y-47555D01*
X63044Y-47555D01*
X64960Y-49471D01*
X64960Y-50750D01*
X64960Y-50966D01*
X65433Y-51440D01*
X65703Y-51440D01*
X74416Y-51440D01*
X75339Y-50516D01*
X75342Y-50239D01*
X75345Y-50231D01*
X75363Y-50152D01*
X75365Y-50059D01*
X75349Y-49979D01*
X75344Y-49968D01*
X75350Y-49208D01*
X75363Y-49152D01*
X75365Y-49059D01*
X75352Y-48997D01*
X75359Y-48169D01*
X75363Y-48152D01*
X75365Y-48059D01*
X75360Y-48038D01*
X75440Y-38683D01*
X75440Y-54423D01*
X75397Y-54319D01*
X75275Y-54136D01*
X75120Y-53979D01*
X74937Y-53856D01*
X74734Y-53770D01*
X74518Y-53726D01*
X74297Y-53724D01*
X74081Y-53766D01*
X73876Y-53848D01*
X73692Y-53969D01*
X73534Y-54123D01*
X73410Y-54305D01*
X73323Y-54508D01*
X73277Y-54724D01*
X73274Y-54944D01*
X73314Y-55161D01*
X73395Y-55366D01*
X73514Y-55551D01*
X73667Y-55710D01*
X73848Y-55836D01*
X74050Y-55924D01*
X74266Y-55971D01*
X74486Y-55976D01*
X74703Y-55938D01*
X74909Y-55858D01*
X75095Y-55740D01*
X75255Y-55588D01*
X75382Y-55408D01*
X75471Y-55206D01*
X75520Y-54991D01*
X75524Y-54739D01*
X75524Y-55992D01*
X75297Y-56180D01*
X75021Y-56328D01*
X74722Y-56421D01*
X74404Y-56454D01*
X74399Y-56455D01*
X72519Y-56455D01*
X72519Y-54123D01*
X72519Y-52351D01*
X72495Y-52228D01*
X72447Y-52112D01*
X72377Y-52007D01*
X72289Y-51918D01*
X72185Y-51848D01*
X72069Y-51799D01*
X71946Y-51774D01*
X71821Y-51773D01*
X71697Y-51797D01*
X71581Y-51844D01*
X71476Y-51912D01*
X71386Y-52000D01*
X71315Y-52104D01*
X71266Y-52219D01*
X71240Y-52342D01*
X71238Y-52467D01*
X71261Y-52591D01*
X71307Y-52708D01*
X71375Y-52813D01*
X71462Y-52903D01*
X71565Y-52975D01*
X71680Y-53025D01*
X71803Y-53052D01*
X71928Y-53055D01*
X72052Y-53033D01*
X72169Y-52988D01*
X72275Y-52920D01*
X72366Y-52834D01*
X72438Y-52731D01*
X72489Y-52617D01*
X72517Y-52494D01*
X72519Y-52351D01*
X72519Y-54123D01*
X72495Y-53999D01*
X72447Y-53883D01*
X72377Y-53779D01*
X72289Y-53690D01*
X72185Y-53620D01*
X72069Y-53571D01*
X71946Y-53546D01*
X71821Y-53545D01*
X71697Y-53568D01*
X71581Y-53615D01*
X71476Y-53684D01*
X71386Y-53772D01*
X71315Y-53876D01*
X71266Y-53991D01*
X71240Y-54114D01*
X71238Y-54239D01*
X71261Y-54363D01*
X71307Y-54479D01*
X71375Y-54585D01*
X71462Y-54675D01*
X71565Y-54747D01*
X71680Y-54797D01*
X71803Y-54824D01*
X71928Y-54827D01*
X72052Y-54805D01*
X72169Y-54759D01*
X72275Y-54692D01*
X72366Y-54606D01*
X72438Y-54503D01*
X72489Y-54388D01*
X72517Y-54266D01*
X72519Y-54123D01*
X72519Y-56455D01*
X69960Y-56455D01*
X69960Y-54123D01*
X69960Y-52351D01*
X69936Y-52228D01*
X69888Y-52112D01*
X69818Y-52007D01*
X69730Y-51918D01*
X69626Y-51848D01*
X69510Y-51799D01*
X69387Y-51774D01*
X69262Y-51773D01*
X69138Y-51797D01*
X69022Y-51844D01*
X68917Y-51912D01*
X68827Y-52000D01*
X68756Y-52104D01*
X68707Y-52219D01*
X68681Y-52342D01*
X68679Y-52467D01*
X68702Y-52591D01*
X68748Y-52708D01*
X68816Y-52813D01*
X68903Y-52903D01*
X69006Y-52975D01*
X69121Y-53025D01*
X69244Y-53052D01*
X69369Y-53055D01*
X69493Y-53033D01*
X69610Y-52988D01*
X69716Y-52920D01*
X69807Y-52834D01*
X69879Y-52731D01*
X69930Y-52617D01*
X69958Y-52494D01*
X69960Y-52351D01*
X69960Y-54123D01*
X69936Y-53999D01*
X69888Y-53883D01*
X69818Y-53779D01*
X69730Y-53690D01*
X69626Y-53620D01*
X69510Y-53571D01*
X69387Y-53546D01*
X69262Y-53545D01*
X69138Y-53568D01*
X69022Y-53615D01*
X68917Y-53684D01*
X68827Y-53772D01*
X68756Y-53876D01*
X68707Y-53991D01*
X68681Y-54114D01*
X68679Y-54239D01*
X68702Y-54363D01*
X68748Y-54479D01*
X68816Y-54585D01*
X68903Y-54675D01*
X69006Y-54747D01*
X69121Y-54797D01*
X69244Y-54824D01*
X69369Y-54827D01*
X69493Y-54805D01*
X69610Y-54759D01*
X69716Y-54692D01*
X69807Y-54606D01*
X69879Y-54503D01*
X69930Y-54388D01*
X69958Y-54266D01*
X69960Y-54123D01*
X69960Y-56455D01*
X66240Y-56455D01*
X66240Y-55056D01*
X66223Y-54972D01*
X66190Y-54892D01*
X66142Y-54820D01*
X66081Y-54759D01*
X66010Y-54711D01*
X65930Y-54677D01*
X65846Y-54660D01*
X65759Y-54659D01*
X65675Y-54675D01*
X65595Y-54708D01*
X65522Y-54755D01*
X65461Y-54815D01*
X65412Y-54887D01*
X65378Y-54966D01*
X65360Y-55050D01*
X65359Y-55136D01*
X65374Y-55221D01*
X65406Y-55302D01*
X65453Y-55374D01*
X65513Y-55436D01*
X65584Y-55485D01*
X65663Y-55520D01*
X65747Y-55539D01*
X65833Y-55540D01*
X65918Y-55525D01*
X65999Y-55494D01*
X66072Y-55448D01*
X66134Y-55388D01*
X66184Y-55318D01*
X66219Y-55239D01*
X66238Y-55155D01*
X66240Y-55056D01*
X66240Y-56455D01*
X48535Y-56455D01*
X48535Y-53282D01*
X48535Y-52282D01*
X48518Y-52198D01*
X48486Y-52119D01*
X48438Y-52048D01*
X48378Y-51987D01*
X48308Y-51940D01*
X48229Y-51907D01*
X48145Y-51890D01*
X48060Y-51889D01*
X47976Y-51905D01*
X47897Y-51937D01*
X47825Y-51984D01*
X47764Y-52043D01*
X47716Y-52114D01*
X47683Y-52192D01*
X47665Y-52276D01*
X47664Y-52361D01*
X47679Y-52445D01*
X47710Y-52524D01*
X47757Y-52596D01*
X47816Y-52658D01*
X47886Y-52706D01*
X47964Y-52740D01*
X48048Y-52759D01*
X48133Y-52761D01*
X48217Y-52746D01*
X48297Y-52715D01*
X48369Y-52669D01*
X48431Y-52610D01*
X48480Y-52541D01*
X48515Y-52463D01*
X48533Y-52379D01*
X48535Y-52282D01*
X48535Y-53282D01*
X48518Y-53198D01*
X48486Y-53119D01*
X48438Y-53048D01*
X48378Y-52987D01*
X48308Y-52940D01*
X48229Y-52907D01*
X48145Y-52890D01*
X48060Y-52889D01*
X47976Y-52905D01*
X47897Y-52937D01*
X47825Y-52984D01*
X47764Y-53043D01*
X47716Y-53114D01*
X47683Y-53192D01*
X47665Y-53276D01*
X47664Y-53361D01*
X47679Y-53445D01*
X47710Y-53524D01*
X47757Y-53596D01*
X47816Y-53658D01*
X47886Y-53706D01*
X47964Y-53740D01*
X48048Y-53759D01*
X48133Y-53761D01*
X48217Y-53746D01*
X48297Y-53715D01*
X48369Y-53669D01*
X48431Y-53610D01*
X48480Y-53541D01*
X48515Y-53463D01*
X48533Y-53379D01*
X48535Y-53282D01*
X48535Y-56455D01*
X48240Y-56455D01*
X48240Y-55387D01*
X48240Y-54786D01*
X48234Y-54759D01*
X48224Y-54733D01*
X48209Y-54711D01*
X48189Y-54691D01*
X48166Y-54676D01*
X48141Y-54665D01*
X48114Y-54660D01*
X48087Y-54659D01*
X47671Y-54659D01*
X47540Y-54528D01*
X47540Y-52171D01*
X48055Y-51655D01*
X48068Y-51639D01*
X48081Y-51624D01*
X48082Y-51623D01*
X48082Y-51622D01*
X48092Y-51604D01*
X48102Y-51586D01*
X48102Y-51585D01*
X48103Y-51584D01*
X48109Y-51565D01*
X48115Y-51545D01*
X48115Y-51544D01*
X48115Y-51543D01*
X48117Y-51523D01*
X48119Y-51503D01*
X48119Y-51500D01*
X48119Y-51500D01*
X48119Y-51500D01*
X48120Y-51500D01*
X48120Y-51000D01*
X48120Y-47100D01*
X48118Y-47079D01*
X48116Y-47059D01*
X48115Y-47058D01*
X48115Y-47057D01*
X48109Y-47037D01*
X48104Y-47018D01*
X48103Y-47017D01*
X48103Y-47016D01*
X48093Y-46998D01*
X48084Y-46980D01*
X48083Y-46979D01*
X48083Y-46978D01*
X48070Y-46962D01*
X48057Y-46946D01*
X48056Y-46945D01*
X48056Y-46944D01*
X48056Y-46944D01*
X48055Y-46944D01*
X47455Y-46344D01*
X47439Y-46331D01*
X47424Y-46318D01*
X47423Y-46317D01*
X47422Y-46317D01*
X47404Y-46307D01*
X47386Y-46297D01*
X47385Y-46297D01*
X47384Y-46296D01*
X47365Y-46290D01*
X47345Y-46284D01*
X47344Y-46284D01*
X47343Y-46284D01*
X47323Y-46282D01*
X47303Y-46280D01*
X47300Y-46280D01*
X47300Y-46280D01*
X47300Y-46280D01*
X47300Y-46280D01*
X40676Y-46280D01*
X40638Y-46223D01*
X40578Y-46162D01*
X40508Y-46115D01*
X40429Y-46082D01*
X40345Y-46065D01*
X40260Y-46064D01*
X40176Y-46080D01*
X40097Y-46112D01*
X40025Y-46159D01*
X39964Y-46218D01*
X39916Y-46289D01*
X39883Y-46367D01*
X39865Y-46451D01*
X39864Y-46536D01*
X39879Y-46620D01*
X39910Y-46697D01*
X39910Y-47304D01*
X39883Y-47367D01*
X39865Y-47451D01*
X39864Y-47536D01*
X39879Y-47620D01*
X39910Y-47697D01*
X39910Y-48304D01*
X39883Y-48367D01*
X39865Y-48451D01*
X39864Y-48536D01*
X39879Y-48620D01*
X39910Y-48699D01*
X39957Y-48771D01*
X40016Y-48833D01*
X40086Y-48881D01*
X40164Y-48915D01*
X40248Y-48934D01*
X40333Y-48936D01*
X40417Y-48921D01*
X40497Y-48890D01*
X40569Y-48844D01*
X40631Y-48785D01*
X40680Y-48716D01*
X40715Y-48638D01*
X40733Y-48554D01*
X40735Y-48457D01*
X40721Y-48389D01*
X41591Y-47520D01*
X46392Y-47520D01*
X46385Y-47553D01*
X46384Y-47634D01*
X46399Y-47714D01*
X46429Y-47790D01*
X46473Y-47859D01*
X46529Y-47917D01*
X46596Y-47964D01*
X46671Y-47996D01*
X46710Y-48005D01*
X46710Y-50194D01*
X46682Y-50199D01*
X46606Y-50230D01*
X46538Y-50275D01*
X46480Y-50331D01*
X46434Y-50399D01*
X46402Y-50473D01*
X46385Y-50553D01*
X46384Y-50634D01*
X46395Y-50693D01*
X45444Y-51644D01*
X45431Y-51660D01*
X45422Y-51671D01*
X45210Y-51883D01*
X45210Y-51903D01*
X45145Y-51890D01*
X45060Y-51889D01*
X44989Y-51902D01*
X44989Y-50503D01*
X44980Y-50398D01*
X44950Y-50297D01*
X44940Y-50277D01*
X44940Y-50250D01*
X44940Y-48451D01*
X44921Y-48357D01*
X44884Y-48268D01*
X44831Y-48188D01*
X44763Y-48120D01*
X44684Y-48066D01*
X44595Y-48029D01*
X44501Y-48010D01*
X44405Y-48009D01*
X44310Y-48027D01*
X44221Y-48063D01*
X44141Y-48116D01*
X44072Y-48183D01*
X44018Y-48262D01*
X43980Y-48351D01*
X43960Y-48445D01*
X43959Y-48541D01*
X43976Y-48635D01*
X44012Y-48725D01*
X44064Y-48805D01*
X44130Y-48874D01*
X44209Y-48929D01*
X44297Y-48968D01*
X44391Y-48988D01*
X44487Y-48990D01*
X44582Y-48974D01*
X44671Y-48939D01*
X44753Y-48887D01*
X44822Y-48821D01*
X44878Y-48743D01*
X44917Y-48655D01*
X44938Y-48561D01*
X44940Y-48451D01*
X44940Y-50250D01*
X44940Y-50136D01*
X44934Y-50109D01*
X44924Y-50083D01*
X44909Y-50061D01*
X44889Y-50041D01*
X44866Y-50026D01*
X44841Y-50015D01*
X44814Y-50010D01*
X44787Y-50009D01*
X44674Y-50009D01*
X44662Y-50003D01*
X44562Y-49971D01*
X44457Y-49960D01*
X44450Y-49960D01*
X42950Y-49960D01*
X42524Y-49960D01*
X42524Y-49003D01*
X42506Y-48912D01*
X42471Y-48826D01*
X42419Y-48748D01*
X42354Y-48682D01*
X42276Y-48630D01*
X42191Y-48594D01*
X42099Y-48575D01*
X42006Y-48575D01*
X41915Y-48592D01*
X41829Y-48627D01*
X41751Y-48678D01*
X41684Y-48743D01*
X41632Y-48820D01*
X41595Y-48905D01*
X41576Y-48996D01*
X41574Y-49089D01*
X41591Y-49181D01*
X41625Y-49268D01*
X41676Y-49346D01*
X41740Y-49413D01*
X41817Y-49466D01*
X41902Y-49503D01*
X41993Y-49523D01*
X42086Y-49525D01*
X42178Y-49509D01*
X42265Y-49475D01*
X42343Y-49425D01*
X42411Y-49361D01*
X42464Y-49285D01*
X42502Y-49200D01*
X42523Y-49109D01*
X42524Y-49003D01*
X42524Y-49960D01*
X42350Y-49960D01*
X42300Y-49964D01*
X42250Y-49969D01*
X42247Y-49970D01*
X42245Y-49970D01*
X42197Y-49984D01*
X42149Y-49998D01*
X42146Y-49999D01*
X42144Y-50000D01*
X42100Y-50024D01*
X42055Y-50047D01*
X42053Y-50048D01*
X42051Y-50050D01*
X42012Y-50081D01*
X41973Y-50112D01*
X41969Y-50116D01*
X41969Y-50116D01*
X41969Y-50116D01*
X41968Y-50118D01*
X41826Y-50260D01*
X41400Y-50260D01*
X41365Y-50260D01*
X41365Y-49759D01*
X41349Y-49679D01*
X41318Y-49604D01*
X41273Y-49536D01*
X41215Y-49478D01*
X41148Y-49433D01*
X41073Y-49401D01*
X40993Y-49385D01*
X40912Y-49384D01*
X40832Y-49399D01*
X40756Y-49430D01*
X40688Y-49475D01*
X40630Y-49531D01*
X40584Y-49599D01*
X40552Y-49673D01*
X40535Y-49753D01*
X40534Y-49834D01*
X40549Y-49914D01*
X40579Y-49990D01*
X40623Y-50059D01*
X40679Y-50117D01*
X40746Y-50164D01*
X40821Y-50196D01*
X40900Y-50214D01*
X40981Y-50215D01*
X41062Y-50201D01*
X41138Y-50172D01*
X41206Y-50128D01*
X41265Y-50072D01*
X41312Y-50005D01*
X41345Y-49931D01*
X41363Y-49852D01*
X41365Y-49759D01*
X41365Y-50260D01*
X40950Y-50260D01*
X40531Y-50260D01*
X40525Y-50250D01*
X40502Y-50205D01*
X40501Y-50203D01*
X40499Y-50201D01*
X40468Y-50162D01*
X40437Y-50123D01*
X40433Y-50119D01*
X40433Y-50119D01*
X40433Y-50119D01*
X40431Y-50118D01*
X39840Y-49526D01*
X39840Y-48500D01*
X39840Y-47500D01*
X39840Y-46500D01*
X39840Y-45500D01*
X39840Y-44500D01*
X39840Y-43500D01*
X39840Y-42500D01*
X39840Y-41500D01*
X39840Y-40500D01*
X39840Y-39500D01*
X39840Y-38500D01*
X39840Y-37500D01*
X39840Y-36500D01*
X39840Y-35500D01*
X39840Y-34242D01*
X39972Y-33910D01*
X39979Y-33905D01*
X39998Y-33886D01*
X40014Y-33863D01*
X40024Y-33838D01*
X40030Y-33811D01*
X40030Y-33784D01*
X40030Y-33389D01*
X40025Y-33362D01*
X40014Y-33337D01*
X39999Y-33314D01*
X39980Y-33294D01*
X39957Y-33279D01*
X39932Y-33268D01*
X39905Y-33263D01*
X39877Y-33263D01*
X39674Y-33263D01*
X39674Y-30689D01*
X39631Y-30473D01*
X39547Y-30269D01*
X39425Y-30086D01*
X39270Y-29929D01*
X39087Y-29806D01*
X38884Y-29720D01*
X38668Y-29676D01*
X38447Y-29674D01*
X38231Y-29716D01*
X38026Y-29798D01*
X37842Y-29919D01*
X37684Y-30073D01*
X37560Y-30255D01*
X37473Y-30458D01*
X37427Y-30674D01*
X37424Y-30894D01*
X37464Y-31111D01*
X37545Y-31316D01*
X37664Y-31501D01*
X37817Y-31660D01*
X37998Y-31786D01*
X38200Y-31874D01*
X38416Y-31921D01*
X38636Y-31926D01*
X38853Y-31888D01*
X39059Y-31808D01*
X39245Y-31690D01*
X39405Y-31538D01*
X39532Y-31358D01*
X39621Y-31156D01*
X39670Y-30941D01*
X39674Y-30689D01*
X39674Y-33263D01*
X39333Y-33263D01*
X39303Y-33260D01*
X39269Y-33263D01*
X38695Y-33263D01*
X38668Y-33268D01*
X38643Y-33278D01*
X38620Y-33294D01*
X38601Y-33313D01*
X38585Y-33336D01*
X38575Y-33361D01*
X38569Y-33388D01*
X38569Y-33415D01*
X38569Y-33674D01*
X38281Y-33962D01*
X38198Y-33969D01*
X38097Y-33999D01*
X38004Y-34048D01*
X37922Y-34114D01*
X37854Y-34194D01*
X37803Y-34287D01*
X37771Y-34387D01*
X37760Y-34492D01*
X37760Y-34500D01*
X37760Y-48500D01*
X37765Y-48560D01*
X37760Y-48560D01*
X37760Y-49466D01*
X38109Y-49816D01*
X38109Y-50813D01*
X38115Y-50840D01*
X38125Y-50866D01*
X38140Y-50888D01*
X38160Y-50908D01*
X38183Y-50923D01*
X38208Y-50934D01*
X38235Y-50939D01*
X38262Y-50940D01*
X38626Y-50940D01*
X38868Y-51181D01*
X38906Y-51213D01*
X38944Y-51245D01*
X38947Y-51246D01*
X38949Y-51248D01*
X38993Y-51272D01*
X39037Y-51296D01*
X39039Y-51297D01*
X39042Y-51298D01*
X39090Y-51313D01*
X39137Y-51328D01*
X39140Y-51328D01*
X39143Y-51329D01*
X39192Y-51334D01*
X39242Y-51339D01*
X39248Y-51339D01*
X39248Y-51339D01*
X39248Y-51339D01*
X39250Y-51340D01*
X39826Y-51340D01*
X40160Y-51673D01*
X40160Y-52450D01*
X40164Y-52499D01*
X40169Y-52549D01*
X40170Y-52552D01*
X40170Y-52554D01*
X40184Y-52602D01*
X40198Y-52650D01*
X40199Y-52653D01*
X40200Y-52655D01*
X40224Y-52699D01*
X40247Y-52744D01*
X40248Y-52746D01*
X40250Y-52748D01*
X40281Y-52787D01*
X40312Y-52826D01*
X40316Y-52830D01*
X40316Y-52830D01*
X40316Y-52830D01*
X40318Y-52831D01*
X40618Y-53131D01*
X40656Y-53163D01*
X40672Y-53176D01*
X40674Y-53187D01*
X40685Y-53212D01*
X40700Y-53235D01*
X40719Y-53255D01*
X40742Y-53270D01*
X40767Y-53281D01*
X40794Y-53286D01*
X40822Y-53286D01*
X40965Y-53286D01*
X40992Y-53289D01*
X40998Y-53289D01*
X40998Y-53289D01*
X40998Y-53289D01*
X41000Y-53290D01*
X41800Y-53290D01*
X41831Y-53286D01*
X42004Y-53286D01*
X42031Y-53281D01*
X42056Y-53271D01*
X42079Y-53255D01*
X42098Y-53236D01*
X42114Y-53213D01*
X42124Y-53188D01*
X42127Y-53176D01*
X42137Y-53168D01*
X42176Y-53137D01*
X42180Y-53133D01*
X42180Y-53133D01*
X42180Y-53133D01*
X42181Y-53131D01*
X42431Y-52881D01*
X42463Y-52843D01*
X42495Y-52805D01*
X42496Y-52802D01*
X42498Y-52800D01*
X42522Y-52756D01*
X42546Y-52712D01*
X42547Y-52710D01*
X42548Y-52707D01*
X42563Y-52659D01*
X42578Y-52612D01*
X42578Y-52609D01*
X42579Y-52606D01*
X42584Y-52557D01*
X42589Y-52507D01*
X42589Y-52501D01*
X42589Y-52501D01*
X42589Y-52501D01*
X42590Y-52500D01*
X42590Y-52050D01*
X42590Y-51623D01*
X43173Y-51040D01*
X44450Y-51040D01*
X44554Y-51029D01*
X44655Y-50999D01*
X44673Y-50990D01*
X44813Y-50990D01*
X44840Y-50984D01*
X44866Y-50974D01*
X44888Y-50959D01*
X44908Y-50939D01*
X44923Y-50916D01*
X44934Y-50891D01*
X44939Y-50864D01*
X44940Y-50837D01*
X44940Y-50723D01*
X44947Y-50709D01*
X44978Y-50608D01*
X44989Y-50503D01*
X44989Y-51902D01*
X44976Y-51905D01*
X44965Y-51910D01*
X44236Y-51910D01*
X44229Y-51907D01*
X44145Y-51890D01*
X44060Y-51889D01*
X43976Y-51905D01*
X43897Y-51937D01*
X43825Y-51984D01*
X43764Y-52043D01*
X43716Y-52114D01*
X43683Y-52192D01*
X43665Y-52276D01*
X43664Y-52361D01*
X43679Y-52445D01*
X43710Y-52522D01*
X43710Y-53129D01*
X43683Y-53192D01*
X43665Y-53276D01*
X43664Y-53361D01*
X43677Y-53436D01*
X43535Y-53578D01*
X43535Y-53282D01*
X43535Y-52282D01*
X43518Y-52198D01*
X43486Y-52119D01*
X43438Y-52048D01*
X43378Y-51987D01*
X43308Y-51940D01*
X43229Y-51907D01*
X43145Y-51890D01*
X43060Y-51889D01*
X42976Y-51905D01*
X42897Y-51937D01*
X42825Y-51984D01*
X42764Y-52043D01*
X42716Y-52114D01*
X42683Y-52192D01*
X42665Y-52276D01*
X42664Y-52361D01*
X42679Y-52445D01*
X42710Y-52524D01*
X42757Y-52596D01*
X42816Y-52658D01*
X42886Y-52706D01*
X42964Y-52740D01*
X43048Y-52759D01*
X43133Y-52761D01*
X43217Y-52746D01*
X43297Y-52715D01*
X43369Y-52669D01*
X43431Y-52610D01*
X43480Y-52541D01*
X43515Y-52463D01*
X43533Y-52379D01*
X43535Y-52282D01*
X43535Y-53282D01*
X43518Y-53198D01*
X43486Y-53119D01*
X43438Y-53048D01*
X43378Y-52987D01*
X43308Y-52940D01*
X43229Y-52907D01*
X43145Y-52890D01*
X43060Y-52889D01*
X42976Y-52905D01*
X42897Y-52937D01*
X42825Y-52984D01*
X42764Y-53043D01*
X42716Y-53114D01*
X42683Y-53192D01*
X42665Y-53276D01*
X42664Y-53361D01*
X42679Y-53445D01*
X42710Y-53524D01*
X42757Y-53596D01*
X42816Y-53658D01*
X42886Y-53706D01*
X42964Y-53740D01*
X43048Y-53759D01*
X43133Y-53761D01*
X43217Y-53746D01*
X43297Y-53715D01*
X43369Y-53669D01*
X43431Y-53610D01*
X43480Y-53541D01*
X43515Y-53463D01*
X43533Y-53379D01*
X43535Y-53282D01*
X43535Y-53578D01*
X42644Y-54469D01*
X42631Y-54485D01*
X42618Y-54500D01*
X42617Y-54501D01*
X42617Y-54502D01*
X42607Y-54520D01*
X42597Y-54538D01*
X42597Y-54539D01*
X42596Y-54540D01*
X42590Y-54559D01*
X42584Y-54579D01*
X42584Y-54580D01*
X42584Y-54581D01*
X42582Y-54601D01*
X42580Y-54621D01*
X42580Y-54624D01*
X42580Y-54624D01*
X42580Y-54624D01*
X42580Y-54625D01*
X42580Y-54718D01*
X42522Y-54755D01*
X42461Y-54815D01*
X42412Y-54887D01*
X42378Y-54966D01*
X42360Y-55050D01*
X42359Y-55136D01*
X42374Y-55221D01*
X42406Y-55302D01*
X42453Y-55374D01*
X42513Y-55436D01*
X42584Y-55485D01*
X42663Y-55520D01*
X42747Y-55539D01*
X42785Y-55539D01*
X42785Y-55540D01*
X42794Y-55540D01*
X42833Y-55540D01*
X42838Y-55540D01*
X43490Y-55540D01*
X43490Y-55539D01*
X43512Y-55540D01*
X44113Y-55540D01*
X44140Y-55534D01*
X44166Y-55524D01*
X44188Y-55509D01*
X44208Y-55489D01*
X44223Y-55466D01*
X44234Y-55441D01*
X44239Y-55414D01*
X44240Y-55387D01*
X44240Y-54871D01*
X44423Y-54688D01*
X46107Y-54643D01*
X46394Y-54930D01*
X46378Y-54966D01*
X46360Y-55050D01*
X46359Y-55136D01*
X46374Y-55221D01*
X46406Y-55302D01*
X46453Y-55374D01*
X46513Y-55436D01*
X46584Y-55485D01*
X46663Y-55520D01*
X46747Y-55539D01*
X46760Y-55539D01*
X46760Y-55540D01*
X46794Y-55540D01*
X46833Y-55540D01*
X46838Y-55540D01*
X47498Y-55540D01*
X47512Y-55540D01*
X48113Y-55540D01*
X48140Y-55534D01*
X48166Y-55524D01*
X48188Y-55509D01*
X48208Y-55489D01*
X48223Y-55466D01*
X48234Y-55441D01*
X48239Y-55414D01*
X48240Y-55387D01*
X48240Y-56455D01*
X46240Y-56455D01*
X46240Y-55056D01*
X46223Y-54972D01*
X46190Y-54892D01*
X46142Y-54820D01*
X46081Y-54759D01*
X46010Y-54711D01*
X45930Y-54677D01*
X45846Y-54660D01*
X45759Y-54659D01*
X45675Y-54675D01*
X45595Y-54708D01*
X45522Y-54755D01*
X45461Y-54815D01*
X45412Y-54887D01*
X45378Y-54966D01*
X45360Y-55050D01*
X45359Y-55136D01*
X45374Y-55221D01*
X45406Y-55302D01*
X45453Y-55374D01*
X45513Y-55436D01*
X45584Y-55485D01*
X45663Y-55520D01*
X45747Y-55539D01*
X45833Y-55540D01*
X45918Y-55525D01*
X45999Y-55494D01*
X46072Y-55448D01*
X46134Y-55388D01*
X46184Y-55318D01*
X46219Y-55239D01*
X46238Y-55155D01*
X46240Y-55056D01*
X46240Y-56455D01*
X42240Y-56455D01*
X42240Y-55056D01*
X42223Y-54972D01*
X42190Y-54892D01*
X42142Y-54820D01*
X42081Y-54759D01*
X42010Y-54711D01*
X41930Y-54677D01*
X41846Y-54660D01*
X41759Y-54659D01*
X41675Y-54675D01*
X41595Y-54708D01*
X41522Y-54755D01*
X41461Y-54815D01*
X41412Y-54887D01*
X41378Y-54966D01*
X41360Y-55050D01*
X41359Y-55136D01*
X41374Y-55221D01*
X41406Y-55302D01*
X41453Y-55374D01*
X41513Y-55436D01*
X41584Y-55485D01*
X41663Y-55520D01*
X41747Y-55539D01*
X41833Y-55540D01*
X41918Y-55525D01*
X41999Y-55494D01*
X42072Y-55448D01*
X42134Y-55388D01*
X42184Y-55318D01*
X42219Y-55239D01*
X42238Y-55155D01*
X42240Y-55056D01*
X42240Y-56455D01*
X39674Y-56455D01*
X39674Y-54739D01*
X39631Y-54523D01*
X39547Y-54319D01*
X39425Y-54136D01*
X39390Y-54100D01*
X39390Y-52237D01*
X39365Y-52114D01*
X39317Y-51998D01*
X39248Y-51893D01*
X39159Y-51804D01*
X39055Y-51734D01*
X38940Y-51685D01*
X38817Y-51660D01*
X38691Y-51659D01*
X38568Y-51683D01*
X38452Y-51730D01*
X38347Y-51798D01*
X38257Y-51886D01*
X38186Y-51990D01*
X38137Y-52105D01*
X38110Y-52228D01*
X38109Y-52353D01*
X38131Y-52477D01*
X38178Y-52593D01*
X38246Y-52699D01*
X38333Y-52789D01*
X38436Y-52861D01*
X38551Y-52911D01*
X38673Y-52938D01*
X38799Y-52941D01*
X38922Y-52919D01*
X39039Y-52874D01*
X39145Y-52806D01*
X39236Y-52720D01*
X39309Y-52617D01*
X39360Y-52502D01*
X39388Y-52380D01*
X39390Y-52237D01*
X39390Y-54100D01*
X39270Y-53979D01*
X39087Y-53856D01*
X38884Y-53770D01*
X38668Y-53726D01*
X38447Y-53724D01*
X38231Y-53766D01*
X38026Y-53848D01*
X37842Y-53969D01*
X37684Y-54123D01*
X37560Y-54305D01*
X37473Y-54508D01*
X37427Y-54724D01*
X37424Y-54944D01*
X37464Y-55161D01*
X37545Y-55366D01*
X37664Y-55551D01*
X37817Y-55710D01*
X37998Y-55836D01*
X38200Y-55924D01*
X38416Y-55971D01*
X38636Y-55976D01*
X38853Y-55938D01*
X39059Y-55858D01*
X39245Y-55740D01*
X39405Y-55588D01*
X39532Y-55408D01*
X39621Y-55206D01*
X39670Y-54991D01*
X39674Y-54739D01*
X39674Y-56455D01*
X38557Y-56455D01*
X38238Y-56423D01*
X37938Y-56333D01*
X37662Y-56186D01*
X37419Y-55988D01*
X37219Y-55747D01*
X37071Y-55471D01*
X36978Y-55172D01*
X36945Y-54854D01*
X36945Y-54849D01*
X36945Y-30807D01*
X36976Y-30488D01*
X37066Y-30188D01*
X37213Y-29912D01*
X37411Y-29669D01*
X37652Y-29469D01*
X37928Y-29321D01*
X38227Y-29228D01*
X38545Y-29195D01*
X38550Y-29195D01*
X74392Y-29195D01*
X74711Y-29226D01*
X75011Y-29316D01*
X75287Y-29463D01*
X75530Y-29661D01*
X75730Y-29902D01*
X75878Y-30178D01*
X75971Y-30477D01*
X76004Y-30795D01*
X76005Y-30800D01*
X76005Y-54842D01*
X76005Y-54842D01*
G37*
G54D30*
X76005Y-54842D02*
X75973Y-55161D01*
X75883Y-55461D01*
X75736Y-55737D01*
X75538Y-55980D01*
X75524Y-55992D01*
X75524Y-54739D01*
X75524Y-30689D01*
X75481Y-30473D01*
X75397Y-30269D01*
X75275Y-30086D01*
X75120Y-29929D01*
X74937Y-29806D01*
X74734Y-29720D01*
X74518Y-29676D01*
X74297Y-29674D01*
X74081Y-29716D01*
X73876Y-29798D01*
X73692Y-29919D01*
X73534Y-30073D01*
X73410Y-30255D01*
X73323Y-30458D01*
X73277Y-30674D01*
X73274Y-30894D01*
X73314Y-31111D01*
X73395Y-31316D01*
X73514Y-31501D01*
X73667Y-31660D01*
X73848Y-31786D01*
X74050Y-31874D01*
X74266Y-31921D01*
X74486Y-31926D01*
X74703Y-31888D01*
X74909Y-31808D01*
X75095Y-31690D01*
X75255Y-31538D01*
X75382Y-31358D01*
X75471Y-31156D01*
X75520Y-30941D01*
X75524Y-30689D01*
X75524Y-54739D01*
X75481Y-54523D01*
X75440Y-54423D01*
X75440Y-38683D01*
X74866Y-38110D01*
X73451Y-38110D01*
X73871Y-37690D01*
X74713Y-37690D01*
X74740Y-37684D01*
X74766Y-37674D01*
X74788Y-37659D01*
X74808Y-37639D01*
X74823Y-37616D01*
X74834Y-37591D01*
X74839Y-37564D01*
X74840Y-37537D01*
X74840Y-36766D01*
X74840Y-32987D01*
X74815Y-32864D01*
X74767Y-32748D01*
X74698Y-32643D01*
X74609Y-32554D01*
X74505Y-32484D01*
X74390Y-32435D01*
X74267Y-32410D01*
X74141Y-32409D01*
X74018Y-32433D01*
X73902Y-32480D01*
X73797Y-32548D01*
X73707Y-32636D01*
X73636Y-32740D01*
X73587Y-32855D01*
X73560Y-32978D01*
X73559Y-33103D01*
X73581Y-33227D01*
X73628Y-33343D01*
X73696Y-33449D01*
X73783Y-33539D01*
X73886Y-33611D01*
X74001Y-33661D01*
X74123Y-33688D01*
X74249Y-33691D01*
X74372Y-33669D01*
X74489Y-33624D01*
X74595Y-33556D01*
X74686Y-33470D01*
X74759Y-33367D01*
X74810Y-33252D01*
X74838Y-33130D01*
X74840Y-32987D01*
X74840Y-36766D01*
X74840Y-36536D01*
X74834Y-36509D01*
X74824Y-36483D01*
X74809Y-36461D01*
X74789Y-36441D01*
X74766Y-36426D01*
X74741Y-36415D01*
X74714Y-36410D01*
X74687Y-36409D01*
X73686Y-36409D01*
X73659Y-36415D01*
X73633Y-36425D01*
X73611Y-36440D01*
X73591Y-36460D01*
X73576Y-36483D01*
X73565Y-36508D01*
X73560Y-36535D01*
X73559Y-36562D01*
X73559Y-37378D01*
X72828Y-38110D01*
X69990Y-38110D01*
X69990Y-35901D01*
X69971Y-35807D01*
X69940Y-35731D01*
X69940Y-30937D01*
X69915Y-30814D01*
X69867Y-30698D01*
X69798Y-30593D01*
X69709Y-30504D01*
X69605Y-30434D01*
X69490Y-30385D01*
X69367Y-30360D01*
X69241Y-30359D01*
X69118Y-30383D01*
X69002Y-30430D01*
X68897Y-30498D01*
X68807Y-30586D01*
X68736Y-30690D01*
X68687Y-30805D01*
X68660Y-30928D01*
X68659Y-31053D01*
X68681Y-31177D01*
X68728Y-31293D01*
X68796Y-31399D01*
X68883Y-31489D01*
X68986Y-31561D01*
X69101Y-31611D01*
X69223Y-31638D01*
X69349Y-31641D01*
X69472Y-31619D01*
X69589Y-31574D01*
X69695Y-31506D01*
X69786Y-31420D01*
X69859Y-31317D01*
X69910Y-31202D01*
X69938Y-31080D01*
X69940Y-30937D01*
X69940Y-35731D01*
X69934Y-35718D01*
X69881Y-35638D01*
X69813Y-35570D01*
X69734Y-35516D01*
X69645Y-35479D01*
X69551Y-35460D01*
X69455Y-35459D01*
X69360Y-35477D01*
X69274Y-35512D01*
X69274Y-33153D01*
X69256Y-33062D01*
X69221Y-32976D01*
X69169Y-32898D01*
X69104Y-32832D01*
X69026Y-32780D01*
X68941Y-32744D01*
X68849Y-32725D01*
X68756Y-32725D01*
X68665Y-32742D01*
X68579Y-32777D01*
X68501Y-32828D01*
X68434Y-32893D01*
X68382Y-32970D01*
X68345Y-33055D01*
X68326Y-33146D01*
X68324Y-33239D01*
X68341Y-33331D01*
X68375Y-33418D01*
X68426Y-33496D01*
X68490Y-33563D01*
X68567Y-33616D01*
X68652Y-33653D01*
X68743Y-33673D01*
X68836Y-33675D01*
X68928Y-33659D01*
X69015Y-33625D01*
X69093Y-33575D01*
X69161Y-33511D01*
X69214Y-33435D01*
X69252Y-33350D01*
X69273Y-33259D01*
X69274Y-33153D01*
X69274Y-35512D01*
X69271Y-35513D01*
X69191Y-35566D01*
X69122Y-35633D01*
X69068Y-35712D01*
X69030Y-35801D01*
X69010Y-35895D01*
X69009Y-35991D01*
X69026Y-36085D01*
X69062Y-36175D01*
X69114Y-36255D01*
X69180Y-36324D01*
X69259Y-36379D01*
X69347Y-36418D01*
X69441Y-36438D01*
X69537Y-36440D01*
X69632Y-36424D01*
X69721Y-36389D01*
X69803Y-36337D01*
X69872Y-36271D01*
X69928Y-36193D01*
X69967Y-36105D01*
X69988Y-36011D01*
X69990Y-35901D01*
X69990Y-38110D01*
X68215Y-38110D01*
X68215Y-35859D01*
X68199Y-35779D01*
X68168Y-35704D01*
X68123Y-35636D01*
X68065Y-35578D01*
X67998Y-35533D01*
X67923Y-35501D01*
X67843Y-35485D01*
X67762Y-35484D01*
X67682Y-35499D01*
X67606Y-35530D01*
X67538Y-35575D01*
X67480Y-35631D01*
X67434Y-35699D01*
X67402Y-35773D01*
X67385Y-35853D01*
X67384Y-35934D01*
X67399Y-36014D01*
X67429Y-36090D01*
X67473Y-36159D01*
X67529Y-36217D01*
X67596Y-36264D01*
X67671Y-36296D01*
X67750Y-36314D01*
X67831Y-36315D01*
X67912Y-36301D01*
X67988Y-36272D01*
X68056Y-36228D01*
X68115Y-36172D01*
X68162Y-36105D01*
X68195Y-36031D01*
X68213Y-35952D01*
X68215Y-35859D01*
X68215Y-38110D01*
X65866Y-38110D01*
X65515Y-37758D01*
X65515Y-37096D01*
X66755Y-35855D01*
X66768Y-35839D01*
X66781Y-35824D01*
X66782Y-35823D01*
X66782Y-35822D01*
X66792Y-35804D01*
X66802Y-35786D01*
X66802Y-35785D01*
X66803Y-35784D01*
X66809Y-35765D01*
X66815Y-35745D01*
X66815Y-35744D01*
X66815Y-35743D01*
X66817Y-35723D01*
X66819Y-35703D01*
X66819Y-35700D01*
X66819Y-35700D01*
X66819Y-35700D01*
X66820Y-35700D01*
X66820Y-34236D01*
X67540Y-33516D01*
X67540Y-31983D01*
X66776Y-31219D01*
X66770Y-31212D01*
X66757Y-31196D01*
X66756Y-31195D01*
X66756Y-31194D01*
X66756Y-31194D01*
X66755Y-31194D01*
X66240Y-30678D01*
X66240Y-30236D01*
X66234Y-30209D01*
X66224Y-30183D01*
X66209Y-30161D01*
X66189Y-30141D01*
X66166Y-30126D01*
X66141Y-30115D01*
X66114Y-30110D01*
X66087Y-30109D01*
X65486Y-30109D01*
X65486Y-30110D01*
X64804Y-30110D01*
X64759Y-30109D01*
X64758Y-30110D01*
X63804Y-30110D01*
X63759Y-30109D01*
X63758Y-30110D01*
X62804Y-30110D01*
X62759Y-30109D01*
X62758Y-30110D01*
X61804Y-30110D01*
X61759Y-30109D01*
X61675Y-30125D01*
X61595Y-30158D01*
X61522Y-30205D01*
X61461Y-30265D01*
X61412Y-30337D01*
X61378Y-30416D01*
X61360Y-30500D01*
X61359Y-30586D01*
X61374Y-30671D01*
X61402Y-30741D01*
X61083Y-31060D01*
X60466Y-31060D01*
X60240Y-30833D01*
X60240Y-30236D01*
X60234Y-30209D01*
X60224Y-30183D01*
X60209Y-30161D01*
X60189Y-30141D01*
X60166Y-30126D01*
X60141Y-30115D01*
X60114Y-30110D01*
X60087Y-30109D01*
X59486Y-30109D01*
X59486Y-30110D01*
X58804Y-30110D01*
X58759Y-30109D01*
X58758Y-30110D01*
X57804Y-30110D01*
X57759Y-30109D01*
X57758Y-30110D01*
X56804Y-30110D01*
X56759Y-30109D01*
X56758Y-30110D01*
X55804Y-30110D01*
X55759Y-30109D01*
X55675Y-30125D01*
X55595Y-30158D01*
X55522Y-30205D01*
X55461Y-30265D01*
X55412Y-30337D01*
X55378Y-30416D01*
X55360Y-30500D01*
X55359Y-30586D01*
X55374Y-30671D01*
X55402Y-30741D01*
X55083Y-31060D01*
X54466Y-31060D01*
X54240Y-30833D01*
X54240Y-30236D01*
X54234Y-30209D01*
X54224Y-30183D01*
X54209Y-30161D01*
X54189Y-30141D01*
X54166Y-30126D01*
X54141Y-30115D01*
X54114Y-30110D01*
X54087Y-30109D01*
X53486Y-30109D01*
X53486Y-30110D01*
X52804Y-30110D01*
X52759Y-30109D01*
X52758Y-30110D01*
X51804Y-30110D01*
X51759Y-30109D01*
X51675Y-30125D01*
X51595Y-30158D01*
X51522Y-30205D01*
X51461Y-30265D01*
X51412Y-30337D01*
X51378Y-30416D01*
X51360Y-30500D01*
X51359Y-30586D01*
X51374Y-30671D01*
X51402Y-30741D01*
X51149Y-30993D01*
X51143Y-30995D01*
X51142Y-30996D01*
X51141Y-30996D01*
X51123Y-31006D01*
X51105Y-31015D01*
X51104Y-31016D01*
X51103Y-31016D01*
X51087Y-31029D01*
X51071Y-31042D01*
X51070Y-31043D01*
X51069Y-31043D01*
X51069Y-31043D01*
X51069Y-31044D01*
X51053Y-31060D01*
X50466Y-31060D01*
X50240Y-30833D01*
X50240Y-30236D01*
X50234Y-30209D01*
X50224Y-30183D01*
X50209Y-30161D01*
X50189Y-30141D01*
X50166Y-30126D01*
X50141Y-30115D01*
X50114Y-30110D01*
X50087Y-30109D01*
X49486Y-30109D01*
X49486Y-30110D01*
X48804Y-30110D01*
X48759Y-30109D01*
X48758Y-30110D01*
X47804Y-30110D01*
X47759Y-30109D01*
X47758Y-30110D01*
X46804Y-30110D01*
X46759Y-30109D01*
X46758Y-30110D01*
X45804Y-30110D01*
X45759Y-30109D01*
X45758Y-30110D01*
X45735Y-30110D01*
X45735Y-30114D01*
X45675Y-30125D01*
X45595Y-30158D01*
X45522Y-30205D01*
X45461Y-30265D01*
X45412Y-30337D01*
X45378Y-30416D01*
X45360Y-30500D01*
X45359Y-30586D01*
X45374Y-30671D01*
X45402Y-30741D01*
X45163Y-30980D01*
X44591Y-30980D01*
X44240Y-30628D01*
X44240Y-30236D01*
X44234Y-30209D01*
X44224Y-30183D01*
X44209Y-30161D01*
X44189Y-30141D01*
X44166Y-30126D01*
X44141Y-30115D01*
X44114Y-30110D01*
X44087Y-30109D01*
X43486Y-30109D01*
X43486Y-30110D01*
X42804Y-30110D01*
X42759Y-30109D01*
X42675Y-30125D01*
X42595Y-30158D01*
X42522Y-30205D01*
X42461Y-30265D01*
X42412Y-30337D01*
X42378Y-30416D01*
X42360Y-30500D01*
X42359Y-30586D01*
X42374Y-30671D01*
X42406Y-30752D01*
X42453Y-30824D01*
X42513Y-30886D01*
X42584Y-30935D01*
X42656Y-30967D01*
X42685Y-30996D01*
X42685Y-32188D01*
X42683Y-32192D01*
X42665Y-32276D01*
X42664Y-32361D01*
X42679Y-32445D01*
X42685Y-32459D01*
X42685Y-33188D01*
X42683Y-33192D01*
X42665Y-33276D01*
X42664Y-33328D01*
X42240Y-33753D01*
X42240Y-30506D01*
X42223Y-30422D01*
X42190Y-30342D01*
X42142Y-30270D01*
X42081Y-30209D01*
X42010Y-30161D01*
X41930Y-30127D01*
X41846Y-30110D01*
X41759Y-30109D01*
X41675Y-30125D01*
X41595Y-30158D01*
X41522Y-30205D01*
X41461Y-30265D01*
X41412Y-30337D01*
X41378Y-30416D01*
X41360Y-30500D01*
X41359Y-30586D01*
X41374Y-30671D01*
X41406Y-30752D01*
X41453Y-30824D01*
X41513Y-30886D01*
X41584Y-30935D01*
X41663Y-30970D01*
X41747Y-30989D01*
X41833Y-30990D01*
X41918Y-30975D01*
X41999Y-30944D01*
X42072Y-30898D01*
X42134Y-30838D01*
X42184Y-30768D01*
X42219Y-30689D01*
X42238Y-30605D01*
X42240Y-30506D01*
X42240Y-33753D01*
X42113Y-33880D01*
X40700Y-33880D01*
X40679Y-33881D01*
X40659Y-33883D01*
X40658Y-33884D01*
X40657Y-33884D01*
X40637Y-33890D01*
X40618Y-33895D01*
X40617Y-33896D01*
X40616Y-33896D01*
X40598Y-33906D01*
X40580Y-33915D01*
X40579Y-33916D01*
X40578Y-33916D01*
X40562Y-33929D01*
X40546Y-33942D01*
X40545Y-33943D01*
X40544Y-33943D01*
X40544Y-33943D01*
X40544Y-33944D01*
X40410Y-34078D01*
X40345Y-34065D01*
X40260Y-34064D01*
X40176Y-34080D01*
X40097Y-34112D01*
X40025Y-34159D01*
X39964Y-34218D01*
X39916Y-34289D01*
X39883Y-34367D01*
X39865Y-34451D01*
X39864Y-34536D01*
X39879Y-34620D01*
X39910Y-34697D01*
X39910Y-35304D01*
X39883Y-35367D01*
X39865Y-35451D01*
X39864Y-35536D01*
X39879Y-35620D01*
X39910Y-35697D01*
X39910Y-36304D01*
X39883Y-36367D01*
X39865Y-36451D01*
X39864Y-36536D01*
X39879Y-36620D01*
X39910Y-36697D01*
X39910Y-37304D01*
X39883Y-37367D01*
X39865Y-37451D01*
X39864Y-37536D01*
X39879Y-37620D01*
X39910Y-37697D01*
X39910Y-38304D01*
X39883Y-38367D01*
X39865Y-38451D01*
X39864Y-38536D01*
X39879Y-38620D01*
X39910Y-38697D01*
X39910Y-39304D01*
X39883Y-39367D01*
X39865Y-39451D01*
X39864Y-39536D01*
X39879Y-39620D01*
X39910Y-39697D01*
X39910Y-40304D01*
X39883Y-40367D01*
X39865Y-40451D01*
X39864Y-40536D01*
X39879Y-40620D01*
X39910Y-40697D01*
X39910Y-41304D01*
X39883Y-41367D01*
X39865Y-41451D01*
X39864Y-41536D01*
X39879Y-41620D01*
X39910Y-41697D01*
X39910Y-42304D01*
X39883Y-42367D01*
X39865Y-42451D01*
X39864Y-42536D01*
X39879Y-42620D01*
X39910Y-42697D01*
X39910Y-43304D01*
X39883Y-43367D01*
X39865Y-43451D01*
X39864Y-43536D01*
X39879Y-43620D01*
X39910Y-43697D01*
X39910Y-44304D01*
X39883Y-44367D01*
X39865Y-44451D01*
X39864Y-44536D01*
X39879Y-44620D01*
X39910Y-44697D01*
X39910Y-45304D01*
X39883Y-45367D01*
X39865Y-45451D01*
X39864Y-45536D01*
X39879Y-45620D01*
X39910Y-45699D01*
X39957Y-45771D01*
X40016Y-45833D01*
X40086Y-45881D01*
X40164Y-45915D01*
X40248Y-45934D01*
X40333Y-45936D01*
X40417Y-45921D01*
X40497Y-45890D01*
X40569Y-45844D01*
X40631Y-45785D01*
X40680Y-45716D01*
X40715Y-45638D01*
X40733Y-45554D01*
X40735Y-45457D01*
X40721Y-45389D01*
X42571Y-43540D01*
X43783Y-43540D01*
X43846Y-43540D01*
X52283Y-43540D01*
X52460Y-43716D01*
X52460Y-45216D01*
X53783Y-46540D01*
X56216Y-46540D01*
X57540Y-45216D01*
X57540Y-44771D01*
X58305Y-44005D01*
X58318Y-43989D01*
X58331Y-43974D01*
X58332Y-43973D01*
X58332Y-43972D01*
X58342Y-43954D01*
X58352Y-43936D01*
X58352Y-43935D01*
X58353Y-43934D01*
X58359Y-43915D01*
X58365Y-43895D01*
X58365Y-43894D01*
X58365Y-43893D01*
X58367Y-43873D01*
X58369Y-43853D01*
X58369Y-43850D01*
X58369Y-43850D01*
X58369Y-43850D01*
X58370Y-43850D01*
X58370Y-42340D01*
X58528Y-42340D01*
X59080Y-42891D01*
X59080Y-45508D01*
X58608Y-45980D01*
X57700Y-45980D01*
X57679Y-45981D01*
X57659Y-45983D01*
X57658Y-45984D01*
X57657Y-45984D01*
X57637Y-45990D01*
X57618Y-45995D01*
X57617Y-45996D01*
X57616Y-45996D01*
X57598Y-46006D01*
X57580Y-46015D01*
X57579Y-46016D01*
X57578Y-46016D01*
X57562Y-46029D01*
X57546Y-46042D01*
X57545Y-46043D01*
X57544Y-46043D01*
X57544Y-46043D01*
X57544Y-46044D01*
X56308Y-47280D01*
X54586Y-47280D01*
X54584Y-47277D01*
X54537Y-47245D01*
X54485Y-47224D01*
X54430Y-47212D01*
X54373Y-47212D01*
X54318Y-47222D01*
X54266Y-47243D01*
X54218Y-47274D01*
X54178Y-47314D01*
X54146Y-47360D01*
X54124Y-47412D01*
X54112Y-47467D01*
X54112Y-47510D01*
X54110Y-47510D01*
X54110Y-48583D01*
X53913Y-48780D01*
X53322Y-48780D01*
X53322Y-46859D01*
X53306Y-46779D01*
X53275Y-46704D01*
X53230Y-46636D01*
X53172Y-46578D01*
X53105Y-46533D01*
X53030Y-46501D01*
X52950Y-46485D01*
X52869Y-46484D01*
X52789Y-46499D01*
X52713Y-46530D01*
X52645Y-46575D01*
X52587Y-46631D01*
X52541Y-46699D01*
X52509Y-46773D01*
X52492Y-46853D01*
X52491Y-46934D01*
X52506Y-47014D01*
X52536Y-47090D01*
X52580Y-47159D01*
X52636Y-47217D01*
X52703Y-47264D01*
X52778Y-47296D01*
X52857Y-47314D01*
X52939Y-47315D01*
X53019Y-47301D01*
X53095Y-47272D01*
X53163Y-47228D01*
X53222Y-47172D01*
X53269Y-47105D01*
X53302Y-47031D01*
X53320Y-46952D01*
X53322Y-46859D01*
X53322Y-48780D01*
X52615Y-48780D01*
X52615Y-47566D01*
X52599Y-47486D01*
X52568Y-47411D01*
X52523Y-47343D01*
X52465Y-47285D01*
X52398Y-47240D01*
X52323Y-47208D01*
X52243Y-47192D01*
X52162Y-47191D01*
X52082Y-47207D01*
X52021Y-47231D01*
X52021Y-46886D01*
X52016Y-46859D01*
X52006Y-46834D01*
X51991Y-46811D01*
X51971Y-46791D01*
X51582Y-46402D01*
X51559Y-46387D01*
X51534Y-46376D01*
X51507Y-46371D01*
X51479Y-46371D01*
X51452Y-46376D01*
X51427Y-46386D01*
X51404Y-46401D01*
X51384Y-46421D01*
X51333Y-46472D01*
X50405Y-45544D01*
X50389Y-45531D01*
X50374Y-45518D01*
X50373Y-45517D01*
X50372Y-45517D01*
X50354Y-45507D01*
X50336Y-45497D01*
X50335Y-45497D01*
X50334Y-45496D01*
X50315Y-45490D01*
X50295Y-45484D01*
X50294Y-45484D01*
X50293Y-45484D01*
X50273Y-45482D01*
X50253Y-45480D01*
X50250Y-45480D01*
X50250Y-45480D01*
X50250Y-45480D01*
X50250Y-45480D01*
X49422Y-45480D01*
X49421Y-45476D01*
X49369Y-45398D01*
X49304Y-45332D01*
X49226Y-45280D01*
X49220Y-45277D01*
X49220Y-44851D01*
X49256Y-44828D01*
X49315Y-44772D01*
X49362Y-44705D01*
X49395Y-44631D01*
X49413Y-44552D01*
X49415Y-44459D01*
X49399Y-44379D01*
X49368Y-44304D01*
X49323Y-44236D01*
X49265Y-44178D01*
X49198Y-44133D01*
X49123Y-44101D01*
X49043Y-44085D01*
X48962Y-44084D01*
X48882Y-44099D01*
X48806Y-44130D01*
X48738Y-44175D01*
X48680Y-44231D01*
X48647Y-44280D01*
X46539Y-44280D01*
X46534Y-44268D01*
X46481Y-44188D01*
X46413Y-44120D01*
X46334Y-44066D01*
X46245Y-44029D01*
X46151Y-44010D01*
X46055Y-44009D01*
X45960Y-44027D01*
X45871Y-44063D01*
X45791Y-44116D01*
X45722Y-44183D01*
X45668Y-44262D01*
X45630Y-44351D01*
X45610Y-44445D01*
X45609Y-44541D01*
X45626Y-44635D01*
X45662Y-44725D01*
X45714Y-44805D01*
X45780Y-44874D01*
X45859Y-44929D01*
X45947Y-44968D01*
X46041Y-44988D01*
X46137Y-44990D01*
X46232Y-44974D01*
X46321Y-44939D01*
X46403Y-44887D01*
X46472Y-44821D01*
X46528Y-44743D01*
X46538Y-44720D01*
X48648Y-44720D01*
X48673Y-44759D01*
X48729Y-44817D01*
X48780Y-44852D01*
X48780Y-45276D01*
X48779Y-45277D01*
X48701Y-45328D01*
X48634Y-45393D01*
X48582Y-45470D01*
X48545Y-45555D01*
X48526Y-45646D01*
X48524Y-45739D01*
X48541Y-45831D01*
X48575Y-45918D01*
X48626Y-45996D01*
X48690Y-46063D01*
X48767Y-46116D01*
X48852Y-46153D01*
X48943Y-46173D01*
X49036Y-46175D01*
X49128Y-46159D01*
X49215Y-46125D01*
X49293Y-46075D01*
X49361Y-46011D01*
X49414Y-45935D01*
X49421Y-45920D01*
X50158Y-45920D01*
X51022Y-46783D01*
X50995Y-46810D01*
X50980Y-46833D01*
X50969Y-46858D01*
X50964Y-46885D01*
X50963Y-46913D01*
X50969Y-46940D01*
X50979Y-46965D01*
X50994Y-46988D01*
X51013Y-47008D01*
X51403Y-47397D01*
X51426Y-47412D01*
X51451Y-47423D01*
X51478Y-47428D01*
X51506Y-47428D01*
X51533Y-47423D01*
X51558Y-47413D01*
X51581Y-47398D01*
X51600Y-47378D01*
X51990Y-46989D01*
X52005Y-46966D01*
X52016Y-46941D01*
X52021Y-46914D01*
X52021Y-46886D01*
X52021Y-47231D01*
X52006Y-47237D01*
X51938Y-47282D01*
X51880Y-47339D01*
X51834Y-47406D01*
X51802Y-47481D01*
X51785Y-47560D01*
X51784Y-47642D01*
X51791Y-47680D01*
X50491Y-47680D01*
X50104Y-47293D01*
X50113Y-47252D01*
X50115Y-47159D01*
X50099Y-47079D01*
X50068Y-47004D01*
X50023Y-46936D01*
X49965Y-46878D01*
X49898Y-46833D01*
X49823Y-46801D01*
X49743Y-46785D01*
X49662Y-46784D01*
X49582Y-46799D01*
X49506Y-46830D01*
X49438Y-46875D01*
X49380Y-46931D01*
X49334Y-46999D01*
X49302Y-47073D01*
X49285Y-47153D01*
X49284Y-47234D01*
X49299Y-47314D01*
X49329Y-47390D01*
X49373Y-47459D01*
X49429Y-47517D01*
X49496Y-47564D01*
X49571Y-47596D01*
X49650Y-47614D01*
X49731Y-47615D01*
X49793Y-47604D01*
X50244Y-48055D01*
X50260Y-48068D01*
X50275Y-48081D01*
X50276Y-48082D01*
X50277Y-48082D01*
X50295Y-48092D01*
X50313Y-48102D01*
X50314Y-48102D01*
X50315Y-48103D01*
X50334Y-48109D01*
X50354Y-48115D01*
X50355Y-48115D01*
X50356Y-48115D01*
X50376Y-48117D01*
X50396Y-48119D01*
X50399Y-48119D01*
X50399Y-48119D01*
X50399Y-48119D01*
X50400Y-48120D01*
X51907Y-48120D01*
X51927Y-48118D01*
X51947Y-48116D01*
X51948Y-48115D01*
X51949Y-48115D01*
X51969Y-48109D01*
X51988Y-48104D01*
X51989Y-48103D01*
X51990Y-48103D01*
X52008Y-48093D01*
X52026Y-48084D01*
X52027Y-48083D01*
X52028Y-48083D01*
X52044Y-48070D01*
X52060Y-48057D01*
X52062Y-48056D01*
X52062Y-48056D01*
X52062Y-48056D01*
X52062Y-48055D01*
X52106Y-48011D01*
X52150Y-48021D01*
X52231Y-48022D01*
X52312Y-48008D01*
X52388Y-47979D01*
X52456Y-47935D01*
X52515Y-47879D01*
X52562Y-47813D01*
X52595Y-47738D01*
X52613Y-47659D01*
X52615Y-47566D01*
X52615Y-48780D01*
X49941Y-48780D01*
X49070Y-47908D01*
X49070Y-46600D01*
X49068Y-46579D01*
X49066Y-46559D01*
X49065Y-46558D01*
X49065Y-46557D01*
X49059Y-46537D01*
X49054Y-46518D01*
X49053Y-46517D01*
X49053Y-46516D01*
X49043Y-46498D01*
X49034Y-46480D01*
X49033Y-46479D01*
X49033Y-46478D01*
X49020Y-46462D01*
X49007Y-46446D01*
X49006Y-46445D01*
X49006Y-46444D01*
X49006Y-46444D01*
X49005Y-46444D01*
X47805Y-45244D01*
X47789Y-45231D01*
X47774Y-45218D01*
X47773Y-45217D01*
X47772Y-45217D01*
X47754Y-45207D01*
X47736Y-45197D01*
X47735Y-45197D01*
X47734Y-45196D01*
X47715Y-45190D01*
X47695Y-45184D01*
X47694Y-45184D01*
X47693Y-45184D01*
X47673Y-45182D01*
X47653Y-45180D01*
X47650Y-45180D01*
X47650Y-45180D01*
X47650Y-45180D01*
X47650Y-45180D01*
X41836Y-45180D01*
X41834Y-45177D01*
X41787Y-45145D01*
X41735Y-45124D01*
X41680Y-45112D01*
X41623Y-45112D01*
X41568Y-45122D01*
X41516Y-45143D01*
X41468Y-45174D01*
X41428Y-45214D01*
X41396Y-45260D01*
X41374Y-45312D01*
X41362Y-45367D01*
X41362Y-45424D01*
X41372Y-45479D01*
X41393Y-45532D01*
X41423Y-45579D01*
X41443Y-45599D01*
X41439Y-45604D01*
X42076Y-46082D01*
X42112Y-46120D01*
X42159Y-46152D01*
X42210Y-46174D01*
X42265Y-46186D01*
X42322Y-46188D01*
X42377Y-46178D01*
X42430Y-46157D01*
X42477Y-46127D01*
X42485Y-46120D01*
X47458Y-46120D01*
X48230Y-46891D01*
X48230Y-48200D01*
X48231Y-48220D01*
X48233Y-48240D01*
X48234Y-48241D01*
X48234Y-48242D01*
X48240Y-48262D01*
X48245Y-48281D01*
X48246Y-48282D01*
X48246Y-48283D01*
X48256Y-48301D01*
X48265Y-48319D01*
X48266Y-48320D01*
X48266Y-48321D01*
X48279Y-48337D01*
X48292Y-48353D01*
X48293Y-48354D01*
X48293Y-48355D01*
X48293Y-48355D01*
X48294Y-48355D01*
X49494Y-49555D01*
X49510Y-49568D01*
X49525Y-49581D01*
X49526Y-49582D01*
X49527Y-49582D01*
X49545Y-49592D01*
X49563Y-49602D01*
X49564Y-49602D01*
X49565Y-49603D01*
X49584Y-49609D01*
X49604Y-49615D01*
X49605Y-49615D01*
X49606Y-49615D01*
X49626Y-49617D01*
X49646Y-49619D01*
X49649Y-49619D01*
X49649Y-49619D01*
X49649Y-49619D01*
X49650Y-49620D01*
X50963Y-49620D01*
X51135Y-49791D01*
X51135Y-50508D01*
X50963Y-50680D01*
X50115Y-50680D01*
X50115Y-50159D01*
X50099Y-50079D01*
X50068Y-50004D01*
X50023Y-49936D01*
X49965Y-49878D01*
X49898Y-49833D01*
X49823Y-49801D01*
X49743Y-49785D01*
X49662Y-49784D01*
X49582Y-49799D01*
X49506Y-49830D01*
X49438Y-49875D01*
X49380Y-49931D01*
X49334Y-49999D01*
X49302Y-50073D01*
X49285Y-50153D01*
X49284Y-50234D01*
X49299Y-50314D01*
X49329Y-50390D01*
X49373Y-50459D01*
X49429Y-50517D01*
X49496Y-50564D01*
X49571Y-50596D01*
X49650Y-50614D01*
X49731Y-50615D01*
X49812Y-50601D01*
X49888Y-50572D01*
X49956Y-50528D01*
X50015Y-50472D01*
X50062Y-50405D01*
X50095Y-50331D01*
X50113Y-50252D01*
X50115Y-50159D01*
X50115Y-50680D01*
X50100Y-50680D01*
X50079Y-50681D01*
X50059Y-50683D01*
X50058Y-50684D01*
X50057Y-50684D01*
X50037Y-50690D01*
X50018Y-50695D01*
X50017Y-50696D01*
X50016Y-50696D01*
X49998Y-50706D01*
X49980Y-50715D01*
X49979Y-50716D01*
X49978Y-50716D01*
X49962Y-50729D01*
X49946Y-50742D01*
X49945Y-50743D01*
X49944Y-50743D01*
X49944Y-50743D01*
X49944Y-50744D01*
X48944Y-51744D01*
X48931Y-51760D01*
X48922Y-51771D01*
X48660Y-52033D01*
X48660Y-52260D01*
X48660Y-52290D01*
X48660Y-53266D01*
X48666Y-53272D01*
X48665Y-53276D01*
X48664Y-53361D01*
X48679Y-53445D01*
X48710Y-53524D01*
X48757Y-53596D01*
X48816Y-53658D01*
X48849Y-53680D01*
X49360Y-54191D01*
X49360Y-55095D01*
X49359Y-55136D01*
X49374Y-55221D01*
X49406Y-55302D01*
X49453Y-55374D01*
X49513Y-55436D01*
X49584Y-55485D01*
X49663Y-55520D01*
X49747Y-55539D01*
X49760Y-55539D01*
X49760Y-55540D01*
X49794Y-55540D01*
X49833Y-55540D01*
X49838Y-55540D01*
X50794Y-55540D01*
X50833Y-55540D01*
X50838Y-55540D01*
X51498Y-55540D01*
X51512Y-55540D01*
X52113Y-55540D01*
X52140Y-55534D01*
X52166Y-55524D01*
X52188Y-55509D01*
X52208Y-55489D01*
X52223Y-55466D01*
X52234Y-55441D01*
X52239Y-55414D01*
X52240Y-55387D01*
X52240Y-54816D01*
X52466Y-54590D01*
X53083Y-54590D01*
X53402Y-54909D01*
X53378Y-54966D01*
X53360Y-55050D01*
X53359Y-55136D01*
X53374Y-55221D01*
X53406Y-55302D01*
X53453Y-55374D01*
X53513Y-55436D01*
X53584Y-55485D01*
X53663Y-55520D01*
X53736Y-55536D01*
X53735Y-55540D01*
X53794Y-55540D01*
X53833Y-55540D01*
X53838Y-55540D01*
X54794Y-55540D01*
X54833Y-55540D01*
X54838Y-55540D01*
X55498Y-55540D01*
X55512Y-55540D01*
X56113Y-55540D01*
X56140Y-55534D01*
X56166Y-55524D01*
X56188Y-55509D01*
X56208Y-55489D01*
X56223Y-55466D01*
X56234Y-55441D01*
X56239Y-55414D01*
X56240Y-55387D01*
X56240Y-54971D01*
X56621Y-54590D01*
X57083Y-54590D01*
X57402Y-54909D01*
X57378Y-54966D01*
X57360Y-55050D01*
X57359Y-55136D01*
X57374Y-55221D01*
X57406Y-55302D01*
X57453Y-55374D01*
X57513Y-55436D01*
X57584Y-55485D01*
X57663Y-55520D01*
X57747Y-55539D01*
X57760Y-55539D01*
X57760Y-55540D01*
X57794Y-55540D01*
X57833Y-55540D01*
X57838Y-55540D01*
X58794Y-55540D01*
X58833Y-55540D01*
X58838Y-55540D01*
X59498Y-55540D01*
X59512Y-55540D01*
X60113Y-55540D01*
X60140Y-55534D01*
X60166Y-55524D01*
X60188Y-55509D01*
X60208Y-55489D01*
X60223Y-55466D01*
X60234Y-55441D01*
X60239Y-55414D01*
X60240Y-55387D01*
X60240Y-54916D01*
X60466Y-54690D01*
X61183Y-54690D01*
X61402Y-54909D01*
X61378Y-54966D01*
X61360Y-55050D01*
X61359Y-55136D01*
X61374Y-55221D01*
X61406Y-55302D01*
X61453Y-55374D01*
X61513Y-55436D01*
X61584Y-55485D01*
X61663Y-55520D01*
X61747Y-55539D01*
X61760Y-55539D01*
X61760Y-55540D01*
X61794Y-55540D01*
X61833Y-55540D01*
X61838Y-55540D01*
X62794Y-55540D01*
X62833Y-55540D01*
X62838Y-55540D01*
X63498Y-55540D01*
X63512Y-55540D01*
X64113Y-55540D01*
X64140Y-55534D01*
X64166Y-55524D01*
X64188Y-55509D01*
X64208Y-55489D01*
X64223Y-55466D01*
X64234Y-55441D01*
X64239Y-55414D01*
X64240Y-55387D01*
X64240Y-54916D01*
X64536Y-54620D01*
X66008Y-54620D01*
X66360Y-54971D01*
X66360Y-55095D01*
X66359Y-55136D01*
X66374Y-55221D01*
X66406Y-55302D01*
X66453Y-55374D01*
X66513Y-55436D01*
X66584Y-55485D01*
X66663Y-55520D01*
X66747Y-55539D01*
X66760Y-55539D01*
X66760Y-55540D01*
X66794Y-55540D01*
X66833Y-55540D01*
X66838Y-55540D01*
X67498Y-55540D01*
X67512Y-55540D01*
X68113Y-55540D01*
X68140Y-55534D01*
X68166Y-55524D01*
X68188Y-55509D01*
X68208Y-55489D01*
X68223Y-55466D01*
X68234Y-55441D01*
X68239Y-55414D01*
X68240Y-55387D01*
X68240Y-54786D01*
X68234Y-54759D01*
X68224Y-54733D01*
X68209Y-54711D01*
X68189Y-54691D01*
X68166Y-54676D01*
X68141Y-54665D01*
X68114Y-54660D01*
X68087Y-54659D01*
X67671Y-54659D01*
X67535Y-54524D01*
X67535Y-53282D01*
X67535Y-52282D01*
X67518Y-52198D01*
X67486Y-52119D01*
X67438Y-52048D01*
X67378Y-51987D01*
X67308Y-51940D01*
X67229Y-51907D01*
X67145Y-51890D01*
X67060Y-51889D01*
X66976Y-51905D01*
X66897Y-51937D01*
X66825Y-51984D01*
X66764Y-52043D01*
X66716Y-52114D01*
X66683Y-52192D01*
X66665Y-52276D01*
X66664Y-52361D01*
X66679Y-52445D01*
X66710Y-52524D01*
X66757Y-52596D01*
X66816Y-52658D01*
X66886Y-52706D01*
X66964Y-52740D01*
X67048Y-52759D01*
X67133Y-52761D01*
X67217Y-52746D01*
X67297Y-52715D01*
X67369Y-52669D01*
X67431Y-52610D01*
X67480Y-52541D01*
X67515Y-52463D01*
X67533Y-52379D01*
X67535Y-52282D01*
X67535Y-53282D01*
X67518Y-53198D01*
X67486Y-53119D01*
X67438Y-53048D01*
X67378Y-52987D01*
X67308Y-52940D01*
X67229Y-52907D01*
X67145Y-52890D01*
X67060Y-52889D01*
X66976Y-52905D01*
X66897Y-52937D01*
X66825Y-52984D01*
X66764Y-53043D01*
X66716Y-53114D01*
X66683Y-53192D01*
X66665Y-53276D01*
X66664Y-53361D01*
X66679Y-53445D01*
X66710Y-53524D01*
X66757Y-53596D01*
X66816Y-53658D01*
X66886Y-53706D01*
X66964Y-53740D01*
X67048Y-53759D01*
X67133Y-53761D01*
X67217Y-53746D01*
X67297Y-53715D01*
X67369Y-53669D01*
X67431Y-53610D01*
X67480Y-53541D01*
X67515Y-53463D01*
X67533Y-53379D01*
X67535Y-53282D01*
X67535Y-54524D01*
X66755Y-53744D01*
X66739Y-53731D01*
X66724Y-53718D01*
X66723Y-53717D01*
X66722Y-53717D01*
X66704Y-53707D01*
X66686Y-53697D01*
X66685Y-53697D01*
X66684Y-53696D01*
X66665Y-53690D01*
X66645Y-53684D01*
X66644Y-53684D01*
X66643Y-53684D01*
X66623Y-53682D01*
X66603Y-53680D01*
X66600Y-53680D01*
X66600Y-53680D01*
X66600Y-53680D01*
X66600Y-53680D01*
X65786Y-53680D01*
X65540Y-53433D01*
X65540Y-52260D01*
X65530Y-52260D01*
X65518Y-52198D01*
X65486Y-52119D01*
X65438Y-52048D01*
X65378Y-51987D01*
X65308Y-51940D01*
X65229Y-51907D01*
X65145Y-51890D01*
X65140Y-51889D01*
X65140Y-51860D01*
X64768Y-51860D01*
X64757Y-51846D01*
X64756Y-51845D01*
X64756Y-51844D01*
X64756Y-51844D01*
X64755Y-51844D01*
X63955Y-51044D01*
X63939Y-51031D01*
X63924Y-51018D01*
X63923Y-51017D01*
X63922Y-51017D01*
X63904Y-51007D01*
X63886Y-50997D01*
X63885Y-50997D01*
X63884Y-50996D01*
X63865Y-50990D01*
X63845Y-50984D01*
X63844Y-50984D01*
X63843Y-50984D01*
X63823Y-50982D01*
X63803Y-50980D01*
X63800Y-50980D01*
X63800Y-50980D01*
X63800Y-50980D01*
X63800Y-50980D01*
X63086Y-50980D01*
X62590Y-50483D01*
X62590Y-47208D01*
X62592Y-47204D01*
X62602Y-47186D01*
X62602Y-47185D01*
X62603Y-47184D01*
X62609Y-47165D01*
X62615Y-47145D01*
X62615Y-47144D01*
X62615Y-47143D01*
X62617Y-47123D01*
X62619Y-47103D01*
X62619Y-47100D01*
X62619Y-47100D01*
X62619Y-47100D01*
X62620Y-47100D01*
X62620Y-40900D01*
X62618Y-40879D01*
X62616Y-40859D01*
X62615Y-40858D01*
X62615Y-40857D01*
X62609Y-40837D01*
X62604Y-40818D01*
X62603Y-40817D01*
X62603Y-40816D01*
X62593Y-40798D01*
X62584Y-40780D01*
X62583Y-40779D01*
X62583Y-40778D01*
X62570Y-40762D01*
X62557Y-40746D01*
X62556Y-40745D01*
X62556Y-40744D01*
X62556Y-40744D01*
X62555Y-40744D01*
X62440Y-40628D01*
X62440Y-40511D01*
X62648Y-40290D01*
X62778Y-40290D01*
X62980Y-40491D01*
X62980Y-47400D01*
X62981Y-47420D01*
X62983Y-47440D01*
X62984Y-47441D01*
X62984Y-47442D01*
X62990Y-47462D01*
X62995Y-47481D01*
X62996Y-47482D01*
X62996Y-47483D01*
X63006Y-47501D01*
X63015Y-47519D01*
X63016Y-47520D01*
X63016Y-47521D01*
X63029Y-47537D01*
X63042Y-47553D01*
X63043Y-47554D01*
X63043Y-47555D01*
X63043Y-47555D01*
X63044Y-47555D01*
X64960Y-49471D01*
X64960Y-50750D01*
X64960Y-50966D01*
X65433Y-51440D01*
X65703Y-51440D01*
X74416Y-51440D01*
X75339Y-50516D01*
X75342Y-50239D01*
X75345Y-50231D01*
X75363Y-50152D01*
X75365Y-50059D01*
X75349Y-49979D01*
X75344Y-49968D01*
X75350Y-49208D01*
X75363Y-49152D01*
X75365Y-49059D01*
X75352Y-48997D01*
X75359Y-48169D01*
X75363Y-48152D01*
X75365Y-48059D01*
X75360Y-48038D01*
X75440Y-38683D01*
X75440Y-54423D01*
X75397Y-54319D01*
X75275Y-54136D01*
X75120Y-53979D01*
X74937Y-53856D01*
X74734Y-53770D01*
X74518Y-53726D01*
X74297Y-53724D01*
X74081Y-53766D01*
X73876Y-53848D01*
X73692Y-53969D01*
X73534Y-54123D01*
X73410Y-54305D01*
X73323Y-54508D01*
X73277Y-54724D01*
X73274Y-54944D01*
X73314Y-55161D01*
X73395Y-55366D01*
X73514Y-55551D01*
X73667Y-55710D01*
X73848Y-55836D01*
X74050Y-55924D01*
X74266Y-55971D01*
X74486Y-55976D01*
X74703Y-55938D01*
X74909Y-55858D01*
X75095Y-55740D01*
X75255Y-55588D01*
X75382Y-55408D01*
X75471Y-55206D01*
X75520Y-54991D01*
X75524Y-54739D01*
X75524Y-55992D01*
X75297Y-56180D01*
X75021Y-56328D01*
X74722Y-56421D01*
X74404Y-56454D01*
X74399Y-56455D01*
X72519Y-56455D01*
X72519Y-54123D01*
X72519Y-52351D01*
X72495Y-52228D01*
X72447Y-52112D01*
X72377Y-52007D01*
X72289Y-51918D01*
X72185Y-51848D01*
X72069Y-51799D01*
X71946Y-51774D01*
X71821Y-51773D01*
X71697Y-51797D01*
X71581Y-51844D01*
X71476Y-51912D01*
X71386Y-52000D01*
X71315Y-52104D01*
X71266Y-52219D01*
X71240Y-52342D01*
X71238Y-52467D01*
X71261Y-52591D01*
X71307Y-52708D01*
X71375Y-52813D01*
X71462Y-52903D01*
X71565Y-52975D01*
X71680Y-53025D01*
X71803Y-53052D01*
X71928Y-53055D01*
X72052Y-53033D01*
X72169Y-52988D01*
X72275Y-52920D01*
X72366Y-52834D01*
X72438Y-52731D01*
X72489Y-52617D01*
X72517Y-52494D01*
X72519Y-52351D01*
X72519Y-54123D01*
X72495Y-53999D01*
X72447Y-53883D01*
X72377Y-53779D01*
X72289Y-53690D01*
X72185Y-53620D01*
X72069Y-53571D01*
X71946Y-53546D01*
X71821Y-53545D01*
X71697Y-53568D01*
X71581Y-53615D01*
X71476Y-53684D01*
X71386Y-53772D01*
X71315Y-53876D01*
X71266Y-53991D01*
X71240Y-54114D01*
X71238Y-54239D01*
X71261Y-54363D01*
X71307Y-54479D01*
X71375Y-54585D01*
X71462Y-54675D01*
X71565Y-54747D01*
X71680Y-54797D01*
X71803Y-54824D01*
X71928Y-54827D01*
X72052Y-54805D01*
X72169Y-54759D01*
X72275Y-54692D01*
X72366Y-54606D01*
X72438Y-54503D01*
X72489Y-54388D01*
X72517Y-54266D01*
X72519Y-54123D01*
X72519Y-56455D01*
X69960Y-56455D01*
X69960Y-54123D01*
X69960Y-52351D01*
X69936Y-52228D01*
X69888Y-52112D01*
X69818Y-52007D01*
X69730Y-51918D01*
X69626Y-51848D01*
X69510Y-51799D01*
X69387Y-51774D01*
X69262Y-51773D01*
X69138Y-51797D01*
X69022Y-51844D01*
X68917Y-51912D01*
X68827Y-52000D01*
X68756Y-52104D01*
X68707Y-52219D01*
X68681Y-52342D01*
X68679Y-52467D01*
X68702Y-52591D01*
X68748Y-52708D01*
X68816Y-52813D01*
X68903Y-52903D01*
X69006Y-52975D01*
X69121Y-53025D01*
X69244Y-53052D01*
X69369Y-53055D01*
X69493Y-53033D01*
X69610Y-52988D01*
X69716Y-52920D01*
X69807Y-52834D01*
X69879Y-52731D01*
X69930Y-52617D01*
X69958Y-52494D01*
X69960Y-52351D01*
X69960Y-54123D01*
X69936Y-53999D01*
X69888Y-53883D01*
X69818Y-53779D01*
X69730Y-53690D01*
X69626Y-53620D01*
X69510Y-53571D01*
X69387Y-53546D01*
X69262Y-53545D01*
X69138Y-53568D01*
X69022Y-53615D01*
X68917Y-53684D01*
X68827Y-53772D01*
X68756Y-53876D01*
X68707Y-53991D01*
X68681Y-54114D01*
X68679Y-54239D01*
X68702Y-54363D01*
X68748Y-54479D01*
X68816Y-54585D01*
X68903Y-54675D01*
X69006Y-54747D01*
X69121Y-54797D01*
X69244Y-54824D01*
X69369Y-54827D01*
X69493Y-54805D01*
X69610Y-54759D01*
X69716Y-54692D01*
X69807Y-54606D01*
X69879Y-54503D01*
X69930Y-54388D01*
X69958Y-54266D01*
X69960Y-54123D01*
X69960Y-56455D01*
X66240Y-56455D01*
X66240Y-55056D01*
X66223Y-54972D01*
X66190Y-54892D01*
X66142Y-54820D01*
X66081Y-54759D01*
X66010Y-54711D01*
X65930Y-54677D01*
X65846Y-54660D01*
X65759Y-54659D01*
X65675Y-54675D01*
X65595Y-54708D01*
X65522Y-54755D01*
X65461Y-54815D01*
X65412Y-54887D01*
X65378Y-54966D01*
X65360Y-55050D01*
X65359Y-55136D01*
X65374Y-55221D01*
X65406Y-55302D01*
X65453Y-55374D01*
X65513Y-55436D01*
X65584Y-55485D01*
X65663Y-55520D01*
X65747Y-55539D01*
X65833Y-55540D01*
X65918Y-55525D01*
X65999Y-55494D01*
X66072Y-55448D01*
X66134Y-55388D01*
X66184Y-55318D01*
X66219Y-55239D01*
X66238Y-55155D01*
X66240Y-55056D01*
X66240Y-56455D01*
X48535Y-56455D01*
X48535Y-53282D01*
X48535Y-52282D01*
X48518Y-52198D01*
X48486Y-52119D01*
X48438Y-52048D01*
X48378Y-51987D01*
X48308Y-51940D01*
X48229Y-51907D01*
X48145Y-51890D01*
X48060Y-51889D01*
X47976Y-51905D01*
X47897Y-51937D01*
X47825Y-51984D01*
X47764Y-52043D01*
X47716Y-52114D01*
X47683Y-52192D01*
X47665Y-52276D01*
X47664Y-52361D01*
X47679Y-52445D01*
X47710Y-52524D01*
X47757Y-52596D01*
X47816Y-52658D01*
X47886Y-52706D01*
X47964Y-52740D01*
X48048Y-52759D01*
X48133Y-52761D01*
X48217Y-52746D01*
X48297Y-52715D01*
X48369Y-52669D01*
X48431Y-52610D01*
X48480Y-52541D01*
X48515Y-52463D01*
X48533Y-52379D01*
X48535Y-52282D01*
X48535Y-53282D01*
X48518Y-53198D01*
X48486Y-53119D01*
X48438Y-53048D01*
X48378Y-52987D01*
X48308Y-52940D01*
X48229Y-52907D01*
X48145Y-52890D01*
X48060Y-52889D01*
X47976Y-52905D01*
X47897Y-52937D01*
X47825Y-52984D01*
X47764Y-53043D01*
X47716Y-53114D01*
X47683Y-53192D01*
X47665Y-53276D01*
X47664Y-53361D01*
X47679Y-53445D01*
X47710Y-53524D01*
X47757Y-53596D01*
X47816Y-53658D01*
X47886Y-53706D01*
X47964Y-53740D01*
X48048Y-53759D01*
X48133Y-53761D01*
X48217Y-53746D01*
X48297Y-53715D01*
X48369Y-53669D01*
X48431Y-53610D01*
X48480Y-53541D01*
X48515Y-53463D01*
X48533Y-53379D01*
X48535Y-53282D01*
X48535Y-56455D01*
X48240Y-56455D01*
X48240Y-55387D01*
X48240Y-54786D01*
X48234Y-54759D01*
X48224Y-54733D01*
X48209Y-54711D01*
X48189Y-54691D01*
X48166Y-54676D01*
X48141Y-54665D01*
X48114Y-54660D01*
X48087Y-54659D01*
X47671Y-54659D01*
X47540Y-54528D01*
X47540Y-52171D01*
X48055Y-51655D01*
X48068Y-51639D01*
X48081Y-51624D01*
X48082Y-51623D01*
X48082Y-51622D01*
X48092Y-51604D01*
X48102Y-51586D01*
X48102Y-51585D01*
X48103Y-51584D01*
X48109Y-51565D01*
X48115Y-51545D01*
X48115Y-51544D01*
X48115Y-51543D01*
X48117Y-51523D01*
X48119Y-51503D01*
X48119Y-51500D01*
X48119Y-51500D01*
X48119Y-51500D01*
X48120Y-51500D01*
X48120Y-51000D01*
X48120Y-47100D01*
X48118Y-47079D01*
X48116Y-47059D01*
X48115Y-47058D01*
X48115Y-47057D01*
X48109Y-47037D01*
X48104Y-47018D01*
X48103Y-47017D01*
X48103Y-47016D01*
X48093Y-46998D01*
X48084Y-46980D01*
X48083Y-46979D01*
X48083Y-46978D01*
X48070Y-46962D01*
X48057Y-46946D01*
X48056Y-46945D01*
X48056Y-46944D01*
X48056Y-46944D01*
X48055Y-46944D01*
X47455Y-46344D01*
X47439Y-46331D01*
X47424Y-46318D01*
X47423Y-46317D01*
X47422Y-46317D01*
X47404Y-46307D01*
X47386Y-46297D01*
X47385Y-46297D01*
X47384Y-46296D01*
X47365Y-46290D01*
X47345Y-46284D01*
X47344Y-46284D01*
X47343Y-46284D01*
X47323Y-46282D01*
X47303Y-46280D01*
X47300Y-46280D01*
X47300Y-46280D01*
X47300Y-46280D01*
X47300Y-46280D01*
X40676Y-46280D01*
X40638Y-46223D01*
X40578Y-46162D01*
X40508Y-46115D01*
X40429Y-46082D01*
X40345Y-46065D01*
X40260Y-46064D01*
X40176Y-46080D01*
X40097Y-46112D01*
X40025Y-46159D01*
X39964Y-46218D01*
X39916Y-46289D01*
X39883Y-46367D01*
X39865Y-46451D01*
X39864Y-46536D01*
X39879Y-46620D01*
X39910Y-46697D01*
X39910Y-47304D01*
X39883Y-47367D01*
X39865Y-47451D01*
X39864Y-47536D01*
X39879Y-47620D01*
X39910Y-47697D01*
X39910Y-48304D01*
X39883Y-48367D01*
X39865Y-48451D01*
X39864Y-48536D01*
X39879Y-48620D01*
X39910Y-48699D01*
X39957Y-48771D01*
X40016Y-48833D01*
X40086Y-48881D01*
X40164Y-48915D01*
X40248Y-48934D01*
X40333Y-48936D01*
X40417Y-48921D01*
X40497Y-48890D01*
X40569Y-48844D01*
X40631Y-48785D01*
X40680Y-48716D01*
X40715Y-48638D01*
X40733Y-48554D01*
X40735Y-48457D01*
X40721Y-48389D01*
X41591Y-47520D01*
X46392Y-47520D01*
X46385Y-47553D01*
X46384Y-47634D01*
X46399Y-47714D01*
X46429Y-47790D01*
X46473Y-47859D01*
X46529Y-47917D01*
X46596Y-47964D01*
X46671Y-47996D01*
X46710Y-48005D01*
X46710Y-50194D01*
X46682Y-50199D01*
X46606Y-50230D01*
X46538Y-50275D01*
X46480Y-50331D01*
X46434Y-50399D01*
X46402Y-50473D01*
X46385Y-50553D01*
X46384Y-50634D01*
X46395Y-50693D01*
X45444Y-51644D01*
X45431Y-51660D01*
X45422Y-51671D01*
X45210Y-51883D01*
X45210Y-51903D01*
X45145Y-51890D01*
X45060Y-51889D01*
X44989Y-51902D01*
X44989Y-50503D01*
X44980Y-50398D01*
X44950Y-50297D01*
X44940Y-50277D01*
X44940Y-50250D01*
X44940Y-48451D01*
X44921Y-48357D01*
X44884Y-48268D01*
X44831Y-48188D01*
X44763Y-48120D01*
X44684Y-48066D01*
X44595Y-48029D01*
X44501Y-48010D01*
X44405Y-48009D01*
X44310Y-48027D01*
X44221Y-48063D01*
X44141Y-48116D01*
X44072Y-48183D01*
X44018Y-48262D01*
X43980Y-48351D01*
X43960Y-48445D01*
X43959Y-48541D01*
X43976Y-48635D01*
X44012Y-48725D01*
X44064Y-48805D01*
X44130Y-48874D01*
X44209Y-48929D01*
X44297Y-48968D01*
X44391Y-48988D01*
X44487Y-48990D01*
X44582Y-48974D01*
X44671Y-48939D01*
X44753Y-48887D01*
X44822Y-48821D01*
X44878Y-48743D01*
X44917Y-48655D01*
X44938Y-48561D01*
X44940Y-48451D01*
X44940Y-50250D01*
X44940Y-50136D01*
X44934Y-50109D01*
X44924Y-50083D01*
X44909Y-50061D01*
X44889Y-50041D01*
X44866Y-50026D01*
X44841Y-50015D01*
X44814Y-50010D01*
X44787Y-50009D01*
X44674Y-50009D01*
X44662Y-50003D01*
X44562Y-49971D01*
X44457Y-49960D01*
X44450Y-49960D01*
X42950Y-49960D01*
X42524Y-49960D01*
X42524Y-49003D01*
X42506Y-48912D01*
X42471Y-48826D01*
X42419Y-48748D01*
X42354Y-48682D01*
X42276Y-48630D01*
X42191Y-48594D01*
X42099Y-48575D01*
X42006Y-48575D01*
X41915Y-48592D01*
X41829Y-48627D01*
X41751Y-48678D01*
X41684Y-48743D01*
X41632Y-48820D01*
X41595Y-48905D01*
X41576Y-48996D01*
X41574Y-49089D01*
X41591Y-49181D01*
X41625Y-49268D01*
X41676Y-49346D01*
X41740Y-49413D01*
X41817Y-49466D01*
X41902Y-49503D01*
X41993Y-49523D01*
X42086Y-49525D01*
X42178Y-49509D01*
X42265Y-49475D01*
X42343Y-49425D01*
X42411Y-49361D01*
X42464Y-49285D01*
X42502Y-49200D01*
X42523Y-49109D01*
X42524Y-49003D01*
X42524Y-49960D01*
X42350Y-49960D01*
X42300Y-49964D01*
X42250Y-49969D01*
X42247Y-49970D01*
X42245Y-49970D01*
X42197Y-49984D01*
X42149Y-49998D01*
X42146Y-49999D01*
X42144Y-50000D01*
X42100Y-50024D01*
X42055Y-50047D01*
X42053Y-50048D01*
X42051Y-50050D01*
X42012Y-50081D01*
X41973Y-50112D01*
X41969Y-50116D01*
X41969Y-50116D01*
X41969Y-50116D01*
X41968Y-50118D01*
X41826Y-50260D01*
X41400Y-50260D01*
X41365Y-50260D01*
X41365Y-49759D01*
X41349Y-49679D01*
X41318Y-49604D01*
X41273Y-49536D01*
X41215Y-49478D01*
X41148Y-49433D01*
X41073Y-49401D01*
X40993Y-49385D01*
X40912Y-49384D01*
X40832Y-49399D01*
X40756Y-49430D01*
X40688Y-49475D01*
X40630Y-49531D01*
X40584Y-49599D01*
X40552Y-49673D01*
X40535Y-49753D01*
X40534Y-49834D01*
X40549Y-49914D01*
X40579Y-49990D01*
X40623Y-50059D01*
X40679Y-50117D01*
X40746Y-50164D01*
X40821Y-50196D01*
X40900Y-50214D01*
X40981Y-50215D01*
X41062Y-50201D01*
X41138Y-50172D01*
X41206Y-50128D01*
X41265Y-50072D01*
X41312Y-50005D01*
X41345Y-49931D01*
X41363Y-49852D01*
X41365Y-49759D01*
X41365Y-50260D01*
X40950Y-50260D01*
X40531Y-50260D01*
X40525Y-50250D01*
X40502Y-50205D01*
X40501Y-50203D01*
X40499Y-50201D01*
X40468Y-50162D01*
X40437Y-50123D01*
X40433Y-50119D01*
X40433Y-50119D01*
X40433Y-50119D01*
X40431Y-50118D01*
X39840Y-49526D01*
X39840Y-48500D01*
X39840Y-47500D01*
X39840Y-46500D01*
X39840Y-45500D01*
X39840Y-44500D01*
X39840Y-43500D01*
X39840Y-42500D01*
X39840Y-41500D01*
X39840Y-40500D01*
X39840Y-39500D01*
X39840Y-38500D01*
X39840Y-37500D01*
X39840Y-36500D01*
X39840Y-35500D01*
X39840Y-34242D01*
X39972Y-33910D01*
X39979Y-33905D01*
X39998Y-33886D01*
X40014Y-33863D01*
X40024Y-33838D01*
X40030Y-33811D01*
X40030Y-33784D01*
X40030Y-33389D01*
X40025Y-33362D01*
X40014Y-33337D01*
X39999Y-33314D01*
X39980Y-33294D01*
X39957Y-33279D01*
X39932Y-33268D01*
X39905Y-33263D01*
X39877Y-33263D01*
X39674Y-33263D01*
X39674Y-30689D01*
X39631Y-30473D01*
X39547Y-30269D01*
X39425Y-30086D01*
X39270Y-29929D01*
X39087Y-29806D01*
X38884Y-29720D01*
X38668Y-29676D01*
X38447Y-29674D01*
X38231Y-29716D01*
X38026Y-29798D01*
X37842Y-29919D01*
X37684Y-30073D01*
X37560Y-30255D01*
X37473Y-30458D01*
X37427Y-30674D01*
X37424Y-30894D01*
X37464Y-31111D01*
X37545Y-31316D01*
X37664Y-31501D01*
X37817Y-31660D01*
X37998Y-31786D01*
X38200Y-31874D01*
X38416Y-31921D01*
X38636Y-31926D01*
X38853Y-31888D01*
X39059Y-31808D01*
X39245Y-31690D01*
X39405Y-31538D01*
X39532Y-31358D01*
X39621Y-31156D01*
X39670Y-30941D01*
X39674Y-30689D01*
X39674Y-33263D01*
X39333Y-33263D01*
X39303Y-33260D01*
X39269Y-33263D01*
X38695Y-33263D01*
X38668Y-33268D01*
X38643Y-33278D01*
X38620Y-33294D01*
X38601Y-33313D01*
X38585Y-33336D01*
X38575Y-33361D01*
X38569Y-33388D01*
X38569Y-33415D01*
X38569Y-33674D01*
X38281Y-33962D01*
X38198Y-33969D01*
X38097Y-33999D01*
X38004Y-34048D01*
X37922Y-34114D01*
X37854Y-34194D01*
X37803Y-34287D01*
X37771Y-34387D01*
X37760Y-34492D01*
X37760Y-34500D01*
X37760Y-48500D01*
X37765Y-48560D01*
X37760Y-48560D01*
X37760Y-49466D01*
X38109Y-49816D01*
X38109Y-50813D01*
X38115Y-50840D01*
X38125Y-50866D01*
X38140Y-50888D01*
X38160Y-50908D01*
X38183Y-50923D01*
X38208Y-50934D01*
X38235Y-50939D01*
X38262Y-50940D01*
X38626Y-50940D01*
X38868Y-51181D01*
X38906Y-51213D01*
X38944Y-51245D01*
X38947Y-51246D01*
X38949Y-51248D01*
X38993Y-51272D01*
X39037Y-51296D01*
X39039Y-51297D01*
X39042Y-51298D01*
X39090Y-51313D01*
X39137Y-51328D01*
X39140Y-51328D01*
X39143Y-51329D01*
X39192Y-51334D01*
X39242Y-51339D01*
X39248Y-51339D01*
X39248Y-51339D01*
X39248Y-51339D01*
X39250Y-51340D01*
X39826Y-51340D01*
X40160Y-51673D01*
X40160Y-52450D01*
X40164Y-52499D01*
X40169Y-52549D01*
X40170Y-52552D01*
X40170Y-52554D01*
X40184Y-52602D01*
X40198Y-52650D01*
X40199Y-52653D01*
X40200Y-52655D01*
X40224Y-52699D01*
X40247Y-52744D01*
X40248Y-52746D01*
X40250Y-52748D01*
X40281Y-52787D01*
X40312Y-52826D01*
X40316Y-52830D01*
X40316Y-52830D01*
X40316Y-52830D01*
X40318Y-52831D01*
X40618Y-53131D01*
X40656Y-53163D01*
X40672Y-53176D01*
X40674Y-53187D01*
X40685Y-53212D01*
X40700Y-53235D01*
X40719Y-53255D01*
X40742Y-53270D01*
X40767Y-53281D01*
X40794Y-53286D01*
X40822Y-53286D01*
X40965Y-53286D01*
X40992Y-53289D01*
X40998Y-53289D01*
X40998Y-53289D01*
X40998Y-53289D01*
X41000Y-53290D01*
X41800Y-53290D01*
X41831Y-53286D01*
X42004Y-53286D01*
X42031Y-53281D01*
X42056Y-53271D01*
X42079Y-53255D01*
X42098Y-53236D01*
X42114Y-53213D01*
X42124Y-53188D01*
X42127Y-53176D01*
X42137Y-53168D01*
X42176Y-53137D01*
X42180Y-53133D01*
X42180Y-53133D01*
X42180Y-53133D01*
X42181Y-53131D01*
X42431Y-52881D01*
X42463Y-52843D01*
X42495Y-52805D01*
X42496Y-52802D01*
X42498Y-52800D01*
X42522Y-52756D01*
X42546Y-52712D01*
X42547Y-52710D01*
X42548Y-52707D01*
X42563Y-52659D01*
X42578Y-52612D01*
X42578Y-52609D01*
X42579Y-52606D01*
X42584Y-52557D01*
X42589Y-52507D01*
X42589Y-52501D01*
X42589Y-52501D01*
X42589Y-52501D01*
X42590Y-52500D01*
X42590Y-52050D01*
X42590Y-51623D01*
X43173Y-51040D01*
X44450Y-51040D01*
X44554Y-51029D01*
X44655Y-50999D01*
X44673Y-50990D01*
X44813Y-50990D01*
X44840Y-50984D01*
X44866Y-50974D01*
X44888Y-50959D01*
X44908Y-50939D01*
X44923Y-50916D01*
X44934Y-50891D01*
X44939Y-50864D01*
X44940Y-50837D01*
X44940Y-50723D01*
X44947Y-50709D01*
X44978Y-50608D01*
X44989Y-50503D01*
X44989Y-51902D01*
X44976Y-51905D01*
X44965Y-51910D01*
X44236Y-51910D01*
X44229Y-51907D01*
X44145Y-51890D01*
X44060Y-51889D01*
X43976Y-51905D01*
X43897Y-51937D01*
X43825Y-51984D01*
X43764Y-52043D01*
X43716Y-52114D01*
X43683Y-52192D01*
X43665Y-52276D01*
X43664Y-52361D01*
X43679Y-52445D01*
X43710Y-52522D01*
X43710Y-53129D01*
X43683Y-53192D01*
X43665Y-53276D01*
X43664Y-53361D01*
X43677Y-53436D01*
X43535Y-53578D01*
X43535Y-53282D01*
X43535Y-52282D01*
X43518Y-52198D01*
X43486Y-52119D01*
X43438Y-52048D01*
X43378Y-51987D01*
X43308Y-51940D01*
X43229Y-51907D01*
X43145Y-51890D01*
X43060Y-51889D01*
X42976Y-51905D01*
X42897Y-51937D01*
X42825Y-51984D01*
X42764Y-52043D01*
X42716Y-52114D01*
X42683Y-52192D01*
X42665Y-52276D01*
X42664Y-52361D01*
X42679Y-52445D01*
X42710Y-52524D01*
X42757Y-52596D01*
X42816Y-52658D01*
X42886Y-52706D01*
X42964Y-52740D01*
X43048Y-52759D01*
X43133Y-52761D01*
X43217Y-52746D01*
X43297Y-52715D01*
X43369Y-52669D01*
X43431Y-52610D01*
X43480Y-52541D01*
X43515Y-52463D01*
X43533Y-52379D01*
X43535Y-52282D01*
X43535Y-53282D01*
X43518Y-53198D01*
X43486Y-53119D01*
X43438Y-53048D01*
X43378Y-52987D01*
X43308Y-52940D01*
X43229Y-52907D01*
X43145Y-52890D01*
X43060Y-52889D01*
X42976Y-52905D01*
X42897Y-52937D01*
X42825Y-52984D01*
X42764Y-53043D01*
X42716Y-53114D01*
X42683Y-53192D01*
X42665Y-53276D01*
X42664Y-53361D01*
X42679Y-53445D01*
X42710Y-53524D01*
X42757Y-53596D01*
X42816Y-53658D01*
X42886Y-53706D01*
X42964Y-53740D01*
X43048Y-53759D01*
X43133Y-53761D01*
X43217Y-53746D01*
X43297Y-53715D01*
X43369Y-53669D01*
X43431Y-53610D01*
X43480Y-53541D01*
X43515Y-53463D01*
X43533Y-53379D01*
X43535Y-53282D01*
X43535Y-53578D01*
X42644Y-54469D01*
X42631Y-54485D01*
X42618Y-54500D01*
X42617Y-54501D01*
X42617Y-54502D01*
X42607Y-54520D01*
X42597Y-54538D01*
X42597Y-54539D01*
X42596Y-54540D01*
X42590Y-54559D01*
X42584Y-54579D01*
X42584Y-54580D01*
X42584Y-54581D01*
X42582Y-54601D01*
X42580Y-54621D01*
X42580Y-54624D01*
X42580Y-54624D01*
X42580Y-54624D01*
X42580Y-54625D01*
X42580Y-54718D01*
X42522Y-54755D01*
X42461Y-54815D01*
X42412Y-54887D01*
X42378Y-54966D01*
X42360Y-55050D01*
X42359Y-55136D01*
X42374Y-55221D01*
X42406Y-55302D01*
X42453Y-55374D01*
X42513Y-55436D01*
X42584Y-55485D01*
X42663Y-55520D01*
X42747Y-55539D01*
X42785Y-55539D01*
X42785Y-55540D01*
X42794Y-55540D01*
X42833Y-55540D01*
X42838Y-55540D01*
X43490Y-55540D01*
X43490Y-55539D01*
X43512Y-55540D01*
X44113Y-55540D01*
X44140Y-55534D01*
X44166Y-55524D01*
X44188Y-55509D01*
X44208Y-55489D01*
X44223Y-55466D01*
X44234Y-55441D01*
X44239Y-55414D01*
X44240Y-55387D01*
X44240Y-54871D01*
X44423Y-54688D01*
X46107Y-54643D01*
X46394Y-54930D01*
X46378Y-54966D01*
X46360Y-55050D01*
X46359Y-55136D01*
X46374Y-55221D01*
X46406Y-55302D01*
X46453Y-55374D01*
X46513Y-55436D01*
X46584Y-55485D01*
X46663Y-55520D01*
X46747Y-55539D01*
X46760Y-55539D01*
X46760Y-55540D01*
X46794Y-55540D01*
X46833Y-55540D01*
X46838Y-55540D01*
X47498Y-55540D01*
X47512Y-55540D01*
X48113Y-55540D01*
X48140Y-55534D01*
X48166Y-55524D01*
X48188Y-55509D01*
X48208Y-55489D01*
X48223Y-55466D01*
X48234Y-55441D01*
X48239Y-55414D01*
X48240Y-55387D01*
X48240Y-56455D01*
X46240Y-56455D01*
X46240Y-55056D01*
X46223Y-54972D01*
X46190Y-54892D01*
X46142Y-54820D01*
X46081Y-54759D01*
X46010Y-54711D01*
X45930Y-54677D01*
X45846Y-54660D01*
X45759Y-54659D01*
X45675Y-54675D01*
X45595Y-54708D01*
X45522Y-54755D01*
X45461Y-54815D01*
X45412Y-54887D01*
X45378Y-54966D01*
X45360Y-55050D01*
X45359Y-55136D01*
X45374Y-55221D01*
X45406Y-55302D01*
X45453Y-55374D01*
X45513Y-55436D01*
X45584Y-55485D01*
X45663Y-55520D01*
X45747Y-55539D01*
X45833Y-55540D01*
X45918Y-55525D01*
X45999Y-55494D01*
X46072Y-55448D01*
X46134Y-55388D01*
X46184Y-55318D01*
X46219Y-55239D01*
X46238Y-55155D01*
X46240Y-55056D01*
X46240Y-56455D01*
X42240Y-56455D01*
X42240Y-55056D01*
X42223Y-54972D01*
X42190Y-54892D01*
X42142Y-54820D01*
X42081Y-54759D01*
X42010Y-54711D01*
X41930Y-54677D01*
X41846Y-54660D01*
X41759Y-54659D01*
X41675Y-54675D01*
X41595Y-54708D01*
X41522Y-54755D01*
X41461Y-54815D01*
X41412Y-54887D01*
X41378Y-54966D01*
X41360Y-55050D01*
X41359Y-55136D01*
X41374Y-55221D01*
X41406Y-55302D01*
X41453Y-55374D01*
X41513Y-55436D01*
X41584Y-55485D01*
X41663Y-55520D01*
X41747Y-55539D01*
X41833Y-55540D01*
X41918Y-55525D01*
X41999Y-55494D01*
X42072Y-55448D01*
X42134Y-55388D01*
X42184Y-55318D01*
X42219Y-55239D01*
X42238Y-55155D01*
X42240Y-55056D01*
X42240Y-56455D01*
X39674Y-56455D01*
X39674Y-54739D01*
X39631Y-54523D01*
X39547Y-54319D01*
X39425Y-54136D01*
X39390Y-54100D01*
X39390Y-52237D01*
X39365Y-52114D01*
X39317Y-51998D01*
X39248Y-51893D01*
X39159Y-51804D01*
X39055Y-51734D01*
X38940Y-51685D01*
X38817Y-51660D01*
X38691Y-51659D01*
X38568Y-51683D01*
X38452Y-51730D01*
X38347Y-51798D01*
X38257Y-51886D01*
X38186Y-51990D01*
X38137Y-52105D01*
X38110Y-52228D01*
X38109Y-52353D01*
X38131Y-52477D01*
X38178Y-52593D01*
X38246Y-52699D01*
X38333Y-52789D01*
X38436Y-52861D01*
X38551Y-52911D01*
X38673Y-52938D01*
X38799Y-52941D01*
X38922Y-52919D01*
X39039Y-52874D01*
X39145Y-52806D01*
X39236Y-52720D01*
X39309Y-52617D01*
X39360Y-52502D01*
X39388Y-52380D01*
X39390Y-52237D01*
X39390Y-54100D01*
X39270Y-53979D01*
X39087Y-53856D01*
X38884Y-53770D01*
X38668Y-53726D01*
X38447Y-53724D01*
X38231Y-53766D01*
X38026Y-53848D01*
X37842Y-53969D01*
X37684Y-54123D01*
X37560Y-54305D01*
X37473Y-54508D01*
X37427Y-54724D01*
X37424Y-54944D01*
X37464Y-55161D01*
X37545Y-55366D01*
X37664Y-55551D01*
X37817Y-55710D01*
X37998Y-55836D01*
X38200Y-55924D01*
X38416Y-55971D01*
X38636Y-55976D01*
X38853Y-55938D01*
X39059Y-55858D01*
X39245Y-55740D01*
X39405Y-55588D01*
X39532Y-55408D01*
X39621Y-55206D01*
X39670Y-54991D01*
X39674Y-54739D01*
X39674Y-56455D01*
X38557Y-56455D01*
X38238Y-56423D01*
X37938Y-56333D01*
X37662Y-56186D01*
X37419Y-55988D01*
X37219Y-55747D01*
X37071Y-55471D01*
X36978Y-55172D01*
X36945Y-54854D01*
X36945Y-54849D01*
X36945Y-30807D01*
X36976Y-30488D01*
X37066Y-30188D01*
X37213Y-29912D01*
X37411Y-29669D01*
X37652Y-29469D01*
X37928Y-29321D01*
X38227Y-29228D01*
X38545Y-29195D01*
X38550Y-29195D01*
X74392Y-29195D01*
X74711Y-29226D01*
X75011Y-29316D01*
X75287Y-29463D01*
X75530Y-29661D01*
X75730Y-29902D01*
X75878Y-30178D01*
X75971Y-30477D01*
X76004Y-30795D01*
X76005Y-30800D01*
X76005Y-54842D01*
M02*
