G04 (created by PCBNEW (2013-07-07 BZR 4022)-stable) date 02/05/2014 11:15:50*
%MOIN*%
G04 Gerber Fmt 3.4, Leading zero omitted, Abs format*
%FSLAX34Y34*%
G01*
G70*
G90*
G04 APERTURE LIST*
%ADD10C,0.00590551*%
%ADD11C,0.01*%
%ADD12C,0.00885827*%
%ADD13C,0.0123031*%
%ADD14C,0.011811*%
%ADD15C,0.023622*%
%ADD16C,0.00787402*%
%ADD17C,0.00984252*%
%ADD18C,0.012*%
%ADD19C,0.008*%
%ADD20C,0.0001*%
%ADD21C,0.0670551*%
%ADD22C,0.078*%
%ADD23R,0.063X0.063*%
%ADD24C,0.063*%
%ADD25R,0.068X0.068*%
%ADD26C,0.068*%
%ADD27R,0.108X0.108*%
%ADD28C,0.108*%
%ADD29C,0.20485*%
%ADD30R,0.078X0.078*%
%ADD31R,0.0749291X0.0749291*%
%ADD32C,0.0749291*%
%ADD33R,0.12611X0.0473701*%
G04 APERTURE END LIST*
G54D10*
G54D11*
X44300Y-54625D02*
X44300Y-53850D01*
X44300Y-30850D02*
X44300Y-31800D01*
X50300Y-30750D02*
X50300Y-31800D01*
X54300Y-30775D02*
X54300Y-31800D01*
X60300Y-30850D02*
X60300Y-31800D01*
X48300Y-54625D02*
X48300Y-53850D01*
X52300Y-54600D02*
X52300Y-53850D01*
X56300Y-54600D02*
X56300Y-53850D01*
X60300Y-54600D02*
X60300Y-53850D01*
X64300Y-54650D02*
X64300Y-53850D01*
G54D12*
X45530Y-54005D02*
X45496Y-53989D01*
X45445Y-53989D01*
X45395Y-54005D01*
X45361Y-54039D01*
X45344Y-54073D01*
X45327Y-54140D01*
X45327Y-54191D01*
X45344Y-54259D01*
X45361Y-54292D01*
X45395Y-54326D01*
X45445Y-54343D01*
X45479Y-54343D01*
X45530Y-54326D01*
X45546Y-54309D01*
X45546Y-54191D01*
X45479Y-54191D01*
X45698Y-54343D02*
X45698Y-53989D01*
X45901Y-54343D01*
X45901Y-53989D01*
X46069Y-54343D02*
X46069Y-53989D01*
X46154Y-53989D01*
X46204Y-54005D01*
X46238Y-54039D01*
X46255Y-54073D01*
X46272Y-54140D01*
X46272Y-54191D01*
X46255Y-54259D01*
X46238Y-54292D01*
X46204Y-54326D01*
X46154Y-54343D01*
X46069Y-54343D01*
G54D11*
X57400Y-41500D02*
X57500Y-41500D01*
X56600Y-45500D02*
X56500Y-45500D01*
X56600Y-41500D02*
X56500Y-41500D01*
X56500Y-45500D02*
X56500Y-41500D01*
X57500Y-45500D02*
X56600Y-45500D01*
X57500Y-41500D02*
X57500Y-45500D01*
X56500Y-41500D02*
X57400Y-41500D01*
G54D13*
X60062Y-37307D02*
X60226Y-37799D01*
X60390Y-37307D01*
X61187Y-37799D02*
X60906Y-37799D01*
X61046Y-37799D02*
X61046Y-37307D01*
X61000Y-37377D01*
X60953Y-37424D01*
X60906Y-37447D01*
X61398Y-37752D02*
X61421Y-37775D01*
X61398Y-37799D01*
X61374Y-37775D01*
X61398Y-37752D01*
X61398Y-37799D01*
X61726Y-37307D02*
X61773Y-37307D01*
X61820Y-37330D01*
X61843Y-37353D01*
X61867Y-37400D01*
X61890Y-37494D01*
X61890Y-37611D01*
X61867Y-37705D01*
X61843Y-37752D01*
X61820Y-37775D01*
X61773Y-37799D01*
X61726Y-37799D01*
X61679Y-37775D01*
X61656Y-37752D01*
X61632Y-37705D01*
X61609Y-37611D01*
X61609Y-37494D01*
X61632Y-37400D01*
X61656Y-37353D01*
X61679Y-37330D01*
X61726Y-37307D01*
G54D14*
X59539Y-44357D02*
X58948Y-44357D01*
X59004Y-44104D02*
X58976Y-44076D01*
X58948Y-44020D01*
X58948Y-43879D01*
X58976Y-43823D01*
X59004Y-43795D01*
X59060Y-43767D01*
X59117Y-43767D01*
X59201Y-43795D01*
X59539Y-44132D01*
X59539Y-43767D01*
X59482Y-43176D02*
X59510Y-43204D01*
X59539Y-43289D01*
X59539Y-43345D01*
X59510Y-43429D01*
X59454Y-43485D01*
X59398Y-43514D01*
X59285Y-43542D01*
X59201Y-43542D01*
X59089Y-43514D01*
X59032Y-43485D01*
X58976Y-43429D01*
X58948Y-43345D01*
X58948Y-43289D01*
X58976Y-43204D01*
X59004Y-43176D01*
X59004Y-42951D02*
X58976Y-42923D01*
X58948Y-42867D01*
X58948Y-42726D01*
X58976Y-42670D01*
X59004Y-42642D01*
X59060Y-42614D01*
X59117Y-42614D01*
X59201Y-42642D01*
X59539Y-42979D01*
X59539Y-42614D01*
G54D12*
X73246Y-37724D02*
X73246Y-37537D01*
X73359Y-37762D02*
X72965Y-37631D01*
X73359Y-37499D01*
X73359Y-37368D02*
X72965Y-37368D01*
X72965Y-37274D01*
X72984Y-37218D01*
X73021Y-37181D01*
X73059Y-37162D01*
X73134Y-37143D01*
X73190Y-37143D01*
X73265Y-37162D01*
X73303Y-37181D01*
X73340Y-37218D01*
X73359Y-37274D01*
X73359Y-37368D01*
X73321Y-36750D02*
X73340Y-36768D01*
X73359Y-36825D01*
X73359Y-36862D01*
X73340Y-36918D01*
X73303Y-36956D01*
X73265Y-36975D01*
X73190Y-36993D01*
X73134Y-36993D01*
X73059Y-36975D01*
X73021Y-36956D01*
X72984Y-36918D01*
X72965Y-36862D01*
X72965Y-36825D01*
X72984Y-36768D01*
X73003Y-36750D01*
X73096Y-36412D02*
X73359Y-36412D01*
X72946Y-36506D02*
X73228Y-36600D01*
X73228Y-36356D01*
G54D14*
X69075Y-32014D02*
X69524Y-32014D01*
X71075Y-31964D02*
X71524Y-31964D01*
X71300Y-32189D02*
X71300Y-31739D01*
X72975Y-35114D02*
X73424Y-35114D01*
X73200Y-35339D02*
X73200Y-34889D01*
X72975Y-33114D02*
X73424Y-33114D01*
X39714Y-52524D02*
X39714Y-52075D01*
X39475Y-50314D02*
X39924Y-50314D01*
X39700Y-50539D02*
X39700Y-50089D01*
X56866Y-35810D02*
X56950Y-35839D01*
X57091Y-35839D01*
X57147Y-35810D01*
X57175Y-35782D01*
X57203Y-35726D01*
X57203Y-35670D01*
X57175Y-35614D01*
X57147Y-35585D01*
X57091Y-35557D01*
X56978Y-35529D01*
X56922Y-35501D01*
X56894Y-35473D01*
X56866Y-35417D01*
X56866Y-35360D01*
X56894Y-35304D01*
X56922Y-35276D01*
X56978Y-35248D01*
X57119Y-35248D01*
X57203Y-35276D01*
X57372Y-35248D02*
X57709Y-35248D01*
X57541Y-35839D02*
X57541Y-35248D01*
X57906Y-35839D02*
X57906Y-35248D01*
X58103Y-35670D01*
X58300Y-35248D01*
X58300Y-35839D01*
X58525Y-35248D02*
X58890Y-35248D01*
X58694Y-35473D01*
X58778Y-35473D01*
X58834Y-35501D01*
X58862Y-35529D01*
X58890Y-35585D01*
X58890Y-35726D01*
X58862Y-35782D01*
X58834Y-35810D01*
X58778Y-35839D01*
X58609Y-35839D01*
X58553Y-35810D01*
X58525Y-35782D01*
X59115Y-35304D02*
X59143Y-35276D01*
X59200Y-35248D01*
X59340Y-35248D01*
X59397Y-35276D01*
X59425Y-35304D01*
X59453Y-35360D01*
X59453Y-35417D01*
X59425Y-35501D01*
X59087Y-35839D01*
X59453Y-35839D01*
X59903Y-35529D02*
X59706Y-35529D01*
X59706Y-35839D02*
X59706Y-35248D01*
X59987Y-35248D01*
X60465Y-35445D02*
X60465Y-35839D01*
X60325Y-35220D02*
X60184Y-35642D01*
X60550Y-35642D01*
X61224Y-35839D02*
X61224Y-35248D01*
X61365Y-35248D01*
X61449Y-35276D01*
X61506Y-35332D01*
X61534Y-35389D01*
X61562Y-35501D01*
X61562Y-35585D01*
X61534Y-35698D01*
X61506Y-35754D01*
X61449Y-35810D01*
X61365Y-35839D01*
X61224Y-35839D01*
X61815Y-35839D02*
X61815Y-35445D01*
X61815Y-35248D02*
X61787Y-35276D01*
X61815Y-35304D01*
X61843Y-35276D01*
X61815Y-35248D01*
X61815Y-35304D01*
X62068Y-35810D02*
X62124Y-35839D01*
X62237Y-35839D01*
X62293Y-35810D01*
X62321Y-35754D01*
X62321Y-35726D01*
X62293Y-35670D01*
X62237Y-35642D01*
X62152Y-35642D01*
X62096Y-35614D01*
X62068Y-35557D01*
X62068Y-35529D01*
X62096Y-35473D01*
X62152Y-35445D01*
X62237Y-35445D01*
X62293Y-35473D01*
X62827Y-35810D02*
X62771Y-35839D01*
X62659Y-35839D01*
X62602Y-35810D01*
X62574Y-35782D01*
X62546Y-35726D01*
X62546Y-35557D01*
X62574Y-35501D01*
X62602Y-35473D01*
X62659Y-35445D01*
X62771Y-35445D01*
X62827Y-35473D01*
X63165Y-35839D02*
X63109Y-35810D01*
X63080Y-35782D01*
X63052Y-35726D01*
X63052Y-35557D01*
X63080Y-35501D01*
X63109Y-35473D01*
X63165Y-35445D01*
X63249Y-35445D01*
X63305Y-35473D01*
X63334Y-35501D01*
X63362Y-35557D01*
X63362Y-35726D01*
X63334Y-35782D01*
X63305Y-35810D01*
X63249Y-35839D01*
X63165Y-35839D01*
X63559Y-35445D02*
X63699Y-35839D01*
X63840Y-35445D01*
X64290Y-35810D02*
X64233Y-35839D01*
X64121Y-35839D01*
X64065Y-35810D01*
X64037Y-35754D01*
X64037Y-35529D01*
X64065Y-35473D01*
X64121Y-35445D01*
X64233Y-35445D01*
X64290Y-35473D01*
X64318Y-35529D01*
X64318Y-35585D01*
X64037Y-35642D01*
X64571Y-35839D02*
X64571Y-35445D01*
X64571Y-35557D02*
X64599Y-35501D01*
X64627Y-35473D01*
X64683Y-35445D01*
X64740Y-35445D01*
X64880Y-35445D02*
X65021Y-35839D01*
X65161Y-35445D02*
X65021Y-35839D01*
X64965Y-35979D01*
X64937Y-36007D01*
X64880Y-36035D01*
X57920Y-36783D02*
X57920Y-36193D01*
X58061Y-36193D01*
X58145Y-36221D01*
X58201Y-36277D01*
X58230Y-36333D01*
X58258Y-36446D01*
X58258Y-36530D01*
X58230Y-36643D01*
X58201Y-36699D01*
X58145Y-36755D01*
X58061Y-36783D01*
X57920Y-36783D01*
X58764Y-36783D02*
X58764Y-36474D01*
X58736Y-36418D01*
X58679Y-36390D01*
X58567Y-36390D01*
X58511Y-36418D01*
X58764Y-36755D02*
X58708Y-36783D01*
X58567Y-36783D01*
X58511Y-36755D01*
X58483Y-36699D01*
X58483Y-36643D01*
X58511Y-36587D01*
X58567Y-36558D01*
X58708Y-36558D01*
X58764Y-36530D01*
X59298Y-36390D02*
X59298Y-36783D01*
X59045Y-36390D02*
X59045Y-36699D01*
X59073Y-36755D01*
X59129Y-36783D01*
X59214Y-36783D01*
X59270Y-36755D01*
X59298Y-36727D01*
X59832Y-36390D02*
X59832Y-36868D01*
X59804Y-36924D01*
X59776Y-36952D01*
X59720Y-36980D01*
X59636Y-36980D01*
X59579Y-36952D01*
X59832Y-36755D02*
X59776Y-36783D01*
X59664Y-36783D01*
X59607Y-36755D01*
X59579Y-36727D01*
X59551Y-36671D01*
X59551Y-36502D01*
X59579Y-36446D01*
X59607Y-36418D01*
X59664Y-36390D01*
X59776Y-36390D01*
X59832Y-36418D01*
X60114Y-36783D02*
X60114Y-36193D01*
X60367Y-36783D02*
X60367Y-36474D01*
X60339Y-36418D01*
X60282Y-36390D01*
X60198Y-36390D01*
X60142Y-36418D01*
X60114Y-36446D01*
X60564Y-36390D02*
X60789Y-36390D01*
X60648Y-36193D02*
X60648Y-36699D01*
X60676Y-36755D01*
X60732Y-36783D01*
X60789Y-36783D01*
X61210Y-36755D02*
X61154Y-36783D01*
X61042Y-36783D01*
X60985Y-36755D01*
X60957Y-36699D01*
X60957Y-36474D01*
X60985Y-36418D01*
X61042Y-36390D01*
X61154Y-36390D01*
X61210Y-36418D01*
X61239Y-36474D01*
X61239Y-36530D01*
X60957Y-36587D01*
X61492Y-36783D02*
X61492Y-36390D01*
X61492Y-36502D02*
X61520Y-36446D01*
X61548Y-36418D01*
X61604Y-36390D01*
X61660Y-36390D01*
X61857Y-36783D02*
X61857Y-36193D01*
X61857Y-36418D02*
X61913Y-36390D01*
X62026Y-36390D01*
X62082Y-36418D01*
X62110Y-36446D01*
X62138Y-36502D01*
X62138Y-36671D01*
X62110Y-36727D01*
X62082Y-36755D01*
X62026Y-36783D01*
X61913Y-36783D01*
X61857Y-36755D01*
X62476Y-36783D02*
X62420Y-36755D01*
X62392Y-36727D01*
X62363Y-36671D01*
X62363Y-36502D01*
X62392Y-36446D01*
X62420Y-36418D01*
X62476Y-36390D01*
X62560Y-36390D01*
X62616Y-36418D01*
X62645Y-36446D01*
X62673Y-36502D01*
X62673Y-36671D01*
X62645Y-36727D01*
X62616Y-36755D01*
X62560Y-36783D01*
X62476Y-36783D01*
X63179Y-36783D02*
X63179Y-36474D01*
X63151Y-36418D01*
X63095Y-36390D01*
X62982Y-36390D01*
X62926Y-36418D01*
X63179Y-36755D02*
X63123Y-36783D01*
X62982Y-36783D01*
X62926Y-36755D01*
X62898Y-36699D01*
X62898Y-36643D01*
X62926Y-36587D01*
X62982Y-36558D01*
X63123Y-36558D01*
X63179Y-36530D01*
X63460Y-36783D02*
X63460Y-36390D01*
X63460Y-36502D02*
X63488Y-36446D01*
X63516Y-36418D01*
X63573Y-36390D01*
X63629Y-36390D01*
X64079Y-36783D02*
X64079Y-36193D01*
X64079Y-36755D02*
X64023Y-36783D01*
X63910Y-36783D01*
X63854Y-36755D01*
X63826Y-36727D01*
X63798Y-36671D01*
X63798Y-36502D01*
X63826Y-36446D01*
X63854Y-36418D01*
X63910Y-36390D01*
X64023Y-36390D01*
X64079Y-36418D01*
X45964Y-36448D02*
X46302Y-36448D01*
X46133Y-37039D02*
X46133Y-36448D01*
X46498Y-37039D02*
X46498Y-36448D01*
X46751Y-37039D02*
X46751Y-36729D01*
X46723Y-36673D01*
X46667Y-36645D01*
X46583Y-36645D01*
X46526Y-36673D01*
X46498Y-36701D01*
X47258Y-37010D02*
X47201Y-37039D01*
X47089Y-37039D01*
X47033Y-37010D01*
X47005Y-36954D01*
X47005Y-36729D01*
X47033Y-36673D01*
X47089Y-36645D01*
X47201Y-36645D01*
X47258Y-36673D01*
X47286Y-36729D01*
X47286Y-36785D01*
X47005Y-36842D01*
X48186Y-36729D02*
X47989Y-36729D01*
X47989Y-37039D02*
X47989Y-36448D01*
X48270Y-36448D01*
X48495Y-37039D02*
X48495Y-36645D01*
X48495Y-36757D02*
X48523Y-36701D01*
X48551Y-36673D01*
X48607Y-36645D01*
X48664Y-36645D01*
X49086Y-37010D02*
X49029Y-37039D01*
X48917Y-37039D01*
X48861Y-37010D01*
X48832Y-36954D01*
X48832Y-36729D01*
X48861Y-36673D01*
X48917Y-36645D01*
X49029Y-36645D01*
X49086Y-36673D01*
X49114Y-36729D01*
X49114Y-36785D01*
X48832Y-36842D01*
X49592Y-37010D02*
X49535Y-37039D01*
X49423Y-37039D01*
X49367Y-37010D01*
X49339Y-36954D01*
X49339Y-36729D01*
X49367Y-36673D01*
X49423Y-36645D01*
X49535Y-36645D01*
X49592Y-36673D01*
X49620Y-36729D01*
X49620Y-36785D01*
X49339Y-36842D01*
X50295Y-36870D02*
X50576Y-36870D01*
X50239Y-37039D02*
X50435Y-36448D01*
X50632Y-37039D01*
X51082Y-36645D02*
X51082Y-37039D01*
X50829Y-36645D02*
X50829Y-36954D01*
X50857Y-37010D01*
X50913Y-37039D01*
X50998Y-37039D01*
X51054Y-37010D01*
X51082Y-36982D01*
X51279Y-36645D02*
X51504Y-36645D01*
X51363Y-36448D02*
X51363Y-36954D01*
X51392Y-37010D01*
X51448Y-37039D01*
X51504Y-37039D01*
X51785Y-37039D02*
X51729Y-37010D01*
X51701Y-36982D01*
X51673Y-36926D01*
X51673Y-36757D01*
X51701Y-36701D01*
X51729Y-36673D01*
X51785Y-36645D01*
X51870Y-36645D01*
X51926Y-36673D01*
X51954Y-36701D01*
X51982Y-36757D01*
X51982Y-36926D01*
X51954Y-36982D01*
X51926Y-37010D01*
X51870Y-37039D01*
X51785Y-37039D01*
X52235Y-36645D02*
X52235Y-37235D01*
X52235Y-36673D02*
X52291Y-36645D01*
X52404Y-36645D01*
X52460Y-36673D01*
X52488Y-36701D01*
X52516Y-36757D01*
X52516Y-36926D01*
X52488Y-36982D01*
X52460Y-37010D01*
X52404Y-37039D01*
X52291Y-37039D01*
X52235Y-37010D01*
X52769Y-37039D02*
X52769Y-36645D01*
X52769Y-36448D02*
X52741Y-36476D01*
X52769Y-36504D01*
X52798Y-36476D01*
X52769Y-36448D01*
X52769Y-36504D01*
X53135Y-37039D02*
X53079Y-37010D01*
X53051Y-36954D01*
X53051Y-36448D01*
X53444Y-37039D02*
X53388Y-37010D01*
X53360Y-36982D01*
X53332Y-36926D01*
X53332Y-36757D01*
X53360Y-36701D01*
X53388Y-36673D01*
X53444Y-36645D01*
X53529Y-36645D01*
X53585Y-36673D01*
X53613Y-36701D01*
X53641Y-36757D01*
X53641Y-36926D01*
X53613Y-36982D01*
X53585Y-37010D01*
X53529Y-37039D01*
X53444Y-37039D01*
X53810Y-36645D02*
X54035Y-36645D01*
X53894Y-36448D02*
X53894Y-36954D01*
X53922Y-37010D01*
X53979Y-37039D01*
X54035Y-37039D01*
G54D15*
X44600Y-35837D02*
X44600Y-34262D01*
X45200Y-34262D01*
X45350Y-34337D01*
X45425Y-34412D01*
X45500Y-34562D01*
X45500Y-34787D01*
X45425Y-34937D01*
X45350Y-35012D01*
X45200Y-35087D01*
X44600Y-35087D01*
X46850Y-35837D02*
X46850Y-35012D01*
X46775Y-34862D01*
X46625Y-34787D01*
X46325Y-34787D01*
X46175Y-34862D01*
X46850Y-35762D02*
X46700Y-35837D01*
X46325Y-35837D01*
X46175Y-35762D01*
X46100Y-35612D01*
X46100Y-35462D01*
X46175Y-35312D01*
X46325Y-35237D01*
X46700Y-35237D01*
X46850Y-35162D01*
X47600Y-34787D02*
X47600Y-36362D01*
X47600Y-34862D02*
X47750Y-34787D01*
X48050Y-34787D01*
X48200Y-34862D01*
X48275Y-34937D01*
X48350Y-35087D01*
X48350Y-35537D01*
X48275Y-35687D01*
X48200Y-35762D01*
X48050Y-35837D01*
X47750Y-35837D01*
X47600Y-35762D01*
X49700Y-35837D02*
X49700Y-35012D01*
X49625Y-34862D01*
X49475Y-34787D01*
X49175Y-34787D01*
X49025Y-34862D01*
X49700Y-35762D02*
X49550Y-35837D01*
X49175Y-35837D01*
X49025Y-35762D01*
X48950Y-35612D01*
X48950Y-35462D01*
X49025Y-35312D01*
X49175Y-35237D01*
X49550Y-35237D01*
X49700Y-35162D01*
X50449Y-35837D02*
X50449Y-34787D01*
X50449Y-35087D02*
X50524Y-34937D01*
X50599Y-34862D01*
X50749Y-34787D01*
X50899Y-34787D01*
X52099Y-35837D02*
X52099Y-35012D01*
X52024Y-34862D01*
X51874Y-34787D01*
X51574Y-34787D01*
X51424Y-34862D01*
X52099Y-35762D02*
X51949Y-35837D01*
X51574Y-35837D01*
X51424Y-35762D01*
X51349Y-35612D01*
X51349Y-35462D01*
X51424Y-35312D01*
X51574Y-35237D01*
X51949Y-35237D01*
X52099Y-35162D01*
X52699Y-34787D02*
X53524Y-34787D01*
X52699Y-35837D01*
X53524Y-35837D01*
X53974Y-34787D02*
X54799Y-34787D01*
X53974Y-35837D01*
X54799Y-35837D01*
X55399Y-35837D02*
X55399Y-34787D01*
X55399Y-34262D02*
X55324Y-34337D01*
X55399Y-34412D01*
X55474Y-34337D01*
X55399Y-34262D01*
X55399Y-34412D01*
G54D14*
X69225Y-36764D02*
X69674Y-36764D01*
X71275Y-36764D02*
X71724Y-36764D01*
X71500Y-36989D02*
X71500Y-36539D01*
X45214Y-48724D02*
X45214Y-48275D01*
X44975Y-50514D02*
X45424Y-50514D01*
X45200Y-50739D02*
X45200Y-50289D01*
X57889Y-41039D02*
X57889Y-40448D01*
X58030Y-40448D01*
X58114Y-40476D01*
X58170Y-40532D01*
X58198Y-40589D01*
X58226Y-40701D01*
X58226Y-40785D01*
X58198Y-40898D01*
X58170Y-40954D01*
X58114Y-41010D01*
X58030Y-41039D01*
X57889Y-41039D01*
X58479Y-41039D02*
X58479Y-40645D01*
X58479Y-40757D02*
X58508Y-40701D01*
X58536Y-40673D01*
X58592Y-40645D01*
X58648Y-40645D01*
X58929Y-41039D02*
X58873Y-41010D01*
X58845Y-40982D01*
X58817Y-40926D01*
X58817Y-40757D01*
X58845Y-40701D01*
X58873Y-40673D01*
X58929Y-40645D01*
X59014Y-40645D01*
X59070Y-40673D01*
X59098Y-40701D01*
X59126Y-40757D01*
X59126Y-40926D01*
X59098Y-40982D01*
X59070Y-41010D01*
X59014Y-41039D01*
X58929Y-41039D01*
X59295Y-40645D02*
X59520Y-40645D01*
X59379Y-40448D02*
X59379Y-40954D01*
X59407Y-41010D01*
X59464Y-41039D01*
X59520Y-41039D01*
X59942Y-41010D02*
X59886Y-41039D01*
X59773Y-41039D01*
X59717Y-41010D01*
X59689Y-40954D01*
X59689Y-40729D01*
X59717Y-40673D01*
X59773Y-40645D01*
X59886Y-40645D01*
X59942Y-40673D01*
X59970Y-40729D01*
X59970Y-40785D01*
X59689Y-40842D01*
X60223Y-41039D02*
X60223Y-40448D01*
X60279Y-40814D02*
X60448Y-41039D01*
X60448Y-40645D02*
X60223Y-40870D01*
X61460Y-41039D02*
X61123Y-41039D01*
X61292Y-41039D02*
X61292Y-40448D01*
X61235Y-40532D01*
X61179Y-40589D01*
X61123Y-40617D01*
X61826Y-40448D02*
X61882Y-40448D01*
X61938Y-40476D01*
X61967Y-40504D01*
X61995Y-40560D01*
X62023Y-40673D01*
X62023Y-40814D01*
X61995Y-40926D01*
X61967Y-40982D01*
X61938Y-41010D01*
X61882Y-41039D01*
X61826Y-41039D01*
X61770Y-41010D01*
X61742Y-40982D01*
X61713Y-40926D01*
X61685Y-40814D01*
X61685Y-40673D01*
X61713Y-40560D01*
X61742Y-40504D01*
X61770Y-40476D01*
X61826Y-40448D01*
X62276Y-41039D02*
X62276Y-40448D01*
X62416Y-40448D01*
X62501Y-40476D01*
X62557Y-40532D01*
X62585Y-40589D01*
X62613Y-40701D01*
X62613Y-40785D01*
X62585Y-40898D01*
X62557Y-40954D01*
X62501Y-41010D01*
X62416Y-41039D01*
X62276Y-41039D01*
X62979Y-40448D02*
X63091Y-40448D01*
X63148Y-40476D01*
X63204Y-40532D01*
X63232Y-40645D01*
X63232Y-40842D01*
X63204Y-40954D01*
X63148Y-41010D01*
X63091Y-41039D01*
X62979Y-41039D01*
X62923Y-41010D01*
X62866Y-40954D01*
X62838Y-40842D01*
X62838Y-40645D01*
X62866Y-40532D01*
X62923Y-40476D01*
X62979Y-40448D01*
X63682Y-40729D02*
X63485Y-40729D01*
X63485Y-41039D02*
X63485Y-40448D01*
X63766Y-40448D01*
G54D12*
X57855Y-45143D02*
X57855Y-44789D01*
X57939Y-44789D01*
X57990Y-44805D01*
X58024Y-44839D01*
X58040Y-44873D01*
X58057Y-44940D01*
X58057Y-44991D01*
X58040Y-45059D01*
X58024Y-45092D01*
X57990Y-45126D01*
X57939Y-45143D01*
X57855Y-45143D01*
X58192Y-45042D02*
X58361Y-45042D01*
X58159Y-45143D02*
X58277Y-44789D01*
X58395Y-45143D01*
X58066Y-44109D02*
X58049Y-44126D01*
X57998Y-44143D01*
X57965Y-44143D01*
X57914Y-44126D01*
X57880Y-44092D01*
X57863Y-44059D01*
X57846Y-43991D01*
X57846Y-43940D01*
X57863Y-43873D01*
X57880Y-43839D01*
X57914Y-43805D01*
X57965Y-43789D01*
X57998Y-43789D01*
X58049Y-43805D01*
X58066Y-43822D01*
X58386Y-44143D02*
X58218Y-44143D01*
X58218Y-43789D01*
X58032Y-42789D02*
X57863Y-42789D01*
X57846Y-42957D01*
X57863Y-42940D01*
X57897Y-42924D01*
X57981Y-42924D01*
X58015Y-42940D01*
X58032Y-42957D01*
X58049Y-42991D01*
X58049Y-43075D01*
X58032Y-43109D01*
X58015Y-43126D01*
X57981Y-43143D01*
X57897Y-43143D01*
X57863Y-43126D01*
X57846Y-43109D01*
X58150Y-42789D02*
X58268Y-43143D01*
X58386Y-42789D01*
X58030Y-41805D02*
X57996Y-41789D01*
X57945Y-41789D01*
X57895Y-41805D01*
X57861Y-41839D01*
X57844Y-41873D01*
X57827Y-41940D01*
X57827Y-41991D01*
X57844Y-42059D01*
X57861Y-42092D01*
X57895Y-42126D01*
X57945Y-42143D01*
X57979Y-42143D01*
X58030Y-42126D01*
X58046Y-42109D01*
X58046Y-41991D01*
X57979Y-41991D01*
X58198Y-42143D02*
X58198Y-41789D01*
X58401Y-42143D01*
X58401Y-41789D01*
X58569Y-42143D02*
X58569Y-41789D01*
X58654Y-41789D01*
X58704Y-41805D01*
X58738Y-41839D01*
X58755Y-41873D01*
X58772Y-41940D01*
X58772Y-41991D01*
X58755Y-42059D01*
X58738Y-42092D01*
X58704Y-42126D01*
X58654Y-42143D01*
X58569Y-42143D01*
X41246Y-46429D02*
X41331Y-46457D01*
X41359Y-46485D01*
X41387Y-46542D01*
X41387Y-46626D01*
X41359Y-46682D01*
X41331Y-46710D01*
X41275Y-46739D01*
X41050Y-46739D01*
X41050Y-46148D01*
X41246Y-46148D01*
X41303Y-46176D01*
X41331Y-46204D01*
X41359Y-46260D01*
X41359Y-46317D01*
X41331Y-46373D01*
X41303Y-46401D01*
X41246Y-46429D01*
X41050Y-46429D01*
X41640Y-46739D02*
X41640Y-46148D01*
X41921Y-46739D02*
X41921Y-46148D01*
X42259Y-46739D01*
X42259Y-46148D01*
X42540Y-46739D02*
X42540Y-46148D01*
X42681Y-46148D01*
X42765Y-46176D01*
X42821Y-46232D01*
X42849Y-46289D01*
X42878Y-46401D01*
X42878Y-46485D01*
X42849Y-46598D01*
X42821Y-46654D01*
X42765Y-46710D01*
X42681Y-46739D01*
X42540Y-46739D01*
X47069Y-31273D02*
X47019Y-31256D01*
X46934Y-31256D01*
X46901Y-31273D01*
X46884Y-31290D01*
X46867Y-31324D01*
X46867Y-31357D01*
X46884Y-31391D01*
X46901Y-31408D01*
X46934Y-31425D01*
X47002Y-31442D01*
X47036Y-31459D01*
X47053Y-31475D01*
X47069Y-31509D01*
X47069Y-31543D01*
X47053Y-31577D01*
X47036Y-31594D01*
X47002Y-31610D01*
X46918Y-31610D01*
X46867Y-31594D01*
X46732Y-31273D02*
X46681Y-31256D01*
X46597Y-31256D01*
X46563Y-31273D01*
X46546Y-31290D01*
X46530Y-31324D01*
X46530Y-31357D01*
X46546Y-31391D01*
X46563Y-31408D01*
X46597Y-31425D01*
X46665Y-31442D01*
X46698Y-31459D01*
X46715Y-31475D01*
X46732Y-31509D01*
X46732Y-31543D01*
X46715Y-31577D01*
X46698Y-31594D01*
X46665Y-31610D01*
X46580Y-31610D01*
X46530Y-31594D01*
X48103Y-31256D02*
X48103Y-31610D01*
X47985Y-31357D01*
X47867Y-31610D01*
X47867Y-31256D01*
X47631Y-31610D02*
X47563Y-31610D01*
X47530Y-31594D01*
X47496Y-31560D01*
X47479Y-31492D01*
X47479Y-31374D01*
X47496Y-31307D01*
X47530Y-31273D01*
X47563Y-31256D01*
X47631Y-31256D01*
X47665Y-31273D01*
X47698Y-31307D01*
X47715Y-31374D01*
X47715Y-31492D01*
X47698Y-31560D01*
X47665Y-31594D01*
X47631Y-31610D01*
X49002Y-31256D02*
X49002Y-31610D01*
X48884Y-31357D01*
X48766Y-31610D01*
X48766Y-31256D01*
X48597Y-31256D02*
X48597Y-31610D01*
X49833Y-31290D02*
X49850Y-31273D01*
X49901Y-31256D01*
X49934Y-31256D01*
X49985Y-31273D01*
X50019Y-31307D01*
X50036Y-31340D01*
X50053Y-31408D01*
X50053Y-31459D01*
X50036Y-31526D01*
X50019Y-31560D01*
X49985Y-31594D01*
X49934Y-31610D01*
X49901Y-31610D01*
X49850Y-31594D01*
X49833Y-31577D01*
X49513Y-31256D02*
X49681Y-31256D01*
X49681Y-31610D01*
X58103Y-31256D02*
X58103Y-31610D01*
X57985Y-31357D01*
X57867Y-31610D01*
X57867Y-31256D01*
X57631Y-31610D02*
X57563Y-31610D01*
X57530Y-31594D01*
X57496Y-31560D01*
X57479Y-31492D01*
X57479Y-31374D01*
X57496Y-31307D01*
X57530Y-31273D01*
X57563Y-31256D01*
X57631Y-31256D01*
X57665Y-31273D01*
X57698Y-31307D01*
X57715Y-31374D01*
X57715Y-31492D01*
X57698Y-31560D01*
X57665Y-31594D01*
X57631Y-31610D01*
X57069Y-31273D02*
X57019Y-31256D01*
X56934Y-31256D01*
X56901Y-31273D01*
X56884Y-31290D01*
X56867Y-31324D01*
X56867Y-31357D01*
X56884Y-31391D01*
X56901Y-31408D01*
X56934Y-31425D01*
X57002Y-31442D01*
X57036Y-31459D01*
X57053Y-31475D01*
X57069Y-31509D01*
X57069Y-31543D01*
X57053Y-31577D01*
X57036Y-31594D01*
X57002Y-31610D01*
X56918Y-31610D01*
X56867Y-31594D01*
X56732Y-31273D02*
X56681Y-31256D01*
X56597Y-31256D01*
X56563Y-31273D01*
X56546Y-31290D01*
X56530Y-31324D01*
X56530Y-31357D01*
X56546Y-31391D01*
X56563Y-31408D01*
X56597Y-31425D01*
X56665Y-31442D01*
X56698Y-31459D01*
X56715Y-31475D01*
X56732Y-31509D01*
X56732Y-31543D01*
X56715Y-31577D01*
X56698Y-31594D01*
X56665Y-31610D01*
X56580Y-31610D01*
X56530Y-31594D01*
X59002Y-31256D02*
X59002Y-31610D01*
X58884Y-31357D01*
X58766Y-31610D01*
X58766Y-31256D01*
X58597Y-31256D02*
X58597Y-31610D01*
X59833Y-31290D02*
X59850Y-31273D01*
X59901Y-31256D01*
X59934Y-31256D01*
X59985Y-31273D01*
X60019Y-31307D01*
X60036Y-31340D01*
X60053Y-31408D01*
X60053Y-31459D01*
X60036Y-31526D01*
X60019Y-31560D01*
X59985Y-31594D01*
X59934Y-31610D01*
X59901Y-31610D01*
X59850Y-31594D01*
X59833Y-31577D01*
X59513Y-31256D02*
X59681Y-31256D01*
X59681Y-31610D01*
X64103Y-31256D02*
X64103Y-31610D01*
X63985Y-31357D01*
X63867Y-31610D01*
X63867Y-31256D01*
X63631Y-31610D02*
X63563Y-31610D01*
X63530Y-31594D01*
X63496Y-31560D01*
X63479Y-31492D01*
X63479Y-31374D01*
X63496Y-31307D01*
X63530Y-31273D01*
X63563Y-31256D01*
X63631Y-31256D01*
X63665Y-31273D01*
X63698Y-31307D01*
X63715Y-31374D01*
X63715Y-31492D01*
X63698Y-31560D01*
X63665Y-31594D01*
X63631Y-31610D01*
X65002Y-31256D02*
X65002Y-31610D01*
X64884Y-31357D01*
X64766Y-31610D01*
X64766Y-31256D01*
X64597Y-31256D02*
X64597Y-31610D01*
X65833Y-31290D02*
X65850Y-31273D01*
X65901Y-31256D01*
X65934Y-31256D01*
X65985Y-31273D01*
X66019Y-31307D01*
X66036Y-31340D01*
X66053Y-31408D01*
X66053Y-31459D01*
X66036Y-31526D01*
X66019Y-31560D01*
X65985Y-31594D01*
X65934Y-31610D01*
X65901Y-31610D01*
X65850Y-31594D01*
X65833Y-31577D01*
X65513Y-31256D02*
X65681Y-31256D01*
X65681Y-31610D01*
X63069Y-31273D02*
X63019Y-31256D01*
X62934Y-31256D01*
X62901Y-31273D01*
X62884Y-31290D01*
X62867Y-31324D01*
X62867Y-31357D01*
X62884Y-31391D01*
X62901Y-31408D01*
X62934Y-31425D01*
X63002Y-31442D01*
X63036Y-31459D01*
X63053Y-31475D01*
X63069Y-31509D01*
X63069Y-31543D01*
X63053Y-31577D01*
X63036Y-31594D01*
X63002Y-31610D01*
X62918Y-31610D01*
X62867Y-31594D01*
X62732Y-31273D02*
X62681Y-31256D01*
X62597Y-31256D01*
X62563Y-31273D01*
X62546Y-31290D01*
X62530Y-31324D01*
X62530Y-31357D01*
X62546Y-31391D01*
X62563Y-31408D01*
X62597Y-31425D01*
X62665Y-31442D01*
X62698Y-31459D01*
X62715Y-31475D01*
X62732Y-31509D01*
X62732Y-31543D01*
X62715Y-31577D01*
X62698Y-31594D01*
X62665Y-31610D01*
X62580Y-31610D01*
X62530Y-31594D01*
X53044Y-31256D02*
X53044Y-31610D01*
X52960Y-31610D01*
X52909Y-31594D01*
X52875Y-31560D01*
X52859Y-31526D01*
X52842Y-31459D01*
X52842Y-31408D01*
X52859Y-31340D01*
X52875Y-31307D01*
X52909Y-31273D01*
X52960Y-31256D01*
X53044Y-31256D01*
X52707Y-31357D02*
X52538Y-31357D01*
X52740Y-31256D02*
X52622Y-31610D01*
X52504Y-31256D01*
X53833Y-31290D02*
X53850Y-31273D01*
X53901Y-31256D01*
X53934Y-31256D01*
X53985Y-31273D01*
X54019Y-31307D01*
X54036Y-31340D01*
X54053Y-31408D01*
X54053Y-31459D01*
X54036Y-31526D01*
X54019Y-31560D01*
X53985Y-31594D01*
X53934Y-31610D01*
X53901Y-31610D01*
X53850Y-31594D01*
X53833Y-31577D01*
X53513Y-31256D02*
X53681Y-31256D01*
X53681Y-31610D01*
G54D16*
X60300Y-31050D02*
X60300Y-31800D01*
X54300Y-31050D02*
X54300Y-31800D01*
X50300Y-31050D02*
X50300Y-31800D01*
X44300Y-31100D02*
X44300Y-31800D01*
G54D12*
X59766Y-54309D02*
X59749Y-54326D01*
X59698Y-54343D01*
X59665Y-54343D01*
X59614Y-54326D01*
X59580Y-54292D01*
X59563Y-54259D01*
X59546Y-54191D01*
X59546Y-54140D01*
X59563Y-54073D01*
X59580Y-54039D01*
X59614Y-54005D01*
X59665Y-53989D01*
X59698Y-53989D01*
X59749Y-54005D01*
X59766Y-54022D01*
X60086Y-54343D02*
X59918Y-54343D01*
X59918Y-53989D01*
X58555Y-54343D02*
X58555Y-53989D01*
X58639Y-53989D01*
X58690Y-54005D01*
X58724Y-54039D01*
X58740Y-54073D01*
X58757Y-54140D01*
X58757Y-54191D01*
X58740Y-54259D01*
X58724Y-54292D01*
X58690Y-54326D01*
X58639Y-54343D01*
X58555Y-54343D01*
X58892Y-54242D02*
X59061Y-54242D01*
X58859Y-54343D02*
X58977Y-53989D01*
X59095Y-54343D01*
X47766Y-54309D02*
X47749Y-54326D01*
X47698Y-54343D01*
X47665Y-54343D01*
X47614Y-54326D01*
X47580Y-54292D01*
X47563Y-54259D01*
X47546Y-54191D01*
X47546Y-54140D01*
X47563Y-54073D01*
X47580Y-54039D01*
X47614Y-54005D01*
X47665Y-53989D01*
X47698Y-53989D01*
X47749Y-54005D01*
X47766Y-54022D01*
X48086Y-54343D02*
X47918Y-54343D01*
X47918Y-53989D01*
X46555Y-54343D02*
X46555Y-53989D01*
X46639Y-53989D01*
X46690Y-54005D01*
X46724Y-54039D01*
X46740Y-54073D01*
X46757Y-54140D01*
X46757Y-54191D01*
X46740Y-54259D01*
X46724Y-54292D01*
X46690Y-54326D01*
X46639Y-54343D01*
X46555Y-54343D01*
X46892Y-54242D02*
X47061Y-54242D01*
X46859Y-54343D02*
X46977Y-53989D01*
X47095Y-54343D01*
X42859Y-31256D02*
X42977Y-31425D01*
X43061Y-31256D02*
X43061Y-31610D01*
X42926Y-31610D01*
X42892Y-31594D01*
X42875Y-31577D01*
X42859Y-31543D01*
X42859Y-31492D01*
X42875Y-31459D01*
X42892Y-31442D01*
X42926Y-31425D01*
X43061Y-31425D01*
X42740Y-31610D02*
X42504Y-31256D01*
X42504Y-31610D02*
X42740Y-31256D01*
X44069Y-31610D02*
X43867Y-31610D01*
X43968Y-31256D02*
X43968Y-31610D01*
X43783Y-31610D02*
X43546Y-31256D01*
X43546Y-31610D02*
X43783Y-31256D01*
X66740Y-54343D02*
X66622Y-54174D01*
X66538Y-54343D02*
X66538Y-53989D01*
X66673Y-53989D01*
X66707Y-54005D01*
X66724Y-54022D01*
X66740Y-54056D01*
X66740Y-54107D01*
X66724Y-54140D01*
X66707Y-54157D01*
X66673Y-54174D01*
X66538Y-54174D01*
X66859Y-53989D02*
X67095Y-54343D01*
X67095Y-53989D02*
X66859Y-54343D01*
X67530Y-53989D02*
X67732Y-53989D01*
X67631Y-54343D02*
X67631Y-53989D01*
X67816Y-53989D02*
X68053Y-54343D01*
X68053Y-53989D02*
X67816Y-54343D01*
X63530Y-53989D02*
X63732Y-53989D01*
X63631Y-54343D02*
X63631Y-53989D01*
X63816Y-53989D02*
X64053Y-54343D01*
X64053Y-53989D02*
X63816Y-54343D01*
X62740Y-54343D02*
X62622Y-54174D01*
X62538Y-54343D02*
X62538Y-53989D01*
X62673Y-53989D01*
X62707Y-54005D01*
X62724Y-54022D01*
X62740Y-54056D01*
X62740Y-54107D01*
X62724Y-54140D01*
X62707Y-54157D01*
X62673Y-54174D01*
X62538Y-54174D01*
X62859Y-53989D02*
X63095Y-54343D01*
X63095Y-53989D02*
X62859Y-54343D01*
X55530Y-53989D02*
X55732Y-53989D01*
X55631Y-54343D02*
X55631Y-53989D01*
X55816Y-53989D02*
X56053Y-54343D01*
X56053Y-53989D02*
X55816Y-54343D01*
X54740Y-54343D02*
X54622Y-54174D01*
X54538Y-54343D02*
X54538Y-53989D01*
X54673Y-53989D01*
X54707Y-54005D01*
X54724Y-54022D01*
X54740Y-54056D01*
X54740Y-54107D01*
X54724Y-54140D01*
X54707Y-54157D01*
X54673Y-54174D01*
X54538Y-54174D01*
X54859Y-53989D02*
X55095Y-54343D01*
X55095Y-53989D02*
X54859Y-54343D01*
X51530Y-53989D02*
X51732Y-53989D01*
X51631Y-54343D02*
X51631Y-53989D01*
X51816Y-53989D02*
X52053Y-54343D01*
X52053Y-53989D02*
X51816Y-54343D01*
X50740Y-54343D02*
X50622Y-54174D01*
X50538Y-54343D02*
X50538Y-53989D01*
X50673Y-53989D01*
X50707Y-54005D01*
X50724Y-54022D01*
X50740Y-54056D01*
X50740Y-54107D01*
X50724Y-54140D01*
X50707Y-54157D01*
X50673Y-54174D01*
X50538Y-54174D01*
X50859Y-53989D02*
X51095Y-54343D01*
X51095Y-53989D02*
X50859Y-54343D01*
X43530Y-53989D02*
X43732Y-53989D01*
X43631Y-54343D02*
X43631Y-53989D01*
X43816Y-53989D02*
X44053Y-54343D01*
X44053Y-53989D02*
X43816Y-54343D01*
X42740Y-54343D02*
X42622Y-54174D01*
X42538Y-54343D02*
X42538Y-53989D01*
X42673Y-53989D01*
X42707Y-54005D01*
X42724Y-54022D01*
X42740Y-54056D01*
X42740Y-54107D01*
X42724Y-54140D01*
X42707Y-54157D01*
X42673Y-54174D01*
X42538Y-54174D01*
X42859Y-53989D02*
X43095Y-54343D01*
X43095Y-53989D02*
X42859Y-54343D01*
G54D14*
X44960Y-46029D02*
X45045Y-46057D01*
X45073Y-46085D01*
X45101Y-46142D01*
X45101Y-46226D01*
X45073Y-46282D01*
X45045Y-46310D01*
X44989Y-46339D01*
X44764Y-46339D01*
X44764Y-45748D01*
X44960Y-45748D01*
X45017Y-45776D01*
X45045Y-45804D01*
X45073Y-45860D01*
X45073Y-45917D01*
X45045Y-45973D01*
X45017Y-46001D01*
X44960Y-46029D01*
X44764Y-46029D01*
X45664Y-46339D02*
X45326Y-46339D01*
X45495Y-46339D02*
X45495Y-45748D01*
X45439Y-45832D01*
X45382Y-45889D01*
X45326Y-45917D01*
G54D12*
X41062Y-48739D02*
X41062Y-48148D01*
X41287Y-48148D01*
X41343Y-48176D01*
X41371Y-48204D01*
X41400Y-48260D01*
X41400Y-48345D01*
X41371Y-48401D01*
X41343Y-48429D01*
X41287Y-48457D01*
X41062Y-48457D01*
X41653Y-48739D02*
X41653Y-48148D01*
X41878Y-48148D01*
X41934Y-48176D01*
X41962Y-48204D01*
X41990Y-48260D01*
X41990Y-48345D01*
X41962Y-48401D01*
X41934Y-48429D01*
X41878Y-48457D01*
X41653Y-48457D01*
X42243Y-48739D02*
X42243Y-48148D01*
X42440Y-48570D01*
X42637Y-48148D01*
X42637Y-48739D01*
X41057Y-47148D02*
X41057Y-47626D01*
X41086Y-47682D01*
X41114Y-47710D01*
X41170Y-47739D01*
X41282Y-47739D01*
X41339Y-47710D01*
X41367Y-47682D01*
X41395Y-47626D01*
X41395Y-47148D01*
X41648Y-47570D02*
X41929Y-47570D01*
X41592Y-47739D02*
X41789Y-47148D01*
X41985Y-47739D01*
X42520Y-47739D02*
X42323Y-47457D01*
X42182Y-47739D02*
X42182Y-47148D01*
X42407Y-47148D01*
X42464Y-47176D01*
X42492Y-47204D01*
X42520Y-47260D01*
X42520Y-47345D01*
X42492Y-47401D01*
X42464Y-47429D01*
X42407Y-47457D01*
X42182Y-47457D01*
X42688Y-47148D02*
X43026Y-47148D01*
X42857Y-47739D02*
X42857Y-47148D01*
X41387Y-45739D02*
X41050Y-45739D01*
X41218Y-45739D02*
X41218Y-45148D01*
X41162Y-45232D01*
X41106Y-45289D01*
X41050Y-45317D01*
X41949Y-45739D02*
X41612Y-45739D01*
X41781Y-45739D02*
X41781Y-45148D01*
X41724Y-45232D01*
X41668Y-45289D01*
X41612Y-45317D01*
X41387Y-44739D02*
X41050Y-44739D01*
X41218Y-44739D02*
X41218Y-44148D01*
X41162Y-44232D01*
X41106Y-44289D01*
X41050Y-44317D01*
X41753Y-44148D02*
X41809Y-44148D01*
X41865Y-44176D01*
X41893Y-44204D01*
X41921Y-44260D01*
X41949Y-44373D01*
X41949Y-44514D01*
X41921Y-44626D01*
X41893Y-44682D01*
X41865Y-44710D01*
X41809Y-44739D01*
X41753Y-44739D01*
X41696Y-44710D01*
X41668Y-44682D01*
X41640Y-44626D01*
X41612Y-44514D01*
X41612Y-44373D01*
X41640Y-44260D01*
X41668Y-44204D01*
X41696Y-44176D01*
X41753Y-44148D01*
X41087Y-43739D02*
X41200Y-43739D01*
X41256Y-43710D01*
X41284Y-43682D01*
X41340Y-43598D01*
X41368Y-43485D01*
X41368Y-43260D01*
X41340Y-43204D01*
X41312Y-43176D01*
X41256Y-43148D01*
X41143Y-43148D01*
X41087Y-43176D01*
X41059Y-43204D01*
X41031Y-43260D01*
X41031Y-43401D01*
X41059Y-43457D01*
X41087Y-43485D01*
X41143Y-43514D01*
X41256Y-43514D01*
X41312Y-43485D01*
X41340Y-43457D01*
X41368Y-43401D01*
X41143Y-42301D02*
X41087Y-42273D01*
X41059Y-42245D01*
X41031Y-42189D01*
X41031Y-42160D01*
X41059Y-42104D01*
X41087Y-42076D01*
X41143Y-42048D01*
X41256Y-42048D01*
X41312Y-42076D01*
X41340Y-42104D01*
X41368Y-42160D01*
X41368Y-42189D01*
X41340Y-42245D01*
X41312Y-42273D01*
X41256Y-42301D01*
X41143Y-42301D01*
X41087Y-42329D01*
X41059Y-42357D01*
X41031Y-42414D01*
X41031Y-42526D01*
X41059Y-42582D01*
X41087Y-42610D01*
X41143Y-42639D01*
X41256Y-42639D01*
X41312Y-42610D01*
X41340Y-42582D01*
X41368Y-42526D01*
X41368Y-42414D01*
X41340Y-42357D01*
X41312Y-42329D01*
X41256Y-42301D01*
X41003Y-41148D02*
X41396Y-41148D01*
X41143Y-41739D01*
X41312Y-40048D02*
X41200Y-40048D01*
X41143Y-40076D01*
X41115Y-40104D01*
X41059Y-40189D01*
X41031Y-40301D01*
X41031Y-40526D01*
X41059Y-40582D01*
X41087Y-40610D01*
X41143Y-40639D01*
X41256Y-40639D01*
X41312Y-40610D01*
X41340Y-40582D01*
X41368Y-40526D01*
X41368Y-40385D01*
X41340Y-40329D01*
X41312Y-40301D01*
X41256Y-40273D01*
X41143Y-40273D01*
X41087Y-40301D01*
X41059Y-40329D01*
X41031Y-40385D01*
X41340Y-39148D02*
X41059Y-39148D01*
X41031Y-39429D01*
X41059Y-39401D01*
X41115Y-39373D01*
X41256Y-39373D01*
X41312Y-39401D01*
X41340Y-39429D01*
X41368Y-39485D01*
X41368Y-39626D01*
X41340Y-39682D01*
X41312Y-39710D01*
X41256Y-39739D01*
X41115Y-39739D01*
X41059Y-39710D01*
X41031Y-39682D01*
X41312Y-38345D02*
X41312Y-38739D01*
X41171Y-38120D02*
X41031Y-38542D01*
X41396Y-38542D01*
X41003Y-37148D02*
X41368Y-37148D01*
X41171Y-37373D01*
X41256Y-37373D01*
X41312Y-37401D01*
X41340Y-37429D01*
X41368Y-37485D01*
X41368Y-37626D01*
X41340Y-37682D01*
X41312Y-37710D01*
X41256Y-37739D01*
X41087Y-37739D01*
X41031Y-37710D01*
X41003Y-37682D01*
X41031Y-36204D02*
X41059Y-36176D01*
X41115Y-36148D01*
X41256Y-36148D01*
X41312Y-36176D01*
X41340Y-36204D01*
X41368Y-36260D01*
X41368Y-36317D01*
X41340Y-36401D01*
X41003Y-36739D01*
X41368Y-36739D01*
X41368Y-35739D02*
X41031Y-35739D01*
X41200Y-35739D02*
X41200Y-35148D01*
X41143Y-35232D01*
X41087Y-35289D01*
X41031Y-35317D01*
X41171Y-34148D02*
X41228Y-34148D01*
X41284Y-34176D01*
X41312Y-34204D01*
X41340Y-34260D01*
X41368Y-34373D01*
X41368Y-34514D01*
X41340Y-34626D01*
X41312Y-34682D01*
X41284Y-34710D01*
X41228Y-34739D01*
X41171Y-34739D01*
X41115Y-34710D01*
X41087Y-34682D01*
X41059Y-34626D01*
X41031Y-34514D01*
X41031Y-34373D01*
X41059Y-34260D01*
X41087Y-34204D01*
X41115Y-34176D01*
X41171Y-34148D01*
X37060Y-45387D02*
X37060Y-45050D01*
X37060Y-45218D02*
X37651Y-45218D01*
X37567Y-45162D01*
X37510Y-45106D01*
X37482Y-45050D01*
X37060Y-45949D02*
X37060Y-45612D01*
X37060Y-45781D02*
X37651Y-45781D01*
X37567Y-45724D01*
X37510Y-45668D01*
X37482Y-45612D01*
X37060Y-44387D02*
X37060Y-44050D01*
X37060Y-44218D02*
X37651Y-44218D01*
X37567Y-44162D01*
X37510Y-44106D01*
X37482Y-44050D01*
X37651Y-44753D02*
X37651Y-44809D01*
X37623Y-44865D01*
X37595Y-44893D01*
X37539Y-44921D01*
X37426Y-44949D01*
X37285Y-44949D01*
X37173Y-44921D01*
X37117Y-44893D01*
X37089Y-44865D01*
X37060Y-44809D01*
X37060Y-44753D01*
X37089Y-44696D01*
X37117Y-44668D01*
X37173Y-44640D01*
X37285Y-44612D01*
X37426Y-44612D01*
X37539Y-44640D01*
X37595Y-44668D01*
X37623Y-44696D01*
X37651Y-44753D01*
X37060Y-43387D02*
X37060Y-43500D01*
X37089Y-43556D01*
X37117Y-43584D01*
X37201Y-43640D01*
X37314Y-43668D01*
X37539Y-43668D01*
X37595Y-43640D01*
X37623Y-43612D01*
X37651Y-43556D01*
X37651Y-43443D01*
X37623Y-43387D01*
X37595Y-43359D01*
X37539Y-43331D01*
X37398Y-43331D01*
X37342Y-43359D01*
X37314Y-43387D01*
X37285Y-43443D01*
X37285Y-43556D01*
X37314Y-43612D01*
X37342Y-43640D01*
X37398Y-43668D01*
X37398Y-42443D02*
X37426Y-42387D01*
X37454Y-42359D01*
X37510Y-42331D01*
X37539Y-42331D01*
X37595Y-42359D01*
X37623Y-42387D01*
X37651Y-42443D01*
X37651Y-42556D01*
X37623Y-42612D01*
X37595Y-42640D01*
X37539Y-42668D01*
X37510Y-42668D01*
X37454Y-42640D01*
X37426Y-42612D01*
X37398Y-42556D01*
X37398Y-42443D01*
X37370Y-42387D01*
X37342Y-42359D01*
X37285Y-42331D01*
X37173Y-42331D01*
X37117Y-42359D01*
X37089Y-42387D01*
X37060Y-42443D01*
X37060Y-42556D01*
X37089Y-42612D01*
X37117Y-42640D01*
X37173Y-42668D01*
X37285Y-42668D01*
X37342Y-42640D01*
X37370Y-42612D01*
X37398Y-42556D01*
X37651Y-41303D02*
X37651Y-41696D01*
X37060Y-41443D01*
X37651Y-40612D02*
X37651Y-40500D01*
X37623Y-40443D01*
X37595Y-40415D01*
X37510Y-40359D01*
X37398Y-40331D01*
X37173Y-40331D01*
X37117Y-40359D01*
X37089Y-40387D01*
X37060Y-40443D01*
X37060Y-40556D01*
X37089Y-40612D01*
X37117Y-40640D01*
X37173Y-40668D01*
X37314Y-40668D01*
X37370Y-40640D01*
X37398Y-40612D01*
X37426Y-40556D01*
X37426Y-40443D01*
X37398Y-40387D01*
X37370Y-40359D01*
X37314Y-40331D01*
X37651Y-39640D02*
X37651Y-39359D01*
X37370Y-39331D01*
X37398Y-39359D01*
X37426Y-39415D01*
X37426Y-39556D01*
X37398Y-39612D01*
X37370Y-39640D01*
X37314Y-39668D01*
X37173Y-39668D01*
X37117Y-39640D01*
X37089Y-39612D01*
X37060Y-39556D01*
X37060Y-39415D01*
X37089Y-39359D01*
X37117Y-39331D01*
X37454Y-38612D02*
X37060Y-38612D01*
X37679Y-38471D02*
X37257Y-38331D01*
X37257Y-38696D01*
X37651Y-37303D02*
X37651Y-37668D01*
X37426Y-37471D01*
X37426Y-37556D01*
X37398Y-37612D01*
X37370Y-37640D01*
X37314Y-37668D01*
X37173Y-37668D01*
X37117Y-37640D01*
X37089Y-37612D01*
X37060Y-37556D01*
X37060Y-37387D01*
X37089Y-37331D01*
X37117Y-37303D01*
X37595Y-36331D02*
X37623Y-36359D01*
X37651Y-36415D01*
X37651Y-36556D01*
X37623Y-36612D01*
X37595Y-36640D01*
X37539Y-36668D01*
X37482Y-36668D01*
X37398Y-36640D01*
X37060Y-36303D01*
X37060Y-36668D01*
X37060Y-35668D02*
X37060Y-35331D01*
X37060Y-35500D02*
X37651Y-35500D01*
X37567Y-35443D01*
X37510Y-35387D01*
X37482Y-35331D01*
X37651Y-34471D02*
X37651Y-34528D01*
X37623Y-34584D01*
X37595Y-34612D01*
X37539Y-34640D01*
X37426Y-34668D01*
X37285Y-34668D01*
X37173Y-34640D01*
X37117Y-34612D01*
X37089Y-34584D01*
X37060Y-34528D01*
X37060Y-34471D01*
X37089Y-34415D01*
X37117Y-34387D01*
X37173Y-34359D01*
X37285Y-34331D01*
X37426Y-34331D01*
X37539Y-34359D01*
X37595Y-34387D01*
X37623Y-34415D01*
X37651Y-34471D01*
X75993Y-38998D02*
X75993Y-39201D01*
X75993Y-39100D02*
X75639Y-39100D01*
X75689Y-39133D01*
X75723Y-39167D01*
X75740Y-39201D01*
X75672Y-41201D02*
X75655Y-41184D01*
X75639Y-41150D01*
X75639Y-41066D01*
X75655Y-41032D01*
X75672Y-41015D01*
X75706Y-40998D01*
X75740Y-40998D01*
X75790Y-41015D01*
X75993Y-41218D01*
X75993Y-40998D01*
X75639Y-43218D02*
X75639Y-42998D01*
X75774Y-43116D01*
X75774Y-43066D01*
X75790Y-43032D01*
X75807Y-43015D01*
X75841Y-42998D01*
X75925Y-42998D01*
X75959Y-43015D01*
X75976Y-43032D01*
X75993Y-43066D01*
X75993Y-43167D01*
X75976Y-43201D01*
X75959Y-43218D01*
X75757Y-45032D02*
X75993Y-45032D01*
X75622Y-45116D02*
X75875Y-45201D01*
X75875Y-44981D01*
X75639Y-47015D02*
X75639Y-47184D01*
X75807Y-47201D01*
X75790Y-47184D01*
X75774Y-47150D01*
X75774Y-47066D01*
X75790Y-47032D01*
X75807Y-47015D01*
X75841Y-46998D01*
X75925Y-46998D01*
X75959Y-47015D01*
X75976Y-47032D01*
X75993Y-47066D01*
X75993Y-47150D01*
X75976Y-47184D01*
X75959Y-47201D01*
X75639Y-49032D02*
X75639Y-49100D01*
X75655Y-49133D01*
X75672Y-49150D01*
X75723Y-49184D01*
X75790Y-49201D01*
X75925Y-49201D01*
X75959Y-49184D01*
X75976Y-49167D01*
X75993Y-49133D01*
X75993Y-49066D01*
X75976Y-49032D01*
X75959Y-49015D01*
X75925Y-48998D01*
X75841Y-48998D01*
X75807Y-49015D01*
X75790Y-49032D01*
X75774Y-49066D01*
X75774Y-49133D01*
X75790Y-49167D01*
X75807Y-49184D01*
X75841Y-49201D01*
X75655Y-40369D02*
X75639Y-40403D01*
X75639Y-40454D01*
X75655Y-40504D01*
X75689Y-40538D01*
X75723Y-40555D01*
X75790Y-40572D01*
X75841Y-40572D01*
X75909Y-40555D01*
X75942Y-40538D01*
X75976Y-40504D01*
X75993Y-40454D01*
X75993Y-40420D01*
X75976Y-40369D01*
X75959Y-40353D01*
X75841Y-40353D01*
X75841Y-40420D01*
X75993Y-40201D02*
X75639Y-40201D01*
X75993Y-39998D01*
X75639Y-39998D01*
X75993Y-39830D02*
X75639Y-39830D01*
X75639Y-39745D01*
X75655Y-39695D01*
X75689Y-39661D01*
X75723Y-39644D01*
X75790Y-39627D01*
X75841Y-39627D01*
X75909Y-39644D01*
X75942Y-39661D01*
X75976Y-39695D01*
X75993Y-39745D01*
X75993Y-39830D01*
X75655Y-42369D02*
X75639Y-42403D01*
X75639Y-42454D01*
X75655Y-42504D01*
X75689Y-42538D01*
X75723Y-42555D01*
X75790Y-42572D01*
X75841Y-42572D01*
X75909Y-42555D01*
X75942Y-42538D01*
X75976Y-42504D01*
X75993Y-42454D01*
X75993Y-42420D01*
X75976Y-42369D01*
X75959Y-42353D01*
X75841Y-42353D01*
X75841Y-42420D01*
X75993Y-42201D02*
X75639Y-42201D01*
X75993Y-41998D01*
X75639Y-41998D01*
X75993Y-41830D02*
X75639Y-41830D01*
X75639Y-41745D01*
X75655Y-41695D01*
X75689Y-41661D01*
X75723Y-41644D01*
X75790Y-41627D01*
X75841Y-41627D01*
X75909Y-41644D01*
X75942Y-41661D01*
X75976Y-41695D01*
X75993Y-41745D01*
X75993Y-41830D01*
X75655Y-44369D02*
X75639Y-44403D01*
X75639Y-44454D01*
X75655Y-44504D01*
X75689Y-44538D01*
X75723Y-44555D01*
X75790Y-44572D01*
X75841Y-44572D01*
X75909Y-44555D01*
X75942Y-44538D01*
X75976Y-44504D01*
X75993Y-44454D01*
X75993Y-44420D01*
X75976Y-44369D01*
X75959Y-44353D01*
X75841Y-44353D01*
X75841Y-44420D01*
X75993Y-44201D02*
X75639Y-44201D01*
X75993Y-43998D01*
X75639Y-43998D01*
X75993Y-43830D02*
X75639Y-43830D01*
X75639Y-43745D01*
X75655Y-43695D01*
X75689Y-43661D01*
X75723Y-43644D01*
X75790Y-43627D01*
X75841Y-43627D01*
X75909Y-43644D01*
X75942Y-43661D01*
X75976Y-43695D01*
X75993Y-43745D01*
X75993Y-43830D01*
X75655Y-46369D02*
X75639Y-46403D01*
X75639Y-46454D01*
X75655Y-46504D01*
X75689Y-46538D01*
X75723Y-46555D01*
X75790Y-46572D01*
X75841Y-46572D01*
X75909Y-46555D01*
X75942Y-46538D01*
X75976Y-46504D01*
X75993Y-46454D01*
X75993Y-46420D01*
X75976Y-46369D01*
X75959Y-46353D01*
X75841Y-46353D01*
X75841Y-46420D01*
X75993Y-46201D02*
X75639Y-46201D01*
X75993Y-45998D01*
X75639Y-45998D01*
X75993Y-45830D02*
X75639Y-45830D01*
X75639Y-45745D01*
X75655Y-45695D01*
X75689Y-45661D01*
X75723Y-45644D01*
X75790Y-45627D01*
X75841Y-45627D01*
X75909Y-45644D01*
X75942Y-45661D01*
X75976Y-45695D01*
X75993Y-45745D01*
X75993Y-45830D01*
X75655Y-48369D02*
X75639Y-48403D01*
X75639Y-48454D01*
X75655Y-48504D01*
X75689Y-48538D01*
X75723Y-48555D01*
X75790Y-48572D01*
X75841Y-48572D01*
X75909Y-48555D01*
X75942Y-48538D01*
X75976Y-48504D01*
X75993Y-48454D01*
X75993Y-48420D01*
X75976Y-48369D01*
X75959Y-48353D01*
X75841Y-48353D01*
X75841Y-48420D01*
X75993Y-48201D02*
X75639Y-48201D01*
X75993Y-47998D01*
X75639Y-47998D01*
X75993Y-47830D02*
X75639Y-47830D01*
X75639Y-47745D01*
X75655Y-47695D01*
X75689Y-47661D01*
X75723Y-47644D01*
X75790Y-47627D01*
X75841Y-47627D01*
X75909Y-47644D01*
X75942Y-47661D01*
X75976Y-47695D01*
X75993Y-47745D01*
X75993Y-47830D01*
X75655Y-50369D02*
X75639Y-50403D01*
X75639Y-50454D01*
X75655Y-50504D01*
X75689Y-50538D01*
X75723Y-50555D01*
X75790Y-50572D01*
X75841Y-50572D01*
X75909Y-50555D01*
X75942Y-50538D01*
X75976Y-50504D01*
X75993Y-50454D01*
X75993Y-50420D01*
X75976Y-50369D01*
X75959Y-50353D01*
X75841Y-50353D01*
X75841Y-50420D01*
X75993Y-50201D02*
X75639Y-50201D01*
X75993Y-49998D01*
X75639Y-49998D01*
X75993Y-49830D02*
X75639Y-49830D01*
X75639Y-49745D01*
X75655Y-49695D01*
X75689Y-49661D01*
X75723Y-49644D01*
X75790Y-49627D01*
X75841Y-49627D01*
X75909Y-49644D01*
X75942Y-49661D01*
X75976Y-49695D01*
X75993Y-49745D01*
X75993Y-49830D01*
X62069Y-31594D02*
X62103Y-31610D01*
X62154Y-31610D01*
X62204Y-31594D01*
X62238Y-31560D01*
X62255Y-31526D01*
X62272Y-31459D01*
X62272Y-31408D01*
X62255Y-31340D01*
X62238Y-31307D01*
X62204Y-31273D01*
X62154Y-31256D01*
X62120Y-31256D01*
X62069Y-31273D01*
X62053Y-31290D01*
X62053Y-31408D01*
X62120Y-31408D01*
X61901Y-31256D02*
X61901Y-31610D01*
X61698Y-31256D01*
X61698Y-31610D01*
X61530Y-31256D02*
X61530Y-31610D01*
X61445Y-31610D01*
X61395Y-31594D01*
X61361Y-31560D01*
X61344Y-31526D01*
X61327Y-31459D01*
X61327Y-31408D01*
X61344Y-31340D01*
X61361Y-31307D01*
X61395Y-31273D01*
X61445Y-31256D01*
X61530Y-31256D01*
X60867Y-31610D02*
X61036Y-31610D01*
X61053Y-31442D01*
X61036Y-31459D01*
X61002Y-31475D01*
X60918Y-31475D01*
X60884Y-31459D01*
X60867Y-31442D01*
X60850Y-31408D01*
X60850Y-31324D01*
X60867Y-31290D01*
X60884Y-31273D01*
X60918Y-31256D01*
X61002Y-31256D01*
X61036Y-31273D01*
X61053Y-31290D01*
X60749Y-31610D02*
X60631Y-31256D01*
X60513Y-31610D01*
X56069Y-31594D02*
X56103Y-31610D01*
X56154Y-31610D01*
X56204Y-31594D01*
X56238Y-31560D01*
X56255Y-31526D01*
X56272Y-31459D01*
X56272Y-31408D01*
X56255Y-31340D01*
X56238Y-31307D01*
X56204Y-31273D01*
X56154Y-31256D01*
X56120Y-31256D01*
X56069Y-31273D01*
X56053Y-31290D01*
X56053Y-31408D01*
X56120Y-31408D01*
X55901Y-31256D02*
X55901Y-31610D01*
X55698Y-31256D01*
X55698Y-31610D01*
X55530Y-31256D02*
X55530Y-31610D01*
X55445Y-31610D01*
X55395Y-31594D01*
X55361Y-31560D01*
X55344Y-31526D01*
X55327Y-31459D01*
X55327Y-31408D01*
X55344Y-31340D01*
X55361Y-31307D01*
X55395Y-31273D01*
X55445Y-31256D01*
X55530Y-31256D01*
X54867Y-31610D02*
X55036Y-31610D01*
X55053Y-31442D01*
X55036Y-31459D01*
X55002Y-31475D01*
X54918Y-31475D01*
X54884Y-31459D01*
X54867Y-31442D01*
X54850Y-31408D01*
X54850Y-31324D01*
X54867Y-31290D01*
X54884Y-31273D01*
X54918Y-31256D01*
X55002Y-31256D01*
X55036Y-31273D01*
X55053Y-31290D01*
X54749Y-31610D02*
X54631Y-31256D01*
X54513Y-31610D01*
X50867Y-31610D02*
X51036Y-31610D01*
X51053Y-31442D01*
X51036Y-31459D01*
X51002Y-31475D01*
X50918Y-31475D01*
X50884Y-31459D01*
X50867Y-31442D01*
X50850Y-31408D01*
X50850Y-31324D01*
X50867Y-31290D01*
X50884Y-31273D01*
X50918Y-31256D01*
X51002Y-31256D01*
X51036Y-31273D01*
X51053Y-31290D01*
X50749Y-31610D02*
X50631Y-31256D01*
X50513Y-31610D01*
X52069Y-31594D02*
X52103Y-31610D01*
X52154Y-31610D01*
X52204Y-31594D01*
X52238Y-31560D01*
X52255Y-31526D01*
X52272Y-31459D01*
X52272Y-31408D01*
X52255Y-31340D01*
X52238Y-31307D01*
X52204Y-31273D01*
X52154Y-31256D01*
X52120Y-31256D01*
X52069Y-31273D01*
X52053Y-31290D01*
X52053Y-31408D01*
X52120Y-31408D01*
X51901Y-31256D02*
X51901Y-31610D01*
X51698Y-31256D01*
X51698Y-31610D01*
X51530Y-31256D02*
X51530Y-31610D01*
X51445Y-31610D01*
X51395Y-31594D01*
X51361Y-31560D01*
X51344Y-31526D01*
X51327Y-31459D01*
X51327Y-31408D01*
X51344Y-31340D01*
X51361Y-31307D01*
X51395Y-31273D01*
X51445Y-31256D01*
X51530Y-31256D01*
X44867Y-31610D02*
X45036Y-31610D01*
X45053Y-31442D01*
X45036Y-31459D01*
X45002Y-31475D01*
X44918Y-31475D01*
X44884Y-31459D01*
X44867Y-31442D01*
X44850Y-31408D01*
X44850Y-31324D01*
X44867Y-31290D01*
X44884Y-31273D01*
X44918Y-31256D01*
X45002Y-31256D01*
X45036Y-31273D01*
X45053Y-31290D01*
X44749Y-31610D02*
X44631Y-31256D01*
X44513Y-31610D01*
X46069Y-31594D02*
X46103Y-31610D01*
X46154Y-31610D01*
X46204Y-31594D01*
X46238Y-31560D01*
X46255Y-31526D01*
X46272Y-31459D01*
X46272Y-31408D01*
X46255Y-31340D01*
X46238Y-31307D01*
X46204Y-31273D01*
X46154Y-31256D01*
X46120Y-31256D01*
X46069Y-31273D01*
X46053Y-31290D01*
X46053Y-31408D01*
X46120Y-31408D01*
X45901Y-31256D02*
X45901Y-31610D01*
X45698Y-31256D01*
X45698Y-31610D01*
X45530Y-31256D02*
X45530Y-31610D01*
X45445Y-31610D01*
X45395Y-31594D01*
X45361Y-31560D01*
X45344Y-31526D01*
X45327Y-31459D01*
X45327Y-31408D01*
X45344Y-31340D01*
X45361Y-31307D01*
X45395Y-31273D01*
X45445Y-31256D01*
X45530Y-31256D01*
X40867Y-31610D02*
X41036Y-31610D01*
X41053Y-31442D01*
X41036Y-31459D01*
X41002Y-31475D01*
X40918Y-31475D01*
X40884Y-31459D01*
X40867Y-31442D01*
X40850Y-31408D01*
X40850Y-31324D01*
X40867Y-31290D01*
X40884Y-31273D01*
X40918Y-31256D01*
X41002Y-31256D01*
X41036Y-31273D01*
X41053Y-31290D01*
X40749Y-31610D02*
X40631Y-31256D01*
X40513Y-31610D01*
X42069Y-31594D02*
X42103Y-31610D01*
X42154Y-31610D01*
X42204Y-31594D01*
X42238Y-31560D01*
X42255Y-31526D01*
X42272Y-31459D01*
X42272Y-31408D01*
X42255Y-31340D01*
X42238Y-31307D01*
X42204Y-31273D01*
X42154Y-31256D01*
X42120Y-31256D01*
X42069Y-31273D01*
X42053Y-31290D01*
X42053Y-31408D01*
X42120Y-31408D01*
X41901Y-31256D02*
X41901Y-31610D01*
X41698Y-31256D01*
X41698Y-31610D01*
X41530Y-31256D02*
X41530Y-31610D01*
X41445Y-31610D01*
X41395Y-31594D01*
X41361Y-31560D01*
X41344Y-31526D01*
X41327Y-31459D01*
X41327Y-31408D01*
X41344Y-31340D01*
X41361Y-31307D01*
X41395Y-31273D01*
X41445Y-31256D01*
X41530Y-31256D01*
X64732Y-53989D02*
X64563Y-53989D01*
X64546Y-54157D01*
X64563Y-54140D01*
X64597Y-54124D01*
X64681Y-54124D01*
X64715Y-54140D01*
X64732Y-54157D01*
X64749Y-54191D01*
X64749Y-54275D01*
X64732Y-54309D01*
X64715Y-54326D01*
X64681Y-54343D01*
X64597Y-54343D01*
X64563Y-54326D01*
X64546Y-54309D01*
X64850Y-53989D02*
X64968Y-54343D01*
X65086Y-53989D01*
X65530Y-54005D02*
X65496Y-53989D01*
X65445Y-53989D01*
X65395Y-54005D01*
X65361Y-54039D01*
X65344Y-54073D01*
X65327Y-54140D01*
X65327Y-54191D01*
X65344Y-54259D01*
X65361Y-54292D01*
X65395Y-54326D01*
X65445Y-54343D01*
X65479Y-54343D01*
X65530Y-54326D01*
X65546Y-54309D01*
X65546Y-54191D01*
X65479Y-54191D01*
X65698Y-54343D02*
X65698Y-53989D01*
X65901Y-54343D01*
X65901Y-53989D01*
X66069Y-54343D02*
X66069Y-53989D01*
X66154Y-53989D01*
X66204Y-54005D01*
X66238Y-54039D01*
X66255Y-54073D01*
X66272Y-54140D01*
X66272Y-54191D01*
X66255Y-54259D01*
X66238Y-54292D01*
X66204Y-54326D01*
X66154Y-54343D01*
X66069Y-54343D01*
X60732Y-53989D02*
X60563Y-53989D01*
X60546Y-54157D01*
X60563Y-54140D01*
X60597Y-54124D01*
X60681Y-54124D01*
X60715Y-54140D01*
X60732Y-54157D01*
X60749Y-54191D01*
X60749Y-54275D01*
X60732Y-54309D01*
X60715Y-54326D01*
X60681Y-54343D01*
X60597Y-54343D01*
X60563Y-54326D01*
X60546Y-54309D01*
X60850Y-53989D02*
X60968Y-54343D01*
X61086Y-53989D01*
X61530Y-54005D02*
X61496Y-53989D01*
X61445Y-53989D01*
X61395Y-54005D01*
X61361Y-54039D01*
X61344Y-54073D01*
X61327Y-54140D01*
X61327Y-54191D01*
X61344Y-54259D01*
X61361Y-54292D01*
X61395Y-54326D01*
X61445Y-54343D01*
X61479Y-54343D01*
X61530Y-54326D01*
X61546Y-54309D01*
X61546Y-54191D01*
X61479Y-54191D01*
X61698Y-54343D02*
X61698Y-53989D01*
X61901Y-54343D01*
X61901Y-53989D01*
X62069Y-54343D02*
X62069Y-53989D01*
X62154Y-53989D01*
X62204Y-54005D01*
X62238Y-54039D01*
X62255Y-54073D01*
X62272Y-54140D01*
X62272Y-54191D01*
X62255Y-54259D01*
X62238Y-54292D01*
X62204Y-54326D01*
X62154Y-54343D01*
X62069Y-54343D01*
X56732Y-53989D02*
X56563Y-53989D01*
X56546Y-54157D01*
X56563Y-54140D01*
X56597Y-54124D01*
X56681Y-54124D01*
X56715Y-54140D01*
X56732Y-54157D01*
X56749Y-54191D01*
X56749Y-54275D01*
X56732Y-54309D01*
X56715Y-54326D01*
X56681Y-54343D01*
X56597Y-54343D01*
X56563Y-54326D01*
X56546Y-54309D01*
X56850Y-53989D02*
X56968Y-54343D01*
X57086Y-53989D01*
X57530Y-54005D02*
X57496Y-53989D01*
X57445Y-53989D01*
X57395Y-54005D01*
X57361Y-54039D01*
X57344Y-54073D01*
X57327Y-54140D01*
X57327Y-54191D01*
X57344Y-54259D01*
X57361Y-54292D01*
X57395Y-54326D01*
X57445Y-54343D01*
X57479Y-54343D01*
X57530Y-54326D01*
X57546Y-54309D01*
X57546Y-54191D01*
X57479Y-54191D01*
X57698Y-54343D02*
X57698Y-53989D01*
X57901Y-54343D01*
X57901Y-53989D01*
X58069Y-54343D02*
X58069Y-53989D01*
X58154Y-53989D01*
X58204Y-54005D01*
X58238Y-54039D01*
X58255Y-54073D01*
X58272Y-54140D01*
X58272Y-54191D01*
X58255Y-54259D01*
X58238Y-54292D01*
X58204Y-54326D01*
X58154Y-54343D01*
X58069Y-54343D01*
X52732Y-53989D02*
X52563Y-53989D01*
X52546Y-54157D01*
X52563Y-54140D01*
X52597Y-54124D01*
X52681Y-54124D01*
X52715Y-54140D01*
X52732Y-54157D01*
X52749Y-54191D01*
X52749Y-54275D01*
X52732Y-54309D01*
X52715Y-54326D01*
X52681Y-54343D01*
X52597Y-54343D01*
X52563Y-54326D01*
X52546Y-54309D01*
X52850Y-53989D02*
X52968Y-54343D01*
X53086Y-53989D01*
X53530Y-54005D02*
X53496Y-53989D01*
X53445Y-53989D01*
X53395Y-54005D01*
X53361Y-54039D01*
X53344Y-54073D01*
X53327Y-54140D01*
X53327Y-54191D01*
X53344Y-54259D01*
X53361Y-54292D01*
X53395Y-54326D01*
X53445Y-54343D01*
X53479Y-54343D01*
X53530Y-54326D01*
X53546Y-54309D01*
X53546Y-54191D01*
X53479Y-54191D01*
X53698Y-54343D02*
X53698Y-53989D01*
X53901Y-54343D01*
X53901Y-53989D01*
X54069Y-54343D02*
X54069Y-53989D01*
X54154Y-53989D01*
X54204Y-54005D01*
X54238Y-54039D01*
X54255Y-54073D01*
X54272Y-54140D01*
X54272Y-54191D01*
X54255Y-54259D01*
X54238Y-54292D01*
X54204Y-54326D01*
X54154Y-54343D01*
X54069Y-54343D01*
X40732Y-53989D02*
X40563Y-53989D01*
X40546Y-54157D01*
X40563Y-54140D01*
X40597Y-54124D01*
X40681Y-54124D01*
X40715Y-54140D01*
X40732Y-54157D01*
X40749Y-54191D01*
X40749Y-54275D01*
X40732Y-54309D01*
X40715Y-54326D01*
X40681Y-54343D01*
X40597Y-54343D01*
X40563Y-54326D01*
X40546Y-54309D01*
X40850Y-53989D02*
X40968Y-54343D01*
X41086Y-53989D01*
X41530Y-54005D02*
X41496Y-53989D01*
X41445Y-53989D01*
X41395Y-54005D01*
X41361Y-54039D01*
X41344Y-54073D01*
X41327Y-54140D01*
X41327Y-54191D01*
X41344Y-54259D01*
X41361Y-54292D01*
X41395Y-54326D01*
X41445Y-54343D01*
X41479Y-54343D01*
X41530Y-54326D01*
X41546Y-54309D01*
X41546Y-54191D01*
X41479Y-54191D01*
X41698Y-54343D02*
X41698Y-53989D01*
X41901Y-54343D01*
X41901Y-53989D01*
X42069Y-54343D02*
X42069Y-53989D01*
X42154Y-53989D01*
X42204Y-54005D01*
X42238Y-54039D01*
X42255Y-54073D01*
X42272Y-54140D01*
X42272Y-54191D01*
X42255Y-54259D01*
X42238Y-54292D01*
X42204Y-54326D01*
X42154Y-54343D01*
X42069Y-54343D01*
X48732Y-53989D02*
X48563Y-53989D01*
X48546Y-54157D01*
X48563Y-54140D01*
X48597Y-54124D01*
X48681Y-54124D01*
X48715Y-54140D01*
X48732Y-54157D01*
X48749Y-54191D01*
X48749Y-54275D01*
X48732Y-54309D01*
X48715Y-54326D01*
X48681Y-54343D01*
X48597Y-54343D01*
X48563Y-54326D01*
X48546Y-54309D01*
X48850Y-53989D02*
X48968Y-54343D01*
X49086Y-53989D01*
X49530Y-54005D02*
X49496Y-53989D01*
X49445Y-53989D01*
X49395Y-54005D01*
X49361Y-54039D01*
X49344Y-54073D01*
X49327Y-54140D01*
X49327Y-54191D01*
X49344Y-54259D01*
X49361Y-54292D01*
X49395Y-54326D01*
X49445Y-54343D01*
X49479Y-54343D01*
X49530Y-54326D01*
X49546Y-54309D01*
X49546Y-54191D01*
X49479Y-54191D01*
X49698Y-54343D02*
X49698Y-53989D01*
X49901Y-54343D01*
X49901Y-53989D01*
X50069Y-54343D02*
X50069Y-53989D01*
X50154Y-53989D01*
X50204Y-54005D01*
X50238Y-54039D01*
X50255Y-54073D01*
X50272Y-54140D01*
X50272Y-54191D01*
X50255Y-54259D01*
X50238Y-54292D01*
X50204Y-54326D01*
X50154Y-54343D01*
X50069Y-54343D01*
X44732Y-53989D02*
X44563Y-53989D01*
X44546Y-54157D01*
X44563Y-54140D01*
X44597Y-54124D01*
X44681Y-54124D01*
X44715Y-54140D01*
X44732Y-54157D01*
X44749Y-54191D01*
X44749Y-54275D01*
X44732Y-54309D01*
X44715Y-54326D01*
X44681Y-54343D01*
X44597Y-54343D01*
X44563Y-54326D01*
X44546Y-54309D01*
X44850Y-53989D02*
X44968Y-54343D01*
X45086Y-53989D01*
G54D14*
X69617Y-55629D02*
X69701Y-55657D01*
X69729Y-55685D01*
X69757Y-55742D01*
X69757Y-55826D01*
X69729Y-55882D01*
X69701Y-55910D01*
X69645Y-55939D01*
X69420Y-55939D01*
X69420Y-55348D01*
X69617Y-55348D01*
X69673Y-55376D01*
X69701Y-55404D01*
X69729Y-55460D01*
X69729Y-55517D01*
X69701Y-55573D01*
X69673Y-55601D01*
X69617Y-55629D01*
X69420Y-55629D01*
X70123Y-55348D02*
X70235Y-55348D01*
X70292Y-55376D01*
X70348Y-55432D01*
X70376Y-55545D01*
X70376Y-55742D01*
X70348Y-55854D01*
X70292Y-55910D01*
X70235Y-55939D01*
X70123Y-55939D01*
X70067Y-55910D01*
X70011Y-55854D01*
X69982Y-55742D01*
X69982Y-55545D01*
X70011Y-55432D01*
X70067Y-55376D01*
X70123Y-55348D01*
X70742Y-55348D02*
X70854Y-55348D01*
X70910Y-55376D01*
X70967Y-55432D01*
X70995Y-55545D01*
X70995Y-55742D01*
X70967Y-55854D01*
X70910Y-55910D01*
X70854Y-55939D01*
X70742Y-55939D01*
X70685Y-55910D01*
X70629Y-55854D01*
X70601Y-55742D01*
X70601Y-55545D01*
X70629Y-55432D01*
X70685Y-55376D01*
X70742Y-55348D01*
X71164Y-55348D02*
X71501Y-55348D01*
X71332Y-55939D02*
X71332Y-55348D01*
X71810Y-55348D02*
X71867Y-55348D01*
X71923Y-55376D01*
X71951Y-55404D01*
X71979Y-55460D01*
X72007Y-55573D01*
X72007Y-55714D01*
X71979Y-55826D01*
X71951Y-55882D01*
X71923Y-55910D01*
X71867Y-55939D01*
X71810Y-55939D01*
X71754Y-55910D01*
X71726Y-55882D01*
X71698Y-55826D01*
X71670Y-55714D01*
X71670Y-55573D01*
X71698Y-55460D01*
X71726Y-55404D01*
X71754Y-55376D01*
X71810Y-55348D01*
X64185Y-29239D02*
X64101Y-29210D01*
X63960Y-29210D01*
X63904Y-29239D01*
X63876Y-29267D01*
X63848Y-29323D01*
X63848Y-29379D01*
X63876Y-29435D01*
X63904Y-29464D01*
X63960Y-29492D01*
X64073Y-29520D01*
X64129Y-29548D01*
X64157Y-29576D01*
X64185Y-29632D01*
X64185Y-29689D01*
X64157Y-29745D01*
X64129Y-29773D01*
X64073Y-29801D01*
X63932Y-29801D01*
X63848Y-29773D01*
X63595Y-29210D02*
X63595Y-29801D01*
X63370Y-29801D01*
X63314Y-29773D01*
X63285Y-29745D01*
X63257Y-29689D01*
X63257Y-29604D01*
X63285Y-29548D01*
X63314Y-29520D01*
X63370Y-29492D01*
X63595Y-29492D01*
X63004Y-29210D02*
X63004Y-29801D01*
X62414Y-29210D02*
X62751Y-29210D01*
X62582Y-29210D02*
X62582Y-29801D01*
X62639Y-29717D01*
X62695Y-29660D01*
X62751Y-29632D01*
X58185Y-29239D02*
X58101Y-29210D01*
X57960Y-29210D01*
X57904Y-29239D01*
X57876Y-29267D01*
X57848Y-29323D01*
X57848Y-29379D01*
X57876Y-29435D01*
X57904Y-29464D01*
X57960Y-29492D01*
X58073Y-29520D01*
X58129Y-29548D01*
X58157Y-29576D01*
X58185Y-29632D01*
X58185Y-29689D01*
X58157Y-29745D01*
X58129Y-29773D01*
X58073Y-29801D01*
X57932Y-29801D01*
X57848Y-29773D01*
X57595Y-29210D02*
X57595Y-29801D01*
X57370Y-29801D01*
X57314Y-29773D01*
X57285Y-29745D01*
X57257Y-29689D01*
X57257Y-29604D01*
X57285Y-29548D01*
X57314Y-29520D01*
X57370Y-29492D01*
X57595Y-29492D01*
X57004Y-29210D02*
X57004Y-29801D01*
X56779Y-29801D02*
X56414Y-29801D01*
X56611Y-29576D01*
X56526Y-29576D01*
X56470Y-29548D01*
X56442Y-29520D01*
X56414Y-29464D01*
X56414Y-29323D01*
X56442Y-29267D01*
X56470Y-29239D01*
X56526Y-29210D01*
X56695Y-29210D01*
X56751Y-29239D01*
X56779Y-29267D01*
X53157Y-29210D02*
X53157Y-29801D01*
X52904Y-29745D02*
X52876Y-29773D01*
X52820Y-29801D01*
X52679Y-29801D01*
X52623Y-29773D01*
X52595Y-29745D01*
X52567Y-29689D01*
X52567Y-29632D01*
X52595Y-29548D01*
X52932Y-29210D01*
X52567Y-29210D01*
X51976Y-29267D02*
X52004Y-29239D01*
X52089Y-29210D01*
X52145Y-29210D01*
X52229Y-29239D01*
X52285Y-29295D01*
X52314Y-29351D01*
X52342Y-29464D01*
X52342Y-29548D01*
X52314Y-29660D01*
X52285Y-29717D01*
X52229Y-29773D01*
X52145Y-29801D01*
X52089Y-29801D01*
X52004Y-29773D01*
X51976Y-29745D01*
X51751Y-29745D02*
X51723Y-29773D01*
X51667Y-29801D01*
X51526Y-29801D01*
X51470Y-29773D01*
X51442Y-29745D01*
X51414Y-29689D01*
X51414Y-29632D01*
X51442Y-29548D01*
X51779Y-29210D01*
X51414Y-29210D01*
X48185Y-29239D02*
X48101Y-29210D01*
X47960Y-29210D01*
X47904Y-29239D01*
X47876Y-29267D01*
X47848Y-29323D01*
X47848Y-29379D01*
X47876Y-29435D01*
X47904Y-29464D01*
X47960Y-29492D01*
X48073Y-29520D01*
X48129Y-29548D01*
X48157Y-29576D01*
X48185Y-29632D01*
X48185Y-29689D01*
X48157Y-29745D01*
X48129Y-29773D01*
X48073Y-29801D01*
X47932Y-29801D01*
X47848Y-29773D01*
X47595Y-29210D02*
X47595Y-29801D01*
X47370Y-29801D01*
X47314Y-29773D01*
X47285Y-29745D01*
X47257Y-29689D01*
X47257Y-29604D01*
X47285Y-29548D01*
X47314Y-29520D01*
X47370Y-29492D01*
X47595Y-29492D01*
X47004Y-29210D02*
X47004Y-29801D01*
X46751Y-29745D02*
X46723Y-29773D01*
X46667Y-29801D01*
X46526Y-29801D01*
X46470Y-29773D01*
X46442Y-29745D01*
X46414Y-29689D01*
X46414Y-29632D01*
X46442Y-29548D01*
X46779Y-29210D01*
X46414Y-29210D01*
X43523Y-29801D02*
X43523Y-29323D01*
X43495Y-29267D01*
X43467Y-29239D01*
X43410Y-29210D01*
X43298Y-29210D01*
X43242Y-29239D01*
X43213Y-29267D01*
X43185Y-29323D01*
X43185Y-29801D01*
X42932Y-29379D02*
X42651Y-29379D01*
X42988Y-29210D02*
X42792Y-29801D01*
X42595Y-29210D01*
X42060Y-29210D02*
X42257Y-29492D01*
X42398Y-29210D02*
X42398Y-29801D01*
X42173Y-29801D01*
X42117Y-29773D01*
X42089Y-29745D01*
X42060Y-29689D01*
X42060Y-29604D01*
X42089Y-29548D01*
X42117Y-29520D01*
X42173Y-29492D01*
X42398Y-29492D01*
X41892Y-29801D02*
X41554Y-29801D01*
X41723Y-29210D02*
X41723Y-29801D01*
X41414Y-29801D02*
X41048Y-29801D01*
X41245Y-29576D01*
X41161Y-29576D01*
X41104Y-29548D01*
X41076Y-29520D01*
X41048Y-29464D01*
X41048Y-29323D01*
X41076Y-29267D01*
X41104Y-29239D01*
X41161Y-29210D01*
X41329Y-29210D01*
X41386Y-29239D01*
X41414Y-29267D01*
X65076Y-55848D02*
X65076Y-56326D01*
X65104Y-56382D01*
X65132Y-56410D01*
X65189Y-56439D01*
X65301Y-56439D01*
X65357Y-56410D01*
X65386Y-56382D01*
X65414Y-56326D01*
X65414Y-55848D01*
X65667Y-56270D02*
X65948Y-56270D01*
X65611Y-56439D02*
X65807Y-55848D01*
X66004Y-56439D01*
X66539Y-56439D02*
X66342Y-56157D01*
X66201Y-56439D02*
X66201Y-55848D01*
X66426Y-55848D01*
X66482Y-55876D01*
X66510Y-55904D01*
X66539Y-55960D01*
X66539Y-56045D01*
X66510Y-56101D01*
X66482Y-56129D01*
X66426Y-56157D01*
X66201Y-56157D01*
X66707Y-55848D02*
X67045Y-55848D01*
X66876Y-56439D02*
X66876Y-55848D01*
X67213Y-55904D02*
X67242Y-55876D01*
X67298Y-55848D01*
X67438Y-55848D01*
X67495Y-55876D01*
X67523Y-55904D01*
X67551Y-55960D01*
X67551Y-56017D01*
X67523Y-56101D01*
X67185Y-56439D01*
X67551Y-56439D01*
X61076Y-55848D02*
X61076Y-56326D01*
X61104Y-56382D01*
X61132Y-56410D01*
X61189Y-56439D01*
X61301Y-56439D01*
X61357Y-56410D01*
X61386Y-56382D01*
X61414Y-56326D01*
X61414Y-55848D01*
X61667Y-56270D02*
X61948Y-56270D01*
X61611Y-56439D02*
X61807Y-55848D01*
X62004Y-56439D01*
X62539Y-56439D02*
X62342Y-56157D01*
X62201Y-56439D02*
X62201Y-55848D01*
X62426Y-55848D01*
X62482Y-55876D01*
X62510Y-55904D01*
X62539Y-55960D01*
X62539Y-56045D01*
X62510Y-56101D01*
X62482Y-56129D01*
X62426Y-56157D01*
X62201Y-56157D01*
X62707Y-55848D02*
X63045Y-55848D01*
X62876Y-56439D02*
X62876Y-55848D01*
X63495Y-56045D02*
X63495Y-56439D01*
X63354Y-55820D02*
X63213Y-56242D01*
X63579Y-56242D01*
X57442Y-56439D02*
X57442Y-55848D01*
X57695Y-55904D02*
X57723Y-55876D01*
X57779Y-55848D01*
X57920Y-55848D01*
X57976Y-55876D01*
X58004Y-55904D01*
X58032Y-55960D01*
X58032Y-56017D01*
X58004Y-56101D01*
X57667Y-56439D01*
X58032Y-56439D01*
X58623Y-56382D02*
X58595Y-56410D01*
X58510Y-56439D01*
X58454Y-56439D01*
X58370Y-56410D01*
X58314Y-56354D01*
X58285Y-56298D01*
X58257Y-56185D01*
X58257Y-56101D01*
X58285Y-55989D01*
X58314Y-55932D01*
X58370Y-55876D01*
X58454Y-55848D01*
X58510Y-55848D01*
X58595Y-55876D01*
X58623Y-55904D01*
X59185Y-56439D02*
X58848Y-56439D01*
X59017Y-56439D02*
X59017Y-55848D01*
X58960Y-55932D01*
X58904Y-55989D01*
X58848Y-56017D01*
X53076Y-55848D02*
X53076Y-56326D01*
X53104Y-56382D01*
X53132Y-56410D01*
X53189Y-56439D01*
X53301Y-56439D01*
X53357Y-56410D01*
X53386Y-56382D01*
X53414Y-56326D01*
X53414Y-55848D01*
X53667Y-56270D02*
X53948Y-56270D01*
X53611Y-56439D02*
X53807Y-55848D01*
X54004Y-56439D01*
X54539Y-56439D02*
X54342Y-56157D01*
X54201Y-56439D02*
X54201Y-55848D01*
X54426Y-55848D01*
X54482Y-55876D01*
X54510Y-55904D01*
X54539Y-55960D01*
X54539Y-56045D01*
X54510Y-56101D01*
X54482Y-56129D01*
X54426Y-56157D01*
X54201Y-56157D01*
X54707Y-55848D02*
X55045Y-55848D01*
X54876Y-56439D02*
X54876Y-55848D01*
X55551Y-56439D02*
X55213Y-56439D01*
X55382Y-56439D02*
X55382Y-55848D01*
X55326Y-55932D01*
X55270Y-55989D01*
X55213Y-56017D01*
X49076Y-55848D02*
X49076Y-56326D01*
X49104Y-56382D01*
X49132Y-56410D01*
X49189Y-56439D01*
X49301Y-56439D01*
X49357Y-56410D01*
X49386Y-56382D01*
X49414Y-56326D01*
X49414Y-55848D01*
X49667Y-56270D02*
X49948Y-56270D01*
X49611Y-56439D02*
X49807Y-55848D01*
X50004Y-56439D01*
X50539Y-56439D02*
X50342Y-56157D01*
X50201Y-56439D02*
X50201Y-55848D01*
X50426Y-55848D01*
X50482Y-55876D01*
X50510Y-55904D01*
X50539Y-55960D01*
X50539Y-56045D01*
X50510Y-56101D01*
X50482Y-56129D01*
X50426Y-56157D01*
X50201Y-56157D01*
X50707Y-55848D02*
X51045Y-55848D01*
X50876Y-56439D02*
X50876Y-55848D01*
X51523Y-55848D02*
X51242Y-55848D01*
X51213Y-56129D01*
X51242Y-56101D01*
X51298Y-56073D01*
X51438Y-56073D01*
X51495Y-56101D01*
X51523Y-56129D01*
X51551Y-56185D01*
X51551Y-56326D01*
X51523Y-56382D01*
X51495Y-56410D01*
X51438Y-56439D01*
X51298Y-56439D01*
X51242Y-56410D01*
X51213Y-56382D01*
X45442Y-56439D02*
X45442Y-55848D01*
X45695Y-55904D02*
X45723Y-55876D01*
X45779Y-55848D01*
X45920Y-55848D01*
X45976Y-55876D01*
X46004Y-55904D01*
X46032Y-55960D01*
X46032Y-56017D01*
X46004Y-56101D01*
X45667Y-56439D01*
X46032Y-56439D01*
X46623Y-56382D02*
X46595Y-56410D01*
X46510Y-56439D01*
X46454Y-56439D01*
X46370Y-56410D01*
X46314Y-56354D01*
X46285Y-56298D01*
X46257Y-56185D01*
X46257Y-56101D01*
X46285Y-55989D01*
X46314Y-55932D01*
X46370Y-55876D01*
X46454Y-55848D01*
X46510Y-55848D01*
X46595Y-55876D01*
X46623Y-55904D01*
X46820Y-55848D02*
X47185Y-55848D01*
X46988Y-56073D01*
X47073Y-56073D01*
X47129Y-56101D01*
X47157Y-56129D01*
X47185Y-56185D01*
X47185Y-56326D01*
X47157Y-56382D01*
X47129Y-56410D01*
X47073Y-56439D01*
X46904Y-56439D01*
X46848Y-56410D01*
X46820Y-56382D01*
X41076Y-55848D02*
X41076Y-56326D01*
X41104Y-56382D01*
X41132Y-56410D01*
X41189Y-56439D01*
X41301Y-56439D01*
X41357Y-56410D01*
X41386Y-56382D01*
X41414Y-56326D01*
X41414Y-55848D01*
X41667Y-56270D02*
X41948Y-56270D01*
X41611Y-56439D02*
X41807Y-55848D01*
X42004Y-56439D01*
X42539Y-56439D02*
X42342Y-56157D01*
X42201Y-56439D02*
X42201Y-55848D01*
X42426Y-55848D01*
X42482Y-55876D01*
X42510Y-55904D01*
X42539Y-55960D01*
X42539Y-56045D01*
X42510Y-56101D01*
X42482Y-56129D01*
X42426Y-56157D01*
X42201Y-56157D01*
X42707Y-55848D02*
X43045Y-55848D01*
X42876Y-56439D02*
X42876Y-55848D01*
X43495Y-55848D02*
X43382Y-55848D01*
X43326Y-55876D01*
X43298Y-55904D01*
X43242Y-55989D01*
X43213Y-56101D01*
X43213Y-56326D01*
X43242Y-56382D01*
X43270Y-56410D01*
X43326Y-56439D01*
X43438Y-56439D01*
X43495Y-56410D01*
X43523Y-56382D01*
X43551Y-56326D01*
X43551Y-56185D01*
X43523Y-56129D01*
X43495Y-56101D01*
X43438Y-56073D01*
X43326Y-56073D01*
X43270Y-56101D01*
X43242Y-56129D01*
X43213Y-56185D01*
X51750Y-48648D02*
X52087Y-48648D01*
X51918Y-49239D02*
X51918Y-48648D01*
X52593Y-49239D02*
X52256Y-49239D01*
X52424Y-49239D02*
X52424Y-48648D01*
X52368Y-48732D01*
X52312Y-48789D01*
X52256Y-48817D01*
G54D10*
X67600Y-32325D02*
X67600Y-31825D01*
X67600Y-31825D02*
X42600Y-31825D01*
X42600Y-31825D02*
X42600Y-33825D01*
X42600Y-33825D02*
X67600Y-33825D01*
X67600Y-33825D02*
X67600Y-32325D01*
G54D17*
X47505Y-44500D02*
G75*
G03X47505Y-44500I-2405J0D01*
G74*
G01*
G54D10*
X39300Y-34000D02*
X37800Y-34000D01*
X37800Y-34000D02*
X37800Y-49000D01*
X37800Y-49000D02*
X40800Y-49000D01*
X40800Y-49000D02*
X40800Y-34000D01*
X40800Y-34000D02*
X39300Y-34000D01*
G54D17*
X56000Y-40000D02*
X64250Y-40000D01*
X64250Y-40000D02*
X64250Y-49000D01*
X64250Y-49000D02*
X56000Y-49000D01*
X56000Y-49000D02*
X56000Y-40000D01*
G54D10*
X67600Y-52325D02*
X67600Y-51825D01*
X67600Y-51825D02*
X42600Y-51825D01*
X42600Y-51825D02*
X42600Y-53825D01*
X42600Y-53825D02*
X67600Y-53825D01*
X67600Y-53825D02*
X67600Y-52325D01*
G54D18*
X74450Y-38600D02*
X74450Y-38600D01*
X74450Y-38600D02*
X75450Y-38600D01*
X75450Y-38600D02*
X75450Y-48600D01*
X74450Y-48600D02*
X74450Y-38600D01*
X74450Y-39600D02*
X75450Y-39600D01*
X75450Y-48600D02*
X75450Y-50350D01*
X75450Y-50350D02*
X75450Y-50600D01*
X75450Y-50600D02*
X74450Y-50600D01*
X74450Y-50600D02*
X74450Y-48600D01*
G54D11*
X44300Y-54600D02*
X48300Y-54600D01*
X44300Y-55600D02*
X48300Y-55600D01*
X48300Y-55600D02*
X48300Y-54600D01*
X44300Y-54600D02*
X44300Y-55600D01*
X50300Y-30050D02*
X54300Y-30050D01*
X50300Y-31050D02*
X54300Y-31050D01*
X54300Y-31050D02*
X54300Y-30050D01*
X50300Y-30050D02*
X50300Y-31050D01*
X56300Y-54600D02*
X60300Y-54600D01*
X56300Y-55600D02*
X60300Y-55600D01*
X60300Y-55600D02*
X60300Y-54600D01*
X56300Y-54600D02*
X56300Y-55600D01*
X40300Y-54600D02*
X44300Y-54600D01*
X40300Y-55600D02*
X44300Y-55600D01*
X44300Y-55600D02*
X44300Y-54600D01*
X40300Y-54600D02*
X40300Y-55600D01*
X48300Y-54600D02*
X52300Y-54600D01*
X48300Y-55600D02*
X52300Y-55600D01*
X52300Y-55600D02*
X52300Y-54600D01*
X48300Y-54600D02*
X48300Y-55600D01*
X60300Y-54600D02*
X64300Y-54600D01*
X60300Y-55600D02*
X64300Y-55600D01*
X64300Y-55600D02*
X64300Y-54600D01*
X60300Y-54600D02*
X60300Y-55600D01*
X40300Y-30050D02*
X44300Y-30050D01*
X40300Y-31050D02*
X44300Y-31050D01*
X44300Y-31050D02*
X44300Y-30050D01*
X40300Y-30050D02*
X40300Y-31050D01*
X64300Y-54600D02*
X68300Y-54600D01*
X64300Y-55600D02*
X68300Y-55600D01*
X68300Y-55600D02*
X68300Y-54600D01*
X64300Y-54600D02*
X64300Y-55600D01*
X52300Y-54600D02*
X56300Y-54600D01*
X52300Y-55600D02*
X56300Y-55600D01*
X56300Y-55600D02*
X56300Y-54600D01*
X52300Y-54600D02*
X52300Y-55600D01*
X60300Y-30050D02*
X60300Y-31050D01*
X60300Y-31050D02*
X54300Y-31050D01*
X54300Y-31050D02*
X54300Y-30050D01*
X54300Y-30050D02*
X60300Y-30050D01*
X66300Y-30050D02*
X66300Y-31050D01*
X66300Y-31050D02*
X60300Y-31050D01*
X60300Y-31050D02*
X60300Y-30050D01*
X60300Y-30050D02*
X66300Y-30050D01*
X50300Y-30050D02*
X50300Y-31050D01*
X50300Y-31050D02*
X44300Y-31050D01*
X44300Y-31050D02*
X44300Y-30050D01*
X44300Y-30050D02*
X50300Y-30050D01*
G54D18*
X37750Y-53300D02*
X37750Y-49300D01*
X37250Y-53300D02*
X40250Y-53300D01*
X40250Y-53300D02*
X40250Y-49300D01*
X40250Y-49300D02*
X37250Y-49300D01*
X37250Y-49300D02*
X37250Y-53300D01*
X66100Y-44920D02*
X66100Y-46900D01*
X66100Y-46900D02*
X65100Y-46900D01*
X65100Y-46900D02*
X65100Y-44900D01*
X65100Y-44900D02*
X66100Y-44900D01*
X65850Y-44900D02*
X66100Y-45150D01*
G54D10*
X70000Y-51900D02*
X71200Y-51900D01*
X70000Y-54700D02*
X71200Y-54700D01*
X72600Y-54900D02*
X72600Y-51700D01*
X72600Y-51700D02*
X68600Y-51700D01*
X68600Y-51700D02*
X68600Y-54900D01*
X68600Y-54900D02*
X72600Y-54900D01*
X71307Y-53300D02*
G75*
G03X71307Y-53300I-707J0D01*
G74*
G01*
G54D18*
X75700Y-38050D02*
X72700Y-38050D01*
X75700Y-32050D02*
X72700Y-32050D01*
X75200Y-38050D02*
X75200Y-32050D01*
X72700Y-38050D02*
X72700Y-32050D01*
X75700Y-38050D02*
X75700Y-32050D01*
X66100Y-47120D02*
X66100Y-49100D01*
X66100Y-49100D02*
X65100Y-49100D01*
X65100Y-49100D02*
X65100Y-47100D01*
X65100Y-47100D02*
X66100Y-47100D01*
X65850Y-47100D02*
X66100Y-47350D01*
X66100Y-49320D02*
X66100Y-51300D01*
X66100Y-51300D02*
X65100Y-51300D01*
X65100Y-51300D02*
X65100Y-49300D01*
X65100Y-49300D02*
X66100Y-49300D01*
X65850Y-49300D02*
X66100Y-49550D01*
X68300Y-34420D02*
X68300Y-36400D01*
X68300Y-36400D02*
X67300Y-36400D01*
X67300Y-36400D02*
X67300Y-34400D01*
X67300Y-34400D02*
X68300Y-34400D01*
X68050Y-34400D02*
X68300Y-34650D01*
G54D19*
X46800Y-50600D02*
X46800Y-50400D01*
X46800Y-47600D02*
X46800Y-47800D01*
X46800Y-47800D02*
X46400Y-47800D01*
X46400Y-47800D02*
X46400Y-50400D01*
X46400Y-50400D02*
X47200Y-50400D01*
X47200Y-50400D02*
X47200Y-47800D01*
X47200Y-47800D02*
X46800Y-47800D01*
X46600Y-50400D02*
X46400Y-50200D01*
X73550Y-44200D02*
X73350Y-44200D01*
X70550Y-44200D02*
X70750Y-44200D01*
X70750Y-44200D02*
X70750Y-44600D01*
X70750Y-44600D02*
X73350Y-44600D01*
X73350Y-44600D02*
X73350Y-43800D01*
X73350Y-43800D02*
X70750Y-43800D01*
X70750Y-43800D02*
X70750Y-44200D01*
X73350Y-44400D02*
X73150Y-44600D01*
X69650Y-44200D02*
X69450Y-44200D01*
X66650Y-44200D02*
X66850Y-44200D01*
X66850Y-44200D02*
X66850Y-44600D01*
X66850Y-44600D02*
X69450Y-44600D01*
X69450Y-44600D02*
X69450Y-43800D01*
X69450Y-43800D02*
X66850Y-43800D01*
X66850Y-43800D02*
X66850Y-44200D01*
X69450Y-44400D02*
X69250Y-44600D01*
X73550Y-46400D02*
X73350Y-46400D01*
X70550Y-46400D02*
X70750Y-46400D01*
X70750Y-46400D02*
X70750Y-46800D01*
X70750Y-46800D02*
X73350Y-46800D01*
X73350Y-46800D02*
X73350Y-46000D01*
X73350Y-46000D02*
X70750Y-46000D01*
X70750Y-46000D02*
X70750Y-46400D01*
X73350Y-46600D02*
X73150Y-46800D01*
X69650Y-42000D02*
X69450Y-42000D01*
X66650Y-42000D02*
X66850Y-42000D01*
X66850Y-42000D02*
X66850Y-42400D01*
X66850Y-42400D02*
X69450Y-42400D01*
X69450Y-42400D02*
X69450Y-41600D01*
X69450Y-41600D02*
X66850Y-41600D01*
X66850Y-41600D02*
X66850Y-42000D01*
X69450Y-42200D02*
X69250Y-42400D01*
X73550Y-42000D02*
X73350Y-42000D01*
X70550Y-42000D02*
X70750Y-42000D01*
X70750Y-42000D02*
X70750Y-42400D01*
X70750Y-42400D02*
X73350Y-42400D01*
X73350Y-42400D02*
X73350Y-41600D01*
X73350Y-41600D02*
X70750Y-41600D01*
X70750Y-41600D02*
X70750Y-42000D01*
X73350Y-42200D02*
X73150Y-42400D01*
X69650Y-46400D02*
X69450Y-46400D01*
X66650Y-46400D02*
X66850Y-46400D01*
X66850Y-46400D02*
X66850Y-46800D01*
X66850Y-46800D02*
X69450Y-46800D01*
X69450Y-46800D02*
X69450Y-46000D01*
X69450Y-46000D02*
X66850Y-46000D01*
X66850Y-46000D02*
X66850Y-46400D01*
X69450Y-46600D02*
X69250Y-46800D01*
X69650Y-48600D02*
X69450Y-48600D01*
X66650Y-48600D02*
X66850Y-48600D01*
X66850Y-48600D02*
X66850Y-49000D01*
X66850Y-49000D02*
X69450Y-49000D01*
X69450Y-49000D02*
X69450Y-48200D01*
X69450Y-48200D02*
X66850Y-48200D01*
X66850Y-48200D02*
X66850Y-48600D01*
X69450Y-48800D02*
X69250Y-49000D01*
X69650Y-39800D02*
X69450Y-39800D01*
X66650Y-39800D02*
X66850Y-39800D01*
X66850Y-39800D02*
X66850Y-40200D01*
X66850Y-40200D02*
X69450Y-40200D01*
X69450Y-40200D02*
X69450Y-39400D01*
X69450Y-39400D02*
X66850Y-39400D01*
X66850Y-39400D02*
X66850Y-39800D01*
X69450Y-40000D02*
X69250Y-40200D01*
X73550Y-39800D02*
X73350Y-39800D01*
X70550Y-39800D02*
X70750Y-39800D01*
X70750Y-39800D02*
X70750Y-40200D01*
X70750Y-40200D02*
X73350Y-40200D01*
X73350Y-40200D02*
X73350Y-39400D01*
X73350Y-39400D02*
X70750Y-39400D01*
X70750Y-39400D02*
X70750Y-39800D01*
X73350Y-40000D02*
X73150Y-40200D01*
X73550Y-50800D02*
X73350Y-50800D01*
X70550Y-50800D02*
X70750Y-50800D01*
X70750Y-50800D02*
X70750Y-51200D01*
X70750Y-51200D02*
X73350Y-51200D01*
X73350Y-51200D02*
X73350Y-50400D01*
X73350Y-50400D02*
X70750Y-50400D01*
X70750Y-50400D02*
X70750Y-50800D01*
X73350Y-51000D02*
X73150Y-51200D01*
X69650Y-50800D02*
X69450Y-50800D01*
X66650Y-50800D02*
X66850Y-50800D01*
X66850Y-50800D02*
X66850Y-51200D01*
X66850Y-51200D02*
X69450Y-51200D01*
X69450Y-51200D02*
X69450Y-50400D01*
X69450Y-50400D02*
X66850Y-50400D01*
X66850Y-50400D02*
X66850Y-50800D01*
X69450Y-51000D02*
X69250Y-51200D01*
X73550Y-48600D02*
X73350Y-48600D01*
X70550Y-48600D02*
X70750Y-48600D01*
X70750Y-48600D02*
X70750Y-49000D01*
X70750Y-49000D02*
X73350Y-49000D01*
X73350Y-49000D02*
X73350Y-48200D01*
X73350Y-48200D02*
X70750Y-48200D01*
X70750Y-48200D02*
X70750Y-48600D01*
X73350Y-48800D02*
X73150Y-49000D01*
X49700Y-50200D02*
X49700Y-50000D01*
X49700Y-47200D02*
X49700Y-47400D01*
X49700Y-47400D02*
X49300Y-47400D01*
X49300Y-47400D02*
X49300Y-50000D01*
X49300Y-50000D02*
X50100Y-50000D01*
X50100Y-50000D02*
X50100Y-47400D01*
X50100Y-47400D02*
X49700Y-47400D01*
X49500Y-50000D02*
X49300Y-49800D01*
X49000Y-44500D02*
X49200Y-44500D01*
X52000Y-44500D02*
X51800Y-44500D01*
X51800Y-44500D02*
X51800Y-44100D01*
X51800Y-44100D02*
X49200Y-44100D01*
X49200Y-44100D02*
X49200Y-44900D01*
X49200Y-44900D02*
X51800Y-44900D01*
X51800Y-44900D02*
X51800Y-44500D01*
X49200Y-44300D02*
X49400Y-44100D01*
G54D18*
X68300Y-30000D02*
X72300Y-30000D01*
X68300Y-29500D02*
X68300Y-32500D01*
X68300Y-32500D02*
X72300Y-32500D01*
X72300Y-32500D02*
X72300Y-29500D01*
X72300Y-29500D02*
X68300Y-29500D01*
X53260Y-46546D02*
X51139Y-46546D01*
X51139Y-46546D02*
X50785Y-46900D01*
X50785Y-46900D02*
X50785Y-47607D01*
X50785Y-47607D02*
X51492Y-48314D01*
X51492Y-48314D02*
X52907Y-48314D01*
X52907Y-48314D02*
X53614Y-47607D01*
X53614Y-47607D02*
X53614Y-46900D01*
X53614Y-46900D02*
X53260Y-46546D01*
X66100Y-42720D02*
X66100Y-44700D01*
X66100Y-44700D02*
X65100Y-44700D01*
X65100Y-44700D02*
X65100Y-42700D01*
X65100Y-42700D02*
X66100Y-42700D01*
X65850Y-42700D02*
X66100Y-42950D01*
X40450Y-51280D02*
X40450Y-49300D01*
X40450Y-49300D02*
X41450Y-49300D01*
X41450Y-49300D02*
X41450Y-51300D01*
X41450Y-51300D02*
X40450Y-51300D01*
X40700Y-51300D02*
X40450Y-51050D01*
X66100Y-40520D02*
X66100Y-42500D01*
X66100Y-42500D02*
X65100Y-42500D01*
X65100Y-42500D02*
X65100Y-40500D01*
X65100Y-40500D02*
X66100Y-40500D01*
X65850Y-40500D02*
X66100Y-40750D01*
X66100Y-38320D02*
X66100Y-40300D01*
X66100Y-40300D02*
X65100Y-40300D01*
X65100Y-40300D02*
X65100Y-38300D01*
X65100Y-38300D02*
X66100Y-38300D01*
X65850Y-38300D02*
X66100Y-38550D01*
X72250Y-35950D02*
G75*
G03X72250Y-35950I-1750J0D01*
G74*
G01*
X46200Y-49500D02*
G75*
G03X46200Y-49500I-1750J0D01*
G74*
G01*
X70550Y-40900D02*
X70850Y-40900D01*
X70850Y-40900D02*
X70850Y-41300D01*
X70850Y-41300D02*
X73250Y-41300D01*
X73250Y-41300D02*
X73250Y-40900D01*
X73250Y-40900D02*
X73550Y-40900D01*
X73250Y-40900D02*
X73250Y-40500D01*
X73250Y-40500D02*
X70850Y-40500D01*
X70850Y-40500D02*
X70850Y-40900D01*
X71050Y-41300D02*
X71050Y-40500D01*
X71150Y-40500D02*
X71150Y-41300D01*
X52000Y-45700D02*
X51700Y-45700D01*
X51700Y-45700D02*
X51700Y-45300D01*
X51700Y-45300D02*
X49300Y-45300D01*
X49300Y-45300D02*
X49300Y-45700D01*
X49300Y-45700D02*
X49000Y-45700D01*
X49300Y-45700D02*
X49300Y-46100D01*
X49300Y-46100D02*
X51700Y-46100D01*
X51700Y-46100D02*
X51700Y-45700D01*
X51500Y-45300D02*
X51500Y-46100D01*
X51400Y-46100D02*
X51400Y-45300D01*
X42050Y-52050D02*
X42050Y-51750D01*
X42050Y-51750D02*
X42450Y-51750D01*
X42450Y-51750D02*
X42450Y-49350D01*
X42450Y-49350D02*
X42050Y-49350D01*
X42050Y-49350D02*
X42050Y-49050D01*
X42050Y-49350D02*
X41650Y-49350D01*
X41650Y-49350D02*
X41650Y-51750D01*
X41650Y-51750D02*
X42050Y-51750D01*
X42450Y-51550D02*
X41650Y-51550D01*
X41650Y-51450D02*
X42450Y-51450D01*
X71800Y-33200D02*
X71500Y-33200D01*
X71500Y-33200D02*
X71500Y-32800D01*
X71500Y-32800D02*
X69100Y-32800D01*
X69100Y-32800D02*
X69100Y-33200D01*
X69100Y-33200D02*
X68800Y-33200D01*
X69100Y-33200D02*
X69100Y-33600D01*
X69100Y-33600D02*
X71500Y-33600D01*
X71500Y-33600D02*
X71500Y-33200D01*
X71300Y-32800D02*
X71300Y-33600D01*
X71200Y-33600D02*
X71200Y-32800D01*
X70550Y-49700D02*
X70850Y-49700D01*
X70850Y-49700D02*
X70850Y-50100D01*
X70850Y-50100D02*
X73250Y-50100D01*
X73250Y-50100D02*
X73250Y-49700D01*
X73250Y-49700D02*
X73550Y-49700D01*
X73250Y-49700D02*
X73250Y-49300D01*
X73250Y-49300D02*
X70850Y-49300D01*
X70850Y-49300D02*
X70850Y-49700D01*
X71050Y-50100D02*
X71050Y-49300D01*
X71150Y-49300D02*
X71150Y-50100D01*
X66650Y-49700D02*
X66950Y-49700D01*
X66950Y-49700D02*
X66950Y-50100D01*
X66950Y-50100D02*
X69350Y-50100D01*
X69350Y-50100D02*
X69350Y-49700D01*
X69350Y-49700D02*
X69650Y-49700D01*
X69350Y-49700D02*
X69350Y-49300D01*
X69350Y-49300D02*
X66950Y-49300D01*
X66950Y-49300D02*
X66950Y-49700D01*
X67150Y-50100D02*
X67150Y-49300D01*
X67250Y-49300D02*
X67250Y-50100D01*
X70550Y-47500D02*
X70850Y-47500D01*
X70850Y-47500D02*
X70850Y-47900D01*
X70850Y-47900D02*
X73250Y-47900D01*
X73250Y-47900D02*
X73250Y-47500D01*
X73250Y-47500D02*
X73550Y-47500D01*
X73250Y-47500D02*
X73250Y-47100D01*
X73250Y-47100D02*
X70850Y-47100D01*
X70850Y-47100D02*
X70850Y-47500D01*
X71050Y-47900D02*
X71050Y-47100D01*
X71150Y-47100D02*
X71150Y-47900D01*
X66650Y-47500D02*
X66950Y-47500D01*
X66950Y-47500D02*
X66950Y-47900D01*
X66950Y-47900D02*
X69350Y-47900D01*
X69350Y-47900D02*
X69350Y-47500D01*
X69350Y-47500D02*
X69650Y-47500D01*
X69350Y-47500D02*
X69350Y-47100D01*
X69350Y-47100D02*
X66950Y-47100D01*
X66950Y-47100D02*
X66950Y-47500D01*
X67150Y-47900D02*
X67150Y-47100D01*
X67250Y-47100D02*
X67250Y-47900D01*
X66650Y-38700D02*
X66950Y-38700D01*
X66950Y-38700D02*
X66950Y-39100D01*
X66950Y-39100D02*
X69350Y-39100D01*
X69350Y-39100D02*
X69350Y-38700D01*
X69350Y-38700D02*
X69650Y-38700D01*
X69350Y-38700D02*
X69350Y-38300D01*
X69350Y-38300D02*
X66950Y-38300D01*
X66950Y-38300D02*
X66950Y-38700D01*
X67150Y-39100D02*
X67150Y-38300D01*
X67250Y-38300D02*
X67250Y-39100D01*
X70550Y-45300D02*
X70850Y-45300D01*
X70850Y-45300D02*
X70850Y-45700D01*
X70850Y-45700D02*
X73250Y-45700D01*
X73250Y-45700D02*
X73250Y-45300D01*
X73250Y-45300D02*
X73550Y-45300D01*
X73250Y-45300D02*
X73250Y-44900D01*
X73250Y-44900D02*
X70850Y-44900D01*
X70850Y-44900D02*
X70850Y-45300D01*
X71050Y-45700D02*
X71050Y-44900D01*
X71150Y-44900D02*
X71150Y-45700D01*
X66650Y-45300D02*
X66950Y-45300D01*
X66950Y-45300D02*
X66950Y-45700D01*
X66950Y-45700D02*
X69350Y-45700D01*
X69350Y-45700D02*
X69350Y-45300D01*
X69350Y-45300D02*
X69650Y-45300D01*
X69350Y-45300D02*
X69350Y-44900D01*
X69350Y-44900D02*
X66950Y-44900D01*
X66950Y-44900D02*
X66950Y-45300D01*
X67150Y-45700D02*
X67150Y-44900D01*
X67250Y-44900D02*
X67250Y-45700D01*
X70550Y-38700D02*
X70850Y-38700D01*
X70850Y-38700D02*
X70850Y-39100D01*
X70850Y-39100D02*
X73250Y-39100D01*
X73250Y-39100D02*
X73250Y-38700D01*
X73250Y-38700D02*
X73550Y-38700D01*
X73250Y-38700D02*
X73250Y-38300D01*
X73250Y-38300D02*
X70850Y-38300D01*
X70850Y-38300D02*
X70850Y-38700D01*
X71050Y-39100D02*
X71050Y-38300D01*
X71150Y-38300D02*
X71150Y-39100D01*
X66650Y-40900D02*
X66950Y-40900D01*
X66950Y-40900D02*
X66950Y-41300D01*
X66950Y-41300D02*
X69350Y-41300D01*
X69350Y-41300D02*
X69350Y-40900D01*
X69350Y-40900D02*
X69650Y-40900D01*
X69350Y-40900D02*
X69350Y-40500D01*
X69350Y-40500D02*
X66950Y-40500D01*
X66950Y-40500D02*
X66950Y-40900D01*
X67150Y-41300D02*
X67150Y-40500D01*
X67250Y-40500D02*
X67250Y-41300D01*
X70550Y-43100D02*
X70850Y-43100D01*
X70850Y-43100D02*
X70850Y-43500D01*
X70850Y-43500D02*
X73250Y-43500D01*
X73250Y-43500D02*
X73250Y-43100D01*
X73250Y-43100D02*
X73550Y-43100D01*
X73250Y-43100D02*
X73250Y-42700D01*
X73250Y-42700D02*
X70850Y-42700D01*
X70850Y-42700D02*
X70850Y-43100D01*
X71050Y-43500D02*
X71050Y-42700D01*
X71150Y-42700D02*
X71150Y-43500D01*
X66650Y-43100D02*
X66950Y-43100D01*
X66950Y-43100D02*
X66950Y-43500D01*
X66950Y-43500D02*
X69350Y-43500D01*
X69350Y-43500D02*
X69350Y-43100D01*
X69350Y-43100D02*
X69650Y-43100D01*
X69350Y-43100D02*
X69350Y-42700D01*
X69350Y-42700D02*
X66950Y-42700D01*
X66950Y-42700D02*
X66950Y-43100D01*
X67150Y-43500D02*
X67150Y-42700D01*
X67250Y-42700D02*
X67250Y-43500D01*
G54D20*
G36*
X63577Y-46702D02*
X63575Y-46729D01*
X63568Y-46755D01*
X63559Y-46778D01*
X63559Y-46693D01*
X63559Y-46685D01*
X63558Y-46680D01*
X63557Y-46674D01*
X63554Y-46667D01*
X63549Y-46658D01*
X63548Y-46656D01*
X63544Y-46649D01*
X63539Y-46641D01*
X63533Y-46632D01*
X63527Y-46623D01*
X63521Y-46615D01*
X63516Y-46608D01*
X63512Y-46604D01*
X63510Y-46602D01*
X63510Y-46602D01*
X63511Y-46604D01*
X63512Y-46610D01*
X63514Y-46618D01*
X63517Y-46628D01*
X63518Y-46631D01*
X63521Y-46643D01*
X63523Y-46653D01*
X63524Y-46662D01*
X63525Y-46671D01*
X63525Y-46683D01*
X63525Y-46688D01*
X63525Y-46701D01*
X63525Y-46711D01*
X63524Y-46718D01*
X63523Y-46725D01*
X63521Y-46733D01*
X63521Y-46733D01*
X63510Y-46760D01*
X63502Y-46774D01*
X63502Y-46692D01*
X63500Y-46671D01*
X63495Y-46653D01*
X63487Y-46637D01*
X63476Y-46624D01*
X63461Y-46614D01*
X63446Y-46607D01*
X63431Y-46603D01*
X63419Y-46602D01*
X63407Y-46604D01*
X63398Y-46608D01*
X63376Y-46621D01*
X63356Y-46638D01*
X63336Y-46659D01*
X63318Y-46685D01*
X63316Y-46687D01*
X63304Y-46707D01*
X63296Y-46726D01*
X63292Y-46743D01*
X63291Y-46758D01*
X63294Y-46771D01*
X63296Y-46776D01*
X63304Y-46788D01*
X63315Y-46800D01*
X63327Y-46811D01*
X63341Y-46820D01*
X63354Y-46826D01*
X63363Y-46828D01*
X63374Y-46829D01*
X63388Y-46827D01*
X63402Y-46824D01*
X63405Y-46823D01*
X63428Y-46814D01*
X63448Y-46801D01*
X63465Y-46787D01*
X63474Y-46776D01*
X63486Y-46757D01*
X63495Y-46739D01*
X63500Y-46719D01*
X63502Y-46697D01*
X63502Y-46692D01*
X63502Y-46774D01*
X63496Y-46785D01*
X63478Y-46807D01*
X63456Y-46827D01*
X63432Y-46845D01*
X63404Y-46859D01*
X63381Y-46869D01*
X63373Y-46872D01*
X63368Y-46874D01*
X63365Y-46875D01*
X63364Y-46876D01*
X63366Y-46876D01*
X63372Y-46877D01*
X63379Y-46876D01*
X63388Y-46876D01*
X63398Y-46875D01*
X63407Y-46874D01*
X63414Y-46873D01*
X63415Y-46873D01*
X63433Y-46868D01*
X63450Y-46860D01*
X63466Y-46849D01*
X63473Y-46844D01*
X63494Y-46826D01*
X63512Y-46806D01*
X63527Y-46784D01*
X63540Y-46762D01*
X63550Y-46740D01*
X63556Y-46718D01*
X63559Y-46697D01*
X63559Y-46693D01*
X63559Y-46778D01*
X63558Y-46781D01*
X63544Y-46807D01*
X63526Y-46831D01*
X63515Y-46843D01*
X63498Y-46860D01*
X63481Y-46873D01*
X63462Y-46885D01*
X63448Y-46893D01*
X63433Y-46900D01*
X63420Y-46905D01*
X63409Y-46908D01*
X63397Y-46910D01*
X63384Y-46911D01*
X63368Y-46910D01*
X63364Y-46910D01*
X63347Y-46909D01*
X63328Y-46907D01*
X63307Y-46905D01*
X63287Y-46902D01*
X63266Y-46898D01*
X63246Y-46895D01*
X63240Y-46893D01*
X63240Y-46663D01*
X63239Y-46662D01*
X63237Y-46663D01*
X63237Y-46609D01*
X63237Y-46608D01*
X63235Y-46608D01*
X63225Y-46607D01*
X63213Y-46608D01*
X63198Y-46609D01*
X63179Y-46611D01*
X63156Y-46614D01*
X63130Y-46617D01*
X63129Y-46618D01*
X63119Y-46619D01*
X63104Y-46620D01*
X63086Y-46621D01*
X63066Y-46621D01*
X63043Y-46622D01*
X63019Y-46622D01*
X62994Y-46622D01*
X62968Y-46622D01*
X62942Y-46621D01*
X62918Y-46621D01*
X62881Y-46620D01*
X62876Y-46632D01*
X62876Y-46582D01*
X62876Y-46580D01*
X62875Y-46580D01*
X62873Y-46579D01*
X62869Y-46579D01*
X62861Y-46579D01*
X62851Y-46579D01*
X62843Y-46580D01*
X62823Y-46580D01*
X62807Y-46583D01*
X62793Y-46587D01*
X62782Y-46594D01*
X62771Y-46603D01*
X62762Y-46615D01*
X62752Y-46632D01*
X62748Y-46640D01*
X62739Y-46658D01*
X62733Y-46673D01*
X62729Y-46686D01*
X62727Y-46699D01*
X62726Y-46707D01*
X62726Y-46716D01*
X62726Y-46723D01*
X62728Y-46729D01*
X62730Y-46736D01*
X62731Y-46737D01*
X62738Y-46749D01*
X62748Y-46761D01*
X62762Y-46774D01*
X62778Y-46787D01*
X62780Y-46789D01*
X62793Y-46797D01*
X62803Y-46802D01*
X62811Y-46803D01*
X62816Y-46801D01*
X62820Y-46796D01*
X62820Y-46795D01*
X62820Y-46791D01*
X62821Y-46784D01*
X62821Y-46774D01*
X62822Y-46762D01*
X62822Y-46748D01*
X62822Y-46748D01*
X62822Y-46733D01*
X62822Y-46722D01*
X62823Y-46714D01*
X62823Y-46707D01*
X62824Y-46701D01*
X62826Y-46695D01*
X62828Y-46688D01*
X62829Y-46685D01*
X62832Y-46677D01*
X62837Y-46665D01*
X62843Y-46652D01*
X62850Y-46638D01*
X62857Y-46624D01*
X62857Y-46622D01*
X62864Y-46608D01*
X62870Y-46598D01*
X62873Y-46590D01*
X62875Y-46585D01*
X62876Y-46582D01*
X62876Y-46632D01*
X62869Y-46650D01*
X62862Y-46669D01*
X62856Y-46686D01*
X62852Y-46701D01*
X62849Y-46715D01*
X62847Y-46730D01*
X62846Y-46746D01*
X62845Y-46756D01*
X62844Y-46791D01*
X62870Y-46795D01*
X62880Y-46796D01*
X62889Y-46798D01*
X62895Y-46799D01*
X62899Y-46799D01*
X62903Y-46800D01*
X62908Y-46801D01*
X62916Y-46802D01*
X62926Y-46804D01*
X62940Y-46806D01*
X62955Y-46808D01*
X62968Y-46810D01*
X62979Y-46812D01*
X62988Y-46813D01*
X62995Y-46814D01*
X62997Y-46815D01*
X63003Y-46815D01*
X63013Y-46817D01*
X63024Y-46818D01*
X63035Y-46819D01*
X63046Y-46821D01*
X63053Y-46821D01*
X63060Y-46822D01*
X63067Y-46823D01*
X63069Y-46823D01*
X63074Y-46824D01*
X63081Y-46824D01*
X63090Y-46825D01*
X63098Y-46826D01*
X63107Y-46826D01*
X63115Y-46827D01*
X63120Y-46827D01*
X63121Y-46828D01*
X63124Y-46828D01*
X63129Y-46828D01*
X63137Y-46829D01*
X63137Y-46829D01*
X63145Y-46829D01*
X63151Y-46828D01*
X63154Y-46826D01*
X63157Y-46824D01*
X63159Y-46821D01*
X63160Y-46817D01*
X63160Y-46811D01*
X63160Y-46808D01*
X63159Y-46802D01*
X63158Y-46792D01*
X63158Y-46781D01*
X63157Y-46773D01*
X63157Y-46761D01*
X63158Y-46751D01*
X63159Y-46743D01*
X63161Y-46734D01*
X63161Y-46733D01*
X63164Y-46722D01*
X63168Y-46712D01*
X63174Y-46702D01*
X63180Y-46691D01*
X63189Y-46678D01*
X63199Y-46664D01*
X63213Y-46648D01*
X63215Y-46645D01*
X63222Y-46636D01*
X63228Y-46628D01*
X63232Y-46620D01*
X63234Y-46618D01*
X63236Y-46612D01*
X63237Y-46609D01*
X63237Y-46663D01*
X63237Y-46663D01*
X63233Y-46667D01*
X63227Y-46674D01*
X63212Y-46691D01*
X63200Y-46708D01*
X63191Y-46722D01*
X63189Y-46727D01*
X63187Y-46732D01*
X63185Y-46737D01*
X63184Y-46742D01*
X63184Y-46750D01*
X63184Y-46759D01*
X63184Y-46772D01*
X63184Y-46774D01*
X63184Y-46788D01*
X63184Y-46798D01*
X63185Y-46806D01*
X63185Y-46810D01*
X63187Y-46812D01*
X63191Y-46815D01*
X63195Y-46815D01*
X63201Y-46811D01*
X63202Y-46809D01*
X63212Y-46796D01*
X63220Y-46781D01*
X63226Y-46762D01*
X63231Y-46740D01*
X63235Y-46714D01*
X63237Y-46699D01*
X63238Y-46688D01*
X63238Y-46678D01*
X63239Y-46670D01*
X63240Y-46665D01*
X63240Y-46663D01*
X63240Y-46893D01*
X63228Y-46890D01*
X63211Y-46886D01*
X63198Y-46882D01*
X63187Y-46878D01*
X63183Y-46877D01*
X63174Y-46872D01*
X63160Y-46867D01*
X63142Y-46863D01*
X63121Y-46859D01*
X63098Y-46855D01*
X63072Y-46851D01*
X63044Y-46848D01*
X63014Y-46845D01*
X62983Y-46842D01*
X62951Y-46840D01*
X62942Y-46840D01*
X62922Y-46839D01*
X62905Y-46838D01*
X62889Y-46839D01*
X62872Y-46839D01*
X62854Y-46841D01*
X62835Y-46842D01*
X62820Y-46842D01*
X62807Y-46842D01*
X62797Y-46841D01*
X62789Y-46839D01*
X62781Y-46835D01*
X62774Y-46830D01*
X62766Y-46823D01*
X62758Y-46815D01*
X62756Y-46813D01*
X62748Y-46805D01*
X62739Y-46796D01*
X62730Y-46789D01*
X62725Y-46785D01*
X62718Y-46781D01*
X62716Y-46780D01*
X62716Y-46620D01*
X62716Y-46619D01*
X62714Y-46619D01*
X62710Y-46618D01*
X62702Y-46618D01*
X62691Y-46617D01*
X62676Y-46617D01*
X62658Y-46616D01*
X62640Y-46615D01*
X62634Y-46615D01*
X62623Y-46615D01*
X62609Y-46615D01*
X62592Y-46615D01*
X62572Y-46615D01*
X62550Y-46614D01*
X62546Y-46614D01*
X62546Y-46470D01*
X62546Y-46455D01*
X62544Y-46443D01*
X62541Y-46435D01*
X62538Y-46431D01*
X62532Y-46431D01*
X62525Y-46434D01*
X62516Y-46441D01*
X62515Y-46442D01*
X62511Y-46446D01*
X62504Y-46453D01*
X62495Y-46462D01*
X62484Y-46473D01*
X62471Y-46485D01*
X62458Y-46499D01*
X62444Y-46513D01*
X62430Y-46528D01*
X62416Y-46543D01*
X62402Y-46557D01*
X62391Y-46569D01*
X62382Y-46578D01*
X62447Y-46577D01*
X62467Y-46577D01*
X62482Y-46577D01*
X62494Y-46576D01*
X62503Y-46576D01*
X62510Y-46575D01*
X62515Y-46574D01*
X62519Y-46573D01*
X62520Y-46573D01*
X62525Y-46570D01*
X62529Y-46566D01*
X62532Y-46561D01*
X62535Y-46553D01*
X62538Y-46541D01*
X62539Y-46534D01*
X62543Y-46511D01*
X62546Y-46489D01*
X62546Y-46470D01*
X62546Y-46614D01*
X62525Y-46614D01*
X62499Y-46614D01*
X62471Y-46614D01*
X62442Y-46614D01*
X62422Y-46613D01*
X62386Y-46613D01*
X62353Y-46613D01*
X62324Y-46613D01*
X62299Y-46613D01*
X62277Y-46613D01*
X62258Y-46613D01*
X62242Y-46614D01*
X62229Y-46614D01*
X62218Y-46615D01*
X62209Y-46616D01*
X62201Y-46617D01*
X62195Y-46618D01*
X62191Y-46620D01*
X62187Y-46622D01*
X62185Y-46624D01*
X62182Y-46627D01*
X62180Y-46630D01*
X62179Y-46632D01*
X62175Y-46640D01*
X62175Y-46574D01*
X62175Y-46572D01*
X62172Y-46570D01*
X62167Y-46568D01*
X62159Y-46567D01*
X62149Y-46569D01*
X62140Y-46572D01*
X62135Y-46574D01*
X62125Y-46583D01*
X62117Y-46593D01*
X62113Y-46605D01*
X62112Y-46618D01*
X62115Y-46630D01*
X62121Y-46642D01*
X62128Y-46650D01*
X62133Y-46653D01*
X62137Y-46654D01*
X62139Y-46653D01*
X62141Y-46651D01*
X62144Y-46645D01*
X62149Y-46637D01*
X62153Y-46627D01*
X62155Y-46623D01*
X62160Y-46611D01*
X62165Y-46600D01*
X62169Y-46591D01*
X62171Y-46584D01*
X62172Y-46583D01*
X62175Y-46577D01*
X62175Y-46574D01*
X62175Y-46640D01*
X62174Y-46642D01*
X62172Y-46650D01*
X62173Y-46658D01*
X62177Y-46664D01*
X62183Y-46670D01*
X62193Y-46676D01*
X62207Y-46681D01*
X62224Y-46686D01*
X62245Y-46691D01*
X62262Y-46694D01*
X62270Y-46696D01*
X62280Y-46698D01*
X62294Y-46700D01*
X62310Y-46703D01*
X62327Y-46706D01*
X62345Y-46709D01*
X62363Y-46712D01*
X62380Y-46715D01*
X62397Y-46718D01*
X62411Y-46720D01*
X62423Y-46722D01*
X62432Y-46723D01*
X62435Y-46724D01*
X62443Y-46725D01*
X62449Y-46726D01*
X62451Y-46726D01*
X62455Y-46727D01*
X62463Y-46728D01*
X62472Y-46729D01*
X62473Y-46729D01*
X62482Y-46730D01*
X62490Y-46732D01*
X62495Y-46732D01*
X62496Y-46732D01*
X62501Y-46733D01*
X62509Y-46734D01*
X62514Y-46735D01*
X62522Y-46735D01*
X62529Y-46736D01*
X62533Y-46737D01*
X62538Y-46737D01*
X62545Y-46738D01*
X62554Y-46739D01*
X62556Y-46739D01*
X62564Y-46740D01*
X62572Y-46741D01*
X62577Y-46741D01*
X62577Y-46741D01*
X62581Y-46742D01*
X62588Y-46742D01*
X62598Y-46743D01*
X62610Y-46743D01*
X62623Y-46743D01*
X62625Y-46744D01*
X62638Y-46744D01*
X62650Y-46744D01*
X62659Y-46745D01*
X62666Y-46745D01*
X62668Y-46745D01*
X62669Y-46745D01*
X62671Y-46745D01*
X62676Y-46746D01*
X62684Y-46746D01*
X62689Y-46746D01*
X62708Y-46747D01*
X62707Y-46714D01*
X62707Y-46699D01*
X62707Y-46688D01*
X62708Y-46677D01*
X62709Y-46667D01*
X62711Y-46654D01*
X62712Y-46650D01*
X62713Y-46639D01*
X62715Y-46630D01*
X62716Y-46623D01*
X62716Y-46620D01*
X62716Y-46780D01*
X62713Y-46778D01*
X62708Y-46777D01*
X62701Y-46778D01*
X62697Y-46778D01*
X62687Y-46778D01*
X62673Y-46778D01*
X62655Y-46777D01*
X62634Y-46775D01*
X62611Y-46772D01*
X62585Y-46769D01*
X62583Y-46769D01*
X62559Y-46766D01*
X62538Y-46764D01*
X62522Y-46764D01*
X62510Y-46765D01*
X62502Y-46766D01*
X62500Y-46767D01*
X62496Y-46771D01*
X62491Y-46777D01*
X62487Y-46782D01*
X62473Y-46805D01*
X62457Y-46825D01*
X62457Y-46761D01*
X62456Y-46758D01*
X62453Y-46756D01*
X62448Y-46753D01*
X62440Y-46751D01*
X62429Y-46749D01*
X62415Y-46746D01*
X62398Y-46743D01*
X62377Y-46740D01*
X62352Y-46737D01*
X62337Y-46736D01*
X62317Y-46733D01*
X62300Y-46731D01*
X62287Y-46730D01*
X62276Y-46729D01*
X62267Y-46728D01*
X62260Y-46728D01*
X62254Y-46728D01*
X62249Y-46728D01*
X62243Y-46729D01*
X62242Y-46729D01*
X62226Y-46731D01*
X62211Y-46735D01*
X62198Y-46739D01*
X62187Y-46744D01*
X62179Y-46749D01*
X62178Y-46749D01*
X62174Y-46754D01*
X62169Y-46762D01*
X62162Y-46772D01*
X62155Y-46786D01*
X62147Y-46803D01*
X62137Y-46824D01*
X62135Y-46827D01*
X62115Y-46873D01*
X62138Y-46896D01*
X62147Y-46905D01*
X62155Y-46913D01*
X62162Y-46919D01*
X62167Y-46923D01*
X62168Y-46924D01*
X62175Y-46927D01*
X62185Y-46928D01*
X62199Y-46927D01*
X62217Y-46925D01*
X62237Y-46920D01*
X62252Y-46917D01*
X62277Y-46910D01*
X62297Y-46905D01*
X62314Y-46899D01*
X62327Y-46894D01*
X62337Y-46890D01*
X62345Y-46885D01*
X62346Y-46884D01*
X62351Y-46880D01*
X62359Y-46873D01*
X62369Y-46864D01*
X62380Y-46853D01*
X62391Y-46842D01*
X62402Y-46830D01*
X62413Y-46819D01*
X62422Y-46809D01*
X62429Y-46801D01*
X62439Y-46788D01*
X62447Y-46778D01*
X62453Y-46769D01*
X62456Y-46763D01*
X62457Y-46761D01*
X62457Y-46825D01*
X62455Y-46828D01*
X62434Y-46850D01*
X62413Y-46870D01*
X62406Y-46875D01*
X62381Y-46894D01*
X62354Y-46911D01*
X62326Y-46926D01*
X62296Y-46938D01*
X62264Y-46949D01*
X62241Y-46956D01*
X62231Y-46958D01*
X62222Y-46961D01*
X62215Y-46963D01*
X62211Y-46964D01*
X62211Y-46964D01*
X62211Y-46966D01*
X62214Y-46971D01*
X62217Y-46979D01*
X62222Y-46989D01*
X62225Y-46996D01*
X62235Y-47017D01*
X62242Y-47034D01*
X62248Y-47049D01*
X62251Y-47062D01*
X62253Y-47073D01*
X62253Y-47083D01*
X62252Y-47092D01*
X62251Y-47098D01*
X62247Y-47108D01*
X62240Y-47119D01*
X62232Y-47130D01*
X62224Y-47140D01*
X62222Y-47142D01*
X62222Y-47086D01*
X62222Y-47085D01*
X62222Y-47068D01*
X62221Y-47055D01*
X62219Y-47044D01*
X62215Y-47035D01*
X62212Y-47029D01*
X62202Y-47013D01*
X62190Y-46997D01*
X62175Y-46980D01*
X62158Y-46961D01*
X62140Y-46942D01*
X62127Y-46930D01*
X62117Y-46920D01*
X62108Y-46913D01*
X62101Y-46908D01*
X62095Y-46905D01*
X62090Y-46904D01*
X62089Y-46903D01*
X62081Y-46901D01*
X62076Y-46899D01*
X62074Y-46895D01*
X62072Y-46892D01*
X62068Y-46888D01*
X62060Y-46883D01*
X62049Y-46877D01*
X62040Y-46873D01*
X62023Y-46865D01*
X62009Y-46859D01*
X61997Y-46855D01*
X61985Y-46852D01*
X61974Y-46850D01*
X61961Y-46849D01*
X61957Y-46849D01*
X61945Y-46849D01*
X61938Y-46850D01*
X61938Y-46652D01*
X61936Y-46632D01*
X61931Y-46613D01*
X61923Y-46597D01*
X61913Y-46583D01*
X61900Y-46571D01*
X61885Y-46563D01*
X61868Y-46558D01*
X61856Y-46557D01*
X61842Y-46559D01*
X61829Y-46563D01*
X61816Y-46570D01*
X61804Y-46581D01*
X61792Y-46595D01*
X61783Y-46609D01*
X61770Y-46630D01*
X61761Y-46648D01*
X61755Y-46666D01*
X61751Y-46684D01*
X61750Y-46699D01*
X61751Y-46713D01*
X61754Y-46725D01*
X61758Y-46736D01*
X61765Y-46747D01*
X61776Y-46759D01*
X61778Y-46761D01*
X61786Y-46769D01*
X61791Y-46774D01*
X61795Y-46777D01*
X61799Y-46778D01*
X61803Y-46779D01*
X61805Y-46779D01*
X61811Y-46778D01*
X61820Y-46776D01*
X61831Y-46773D01*
X61835Y-46771D01*
X61858Y-46762D01*
X61877Y-46752D01*
X61893Y-46742D01*
X61905Y-46732D01*
X61919Y-46717D01*
X61928Y-46701D01*
X61935Y-46683D01*
X61938Y-46663D01*
X61938Y-46652D01*
X61938Y-46850D01*
X61937Y-46850D01*
X61931Y-46851D01*
X61925Y-46852D01*
X61922Y-46854D01*
X61909Y-46862D01*
X61898Y-46873D01*
X61888Y-46887D01*
X61884Y-46894D01*
X61880Y-46905D01*
X61877Y-46914D01*
X61877Y-46922D01*
X61880Y-46928D01*
X61886Y-46934D01*
X61895Y-46939D01*
X61907Y-46944D01*
X61924Y-46949D01*
X61932Y-46951D01*
X61965Y-46961D01*
X61993Y-46971D01*
X62018Y-46981D01*
X62038Y-46992D01*
X62051Y-47000D01*
X62064Y-47011D01*
X62079Y-47024D01*
X62097Y-47040D01*
X62116Y-47058D01*
X62135Y-47077D01*
X62141Y-47083D01*
X62156Y-47097D01*
X62168Y-47108D01*
X62177Y-47117D01*
X62185Y-47123D01*
X62191Y-47127D01*
X62197Y-47129D01*
X62201Y-47128D01*
X62205Y-47126D01*
X62209Y-47123D01*
X62210Y-47121D01*
X62216Y-47113D01*
X62220Y-47106D01*
X62222Y-47097D01*
X62222Y-47086D01*
X62222Y-47142D01*
X62216Y-47147D01*
X62215Y-47148D01*
X62210Y-47151D01*
X62205Y-47153D01*
X62198Y-47154D01*
X62190Y-47154D01*
X62178Y-47154D01*
X62164Y-47153D01*
X62162Y-47153D01*
X62151Y-47152D01*
X62142Y-47153D01*
X62137Y-47155D01*
X62132Y-47160D01*
X62128Y-47167D01*
X62123Y-47173D01*
X62123Y-47174D01*
X62123Y-47118D01*
X62123Y-47116D01*
X62120Y-47110D01*
X62115Y-47102D01*
X62108Y-47093D01*
X62100Y-47084D01*
X62094Y-47077D01*
X62087Y-47072D01*
X62079Y-47065D01*
X62069Y-47057D01*
X62058Y-47048D01*
X62055Y-47046D01*
X62046Y-47038D01*
X62038Y-47032D01*
X62032Y-47027D01*
X62028Y-47023D01*
X62027Y-47022D01*
X62024Y-47020D01*
X62019Y-47016D01*
X62014Y-47013D01*
X62005Y-47009D01*
X61993Y-47004D01*
X61980Y-46998D01*
X61966Y-46992D01*
X61952Y-46986D01*
X61938Y-46981D01*
X61925Y-46976D01*
X61915Y-46972D01*
X61907Y-46969D01*
X61905Y-46968D01*
X61899Y-46969D01*
X61894Y-46973D01*
X61892Y-46981D01*
X61891Y-46988D01*
X61892Y-47005D01*
X61894Y-47020D01*
X61898Y-47032D01*
X61903Y-47040D01*
X61905Y-47042D01*
X61911Y-47045D01*
X61920Y-47048D01*
X61930Y-47051D01*
X61940Y-47053D01*
X61955Y-47057D01*
X61973Y-47063D01*
X61992Y-47072D01*
X62013Y-47083D01*
X62035Y-47095D01*
X62052Y-47106D01*
X62070Y-47118D01*
X62084Y-47127D01*
X62095Y-47134D01*
X62102Y-47137D01*
X62106Y-47138D01*
X62110Y-47137D01*
X62113Y-47136D01*
X62118Y-47132D01*
X62121Y-47125D01*
X62123Y-47118D01*
X62123Y-47174D01*
X62118Y-47177D01*
X62112Y-47179D01*
X62103Y-47177D01*
X62093Y-47173D01*
X62080Y-47166D01*
X62067Y-47159D01*
X62040Y-47141D01*
X62015Y-47126D01*
X61992Y-47114D01*
X61971Y-47103D01*
X61952Y-47094D01*
X61933Y-47086D01*
X61919Y-47081D01*
X61901Y-47076D01*
X61883Y-47074D01*
X61868Y-47074D01*
X61857Y-47077D01*
X61847Y-47081D01*
X61834Y-47086D01*
X61820Y-47093D01*
X61805Y-47100D01*
X61792Y-47108D01*
X61781Y-47114D01*
X61781Y-47114D01*
X61768Y-47123D01*
X61756Y-47129D01*
X61746Y-47134D01*
X61734Y-47138D01*
X61721Y-47141D01*
X61710Y-47145D01*
X61697Y-47149D01*
X61684Y-47154D01*
X61674Y-47158D01*
X61652Y-47167D01*
X61633Y-47172D01*
X61617Y-47175D01*
X61612Y-47175D01*
X61606Y-47176D01*
X61603Y-47177D01*
X61603Y-47144D01*
X61601Y-47139D01*
X61596Y-47130D01*
X61588Y-47120D01*
X61579Y-47108D01*
X61569Y-47096D01*
X61558Y-47084D01*
X61548Y-47074D01*
X61539Y-47065D01*
X61532Y-47059D01*
X61529Y-47057D01*
X61516Y-47052D01*
X61503Y-47050D01*
X61490Y-47053D01*
X61477Y-47059D01*
X61466Y-47069D01*
X61455Y-47082D01*
X61451Y-47090D01*
X61447Y-47099D01*
X61444Y-47106D01*
X61443Y-47114D01*
X61442Y-47125D01*
X61442Y-47125D01*
X61442Y-47139D01*
X61443Y-47153D01*
X61446Y-47166D01*
X61449Y-47176D01*
X61453Y-47183D01*
X61455Y-47186D01*
X61458Y-47187D01*
X61461Y-47188D01*
X61467Y-47188D01*
X61476Y-47187D01*
X61487Y-47186D01*
X61499Y-47184D01*
X61512Y-47182D01*
X61517Y-47181D01*
X61542Y-47174D01*
X61563Y-47168D01*
X61580Y-47161D01*
X61593Y-47154D01*
X61599Y-47150D01*
X61603Y-47147D01*
X61603Y-47144D01*
X61603Y-47177D01*
X61597Y-47179D01*
X61584Y-47183D01*
X61569Y-47189D01*
X61563Y-47191D01*
X61543Y-47199D01*
X61526Y-47205D01*
X61511Y-47210D01*
X61497Y-47214D01*
X61484Y-47217D01*
X61476Y-47219D01*
X61464Y-47221D01*
X61455Y-47226D01*
X61448Y-47232D01*
X61443Y-47240D01*
X61438Y-47252D01*
X61434Y-47263D01*
X61432Y-47276D01*
X61431Y-47292D01*
X61431Y-47310D01*
X61431Y-47312D01*
X61432Y-47327D01*
X61433Y-47340D01*
X61435Y-47353D01*
X61438Y-47365D01*
X61439Y-47369D01*
X61450Y-47409D01*
X61465Y-47450D01*
X61482Y-47491D01*
X61502Y-47532D01*
X61523Y-47571D01*
X61525Y-47573D01*
X61538Y-47595D01*
X61551Y-47614D01*
X61564Y-47630D01*
X61578Y-47646D01*
X61593Y-47661D01*
X61606Y-47673D01*
X61618Y-47684D01*
X61626Y-47692D01*
X61632Y-47698D01*
X61635Y-47703D01*
X61635Y-47704D01*
X61635Y-47707D01*
X61630Y-47710D01*
X61622Y-47712D01*
X61611Y-47714D01*
X61598Y-47715D01*
X61583Y-47716D01*
X61566Y-47716D01*
X61548Y-47715D01*
X61536Y-47714D01*
X61498Y-47709D01*
X61460Y-47699D01*
X61421Y-47686D01*
X61382Y-47669D01*
X61344Y-47649D01*
X61307Y-47626D01*
X61270Y-47600D01*
X61236Y-47571D01*
X61203Y-47540D01*
X61176Y-47510D01*
X61158Y-47488D01*
X61141Y-47465D01*
X61125Y-47440D01*
X61109Y-47412D01*
X61107Y-47409D01*
X61095Y-47387D01*
X61084Y-47368D01*
X61074Y-47352D01*
X61073Y-47350D01*
X61073Y-46290D01*
X61073Y-46284D01*
X61071Y-46275D01*
X61070Y-46271D01*
X61067Y-46262D01*
X61063Y-46250D01*
X61057Y-46236D01*
X61051Y-46219D01*
X61043Y-46201D01*
X61035Y-46181D01*
X61026Y-46161D01*
X61017Y-46141D01*
X61008Y-46121D01*
X60999Y-46101D01*
X60990Y-46083D01*
X60982Y-46067D01*
X60975Y-46053D01*
X60969Y-46042D01*
X60964Y-46033D01*
X60961Y-46030D01*
X60957Y-46025D01*
X60947Y-46032D01*
X60940Y-46036D01*
X60932Y-46042D01*
X60922Y-46049D01*
X60917Y-46053D01*
X60898Y-46067D01*
X60913Y-46110D01*
X60923Y-46140D01*
X60931Y-46167D01*
X60937Y-46191D01*
X60941Y-46212D01*
X60943Y-46231D01*
X60946Y-46250D01*
X60950Y-46264D01*
X60955Y-46275D01*
X60958Y-46279D01*
X60967Y-46286D01*
X60979Y-46292D01*
X60994Y-46296D01*
X61013Y-46299D01*
X61033Y-46300D01*
X61040Y-46300D01*
X61052Y-46300D01*
X61060Y-46300D01*
X61065Y-46299D01*
X61069Y-46297D01*
X61069Y-46297D01*
X61072Y-46294D01*
X61073Y-46290D01*
X61073Y-47350D01*
X61066Y-47339D01*
X61059Y-47329D01*
X61057Y-47326D01*
X61052Y-47322D01*
X61046Y-47318D01*
X61038Y-47316D01*
X61035Y-47315D01*
X61019Y-47312D01*
X61013Y-47312D01*
X61013Y-47243D01*
X61012Y-47230D01*
X61011Y-47215D01*
X61008Y-47189D01*
X61005Y-47161D01*
X61002Y-47129D01*
X60999Y-47094D01*
X60996Y-47056D01*
X60994Y-47013D01*
X60992Y-46992D01*
X60991Y-46967D01*
X60989Y-46944D01*
X60987Y-46923D01*
X60985Y-46904D01*
X60983Y-46889D01*
X60982Y-46877D01*
X60980Y-46869D01*
X60980Y-46869D01*
X60975Y-46855D01*
X60968Y-46844D01*
X60958Y-46836D01*
X60945Y-46830D01*
X60942Y-46829D01*
X60927Y-46825D01*
X60924Y-46825D01*
X60924Y-46265D01*
X60923Y-46255D01*
X60921Y-46241D01*
X60921Y-46240D01*
X60919Y-46228D01*
X60916Y-46214D01*
X60913Y-46199D01*
X60909Y-46185D01*
X60906Y-46171D01*
X60903Y-46159D01*
X60900Y-46149D01*
X60898Y-46143D01*
X60895Y-46136D01*
X60893Y-46127D01*
X60891Y-46117D01*
X60891Y-46117D01*
X60889Y-46107D01*
X60886Y-46096D01*
X60885Y-46088D01*
X60882Y-46075D01*
X60859Y-46075D01*
X60859Y-45779D01*
X60859Y-45778D01*
X60858Y-45769D01*
X60855Y-45760D01*
X60851Y-45750D01*
X60848Y-45745D01*
X60840Y-45738D01*
X60829Y-45731D01*
X60815Y-45725D01*
X60800Y-45721D01*
X60784Y-45717D01*
X60768Y-45716D01*
X60763Y-45716D01*
X60749Y-45716D01*
X60749Y-45677D01*
X60747Y-45673D01*
X60742Y-45666D01*
X60734Y-45657D01*
X60723Y-45647D01*
X60710Y-45635D01*
X60695Y-45622D01*
X60679Y-45608D01*
X60661Y-45594D01*
X60652Y-45587D01*
X60652Y-45525D01*
X60650Y-45519D01*
X60645Y-45510D01*
X60636Y-45500D01*
X60625Y-45487D01*
X60610Y-45472D01*
X60591Y-45455D01*
X60590Y-45454D01*
X60561Y-45427D01*
X60534Y-45404D01*
X60510Y-45383D01*
X60488Y-45365D01*
X60468Y-45349D01*
X60450Y-45336D01*
X60434Y-45324D01*
X60418Y-45315D01*
X60404Y-45307D01*
X60390Y-45300D01*
X60384Y-45298D01*
X60360Y-45290D01*
X60334Y-45284D01*
X60307Y-45280D01*
X60280Y-45277D01*
X60254Y-45277D01*
X60230Y-45279D01*
X60209Y-45283D01*
X60187Y-45290D01*
X60169Y-45299D01*
X60154Y-45311D01*
X60143Y-45325D01*
X60135Y-45341D01*
X60135Y-45342D01*
X60133Y-45352D01*
X60132Y-45365D01*
X60131Y-45382D01*
X60132Y-45401D01*
X60134Y-45422D01*
X60135Y-45429D01*
X60136Y-45441D01*
X60137Y-45453D01*
X60138Y-45464D01*
X60139Y-45472D01*
X60139Y-45472D01*
X60140Y-45484D01*
X60143Y-45493D01*
X60148Y-45499D01*
X60153Y-45501D01*
X60156Y-45501D01*
X60159Y-45498D01*
X60162Y-45493D01*
X60166Y-45485D01*
X60166Y-45485D01*
X60177Y-45465D01*
X60189Y-45447D01*
X60201Y-45431D01*
X60205Y-45428D01*
X60211Y-45422D01*
X60216Y-45418D01*
X60222Y-45414D01*
X60228Y-45412D01*
X60236Y-45410D01*
X60246Y-45409D01*
X60258Y-45408D01*
X60273Y-45407D01*
X60292Y-45407D01*
X60300Y-45407D01*
X60325Y-45407D01*
X60346Y-45408D01*
X60364Y-45409D01*
X60379Y-45411D01*
X60394Y-45413D01*
X60408Y-45416D01*
X60422Y-45420D01*
X60430Y-45422D01*
X60448Y-45429D01*
X60469Y-45438D01*
X60493Y-45450D01*
X60518Y-45463D01*
X60544Y-45478D01*
X60559Y-45487D01*
X60580Y-45500D01*
X60598Y-45510D01*
X60612Y-45519D01*
X60624Y-45525D01*
X60634Y-45529D01*
X60641Y-45531D01*
X60646Y-45531D01*
X60650Y-45530D01*
X60651Y-45529D01*
X60652Y-45525D01*
X60652Y-45587D01*
X60641Y-45579D01*
X60621Y-45564D01*
X60601Y-45549D01*
X60580Y-45534D01*
X60560Y-45520D01*
X60540Y-45506D01*
X60524Y-45496D01*
X60492Y-45477D01*
X60462Y-45461D01*
X60433Y-45449D01*
X60405Y-45439D01*
X60378Y-45432D01*
X60366Y-45430D01*
X60351Y-45428D01*
X60335Y-45427D01*
X60317Y-45426D01*
X60300Y-45426D01*
X60283Y-45426D01*
X60269Y-45427D01*
X60257Y-45428D01*
X60253Y-45429D01*
X60237Y-45433D01*
X60224Y-45440D01*
X60214Y-45449D01*
X60207Y-45461D01*
X60204Y-45470D01*
X60202Y-45485D01*
X60201Y-45502D01*
X60202Y-45522D01*
X60205Y-45542D01*
X60209Y-45562D01*
X60214Y-45582D01*
X60220Y-45599D01*
X60223Y-45605D01*
X60226Y-45610D01*
X60229Y-45615D01*
X60233Y-45621D01*
X60240Y-45627D01*
X60248Y-45634D01*
X60256Y-45641D01*
X60284Y-45665D01*
X60310Y-45686D01*
X60333Y-45704D01*
X60354Y-45718D01*
X60371Y-45730D01*
X60386Y-45738D01*
X60398Y-45744D01*
X60399Y-45744D01*
X60408Y-45747D01*
X60417Y-45751D01*
X60424Y-45754D01*
X60430Y-45757D01*
X60434Y-45758D01*
X60436Y-45758D01*
X60437Y-45756D01*
X60439Y-45751D01*
X60442Y-45744D01*
X60444Y-45734D01*
X60447Y-45722D01*
X60448Y-45716D01*
X60450Y-45707D01*
X60453Y-45698D01*
X60456Y-45692D01*
X60463Y-45683D01*
X60473Y-45674D01*
X60485Y-45666D01*
X60498Y-45658D01*
X60510Y-45653D01*
X60517Y-45652D01*
X60525Y-45652D01*
X60535Y-45655D01*
X60547Y-45661D01*
X60562Y-45670D01*
X60579Y-45682D01*
X60599Y-45697D01*
X60621Y-45715D01*
X60621Y-45716D01*
X60632Y-45724D01*
X60641Y-45732D01*
X60649Y-45738D01*
X60654Y-45742D01*
X60657Y-45744D01*
X60658Y-45744D01*
X60660Y-45742D01*
X60664Y-45738D01*
X60669Y-45732D01*
X60673Y-45727D01*
X60684Y-45713D01*
X60695Y-45703D01*
X60706Y-45695D01*
X60717Y-45690D01*
X60730Y-45687D01*
X60739Y-45685D01*
X60745Y-45683D01*
X60748Y-45680D01*
X60749Y-45677D01*
X60749Y-45716D01*
X60749Y-45716D01*
X60737Y-45718D01*
X60726Y-45723D01*
X60719Y-45727D01*
X60709Y-45736D01*
X60702Y-45748D01*
X60696Y-45763D01*
X60692Y-45780D01*
X60690Y-45799D01*
X60691Y-45810D01*
X60692Y-45821D01*
X60694Y-45829D01*
X60697Y-45835D01*
X60702Y-45839D01*
X60709Y-45842D01*
X60720Y-45845D01*
X60731Y-45848D01*
X60742Y-45850D01*
X60752Y-45852D01*
X60761Y-45855D01*
X60764Y-45856D01*
X60773Y-45859D01*
X60780Y-45864D01*
X60785Y-45868D01*
X60788Y-45872D01*
X60788Y-45873D01*
X60789Y-45876D01*
X60793Y-45875D01*
X60798Y-45872D01*
X60806Y-45865D01*
X60810Y-45861D01*
X60820Y-45850D01*
X60830Y-45837D01*
X60839Y-45824D01*
X60847Y-45810D01*
X60853Y-45798D01*
X60857Y-45787D01*
X60859Y-45779D01*
X60859Y-46075D01*
X60813Y-46075D01*
X60743Y-46075D01*
X60736Y-46098D01*
X60727Y-46128D01*
X60719Y-46153D01*
X60711Y-46175D01*
X60705Y-46192D01*
X60699Y-46206D01*
X60694Y-46217D01*
X60690Y-46224D01*
X60689Y-46225D01*
X60683Y-46235D01*
X60680Y-46249D01*
X60679Y-46259D01*
X60680Y-46267D01*
X60682Y-46273D01*
X60686Y-46277D01*
X60693Y-46279D01*
X60704Y-46281D01*
X60710Y-46282D01*
X60716Y-46282D01*
X60726Y-46282D01*
X60739Y-46283D01*
X60755Y-46283D01*
X60772Y-46283D01*
X60790Y-46283D01*
X60808Y-46283D01*
X60826Y-46282D01*
X60843Y-46282D01*
X60858Y-46282D01*
X60871Y-46281D01*
X60881Y-46281D01*
X60893Y-46280D01*
X60904Y-46279D01*
X60913Y-46279D01*
X60919Y-46278D01*
X60920Y-46277D01*
X60923Y-46275D01*
X60924Y-46271D01*
X60924Y-46265D01*
X60924Y-46825D01*
X60907Y-46823D01*
X60886Y-46821D01*
X60862Y-46820D01*
X60837Y-46821D01*
X60812Y-46822D01*
X60787Y-46824D01*
X60763Y-46828D01*
X60741Y-46832D01*
X60737Y-46833D01*
X60730Y-46835D01*
X60720Y-46838D01*
X60709Y-46842D01*
X60697Y-46845D01*
X60685Y-46849D01*
X60675Y-46853D01*
X60665Y-46857D01*
X60659Y-46859D01*
X60655Y-46861D01*
X60655Y-46861D01*
X60654Y-46864D01*
X60655Y-46870D01*
X60656Y-46879D01*
X60657Y-46890D01*
X60658Y-46901D01*
X60660Y-46913D01*
X60662Y-46924D01*
X60664Y-46934D01*
X60666Y-46942D01*
X60666Y-46942D01*
X60674Y-46965D01*
X60683Y-46989D01*
X60695Y-47015D01*
X60708Y-47040D01*
X60722Y-47065D01*
X60724Y-47068D01*
X60744Y-47099D01*
X60765Y-47127D01*
X60787Y-47152D01*
X60811Y-47174D01*
X60837Y-47194D01*
X60866Y-47212D01*
X60898Y-47229D01*
X60901Y-47231D01*
X60917Y-47239D01*
X60930Y-47246D01*
X60939Y-47253D01*
X60944Y-47259D01*
X60947Y-47264D01*
X60947Y-47265D01*
X60947Y-47271D01*
X60948Y-47274D01*
X60948Y-47275D01*
X60949Y-47275D01*
X60951Y-47274D01*
X60956Y-47272D01*
X60962Y-47270D01*
X60971Y-47268D01*
X60981Y-47266D01*
X60991Y-47264D01*
X61001Y-47262D01*
X61007Y-47260D01*
X61010Y-47258D01*
X61012Y-47253D01*
X61013Y-47243D01*
X61013Y-47312D01*
X60999Y-47310D01*
X60975Y-47309D01*
X60947Y-47308D01*
X60914Y-47308D01*
X60893Y-47308D01*
X60893Y-47269D01*
X60893Y-47265D01*
X60892Y-47262D01*
X60889Y-47259D01*
X60884Y-47255D01*
X60876Y-47250D01*
X60866Y-47244D01*
X60853Y-47237D01*
X60838Y-47229D01*
X60826Y-47221D01*
X60814Y-47213D01*
X60803Y-47203D01*
X60790Y-47192D01*
X60778Y-47179D01*
X60761Y-47162D01*
X60747Y-47146D01*
X60735Y-47131D01*
X60724Y-47116D01*
X60714Y-47100D01*
X60704Y-47082D01*
X60693Y-47062D01*
X60689Y-47053D01*
X60683Y-47040D01*
X60677Y-47024D01*
X60670Y-47004D01*
X60663Y-46982D01*
X60656Y-46957D01*
X60649Y-46932D01*
X60642Y-46905D01*
X60636Y-46879D01*
X60635Y-46875D01*
X60624Y-46819D01*
X60616Y-46766D01*
X60610Y-46714D01*
X60607Y-46663D01*
X60606Y-46612D01*
X60608Y-46568D01*
X60610Y-46536D01*
X60612Y-46505D01*
X60615Y-46476D01*
X60619Y-46446D01*
X60624Y-46416D01*
X60630Y-46386D01*
X60637Y-46354D01*
X60644Y-46321D01*
X60654Y-46285D01*
X60664Y-46247D01*
X60676Y-46206D01*
X60687Y-46170D01*
X60699Y-46129D01*
X60710Y-46093D01*
X60719Y-46060D01*
X60727Y-46031D01*
X60734Y-46005D01*
X60740Y-45982D01*
X60745Y-45962D01*
X60749Y-45945D01*
X60752Y-45930D01*
X60753Y-45917D01*
X60754Y-45907D01*
X60754Y-45899D01*
X60754Y-45892D01*
X60753Y-45890D01*
X60751Y-45883D01*
X60747Y-45879D01*
X60742Y-45877D01*
X60733Y-45876D01*
X60728Y-45876D01*
X60718Y-45877D01*
X60710Y-45879D01*
X60702Y-45883D01*
X60695Y-45890D01*
X60692Y-45893D01*
X60689Y-45896D01*
X60685Y-45900D01*
X60682Y-45904D01*
X60679Y-45909D01*
X60675Y-45915D01*
X60670Y-45922D01*
X60664Y-45932D01*
X60657Y-45943D01*
X60649Y-45957D01*
X60639Y-45974D01*
X60627Y-45995D01*
X60626Y-45995D01*
X60609Y-46024D01*
X60594Y-46049D01*
X60581Y-46071D01*
X60569Y-46091D01*
X60558Y-46108D01*
X60549Y-46124D01*
X60540Y-46138D01*
X60532Y-46151D01*
X60524Y-46163D01*
X60524Y-46163D01*
X60517Y-46173D01*
X60511Y-46182D01*
X60506Y-46190D01*
X60501Y-46198D01*
X60496Y-46206D01*
X60491Y-46216D01*
X60485Y-46228D01*
X60477Y-46242D01*
X60470Y-46256D01*
X60462Y-46270D01*
X60455Y-46284D01*
X60448Y-46297D01*
X60441Y-46308D01*
X60436Y-46317D01*
X60436Y-46317D01*
X60429Y-46330D01*
X60422Y-46347D01*
X60415Y-46367D01*
X60407Y-46390D01*
X60399Y-46415D01*
X60392Y-46441D01*
X60385Y-46469D01*
X60378Y-46497D01*
X60372Y-46525D01*
X60366Y-46553D01*
X60362Y-46579D01*
X60360Y-46594D01*
X60358Y-46610D01*
X60357Y-46630D01*
X60356Y-46651D01*
X60355Y-46674D01*
X60356Y-46698D01*
X60356Y-46720D01*
X60357Y-46741D01*
X60359Y-46760D01*
X60360Y-46772D01*
X60364Y-46793D01*
X60368Y-46813D01*
X60372Y-46833D01*
X60377Y-46855D01*
X60384Y-46879D01*
X60389Y-46900D01*
X60394Y-46916D01*
X60399Y-46935D01*
X60405Y-46956D01*
X60410Y-46976D01*
X60416Y-46995D01*
X60418Y-47002D01*
X60426Y-47031D01*
X60434Y-47057D01*
X60442Y-47080D01*
X60450Y-47101D01*
X60459Y-47120D01*
X60469Y-47139D01*
X60480Y-47157D01*
X60488Y-47169D01*
X60503Y-47190D01*
X60519Y-47209D01*
X60538Y-47226D01*
X60560Y-47243D01*
X60571Y-47250D01*
X60589Y-47263D01*
X60605Y-47273D01*
X60618Y-47281D01*
X60628Y-47286D01*
X60638Y-47290D01*
X60645Y-47293D01*
X60652Y-47294D01*
X60658Y-47293D01*
X60663Y-47293D01*
X60672Y-47292D01*
X60683Y-47291D01*
X60696Y-47290D01*
X60704Y-47289D01*
X60716Y-47288D01*
X60730Y-47287D01*
X60748Y-47285D01*
X60767Y-47284D01*
X60787Y-47283D01*
X60807Y-47281D01*
X60817Y-47281D01*
X60893Y-47276D01*
X60893Y-47269D01*
X60893Y-47308D01*
X60882Y-47308D01*
X60855Y-47308D01*
X60832Y-47309D01*
X60813Y-47310D01*
X60799Y-47312D01*
X60788Y-47313D01*
X60780Y-47315D01*
X60776Y-47317D01*
X60776Y-47320D01*
X60778Y-47323D01*
X60784Y-47327D01*
X60790Y-47330D01*
X60797Y-47334D01*
X60802Y-47337D01*
X60806Y-47343D01*
X60807Y-47345D01*
X60811Y-47357D01*
X60811Y-47369D01*
X60809Y-47382D01*
X60804Y-47396D01*
X60798Y-47408D01*
X60790Y-47418D01*
X60782Y-47426D01*
X60773Y-47431D01*
X60773Y-47365D01*
X60771Y-47354D01*
X60765Y-47344D01*
X60758Y-47338D01*
X60753Y-47336D01*
X60744Y-47333D01*
X60734Y-47330D01*
X60722Y-47328D01*
X60711Y-47326D01*
X60709Y-47326D01*
X60702Y-47325D01*
X60696Y-47324D01*
X60694Y-47324D01*
X60691Y-47323D01*
X60685Y-47322D01*
X60676Y-47321D01*
X60664Y-47320D01*
X60647Y-47319D01*
X60627Y-47317D01*
X60626Y-47317D01*
X60613Y-47316D01*
X60599Y-47315D01*
X60593Y-47314D01*
X60593Y-47291D01*
X60592Y-47286D01*
X60588Y-47281D01*
X60582Y-47278D01*
X60577Y-47277D01*
X60570Y-47276D01*
X60563Y-47273D01*
X60559Y-47269D01*
X60558Y-47266D01*
X60556Y-47260D01*
X60551Y-47255D01*
X60542Y-47253D01*
X60541Y-47252D01*
X60532Y-47249D01*
X60521Y-47243D01*
X60509Y-47232D01*
X60495Y-47219D01*
X60490Y-47214D01*
X60477Y-47199D01*
X60467Y-47187D01*
X60460Y-47176D01*
X60456Y-47165D01*
X60454Y-47159D01*
X60452Y-47149D01*
X60447Y-47138D01*
X60442Y-47128D01*
X60431Y-47109D01*
X60422Y-47092D01*
X60414Y-47074D01*
X60406Y-47055D01*
X60405Y-47053D01*
X60399Y-47038D01*
X60394Y-47025D01*
X60389Y-47014D01*
X60385Y-47006D01*
X60382Y-47002D01*
X60381Y-47001D01*
X60377Y-47001D01*
X60370Y-47003D01*
X60362Y-47007D01*
X60353Y-47012D01*
X60348Y-47015D01*
X60339Y-47021D01*
X60329Y-47030D01*
X60318Y-47041D01*
X60305Y-47053D01*
X60292Y-47066D01*
X60280Y-47079D01*
X60269Y-47092D01*
X60260Y-47103D01*
X60256Y-47107D01*
X60247Y-47121D01*
X60238Y-47135D01*
X60231Y-47147D01*
X60226Y-47158D01*
X60223Y-47167D01*
X60222Y-47172D01*
X60225Y-47179D01*
X60231Y-47186D01*
X60241Y-47193D01*
X60254Y-47199D01*
X60271Y-47206D01*
X60290Y-47212D01*
X60313Y-47217D01*
X60334Y-47221D01*
X60348Y-47224D01*
X60364Y-47230D01*
X60369Y-47233D01*
X60378Y-47238D01*
X60385Y-47241D01*
X60391Y-47242D01*
X60398Y-47243D01*
X60404Y-47243D01*
X60413Y-47244D01*
X60420Y-47245D01*
X60425Y-47247D01*
X60431Y-47250D01*
X60442Y-47256D01*
X60454Y-47261D01*
X60469Y-47265D01*
X60487Y-47269D01*
X60494Y-47270D01*
X60511Y-47274D01*
X60524Y-47276D01*
X60535Y-47279D01*
X60545Y-47282D01*
X60554Y-47286D01*
X60563Y-47290D01*
X60573Y-47295D01*
X60580Y-47297D01*
X60585Y-47298D01*
X60588Y-47298D01*
X60590Y-47296D01*
X60593Y-47291D01*
X60593Y-47314D01*
X60587Y-47313D01*
X60580Y-47313D01*
X60573Y-47312D01*
X60565Y-47311D01*
X60560Y-47311D01*
X60536Y-47308D01*
X60515Y-47304D01*
X60496Y-47301D01*
X60481Y-47297D01*
X60480Y-47297D01*
X60471Y-47294D01*
X60463Y-47290D01*
X60459Y-47287D01*
X60453Y-47283D01*
X60446Y-47281D01*
X60437Y-47281D01*
X60431Y-47281D01*
X60424Y-47283D01*
X60418Y-47289D01*
X60415Y-47296D01*
X60415Y-47299D01*
X60417Y-47312D01*
X60421Y-47328D01*
X60428Y-47346D01*
X60436Y-47365D01*
X60446Y-47386D01*
X60458Y-47406D01*
X60470Y-47427D01*
X60484Y-47446D01*
X60486Y-47450D01*
X60492Y-47456D01*
X60499Y-47464D01*
X60507Y-47473D01*
X60516Y-47483D01*
X60526Y-47493D01*
X60536Y-47503D01*
X60545Y-47511D01*
X60553Y-47519D01*
X60559Y-47524D01*
X60563Y-47528D01*
X60565Y-47528D01*
X60566Y-47526D01*
X60570Y-47522D01*
X60575Y-47517D01*
X60575Y-47516D01*
X60591Y-47498D01*
X60606Y-47484D01*
X60619Y-47473D01*
X60632Y-47467D01*
X60639Y-47464D01*
X60645Y-47464D01*
X60653Y-47463D01*
X60662Y-47462D01*
X60663Y-47462D01*
X60678Y-47461D01*
X60690Y-47459D01*
X60700Y-47456D01*
X60707Y-47451D01*
X60714Y-47445D01*
X60720Y-47436D01*
X60722Y-47433D01*
X60727Y-47427D01*
X60734Y-47418D01*
X60742Y-47409D01*
X60749Y-47402D01*
X60760Y-47391D01*
X60768Y-47382D01*
X60771Y-47376D01*
X60773Y-47365D01*
X60773Y-47431D01*
X60772Y-47431D01*
X60769Y-47432D01*
X60761Y-47433D01*
X60753Y-47434D01*
X60753Y-47435D01*
X60745Y-47436D01*
X60746Y-47447D01*
X60746Y-47454D01*
X60745Y-47458D01*
X60743Y-47463D01*
X60738Y-47468D01*
X60729Y-47476D01*
X60718Y-47483D01*
X60716Y-47484D01*
X60709Y-47487D01*
X60704Y-47488D01*
X60698Y-47489D01*
X60690Y-47490D01*
X60680Y-47490D01*
X60676Y-47490D01*
X60663Y-47491D01*
X60653Y-47492D01*
X60645Y-47494D01*
X60639Y-47497D01*
X60633Y-47503D01*
X60626Y-47511D01*
X60624Y-47514D01*
X60613Y-47527D01*
X60603Y-47538D01*
X60594Y-47545D01*
X60584Y-47549D01*
X60572Y-47552D01*
X60564Y-47552D01*
X60555Y-47551D01*
X60547Y-47550D01*
X60538Y-47546D01*
X60530Y-47541D01*
X60521Y-47533D01*
X60512Y-47523D01*
X60501Y-47510D01*
X60488Y-47493D01*
X60484Y-47489D01*
X60454Y-47445D01*
X60427Y-47399D01*
X60404Y-47351D01*
X60396Y-47332D01*
X60388Y-47314D01*
X60382Y-47299D01*
X60376Y-47288D01*
X60369Y-47279D01*
X60363Y-47272D01*
X60355Y-47266D01*
X60345Y-47261D01*
X60334Y-47256D01*
X60323Y-47253D01*
X60312Y-47249D01*
X60299Y-47244D01*
X60283Y-47238D01*
X60266Y-47231D01*
X60249Y-47224D01*
X60234Y-47218D01*
X60214Y-47209D01*
X60197Y-47202D01*
X60183Y-47197D01*
X60171Y-47193D01*
X60162Y-47190D01*
X60160Y-47189D01*
X60160Y-46997D01*
X60159Y-46984D01*
X60157Y-46971D01*
X60152Y-46958D01*
X60149Y-46950D01*
X60141Y-46932D01*
X60130Y-46915D01*
X60117Y-46899D01*
X60103Y-46886D01*
X60089Y-46876D01*
X60085Y-46874D01*
X60068Y-46867D01*
X60050Y-46863D01*
X60032Y-46862D01*
X60013Y-46864D01*
X59992Y-46870D01*
X59970Y-46879D01*
X59947Y-46891D01*
X59929Y-46901D01*
X59909Y-46914D01*
X59893Y-46924D01*
X59879Y-46932D01*
X59868Y-46938D01*
X59859Y-46943D01*
X59853Y-46947D01*
X59847Y-46950D01*
X59843Y-46952D01*
X59840Y-46953D01*
X59824Y-46960D01*
X59810Y-46967D01*
X59795Y-46976D01*
X59789Y-46981D01*
X59772Y-46992D01*
X59757Y-47000D01*
X59745Y-47005D01*
X59736Y-47006D01*
X59729Y-47007D01*
X59722Y-47010D01*
X59711Y-47014D01*
X59708Y-47016D01*
X59688Y-47026D01*
X59671Y-47032D01*
X59656Y-47036D01*
X59643Y-47038D01*
X59631Y-47038D01*
X59617Y-47039D01*
X59602Y-47040D01*
X59589Y-47042D01*
X59583Y-47042D01*
X59571Y-47044D01*
X59561Y-47045D01*
X59553Y-47047D01*
X59543Y-47049D01*
X59539Y-47050D01*
X59529Y-47052D01*
X59519Y-47053D01*
X59511Y-47054D01*
X59510Y-47054D01*
X59503Y-47054D01*
X59499Y-47055D01*
X59495Y-47057D01*
X59492Y-47060D01*
X59484Y-47073D01*
X59479Y-47086D01*
X59477Y-47098D01*
X59477Y-47117D01*
X59478Y-47132D01*
X59480Y-47145D01*
X59482Y-47155D01*
X59485Y-47165D01*
X59489Y-47174D01*
X59490Y-47176D01*
X59495Y-47186D01*
X59500Y-47192D01*
X59505Y-47196D01*
X59512Y-47197D01*
X59512Y-47196D01*
X59522Y-47198D01*
X59530Y-47203D01*
X59536Y-47211D01*
X59540Y-47220D01*
X59541Y-47226D01*
X59541Y-47231D01*
X59540Y-47240D01*
X59540Y-47249D01*
X59540Y-47249D01*
X59540Y-47259D01*
X59541Y-47266D01*
X59543Y-47272D01*
X59544Y-47274D01*
X59550Y-47283D01*
X59556Y-47289D01*
X59565Y-47294D01*
X59576Y-47298D01*
X59589Y-47300D01*
X59606Y-47301D01*
X59619Y-47302D01*
X59632Y-47302D01*
X59641Y-47302D01*
X59647Y-47303D01*
X59651Y-47304D01*
X59653Y-47305D01*
X59653Y-47305D01*
X59655Y-47309D01*
X59654Y-47312D01*
X59652Y-47317D01*
X59647Y-47324D01*
X59639Y-47337D01*
X59634Y-47348D01*
X59631Y-47357D01*
X59631Y-47358D01*
X59633Y-47366D01*
X59638Y-47375D01*
X59645Y-47385D01*
X59655Y-47394D01*
X59665Y-47403D01*
X59675Y-47408D01*
X59686Y-47410D01*
X59698Y-47409D01*
X59702Y-47408D01*
X59713Y-47405D01*
X59720Y-47403D01*
X59728Y-47402D01*
X59736Y-47402D01*
X59743Y-47401D01*
X59752Y-47401D01*
X59759Y-47402D01*
X59764Y-47403D01*
X59767Y-47405D01*
X59771Y-47408D01*
X59773Y-47411D01*
X59772Y-47414D01*
X59768Y-47419D01*
X59762Y-47425D01*
X59753Y-47433D01*
X59746Y-47439D01*
X59743Y-47445D01*
X59744Y-47450D01*
X59745Y-47452D01*
X59750Y-47456D01*
X59759Y-47459D01*
X59769Y-47461D01*
X59781Y-47462D01*
X59792Y-47461D01*
X59803Y-47459D01*
X59807Y-47458D01*
X59814Y-47454D01*
X59821Y-47449D01*
X59824Y-47446D01*
X59830Y-47441D01*
X59838Y-47436D01*
X59847Y-47431D01*
X59848Y-47430D01*
X59860Y-47423D01*
X59868Y-47417D01*
X59873Y-47412D01*
X59875Y-47407D01*
X59875Y-47404D01*
X59875Y-47400D01*
X59876Y-47399D01*
X59879Y-47398D01*
X59886Y-47398D01*
X59893Y-47398D01*
X59899Y-47395D01*
X59907Y-47390D01*
X59916Y-47382D01*
X59925Y-47373D01*
X59933Y-47365D01*
X59940Y-47359D01*
X59945Y-47355D01*
X59950Y-47353D01*
X59952Y-47353D01*
X59960Y-47350D01*
X59964Y-47347D01*
X59967Y-47343D01*
X59968Y-47339D01*
X59971Y-47332D01*
X59977Y-47324D01*
X59986Y-47316D01*
X59996Y-47308D01*
X60008Y-47300D01*
X60019Y-47294D01*
X60027Y-47290D01*
X60034Y-47286D01*
X60038Y-47283D01*
X60038Y-47283D01*
X60039Y-47280D01*
X60042Y-47274D01*
X60047Y-47265D01*
X60053Y-47255D01*
X60059Y-47244D01*
X60067Y-47232D01*
X60074Y-47221D01*
X60080Y-47210D01*
X60084Y-47206D01*
X60091Y-47195D01*
X60095Y-47187D01*
X60099Y-47180D01*
X60100Y-47175D01*
X60101Y-47169D01*
X60101Y-47169D01*
X60103Y-47158D01*
X60107Y-47146D01*
X60112Y-47131D01*
X60119Y-47114D01*
X60125Y-47102D01*
X60136Y-47078D01*
X60145Y-47057D01*
X60152Y-47040D01*
X60156Y-47024D01*
X60159Y-47010D01*
X60160Y-46997D01*
X60160Y-47189D01*
X60154Y-47188D01*
X60147Y-47187D01*
X60140Y-47186D01*
X60138Y-47186D01*
X60128Y-47186D01*
X60122Y-47187D01*
X60118Y-47190D01*
X60115Y-47195D01*
X60112Y-47202D01*
X60107Y-47212D01*
X60100Y-47225D01*
X60090Y-47240D01*
X60079Y-47256D01*
X60067Y-47273D01*
X60054Y-47289D01*
X60041Y-47304D01*
X60028Y-47318D01*
X60017Y-47329D01*
X60004Y-47341D01*
X59988Y-47354D01*
X59971Y-47369D01*
X59953Y-47383D01*
X59934Y-47398D01*
X59915Y-47412D01*
X59896Y-47425D01*
X59878Y-47438D01*
X59862Y-47450D01*
X59846Y-47460D01*
X59833Y-47468D01*
X59823Y-47473D01*
X59817Y-47476D01*
X59803Y-47480D01*
X59786Y-47484D01*
X59769Y-47486D01*
X59753Y-47487D01*
X59738Y-47487D01*
X59726Y-47485D01*
X59724Y-47485D01*
X59718Y-47482D01*
X59711Y-47477D01*
X59706Y-47471D01*
X59703Y-47465D01*
X59703Y-47463D01*
X59701Y-47457D01*
X59695Y-47450D01*
X59686Y-47442D01*
X59673Y-47434D01*
X59658Y-47425D01*
X59651Y-47421D01*
X59642Y-47415D01*
X59632Y-47408D01*
X59624Y-47402D01*
X59618Y-47396D01*
X59614Y-47391D01*
X59612Y-47385D01*
X59611Y-47378D01*
X59610Y-47375D01*
X59605Y-47357D01*
X59598Y-47341D01*
X59587Y-47329D01*
X59574Y-47320D01*
X59569Y-47318D01*
X59550Y-47309D01*
X59535Y-47298D01*
X59524Y-47285D01*
X59516Y-47269D01*
X59511Y-47250D01*
X59510Y-47245D01*
X59509Y-47234D01*
X59507Y-47226D01*
X59504Y-47220D01*
X59500Y-47217D01*
X59497Y-47216D01*
X59491Y-47212D01*
X59485Y-47205D01*
X59478Y-47195D01*
X59472Y-47182D01*
X59466Y-47169D01*
X59462Y-47155D01*
X59458Y-47141D01*
X59458Y-47141D01*
X59457Y-47132D01*
X59456Y-47121D01*
X59455Y-47109D01*
X59455Y-47106D01*
X59455Y-47095D01*
X59456Y-47085D01*
X59459Y-47077D01*
X59463Y-47069D01*
X59469Y-47060D01*
X59477Y-47051D01*
X59489Y-47039D01*
X59494Y-47034D01*
X59499Y-47029D01*
X59505Y-47025D01*
X59511Y-47022D01*
X59518Y-47020D01*
X59527Y-47018D01*
X59538Y-47017D01*
X59552Y-47016D01*
X59569Y-47015D01*
X59579Y-47015D01*
X59601Y-47014D01*
X59620Y-47013D01*
X59635Y-47011D01*
X59649Y-47010D01*
X59661Y-47007D01*
X59673Y-47003D01*
X59685Y-46999D01*
X59699Y-46993D01*
X59713Y-46987D01*
X59719Y-46984D01*
X59728Y-46979D01*
X59739Y-46974D01*
X59752Y-46967D01*
X59765Y-46960D01*
X59779Y-46953D01*
X59793Y-46946D01*
X59805Y-46940D01*
X59817Y-46934D01*
X59826Y-46929D01*
X59833Y-46925D01*
X59836Y-46923D01*
X59836Y-46923D01*
X59836Y-46921D01*
X59835Y-46915D01*
X59834Y-46907D01*
X59833Y-46895D01*
X59831Y-46883D01*
X59831Y-46881D01*
X59829Y-46858D01*
X59827Y-46839D01*
X59827Y-46821D01*
X59828Y-46804D01*
X59831Y-46787D01*
X59835Y-46769D01*
X59840Y-46749D01*
X59844Y-46737D01*
X59861Y-46687D01*
X59881Y-46640D01*
X59904Y-46595D01*
X59930Y-46554D01*
X59959Y-46516D01*
X59990Y-46481D01*
X59994Y-46477D01*
X60024Y-46449D01*
X60055Y-46424D01*
X60088Y-46402D01*
X60123Y-46381D01*
X60162Y-46362D01*
X60203Y-46345D01*
X60249Y-46329D01*
X60253Y-46328D01*
X60283Y-46318D01*
X60310Y-46311D01*
X60334Y-46304D01*
X60354Y-46299D01*
X60357Y-46298D01*
X60372Y-46295D01*
X60384Y-46292D01*
X60393Y-46290D01*
X60399Y-46288D01*
X60405Y-46286D01*
X60409Y-46284D01*
X60413Y-46282D01*
X60414Y-46281D01*
X60419Y-46278D01*
X60423Y-46274D01*
X60427Y-46270D01*
X60431Y-46263D01*
X60435Y-46255D01*
X60440Y-46246D01*
X60447Y-46235D01*
X60454Y-46222D01*
X60462Y-46209D01*
X60468Y-46200D01*
X60476Y-46187D01*
X60485Y-46173D01*
X60493Y-46159D01*
X60500Y-46147D01*
X60504Y-46141D01*
X60511Y-46131D01*
X60518Y-46118D01*
X60527Y-46104D01*
X60536Y-46090D01*
X60543Y-46080D01*
X60554Y-46062D01*
X60564Y-46045D01*
X60574Y-46030D01*
X60582Y-46015D01*
X60589Y-46002D01*
X60594Y-45992D01*
X60598Y-45984D01*
X60599Y-45979D01*
X60599Y-45977D01*
X60596Y-45975D01*
X60590Y-45972D01*
X60583Y-45968D01*
X60575Y-45964D01*
X60566Y-45958D01*
X60555Y-45952D01*
X60547Y-45947D01*
X60525Y-45935D01*
X60506Y-45925D01*
X60487Y-45919D01*
X60469Y-45915D01*
X60449Y-45913D01*
X60427Y-45913D01*
X60427Y-45913D01*
X60392Y-45916D01*
X60384Y-45918D01*
X60384Y-45866D01*
X60382Y-45863D01*
X60376Y-45860D01*
X60367Y-45858D01*
X60355Y-45856D01*
X60341Y-45855D01*
X60326Y-45854D01*
X60310Y-45855D01*
X60293Y-45856D01*
X60286Y-45857D01*
X60254Y-45861D01*
X60222Y-45867D01*
X60189Y-45874D01*
X60155Y-45883D01*
X60118Y-45894D01*
X60101Y-45900D01*
X60067Y-45911D01*
X60037Y-45920D01*
X60009Y-45928D01*
X59984Y-45933D01*
X59963Y-45937D01*
X59960Y-45938D01*
X59948Y-45939D01*
X59938Y-45940D01*
X59927Y-45940D01*
X59915Y-45939D01*
X59911Y-45939D01*
X59873Y-45933D01*
X59834Y-45924D01*
X59795Y-45911D01*
X59759Y-45895D01*
X59741Y-45886D01*
X59726Y-45877D01*
X59711Y-45868D01*
X59696Y-45856D01*
X59680Y-45843D01*
X59668Y-45833D01*
X59659Y-45825D01*
X59651Y-45818D01*
X59644Y-45812D01*
X59639Y-45809D01*
X59638Y-45808D01*
X59636Y-45812D01*
X59634Y-45818D01*
X59632Y-45827D01*
X59629Y-45836D01*
X59627Y-45845D01*
X59626Y-45852D01*
X59626Y-45854D01*
X59625Y-45866D01*
X59644Y-45885D01*
X59660Y-45900D01*
X59679Y-45915D01*
X59693Y-45924D01*
X59703Y-45931D01*
X59712Y-45937D01*
X59719Y-45942D01*
X59723Y-45946D01*
X59724Y-45947D01*
X59723Y-45950D01*
X59720Y-45955D01*
X59717Y-45958D01*
X59711Y-45963D01*
X59703Y-45967D01*
X59694Y-45971D01*
X59690Y-45972D01*
X59676Y-45977D01*
X59660Y-45984D01*
X59643Y-45992D01*
X59625Y-46002D01*
X59608Y-46011D01*
X59592Y-46021D01*
X59578Y-46031D01*
X59567Y-46039D01*
X59559Y-46047D01*
X59553Y-46056D01*
X59551Y-46064D01*
X59553Y-46072D01*
X59559Y-46078D01*
X59570Y-46084D01*
X59585Y-46090D01*
X59604Y-46094D01*
X59627Y-46098D01*
X59654Y-46101D01*
X59686Y-46103D01*
X59692Y-46103D01*
X59711Y-46104D01*
X59733Y-46104D01*
X59755Y-46105D01*
X59777Y-46105D01*
X59799Y-46105D01*
X59820Y-46105D01*
X59839Y-46105D01*
X59856Y-46104D01*
X59870Y-46104D01*
X59879Y-46103D01*
X59894Y-46101D01*
X59909Y-46099D01*
X59923Y-46095D01*
X59937Y-46091D01*
X59953Y-46084D01*
X59971Y-46076D01*
X59983Y-46070D01*
X60004Y-46060D01*
X60021Y-46050D01*
X60035Y-46042D01*
X60046Y-46035D01*
X60055Y-46029D01*
X60060Y-46024D01*
X60069Y-46019D01*
X60080Y-46015D01*
X60091Y-46013D01*
X60095Y-46012D01*
X60099Y-46012D01*
X60104Y-46010D01*
X60111Y-46006D01*
X60121Y-46001D01*
X60133Y-45993D01*
X60141Y-45988D01*
X60164Y-45973D01*
X60184Y-45961D01*
X60202Y-45950D01*
X60217Y-45941D01*
X60230Y-45934D01*
X60241Y-45928D01*
X60251Y-45923D01*
X60260Y-45919D01*
X60269Y-45916D01*
X60278Y-45913D01*
X60282Y-45912D01*
X60294Y-45908D01*
X60307Y-45903D01*
X60318Y-45898D01*
X60320Y-45898D01*
X60330Y-45894D01*
X60341Y-45890D01*
X60350Y-45887D01*
X60352Y-45887D01*
X60362Y-45884D01*
X60371Y-45880D01*
X60378Y-45875D01*
X60383Y-45870D01*
X60384Y-45866D01*
X60384Y-45918D01*
X60355Y-45922D01*
X60318Y-45931D01*
X60280Y-45942D01*
X60245Y-45955D01*
X60213Y-45970D01*
X60205Y-45974D01*
X60194Y-45980D01*
X60181Y-45987D01*
X60165Y-45996D01*
X60149Y-46006D01*
X60131Y-46016D01*
X60113Y-46026D01*
X60109Y-46029D01*
X60082Y-46045D01*
X60058Y-46059D01*
X60036Y-46072D01*
X60018Y-46082D01*
X60001Y-46091D01*
X59987Y-46098D01*
X59974Y-46105D01*
X59962Y-46110D01*
X59951Y-46114D01*
X59941Y-46117D01*
X59930Y-46120D01*
X59925Y-46121D01*
X59920Y-46122D01*
X59915Y-46123D01*
X59909Y-46124D01*
X59903Y-46124D01*
X59895Y-46125D01*
X59885Y-46125D01*
X59873Y-46126D01*
X59858Y-46126D01*
X59840Y-46126D01*
X59818Y-46126D01*
X59805Y-46127D01*
X59770Y-46127D01*
X59740Y-46127D01*
X59713Y-46127D01*
X59689Y-46126D01*
X59668Y-46125D01*
X59649Y-46124D01*
X59632Y-46122D01*
X59617Y-46120D01*
X59604Y-46118D01*
X59582Y-46114D01*
X59563Y-46108D01*
X59549Y-46102D01*
X59539Y-46094D01*
X59532Y-46085D01*
X59530Y-46075D01*
X59531Y-46064D01*
X59535Y-46053D01*
X59541Y-46044D01*
X59549Y-46034D01*
X59560Y-46022D01*
X59572Y-46010D01*
X59586Y-45998D01*
X59600Y-45986D01*
X59613Y-45975D01*
X59626Y-45966D01*
X59638Y-45959D01*
X59648Y-45954D01*
X59655Y-45952D01*
X59662Y-45950D01*
X59665Y-45946D01*
X59665Y-45940D01*
X59661Y-45934D01*
X59653Y-45926D01*
X59648Y-45923D01*
X59634Y-45911D01*
X59624Y-45897D01*
X59616Y-45881D01*
X59610Y-45862D01*
X59608Y-45845D01*
X59606Y-45826D01*
X59606Y-45808D01*
X59607Y-45792D01*
X59609Y-45780D01*
X59612Y-45771D01*
X59617Y-45765D01*
X59620Y-45764D01*
X59627Y-45764D01*
X59633Y-45766D01*
X59639Y-45772D01*
X59644Y-45778D01*
X59651Y-45788D01*
X59661Y-45799D01*
X59673Y-45812D01*
X59687Y-45825D01*
X59701Y-45837D01*
X59709Y-45844D01*
X59727Y-45858D01*
X59744Y-45869D01*
X59759Y-45879D01*
X59773Y-45886D01*
X59788Y-45892D01*
X59805Y-45898D01*
X59821Y-45902D01*
X59841Y-45907D01*
X59858Y-45911D01*
X59872Y-45914D01*
X59885Y-45916D01*
X59897Y-45917D01*
X59909Y-45918D01*
X59919Y-45918D01*
X59931Y-45917D01*
X59943Y-45917D01*
X59954Y-45915D01*
X59967Y-45913D01*
X59981Y-45910D01*
X59998Y-45905D01*
X60017Y-45900D01*
X60039Y-45893D01*
X60045Y-45891D01*
X60071Y-45883D01*
X60094Y-45876D01*
X60115Y-45870D01*
X60132Y-45865D01*
X60146Y-45861D01*
X60156Y-45859D01*
X60162Y-45858D01*
X60168Y-45856D01*
X60176Y-45854D01*
X60186Y-45850D01*
X60194Y-45848D01*
X60207Y-45843D01*
X60221Y-45839D01*
X60235Y-45836D01*
X60250Y-45833D01*
X60268Y-45831D01*
X60287Y-45829D01*
X60310Y-45828D01*
X60336Y-45827D01*
X60350Y-45827D01*
X60412Y-45826D01*
X60421Y-45803D01*
X60430Y-45780D01*
X60419Y-45776D01*
X60404Y-45770D01*
X60385Y-45760D01*
X60365Y-45749D01*
X60344Y-45736D01*
X60322Y-45721D01*
X60299Y-45705D01*
X60277Y-45688D01*
X60255Y-45671D01*
X60235Y-45654D01*
X60217Y-45638D01*
X60202Y-45622D01*
X60189Y-45608D01*
X60189Y-45608D01*
X60183Y-45600D01*
X60176Y-45589D01*
X60169Y-45578D01*
X60165Y-45571D01*
X60159Y-45560D01*
X60152Y-45548D01*
X60146Y-45538D01*
X60142Y-45533D01*
X60138Y-45526D01*
X60134Y-45519D01*
X60130Y-45511D01*
X60127Y-45501D01*
X60124Y-45490D01*
X60120Y-45475D01*
X60116Y-45458D01*
X60115Y-45452D01*
X60112Y-45437D01*
X60109Y-45424D01*
X60108Y-45413D01*
X60107Y-45403D01*
X60107Y-45392D01*
X60107Y-45391D01*
X60107Y-45366D01*
X60118Y-45337D01*
X60123Y-45326D01*
X60127Y-45317D01*
X60130Y-45311D01*
X60134Y-45306D01*
X60138Y-45302D01*
X60142Y-45298D01*
X60152Y-45290D01*
X60165Y-45282D01*
X60180Y-45274D01*
X60195Y-45267D01*
X60210Y-45262D01*
X60215Y-45261D01*
X60227Y-45258D01*
X60243Y-45256D01*
X60261Y-45256D01*
X60280Y-45256D01*
X60299Y-45256D01*
X60317Y-45258D01*
X60332Y-45260D01*
X60334Y-45261D01*
X60373Y-45271D01*
X60411Y-45286D01*
X60448Y-45304D01*
X60470Y-45318D01*
X60484Y-45328D01*
X60499Y-45339D01*
X60514Y-45352D01*
X60532Y-45367D01*
X60551Y-45385D01*
X60572Y-45405D01*
X60595Y-45428D01*
X60610Y-45443D01*
X60636Y-45469D01*
X60659Y-45493D01*
X60680Y-45515D01*
X60698Y-45535D01*
X60715Y-45554D01*
X60730Y-45573D01*
X60744Y-45592D01*
X60758Y-45610D01*
X60769Y-45627D01*
X60785Y-45650D01*
X60800Y-45670D01*
X60814Y-45685D01*
X60826Y-45697D01*
X60836Y-45705D01*
X60845Y-45708D01*
X60851Y-45708D01*
X60856Y-45705D01*
X60860Y-45697D01*
X60863Y-45686D01*
X60866Y-45671D01*
X60867Y-45652D01*
X60867Y-45629D01*
X60867Y-45609D01*
X60866Y-45585D01*
X60865Y-45563D01*
X60863Y-45542D01*
X60860Y-45521D01*
X60857Y-45499D01*
X60853Y-45476D01*
X60848Y-45450D01*
X60842Y-45422D01*
X60836Y-45395D01*
X60832Y-45377D01*
X60828Y-45357D01*
X60823Y-45334D01*
X60818Y-45310D01*
X60812Y-45286D01*
X60807Y-45262D01*
X60804Y-45246D01*
X60797Y-45215D01*
X60791Y-45188D01*
X60786Y-45165D01*
X60781Y-45143D01*
X60777Y-45124D01*
X60773Y-45106D01*
X60768Y-45088D01*
X60764Y-45071D01*
X60760Y-45054D01*
X60755Y-45035D01*
X60753Y-45025D01*
X60743Y-44989D01*
X60734Y-44955D01*
X60725Y-44921D01*
X60716Y-44889D01*
X60706Y-44858D01*
X60697Y-44830D01*
X60689Y-44803D01*
X60681Y-44779D01*
X60673Y-44758D01*
X60666Y-44740D01*
X60660Y-44725D01*
X60655Y-44714D01*
X60650Y-44707D01*
X60650Y-44707D01*
X60646Y-44702D01*
X60642Y-44701D01*
X60637Y-44701D01*
X60630Y-44704D01*
X60625Y-44706D01*
X60610Y-44714D01*
X60594Y-44726D01*
X60577Y-44741D01*
X60558Y-44759D01*
X60537Y-44782D01*
X60536Y-44783D01*
X60528Y-44792D01*
X60520Y-44800D01*
X60514Y-44807D01*
X60510Y-44811D01*
X60509Y-44813D01*
X60506Y-44812D01*
X60501Y-44810D01*
X60493Y-44806D01*
X60484Y-44802D01*
X60482Y-44801D01*
X60468Y-44795D01*
X60456Y-44790D01*
X60446Y-44786D01*
X60437Y-44783D01*
X60431Y-44782D01*
X60431Y-44205D01*
X60431Y-44204D01*
X60430Y-44203D01*
X60428Y-44204D01*
X60422Y-44206D01*
X60415Y-44209D01*
X60408Y-44212D01*
X60395Y-44218D01*
X60381Y-44224D01*
X60368Y-44229D01*
X60356Y-44233D01*
X60346Y-44236D01*
X60344Y-44236D01*
X60334Y-44238D01*
X60324Y-44243D01*
X60313Y-44249D01*
X60308Y-44253D01*
X60303Y-44257D01*
X60294Y-44263D01*
X60283Y-44270D01*
X60271Y-44278D01*
X60258Y-44287D01*
X60251Y-44292D01*
X60223Y-44311D01*
X60199Y-44328D01*
X60177Y-44344D01*
X60157Y-44360D01*
X60138Y-44376D01*
X60118Y-44394D01*
X60099Y-44413D01*
X60081Y-44430D01*
X60068Y-44443D01*
X60057Y-44454D01*
X60049Y-44463D01*
X60041Y-44470D01*
X60035Y-44477D01*
X60029Y-44484D01*
X60023Y-44492D01*
X60016Y-44501D01*
X60011Y-44506D01*
X59983Y-44543D01*
X59958Y-44579D01*
X59934Y-44617D01*
X59912Y-44658D01*
X59912Y-44658D01*
X59902Y-44676D01*
X59895Y-44691D01*
X59888Y-44702D01*
X59884Y-44711D01*
X59880Y-44718D01*
X59877Y-44723D01*
X59875Y-44727D01*
X59874Y-44730D01*
X59871Y-44737D01*
X59871Y-44742D01*
X59871Y-44747D01*
X59869Y-44754D01*
X59867Y-44760D01*
X59865Y-44767D01*
X59862Y-44777D01*
X59859Y-44788D01*
X59856Y-44801D01*
X59855Y-44804D01*
X59851Y-44825D01*
X59846Y-44845D01*
X59841Y-44864D01*
X59836Y-44881D01*
X59832Y-44895D01*
X59829Y-44907D01*
X59826Y-44916D01*
X59824Y-44921D01*
X59824Y-44921D01*
X59821Y-44926D01*
X59820Y-44929D01*
X59821Y-44929D01*
X59821Y-44933D01*
X59822Y-44940D01*
X59823Y-44949D01*
X59824Y-44961D01*
X59825Y-44974D01*
X59826Y-44990D01*
X59828Y-45006D01*
X59829Y-45019D01*
X59831Y-45029D01*
X59832Y-45033D01*
X59834Y-45040D01*
X59837Y-45048D01*
X59841Y-45055D01*
X59843Y-45059D01*
X59845Y-45060D01*
X59848Y-45058D01*
X59851Y-45054D01*
X59854Y-45049D01*
X59860Y-45039D01*
X59866Y-45027D01*
X59870Y-45016D01*
X59873Y-45006D01*
X59874Y-45000D01*
X59876Y-44992D01*
X59881Y-44983D01*
X59888Y-44972D01*
X59898Y-44960D01*
X59912Y-44946D01*
X59916Y-44942D01*
X59929Y-44928D01*
X59940Y-44918D01*
X59950Y-44909D01*
X59959Y-44903D01*
X59968Y-44897D01*
X59977Y-44892D01*
X59988Y-44888D01*
X60001Y-44883D01*
X60008Y-44881D01*
X60023Y-44875D01*
X60035Y-44871D01*
X60045Y-44868D01*
X60054Y-44866D01*
X60062Y-44865D01*
X60070Y-44864D01*
X60079Y-44864D01*
X60087Y-44864D01*
X60099Y-44863D01*
X60110Y-44862D01*
X60118Y-44861D01*
X60122Y-44860D01*
X60130Y-44857D01*
X60137Y-44831D01*
X60140Y-44820D01*
X60143Y-44810D01*
X60145Y-44802D01*
X60145Y-44797D01*
X60146Y-44790D01*
X60147Y-44781D01*
X60148Y-44773D01*
X60148Y-44764D01*
X60149Y-44757D01*
X60150Y-44752D01*
X60151Y-44747D01*
X60152Y-44739D01*
X60152Y-44737D01*
X60153Y-44731D01*
X60154Y-44726D01*
X60154Y-44725D01*
X60155Y-44722D01*
X60156Y-44716D01*
X60156Y-44712D01*
X60158Y-44706D01*
X60158Y-44701D01*
X60159Y-44700D01*
X60161Y-44690D01*
X60164Y-44678D01*
X60168Y-44663D01*
X60172Y-44648D01*
X60176Y-44632D01*
X60181Y-44617D01*
X60185Y-44602D01*
X60189Y-44590D01*
X60192Y-44579D01*
X60195Y-44572D01*
X60196Y-44569D01*
X60200Y-44561D01*
X60205Y-44553D01*
X60207Y-44550D01*
X60210Y-44545D01*
X60215Y-44537D01*
X60221Y-44528D01*
X60227Y-44516D01*
X60234Y-44505D01*
X60246Y-44485D01*
X60260Y-44462D01*
X60277Y-44436D01*
X60296Y-44407D01*
X60318Y-44375D01*
X60342Y-44340D01*
X60356Y-44320D01*
X60372Y-44297D01*
X60386Y-44277D01*
X60398Y-44260D01*
X60407Y-44245D01*
X60415Y-44234D01*
X60421Y-44224D01*
X60426Y-44217D01*
X60429Y-44211D01*
X60430Y-44208D01*
X60431Y-44205D01*
X60431Y-44782D01*
X60426Y-44781D01*
X60418Y-44779D01*
X60390Y-44776D01*
X60363Y-44777D01*
X60338Y-44781D01*
X60315Y-44790D01*
X60294Y-44801D01*
X60280Y-44811D01*
X60267Y-44822D01*
X60253Y-44835D01*
X60240Y-44849D01*
X60228Y-44863D01*
X60218Y-44877D01*
X60209Y-44889D01*
X60203Y-44901D01*
X60199Y-44911D01*
X60199Y-44916D01*
X60198Y-44922D01*
X60196Y-44926D01*
X60194Y-44928D01*
X60192Y-44928D01*
X60189Y-44927D01*
X60184Y-44923D01*
X60178Y-44919D01*
X60160Y-44907D01*
X60142Y-44898D01*
X60122Y-44893D01*
X60118Y-44892D01*
X60089Y-44889D01*
X60060Y-44890D01*
X60031Y-44896D01*
X60002Y-44906D01*
X59990Y-44912D01*
X59979Y-44918D01*
X59969Y-44924D01*
X59960Y-44932D01*
X59953Y-44939D01*
X59938Y-44955D01*
X59924Y-44974D01*
X59911Y-44993D01*
X59899Y-45014D01*
X59889Y-45034D01*
X59881Y-45054D01*
X59876Y-45072D01*
X59874Y-45081D01*
X59872Y-45093D01*
X59869Y-45101D01*
X59865Y-45106D01*
X59859Y-45109D01*
X59857Y-45110D01*
X59846Y-45111D01*
X59836Y-45108D01*
X59826Y-45102D01*
X59819Y-45094D01*
X59816Y-45087D01*
X59815Y-45082D01*
X59813Y-45074D01*
X59812Y-45063D01*
X59810Y-45049D01*
X59808Y-45035D01*
X59807Y-45020D01*
X59806Y-45009D01*
X59805Y-45000D01*
X59804Y-44989D01*
X59804Y-44975D01*
X59803Y-44959D01*
X59802Y-44944D01*
X59802Y-44929D01*
X59802Y-44915D01*
X59802Y-44905D01*
X59802Y-44904D01*
X59802Y-44894D01*
X59803Y-44884D01*
X59806Y-44873D01*
X59809Y-44860D01*
X59809Y-44859D01*
X59818Y-44833D01*
X59827Y-44807D01*
X59836Y-44782D01*
X59845Y-44761D01*
X59849Y-44753D01*
X59854Y-44743D01*
X59858Y-44732D01*
X59862Y-44723D01*
X59864Y-44718D01*
X59868Y-44706D01*
X59875Y-44692D01*
X59883Y-44675D01*
X59893Y-44657D01*
X59904Y-44636D01*
X59916Y-44615D01*
X59929Y-44593D01*
X59942Y-44571D01*
X59956Y-44549D01*
X59969Y-44529D01*
X59970Y-44528D01*
X59989Y-44500D01*
X60007Y-44475D01*
X60023Y-44455D01*
X60037Y-44438D01*
X60050Y-44426D01*
X60061Y-44417D01*
X60067Y-44413D01*
X60075Y-44409D01*
X60081Y-44405D01*
X60088Y-44398D01*
X60095Y-44388D01*
X60103Y-44376D01*
X60104Y-44375D01*
X60116Y-44358D01*
X60128Y-44345D01*
X60140Y-44335D01*
X60146Y-44332D01*
X60158Y-44326D01*
X60172Y-44317D01*
X60190Y-44305D01*
X60210Y-44290D01*
X60225Y-44279D01*
X60234Y-44272D01*
X60243Y-44266D01*
X60251Y-44260D01*
X60259Y-44255D01*
X60268Y-44250D01*
X60279Y-44244D01*
X60291Y-44237D01*
X60306Y-44230D01*
X60320Y-44223D01*
X60336Y-44215D01*
X60352Y-44207D01*
X60368Y-44200D01*
X60381Y-44193D01*
X60393Y-44188D01*
X60401Y-44184D01*
X60403Y-44183D01*
X60423Y-44174D01*
X60438Y-44167D01*
X60451Y-44161D01*
X60461Y-44155D01*
X60469Y-44149D01*
X60475Y-44143D01*
X60480Y-44137D01*
X60484Y-44130D01*
X60486Y-44127D01*
X60489Y-44121D01*
X60490Y-44116D01*
X60491Y-44110D01*
X60492Y-44103D01*
X60492Y-44092D01*
X60492Y-44091D01*
X60491Y-44078D01*
X60490Y-44068D01*
X60489Y-44058D01*
X60486Y-44048D01*
X60481Y-44031D01*
X60479Y-44016D01*
X60479Y-44003D01*
X60482Y-43993D01*
X60487Y-43984D01*
X60490Y-43982D01*
X60499Y-43975D01*
X60512Y-43970D01*
X60528Y-43968D01*
X60533Y-43968D01*
X60542Y-43969D01*
X60550Y-43970D01*
X60558Y-43973D01*
X60566Y-43978D01*
X60575Y-43984D01*
X60585Y-43992D01*
X60596Y-44003D01*
X60608Y-44017D01*
X60623Y-44033D01*
X60638Y-44050D01*
X60648Y-44063D01*
X60656Y-44072D01*
X60662Y-44079D01*
X60667Y-44084D01*
X60670Y-44087D01*
X60673Y-44088D01*
X60675Y-44089D01*
X60677Y-44089D01*
X60678Y-44089D01*
X60699Y-44086D01*
X60724Y-44083D01*
X60751Y-44081D01*
X60779Y-44080D01*
X60807Y-44080D01*
X60835Y-44080D01*
X60860Y-44081D01*
X60881Y-44083D01*
X60894Y-44084D01*
X60909Y-44085D01*
X60924Y-44087D01*
X60932Y-44087D01*
X60947Y-44089D01*
X60966Y-44092D01*
X60988Y-44096D01*
X61012Y-44101D01*
X61038Y-44107D01*
X61064Y-44113D01*
X61090Y-44119D01*
X61116Y-44126D01*
X61140Y-44133D01*
X61162Y-44140D01*
X61182Y-44146D01*
X61194Y-44150D01*
X61206Y-44155D01*
X61220Y-44160D01*
X61234Y-44164D01*
X61240Y-44166D01*
X61252Y-44169D01*
X61265Y-44173D01*
X61277Y-44178D01*
X61289Y-44183D01*
X61304Y-44189D01*
X61320Y-44196D01*
X61338Y-44205D01*
X61358Y-44215D01*
X61388Y-44230D01*
X61414Y-44243D01*
X61437Y-44255D01*
X61457Y-44266D01*
X61475Y-44277D01*
X61490Y-44287D01*
X61504Y-44296D01*
X61516Y-44305D01*
X61527Y-44315D01*
X61529Y-44317D01*
X61545Y-44332D01*
X61561Y-44348D01*
X61577Y-44366D01*
X61593Y-44384D01*
X61609Y-44402D01*
X61624Y-44419D01*
X61637Y-44435D01*
X61648Y-44450D01*
X61657Y-44463D01*
X61661Y-44471D01*
X61666Y-44477D01*
X61671Y-44484D01*
X61672Y-44486D01*
X61676Y-44491D01*
X61680Y-44499D01*
X61686Y-44508D01*
X61692Y-44519D01*
X61694Y-44522D01*
X61702Y-44537D01*
X61708Y-44549D01*
X61714Y-44557D01*
X61719Y-44563D01*
X61724Y-44567D01*
X61728Y-44569D01*
X61734Y-44573D01*
X61737Y-44579D01*
X61737Y-44587D01*
X61735Y-44597D01*
X61731Y-44605D01*
X61729Y-44607D01*
X61724Y-44611D01*
X61718Y-44614D01*
X61711Y-44614D01*
X61702Y-44613D01*
X61691Y-44609D01*
X61677Y-44603D01*
X61668Y-44598D01*
X61666Y-44598D01*
X61666Y-44519D01*
X61666Y-44514D01*
X61663Y-44506D01*
X61660Y-44500D01*
X61657Y-44493D01*
X61653Y-44487D01*
X61647Y-44481D01*
X61640Y-44473D01*
X61631Y-44463D01*
X61627Y-44459D01*
X61617Y-44449D01*
X61608Y-44440D01*
X61600Y-44431D01*
X61594Y-44424D01*
X61591Y-44421D01*
X61586Y-44414D01*
X61582Y-44408D01*
X61579Y-44405D01*
X61576Y-44401D01*
X61570Y-44395D01*
X61564Y-44388D01*
X61561Y-44384D01*
X61552Y-44374D01*
X61542Y-44364D01*
X61532Y-44353D01*
X61522Y-44342D01*
X61512Y-44333D01*
X61502Y-44324D01*
X61495Y-44317D01*
X61489Y-44313D01*
X61485Y-44310D01*
X61485Y-44310D01*
X61482Y-44310D01*
X61478Y-44309D01*
X61473Y-44306D01*
X61466Y-44303D01*
X61456Y-44297D01*
X61444Y-44289D01*
X61440Y-44287D01*
X61424Y-44277D01*
X61405Y-44267D01*
X61387Y-44257D01*
X61369Y-44248D01*
X61353Y-44242D01*
X61352Y-44241D01*
X61339Y-44236D01*
X61329Y-44230D01*
X61321Y-44224D01*
X61316Y-44219D01*
X61316Y-44218D01*
X61314Y-44214D01*
X61311Y-44213D01*
X61306Y-44214D01*
X61299Y-44214D01*
X61290Y-44213D01*
X61278Y-44209D01*
X61264Y-44203D01*
X61249Y-44197D01*
X61235Y-44191D01*
X61220Y-44185D01*
X61206Y-44179D01*
X61192Y-44175D01*
X61180Y-44171D01*
X61171Y-44169D01*
X61170Y-44169D01*
X61165Y-44168D01*
X61157Y-44166D01*
X61147Y-44164D01*
X61139Y-44162D01*
X61130Y-44160D01*
X61121Y-44158D01*
X61114Y-44156D01*
X61112Y-44156D01*
X61108Y-44155D01*
X61101Y-44153D01*
X61091Y-44151D01*
X61080Y-44148D01*
X61073Y-44147D01*
X61062Y-44144D01*
X61051Y-44142D01*
X61043Y-44140D01*
X61038Y-44139D01*
X61037Y-44138D01*
X61033Y-44137D01*
X61027Y-44136D01*
X61018Y-44134D01*
X61008Y-44132D01*
X60998Y-44129D01*
X60989Y-44127D01*
X60982Y-44126D01*
X60978Y-44125D01*
X60966Y-44122D01*
X60954Y-44120D01*
X60943Y-44117D01*
X60935Y-44114D01*
X60930Y-44112D01*
X60929Y-44112D01*
X60924Y-44109D01*
X60917Y-44108D01*
X60906Y-44107D01*
X60901Y-44107D01*
X60891Y-44107D01*
X60881Y-44106D01*
X60873Y-44106D01*
X60870Y-44106D01*
X60861Y-44105D01*
X60850Y-44105D01*
X60836Y-44104D01*
X60822Y-44104D01*
X60806Y-44104D01*
X60791Y-44104D01*
X60776Y-44104D01*
X60763Y-44104D01*
X60751Y-44104D01*
X60743Y-44104D01*
X60737Y-44105D01*
X60736Y-44105D01*
X60730Y-44107D01*
X60736Y-44112D01*
X60742Y-44116D01*
X60750Y-44121D01*
X60763Y-44129D01*
X60779Y-44138D01*
X60799Y-44149D01*
X60823Y-44162D01*
X60850Y-44177D01*
X60881Y-44194D01*
X60902Y-44205D01*
X60939Y-44225D01*
X60972Y-44243D01*
X61001Y-44260D01*
X61028Y-44275D01*
X61053Y-44290D01*
X61065Y-44297D01*
X61078Y-44306D01*
X61090Y-44315D01*
X61103Y-44325D01*
X61115Y-44337D01*
X61128Y-44350D01*
X61143Y-44367D01*
X61160Y-44386D01*
X61160Y-44386D01*
X61166Y-44393D01*
X61170Y-44398D01*
X61173Y-44401D01*
X61173Y-44401D01*
X61176Y-44404D01*
X61180Y-44409D01*
X61186Y-44417D01*
X61194Y-44427D01*
X61203Y-44437D01*
X61212Y-44448D01*
X61221Y-44460D01*
X61229Y-44470D01*
X61237Y-44480D01*
X61243Y-44488D01*
X61244Y-44490D01*
X61255Y-44504D01*
X61263Y-44515D01*
X61270Y-44525D01*
X61275Y-44532D01*
X61279Y-44539D01*
X61282Y-44546D01*
X61284Y-44549D01*
X61290Y-44559D01*
X61298Y-44570D01*
X61308Y-44580D01*
X61318Y-44589D01*
X61323Y-44593D01*
X61333Y-44597D01*
X61343Y-44598D01*
X61351Y-44595D01*
X61355Y-44592D01*
X61362Y-44588D01*
X61371Y-44582D01*
X61381Y-44576D01*
X61386Y-44572D01*
X61403Y-44562D01*
X61416Y-44553D01*
X61428Y-44547D01*
X61438Y-44542D01*
X61448Y-44539D01*
X61458Y-44537D01*
X61463Y-44537D01*
X61470Y-44536D01*
X61476Y-44535D01*
X61478Y-44534D01*
X61482Y-44534D01*
X61489Y-44534D01*
X61499Y-44533D01*
X61511Y-44533D01*
X61525Y-44533D01*
X61529Y-44532D01*
X61555Y-44532D01*
X61577Y-44531D01*
X61596Y-44531D01*
X61612Y-44530D01*
X61624Y-44529D01*
X61635Y-44529D01*
X61643Y-44528D01*
X61649Y-44528D01*
X61654Y-44527D01*
X61657Y-44526D01*
X61661Y-44525D01*
X61662Y-44525D01*
X61665Y-44523D01*
X61666Y-44519D01*
X61666Y-44598D01*
X61654Y-44592D01*
X61642Y-44587D01*
X61630Y-44583D01*
X61618Y-44581D01*
X61605Y-44579D01*
X61589Y-44578D01*
X61570Y-44578D01*
X61564Y-44578D01*
X61535Y-44579D01*
X61509Y-44581D01*
X61485Y-44585D01*
X61462Y-44590D01*
X61440Y-44598D01*
X61416Y-44609D01*
X61391Y-44622D01*
X61388Y-44624D01*
X61377Y-44630D01*
X61367Y-44635D01*
X61359Y-44639D01*
X61354Y-44642D01*
X61352Y-44642D01*
X61349Y-44642D01*
X61343Y-44639D01*
X61335Y-44635D01*
X61324Y-44631D01*
X61315Y-44627D01*
X61295Y-44618D01*
X61279Y-44612D01*
X61264Y-44607D01*
X61251Y-44604D01*
X61238Y-44603D01*
X61225Y-44603D01*
X61210Y-44605D01*
X61197Y-44607D01*
X61160Y-44615D01*
X61127Y-44626D01*
X61097Y-44639D01*
X61079Y-44649D01*
X61071Y-44654D01*
X61063Y-44660D01*
X61055Y-44667D01*
X61046Y-44676D01*
X61035Y-44687D01*
X61021Y-44701D01*
X61016Y-44707D01*
X61008Y-44714D01*
X61002Y-44720D01*
X60997Y-44724D01*
X60994Y-44725D01*
X60989Y-44726D01*
X60983Y-44724D01*
X60975Y-44719D01*
X60966Y-44712D01*
X60957Y-44704D01*
X60949Y-44697D01*
X60943Y-44692D01*
X60938Y-44688D01*
X60936Y-44687D01*
X60933Y-44687D01*
X60927Y-44685D01*
X60926Y-44684D01*
X60926Y-44644D01*
X60925Y-44633D01*
X60922Y-44619D01*
X60917Y-44603D01*
X60911Y-44585D01*
X60904Y-44565D01*
X60895Y-44544D01*
X60886Y-44523D01*
X60875Y-44502D01*
X60865Y-44481D01*
X60853Y-44461D01*
X60847Y-44450D01*
X60821Y-44409D01*
X60796Y-44371D01*
X60772Y-44338D01*
X60748Y-44308D01*
X60726Y-44282D01*
X60704Y-44259D01*
X60682Y-44240D01*
X60669Y-44229D01*
X60650Y-44217D01*
X60633Y-44208D01*
X60616Y-44203D01*
X60600Y-44201D01*
X60586Y-44203D01*
X60578Y-44206D01*
X60566Y-44214D01*
X60555Y-44227D01*
X60545Y-44242D01*
X60535Y-44262D01*
X60526Y-44286D01*
X60517Y-44314D01*
X60510Y-44346D01*
X60502Y-44382D01*
X60496Y-44423D01*
X60492Y-44450D01*
X60491Y-44458D01*
X60490Y-44464D01*
X60490Y-44466D01*
X60489Y-44470D01*
X60489Y-44474D01*
X60488Y-44481D01*
X60487Y-44490D01*
X60486Y-44503D01*
X60485Y-44504D01*
X60484Y-44512D01*
X60484Y-44518D01*
X60483Y-44521D01*
X60482Y-44530D01*
X60481Y-44542D01*
X60480Y-44558D01*
X60479Y-44575D01*
X60479Y-44593D01*
X60479Y-44606D01*
X60479Y-44623D01*
X60479Y-44637D01*
X60480Y-44648D01*
X60481Y-44658D01*
X60482Y-44667D01*
X60484Y-44677D01*
X60485Y-44679D01*
X60486Y-44685D01*
X60488Y-44691D01*
X60488Y-44693D01*
X60489Y-44698D01*
X60490Y-44703D01*
X60491Y-44708D01*
X60492Y-44711D01*
X60492Y-44711D01*
X60493Y-44714D01*
X60494Y-44719D01*
X60495Y-44725D01*
X60496Y-44729D01*
X60496Y-44731D01*
X60497Y-44733D01*
X60498Y-44738D01*
X60498Y-44740D01*
X60500Y-44746D01*
X60501Y-44750D01*
X60501Y-44751D01*
X60501Y-44754D01*
X60501Y-44756D01*
X60503Y-44758D01*
X60504Y-44757D01*
X60507Y-44755D01*
X60512Y-44751D01*
X60520Y-44745D01*
X60529Y-44738D01*
X60539Y-44730D01*
X60555Y-44718D01*
X60569Y-44707D01*
X60582Y-44699D01*
X60594Y-44691D01*
X60607Y-44684D01*
X60621Y-44676D01*
X60625Y-44674D01*
X60646Y-44664D01*
X60668Y-44655D01*
X60689Y-44646D01*
X60709Y-44639D01*
X60728Y-44633D01*
X60745Y-44629D01*
X60759Y-44626D01*
X60771Y-44626D01*
X60780Y-44627D01*
X60781Y-44627D01*
X60786Y-44630D01*
X60790Y-44634D01*
X60793Y-44637D01*
X60796Y-44637D01*
X60797Y-44635D01*
X60800Y-44632D01*
X60801Y-44630D01*
X60803Y-44626D01*
X60808Y-44623D01*
X60816Y-44622D01*
X60817Y-44622D01*
X60830Y-44623D01*
X60844Y-44626D01*
X60861Y-44630D01*
X60878Y-44636D01*
X60895Y-44643D01*
X60908Y-44649D01*
X60916Y-44653D01*
X60921Y-44655D01*
X60923Y-44655D01*
X60925Y-44654D01*
X60925Y-44652D01*
X60926Y-44644D01*
X60926Y-44684D01*
X60918Y-44682D01*
X60906Y-44678D01*
X60892Y-44674D01*
X60879Y-44670D01*
X60864Y-44665D01*
X60851Y-44661D01*
X60840Y-44658D01*
X60831Y-44655D01*
X60825Y-44653D01*
X60823Y-44653D01*
X60823Y-44656D01*
X60824Y-44662D01*
X60825Y-44670D01*
X60827Y-44681D01*
X60829Y-44694D01*
X60832Y-44706D01*
X60834Y-44719D01*
X60837Y-44732D01*
X60839Y-44742D01*
X60839Y-44742D01*
X60842Y-44755D01*
X60846Y-44770D01*
X60850Y-44786D01*
X60854Y-44801D01*
X60856Y-44807D01*
X60864Y-44840D01*
X60873Y-44872D01*
X60880Y-44903D01*
X60888Y-44935D01*
X60896Y-44968D01*
X60904Y-45002D01*
X60912Y-45038D01*
X60921Y-45076D01*
X60930Y-45118D01*
X60939Y-45162D01*
X60945Y-45187D01*
X60956Y-45242D01*
X60967Y-45292D01*
X60977Y-45338D01*
X60986Y-45380D01*
X60995Y-45419D01*
X61003Y-45454D01*
X61010Y-45485D01*
X61017Y-45513D01*
X61024Y-45538D01*
X61029Y-45560D01*
X61035Y-45579D01*
X61040Y-45595D01*
X61044Y-45608D01*
X61048Y-45619D01*
X61052Y-45627D01*
X61055Y-45633D01*
X61058Y-45636D01*
X61060Y-45638D01*
X61063Y-45640D01*
X61066Y-45640D01*
X61071Y-45638D01*
X61076Y-45635D01*
X61083Y-45630D01*
X61091Y-45623D01*
X61101Y-45614D01*
X61114Y-45602D01*
X61129Y-45588D01*
X61145Y-45572D01*
X61167Y-45551D01*
X61187Y-45532D01*
X61204Y-45516D01*
X61220Y-45501D01*
X61235Y-45489D01*
X61250Y-45478D01*
X61264Y-45467D01*
X61278Y-45458D01*
X61293Y-45448D01*
X61296Y-45446D01*
X61311Y-45437D01*
X61329Y-45427D01*
X61349Y-45417D01*
X61369Y-45406D01*
X61390Y-45396D01*
X61411Y-45386D01*
X61430Y-45377D01*
X61448Y-45369D01*
X61463Y-45362D01*
X61473Y-45359D01*
X61489Y-45353D01*
X61506Y-45349D01*
X61524Y-45346D01*
X61545Y-45343D01*
X61569Y-45341D01*
X61577Y-45341D01*
X61600Y-45340D01*
X61619Y-45339D01*
X61635Y-45340D01*
X61649Y-45342D01*
X61662Y-45345D01*
X61675Y-45350D01*
X61688Y-45356D01*
X61702Y-45364D01*
X61711Y-45371D01*
X61728Y-45382D01*
X61741Y-45394D01*
X61752Y-45406D01*
X61760Y-45420D01*
X61765Y-45435D01*
X61768Y-45453D01*
X61770Y-45474D01*
X61771Y-45492D01*
X61770Y-45510D01*
X61769Y-45525D01*
X61766Y-45538D01*
X61762Y-45552D01*
X61756Y-45566D01*
X61751Y-45576D01*
X61741Y-45594D01*
X61741Y-45482D01*
X61741Y-45481D01*
X61741Y-45468D01*
X61741Y-45459D01*
X61740Y-45452D01*
X61739Y-45445D01*
X61736Y-45438D01*
X61736Y-45438D01*
X61728Y-45419D01*
X61717Y-45403D01*
X61704Y-45390D01*
X61687Y-45380D01*
X61667Y-45373D01*
X61644Y-45368D01*
X61640Y-45367D01*
X61629Y-45366D01*
X61614Y-45365D01*
X61598Y-45365D01*
X61581Y-45365D01*
X61564Y-45365D01*
X61549Y-45366D01*
X61536Y-45367D01*
X61527Y-45368D01*
X61515Y-45371D01*
X61507Y-45374D01*
X61502Y-45377D01*
X61501Y-45381D01*
X61501Y-45381D01*
X61503Y-45383D01*
X61508Y-45386D01*
X61516Y-45389D01*
X61518Y-45390D01*
X61535Y-45399D01*
X61549Y-45411D01*
X61560Y-45425D01*
X61569Y-45441D01*
X61575Y-45458D01*
X61577Y-45475D01*
X61575Y-45492D01*
X61570Y-45508D01*
X61561Y-45525D01*
X61548Y-45544D01*
X61547Y-45544D01*
X61547Y-45487D01*
X61546Y-45473D01*
X61543Y-45459D01*
X61539Y-45446D01*
X61534Y-45435D01*
X61533Y-45434D01*
X61527Y-45427D01*
X61520Y-45421D01*
X61512Y-45417D01*
X61500Y-45415D01*
X61486Y-45413D01*
X61479Y-45413D01*
X61466Y-45413D01*
X61454Y-45413D01*
X61443Y-45414D01*
X61432Y-45417D01*
X61420Y-45420D01*
X61406Y-45426D01*
X61395Y-45430D01*
X61362Y-45444D01*
X61333Y-45458D01*
X61307Y-45471D01*
X61284Y-45485D01*
X61263Y-45500D01*
X61245Y-45515D01*
X61242Y-45517D01*
X61227Y-45531D01*
X61211Y-45547D01*
X61195Y-45563D01*
X61179Y-45580D01*
X61164Y-45597D01*
X61150Y-45613D01*
X61136Y-45629D01*
X61124Y-45645D01*
X61114Y-45658D01*
X61105Y-45671D01*
X61099Y-45681D01*
X61096Y-45689D01*
X61095Y-45692D01*
X61097Y-45699D01*
X61101Y-45707D01*
X61108Y-45714D01*
X61114Y-45719D01*
X61119Y-45720D01*
X61127Y-45720D01*
X61139Y-45719D01*
X61152Y-45715D01*
X61158Y-45713D01*
X61167Y-45710D01*
X61180Y-45706D01*
X61195Y-45700D01*
X61213Y-45694D01*
X61232Y-45687D01*
X61251Y-45680D01*
X61271Y-45673D01*
X61290Y-45666D01*
X61308Y-45659D01*
X61324Y-45653D01*
X61337Y-45648D01*
X61346Y-45645D01*
X61369Y-45636D01*
X61391Y-45626D01*
X61410Y-45616D01*
X61427Y-45607D01*
X61441Y-45598D01*
X61445Y-45595D01*
X61452Y-45590D01*
X61461Y-45583D01*
X61470Y-45575D01*
X61478Y-45568D01*
X61488Y-45559D01*
X61500Y-45550D01*
X61511Y-45542D01*
X61518Y-45537D01*
X61526Y-45531D01*
X61534Y-45526D01*
X61540Y-45521D01*
X61542Y-45518D01*
X61545Y-45511D01*
X61547Y-45500D01*
X61547Y-45487D01*
X61547Y-45544D01*
X61532Y-45562D01*
X61513Y-45581D01*
X61492Y-45599D01*
X61470Y-45617D01*
X61453Y-45628D01*
X61430Y-45643D01*
X61405Y-45655D01*
X61378Y-45666D01*
X61371Y-45668D01*
X61358Y-45673D01*
X61343Y-45679D01*
X61329Y-45685D01*
X61321Y-45689D01*
X61311Y-45694D01*
X61298Y-45699D01*
X61283Y-45705D01*
X61268Y-45711D01*
X61257Y-45715D01*
X61237Y-45723D01*
X61220Y-45730D01*
X61207Y-45736D01*
X61197Y-45741D01*
X61190Y-45745D01*
X61186Y-45749D01*
X61184Y-45753D01*
X61184Y-45756D01*
X61187Y-45760D01*
X61193Y-45763D01*
X61203Y-45766D01*
X61216Y-45768D01*
X61229Y-45770D01*
X61239Y-45770D01*
X61254Y-45771D01*
X61270Y-45771D01*
X61289Y-45771D01*
X61309Y-45771D01*
X61329Y-45771D01*
X61349Y-45770D01*
X61368Y-45770D01*
X61385Y-45769D01*
X61399Y-45768D01*
X61411Y-45767D01*
X61413Y-45767D01*
X61437Y-45763D01*
X61461Y-45758D01*
X61484Y-45752D01*
X61506Y-45745D01*
X61512Y-45743D01*
X61547Y-45728D01*
X61580Y-45710D01*
X61612Y-45689D01*
X61640Y-45666D01*
X61666Y-45641D01*
X61689Y-45613D01*
X61708Y-45585D01*
X61724Y-45555D01*
X61735Y-45527D01*
X61738Y-45519D01*
X61739Y-45511D01*
X61740Y-45504D01*
X61741Y-45494D01*
X61741Y-45482D01*
X61741Y-45594D01*
X61739Y-45598D01*
X61725Y-45620D01*
X61709Y-45641D01*
X61693Y-45660D01*
X61677Y-45675D01*
X61668Y-45683D01*
X61660Y-45689D01*
X61651Y-45697D01*
X61642Y-45706D01*
X61640Y-45708D01*
X61628Y-45719D01*
X61615Y-45729D01*
X61601Y-45738D01*
X61587Y-45745D01*
X61576Y-45750D01*
X61567Y-45752D01*
X61557Y-45756D01*
X61550Y-45759D01*
X61534Y-45765D01*
X61518Y-45770D01*
X61501Y-45775D01*
X61481Y-45779D01*
X61459Y-45782D01*
X61442Y-45785D01*
X61417Y-45788D01*
X61392Y-45790D01*
X61367Y-45792D01*
X61340Y-45793D01*
X61312Y-45793D01*
X61281Y-45793D01*
X61249Y-45792D01*
X61213Y-45791D01*
X61173Y-45789D01*
X61143Y-45787D01*
X61125Y-45786D01*
X61109Y-45785D01*
X61095Y-45784D01*
X61083Y-45784D01*
X61075Y-45783D01*
X61069Y-45783D01*
X61068Y-45783D01*
X61066Y-45785D01*
X61064Y-45790D01*
X61062Y-45798D01*
X61059Y-45807D01*
X61057Y-45817D01*
X61055Y-45827D01*
X61054Y-45835D01*
X61054Y-45840D01*
X61055Y-45851D01*
X61060Y-45862D01*
X61067Y-45872D01*
X61078Y-45882D01*
X61092Y-45892D01*
X61107Y-45900D01*
X61124Y-45909D01*
X61138Y-45916D01*
X61152Y-45922D01*
X61166Y-45927D01*
X61180Y-45931D01*
X61194Y-45934D01*
X61210Y-45937D01*
X61227Y-45939D01*
X61246Y-45940D01*
X61269Y-45941D01*
X61295Y-45943D01*
X61319Y-45943D01*
X61346Y-45944D01*
X61373Y-45944D01*
X61399Y-45944D01*
X61423Y-45944D01*
X61446Y-45943D01*
X61467Y-45943D01*
X61485Y-45942D01*
X61499Y-45940D01*
X61510Y-45939D01*
X61512Y-45939D01*
X61516Y-45937D01*
X61524Y-45934D01*
X61535Y-45929D01*
X61547Y-45924D01*
X61562Y-45917D01*
X61576Y-45910D01*
X61578Y-45909D01*
X61612Y-45892D01*
X61644Y-45876D01*
X61675Y-45862D01*
X61704Y-45849D01*
X61731Y-45837D01*
X61756Y-45827D01*
X61778Y-45818D01*
X61797Y-45811D01*
X61812Y-45806D01*
X61823Y-45803D01*
X61833Y-45801D01*
X61845Y-45798D01*
X61856Y-45795D01*
X61857Y-45795D01*
X61872Y-45791D01*
X61886Y-45790D01*
X61899Y-45790D01*
X61911Y-45791D01*
X61921Y-45795D01*
X61929Y-45799D01*
X61934Y-45805D01*
X61934Y-45811D01*
X61934Y-45812D01*
X61932Y-45818D01*
X61929Y-45823D01*
X61923Y-45829D01*
X61915Y-45836D01*
X61903Y-45844D01*
X61901Y-45846D01*
X61882Y-45860D01*
X61866Y-45875D01*
X61853Y-45889D01*
X61845Y-45904D01*
X61840Y-45917D01*
X61839Y-45925D01*
X61839Y-45929D01*
X61840Y-45932D01*
X61841Y-45936D01*
X61844Y-45939D01*
X61849Y-45943D01*
X61856Y-45948D01*
X61865Y-45953D01*
X61877Y-45960D01*
X61892Y-45969D01*
X61901Y-45975D01*
X61924Y-45988D01*
X61943Y-45999D01*
X61958Y-46009D01*
X61970Y-46017D01*
X61979Y-46024D01*
X61985Y-46030D01*
X61988Y-46035D01*
X61989Y-46039D01*
X61988Y-46042D01*
X61986Y-46045D01*
X61983Y-46047D01*
X61979Y-46048D01*
X61973Y-46050D01*
X61965Y-46051D01*
X61954Y-46052D01*
X61941Y-46052D01*
X61924Y-46053D01*
X61911Y-46053D01*
X61911Y-46013D01*
X61911Y-46008D01*
X61907Y-46004D01*
X61905Y-46003D01*
X61900Y-46001D01*
X61892Y-45998D01*
X61880Y-45994D01*
X61866Y-45990D01*
X61850Y-45985D01*
X61844Y-45983D01*
X61830Y-45978D01*
X61820Y-45972D01*
X61814Y-45963D01*
X61810Y-45953D01*
X61810Y-45945D01*
X61811Y-45931D01*
X61816Y-45914D01*
X61824Y-45894D01*
X61834Y-45874D01*
X61847Y-45851D01*
X61849Y-45848D01*
X61855Y-45839D01*
X61859Y-45832D01*
X61863Y-45826D01*
X61864Y-45823D01*
X61864Y-45823D01*
X61862Y-45822D01*
X61856Y-45822D01*
X61848Y-45823D01*
X61837Y-45825D01*
X61825Y-45828D01*
X61812Y-45831D01*
X61810Y-45832D01*
X61785Y-45839D01*
X61761Y-45848D01*
X61739Y-45857D01*
X61720Y-45866D01*
X61714Y-45870D01*
X61704Y-45875D01*
X61693Y-45880D01*
X61684Y-45885D01*
X61681Y-45886D01*
X61667Y-45891D01*
X61655Y-45897D01*
X61642Y-45904D01*
X61628Y-45913D01*
X61627Y-45914D01*
X61595Y-45932D01*
X61560Y-45948D01*
X61522Y-45960D01*
X61482Y-45969D01*
X61449Y-45973D01*
X61421Y-45976D01*
X61390Y-45977D01*
X61357Y-45976D01*
X61322Y-45975D01*
X61288Y-45973D01*
X61254Y-45970D01*
X61222Y-45966D01*
X61194Y-45961D01*
X61192Y-45960D01*
X61175Y-45957D01*
X61159Y-45954D01*
X61146Y-45953D01*
X61136Y-45952D01*
X61129Y-45952D01*
X61127Y-45953D01*
X61124Y-45954D01*
X61125Y-45956D01*
X61127Y-45959D01*
X61131Y-45965D01*
X61139Y-45972D01*
X61149Y-45980D01*
X61162Y-45989D01*
X61177Y-45999D01*
X61192Y-46010D01*
X61208Y-46020D01*
X61225Y-46030D01*
X61227Y-46031D01*
X61262Y-46050D01*
X61295Y-46065D01*
X61327Y-46077D01*
X61360Y-46086D01*
X61394Y-46093D01*
X61407Y-46095D01*
X61417Y-46095D01*
X61430Y-46096D01*
X61446Y-46096D01*
X61463Y-46096D01*
X61481Y-46095D01*
X61499Y-46095D01*
X61516Y-46094D01*
X61531Y-46092D01*
X61539Y-46092D01*
X61559Y-46089D01*
X61582Y-46085D01*
X61606Y-46081D01*
X61630Y-46076D01*
X61655Y-46071D01*
X61679Y-46066D01*
X61701Y-46061D01*
X61722Y-46056D01*
X61739Y-46051D01*
X61750Y-46048D01*
X61766Y-46043D01*
X61782Y-46039D01*
X61798Y-46035D01*
X61813Y-46031D01*
X61826Y-46029D01*
X61836Y-46028D01*
X61840Y-46028D01*
X61847Y-46027D01*
X61857Y-46026D01*
X61868Y-46025D01*
X61879Y-46023D01*
X61890Y-46021D01*
X61899Y-46019D01*
X61905Y-46017D01*
X61907Y-46017D01*
X61911Y-46013D01*
X61911Y-46053D01*
X61903Y-46054D01*
X61900Y-46054D01*
X61875Y-46054D01*
X61854Y-46055D01*
X61836Y-46056D01*
X61822Y-46057D01*
X61809Y-46058D01*
X61799Y-46060D01*
X61790Y-46062D01*
X61782Y-46064D01*
X61776Y-46066D01*
X61771Y-46067D01*
X61762Y-46069D01*
X61750Y-46072D01*
X61735Y-46075D01*
X61718Y-46079D01*
X61698Y-46083D01*
X61678Y-46087D01*
X61657Y-46091D01*
X61636Y-46096D01*
X61614Y-46100D01*
X61594Y-46104D01*
X61574Y-46108D01*
X61557Y-46111D01*
X61541Y-46114D01*
X61528Y-46116D01*
X61519Y-46118D01*
X61514Y-46118D01*
X61479Y-46121D01*
X61442Y-46120D01*
X61403Y-46116D01*
X61364Y-46109D01*
X61326Y-46099D01*
X61310Y-46094D01*
X61268Y-46079D01*
X61228Y-46062D01*
X61189Y-46041D01*
X61151Y-46017D01*
X61113Y-45989D01*
X61074Y-45958D01*
X61067Y-45952D01*
X61057Y-45944D01*
X61049Y-45937D01*
X61043Y-45931D01*
X61038Y-45928D01*
X61037Y-45927D01*
X61035Y-45928D01*
X61030Y-45933D01*
X61024Y-45939D01*
X61017Y-45947D01*
X61014Y-45950D01*
X61003Y-45963D01*
X60994Y-45975D01*
X60986Y-45985D01*
X60980Y-45994D01*
X60977Y-46001D01*
X60976Y-46004D01*
X60977Y-46007D01*
X60980Y-46013D01*
X60983Y-46018D01*
X60988Y-46026D01*
X60994Y-46037D01*
X61002Y-46052D01*
X61011Y-46069D01*
X61020Y-46088D01*
X61030Y-46109D01*
X61041Y-46132D01*
X61052Y-46156D01*
X61053Y-46159D01*
X61064Y-46184D01*
X61073Y-46205D01*
X61081Y-46223D01*
X61087Y-46239D01*
X61091Y-46253D01*
X61095Y-46265D01*
X61098Y-46277D01*
X61100Y-46288D01*
X61100Y-46292D01*
X61102Y-46300D01*
X61105Y-46306D01*
X61111Y-46312D01*
X61119Y-46318D01*
X61130Y-46325D01*
X61141Y-46330D01*
X61153Y-46336D01*
X61168Y-46343D01*
X61186Y-46350D01*
X61207Y-46359D01*
X61230Y-46368D01*
X61253Y-46378D01*
X61278Y-46387D01*
X61303Y-46397D01*
X61328Y-46406D01*
X61352Y-46415D01*
X61375Y-46424D01*
X61395Y-46431D01*
X61414Y-46438D01*
X61417Y-46439D01*
X61438Y-46446D01*
X61456Y-46451D01*
X61471Y-46455D01*
X61482Y-46458D01*
X61491Y-46460D01*
X61497Y-46460D01*
X61499Y-46459D01*
X61509Y-46456D01*
X61522Y-46449D01*
X61537Y-46439D01*
X61554Y-46425D01*
X61574Y-46409D01*
X61586Y-46398D01*
X61606Y-46381D01*
X61623Y-46367D01*
X61640Y-46355D01*
X61656Y-46346D01*
X61672Y-46338D01*
X61689Y-46332D01*
X61708Y-46327D01*
X61730Y-46323D01*
X61751Y-46320D01*
X61772Y-46317D01*
X61794Y-46316D01*
X61818Y-46316D01*
X61841Y-46316D01*
X61863Y-46318D01*
X61882Y-46321D01*
X61888Y-46322D01*
X61910Y-46327D01*
X61932Y-46334D01*
X61954Y-46342D01*
X61976Y-46351D01*
X61996Y-46360D01*
X62014Y-46369D01*
X62024Y-46375D01*
X62037Y-46385D01*
X62051Y-46396D01*
X62065Y-46409D01*
X62080Y-46424D01*
X62094Y-46439D01*
X62108Y-46454D01*
X62120Y-46468D01*
X62130Y-46482D01*
X62138Y-46494D01*
X62144Y-46504D01*
X62144Y-46505D01*
X62148Y-46513D01*
X62152Y-46519D01*
X62157Y-46524D01*
X62164Y-46529D01*
X62174Y-46533D01*
X62187Y-46537D01*
X62189Y-46538D01*
X62197Y-46541D01*
X62206Y-46546D01*
X62213Y-46551D01*
X62217Y-46556D01*
X62219Y-46560D01*
X62221Y-46565D01*
X62227Y-46570D01*
X62235Y-46574D01*
X62246Y-46576D01*
X62259Y-46577D01*
X62262Y-46577D01*
X62274Y-46576D01*
X62285Y-46573D01*
X62296Y-46567D01*
X62301Y-46564D01*
X62305Y-46561D01*
X62311Y-46558D01*
X62319Y-46555D01*
X62329Y-46552D01*
X62341Y-46548D01*
X62351Y-46544D01*
X62364Y-46537D01*
X62379Y-46527D01*
X62395Y-46515D01*
X62412Y-46501D01*
X62429Y-46486D01*
X62446Y-46471D01*
X62462Y-46454D01*
X62478Y-46438D01*
X62492Y-46422D01*
X62504Y-46407D01*
X62514Y-46393D01*
X62520Y-46381D01*
X62526Y-46374D01*
X62532Y-46371D01*
X62540Y-46372D01*
X62548Y-46376D01*
X62556Y-46384D01*
X62563Y-46394D01*
X62569Y-46407D01*
X62573Y-46423D01*
X62576Y-46442D01*
X62578Y-46464D01*
X62578Y-46490D01*
X62578Y-46520D01*
X62576Y-46547D01*
X62575Y-46559D01*
X62575Y-46569D01*
X62574Y-46577D01*
X62574Y-46582D01*
X62574Y-46583D01*
X62577Y-46583D01*
X62583Y-46583D01*
X62592Y-46583D01*
X62604Y-46583D01*
X62617Y-46582D01*
X62632Y-46582D01*
X62647Y-46581D01*
X62662Y-46581D01*
X62677Y-46580D01*
X62690Y-46579D01*
X62701Y-46579D01*
X62710Y-46578D01*
X62716Y-46578D01*
X62716Y-46577D01*
X62735Y-46574D01*
X62750Y-46570D01*
X62764Y-46564D01*
X62774Y-46557D01*
X62784Y-46551D01*
X62792Y-46547D01*
X62796Y-46546D01*
X62806Y-46546D01*
X62819Y-46547D01*
X62834Y-46549D01*
X62850Y-46552D01*
X62868Y-46556D01*
X62885Y-46560D01*
X62902Y-46565D01*
X62918Y-46570D01*
X62930Y-46575D01*
X62940Y-46580D01*
X62942Y-46581D01*
X62949Y-46584D01*
X62960Y-46587D01*
X62974Y-46588D01*
X62993Y-46589D01*
X63015Y-46589D01*
X63042Y-46589D01*
X63059Y-46588D01*
X63101Y-46586D01*
X63138Y-46584D01*
X63172Y-46581D01*
X63202Y-46578D01*
X63227Y-46574D01*
X63249Y-46570D01*
X63268Y-46565D01*
X63283Y-46559D01*
X63286Y-46558D01*
X63306Y-46551D01*
X63328Y-46546D01*
X63353Y-46543D01*
X63368Y-46543D01*
X63397Y-46544D01*
X63426Y-46548D01*
X63454Y-46554D01*
X63479Y-46562D01*
X63492Y-46568D01*
X63504Y-46575D01*
X63517Y-46586D01*
X63531Y-46598D01*
X63543Y-46611D01*
X63553Y-46625D01*
X63561Y-46637D01*
X63568Y-46652D01*
X63573Y-46666D01*
X63576Y-46679D01*
X63577Y-46693D01*
X63577Y-46702D01*
X63577Y-46702D01*
X63577Y-46702D01*
G37*
G36*
X61912Y-46686D02*
X61909Y-46697D01*
X61908Y-46698D01*
X61905Y-46704D01*
X61899Y-46712D01*
X61891Y-46720D01*
X61883Y-46728D01*
X61875Y-46735D01*
X61869Y-46741D01*
X61865Y-46743D01*
X61859Y-46746D01*
X61855Y-46746D01*
X61851Y-46744D01*
X61849Y-46743D01*
X61845Y-46738D01*
X61841Y-46730D01*
X61838Y-46720D01*
X61835Y-46710D01*
X61834Y-46702D01*
X61834Y-46696D01*
X61835Y-46691D01*
X61837Y-46684D01*
X61840Y-46675D01*
X61842Y-46671D01*
X61850Y-46650D01*
X61864Y-46643D01*
X61872Y-46640D01*
X61879Y-46637D01*
X61885Y-46636D01*
X61892Y-46638D01*
X61899Y-46644D01*
X61905Y-46655D01*
X61907Y-46660D01*
X61911Y-46673D01*
X61912Y-46686D01*
X61912Y-46686D01*
X61912Y-46686D01*
G37*
G54D19*
X64823Y-45966D02*
X64842Y-45985D01*
X64861Y-46042D01*
X64861Y-46080D01*
X64842Y-46138D01*
X64804Y-46176D01*
X64766Y-46195D01*
X64690Y-46214D01*
X64633Y-46214D01*
X64557Y-46195D01*
X64519Y-46176D01*
X64480Y-46138D01*
X64461Y-46080D01*
X64461Y-46042D01*
X64480Y-45985D01*
X64500Y-45966D01*
X64595Y-45623D02*
X64861Y-45623D01*
X64442Y-45719D02*
X64728Y-45814D01*
X64728Y-45566D01*
X64823Y-48166D02*
X64842Y-48185D01*
X64861Y-48242D01*
X64861Y-48280D01*
X64842Y-48338D01*
X64804Y-48376D01*
X64766Y-48395D01*
X64690Y-48414D01*
X64633Y-48414D01*
X64557Y-48395D01*
X64519Y-48376D01*
X64480Y-48338D01*
X64461Y-48280D01*
X64461Y-48242D01*
X64480Y-48185D01*
X64500Y-48166D01*
X64461Y-47804D02*
X64461Y-47995D01*
X64652Y-48014D01*
X64633Y-47995D01*
X64614Y-47957D01*
X64614Y-47861D01*
X64633Y-47823D01*
X64652Y-47804D01*
X64690Y-47785D01*
X64785Y-47785D01*
X64823Y-47804D01*
X64842Y-47823D01*
X64861Y-47861D01*
X64861Y-47957D01*
X64842Y-47995D01*
X64823Y-48014D01*
X64823Y-50366D02*
X64842Y-50385D01*
X64861Y-50442D01*
X64861Y-50480D01*
X64842Y-50538D01*
X64804Y-50576D01*
X64766Y-50595D01*
X64690Y-50614D01*
X64633Y-50614D01*
X64557Y-50595D01*
X64519Y-50576D01*
X64480Y-50538D01*
X64461Y-50480D01*
X64461Y-50442D01*
X64480Y-50385D01*
X64500Y-50366D01*
X64461Y-50023D02*
X64461Y-50099D01*
X64480Y-50138D01*
X64500Y-50157D01*
X64557Y-50195D01*
X64633Y-50214D01*
X64785Y-50214D01*
X64823Y-50195D01*
X64842Y-50176D01*
X64861Y-50138D01*
X64861Y-50061D01*
X64842Y-50023D01*
X64823Y-50004D01*
X64785Y-49985D01*
X64690Y-49985D01*
X64652Y-50004D01*
X64633Y-50023D01*
X64614Y-50061D01*
X64614Y-50138D01*
X64633Y-50176D01*
X64652Y-50195D01*
X64690Y-50214D01*
X66683Y-34973D02*
X66664Y-34992D01*
X66607Y-35011D01*
X66569Y-35011D01*
X66511Y-34992D01*
X66473Y-34954D01*
X66454Y-34916D01*
X66435Y-34840D01*
X66435Y-34783D01*
X66454Y-34707D01*
X66473Y-34669D01*
X66511Y-34630D01*
X66569Y-34611D01*
X66607Y-34611D01*
X66664Y-34630D01*
X66683Y-34650D01*
X66873Y-35011D02*
X66950Y-35011D01*
X66988Y-34992D01*
X67007Y-34973D01*
X67045Y-34916D01*
X67064Y-34840D01*
X67064Y-34688D01*
X67045Y-34650D01*
X67026Y-34630D01*
X66988Y-34611D01*
X66911Y-34611D01*
X66873Y-34630D01*
X66854Y-34650D01*
X66835Y-34688D01*
X66835Y-34783D01*
X66854Y-34821D01*
X66873Y-34840D01*
X66911Y-34859D01*
X66988Y-34859D01*
X67026Y-34840D01*
X67045Y-34821D01*
X67064Y-34783D01*
X47072Y-49421D02*
X46810Y-49588D01*
X47072Y-49707D02*
X46522Y-49707D01*
X46522Y-49516D01*
X46548Y-49469D01*
X46575Y-49445D01*
X46627Y-49421D01*
X46705Y-49421D01*
X46758Y-49445D01*
X46784Y-49469D01*
X46810Y-49516D01*
X46810Y-49707D01*
X47072Y-48945D02*
X47072Y-49230D01*
X47072Y-49088D02*
X46522Y-49088D01*
X46601Y-49135D01*
X46653Y-49183D01*
X46679Y-49230D01*
X46522Y-48778D02*
X46522Y-48469D01*
X46732Y-48635D01*
X46732Y-48564D01*
X46758Y-48516D01*
X46784Y-48492D01*
X46836Y-48469D01*
X46967Y-48469D01*
X47020Y-48492D01*
X47046Y-48516D01*
X47072Y-48564D01*
X47072Y-48707D01*
X47046Y-48754D01*
X47020Y-48778D01*
X71966Y-44472D02*
X71800Y-44210D01*
X71680Y-44472D02*
X71680Y-43922D01*
X71871Y-43922D01*
X71919Y-43948D01*
X71942Y-43975D01*
X71966Y-44027D01*
X71966Y-44105D01*
X71942Y-44158D01*
X71919Y-44184D01*
X71871Y-44210D01*
X71680Y-44210D01*
X72419Y-43922D02*
X72180Y-43922D01*
X72157Y-44184D01*
X72180Y-44158D01*
X72228Y-44132D01*
X72347Y-44132D01*
X72395Y-44158D01*
X72419Y-44184D01*
X72442Y-44236D01*
X72442Y-44367D01*
X72419Y-44420D01*
X72395Y-44446D01*
X72347Y-44472D01*
X72228Y-44472D01*
X72180Y-44446D01*
X72157Y-44420D01*
X68066Y-44472D02*
X67900Y-44210D01*
X67780Y-44472D02*
X67780Y-43922D01*
X67971Y-43922D01*
X68019Y-43948D01*
X68042Y-43975D01*
X68066Y-44027D01*
X68066Y-44105D01*
X68042Y-44158D01*
X68019Y-44184D01*
X67971Y-44210D01*
X67780Y-44210D01*
X68495Y-43922D02*
X68400Y-43922D01*
X68352Y-43948D01*
X68328Y-43975D01*
X68280Y-44053D01*
X68257Y-44158D01*
X68257Y-44367D01*
X68280Y-44420D01*
X68304Y-44446D01*
X68352Y-44472D01*
X68447Y-44472D01*
X68495Y-44446D01*
X68519Y-44420D01*
X68542Y-44367D01*
X68542Y-44236D01*
X68519Y-44184D01*
X68495Y-44158D01*
X68447Y-44132D01*
X68352Y-44132D01*
X68304Y-44158D01*
X68280Y-44184D01*
X68257Y-44236D01*
X71966Y-46672D02*
X71800Y-46410D01*
X71680Y-46672D02*
X71680Y-46122D01*
X71871Y-46122D01*
X71919Y-46148D01*
X71942Y-46175D01*
X71966Y-46227D01*
X71966Y-46305D01*
X71942Y-46358D01*
X71919Y-46384D01*
X71871Y-46410D01*
X71680Y-46410D01*
X72133Y-46122D02*
X72466Y-46122D01*
X72252Y-46672D01*
X68066Y-42272D02*
X67900Y-42010D01*
X67780Y-42272D02*
X67780Y-41722D01*
X67971Y-41722D01*
X68019Y-41748D01*
X68042Y-41775D01*
X68066Y-41827D01*
X68066Y-41905D01*
X68042Y-41958D01*
X68019Y-41984D01*
X67971Y-42010D01*
X67780Y-42010D01*
X68495Y-41905D02*
X68495Y-42272D01*
X68376Y-41696D02*
X68257Y-42089D01*
X68566Y-42089D01*
X71966Y-42272D02*
X71800Y-42010D01*
X71680Y-42272D02*
X71680Y-41722D01*
X71871Y-41722D01*
X71919Y-41748D01*
X71942Y-41775D01*
X71966Y-41827D01*
X71966Y-41905D01*
X71942Y-41958D01*
X71919Y-41984D01*
X71871Y-42010D01*
X71680Y-42010D01*
X72133Y-41722D02*
X72442Y-41722D01*
X72276Y-41932D01*
X72347Y-41932D01*
X72395Y-41958D01*
X72419Y-41984D01*
X72442Y-42036D01*
X72442Y-42167D01*
X72419Y-42220D01*
X72395Y-42246D01*
X72347Y-42272D01*
X72204Y-42272D01*
X72157Y-42246D01*
X72133Y-42220D01*
X68066Y-46672D02*
X67900Y-46410D01*
X67780Y-46672D02*
X67780Y-46122D01*
X67971Y-46122D01*
X68019Y-46148D01*
X68042Y-46175D01*
X68066Y-46227D01*
X68066Y-46305D01*
X68042Y-46358D01*
X68019Y-46384D01*
X67971Y-46410D01*
X67780Y-46410D01*
X68352Y-46358D02*
X68304Y-46332D01*
X68280Y-46305D01*
X68257Y-46253D01*
X68257Y-46227D01*
X68280Y-46175D01*
X68304Y-46148D01*
X68352Y-46122D01*
X68447Y-46122D01*
X68495Y-46148D01*
X68519Y-46175D01*
X68542Y-46227D01*
X68542Y-46253D01*
X68519Y-46305D01*
X68495Y-46332D01*
X68447Y-46358D01*
X68352Y-46358D01*
X68304Y-46384D01*
X68280Y-46410D01*
X68257Y-46463D01*
X68257Y-46567D01*
X68280Y-46620D01*
X68304Y-46646D01*
X68352Y-46672D01*
X68447Y-46672D01*
X68495Y-46646D01*
X68519Y-46620D01*
X68542Y-46567D01*
X68542Y-46463D01*
X68519Y-46410D01*
X68495Y-46384D01*
X68447Y-46358D01*
X67828Y-48872D02*
X67661Y-48610D01*
X67542Y-48872D02*
X67542Y-48322D01*
X67733Y-48322D01*
X67780Y-48348D01*
X67804Y-48375D01*
X67828Y-48427D01*
X67828Y-48505D01*
X67804Y-48558D01*
X67780Y-48584D01*
X67733Y-48610D01*
X67542Y-48610D01*
X68304Y-48872D02*
X68019Y-48872D01*
X68161Y-48872D02*
X68161Y-48322D01*
X68114Y-48401D01*
X68066Y-48453D01*
X68019Y-48479D01*
X68614Y-48322D02*
X68661Y-48322D01*
X68709Y-48348D01*
X68733Y-48375D01*
X68757Y-48427D01*
X68780Y-48532D01*
X68780Y-48663D01*
X68757Y-48767D01*
X68733Y-48820D01*
X68709Y-48846D01*
X68661Y-48872D01*
X68614Y-48872D01*
X68566Y-48846D01*
X68542Y-48820D01*
X68519Y-48767D01*
X68495Y-48663D01*
X68495Y-48532D01*
X68519Y-48427D01*
X68542Y-48375D01*
X68566Y-48348D01*
X68614Y-48322D01*
X68066Y-40072D02*
X67900Y-39810D01*
X67780Y-40072D02*
X67780Y-39522D01*
X67971Y-39522D01*
X68019Y-39548D01*
X68042Y-39575D01*
X68066Y-39627D01*
X68066Y-39705D01*
X68042Y-39758D01*
X68019Y-39784D01*
X67971Y-39810D01*
X67780Y-39810D01*
X68257Y-39575D02*
X68280Y-39548D01*
X68328Y-39522D01*
X68447Y-39522D01*
X68495Y-39548D01*
X68519Y-39575D01*
X68542Y-39627D01*
X68542Y-39679D01*
X68519Y-39758D01*
X68233Y-40072D01*
X68542Y-40072D01*
X71966Y-40072D02*
X71800Y-39810D01*
X71680Y-40072D02*
X71680Y-39522D01*
X71871Y-39522D01*
X71919Y-39548D01*
X71942Y-39575D01*
X71966Y-39627D01*
X71966Y-39705D01*
X71942Y-39758D01*
X71919Y-39784D01*
X71871Y-39810D01*
X71680Y-39810D01*
X72442Y-40072D02*
X72157Y-40072D01*
X72300Y-40072D02*
X72300Y-39522D01*
X72252Y-39601D01*
X72204Y-39653D01*
X72157Y-39679D01*
X71728Y-51072D02*
X71561Y-50810D01*
X71442Y-51072D02*
X71442Y-50522D01*
X71633Y-50522D01*
X71680Y-50548D01*
X71704Y-50575D01*
X71728Y-50627D01*
X71728Y-50705D01*
X71704Y-50758D01*
X71680Y-50784D01*
X71633Y-50810D01*
X71442Y-50810D01*
X72204Y-51072D02*
X71919Y-51072D01*
X72061Y-51072D02*
X72061Y-50522D01*
X72014Y-50601D01*
X71966Y-50653D01*
X71919Y-50679D01*
X72680Y-51072D02*
X72395Y-51072D01*
X72538Y-51072D02*
X72538Y-50522D01*
X72490Y-50601D01*
X72442Y-50653D01*
X72395Y-50679D01*
X67828Y-51072D02*
X67661Y-50810D01*
X67542Y-51072D02*
X67542Y-50522D01*
X67733Y-50522D01*
X67780Y-50548D01*
X67804Y-50575D01*
X67828Y-50627D01*
X67828Y-50705D01*
X67804Y-50758D01*
X67780Y-50784D01*
X67733Y-50810D01*
X67542Y-50810D01*
X68304Y-51072D02*
X68019Y-51072D01*
X68161Y-51072D02*
X68161Y-50522D01*
X68114Y-50601D01*
X68066Y-50653D01*
X68019Y-50679D01*
X68495Y-50575D02*
X68519Y-50548D01*
X68566Y-50522D01*
X68685Y-50522D01*
X68733Y-50548D01*
X68757Y-50575D01*
X68780Y-50627D01*
X68780Y-50679D01*
X68757Y-50758D01*
X68471Y-51072D01*
X68780Y-51072D01*
X71966Y-48872D02*
X71800Y-48610D01*
X71680Y-48872D02*
X71680Y-48322D01*
X71871Y-48322D01*
X71919Y-48348D01*
X71942Y-48375D01*
X71966Y-48427D01*
X71966Y-48505D01*
X71942Y-48558D01*
X71919Y-48584D01*
X71871Y-48610D01*
X71680Y-48610D01*
X72204Y-48872D02*
X72300Y-48872D01*
X72347Y-48846D01*
X72371Y-48820D01*
X72419Y-48741D01*
X72442Y-48636D01*
X72442Y-48427D01*
X72419Y-48375D01*
X72395Y-48348D01*
X72347Y-48322D01*
X72252Y-48322D01*
X72204Y-48348D01*
X72180Y-48375D01*
X72157Y-48427D01*
X72157Y-48558D01*
X72180Y-48610D01*
X72204Y-48636D01*
X72252Y-48663D01*
X72347Y-48663D01*
X72395Y-48636D01*
X72419Y-48610D01*
X72442Y-48558D01*
X49972Y-49021D02*
X49710Y-49188D01*
X49972Y-49307D02*
X49422Y-49307D01*
X49422Y-49116D01*
X49448Y-49069D01*
X49475Y-49045D01*
X49527Y-49021D01*
X49605Y-49021D01*
X49658Y-49045D01*
X49684Y-49069D01*
X49710Y-49116D01*
X49710Y-49307D01*
X49972Y-48545D02*
X49972Y-48830D01*
X49972Y-48688D02*
X49422Y-48688D01*
X49501Y-48735D01*
X49553Y-48783D01*
X49579Y-48830D01*
X49605Y-48116D02*
X49972Y-48116D01*
X49396Y-48235D02*
X49789Y-48354D01*
X49789Y-48045D01*
X50178Y-44772D02*
X50011Y-44510D01*
X49892Y-44772D02*
X49892Y-44222D01*
X50083Y-44222D01*
X50130Y-44248D01*
X50154Y-44275D01*
X50178Y-44327D01*
X50178Y-44405D01*
X50154Y-44458D01*
X50130Y-44484D01*
X50083Y-44510D01*
X49892Y-44510D01*
X50654Y-44772D02*
X50369Y-44772D01*
X50511Y-44772D02*
X50511Y-44222D01*
X50464Y-44301D01*
X50416Y-44353D01*
X50369Y-44379D01*
X51107Y-44222D02*
X50869Y-44222D01*
X50845Y-44484D01*
X50869Y-44458D01*
X50916Y-44432D01*
X51035Y-44432D01*
X51083Y-44458D01*
X51107Y-44484D01*
X51130Y-44536D01*
X51130Y-44667D01*
X51107Y-44720D01*
X51083Y-44746D01*
X51035Y-44772D01*
X50916Y-44772D01*
X50869Y-44746D01*
X50845Y-44720D01*
X64823Y-43766D02*
X64842Y-43785D01*
X64861Y-43842D01*
X64861Y-43880D01*
X64842Y-43938D01*
X64804Y-43976D01*
X64766Y-43995D01*
X64690Y-44014D01*
X64633Y-44014D01*
X64557Y-43995D01*
X64519Y-43976D01*
X64480Y-43938D01*
X64461Y-43880D01*
X64461Y-43842D01*
X64480Y-43785D01*
X64500Y-43766D01*
X64461Y-43633D02*
X64461Y-43385D01*
X64614Y-43519D01*
X64614Y-43461D01*
X64633Y-43423D01*
X64652Y-43404D01*
X64690Y-43385D01*
X64785Y-43385D01*
X64823Y-43404D01*
X64842Y-43423D01*
X64861Y-43461D01*
X64861Y-43576D01*
X64842Y-43614D01*
X64823Y-43633D01*
X40823Y-52257D02*
X40842Y-52276D01*
X40861Y-52333D01*
X40861Y-52371D01*
X40842Y-52428D01*
X40804Y-52466D01*
X40766Y-52485D01*
X40690Y-52504D01*
X40633Y-52504D01*
X40557Y-52485D01*
X40519Y-52466D01*
X40480Y-52428D01*
X40461Y-52371D01*
X40461Y-52333D01*
X40480Y-52276D01*
X40500Y-52257D01*
X40861Y-51876D02*
X40861Y-52104D01*
X40861Y-51990D02*
X40461Y-51990D01*
X40519Y-52028D01*
X40557Y-52066D01*
X40576Y-52104D01*
X40461Y-51628D02*
X40461Y-51590D01*
X40480Y-51552D01*
X40500Y-51533D01*
X40538Y-51514D01*
X40614Y-51495D01*
X40709Y-51495D01*
X40785Y-51514D01*
X40823Y-51533D01*
X40842Y-51552D01*
X40861Y-51590D01*
X40861Y-51628D01*
X40842Y-51666D01*
X40823Y-51685D01*
X40785Y-51704D01*
X40709Y-51723D01*
X40614Y-51723D01*
X40538Y-51704D01*
X40500Y-51685D01*
X40480Y-51666D01*
X40461Y-51628D01*
X64823Y-41566D02*
X64842Y-41585D01*
X64861Y-41642D01*
X64861Y-41680D01*
X64842Y-41738D01*
X64804Y-41776D01*
X64766Y-41795D01*
X64690Y-41814D01*
X64633Y-41814D01*
X64557Y-41795D01*
X64519Y-41776D01*
X64480Y-41738D01*
X64461Y-41680D01*
X64461Y-41642D01*
X64480Y-41585D01*
X64500Y-41566D01*
X64500Y-41414D02*
X64480Y-41395D01*
X64461Y-41357D01*
X64461Y-41261D01*
X64480Y-41223D01*
X64500Y-41204D01*
X64538Y-41185D01*
X64576Y-41185D01*
X64633Y-41204D01*
X64861Y-41433D01*
X64861Y-41185D01*
X64823Y-39366D02*
X64842Y-39385D01*
X64861Y-39442D01*
X64861Y-39480D01*
X64842Y-39538D01*
X64804Y-39576D01*
X64766Y-39595D01*
X64690Y-39614D01*
X64633Y-39614D01*
X64557Y-39595D01*
X64519Y-39576D01*
X64480Y-39538D01*
X64461Y-39480D01*
X64461Y-39442D01*
X64480Y-39385D01*
X64500Y-39366D01*
X64861Y-38985D02*
X64861Y-39214D01*
X64861Y-39099D02*
X64461Y-39099D01*
X64519Y-39138D01*
X64557Y-39176D01*
X64576Y-39214D01*
X70433Y-35073D02*
X70414Y-35092D01*
X70357Y-35111D01*
X70319Y-35111D01*
X70261Y-35092D01*
X70223Y-35054D01*
X70204Y-35016D01*
X70185Y-34940D01*
X70185Y-34883D01*
X70204Y-34807D01*
X70223Y-34769D01*
X70261Y-34730D01*
X70319Y-34711D01*
X70357Y-34711D01*
X70414Y-34730D01*
X70433Y-34750D01*
X70566Y-34711D02*
X70833Y-34711D01*
X70661Y-35111D01*
X45573Y-49566D02*
X45592Y-49585D01*
X45611Y-49642D01*
X45611Y-49680D01*
X45592Y-49738D01*
X45554Y-49776D01*
X45516Y-49795D01*
X45440Y-49814D01*
X45383Y-49814D01*
X45307Y-49795D01*
X45269Y-49776D01*
X45230Y-49738D01*
X45211Y-49680D01*
X45211Y-49642D01*
X45230Y-49585D01*
X45250Y-49566D01*
X45383Y-49338D02*
X45364Y-49376D01*
X45345Y-49395D01*
X45307Y-49414D01*
X45288Y-49414D01*
X45250Y-49395D01*
X45230Y-49376D01*
X45211Y-49338D01*
X45211Y-49261D01*
X45230Y-49223D01*
X45250Y-49204D01*
X45288Y-49185D01*
X45307Y-49185D01*
X45345Y-49204D01*
X45364Y-49223D01*
X45383Y-49261D01*
X45383Y-49338D01*
X45402Y-49376D01*
X45421Y-49395D01*
X45459Y-49414D01*
X45535Y-49414D01*
X45573Y-49395D01*
X45592Y-49376D01*
X45611Y-49338D01*
X45611Y-49261D01*
X45592Y-49223D01*
X45573Y-49204D01*
X45535Y-49185D01*
X45459Y-49185D01*
X45421Y-49204D01*
X45402Y-49223D01*
X45383Y-49261D01*
X71754Y-41061D02*
X71754Y-40661D01*
X71850Y-40661D01*
X71907Y-40680D01*
X71945Y-40719D01*
X71964Y-40757D01*
X71983Y-40833D01*
X71983Y-40890D01*
X71964Y-40966D01*
X71945Y-41004D01*
X71907Y-41042D01*
X71850Y-41061D01*
X71754Y-41061D01*
X72326Y-40795D02*
X72326Y-41061D01*
X72230Y-40642D02*
X72135Y-40928D01*
X72383Y-40928D01*
X50014Y-45861D02*
X50014Y-45461D01*
X50109Y-45461D01*
X50166Y-45480D01*
X50204Y-45519D01*
X50223Y-45557D01*
X50242Y-45633D01*
X50242Y-45690D01*
X50223Y-45766D01*
X50204Y-45804D01*
X50166Y-45842D01*
X50109Y-45861D01*
X50014Y-45861D01*
X50623Y-45861D02*
X50395Y-45861D01*
X50509Y-45861D02*
X50509Y-45461D01*
X50471Y-45519D01*
X50433Y-45557D01*
X50395Y-45576D01*
X50985Y-45461D02*
X50795Y-45461D01*
X50776Y-45652D01*
X50795Y-45633D01*
X50833Y-45614D01*
X50928Y-45614D01*
X50966Y-45633D01*
X50985Y-45652D01*
X51004Y-45690D01*
X51004Y-45785D01*
X50985Y-45823D01*
X50966Y-45842D01*
X50928Y-45861D01*
X50833Y-45861D01*
X50795Y-45842D01*
X50776Y-45823D01*
X42211Y-51035D02*
X41811Y-51035D01*
X41811Y-50940D01*
X41830Y-50883D01*
X41869Y-50845D01*
X41907Y-50826D01*
X41983Y-50807D01*
X42040Y-50807D01*
X42116Y-50826D01*
X42154Y-50845D01*
X42192Y-50883D01*
X42211Y-50940D01*
X42211Y-51035D01*
X42211Y-50426D02*
X42211Y-50654D01*
X42211Y-50540D02*
X41811Y-50540D01*
X41869Y-50578D01*
X41907Y-50616D01*
X41926Y-50654D01*
X41945Y-50083D02*
X42211Y-50083D01*
X41792Y-50178D02*
X42078Y-50273D01*
X42078Y-50026D01*
X69814Y-33361D02*
X69814Y-32961D01*
X69909Y-32961D01*
X69966Y-32980D01*
X70004Y-33019D01*
X70023Y-33057D01*
X70042Y-33133D01*
X70042Y-33190D01*
X70023Y-33266D01*
X70004Y-33304D01*
X69966Y-33342D01*
X69909Y-33361D01*
X69814Y-33361D01*
X70423Y-33361D02*
X70195Y-33361D01*
X70309Y-33361D02*
X70309Y-32961D01*
X70271Y-33019D01*
X70233Y-33057D01*
X70195Y-33076D01*
X70557Y-32961D02*
X70804Y-32961D01*
X70671Y-33114D01*
X70728Y-33114D01*
X70766Y-33133D01*
X70785Y-33152D01*
X70804Y-33190D01*
X70804Y-33285D01*
X70785Y-33323D01*
X70766Y-33342D01*
X70728Y-33361D01*
X70614Y-33361D01*
X70576Y-33342D01*
X70557Y-33323D01*
X71564Y-49861D02*
X71564Y-49461D01*
X71659Y-49461D01*
X71716Y-49480D01*
X71754Y-49519D01*
X71773Y-49557D01*
X71792Y-49633D01*
X71792Y-49690D01*
X71773Y-49766D01*
X71754Y-49804D01*
X71716Y-49842D01*
X71659Y-49861D01*
X71564Y-49861D01*
X72173Y-49861D02*
X71945Y-49861D01*
X72059Y-49861D02*
X72059Y-49461D01*
X72021Y-49519D01*
X71983Y-49557D01*
X71945Y-49576D01*
X72326Y-49500D02*
X72345Y-49480D01*
X72383Y-49461D01*
X72478Y-49461D01*
X72516Y-49480D01*
X72535Y-49500D01*
X72554Y-49538D01*
X72554Y-49576D01*
X72535Y-49633D01*
X72307Y-49861D01*
X72554Y-49861D01*
X67664Y-49861D02*
X67664Y-49461D01*
X67759Y-49461D01*
X67816Y-49480D01*
X67854Y-49519D01*
X67873Y-49557D01*
X67892Y-49633D01*
X67892Y-49690D01*
X67873Y-49766D01*
X67854Y-49804D01*
X67816Y-49842D01*
X67759Y-49861D01*
X67664Y-49861D01*
X68273Y-49861D02*
X68045Y-49861D01*
X68159Y-49861D02*
X68159Y-49461D01*
X68121Y-49519D01*
X68083Y-49557D01*
X68045Y-49576D01*
X68654Y-49861D02*
X68426Y-49861D01*
X68540Y-49861D02*
X68540Y-49461D01*
X68502Y-49519D01*
X68464Y-49557D01*
X68426Y-49576D01*
X71564Y-47661D02*
X71564Y-47261D01*
X71659Y-47261D01*
X71716Y-47280D01*
X71754Y-47319D01*
X71773Y-47357D01*
X71792Y-47433D01*
X71792Y-47490D01*
X71773Y-47566D01*
X71754Y-47604D01*
X71716Y-47642D01*
X71659Y-47661D01*
X71564Y-47661D01*
X72173Y-47661D02*
X71945Y-47661D01*
X72059Y-47661D02*
X72059Y-47261D01*
X72021Y-47319D01*
X71983Y-47357D01*
X71945Y-47376D01*
X72421Y-47261D02*
X72459Y-47261D01*
X72497Y-47280D01*
X72516Y-47300D01*
X72535Y-47338D01*
X72554Y-47414D01*
X72554Y-47509D01*
X72535Y-47585D01*
X72516Y-47623D01*
X72497Y-47642D01*
X72459Y-47661D01*
X72421Y-47661D01*
X72383Y-47642D01*
X72364Y-47623D01*
X72345Y-47585D01*
X72326Y-47509D01*
X72326Y-47414D01*
X72345Y-47338D01*
X72364Y-47300D01*
X72383Y-47280D01*
X72421Y-47261D01*
X67854Y-47661D02*
X67854Y-47261D01*
X67950Y-47261D01*
X68007Y-47280D01*
X68045Y-47319D01*
X68064Y-47357D01*
X68083Y-47433D01*
X68083Y-47490D01*
X68064Y-47566D01*
X68045Y-47604D01*
X68007Y-47642D01*
X67950Y-47661D01*
X67854Y-47661D01*
X68273Y-47661D02*
X68350Y-47661D01*
X68388Y-47642D01*
X68407Y-47623D01*
X68445Y-47566D01*
X68464Y-47490D01*
X68464Y-47338D01*
X68445Y-47300D01*
X68426Y-47280D01*
X68388Y-47261D01*
X68311Y-47261D01*
X68273Y-47280D01*
X68254Y-47300D01*
X68235Y-47338D01*
X68235Y-47433D01*
X68254Y-47471D01*
X68273Y-47490D01*
X68311Y-47509D01*
X68388Y-47509D01*
X68426Y-47490D01*
X68445Y-47471D01*
X68464Y-47433D01*
X67854Y-38861D02*
X67854Y-38461D01*
X67950Y-38461D01*
X68007Y-38480D01*
X68045Y-38519D01*
X68064Y-38557D01*
X68083Y-38633D01*
X68083Y-38690D01*
X68064Y-38766D01*
X68045Y-38804D01*
X68007Y-38842D01*
X67950Y-38861D01*
X67854Y-38861D01*
X68464Y-38861D02*
X68235Y-38861D01*
X68350Y-38861D02*
X68350Y-38461D01*
X68311Y-38519D01*
X68273Y-38557D01*
X68235Y-38576D01*
X71754Y-45461D02*
X71754Y-45061D01*
X71850Y-45061D01*
X71907Y-45080D01*
X71945Y-45119D01*
X71964Y-45157D01*
X71983Y-45233D01*
X71983Y-45290D01*
X71964Y-45366D01*
X71945Y-45404D01*
X71907Y-45442D01*
X71850Y-45461D01*
X71754Y-45461D01*
X72211Y-45233D02*
X72173Y-45214D01*
X72154Y-45195D01*
X72135Y-45157D01*
X72135Y-45138D01*
X72154Y-45100D01*
X72173Y-45080D01*
X72211Y-45061D01*
X72288Y-45061D01*
X72326Y-45080D01*
X72345Y-45100D01*
X72364Y-45138D01*
X72364Y-45157D01*
X72345Y-45195D01*
X72326Y-45214D01*
X72288Y-45233D01*
X72211Y-45233D01*
X72173Y-45252D01*
X72154Y-45271D01*
X72135Y-45309D01*
X72135Y-45385D01*
X72154Y-45423D01*
X72173Y-45442D01*
X72211Y-45461D01*
X72288Y-45461D01*
X72326Y-45442D01*
X72345Y-45423D01*
X72364Y-45385D01*
X72364Y-45309D01*
X72345Y-45271D01*
X72326Y-45252D01*
X72288Y-45233D01*
X67854Y-45461D02*
X67854Y-45061D01*
X67950Y-45061D01*
X68007Y-45080D01*
X68045Y-45119D01*
X68064Y-45157D01*
X68083Y-45233D01*
X68083Y-45290D01*
X68064Y-45366D01*
X68045Y-45404D01*
X68007Y-45442D01*
X67950Y-45461D01*
X67854Y-45461D01*
X68216Y-45061D02*
X68483Y-45061D01*
X68311Y-45461D01*
X71754Y-38861D02*
X71754Y-38461D01*
X71850Y-38461D01*
X71907Y-38480D01*
X71945Y-38519D01*
X71964Y-38557D01*
X71983Y-38633D01*
X71983Y-38690D01*
X71964Y-38766D01*
X71945Y-38804D01*
X71907Y-38842D01*
X71850Y-38861D01*
X71754Y-38861D01*
X72135Y-38500D02*
X72154Y-38480D01*
X72192Y-38461D01*
X72288Y-38461D01*
X72326Y-38480D01*
X72345Y-38500D01*
X72364Y-38538D01*
X72364Y-38576D01*
X72345Y-38633D01*
X72116Y-38861D01*
X72364Y-38861D01*
X67854Y-41061D02*
X67854Y-40661D01*
X67950Y-40661D01*
X68007Y-40680D01*
X68045Y-40719D01*
X68064Y-40757D01*
X68083Y-40833D01*
X68083Y-40890D01*
X68064Y-40966D01*
X68045Y-41004D01*
X68007Y-41042D01*
X67950Y-41061D01*
X67854Y-41061D01*
X68216Y-40661D02*
X68464Y-40661D01*
X68330Y-40814D01*
X68388Y-40814D01*
X68426Y-40833D01*
X68445Y-40852D01*
X68464Y-40890D01*
X68464Y-40985D01*
X68445Y-41023D01*
X68426Y-41042D01*
X68388Y-41061D01*
X68273Y-41061D01*
X68235Y-41042D01*
X68216Y-41023D01*
X71754Y-43261D02*
X71754Y-42861D01*
X71850Y-42861D01*
X71907Y-42880D01*
X71945Y-42919D01*
X71964Y-42957D01*
X71983Y-43033D01*
X71983Y-43090D01*
X71964Y-43166D01*
X71945Y-43204D01*
X71907Y-43242D01*
X71850Y-43261D01*
X71754Y-43261D01*
X72326Y-42861D02*
X72250Y-42861D01*
X72211Y-42880D01*
X72192Y-42900D01*
X72154Y-42957D01*
X72135Y-43033D01*
X72135Y-43185D01*
X72154Y-43223D01*
X72173Y-43242D01*
X72211Y-43261D01*
X72288Y-43261D01*
X72326Y-43242D01*
X72345Y-43223D01*
X72364Y-43185D01*
X72364Y-43090D01*
X72345Y-43052D01*
X72326Y-43033D01*
X72288Y-43014D01*
X72211Y-43014D01*
X72173Y-43033D01*
X72154Y-43052D01*
X72135Y-43090D01*
X67854Y-43261D02*
X67854Y-42861D01*
X67950Y-42861D01*
X68007Y-42880D01*
X68045Y-42919D01*
X68064Y-42957D01*
X68083Y-43033D01*
X68083Y-43090D01*
X68064Y-43166D01*
X68045Y-43204D01*
X68007Y-43242D01*
X67950Y-43261D01*
X67854Y-43261D01*
X68445Y-42861D02*
X68254Y-42861D01*
X68235Y-43052D01*
X68254Y-43033D01*
X68292Y-43014D01*
X68388Y-43014D01*
X68426Y-43033D01*
X68445Y-43052D01*
X68464Y-43090D01*
X68464Y-43185D01*
X68445Y-43223D01*
X68426Y-43242D01*
X68388Y-43261D01*
X68292Y-43261D01*
X68254Y-43242D01*
X68235Y-43223D01*
%LPC*%
G54D21*
X67100Y-32325D03*
X67100Y-33325D03*
X66100Y-32325D03*
X66100Y-33325D03*
X65100Y-32325D03*
X65100Y-33325D03*
X64100Y-32325D03*
X64100Y-33325D03*
X63100Y-32325D03*
X63100Y-33325D03*
X62100Y-32325D03*
X62100Y-33325D03*
X61100Y-32325D03*
X61100Y-33325D03*
X60100Y-32325D03*
X60100Y-33325D03*
X59100Y-32325D03*
X59100Y-33325D03*
X58100Y-32325D03*
X58100Y-33325D03*
X57100Y-32325D03*
X57100Y-33325D03*
X56100Y-32325D03*
X56100Y-33325D03*
X55100Y-32325D03*
X55100Y-33325D03*
X54100Y-32325D03*
X54100Y-33325D03*
X53100Y-32325D03*
X53100Y-33325D03*
X52100Y-32325D03*
X52100Y-33325D03*
X51100Y-32325D03*
X51100Y-33325D03*
X50100Y-32325D03*
X50100Y-33325D03*
X49100Y-32325D03*
X49100Y-33325D03*
X48100Y-32325D03*
X48100Y-33325D03*
X47100Y-32325D03*
X47100Y-33325D03*
X46100Y-32325D03*
X46100Y-33325D03*
X45100Y-32325D03*
X45100Y-33325D03*
X44100Y-32325D03*
X44100Y-33325D03*
X43100Y-32325D03*
X43100Y-33325D03*
G54D22*
X44100Y-44500D03*
X46100Y-44500D03*
G54D21*
X38300Y-34500D03*
X39300Y-34500D03*
X40300Y-34500D03*
X38300Y-35500D03*
X39300Y-35500D03*
X40300Y-35500D03*
X38300Y-36500D03*
X39300Y-36500D03*
X40300Y-36500D03*
X38300Y-37500D03*
X39300Y-37500D03*
X40300Y-37500D03*
X38300Y-38500D03*
X39300Y-38500D03*
X40300Y-38500D03*
X38300Y-39500D03*
X39300Y-39500D03*
X40300Y-39500D03*
X38300Y-40500D03*
X39300Y-40500D03*
X40300Y-40500D03*
X38300Y-41500D03*
X39300Y-41500D03*
X40300Y-41500D03*
X38300Y-42500D03*
X39300Y-42500D03*
X40300Y-42500D03*
X38300Y-43500D03*
X39300Y-43500D03*
X40300Y-43500D03*
X38300Y-44500D03*
X39300Y-44500D03*
X40300Y-44500D03*
X38300Y-45500D03*
X39300Y-45500D03*
X40300Y-45500D03*
X38300Y-46500D03*
X39300Y-46500D03*
X40300Y-46500D03*
X38300Y-47500D03*
X39300Y-47500D03*
X40300Y-47500D03*
X38300Y-48500D03*
X39300Y-48500D03*
X40300Y-48500D03*
X57000Y-42000D03*
X57000Y-41000D03*
X57000Y-43000D03*
X57000Y-44000D03*
X57000Y-45000D03*
X67100Y-52325D03*
X67100Y-53325D03*
X66100Y-52325D03*
X66100Y-53325D03*
X65100Y-52325D03*
X65100Y-53325D03*
X64100Y-52325D03*
X64100Y-53325D03*
X63100Y-52325D03*
X63100Y-53325D03*
X62100Y-52325D03*
X62100Y-53325D03*
X61100Y-52325D03*
X61100Y-53325D03*
X60100Y-52325D03*
X60100Y-53325D03*
X59100Y-52325D03*
X59100Y-53325D03*
X58100Y-52325D03*
X58100Y-53325D03*
X57100Y-52325D03*
X57100Y-53325D03*
X56100Y-52325D03*
X56100Y-53325D03*
X55100Y-52325D03*
X55100Y-53325D03*
X54100Y-52325D03*
X54100Y-53325D03*
X53100Y-52325D03*
X53100Y-53325D03*
X52100Y-52325D03*
X52100Y-53325D03*
X51100Y-52325D03*
X51100Y-53325D03*
X50100Y-52325D03*
X50100Y-53325D03*
X49100Y-52325D03*
X49100Y-53325D03*
X48100Y-52325D03*
X48100Y-53325D03*
X47100Y-52325D03*
X47100Y-53325D03*
X46100Y-52325D03*
X46100Y-53325D03*
X45100Y-52325D03*
X45100Y-53325D03*
X44100Y-52325D03*
X44100Y-53325D03*
X43100Y-52325D03*
X43100Y-53325D03*
G54D23*
X74950Y-39100D03*
G54D24*
X74950Y-40100D03*
X74950Y-41100D03*
X74950Y-42100D03*
X74950Y-43100D03*
X74950Y-44100D03*
X74950Y-45100D03*
X74950Y-46100D03*
X74950Y-47100D03*
X74950Y-48100D03*
X74950Y-49100D03*
X74950Y-50100D03*
G54D25*
X47800Y-55100D03*
G54D26*
X46800Y-55100D03*
X45800Y-55100D03*
X44800Y-55100D03*
G54D25*
X53800Y-30550D03*
G54D26*
X52800Y-30550D03*
X51800Y-30550D03*
X50800Y-30550D03*
G54D25*
X59800Y-55100D03*
G54D26*
X58800Y-55100D03*
X57800Y-55100D03*
X56800Y-55100D03*
G54D25*
X43800Y-55100D03*
G54D26*
X42800Y-55100D03*
X41800Y-55100D03*
X40800Y-55100D03*
G54D25*
X51800Y-55100D03*
G54D26*
X50800Y-55100D03*
X49800Y-55100D03*
X48800Y-55100D03*
G54D25*
X63800Y-55100D03*
G54D26*
X62800Y-55100D03*
X61800Y-55100D03*
X60800Y-55100D03*
G54D25*
X43800Y-30550D03*
G54D26*
X42800Y-30550D03*
X41800Y-30550D03*
X40800Y-30550D03*
G54D25*
X67800Y-55100D03*
G54D26*
X66800Y-55100D03*
X65800Y-55100D03*
X64800Y-55100D03*
G54D25*
X55800Y-55100D03*
G54D26*
X54800Y-55100D03*
X53800Y-55100D03*
X52800Y-55100D03*
G54D25*
X59800Y-30550D03*
G54D26*
X58800Y-30550D03*
X57800Y-30550D03*
X56800Y-30550D03*
X55800Y-30550D03*
X54800Y-30550D03*
G54D25*
X65800Y-30550D03*
G54D26*
X64800Y-30550D03*
X63800Y-30550D03*
X62800Y-30550D03*
X61800Y-30550D03*
X60800Y-30550D03*
G54D25*
X49800Y-30550D03*
G54D26*
X48800Y-30550D03*
X47800Y-30550D03*
X46800Y-30550D03*
X45800Y-30550D03*
X44800Y-30550D03*
G54D27*
X38750Y-50300D03*
G54D28*
X38750Y-52300D03*
G54D24*
X65600Y-45400D03*
X65600Y-46400D03*
G54D29*
X38550Y-54850D03*
X38550Y-30800D03*
X74400Y-30800D03*
X74400Y-54850D03*
G54D28*
X71879Y-52414D03*
X69320Y-52414D03*
X69320Y-54185D03*
X71879Y-54185D03*
G54D27*
X74200Y-37050D03*
G54D28*
X74200Y-35050D03*
X74200Y-33050D03*
G54D24*
X65600Y-47600D03*
X65600Y-48600D03*
X65600Y-49800D03*
X65600Y-50800D03*
X67800Y-34900D03*
X67800Y-35900D03*
X46800Y-50600D03*
X46800Y-47600D03*
X73550Y-44200D03*
X70550Y-44200D03*
X69650Y-44200D03*
X66650Y-44200D03*
X73550Y-46400D03*
X70550Y-46400D03*
X69650Y-42000D03*
X66650Y-42000D03*
X73550Y-42000D03*
X70550Y-42000D03*
X69650Y-46400D03*
X66650Y-46400D03*
X69650Y-48600D03*
X66650Y-48600D03*
X69650Y-39800D03*
X66650Y-39800D03*
X73550Y-39800D03*
X70550Y-39800D03*
X73550Y-50800D03*
X70550Y-50800D03*
X69650Y-50800D03*
X66650Y-50800D03*
X73550Y-48600D03*
X70550Y-48600D03*
X49700Y-50200D03*
X49700Y-47200D03*
X49000Y-44500D03*
X52000Y-44500D03*
G54D28*
X71300Y-31000D03*
X69300Y-31000D03*
G54D10*
G36*
X51938Y-46900D02*
X51492Y-47345D01*
X51047Y-46900D01*
X51492Y-46454D01*
X51938Y-46900D01*
X51938Y-46900D01*
G37*
G54D24*
X52200Y-47607D03*
X52907Y-46900D03*
X65600Y-43200D03*
X65600Y-44200D03*
X40950Y-50800D03*
X40950Y-49800D03*
X65600Y-41000D03*
X65600Y-42000D03*
X65600Y-38800D03*
X65600Y-39800D03*
G54D30*
X71500Y-35950D03*
G54D22*
X69500Y-35950D03*
G54D30*
X44450Y-50500D03*
G54D22*
X44450Y-48500D03*
G54D31*
X70550Y-40900D03*
G54D32*
X73550Y-40900D03*
G54D31*
X52000Y-45700D03*
G54D32*
X49000Y-45700D03*
G54D31*
X42050Y-52050D03*
G54D32*
X42050Y-49050D03*
G54D31*
X71800Y-33200D03*
G54D32*
X68800Y-33200D03*
G54D31*
X70550Y-49700D03*
G54D32*
X73550Y-49700D03*
G54D31*
X66650Y-49700D03*
G54D32*
X69650Y-49700D03*
G54D31*
X70550Y-47500D03*
G54D32*
X73550Y-47500D03*
G54D31*
X66650Y-47500D03*
G54D32*
X69650Y-47500D03*
G54D31*
X66650Y-38700D03*
G54D32*
X69650Y-38700D03*
G54D31*
X70550Y-45300D03*
G54D32*
X73550Y-45300D03*
G54D31*
X66650Y-45300D03*
G54D32*
X69650Y-45300D03*
G54D31*
X70550Y-38700D03*
G54D32*
X73550Y-38700D03*
G54D31*
X66650Y-40900D03*
G54D32*
X69650Y-40900D03*
G54D31*
X70550Y-43100D03*
G54D32*
X73550Y-43100D03*
G54D31*
X66650Y-43100D03*
G54D32*
X69650Y-43100D03*
G54D33*
X41400Y-53450D03*
X41400Y-52950D03*
X39300Y-33100D03*
X39300Y-33600D03*
G54D21*
X56000Y-41000D03*
X56000Y-42000D03*
X55000Y-42000D03*
X55000Y-41000D03*
X55000Y-40000D03*
X56000Y-40000D03*
X54000Y-40000D03*
X54000Y-41000D03*
X54000Y-42000D03*
X53000Y-42000D03*
X53000Y-41000D03*
X53000Y-40000D03*
X53000Y-39000D03*
X54000Y-39000D03*
X55000Y-39000D03*
X55000Y-43000D03*
X56000Y-43000D03*
X54000Y-43000D03*
X53000Y-43000D03*
X55000Y-44000D03*
X54000Y-44000D03*
X53000Y-44000D03*
X53000Y-45000D03*
X54000Y-45000D03*
X55000Y-45000D03*
X56000Y-45000D03*
X56000Y-44000D03*
X54000Y-46000D03*
X55000Y-46000D03*
X56000Y-46000D03*
X52000Y-43000D03*
X51000Y-43000D03*
X50000Y-43000D03*
X49000Y-43000D03*
X48000Y-43000D03*
X47000Y-43000D03*
X47000Y-42000D03*
X48000Y-42000D03*
X49000Y-42000D03*
X50000Y-42000D03*
X51000Y-42000D03*
X52000Y-42000D03*
X46000Y-43000D03*
X45000Y-43000D03*
X44000Y-43000D03*
X44000Y-42000D03*
X45000Y-42000D03*
X46000Y-42000D03*
X44000Y-41000D03*
X44000Y-40000D03*
X45000Y-40000D03*
X45000Y-41000D03*
X46000Y-41000D03*
X47000Y-41000D03*
X48000Y-41000D03*
X49000Y-41000D03*
X50000Y-41000D03*
X51000Y-41000D03*
X52000Y-41000D03*
X52000Y-40000D03*
X51000Y-40000D03*
X50000Y-40000D03*
X49000Y-40000D03*
X48000Y-40000D03*
X47000Y-40000D03*
X46000Y-40000D03*
X44000Y-39000D03*
X45000Y-39000D03*
X46000Y-39000D03*
X47000Y-39000D03*
X48000Y-39000D03*
X49000Y-39000D03*
X50000Y-39000D03*
X51000Y-39000D03*
X52000Y-39000D03*
M02*
