G04 (created by PCBNEW (2013-07-07 BZR 4022)-stable) date 11/04/2014 09:32:08*
%MOIN*%
G04 Gerber Fmt 3.4, Leading zero omitted, Abs format*
%FSLAX34Y34*%
G01*
G70*
G90*
G04 APERTURE LIST*
%ADD10C,0.00590551*%
%ADD11C,0.011811*%
%ADD12C,0.023622*%
%ADD13C,0.00885827*%
%ADD14C,0.015748*%
%ADD15C,0.0670551*%
%ADD16R,0.063X0.063*%
%ADD17C,0.063*%
%ADD18R,0.068X0.068*%
%ADD19C,0.068*%
%ADD20R,0.108X0.108*%
%ADD21C,0.108*%
%ADD22C,0.20485*%
%ADD23C,0.078*%
%ADD24R,0.078X0.078*%
%ADD25R,0.0749291X0.0749291*%
%ADD26C,0.0749291*%
G04 APERTURE END LIST*
G54D10*
G54D11*
X65133Y-35810D02*
X65049Y-35839D01*
X64908Y-35839D01*
X64852Y-35810D01*
X64824Y-35782D01*
X64796Y-35726D01*
X64796Y-35670D01*
X64824Y-35614D01*
X64852Y-35585D01*
X64908Y-35557D01*
X65021Y-35529D01*
X65077Y-35501D01*
X65105Y-35473D01*
X65133Y-35417D01*
X65133Y-35360D01*
X65105Y-35304D01*
X65077Y-35276D01*
X65021Y-35248D01*
X64880Y-35248D01*
X64796Y-35276D01*
X64627Y-35248D02*
X64290Y-35248D01*
X64458Y-35839D02*
X64458Y-35248D01*
X64093Y-35839D02*
X64093Y-35248D01*
X63896Y-35670D01*
X63699Y-35248D01*
X63699Y-35839D01*
X63474Y-35248D02*
X63109Y-35248D01*
X63305Y-35473D01*
X63221Y-35473D01*
X63165Y-35501D01*
X63137Y-35529D01*
X63109Y-35585D01*
X63109Y-35726D01*
X63137Y-35782D01*
X63165Y-35810D01*
X63221Y-35839D01*
X63390Y-35839D01*
X63446Y-35810D01*
X63474Y-35782D01*
X62884Y-35304D02*
X62856Y-35276D01*
X62799Y-35248D01*
X62659Y-35248D01*
X62602Y-35276D01*
X62574Y-35304D01*
X62546Y-35360D01*
X62546Y-35417D01*
X62574Y-35501D01*
X62912Y-35839D01*
X62546Y-35839D01*
X62096Y-35529D02*
X62293Y-35529D01*
X62293Y-35839D02*
X62293Y-35248D01*
X62012Y-35248D01*
X61534Y-35445D02*
X61534Y-35839D01*
X61674Y-35220D02*
X61815Y-35642D01*
X61449Y-35642D01*
X60775Y-35839D02*
X60775Y-35248D01*
X60634Y-35248D01*
X60550Y-35276D01*
X60493Y-35332D01*
X60465Y-35389D01*
X60437Y-35501D01*
X60437Y-35585D01*
X60465Y-35698D01*
X60493Y-35754D01*
X60550Y-35810D01*
X60634Y-35839D01*
X60775Y-35839D01*
X60184Y-35839D02*
X60184Y-35445D01*
X60184Y-35248D02*
X60212Y-35276D01*
X60184Y-35304D01*
X60156Y-35276D01*
X60184Y-35248D01*
X60184Y-35304D01*
X59931Y-35810D02*
X59875Y-35839D01*
X59762Y-35839D01*
X59706Y-35810D01*
X59678Y-35754D01*
X59678Y-35726D01*
X59706Y-35670D01*
X59762Y-35642D01*
X59847Y-35642D01*
X59903Y-35614D01*
X59931Y-35557D01*
X59931Y-35529D01*
X59903Y-35473D01*
X59847Y-35445D01*
X59762Y-35445D01*
X59706Y-35473D01*
X59172Y-35810D02*
X59228Y-35839D01*
X59340Y-35839D01*
X59397Y-35810D01*
X59425Y-35782D01*
X59453Y-35726D01*
X59453Y-35557D01*
X59425Y-35501D01*
X59397Y-35473D01*
X59340Y-35445D01*
X59228Y-35445D01*
X59172Y-35473D01*
X58834Y-35839D02*
X58890Y-35810D01*
X58919Y-35782D01*
X58947Y-35726D01*
X58947Y-35557D01*
X58919Y-35501D01*
X58890Y-35473D01*
X58834Y-35445D01*
X58750Y-35445D01*
X58694Y-35473D01*
X58665Y-35501D01*
X58637Y-35557D01*
X58637Y-35726D01*
X58665Y-35782D01*
X58694Y-35810D01*
X58750Y-35839D01*
X58834Y-35839D01*
X58440Y-35445D02*
X58300Y-35839D01*
X58159Y-35445D01*
X57709Y-35810D02*
X57766Y-35839D01*
X57878Y-35839D01*
X57934Y-35810D01*
X57962Y-35754D01*
X57962Y-35529D01*
X57934Y-35473D01*
X57878Y-35445D01*
X57766Y-35445D01*
X57709Y-35473D01*
X57681Y-35529D01*
X57681Y-35585D01*
X57962Y-35642D01*
X57428Y-35839D02*
X57428Y-35445D01*
X57428Y-35557D02*
X57400Y-35501D01*
X57372Y-35473D01*
X57316Y-35445D01*
X57259Y-35445D01*
X57119Y-35445D02*
X56978Y-35839D01*
X56838Y-35445D02*
X56978Y-35839D01*
X57034Y-35979D01*
X57062Y-36007D01*
X57119Y-36035D01*
X64079Y-36783D02*
X64079Y-36193D01*
X63938Y-36193D01*
X63854Y-36221D01*
X63798Y-36277D01*
X63769Y-36333D01*
X63741Y-36446D01*
X63741Y-36530D01*
X63769Y-36643D01*
X63798Y-36699D01*
X63854Y-36755D01*
X63938Y-36783D01*
X64079Y-36783D01*
X63235Y-36783D02*
X63235Y-36474D01*
X63263Y-36418D01*
X63320Y-36390D01*
X63432Y-36390D01*
X63488Y-36418D01*
X63235Y-36755D02*
X63291Y-36783D01*
X63432Y-36783D01*
X63488Y-36755D01*
X63516Y-36699D01*
X63516Y-36643D01*
X63488Y-36587D01*
X63432Y-36558D01*
X63291Y-36558D01*
X63235Y-36530D01*
X62701Y-36390D02*
X62701Y-36783D01*
X62954Y-36390D02*
X62954Y-36699D01*
X62926Y-36755D01*
X62870Y-36783D01*
X62785Y-36783D01*
X62729Y-36755D01*
X62701Y-36727D01*
X62167Y-36390D02*
X62167Y-36868D01*
X62195Y-36924D01*
X62223Y-36952D01*
X62279Y-36980D01*
X62363Y-36980D01*
X62420Y-36952D01*
X62167Y-36755D02*
X62223Y-36783D01*
X62335Y-36783D01*
X62392Y-36755D01*
X62420Y-36727D01*
X62448Y-36671D01*
X62448Y-36502D01*
X62420Y-36446D01*
X62392Y-36418D01*
X62335Y-36390D01*
X62223Y-36390D01*
X62167Y-36418D01*
X61885Y-36783D02*
X61885Y-36193D01*
X61632Y-36783D02*
X61632Y-36474D01*
X61660Y-36418D01*
X61717Y-36390D01*
X61801Y-36390D01*
X61857Y-36418D01*
X61885Y-36446D01*
X61435Y-36390D02*
X61210Y-36390D01*
X61351Y-36193D02*
X61351Y-36699D01*
X61323Y-36755D01*
X61267Y-36783D01*
X61210Y-36783D01*
X60789Y-36755D02*
X60845Y-36783D01*
X60957Y-36783D01*
X61014Y-36755D01*
X61042Y-36699D01*
X61042Y-36474D01*
X61014Y-36418D01*
X60957Y-36390D01*
X60845Y-36390D01*
X60789Y-36418D01*
X60760Y-36474D01*
X60760Y-36530D01*
X61042Y-36587D01*
X60507Y-36783D02*
X60507Y-36390D01*
X60507Y-36502D02*
X60479Y-36446D01*
X60451Y-36418D01*
X60395Y-36390D01*
X60339Y-36390D01*
X60142Y-36783D02*
X60142Y-36193D01*
X60142Y-36418D02*
X60086Y-36390D01*
X59973Y-36390D01*
X59917Y-36418D01*
X59889Y-36446D01*
X59861Y-36502D01*
X59861Y-36671D01*
X59889Y-36727D01*
X59917Y-36755D01*
X59973Y-36783D01*
X60086Y-36783D01*
X60142Y-36755D01*
X59523Y-36783D02*
X59579Y-36755D01*
X59607Y-36727D01*
X59636Y-36671D01*
X59636Y-36502D01*
X59607Y-36446D01*
X59579Y-36418D01*
X59523Y-36390D01*
X59439Y-36390D01*
X59383Y-36418D01*
X59354Y-36446D01*
X59326Y-36502D01*
X59326Y-36671D01*
X59354Y-36727D01*
X59383Y-36755D01*
X59439Y-36783D01*
X59523Y-36783D01*
X58820Y-36783D02*
X58820Y-36474D01*
X58848Y-36418D01*
X58904Y-36390D01*
X59017Y-36390D01*
X59073Y-36418D01*
X58820Y-36755D02*
X58876Y-36783D01*
X59017Y-36783D01*
X59073Y-36755D01*
X59101Y-36699D01*
X59101Y-36643D01*
X59073Y-36587D01*
X59017Y-36558D01*
X58876Y-36558D01*
X58820Y-36530D01*
X58539Y-36783D02*
X58539Y-36390D01*
X58539Y-36502D02*
X58511Y-36446D01*
X58483Y-36418D01*
X58426Y-36390D01*
X58370Y-36390D01*
X57920Y-36783D02*
X57920Y-36193D01*
X57920Y-36755D02*
X57976Y-36783D01*
X58089Y-36783D01*
X58145Y-36755D01*
X58173Y-36727D01*
X58201Y-36671D01*
X58201Y-36502D01*
X58173Y-36446D01*
X58145Y-36418D01*
X58089Y-36390D01*
X57976Y-36390D01*
X57920Y-36418D01*
X69275Y-36714D02*
X69724Y-36714D01*
X69500Y-36939D02*
X69500Y-36489D01*
X71275Y-36714D02*
X71724Y-36714D01*
X44975Y-50514D02*
X45424Y-50514D01*
X45200Y-50739D02*
X45200Y-50289D01*
X45214Y-48724D02*
X45214Y-48275D01*
X54035Y-36448D02*
X53697Y-36448D01*
X53866Y-37039D02*
X53866Y-36448D01*
X53501Y-37039D02*
X53501Y-36448D01*
X53248Y-37039D02*
X53248Y-36729D01*
X53276Y-36673D01*
X53332Y-36645D01*
X53416Y-36645D01*
X53473Y-36673D01*
X53501Y-36701D01*
X52741Y-37010D02*
X52798Y-37039D01*
X52910Y-37039D01*
X52966Y-37010D01*
X52994Y-36954D01*
X52994Y-36729D01*
X52966Y-36673D01*
X52910Y-36645D01*
X52798Y-36645D01*
X52741Y-36673D01*
X52713Y-36729D01*
X52713Y-36785D01*
X52994Y-36842D01*
X51813Y-36729D02*
X52010Y-36729D01*
X52010Y-37039D02*
X52010Y-36448D01*
X51729Y-36448D01*
X51504Y-37039D02*
X51504Y-36645D01*
X51504Y-36757D02*
X51476Y-36701D01*
X51448Y-36673D01*
X51392Y-36645D01*
X51335Y-36645D01*
X50913Y-37010D02*
X50970Y-37039D01*
X51082Y-37039D01*
X51138Y-37010D01*
X51167Y-36954D01*
X51167Y-36729D01*
X51138Y-36673D01*
X51082Y-36645D01*
X50970Y-36645D01*
X50913Y-36673D01*
X50885Y-36729D01*
X50885Y-36785D01*
X51167Y-36842D01*
X50407Y-37010D02*
X50464Y-37039D01*
X50576Y-37039D01*
X50632Y-37010D01*
X50660Y-36954D01*
X50660Y-36729D01*
X50632Y-36673D01*
X50576Y-36645D01*
X50464Y-36645D01*
X50407Y-36673D01*
X50379Y-36729D01*
X50379Y-36785D01*
X50660Y-36842D01*
X49704Y-36870D02*
X49423Y-36870D01*
X49760Y-37039D02*
X49564Y-36448D01*
X49367Y-37039D01*
X48917Y-36645D02*
X48917Y-37039D01*
X49170Y-36645D02*
X49170Y-36954D01*
X49142Y-37010D01*
X49086Y-37039D01*
X49001Y-37039D01*
X48945Y-37010D01*
X48917Y-36982D01*
X48720Y-36645D02*
X48495Y-36645D01*
X48636Y-36448D02*
X48636Y-36954D01*
X48607Y-37010D01*
X48551Y-37039D01*
X48495Y-37039D01*
X48214Y-37039D02*
X48270Y-37010D01*
X48298Y-36982D01*
X48326Y-36926D01*
X48326Y-36757D01*
X48298Y-36701D01*
X48270Y-36673D01*
X48214Y-36645D01*
X48129Y-36645D01*
X48073Y-36673D01*
X48045Y-36701D01*
X48017Y-36757D01*
X48017Y-36926D01*
X48045Y-36982D01*
X48073Y-37010D01*
X48129Y-37039D01*
X48214Y-37039D01*
X47764Y-36645D02*
X47764Y-37235D01*
X47764Y-36673D02*
X47708Y-36645D01*
X47595Y-36645D01*
X47539Y-36673D01*
X47511Y-36701D01*
X47483Y-36757D01*
X47483Y-36926D01*
X47511Y-36982D01*
X47539Y-37010D01*
X47595Y-37039D01*
X47708Y-37039D01*
X47764Y-37010D01*
X47230Y-37039D02*
X47230Y-36645D01*
X47230Y-36448D02*
X47258Y-36476D01*
X47230Y-36504D01*
X47201Y-36476D01*
X47230Y-36448D01*
X47230Y-36504D01*
X46864Y-37039D02*
X46920Y-37010D01*
X46948Y-36954D01*
X46948Y-36448D01*
X46555Y-37039D02*
X46611Y-37010D01*
X46639Y-36982D01*
X46667Y-36926D01*
X46667Y-36757D01*
X46639Y-36701D01*
X46611Y-36673D01*
X46555Y-36645D01*
X46470Y-36645D01*
X46414Y-36673D01*
X46386Y-36701D01*
X46358Y-36757D01*
X46358Y-36926D01*
X46386Y-36982D01*
X46414Y-37010D01*
X46470Y-37039D01*
X46555Y-37039D01*
X46189Y-36645D02*
X45964Y-36645D01*
X46105Y-36448D02*
X46105Y-36954D01*
X46077Y-37010D01*
X46020Y-37039D01*
X45964Y-37039D01*
G54D12*
X55399Y-35837D02*
X55399Y-34262D01*
X54799Y-34262D01*
X54649Y-34337D01*
X54574Y-34412D01*
X54499Y-34562D01*
X54499Y-34787D01*
X54574Y-34937D01*
X54649Y-35012D01*
X54799Y-35087D01*
X55399Y-35087D01*
X53149Y-35837D02*
X53149Y-35012D01*
X53224Y-34862D01*
X53374Y-34787D01*
X53674Y-34787D01*
X53824Y-34862D01*
X53149Y-35762D02*
X53299Y-35837D01*
X53674Y-35837D01*
X53824Y-35762D01*
X53899Y-35612D01*
X53899Y-35462D01*
X53824Y-35312D01*
X53674Y-35237D01*
X53299Y-35237D01*
X53149Y-35162D01*
X52399Y-34787D02*
X52399Y-36362D01*
X52399Y-34862D02*
X52249Y-34787D01*
X51949Y-34787D01*
X51799Y-34862D01*
X51724Y-34937D01*
X51649Y-35087D01*
X51649Y-35537D01*
X51724Y-35687D01*
X51799Y-35762D01*
X51949Y-35837D01*
X52249Y-35837D01*
X52399Y-35762D01*
X50299Y-35837D02*
X50299Y-35012D01*
X50374Y-34862D01*
X50524Y-34787D01*
X50824Y-34787D01*
X50974Y-34862D01*
X50299Y-35762D02*
X50449Y-35837D01*
X50824Y-35837D01*
X50974Y-35762D01*
X51049Y-35612D01*
X51049Y-35462D01*
X50974Y-35312D01*
X50824Y-35237D01*
X50449Y-35237D01*
X50299Y-35162D01*
X49550Y-35837D02*
X49550Y-34787D01*
X49550Y-35087D02*
X49475Y-34937D01*
X49400Y-34862D01*
X49250Y-34787D01*
X49100Y-34787D01*
X47900Y-35837D02*
X47900Y-35012D01*
X47975Y-34862D01*
X48125Y-34787D01*
X48425Y-34787D01*
X48575Y-34862D01*
X47900Y-35762D02*
X48050Y-35837D01*
X48425Y-35837D01*
X48575Y-35762D01*
X48650Y-35612D01*
X48650Y-35462D01*
X48575Y-35312D01*
X48425Y-35237D01*
X48050Y-35237D01*
X47900Y-35162D01*
X47300Y-34787D02*
X46475Y-34787D01*
X47300Y-35837D01*
X46475Y-35837D01*
X46025Y-34787D02*
X45200Y-34787D01*
X46025Y-35837D01*
X45200Y-35837D01*
X44600Y-35837D02*
X44600Y-34787D01*
X44600Y-34262D02*
X44675Y-34337D01*
X44600Y-34412D01*
X44525Y-34337D01*
X44600Y-34262D01*
X44600Y-34412D01*
G54D13*
X50069Y-54005D02*
X50103Y-53989D01*
X50154Y-53989D01*
X50204Y-54005D01*
X50238Y-54039D01*
X50255Y-54073D01*
X50272Y-54140D01*
X50272Y-54191D01*
X50255Y-54259D01*
X50238Y-54292D01*
X50204Y-54326D01*
X50154Y-54343D01*
X50120Y-54343D01*
X50069Y-54326D01*
X50053Y-54309D01*
X50053Y-54191D01*
X50120Y-54191D01*
X49901Y-54343D02*
X49901Y-53989D01*
X49698Y-54343D01*
X49698Y-53989D01*
X49530Y-54343D02*
X49530Y-53989D01*
X49445Y-53989D01*
X49395Y-54005D01*
X49361Y-54039D01*
X49344Y-54073D01*
X49327Y-54140D01*
X49327Y-54191D01*
X49344Y-54259D01*
X49361Y-54292D01*
X49395Y-54326D01*
X49445Y-54343D01*
X49530Y-54343D01*
X59044Y-54343D02*
X59044Y-53989D01*
X58960Y-53989D01*
X58909Y-54005D01*
X58875Y-54039D01*
X58859Y-54073D01*
X58842Y-54140D01*
X58842Y-54191D01*
X58859Y-54259D01*
X58875Y-54292D01*
X58909Y-54326D01*
X58960Y-54343D01*
X59044Y-54343D01*
X58707Y-54242D02*
X58538Y-54242D01*
X58740Y-54343D02*
X58622Y-53989D01*
X58504Y-54343D01*
X47044Y-54343D02*
X47044Y-53989D01*
X46960Y-53989D01*
X46909Y-54005D01*
X46875Y-54039D01*
X46859Y-54073D01*
X46842Y-54140D01*
X46842Y-54191D01*
X46859Y-54259D01*
X46875Y-54292D01*
X46909Y-54326D01*
X46960Y-54343D01*
X47044Y-54343D01*
X46707Y-54242D02*
X46538Y-54242D01*
X46740Y-54343D02*
X46622Y-53989D01*
X46504Y-54343D01*
X58069Y-54005D02*
X58103Y-53989D01*
X58154Y-53989D01*
X58204Y-54005D01*
X58238Y-54039D01*
X58255Y-54073D01*
X58272Y-54140D01*
X58272Y-54191D01*
X58255Y-54259D01*
X58238Y-54292D01*
X58204Y-54326D01*
X58154Y-54343D01*
X58120Y-54343D01*
X58069Y-54326D01*
X58053Y-54309D01*
X58053Y-54191D01*
X58120Y-54191D01*
X57901Y-54343D02*
X57901Y-53989D01*
X57698Y-54343D01*
X57698Y-53989D01*
X57530Y-54343D02*
X57530Y-53989D01*
X57445Y-53989D01*
X57395Y-54005D01*
X57361Y-54039D01*
X57344Y-54073D01*
X57327Y-54140D01*
X57327Y-54191D01*
X57344Y-54259D01*
X57361Y-54292D01*
X57395Y-54326D01*
X57445Y-54343D01*
X57530Y-54343D01*
X59833Y-54309D02*
X59850Y-54326D01*
X59901Y-54343D01*
X59934Y-54343D01*
X59985Y-54326D01*
X60019Y-54292D01*
X60036Y-54259D01*
X60053Y-54191D01*
X60053Y-54140D01*
X60036Y-54073D01*
X60019Y-54039D01*
X59985Y-54005D01*
X59934Y-53989D01*
X59901Y-53989D01*
X59850Y-54005D01*
X59833Y-54022D01*
X59513Y-54343D02*
X59681Y-54343D01*
X59681Y-53989D01*
X47833Y-54309D02*
X47850Y-54326D01*
X47901Y-54343D01*
X47934Y-54343D01*
X47985Y-54326D01*
X48019Y-54292D01*
X48036Y-54259D01*
X48053Y-54191D01*
X48053Y-54140D01*
X48036Y-54073D01*
X48019Y-54039D01*
X47985Y-54005D01*
X47934Y-53989D01*
X47901Y-53989D01*
X47850Y-54005D01*
X47833Y-54022D01*
X47513Y-54343D02*
X47681Y-54343D01*
X47681Y-53989D01*
X48597Y-31256D02*
X48597Y-31610D01*
X48715Y-31357D01*
X48833Y-31610D01*
X48833Y-31256D01*
X49002Y-31256D02*
X49002Y-31610D01*
X58597Y-31256D02*
X58597Y-31610D01*
X58715Y-31357D01*
X58833Y-31610D01*
X58833Y-31256D01*
X59002Y-31256D02*
X59002Y-31610D01*
X64597Y-31256D02*
X64597Y-31610D01*
X64715Y-31357D01*
X64833Y-31610D01*
X64833Y-31256D01*
X65002Y-31256D02*
X65002Y-31610D01*
X63496Y-31256D02*
X63496Y-31610D01*
X63614Y-31357D01*
X63732Y-31610D01*
X63732Y-31256D01*
X63968Y-31610D02*
X64036Y-31610D01*
X64069Y-31594D01*
X64103Y-31560D01*
X64120Y-31492D01*
X64120Y-31374D01*
X64103Y-31307D01*
X64069Y-31273D01*
X64036Y-31256D01*
X63968Y-31256D01*
X63934Y-31273D01*
X63901Y-31307D01*
X63884Y-31374D01*
X63884Y-31492D01*
X63901Y-31560D01*
X63934Y-31594D01*
X63968Y-31610D01*
X57496Y-31256D02*
X57496Y-31610D01*
X57614Y-31357D01*
X57732Y-31610D01*
X57732Y-31256D01*
X57968Y-31610D02*
X58036Y-31610D01*
X58069Y-31594D01*
X58103Y-31560D01*
X58120Y-31492D01*
X58120Y-31374D01*
X58103Y-31307D01*
X58069Y-31273D01*
X58036Y-31256D01*
X57968Y-31256D01*
X57934Y-31273D01*
X57901Y-31307D01*
X57884Y-31374D01*
X57884Y-31492D01*
X57901Y-31560D01*
X57934Y-31594D01*
X57968Y-31610D01*
X47496Y-31256D02*
X47496Y-31610D01*
X47614Y-31357D01*
X47732Y-31610D01*
X47732Y-31256D01*
X47968Y-31610D02*
X48036Y-31610D01*
X48069Y-31594D01*
X48103Y-31560D01*
X48120Y-31492D01*
X48120Y-31374D01*
X48103Y-31307D01*
X48069Y-31273D01*
X48036Y-31256D01*
X47968Y-31256D01*
X47934Y-31273D01*
X47901Y-31307D01*
X47884Y-31374D01*
X47884Y-31492D01*
X47901Y-31560D01*
X47934Y-31594D01*
X47968Y-31610D01*
X62530Y-31273D02*
X62580Y-31256D01*
X62665Y-31256D01*
X62698Y-31273D01*
X62715Y-31290D01*
X62732Y-31324D01*
X62732Y-31357D01*
X62715Y-31391D01*
X62698Y-31408D01*
X62665Y-31425D01*
X62597Y-31442D01*
X62563Y-31459D01*
X62546Y-31475D01*
X62530Y-31509D01*
X62530Y-31543D01*
X62546Y-31577D01*
X62563Y-31594D01*
X62597Y-31610D01*
X62681Y-31610D01*
X62732Y-31594D01*
X62867Y-31273D02*
X62918Y-31256D01*
X63002Y-31256D01*
X63036Y-31273D01*
X63053Y-31290D01*
X63069Y-31324D01*
X63069Y-31357D01*
X63053Y-31391D01*
X63036Y-31408D01*
X63002Y-31425D01*
X62934Y-31442D01*
X62901Y-31459D01*
X62884Y-31475D01*
X62867Y-31509D01*
X62867Y-31543D01*
X62884Y-31577D01*
X62901Y-31594D01*
X62934Y-31610D01*
X63019Y-31610D01*
X63069Y-31594D01*
X56530Y-31273D02*
X56580Y-31256D01*
X56665Y-31256D01*
X56698Y-31273D01*
X56715Y-31290D01*
X56732Y-31324D01*
X56732Y-31357D01*
X56715Y-31391D01*
X56698Y-31408D01*
X56665Y-31425D01*
X56597Y-31442D01*
X56563Y-31459D01*
X56546Y-31475D01*
X56530Y-31509D01*
X56530Y-31543D01*
X56546Y-31577D01*
X56563Y-31594D01*
X56597Y-31610D01*
X56681Y-31610D01*
X56732Y-31594D01*
X56867Y-31273D02*
X56918Y-31256D01*
X57002Y-31256D01*
X57036Y-31273D01*
X57053Y-31290D01*
X57069Y-31324D01*
X57069Y-31357D01*
X57053Y-31391D01*
X57036Y-31408D01*
X57002Y-31425D01*
X56934Y-31442D01*
X56901Y-31459D01*
X56884Y-31475D01*
X56867Y-31509D01*
X56867Y-31543D01*
X56884Y-31577D01*
X56901Y-31594D01*
X56934Y-31610D01*
X57019Y-31610D01*
X57069Y-31594D01*
X46530Y-31273D02*
X46580Y-31256D01*
X46665Y-31256D01*
X46698Y-31273D01*
X46715Y-31290D01*
X46732Y-31324D01*
X46732Y-31357D01*
X46715Y-31391D01*
X46698Y-31408D01*
X46665Y-31425D01*
X46597Y-31442D01*
X46563Y-31459D01*
X46546Y-31475D01*
X46530Y-31509D01*
X46530Y-31543D01*
X46546Y-31577D01*
X46563Y-31594D01*
X46597Y-31610D01*
X46681Y-31610D01*
X46732Y-31594D01*
X46867Y-31273D02*
X46918Y-31256D01*
X47002Y-31256D01*
X47036Y-31273D01*
X47053Y-31290D01*
X47069Y-31324D01*
X47069Y-31357D01*
X47053Y-31391D01*
X47036Y-31408D01*
X47002Y-31425D01*
X46934Y-31442D01*
X46901Y-31459D01*
X46884Y-31475D01*
X46867Y-31509D01*
X46867Y-31543D01*
X46884Y-31577D01*
X46901Y-31594D01*
X46934Y-31610D01*
X47019Y-31610D01*
X47069Y-31594D01*
X65766Y-31290D02*
X65749Y-31273D01*
X65698Y-31256D01*
X65665Y-31256D01*
X65614Y-31273D01*
X65580Y-31307D01*
X65563Y-31340D01*
X65546Y-31408D01*
X65546Y-31459D01*
X65563Y-31526D01*
X65580Y-31560D01*
X65614Y-31594D01*
X65665Y-31610D01*
X65698Y-31610D01*
X65749Y-31594D01*
X65766Y-31577D01*
X66086Y-31256D02*
X65918Y-31256D01*
X65918Y-31610D01*
X59766Y-31290D02*
X59749Y-31273D01*
X59698Y-31256D01*
X59665Y-31256D01*
X59614Y-31273D01*
X59580Y-31307D01*
X59563Y-31340D01*
X59546Y-31408D01*
X59546Y-31459D01*
X59563Y-31526D01*
X59580Y-31560D01*
X59614Y-31594D01*
X59665Y-31610D01*
X59698Y-31610D01*
X59749Y-31594D01*
X59766Y-31577D01*
X60086Y-31256D02*
X59918Y-31256D01*
X59918Y-31610D01*
X49766Y-31290D02*
X49749Y-31273D01*
X49698Y-31256D01*
X49665Y-31256D01*
X49614Y-31273D01*
X49580Y-31307D01*
X49563Y-31340D01*
X49546Y-31408D01*
X49546Y-31459D01*
X49563Y-31526D01*
X49580Y-31560D01*
X49614Y-31594D01*
X49665Y-31610D01*
X49698Y-31610D01*
X49749Y-31594D01*
X49766Y-31577D01*
X50086Y-31256D02*
X49918Y-31256D01*
X49918Y-31610D01*
X53766Y-31290D02*
X53749Y-31273D01*
X53698Y-31256D01*
X53665Y-31256D01*
X53614Y-31273D01*
X53580Y-31307D01*
X53563Y-31340D01*
X53546Y-31408D01*
X53546Y-31459D01*
X53563Y-31526D01*
X53580Y-31560D01*
X53614Y-31594D01*
X53665Y-31610D01*
X53698Y-31610D01*
X53749Y-31594D01*
X53766Y-31577D01*
X54086Y-31256D02*
X53918Y-31256D01*
X53918Y-31610D01*
X52555Y-31256D02*
X52555Y-31610D01*
X52639Y-31610D01*
X52690Y-31594D01*
X52724Y-31560D01*
X52740Y-31526D01*
X52757Y-31459D01*
X52757Y-31408D01*
X52740Y-31340D01*
X52724Y-31307D01*
X52690Y-31273D01*
X52639Y-31256D01*
X52555Y-31256D01*
X52892Y-31357D02*
X53061Y-31357D01*
X52859Y-31256D02*
X52977Y-31610D01*
X53095Y-31256D01*
G54D11*
X51442Y-29210D02*
X51442Y-29801D01*
X51695Y-29745D02*
X51723Y-29773D01*
X51779Y-29801D01*
X51920Y-29801D01*
X51976Y-29773D01*
X52004Y-29745D01*
X52032Y-29689D01*
X52032Y-29632D01*
X52004Y-29548D01*
X51667Y-29210D01*
X52032Y-29210D01*
X52623Y-29267D02*
X52595Y-29239D01*
X52510Y-29210D01*
X52454Y-29210D01*
X52370Y-29239D01*
X52314Y-29295D01*
X52285Y-29351D01*
X52257Y-29464D01*
X52257Y-29548D01*
X52285Y-29660D01*
X52314Y-29717D01*
X52370Y-29773D01*
X52454Y-29801D01*
X52510Y-29801D01*
X52595Y-29773D01*
X52623Y-29745D01*
X52848Y-29745D02*
X52876Y-29773D01*
X52932Y-29801D01*
X53073Y-29801D01*
X53129Y-29773D01*
X53157Y-29745D01*
X53185Y-29689D01*
X53185Y-29632D01*
X53157Y-29548D01*
X52820Y-29210D01*
X53185Y-29210D01*
G54D14*
X37968Y-52449D02*
X37968Y-52824D01*
X37593Y-52862D01*
X37631Y-52824D01*
X37668Y-52749D01*
X37668Y-52562D01*
X37631Y-52487D01*
X37593Y-52449D01*
X37518Y-52412D01*
X37331Y-52412D01*
X37256Y-52449D01*
X37218Y-52487D01*
X37181Y-52562D01*
X37181Y-52749D01*
X37218Y-52824D01*
X37256Y-52862D01*
X37968Y-52187D02*
X37181Y-51925D01*
X37968Y-51662D01*
X37931Y-50899D02*
X37968Y-50974D01*
X37968Y-51087D01*
X37931Y-51199D01*
X37856Y-51274D01*
X37781Y-51312D01*
X37631Y-51349D01*
X37518Y-51349D01*
X37368Y-51312D01*
X37293Y-51274D01*
X37218Y-51199D01*
X37181Y-51087D01*
X37181Y-51012D01*
X37218Y-50899D01*
X37256Y-50862D01*
X37518Y-50862D01*
X37518Y-51012D01*
X37181Y-50524D02*
X37968Y-50524D01*
X37181Y-50075D01*
X37968Y-50075D01*
X37181Y-49700D02*
X37968Y-49700D01*
X37968Y-49512D01*
X37931Y-49400D01*
X37856Y-49325D01*
X37781Y-49287D01*
X37631Y-49250D01*
X37518Y-49250D01*
X37368Y-49287D01*
X37293Y-49325D01*
X37218Y-49400D01*
X37181Y-49512D01*
X37181Y-49700D01*
G54D11*
X62414Y-29239D02*
X62498Y-29210D01*
X62639Y-29210D01*
X62695Y-29239D01*
X62723Y-29267D01*
X62751Y-29323D01*
X62751Y-29379D01*
X62723Y-29435D01*
X62695Y-29464D01*
X62639Y-29492D01*
X62526Y-29520D01*
X62470Y-29548D01*
X62442Y-29576D01*
X62414Y-29632D01*
X62414Y-29689D01*
X62442Y-29745D01*
X62470Y-29773D01*
X62526Y-29801D01*
X62667Y-29801D01*
X62751Y-29773D01*
X63004Y-29210D02*
X63004Y-29801D01*
X63229Y-29801D01*
X63285Y-29773D01*
X63314Y-29745D01*
X63342Y-29689D01*
X63342Y-29604D01*
X63314Y-29548D01*
X63285Y-29520D01*
X63229Y-29492D01*
X63004Y-29492D01*
X63595Y-29210D02*
X63595Y-29801D01*
X64185Y-29210D02*
X63848Y-29210D01*
X64017Y-29210D02*
X64017Y-29801D01*
X63960Y-29717D01*
X63904Y-29660D01*
X63848Y-29632D01*
X56414Y-29239D02*
X56498Y-29210D01*
X56639Y-29210D01*
X56695Y-29239D01*
X56723Y-29267D01*
X56751Y-29323D01*
X56751Y-29379D01*
X56723Y-29435D01*
X56695Y-29464D01*
X56639Y-29492D01*
X56526Y-29520D01*
X56470Y-29548D01*
X56442Y-29576D01*
X56414Y-29632D01*
X56414Y-29689D01*
X56442Y-29745D01*
X56470Y-29773D01*
X56526Y-29801D01*
X56667Y-29801D01*
X56751Y-29773D01*
X57004Y-29210D02*
X57004Y-29801D01*
X57229Y-29801D01*
X57285Y-29773D01*
X57314Y-29745D01*
X57342Y-29689D01*
X57342Y-29604D01*
X57314Y-29548D01*
X57285Y-29520D01*
X57229Y-29492D01*
X57004Y-29492D01*
X57595Y-29210D02*
X57595Y-29801D01*
X57820Y-29801D02*
X58185Y-29801D01*
X57988Y-29576D01*
X58073Y-29576D01*
X58129Y-29548D01*
X58157Y-29520D01*
X58185Y-29464D01*
X58185Y-29323D01*
X58157Y-29267D01*
X58129Y-29239D01*
X58073Y-29210D01*
X57904Y-29210D01*
X57848Y-29239D01*
X57820Y-29267D01*
X46414Y-29239D02*
X46498Y-29210D01*
X46639Y-29210D01*
X46695Y-29239D01*
X46723Y-29267D01*
X46751Y-29323D01*
X46751Y-29379D01*
X46723Y-29435D01*
X46695Y-29464D01*
X46639Y-29492D01*
X46526Y-29520D01*
X46470Y-29548D01*
X46442Y-29576D01*
X46414Y-29632D01*
X46414Y-29689D01*
X46442Y-29745D01*
X46470Y-29773D01*
X46526Y-29801D01*
X46667Y-29801D01*
X46751Y-29773D01*
X47004Y-29210D02*
X47004Y-29801D01*
X47229Y-29801D01*
X47285Y-29773D01*
X47314Y-29745D01*
X47342Y-29689D01*
X47342Y-29604D01*
X47314Y-29548D01*
X47285Y-29520D01*
X47229Y-29492D01*
X47004Y-29492D01*
X47595Y-29210D02*
X47595Y-29801D01*
X47848Y-29745D02*
X47876Y-29773D01*
X47932Y-29801D01*
X48073Y-29801D01*
X48129Y-29773D01*
X48157Y-29745D01*
X48185Y-29689D01*
X48185Y-29632D01*
X48157Y-29548D01*
X47820Y-29210D01*
X48185Y-29210D01*
X41076Y-29801D02*
X41076Y-29323D01*
X41104Y-29267D01*
X41132Y-29239D01*
X41189Y-29210D01*
X41301Y-29210D01*
X41357Y-29239D01*
X41386Y-29267D01*
X41414Y-29323D01*
X41414Y-29801D01*
X41667Y-29379D02*
X41948Y-29379D01*
X41611Y-29210D02*
X41807Y-29801D01*
X42004Y-29210D01*
X42539Y-29210D02*
X42342Y-29492D01*
X42201Y-29210D02*
X42201Y-29801D01*
X42426Y-29801D01*
X42482Y-29773D01*
X42510Y-29745D01*
X42539Y-29689D01*
X42539Y-29604D01*
X42510Y-29548D01*
X42482Y-29520D01*
X42426Y-29492D01*
X42201Y-29492D01*
X42707Y-29801D02*
X43045Y-29801D01*
X42876Y-29210D02*
X42876Y-29801D01*
X43185Y-29801D02*
X43551Y-29801D01*
X43354Y-29576D01*
X43438Y-29576D01*
X43495Y-29548D01*
X43523Y-29520D01*
X43551Y-29464D01*
X43551Y-29323D01*
X43523Y-29267D01*
X43495Y-29239D01*
X43438Y-29210D01*
X43270Y-29210D01*
X43213Y-29239D01*
X43185Y-29267D01*
X71782Y-55629D02*
X71698Y-55657D01*
X71670Y-55685D01*
X71642Y-55742D01*
X71642Y-55826D01*
X71670Y-55882D01*
X71698Y-55910D01*
X71754Y-55939D01*
X71979Y-55939D01*
X71979Y-55348D01*
X71782Y-55348D01*
X71726Y-55376D01*
X71698Y-55404D01*
X71670Y-55460D01*
X71670Y-55517D01*
X71698Y-55573D01*
X71726Y-55601D01*
X71782Y-55629D01*
X71979Y-55629D01*
X71276Y-55348D02*
X71164Y-55348D01*
X71107Y-55376D01*
X71051Y-55432D01*
X71023Y-55545D01*
X71023Y-55742D01*
X71051Y-55854D01*
X71107Y-55910D01*
X71164Y-55939D01*
X71276Y-55939D01*
X71332Y-55910D01*
X71388Y-55854D01*
X71417Y-55742D01*
X71417Y-55545D01*
X71388Y-55432D01*
X71332Y-55376D01*
X71276Y-55348D01*
X70657Y-55348D02*
X70545Y-55348D01*
X70489Y-55376D01*
X70432Y-55432D01*
X70404Y-55545D01*
X70404Y-55742D01*
X70432Y-55854D01*
X70489Y-55910D01*
X70545Y-55939D01*
X70657Y-55939D01*
X70714Y-55910D01*
X70770Y-55854D01*
X70798Y-55742D01*
X70798Y-55545D01*
X70770Y-55432D01*
X70714Y-55376D01*
X70657Y-55348D01*
X70235Y-55348D02*
X69898Y-55348D01*
X70067Y-55939D02*
X70067Y-55348D01*
X69589Y-55348D02*
X69532Y-55348D01*
X69476Y-55376D01*
X69448Y-55404D01*
X69420Y-55460D01*
X69392Y-55573D01*
X69392Y-55714D01*
X69420Y-55826D01*
X69448Y-55882D01*
X69476Y-55910D01*
X69532Y-55939D01*
X69589Y-55939D01*
X69645Y-55910D01*
X69673Y-55882D01*
X69701Y-55826D01*
X69729Y-55714D01*
X69729Y-55573D01*
X69701Y-55460D01*
X69673Y-55404D01*
X69645Y-55376D01*
X69589Y-55348D01*
X67523Y-55848D02*
X67523Y-56326D01*
X67495Y-56382D01*
X67467Y-56410D01*
X67410Y-56439D01*
X67298Y-56439D01*
X67242Y-56410D01*
X67213Y-56382D01*
X67185Y-56326D01*
X67185Y-55848D01*
X66932Y-56270D02*
X66651Y-56270D01*
X66988Y-56439D02*
X66792Y-55848D01*
X66595Y-56439D01*
X66060Y-56439D02*
X66257Y-56157D01*
X66398Y-56439D02*
X66398Y-55848D01*
X66173Y-55848D01*
X66117Y-55876D01*
X66089Y-55904D01*
X66060Y-55960D01*
X66060Y-56045D01*
X66089Y-56101D01*
X66117Y-56129D01*
X66173Y-56157D01*
X66398Y-56157D01*
X65892Y-55848D02*
X65554Y-55848D01*
X65723Y-56439D02*
X65723Y-55848D01*
X65386Y-55904D02*
X65357Y-55876D01*
X65301Y-55848D01*
X65161Y-55848D01*
X65104Y-55876D01*
X65076Y-55904D01*
X65048Y-55960D01*
X65048Y-56017D01*
X65076Y-56101D01*
X65414Y-56439D01*
X65048Y-56439D01*
X63523Y-55848D02*
X63523Y-56326D01*
X63495Y-56382D01*
X63467Y-56410D01*
X63410Y-56439D01*
X63298Y-56439D01*
X63242Y-56410D01*
X63213Y-56382D01*
X63185Y-56326D01*
X63185Y-55848D01*
X62932Y-56270D02*
X62651Y-56270D01*
X62988Y-56439D02*
X62792Y-55848D01*
X62595Y-56439D01*
X62060Y-56439D02*
X62257Y-56157D01*
X62398Y-56439D02*
X62398Y-55848D01*
X62173Y-55848D01*
X62117Y-55876D01*
X62089Y-55904D01*
X62060Y-55960D01*
X62060Y-56045D01*
X62089Y-56101D01*
X62117Y-56129D01*
X62173Y-56157D01*
X62398Y-56157D01*
X61892Y-55848D02*
X61554Y-55848D01*
X61723Y-56439D02*
X61723Y-55848D01*
X61104Y-56045D02*
X61104Y-56439D01*
X61245Y-55820D02*
X61386Y-56242D01*
X61020Y-56242D01*
X59157Y-56439D02*
X59157Y-55848D01*
X58904Y-55904D02*
X58876Y-55876D01*
X58820Y-55848D01*
X58679Y-55848D01*
X58623Y-55876D01*
X58595Y-55904D01*
X58567Y-55960D01*
X58567Y-56017D01*
X58595Y-56101D01*
X58932Y-56439D01*
X58567Y-56439D01*
X57976Y-56382D02*
X58004Y-56410D01*
X58089Y-56439D01*
X58145Y-56439D01*
X58229Y-56410D01*
X58285Y-56354D01*
X58314Y-56298D01*
X58342Y-56185D01*
X58342Y-56101D01*
X58314Y-55989D01*
X58285Y-55932D01*
X58229Y-55876D01*
X58145Y-55848D01*
X58089Y-55848D01*
X58004Y-55876D01*
X57976Y-55904D01*
X57414Y-56439D02*
X57751Y-56439D01*
X57582Y-56439D02*
X57582Y-55848D01*
X57639Y-55932D01*
X57695Y-55989D01*
X57751Y-56017D01*
X55523Y-55848D02*
X55523Y-56326D01*
X55495Y-56382D01*
X55467Y-56410D01*
X55410Y-56439D01*
X55298Y-56439D01*
X55242Y-56410D01*
X55213Y-56382D01*
X55185Y-56326D01*
X55185Y-55848D01*
X54932Y-56270D02*
X54651Y-56270D01*
X54988Y-56439D02*
X54792Y-55848D01*
X54595Y-56439D01*
X54060Y-56439D02*
X54257Y-56157D01*
X54398Y-56439D02*
X54398Y-55848D01*
X54173Y-55848D01*
X54117Y-55876D01*
X54089Y-55904D01*
X54060Y-55960D01*
X54060Y-56045D01*
X54089Y-56101D01*
X54117Y-56129D01*
X54173Y-56157D01*
X54398Y-56157D01*
X53892Y-55848D02*
X53554Y-55848D01*
X53723Y-56439D02*
X53723Y-55848D01*
X53048Y-56439D02*
X53386Y-56439D01*
X53217Y-56439D02*
X53217Y-55848D01*
X53273Y-55932D01*
X53329Y-55989D01*
X53386Y-56017D01*
X51523Y-55848D02*
X51523Y-56326D01*
X51495Y-56382D01*
X51467Y-56410D01*
X51410Y-56439D01*
X51298Y-56439D01*
X51242Y-56410D01*
X51213Y-56382D01*
X51185Y-56326D01*
X51185Y-55848D01*
X50932Y-56270D02*
X50651Y-56270D01*
X50988Y-56439D02*
X50792Y-55848D01*
X50595Y-56439D01*
X50060Y-56439D02*
X50257Y-56157D01*
X50398Y-56439D02*
X50398Y-55848D01*
X50173Y-55848D01*
X50117Y-55876D01*
X50089Y-55904D01*
X50060Y-55960D01*
X50060Y-56045D01*
X50089Y-56101D01*
X50117Y-56129D01*
X50173Y-56157D01*
X50398Y-56157D01*
X49892Y-55848D02*
X49554Y-55848D01*
X49723Y-56439D02*
X49723Y-55848D01*
X49076Y-55848D02*
X49357Y-55848D01*
X49386Y-56129D01*
X49357Y-56101D01*
X49301Y-56073D01*
X49161Y-56073D01*
X49104Y-56101D01*
X49076Y-56129D01*
X49048Y-56185D01*
X49048Y-56326D01*
X49076Y-56382D01*
X49104Y-56410D01*
X49161Y-56439D01*
X49301Y-56439D01*
X49357Y-56410D01*
X49386Y-56382D01*
X47157Y-56439D02*
X47157Y-55848D01*
X46904Y-55904D02*
X46876Y-55876D01*
X46820Y-55848D01*
X46679Y-55848D01*
X46623Y-55876D01*
X46595Y-55904D01*
X46567Y-55960D01*
X46567Y-56017D01*
X46595Y-56101D01*
X46932Y-56439D01*
X46567Y-56439D01*
X45976Y-56382D02*
X46004Y-56410D01*
X46089Y-56439D01*
X46145Y-56439D01*
X46229Y-56410D01*
X46285Y-56354D01*
X46314Y-56298D01*
X46342Y-56185D01*
X46342Y-56101D01*
X46314Y-55989D01*
X46285Y-55932D01*
X46229Y-55876D01*
X46145Y-55848D01*
X46089Y-55848D01*
X46004Y-55876D01*
X45976Y-55904D01*
X45779Y-55848D02*
X45414Y-55848D01*
X45611Y-56073D01*
X45526Y-56073D01*
X45470Y-56101D01*
X45442Y-56129D01*
X45414Y-56185D01*
X45414Y-56326D01*
X45442Y-56382D01*
X45470Y-56410D01*
X45526Y-56439D01*
X45695Y-56439D01*
X45751Y-56410D01*
X45779Y-56382D01*
X43523Y-55848D02*
X43523Y-56326D01*
X43495Y-56382D01*
X43467Y-56410D01*
X43410Y-56439D01*
X43298Y-56439D01*
X43242Y-56410D01*
X43213Y-56382D01*
X43185Y-56326D01*
X43185Y-55848D01*
X42932Y-56270D02*
X42651Y-56270D01*
X42988Y-56439D02*
X42792Y-55848D01*
X42595Y-56439D01*
X42060Y-56439D02*
X42257Y-56157D01*
X42398Y-56439D02*
X42398Y-55848D01*
X42173Y-55848D01*
X42117Y-55876D01*
X42089Y-55904D01*
X42060Y-55960D01*
X42060Y-56045D01*
X42089Y-56101D01*
X42117Y-56129D01*
X42173Y-56157D01*
X42398Y-56157D01*
X41892Y-55848D02*
X41554Y-55848D01*
X41723Y-56439D02*
X41723Y-55848D01*
X41104Y-55848D02*
X41217Y-55848D01*
X41273Y-55876D01*
X41301Y-55904D01*
X41357Y-55989D01*
X41386Y-56101D01*
X41386Y-56326D01*
X41357Y-56382D01*
X41329Y-56410D01*
X41273Y-56439D01*
X41161Y-56439D01*
X41104Y-56410D01*
X41076Y-56382D01*
X41048Y-56326D01*
X41048Y-56185D01*
X41076Y-56129D01*
X41104Y-56101D01*
X41161Y-56073D01*
X41273Y-56073D01*
X41329Y-56101D01*
X41357Y-56129D01*
X41386Y-56185D01*
G54D13*
X75993Y-38901D02*
X75993Y-38698D01*
X75993Y-38800D02*
X75639Y-38800D01*
X75689Y-38766D01*
X75723Y-38732D01*
X75740Y-38698D01*
X75672Y-40698D02*
X75655Y-40715D01*
X75639Y-40749D01*
X75639Y-40833D01*
X75655Y-40867D01*
X75672Y-40884D01*
X75706Y-40901D01*
X75740Y-40901D01*
X75790Y-40884D01*
X75993Y-40681D01*
X75993Y-40901D01*
X75639Y-42681D02*
X75639Y-42901D01*
X75774Y-42783D01*
X75774Y-42833D01*
X75790Y-42867D01*
X75807Y-42884D01*
X75841Y-42901D01*
X75925Y-42901D01*
X75959Y-42884D01*
X75976Y-42867D01*
X75993Y-42833D01*
X75993Y-42732D01*
X75976Y-42698D01*
X75959Y-42681D01*
X75757Y-44867D02*
X75993Y-44867D01*
X75622Y-44783D02*
X75875Y-44698D01*
X75875Y-44918D01*
X75639Y-46884D02*
X75639Y-46715D01*
X75807Y-46698D01*
X75790Y-46715D01*
X75774Y-46749D01*
X75774Y-46833D01*
X75790Y-46867D01*
X75807Y-46884D01*
X75841Y-46901D01*
X75925Y-46901D01*
X75959Y-46884D01*
X75976Y-46867D01*
X75993Y-46833D01*
X75993Y-46749D01*
X75976Y-46715D01*
X75959Y-46698D01*
X75639Y-48867D02*
X75639Y-48800D01*
X75655Y-48766D01*
X75672Y-48749D01*
X75723Y-48715D01*
X75790Y-48698D01*
X75925Y-48698D01*
X75959Y-48715D01*
X75976Y-48732D01*
X75993Y-48766D01*
X75993Y-48833D01*
X75976Y-48867D01*
X75959Y-48884D01*
X75925Y-48901D01*
X75841Y-48901D01*
X75807Y-48884D01*
X75790Y-48867D01*
X75774Y-48833D01*
X75774Y-48766D01*
X75790Y-48732D01*
X75807Y-48715D01*
X75841Y-48698D01*
X58269Y-41805D02*
X58303Y-41789D01*
X58354Y-41789D01*
X58404Y-41805D01*
X58438Y-41839D01*
X58455Y-41873D01*
X58472Y-41940D01*
X58472Y-41991D01*
X58455Y-42059D01*
X58438Y-42092D01*
X58404Y-42126D01*
X58354Y-42143D01*
X58320Y-42143D01*
X58269Y-42126D01*
X58253Y-42109D01*
X58253Y-41991D01*
X58320Y-41991D01*
X58101Y-42143D02*
X58101Y-41789D01*
X57898Y-42143D01*
X57898Y-41789D01*
X57730Y-42143D02*
X57730Y-41789D01*
X57645Y-41789D01*
X57595Y-41805D01*
X57561Y-41839D01*
X57544Y-41873D01*
X57527Y-41940D01*
X57527Y-41991D01*
X57544Y-42059D01*
X57561Y-42092D01*
X57595Y-42126D01*
X57645Y-42143D01*
X57730Y-42143D01*
X57917Y-42789D02*
X58086Y-42789D01*
X58103Y-42957D01*
X58086Y-42940D01*
X58052Y-42924D01*
X57968Y-42924D01*
X57934Y-42940D01*
X57917Y-42957D01*
X57900Y-42991D01*
X57900Y-43075D01*
X57917Y-43109D01*
X57934Y-43126D01*
X57968Y-43143D01*
X58052Y-43143D01*
X58086Y-43126D01*
X58103Y-43109D01*
X57799Y-42789D02*
X57681Y-43143D01*
X57563Y-42789D01*
X57883Y-44109D02*
X57900Y-44126D01*
X57951Y-44143D01*
X57984Y-44143D01*
X58035Y-44126D01*
X58069Y-44092D01*
X58086Y-44059D01*
X58103Y-43991D01*
X58103Y-43940D01*
X58086Y-43873D01*
X58069Y-43839D01*
X58035Y-43805D01*
X57984Y-43789D01*
X57951Y-43789D01*
X57900Y-43805D01*
X57883Y-43822D01*
X57563Y-44143D02*
X57731Y-44143D01*
X57731Y-43789D01*
X58094Y-45143D02*
X58094Y-44789D01*
X58010Y-44789D01*
X57959Y-44805D01*
X57925Y-44839D01*
X57909Y-44873D01*
X57892Y-44940D01*
X57892Y-44991D01*
X57909Y-45059D01*
X57925Y-45092D01*
X57959Y-45126D01*
X58010Y-45143D01*
X58094Y-45143D01*
X57757Y-45042D02*
X57588Y-45042D01*
X57790Y-45143D02*
X57672Y-44789D01*
X57554Y-45143D01*
X42637Y-48739D02*
X42637Y-48148D01*
X42412Y-48148D01*
X42356Y-48176D01*
X42328Y-48204D01*
X42299Y-48260D01*
X42299Y-48345D01*
X42328Y-48401D01*
X42356Y-48429D01*
X42412Y-48457D01*
X42637Y-48457D01*
X42046Y-48739D02*
X42046Y-48148D01*
X41821Y-48148D01*
X41765Y-48176D01*
X41737Y-48204D01*
X41709Y-48260D01*
X41709Y-48345D01*
X41737Y-48401D01*
X41765Y-48429D01*
X41821Y-48457D01*
X42046Y-48457D01*
X41456Y-48739D02*
X41456Y-48148D01*
X41259Y-48570D01*
X41062Y-48148D01*
X41062Y-48739D01*
X42992Y-47148D02*
X42992Y-47626D01*
X42963Y-47682D01*
X42935Y-47710D01*
X42879Y-47739D01*
X42767Y-47739D01*
X42710Y-47710D01*
X42682Y-47682D01*
X42654Y-47626D01*
X42654Y-47148D01*
X42401Y-47570D02*
X42120Y-47570D01*
X42457Y-47739D02*
X42260Y-47148D01*
X42064Y-47739D01*
X41529Y-47739D02*
X41726Y-47457D01*
X41867Y-47739D02*
X41867Y-47148D01*
X41642Y-47148D01*
X41585Y-47176D01*
X41557Y-47204D01*
X41529Y-47260D01*
X41529Y-47345D01*
X41557Y-47401D01*
X41585Y-47429D01*
X41642Y-47457D01*
X41867Y-47457D01*
X41361Y-47148D02*
X41023Y-47148D01*
X41192Y-47739D02*
X41192Y-47148D01*
X41612Y-45739D02*
X41949Y-45739D01*
X41781Y-45739D02*
X41781Y-45148D01*
X41837Y-45232D01*
X41893Y-45289D01*
X41949Y-45317D01*
X41050Y-45739D02*
X41387Y-45739D01*
X41218Y-45739D02*
X41218Y-45148D01*
X41275Y-45232D01*
X41331Y-45289D01*
X41387Y-45317D01*
X41612Y-44739D02*
X41949Y-44739D01*
X41781Y-44739D02*
X41781Y-44148D01*
X41837Y-44232D01*
X41893Y-44289D01*
X41949Y-44317D01*
X41246Y-44148D02*
X41190Y-44148D01*
X41134Y-44176D01*
X41106Y-44204D01*
X41078Y-44260D01*
X41050Y-44373D01*
X41050Y-44514D01*
X41078Y-44626D01*
X41106Y-44682D01*
X41134Y-44710D01*
X41190Y-44739D01*
X41246Y-44739D01*
X41303Y-44710D01*
X41331Y-44682D01*
X41359Y-44626D01*
X41387Y-44514D01*
X41387Y-44373D01*
X41359Y-44260D01*
X41331Y-44204D01*
X41303Y-44176D01*
X41246Y-44148D01*
X41312Y-43739D02*
X41199Y-43739D01*
X41143Y-43710D01*
X41115Y-43682D01*
X41059Y-43598D01*
X41031Y-43485D01*
X41031Y-43260D01*
X41059Y-43204D01*
X41087Y-43176D01*
X41143Y-43148D01*
X41256Y-43148D01*
X41312Y-43176D01*
X41340Y-43204D01*
X41368Y-43260D01*
X41368Y-43401D01*
X41340Y-43457D01*
X41312Y-43485D01*
X41256Y-43514D01*
X41143Y-43514D01*
X41087Y-43485D01*
X41059Y-43457D01*
X41031Y-43401D01*
X41256Y-42301D02*
X41312Y-42273D01*
X41340Y-42245D01*
X41368Y-42189D01*
X41368Y-42160D01*
X41340Y-42104D01*
X41312Y-42076D01*
X41256Y-42048D01*
X41143Y-42048D01*
X41087Y-42076D01*
X41059Y-42104D01*
X41031Y-42160D01*
X41031Y-42189D01*
X41059Y-42245D01*
X41087Y-42273D01*
X41143Y-42301D01*
X41256Y-42301D01*
X41312Y-42329D01*
X41340Y-42357D01*
X41368Y-42414D01*
X41368Y-42526D01*
X41340Y-42582D01*
X41312Y-42610D01*
X41256Y-42639D01*
X41143Y-42639D01*
X41087Y-42610D01*
X41059Y-42582D01*
X41031Y-42526D01*
X41031Y-42414D01*
X41059Y-42357D01*
X41087Y-42329D01*
X41143Y-42301D01*
X41396Y-41148D02*
X41003Y-41148D01*
X41256Y-41739D01*
X41087Y-40048D02*
X41199Y-40048D01*
X41256Y-40076D01*
X41284Y-40104D01*
X41340Y-40189D01*
X41368Y-40301D01*
X41368Y-40526D01*
X41340Y-40582D01*
X41312Y-40610D01*
X41256Y-40639D01*
X41143Y-40639D01*
X41087Y-40610D01*
X41059Y-40582D01*
X41031Y-40526D01*
X41031Y-40385D01*
X41059Y-40329D01*
X41087Y-40301D01*
X41143Y-40273D01*
X41256Y-40273D01*
X41312Y-40301D01*
X41340Y-40329D01*
X41368Y-40385D01*
X41059Y-39148D02*
X41340Y-39148D01*
X41368Y-39429D01*
X41340Y-39401D01*
X41284Y-39373D01*
X41143Y-39373D01*
X41087Y-39401D01*
X41059Y-39429D01*
X41031Y-39485D01*
X41031Y-39626D01*
X41059Y-39682D01*
X41087Y-39710D01*
X41143Y-39739D01*
X41284Y-39739D01*
X41340Y-39710D01*
X41368Y-39682D01*
X41087Y-38345D02*
X41087Y-38739D01*
X41228Y-38120D02*
X41368Y-38542D01*
X41003Y-38542D01*
X41396Y-37148D02*
X41031Y-37148D01*
X41228Y-37373D01*
X41143Y-37373D01*
X41087Y-37401D01*
X41059Y-37429D01*
X41031Y-37485D01*
X41031Y-37626D01*
X41059Y-37682D01*
X41087Y-37710D01*
X41143Y-37739D01*
X41312Y-37739D01*
X41368Y-37710D01*
X41396Y-37682D01*
X41368Y-36204D02*
X41340Y-36176D01*
X41284Y-36148D01*
X41143Y-36148D01*
X41087Y-36176D01*
X41059Y-36204D01*
X41031Y-36260D01*
X41031Y-36317D01*
X41059Y-36401D01*
X41396Y-36739D01*
X41031Y-36739D01*
X41031Y-35739D02*
X41368Y-35739D01*
X41199Y-35739D02*
X41199Y-35148D01*
X41256Y-35232D01*
X41312Y-35289D01*
X41368Y-35317D01*
X41228Y-34148D02*
X41171Y-34148D01*
X41115Y-34176D01*
X41087Y-34204D01*
X41059Y-34260D01*
X41031Y-34373D01*
X41031Y-34514D01*
X41059Y-34626D01*
X41087Y-34682D01*
X41115Y-34710D01*
X41171Y-34739D01*
X41228Y-34739D01*
X41284Y-34710D01*
X41312Y-34682D01*
X41340Y-34626D01*
X41368Y-34514D01*
X41368Y-34373D01*
X41340Y-34260D01*
X41312Y-34204D01*
X41284Y-34176D01*
X41228Y-34148D01*
X64069Y-53989D02*
X63867Y-53989D01*
X63968Y-54343D02*
X63968Y-53989D01*
X63783Y-53989D02*
X63546Y-54343D01*
X63546Y-53989D02*
X63783Y-54343D01*
X56069Y-53989D02*
X55867Y-53989D01*
X55968Y-54343D02*
X55968Y-53989D01*
X55783Y-53989D02*
X55546Y-54343D01*
X55546Y-53989D02*
X55783Y-54343D01*
X52069Y-53989D02*
X51867Y-53989D01*
X51968Y-54343D02*
X51968Y-53989D01*
X51783Y-53989D02*
X51546Y-54343D01*
X51546Y-53989D02*
X51783Y-54343D01*
X44069Y-53989D02*
X43867Y-53989D01*
X43968Y-54343D02*
X43968Y-53989D01*
X43783Y-53989D02*
X43546Y-54343D01*
X43546Y-53989D02*
X43783Y-54343D01*
X43530Y-31610D02*
X43732Y-31610D01*
X43631Y-31256D02*
X43631Y-31610D01*
X43816Y-31610D02*
X44053Y-31256D01*
X44053Y-31610D02*
X43816Y-31256D01*
X68069Y-53989D02*
X67867Y-53989D01*
X67968Y-54343D02*
X67968Y-53989D01*
X67783Y-53989D02*
X67546Y-54343D01*
X67546Y-53989D02*
X67783Y-54343D01*
X42740Y-31256D02*
X42622Y-31425D01*
X42538Y-31256D02*
X42538Y-31610D01*
X42673Y-31610D01*
X42707Y-31594D01*
X42724Y-31577D01*
X42740Y-31543D01*
X42740Y-31492D01*
X42724Y-31459D01*
X42707Y-31442D01*
X42673Y-31425D01*
X42538Y-31425D01*
X42859Y-31610D02*
X43095Y-31256D01*
X43095Y-31610D02*
X42859Y-31256D01*
X66859Y-54343D02*
X66977Y-54174D01*
X67061Y-54343D02*
X67061Y-53989D01*
X66926Y-53989D01*
X66892Y-54005D01*
X66875Y-54022D01*
X66859Y-54056D01*
X66859Y-54107D01*
X66875Y-54140D01*
X66892Y-54157D01*
X66926Y-54174D01*
X67061Y-54174D01*
X66740Y-53989D02*
X66504Y-54343D01*
X66504Y-53989D02*
X66740Y-54343D01*
X62859Y-54343D02*
X62977Y-54174D01*
X63061Y-54343D02*
X63061Y-53989D01*
X62926Y-53989D01*
X62892Y-54005D01*
X62875Y-54022D01*
X62859Y-54056D01*
X62859Y-54107D01*
X62875Y-54140D01*
X62892Y-54157D01*
X62926Y-54174D01*
X63061Y-54174D01*
X62740Y-53989D02*
X62504Y-54343D01*
X62504Y-53989D02*
X62740Y-54343D01*
X54859Y-54343D02*
X54977Y-54174D01*
X55061Y-54343D02*
X55061Y-53989D01*
X54926Y-53989D01*
X54892Y-54005D01*
X54875Y-54022D01*
X54859Y-54056D01*
X54859Y-54107D01*
X54875Y-54140D01*
X54892Y-54157D01*
X54926Y-54174D01*
X55061Y-54174D01*
X54740Y-53989D02*
X54504Y-54343D01*
X54504Y-53989D02*
X54740Y-54343D01*
X50859Y-54343D02*
X50977Y-54174D01*
X51061Y-54343D02*
X51061Y-53989D01*
X50926Y-53989D01*
X50892Y-54005D01*
X50875Y-54022D01*
X50859Y-54056D01*
X50859Y-54107D01*
X50875Y-54140D01*
X50892Y-54157D01*
X50926Y-54174D01*
X51061Y-54174D01*
X50740Y-53989D02*
X50504Y-54343D01*
X50504Y-53989D02*
X50740Y-54343D01*
X42859Y-54343D02*
X42977Y-54174D01*
X43061Y-54343D02*
X43061Y-53989D01*
X42926Y-53989D01*
X42892Y-54005D01*
X42875Y-54022D01*
X42859Y-54056D01*
X42859Y-54107D01*
X42875Y-54140D01*
X42892Y-54157D01*
X42926Y-54174D01*
X43061Y-54174D01*
X42740Y-53989D02*
X42504Y-54343D01*
X42504Y-53989D02*
X42740Y-54343D01*
X75655Y-39530D02*
X75639Y-39496D01*
X75639Y-39445D01*
X75655Y-39395D01*
X75689Y-39361D01*
X75723Y-39344D01*
X75790Y-39327D01*
X75841Y-39327D01*
X75909Y-39344D01*
X75942Y-39361D01*
X75976Y-39395D01*
X75993Y-39445D01*
X75993Y-39479D01*
X75976Y-39530D01*
X75959Y-39546D01*
X75841Y-39546D01*
X75841Y-39479D01*
X75993Y-39698D02*
X75639Y-39698D01*
X75993Y-39901D01*
X75639Y-39901D01*
X75993Y-40069D02*
X75639Y-40069D01*
X75639Y-40154D01*
X75655Y-40204D01*
X75689Y-40238D01*
X75723Y-40255D01*
X75790Y-40272D01*
X75841Y-40272D01*
X75909Y-40255D01*
X75942Y-40238D01*
X75976Y-40204D01*
X75993Y-40154D01*
X75993Y-40069D01*
X75655Y-41530D02*
X75639Y-41496D01*
X75639Y-41445D01*
X75655Y-41395D01*
X75689Y-41361D01*
X75723Y-41344D01*
X75790Y-41327D01*
X75841Y-41327D01*
X75909Y-41344D01*
X75942Y-41361D01*
X75976Y-41395D01*
X75993Y-41445D01*
X75993Y-41479D01*
X75976Y-41530D01*
X75959Y-41546D01*
X75841Y-41546D01*
X75841Y-41479D01*
X75993Y-41698D02*
X75639Y-41698D01*
X75993Y-41901D01*
X75639Y-41901D01*
X75993Y-42069D02*
X75639Y-42069D01*
X75639Y-42154D01*
X75655Y-42204D01*
X75689Y-42238D01*
X75723Y-42255D01*
X75790Y-42272D01*
X75841Y-42272D01*
X75909Y-42255D01*
X75942Y-42238D01*
X75976Y-42204D01*
X75993Y-42154D01*
X75993Y-42069D01*
X75655Y-43530D02*
X75639Y-43496D01*
X75639Y-43445D01*
X75655Y-43395D01*
X75689Y-43361D01*
X75723Y-43344D01*
X75790Y-43327D01*
X75841Y-43327D01*
X75909Y-43344D01*
X75942Y-43361D01*
X75976Y-43395D01*
X75993Y-43445D01*
X75993Y-43479D01*
X75976Y-43530D01*
X75959Y-43546D01*
X75841Y-43546D01*
X75841Y-43479D01*
X75993Y-43698D02*
X75639Y-43698D01*
X75993Y-43901D01*
X75639Y-43901D01*
X75993Y-44069D02*
X75639Y-44069D01*
X75639Y-44154D01*
X75655Y-44204D01*
X75689Y-44238D01*
X75723Y-44255D01*
X75790Y-44272D01*
X75841Y-44272D01*
X75909Y-44255D01*
X75942Y-44238D01*
X75976Y-44204D01*
X75993Y-44154D01*
X75993Y-44069D01*
X75655Y-45530D02*
X75639Y-45496D01*
X75639Y-45445D01*
X75655Y-45395D01*
X75689Y-45361D01*
X75723Y-45344D01*
X75790Y-45327D01*
X75841Y-45327D01*
X75909Y-45344D01*
X75942Y-45361D01*
X75976Y-45395D01*
X75993Y-45445D01*
X75993Y-45479D01*
X75976Y-45530D01*
X75959Y-45546D01*
X75841Y-45546D01*
X75841Y-45479D01*
X75993Y-45698D02*
X75639Y-45698D01*
X75993Y-45901D01*
X75639Y-45901D01*
X75993Y-46069D02*
X75639Y-46069D01*
X75639Y-46154D01*
X75655Y-46204D01*
X75689Y-46238D01*
X75723Y-46255D01*
X75790Y-46272D01*
X75841Y-46272D01*
X75909Y-46255D01*
X75942Y-46238D01*
X75976Y-46204D01*
X75993Y-46154D01*
X75993Y-46069D01*
X75655Y-47530D02*
X75639Y-47496D01*
X75639Y-47445D01*
X75655Y-47395D01*
X75689Y-47361D01*
X75723Y-47344D01*
X75790Y-47327D01*
X75841Y-47327D01*
X75909Y-47344D01*
X75942Y-47361D01*
X75976Y-47395D01*
X75993Y-47445D01*
X75993Y-47479D01*
X75976Y-47530D01*
X75959Y-47546D01*
X75841Y-47546D01*
X75841Y-47479D01*
X75993Y-47698D02*
X75639Y-47698D01*
X75993Y-47901D01*
X75639Y-47901D01*
X75993Y-48069D02*
X75639Y-48069D01*
X75639Y-48154D01*
X75655Y-48204D01*
X75689Y-48238D01*
X75723Y-48255D01*
X75790Y-48272D01*
X75841Y-48272D01*
X75909Y-48255D01*
X75942Y-48238D01*
X75976Y-48204D01*
X75993Y-48154D01*
X75993Y-48069D01*
X75655Y-49530D02*
X75639Y-49496D01*
X75639Y-49445D01*
X75655Y-49395D01*
X75689Y-49361D01*
X75723Y-49344D01*
X75790Y-49327D01*
X75841Y-49327D01*
X75909Y-49344D01*
X75942Y-49361D01*
X75976Y-49395D01*
X75993Y-49445D01*
X75993Y-49479D01*
X75976Y-49530D01*
X75959Y-49546D01*
X75841Y-49546D01*
X75841Y-49479D01*
X75993Y-49698D02*
X75639Y-49698D01*
X75993Y-49901D01*
X75639Y-49901D01*
X75993Y-50069D02*
X75639Y-50069D01*
X75639Y-50154D01*
X75655Y-50204D01*
X75689Y-50238D01*
X75723Y-50255D01*
X75790Y-50272D01*
X75841Y-50272D01*
X75909Y-50255D01*
X75942Y-50238D01*
X75976Y-50204D01*
X75993Y-50154D01*
X75993Y-50069D01*
X62069Y-54005D02*
X62103Y-53989D01*
X62154Y-53989D01*
X62204Y-54005D01*
X62238Y-54039D01*
X62255Y-54073D01*
X62272Y-54140D01*
X62272Y-54191D01*
X62255Y-54259D01*
X62238Y-54292D01*
X62204Y-54326D01*
X62154Y-54343D01*
X62120Y-54343D01*
X62069Y-54326D01*
X62053Y-54309D01*
X62053Y-54191D01*
X62120Y-54191D01*
X61901Y-54343D02*
X61901Y-53989D01*
X61698Y-54343D01*
X61698Y-53989D01*
X61530Y-54343D02*
X61530Y-53989D01*
X61445Y-53989D01*
X61395Y-54005D01*
X61361Y-54039D01*
X61344Y-54073D01*
X61327Y-54140D01*
X61327Y-54191D01*
X61344Y-54259D01*
X61361Y-54292D01*
X61395Y-54326D01*
X61445Y-54343D01*
X61530Y-54343D01*
X54069Y-54005D02*
X54103Y-53989D01*
X54154Y-53989D01*
X54204Y-54005D01*
X54238Y-54039D01*
X54255Y-54073D01*
X54272Y-54140D01*
X54272Y-54191D01*
X54255Y-54259D01*
X54238Y-54292D01*
X54204Y-54326D01*
X54154Y-54343D01*
X54120Y-54343D01*
X54069Y-54326D01*
X54053Y-54309D01*
X54053Y-54191D01*
X54120Y-54191D01*
X53901Y-54343D02*
X53901Y-53989D01*
X53698Y-54343D01*
X53698Y-53989D01*
X53530Y-54343D02*
X53530Y-53989D01*
X53445Y-53989D01*
X53395Y-54005D01*
X53361Y-54039D01*
X53344Y-54073D01*
X53327Y-54140D01*
X53327Y-54191D01*
X53344Y-54259D01*
X53361Y-54292D01*
X53395Y-54326D01*
X53445Y-54343D01*
X53530Y-54343D01*
X46069Y-54005D02*
X46103Y-53989D01*
X46154Y-53989D01*
X46204Y-54005D01*
X46238Y-54039D01*
X46255Y-54073D01*
X46272Y-54140D01*
X46272Y-54191D01*
X46255Y-54259D01*
X46238Y-54292D01*
X46204Y-54326D01*
X46154Y-54343D01*
X46120Y-54343D01*
X46069Y-54326D01*
X46053Y-54309D01*
X46053Y-54191D01*
X46120Y-54191D01*
X45901Y-54343D02*
X45901Y-53989D01*
X45698Y-54343D01*
X45698Y-53989D01*
X45530Y-54343D02*
X45530Y-53989D01*
X45445Y-53989D01*
X45395Y-54005D01*
X45361Y-54039D01*
X45344Y-54073D01*
X45327Y-54140D01*
X45327Y-54191D01*
X45344Y-54259D01*
X45361Y-54292D01*
X45395Y-54326D01*
X45445Y-54343D01*
X45530Y-54343D01*
X42069Y-54005D02*
X42103Y-53989D01*
X42154Y-53989D01*
X42204Y-54005D01*
X42238Y-54039D01*
X42255Y-54073D01*
X42272Y-54140D01*
X42272Y-54191D01*
X42255Y-54259D01*
X42238Y-54292D01*
X42204Y-54326D01*
X42154Y-54343D01*
X42120Y-54343D01*
X42069Y-54326D01*
X42053Y-54309D01*
X42053Y-54191D01*
X42120Y-54191D01*
X41901Y-54343D02*
X41901Y-53989D01*
X41698Y-54343D01*
X41698Y-53989D01*
X41530Y-54343D02*
X41530Y-53989D01*
X41445Y-53989D01*
X41395Y-54005D01*
X41361Y-54039D01*
X41344Y-54073D01*
X41327Y-54140D01*
X41327Y-54191D01*
X41344Y-54259D01*
X41361Y-54292D01*
X41395Y-54326D01*
X41445Y-54343D01*
X41530Y-54343D01*
X61530Y-31594D02*
X61496Y-31610D01*
X61445Y-31610D01*
X61395Y-31594D01*
X61361Y-31560D01*
X61344Y-31526D01*
X61327Y-31459D01*
X61327Y-31408D01*
X61344Y-31340D01*
X61361Y-31307D01*
X61395Y-31273D01*
X61445Y-31256D01*
X61479Y-31256D01*
X61530Y-31273D01*
X61546Y-31290D01*
X61546Y-31408D01*
X61479Y-31408D01*
X61698Y-31256D02*
X61698Y-31610D01*
X61901Y-31256D01*
X61901Y-31610D01*
X62069Y-31256D02*
X62069Y-31610D01*
X62154Y-31610D01*
X62204Y-31594D01*
X62238Y-31560D01*
X62255Y-31526D01*
X62272Y-31459D01*
X62272Y-31408D01*
X62255Y-31340D01*
X62238Y-31307D01*
X62204Y-31273D01*
X62154Y-31256D01*
X62069Y-31256D01*
X55530Y-31594D02*
X55496Y-31610D01*
X55445Y-31610D01*
X55395Y-31594D01*
X55361Y-31560D01*
X55344Y-31526D01*
X55327Y-31459D01*
X55327Y-31408D01*
X55344Y-31340D01*
X55361Y-31307D01*
X55395Y-31273D01*
X55445Y-31256D01*
X55479Y-31256D01*
X55530Y-31273D01*
X55546Y-31290D01*
X55546Y-31408D01*
X55479Y-31408D01*
X55698Y-31256D02*
X55698Y-31610D01*
X55901Y-31256D01*
X55901Y-31610D01*
X56069Y-31256D02*
X56069Y-31610D01*
X56154Y-31610D01*
X56204Y-31594D01*
X56238Y-31560D01*
X56255Y-31526D01*
X56272Y-31459D01*
X56272Y-31408D01*
X56255Y-31340D01*
X56238Y-31307D01*
X56204Y-31273D01*
X56154Y-31256D01*
X56069Y-31256D01*
X51530Y-31594D02*
X51496Y-31610D01*
X51445Y-31610D01*
X51395Y-31594D01*
X51361Y-31560D01*
X51344Y-31526D01*
X51327Y-31459D01*
X51327Y-31408D01*
X51344Y-31340D01*
X51361Y-31307D01*
X51395Y-31273D01*
X51445Y-31256D01*
X51479Y-31256D01*
X51530Y-31273D01*
X51546Y-31290D01*
X51546Y-31408D01*
X51479Y-31408D01*
X51698Y-31256D02*
X51698Y-31610D01*
X51901Y-31256D01*
X51901Y-31610D01*
X52069Y-31256D02*
X52069Y-31610D01*
X52154Y-31610D01*
X52204Y-31594D01*
X52238Y-31560D01*
X52255Y-31526D01*
X52272Y-31459D01*
X52272Y-31408D01*
X52255Y-31340D01*
X52238Y-31307D01*
X52204Y-31273D01*
X52154Y-31256D01*
X52069Y-31256D01*
X45530Y-31594D02*
X45496Y-31610D01*
X45445Y-31610D01*
X45395Y-31594D01*
X45361Y-31560D01*
X45344Y-31526D01*
X45327Y-31459D01*
X45327Y-31408D01*
X45344Y-31340D01*
X45361Y-31307D01*
X45395Y-31273D01*
X45445Y-31256D01*
X45479Y-31256D01*
X45530Y-31273D01*
X45546Y-31290D01*
X45546Y-31408D01*
X45479Y-31408D01*
X45698Y-31256D02*
X45698Y-31610D01*
X45901Y-31256D01*
X45901Y-31610D01*
X46069Y-31256D02*
X46069Y-31610D01*
X46154Y-31610D01*
X46204Y-31594D01*
X46238Y-31560D01*
X46255Y-31526D01*
X46272Y-31459D01*
X46272Y-31408D01*
X46255Y-31340D01*
X46238Y-31307D01*
X46204Y-31273D01*
X46154Y-31256D01*
X46069Y-31256D01*
X41530Y-31594D02*
X41496Y-31610D01*
X41445Y-31610D01*
X41395Y-31594D01*
X41361Y-31560D01*
X41344Y-31526D01*
X41327Y-31459D01*
X41327Y-31408D01*
X41344Y-31340D01*
X41361Y-31307D01*
X41395Y-31273D01*
X41445Y-31256D01*
X41479Y-31256D01*
X41530Y-31273D01*
X41546Y-31290D01*
X41546Y-31408D01*
X41479Y-31408D01*
X41698Y-31256D02*
X41698Y-31610D01*
X41901Y-31256D01*
X41901Y-31610D01*
X42069Y-31256D02*
X42069Y-31610D01*
X42154Y-31610D01*
X42204Y-31594D01*
X42238Y-31560D01*
X42255Y-31526D01*
X42272Y-31459D01*
X42272Y-31408D01*
X42255Y-31340D01*
X42238Y-31307D01*
X42204Y-31273D01*
X42154Y-31256D01*
X42069Y-31256D01*
X66069Y-54005D02*
X66103Y-53989D01*
X66154Y-53989D01*
X66204Y-54005D01*
X66238Y-54039D01*
X66255Y-54073D01*
X66272Y-54140D01*
X66272Y-54191D01*
X66255Y-54259D01*
X66238Y-54292D01*
X66204Y-54326D01*
X66154Y-54343D01*
X66120Y-54343D01*
X66069Y-54326D01*
X66053Y-54309D01*
X66053Y-54191D01*
X66120Y-54191D01*
X65901Y-54343D02*
X65901Y-53989D01*
X65698Y-54343D01*
X65698Y-53989D01*
X65530Y-54343D02*
X65530Y-53989D01*
X65445Y-53989D01*
X65395Y-54005D01*
X65361Y-54039D01*
X65344Y-54073D01*
X65327Y-54140D01*
X65327Y-54191D01*
X65344Y-54259D01*
X65361Y-54292D01*
X65395Y-54326D01*
X65445Y-54343D01*
X65530Y-54343D01*
X60732Y-31610D02*
X60563Y-31610D01*
X60546Y-31442D01*
X60563Y-31459D01*
X60597Y-31475D01*
X60681Y-31475D01*
X60715Y-31459D01*
X60732Y-31442D01*
X60749Y-31408D01*
X60749Y-31324D01*
X60732Y-31290D01*
X60715Y-31273D01*
X60681Y-31256D01*
X60597Y-31256D01*
X60563Y-31273D01*
X60546Y-31290D01*
X60850Y-31610D02*
X60968Y-31256D01*
X61086Y-31610D01*
X54732Y-31610D02*
X54563Y-31610D01*
X54546Y-31442D01*
X54563Y-31459D01*
X54597Y-31475D01*
X54681Y-31475D01*
X54715Y-31459D01*
X54732Y-31442D01*
X54749Y-31408D01*
X54749Y-31324D01*
X54732Y-31290D01*
X54715Y-31273D01*
X54681Y-31256D01*
X54597Y-31256D01*
X54563Y-31273D01*
X54546Y-31290D01*
X54850Y-31610D02*
X54968Y-31256D01*
X55086Y-31610D01*
X50732Y-31610D02*
X50563Y-31610D01*
X50546Y-31442D01*
X50563Y-31459D01*
X50597Y-31475D01*
X50681Y-31475D01*
X50715Y-31459D01*
X50732Y-31442D01*
X50749Y-31408D01*
X50749Y-31324D01*
X50732Y-31290D01*
X50715Y-31273D01*
X50681Y-31256D01*
X50597Y-31256D01*
X50563Y-31273D01*
X50546Y-31290D01*
X50850Y-31610D02*
X50968Y-31256D01*
X51086Y-31610D01*
X40732Y-31610D02*
X40563Y-31610D01*
X40546Y-31442D01*
X40563Y-31459D01*
X40597Y-31475D01*
X40681Y-31475D01*
X40715Y-31459D01*
X40732Y-31442D01*
X40749Y-31408D01*
X40749Y-31324D01*
X40732Y-31290D01*
X40715Y-31273D01*
X40681Y-31256D01*
X40597Y-31256D01*
X40563Y-31273D01*
X40546Y-31290D01*
X40850Y-31610D02*
X40968Y-31256D01*
X41086Y-31610D01*
X64967Y-53989D02*
X65136Y-53989D01*
X65153Y-54157D01*
X65136Y-54140D01*
X65102Y-54124D01*
X65018Y-54124D01*
X64984Y-54140D01*
X64967Y-54157D01*
X64950Y-54191D01*
X64950Y-54275D01*
X64967Y-54309D01*
X64984Y-54326D01*
X65018Y-54343D01*
X65102Y-54343D01*
X65136Y-54326D01*
X65153Y-54309D01*
X64849Y-53989D02*
X64731Y-54343D01*
X64613Y-53989D01*
X60867Y-53989D02*
X61036Y-53989D01*
X61053Y-54157D01*
X61036Y-54140D01*
X61002Y-54124D01*
X60918Y-54124D01*
X60884Y-54140D01*
X60867Y-54157D01*
X60850Y-54191D01*
X60850Y-54275D01*
X60867Y-54309D01*
X60884Y-54326D01*
X60918Y-54343D01*
X61002Y-54343D01*
X61036Y-54326D01*
X61053Y-54309D01*
X60749Y-53989D02*
X60631Y-54343D01*
X60513Y-53989D01*
X56867Y-53989D02*
X57036Y-53989D01*
X57053Y-54157D01*
X57036Y-54140D01*
X57002Y-54124D01*
X56918Y-54124D01*
X56884Y-54140D01*
X56867Y-54157D01*
X56850Y-54191D01*
X56850Y-54275D01*
X56867Y-54309D01*
X56884Y-54326D01*
X56918Y-54343D01*
X57002Y-54343D01*
X57036Y-54326D01*
X57053Y-54309D01*
X56749Y-53989D02*
X56631Y-54343D01*
X56513Y-53989D01*
X52867Y-53989D02*
X53036Y-53989D01*
X53053Y-54157D01*
X53036Y-54140D01*
X53002Y-54124D01*
X52918Y-54124D01*
X52884Y-54140D01*
X52867Y-54157D01*
X52850Y-54191D01*
X52850Y-54275D01*
X52867Y-54309D01*
X52884Y-54326D01*
X52918Y-54343D01*
X53002Y-54343D01*
X53036Y-54326D01*
X53053Y-54309D01*
X52749Y-53989D02*
X52631Y-54343D01*
X52513Y-53989D01*
X48867Y-53989D02*
X49036Y-53989D01*
X49053Y-54157D01*
X49036Y-54140D01*
X49002Y-54124D01*
X48918Y-54124D01*
X48884Y-54140D01*
X48867Y-54157D01*
X48850Y-54191D01*
X48850Y-54275D01*
X48867Y-54309D01*
X48884Y-54326D01*
X48918Y-54343D01*
X49002Y-54343D01*
X49036Y-54326D01*
X49053Y-54309D01*
X48749Y-53989D02*
X48631Y-54343D01*
X48513Y-53989D01*
X44867Y-53989D02*
X45036Y-53989D01*
X45053Y-54157D01*
X45036Y-54140D01*
X45002Y-54124D01*
X44918Y-54124D01*
X44884Y-54140D01*
X44867Y-54157D01*
X44850Y-54191D01*
X44850Y-54275D01*
X44867Y-54309D01*
X44884Y-54326D01*
X44918Y-54343D01*
X45002Y-54343D01*
X45036Y-54326D01*
X45053Y-54309D01*
X44749Y-53989D02*
X44631Y-54343D01*
X44513Y-53989D01*
X40867Y-53989D02*
X41036Y-53989D01*
X41053Y-54157D01*
X41036Y-54140D01*
X41002Y-54124D01*
X40918Y-54124D01*
X40884Y-54140D01*
X40867Y-54157D01*
X40850Y-54191D01*
X40850Y-54275D01*
X40867Y-54309D01*
X40884Y-54326D01*
X40918Y-54343D01*
X41002Y-54343D01*
X41036Y-54326D01*
X41053Y-54309D01*
X40749Y-53989D02*
X40631Y-54343D01*
X40513Y-53989D01*
X44732Y-31610D02*
X44563Y-31610D01*
X44546Y-31442D01*
X44563Y-31459D01*
X44597Y-31475D01*
X44681Y-31475D01*
X44715Y-31459D01*
X44732Y-31442D01*
X44749Y-31408D01*
X44749Y-31324D01*
X44732Y-31290D01*
X44715Y-31273D01*
X44681Y-31256D01*
X44597Y-31256D01*
X44563Y-31273D01*
X44546Y-31290D01*
X44850Y-31610D02*
X44968Y-31256D01*
X45086Y-31610D01*
X42653Y-46429D02*
X42568Y-46457D01*
X42540Y-46485D01*
X42512Y-46542D01*
X42512Y-46626D01*
X42540Y-46682D01*
X42568Y-46710D01*
X42624Y-46739D01*
X42849Y-46739D01*
X42849Y-46148D01*
X42653Y-46148D01*
X42596Y-46176D01*
X42568Y-46204D01*
X42540Y-46260D01*
X42540Y-46317D01*
X42568Y-46373D01*
X42596Y-46401D01*
X42653Y-46429D01*
X42849Y-46429D01*
X42259Y-46739D02*
X42259Y-46148D01*
X41978Y-46739D02*
X41978Y-46148D01*
X41640Y-46739D01*
X41640Y-46148D01*
X41359Y-46739D02*
X41359Y-46148D01*
X41218Y-46148D01*
X41134Y-46176D01*
X41078Y-46232D01*
X41050Y-46289D01*
X41021Y-46401D01*
X41021Y-46485D01*
X41050Y-46598D01*
X41078Y-46654D01*
X41134Y-46710D01*
X41218Y-46739D01*
X41359Y-46739D01*
G54D14*
X75031Y-35750D02*
X75031Y-35375D01*
X75406Y-35337D01*
X75368Y-35375D01*
X75331Y-35450D01*
X75331Y-35637D01*
X75368Y-35712D01*
X75406Y-35750D01*
X75481Y-35787D01*
X75668Y-35787D01*
X75743Y-35750D01*
X75781Y-35712D01*
X75818Y-35637D01*
X75818Y-35450D01*
X75781Y-35375D01*
X75743Y-35337D01*
X75031Y-36012D02*
X75818Y-36274D01*
X75031Y-36537D01*
X75018Y-33350D02*
X74981Y-33275D01*
X74981Y-33162D01*
X75018Y-33050D01*
X75093Y-32975D01*
X75168Y-32937D01*
X75318Y-32900D01*
X75431Y-32900D01*
X75581Y-32937D01*
X75656Y-32975D01*
X75731Y-33050D01*
X75768Y-33162D01*
X75768Y-33237D01*
X75731Y-33350D01*
X75693Y-33387D01*
X75431Y-33387D01*
X75431Y-33237D01*
X75768Y-33725D02*
X74981Y-33725D01*
X75768Y-34174D01*
X74981Y-34174D01*
X75768Y-34549D02*
X74981Y-34549D01*
X74981Y-34737D01*
X75018Y-34849D01*
X75093Y-34924D01*
X75168Y-34962D01*
X75318Y-34999D01*
X75431Y-34999D01*
X75581Y-34962D01*
X75656Y-34924D01*
X75731Y-34849D01*
X75768Y-34737D01*
X75768Y-34549D01*
G54D13*
X67225Y-30053D02*
X67412Y-30053D01*
X67187Y-29940D02*
X67318Y-30334D01*
X67450Y-29940D01*
X67581Y-29940D02*
X67581Y-30334D01*
X67675Y-30334D01*
X67731Y-30315D01*
X67768Y-30278D01*
X67787Y-30240D01*
X67806Y-30165D01*
X67806Y-30109D01*
X67787Y-30034D01*
X67768Y-29996D01*
X67731Y-29959D01*
X67675Y-29940D01*
X67581Y-29940D01*
X68199Y-29978D02*
X68181Y-29959D01*
X68124Y-29940D01*
X68087Y-29940D01*
X68031Y-29959D01*
X67993Y-29996D01*
X67974Y-30034D01*
X67956Y-30109D01*
X67956Y-30165D01*
X67974Y-30240D01*
X67993Y-30278D01*
X68031Y-30315D01*
X68087Y-30334D01*
X68124Y-30334D01*
X68181Y-30315D01*
X68199Y-30296D01*
X68537Y-30203D02*
X68537Y-29940D01*
X68443Y-30353D02*
X68349Y-30071D01*
X68593Y-30071D01*
X67609Y-29507D02*
X67665Y-29488D01*
X67684Y-29469D01*
X67703Y-29432D01*
X67703Y-29375D01*
X67684Y-29338D01*
X67665Y-29319D01*
X67628Y-29300D01*
X67478Y-29300D01*
X67478Y-29694D01*
X67609Y-29694D01*
X67646Y-29675D01*
X67665Y-29657D01*
X67684Y-29619D01*
X67684Y-29582D01*
X67665Y-29544D01*
X67646Y-29525D01*
X67609Y-29507D01*
X67478Y-29507D01*
X67853Y-29413D02*
X68040Y-29413D01*
X67815Y-29300D02*
X67946Y-29694D01*
X68078Y-29300D01*
X68153Y-29694D02*
X68378Y-29694D01*
X68265Y-29300D02*
X68265Y-29694D01*
G54D14*
X71800Y-30218D02*
X71425Y-30218D01*
X71387Y-29843D01*
X71425Y-29881D01*
X71500Y-29918D01*
X71687Y-29918D01*
X71762Y-29881D01*
X71800Y-29843D01*
X71837Y-29768D01*
X71837Y-29581D01*
X71800Y-29506D01*
X71762Y-29468D01*
X71687Y-29431D01*
X71500Y-29431D01*
X71425Y-29468D01*
X71387Y-29506D01*
X72062Y-30218D02*
X72324Y-29431D01*
X72587Y-30218D01*
X69350Y-30181D02*
X69275Y-30218D01*
X69162Y-30218D01*
X69050Y-30181D01*
X68975Y-30106D01*
X68937Y-30031D01*
X68900Y-29881D01*
X68900Y-29768D01*
X68937Y-29618D01*
X68975Y-29543D01*
X69050Y-29468D01*
X69162Y-29431D01*
X69237Y-29431D01*
X69350Y-29468D01*
X69387Y-29506D01*
X69387Y-29768D01*
X69237Y-29768D01*
X69725Y-29431D02*
X69725Y-30218D01*
X70174Y-29431D01*
X70174Y-30218D01*
X70549Y-29431D02*
X70549Y-30218D01*
X70737Y-30218D01*
X70849Y-30181D01*
X70924Y-30106D01*
X70962Y-30031D01*
X70999Y-29881D01*
X70999Y-29768D01*
X70962Y-29618D01*
X70924Y-29543D01*
X70849Y-29468D01*
X70737Y-29431D01*
X70549Y-29431D01*
%LPC*%
G54D15*
X38300Y-34500D03*
X39300Y-34500D03*
X40300Y-34500D03*
X38300Y-35500D03*
X39300Y-35500D03*
X40300Y-35500D03*
X38300Y-36500D03*
X39300Y-36500D03*
X40300Y-36500D03*
X38300Y-37500D03*
X39300Y-37500D03*
X40300Y-37500D03*
X38300Y-38500D03*
X39300Y-38500D03*
X40300Y-38500D03*
X38300Y-39500D03*
X39300Y-39500D03*
X40300Y-39500D03*
X38300Y-40500D03*
X39300Y-40500D03*
X40300Y-40500D03*
X38300Y-41500D03*
X39300Y-41500D03*
X40300Y-41500D03*
X38300Y-42500D03*
X39300Y-42500D03*
X40300Y-42500D03*
X38300Y-43500D03*
X39300Y-43500D03*
X40300Y-43500D03*
X38300Y-44500D03*
X39300Y-44500D03*
X40300Y-44500D03*
X38300Y-45500D03*
X39300Y-45500D03*
X40300Y-45500D03*
X38300Y-46500D03*
X39300Y-46500D03*
X40300Y-46500D03*
X38300Y-47500D03*
X39300Y-47500D03*
X40300Y-47500D03*
X38300Y-48500D03*
X39300Y-48500D03*
X40300Y-48500D03*
X57000Y-42000D03*
X57000Y-41000D03*
X57000Y-43000D03*
X57000Y-44000D03*
X57000Y-45000D03*
X67300Y-52269D03*
X67300Y-53269D03*
X66300Y-52269D03*
X66300Y-53269D03*
X65300Y-52269D03*
X65300Y-53269D03*
X64300Y-52269D03*
X64300Y-53269D03*
X63300Y-52269D03*
X63300Y-53269D03*
X62300Y-52269D03*
X62300Y-53269D03*
X61300Y-52269D03*
X61300Y-53269D03*
X60300Y-52269D03*
X60300Y-53269D03*
X59300Y-52269D03*
X59300Y-53269D03*
X58300Y-52269D03*
X58300Y-53269D03*
X57300Y-52269D03*
X57300Y-53269D03*
X56300Y-52269D03*
X56300Y-53269D03*
X55300Y-52269D03*
X55300Y-53269D03*
X54300Y-52269D03*
X54300Y-53269D03*
X53300Y-52269D03*
X53300Y-53269D03*
X52300Y-52269D03*
X52300Y-53269D03*
X51300Y-52269D03*
X51300Y-53269D03*
X50300Y-52269D03*
X50300Y-53269D03*
X49300Y-52269D03*
X49300Y-53269D03*
X48300Y-52269D03*
X48300Y-53269D03*
X47300Y-52269D03*
X47300Y-53269D03*
X46300Y-52269D03*
X46300Y-53269D03*
X45300Y-52269D03*
X45300Y-53269D03*
X44300Y-52269D03*
X44300Y-53269D03*
X43300Y-52269D03*
X43300Y-53269D03*
G54D16*
X74950Y-38800D03*
G54D17*
X74950Y-39800D03*
X74950Y-40800D03*
X74950Y-41800D03*
X74950Y-42800D03*
X74950Y-43800D03*
X74950Y-44800D03*
X74950Y-45800D03*
X74950Y-46800D03*
X74950Y-47800D03*
X74950Y-48800D03*
X74950Y-49800D03*
G54D18*
X47800Y-55100D03*
G54D19*
X46800Y-55100D03*
X45800Y-55100D03*
X44800Y-55100D03*
G54D18*
X53800Y-30550D03*
G54D19*
X52800Y-30550D03*
X51800Y-30550D03*
X50800Y-30550D03*
G54D18*
X59800Y-55100D03*
G54D19*
X58800Y-55100D03*
X57800Y-55100D03*
X56800Y-55100D03*
G54D18*
X43800Y-55100D03*
G54D19*
X42800Y-55100D03*
X41800Y-55100D03*
X40800Y-55100D03*
G54D18*
X51800Y-55100D03*
G54D19*
X50800Y-55100D03*
X49800Y-55100D03*
X48800Y-55100D03*
G54D18*
X63800Y-55100D03*
G54D19*
X62800Y-55100D03*
X61800Y-55100D03*
X60800Y-55100D03*
G54D18*
X43800Y-30550D03*
G54D19*
X42800Y-30550D03*
X41800Y-30550D03*
X40800Y-30550D03*
G54D18*
X67800Y-55100D03*
G54D19*
X66800Y-55100D03*
X65800Y-55100D03*
X64800Y-55100D03*
G54D18*
X55800Y-55100D03*
G54D19*
X54800Y-55100D03*
X53800Y-55100D03*
X52800Y-55100D03*
G54D15*
X65987Y-32329D03*
X65987Y-33329D03*
X64987Y-32329D03*
X64987Y-33329D03*
X63987Y-32329D03*
X63987Y-33329D03*
X62987Y-32329D03*
X62987Y-33329D03*
X61987Y-32329D03*
X61987Y-33329D03*
X60987Y-32329D03*
X60987Y-33329D03*
X59987Y-32329D03*
X59987Y-33329D03*
X58987Y-32329D03*
X58987Y-33329D03*
X57987Y-32329D03*
X57987Y-33329D03*
X56987Y-32329D03*
X56987Y-33329D03*
X55987Y-32329D03*
X55987Y-33329D03*
X54987Y-32329D03*
X54987Y-33329D03*
X53987Y-32329D03*
X53987Y-33329D03*
X52987Y-32329D03*
X52987Y-33329D03*
X51987Y-32329D03*
X51987Y-33329D03*
X50987Y-32329D03*
X50987Y-33329D03*
X49987Y-32329D03*
X49987Y-33329D03*
X48987Y-32329D03*
X48987Y-33329D03*
X47987Y-32329D03*
X47987Y-33329D03*
X46987Y-32329D03*
X46987Y-33329D03*
X45987Y-32329D03*
X45987Y-33329D03*
X44987Y-32329D03*
X44987Y-33329D03*
X43987Y-32329D03*
X43987Y-33329D03*
X42987Y-32329D03*
X42987Y-33329D03*
X41987Y-32329D03*
X41987Y-33329D03*
G54D18*
X59800Y-30550D03*
G54D19*
X58800Y-30550D03*
X57800Y-30550D03*
X56800Y-30550D03*
X55800Y-30550D03*
X54800Y-30550D03*
G54D18*
X65800Y-30550D03*
G54D19*
X64800Y-30550D03*
X63800Y-30550D03*
X62800Y-30550D03*
X61800Y-30550D03*
X60800Y-30550D03*
G54D18*
X49800Y-30550D03*
G54D19*
X48800Y-30550D03*
X47800Y-30550D03*
X46800Y-30550D03*
X45800Y-30550D03*
X44800Y-30550D03*
G54D20*
X38750Y-50300D03*
G54D21*
X38750Y-52300D03*
G54D17*
X65600Y-45100D03*
X65600Y-46100D03*
G54D22*
X38550Y-54850D03*
X38550Y-30800D03*
X74400Y-30800D03*
X74400Y-54850D03*
G54D23*
X44100Y-44500D03*
X46100Y-44500D03*
G54D21*
X71879Y-52414D03*
X69320Y-52414D03*
X69320Y-54185D03*
X71879Y-54185D03*
G54D20*
X71950Y-31000D03*
G54D21*
X69950Y-31000D03*
X67950Y-31000D03*
G54D17*
X65600Y-47300D03*
X65600Y-48300D03*
X65600Y-49500D03*
X65600Y-50500D03*
X68400Y-34350D03*
X67400Y-34350D03*
X46800Y-50600D03*
X46800Y-47600D03*
X73550Y-43900D03*
X70550Y-43900D03*
X69650Y-43900D03*
X66650Y-43900D03*
X73550Y-46100D03*
X70550Y-46100D03*
X69650Y-41700D03*
X66650Y-41700D03*
X73550Y-41700D03*
X70550Y-41700D03*
X69650Y-46100D03*
X66650Y-46100D03*
X69650Y-48300D03*
X66650Y-48300D03*
X69650Y-39500D03*
X66650Y-39500D03*
X73550Y-39500D03*
X70550Y-39500D03*
X73550Y-50500D03*
X70550Y-50500D03*
X69650Y-50500D03*
X66650Y-50500D03*
X73550Y-48300D03*
X70550Y-48300D03*
X49700Y-50200D03*
X49700Y-47200D03*
X49000Y-44500D03*
X52000Y-44500D03*
G54D21*
X74200Y-35900D03*
X74200Y-33900D03*
G54D10*
G36*
X51938Y-46900D02*
X51492Y-47345D01*
X51047Y-46900D01*
X51492Y-46454D01*
X51938Y-46900D01*
X51938Y-46900D01*
G37*
G54D17*
X52200Y-47607D03*
X52907Y-46900D03*
X65600Y-42900D03*
X65600Y-43900D03*
X40950Y-50800D03*
X40950Y-49800D03*
X65600Y-40700D03*
X65600Y-41700D03*
X65600Y-38500D03*
X65600Y-39500D03*
G54D24*
X71500Y-35950D03*
G54D23*
X69500Y-35950D03*
G54D24*
X44450Y-50500D03*
G54D23*
X44450Y-48500D03*
G54D25*
X70550Y-40600D03*
G54D26*
X73550Y-40600D03*
G54D25*
X52000Y-45700D03*
G54D26*
X49000Y-45700D03*
G54D25*
X42050Y-52050D03*
G54D26*
X42050Y-49050D03*
G54D25*
X71800Y-33200D03*
G54D26*
X68800Y-33200D03*
G54D25*
X70550Y-49400D03*
G54D26*
X73550Y-49400D03*
G54D25*
X66650Y-49400D03*
G54D26*
X69650Y-49400D03*
G54D25*
X70550Y-47200D03*
G54D26*
X73550Y-47200D03*
G54D25*
X66650Y-47200D03*
G54D26*
X69650Y-47200D03*
G54D25*
X66650Y-38400D03*
G54D26*
X69650Y-38400D03*
G54D25*
X70550Y-45000D03*
G54D26*
X73550Y-45000D03*
G54D25*
X66650Y-45000D03*
G54D26*
X69650Y-45000D03*
G54D25*
X70550Y-38400D03*
G54D26*
X73550Y-38400D03*
G54D25*
X66650Y-40600D03*
G54D26*
X69650Y-40600D03*
G54D25*
X70550Y-42800D03*
G54D26*
X73550Y-42800D03*
G54D25*
X66650Y-42800D03*
G54D26*
X69650Y-42800D03*
G54D15*
X56000Y-41000D03*
X55000Y-41000D03*
X54000Y-41000D03*
X53000Y-41000D03*
X52000Y-41000D03*
X52000Y-40000D03*
X52000Y-39000D03*
X53000Y-39000D03*
X53000Y-40000D03*
X54000Y-39000D03*
X54000Y-40000D03*
X55000Y-40000D03*
X56000Y-42000D03*
X55000Y-42000D03*
X54000Y-42000D03*
X53000Y-42000D03*
X52000Y-42000D03*
X52000Y-43000D03*
X53000Y-43000D03*
X54000Y-43000D03*
X55000Y-43000D03*
X56000Y-43000D03*
X53000Y-44000D03*
X54000Y-44000D03*
X55000Y-44000D03*
X56000Y-44000D03*
X56000Y-45000D03*
X56000Y-46000D03*
X55000Y-46000D03*
X54000Y-45000D03*
X54000Y-46000D03*
X53000Y-45000D03*
X55000Y-45000D03*
X51000Y-43000D03*
X50000Y-43000D03*
X49000Y-43000D03*
X48000Y-43000D03*
X47000Y-43000D03*
X46000Y-43000D03*
X45000Y-43000D03*
X44000Y-43000D03*
X44000Y-42000D03*
X44000Y-41000D03*
X44000Y-40000D03*
X44000Y-39000D03*
X45000Y-39000D03*
X46000Y-39000D03*
X47000Y-39000D03*
X48000Y-39000D03*
X49000Y-39000D03*
X50000Y-39000D03*
X51000Y-39000D03*
X55000Y-39000D03*
X56000Y-40000D03*
X51000Y-40000D03*
X51000Y-41000D03*
X51000Y-42000D03*
X50000Y-42000D03*
X49000Y-42000D03*
X48000Y-42000D03*
X47000Y-42000D03*
X46000Y-42000D03*
X45000Y-42000D03*
X45000Y-41000D03*
X45000Y-40000D03*
X46000Y-40000D03*
X47000Y-40000D03*
X48000Y-40000D03*
X49000Y-40000D03*
X50000Y-40000D03*
X50000Y-41000D03*
X49000Y-41000D03*
X48000Y-41000D03*
X47000Y-41000D03*
X46000Y-41000D03*
M02*
