%FSAX24Y24*%
%MOIN*%
G70*
G01*
G75*
G04 Layer_Color=32896*
%ADD10R,0.0433X0.0394*%
%ADD11R,0.0394X0.0433*%
%ADD12R,0.0315X0.0315*%
%ADD13R,0.0846X0.0157*%
%ADD14R,0.0846X0.0157*%
%ADD15R,0.0472X0.0472*%
%ADD16R,0.0591X0.1299*%
%ADD17R,0.0591X0.0394*%
%ADD18R,0.0197X0.0886*%
%ADD19R,0.0807X0.1575*%
%ADD20R,0.0807X0.1378*%
%ADD21R,0.0807X0.1378*%
%ADD22R,0.0315X0.0591*%
%ADD23R,0.0591X0.0512*%
%ADD24C,0.0100*%
%ADD25C,0.0150*%
%ADD26C,0.0080*%
%ADD27C,0.0350*%
%ADD28C,0.0250*%
%ADD29C,0.0200*%
%ADD30C,0.0591*%
%ADD31R,0.0591X0.0591*%
%ADD32R,0.0591X0.0591*%
%ADD33P,0.2131X8X22.5*%
%ADD34C,0.0700*%
%ADD35O,0.0551X0.0591*%
%ADD36C,0.0500*%
%ADD37C,0.0472*%
%ADD38C,0.0315*%
%ADD39C,0.0276*%
%ADD40C,0.0350*%
%ADD41C,0.0354*%
%ADD42R,0.0787X0.0945*%
%ADD43R,0.0472X0.0354*%
%ADD44O,0.0551X0.0110*%
%ADD45R,0.0551X0.0110*%
%ADD46O,0.0110X0.0551*%
%ADD47O,0.0551X0.0110*%
%ADD48R,0.0433X0.0157*%
%ADD49O,0.0433X0.0157*%
%ADD50R,0.0315X0.0354*%
%ADD51R,0.0354X0.0236*%
%ADD52C,0.0070*%
%ADD53C,0.0090*%
%ADD54C,0.0098*%
%ADD55C,0.0079*%
%ADD56C,0.0050*%
%ADD57C,0.0197*%
%ADD58C,0.0120*%
D24*
X056299Y028346D02*
G03*
X056299Y028346I-001575J000000D01*
G01*
Y015748D02*
G03*
X056299Y015748I-001575J000000D01*
G01*
X027953D02*
G03*
X027953Y015748I-001575J000000D01*
G01*
Y028346D02*
G03*
X027953Y028346I-001575J000000D01*
G01*
X050478Y025810D02*
Y027070D01*
Y023000D02*
Y024260D01*
X025504Y021014D02*
X025976D01*
X035074Y025914D02*
X035546D01*
D52*
X036762Y026943D02*
X036820Y026885D01*
Y026768D01*
X036762Y026710D01*
X036528D01*
X036470Y026768D01*
Y026885D01*
X036528Y026943D01*
X036470Y027293D02*
Y027060D01*
X036703Y027293D01*
X036762D01*
X036820Y027235D01*
Y027118D01*
X036762Y027060D01*
X036820Y027410D02*
Y027643D01*
X036762D01*
X036528Y027410D01*
X036470D01*
X035412Y027383D02*
X035470Y027325D01*
Y027208D01*
X035412Y027150D01*
X035178D01*
X035120Y027208D01*
Y027325D01*
X035178Y027383D01*
X035120Y027733D02*
Y027500D01*
X035353Y027733D01*
X035412D01*
X035470Y027675D01*
Y027558D01*
X035412Y027500D01*
Y027850D02*
X035470Y027908D01*
Y028025D01*
X035412Y028083D01*
X035353D01*
X035295Y028025D01*
Y027966D01*
Y028025D01*
X035237Y028083D01*
X035178D01*
X035120Y028025D01*
Y027908D01*
X035178Y027850D01*
X032190Y027870D02*
Y027578D01*
X032132Y027520D01*
X032015D01*
X031957Y027578D01*
Y027870D01*
X031665Y027520D02*
Y027870D01*
X031840Y027695D01*
X031607D01*
X040342Y016333D02*
X040400Y016275D01*
Y016158D01*
X040342Y016100D01*
X040108D01*
X040050Y016158D01*
Y016275D01*
X040108Y016333D01*
X040050Y016683D02*
Y016450D01*
X040283Y016683D01*
X040342D01*
X040400Y016625D01*
Y016508D01*
X040342Y016450D01*
X040050Y016975D02*
X040400D01*
X040225Y016800D01*
Y017033D01*
X039122Y016313D02*
X039180Y016255D01*
Y016138D01*
X039122Y016080D01*
X038888D01*
X038830Y016138D01*
Y016255D01*
X038888Y016313D01*
X038830Y016663D02*
Y016430D01*
X039063Y016663D01*
X039122D01*
X039180Y016605D01*
Y016488D01*
X039122Y016430D01*
X039180Y017013D02*
Y016780D01*
X039005D01*
X039063Y016896D01*
Y016955D01*
X039005Y017013D01*
X038888D01*
X038830Y016955D01*
Y016838D01*
X038888Y016780D01*
X052740Y028150D02*
Y028500D01*
X052565D01*
X052507Y028442D01*
Y028325D01*
X052565Y028267D01*
X052740D01*
X052623D02*
X052507Y028150D01*
X052390Y028442D02*
X052332Y028500D01*
X052215D01*
X052157Y028442D01*
Y028383D01*
X052215Y028325D01*
X052273D01*
X052215D01*
X052157Y028267D01*
Y028208D01*
X052215Y028150D01*
X052332D01*
X052390Y028208D01*
X051807Y028150D02*
X052040D01*
X051807Y028383D01*
Y028442D01*
X051865Y028500D01*
X051982D01*
X052040Y028442D01*
X042590Y017330D02*
Y017680D01*
X042415D01*
X042357Y017622D01*
Y017505D01*
X042415Y017447D01*
X042590D01*
X042473D02*
X042357Y017330D01*
X042240D02*
X042123D01*
X042182D01*
Y017680D01*
X042240Y017622D01*
X041949Y017388D02*
X041890Y017330D01*
X041774D01*
X041715Y017388D01*
Y017622D01*
X041774Y017680D01*
X041890D01*
X041949Y017622D01*
Y017563D01*
X041890Y017505D01*
X041715D01*
X045530Y019090D02*
X045880D01*
Y019265D01*
X045822Y019323D01*
X045705D01*
X045647Y019265D01*
Y019090D01*
Y019207D02*
X045530Y019323D01*
Y019673D02*
Y019440D01*
X045763Y019673D01*
X045822D01*
X045880Y019615D01*
Y019498D01*
X045822Y019440D01*
X045588Y019790D02*
X045530Y019848D01*
Y019965D01*
X045588Y020023D01*
X045822D01*
X045880Y019965D01*
Y019848D01*
X045822Y019790D01*
X045763D01*
X045705Y019848D01*
Y020023D01*
X046120Y019090D02*
X046470D01*
Y019265D01*
X046412Y019323D01*
X046295D01*
X046237Y019265D01*
Y019090D01*
Y019207D02*
X046120Y019323D01*
Y019673D02*
Y019440D01*
X046353Y019673D01*
X046412D01*
X046470Y019615D01*
Y019498D01*
X046412Y019440D01*
X046470Y020023D02*
Y019790D01*
X046295D01*
X046353Y019906D01*
Y019965D01*
X046295Y020023D01*
X046178D01*
X046120Y019965D01*
Y019848D01*
X046178Y019790D01*
X045252Y019323D02*
X045310Y019265D01*
Y019148D01*
X045252Y019090D01*
X045018D01*
X044960Y019148D01*
Y019265D01*
X045018Y019323D01*
X045252Y019440D02*
X045310Y019498D01*
Y019615D01*
X045252Y019673D01*
X045193D01*
X045135Y019615D01*
Y019557D01*
Y019615D01*
X045077Y019673D01*
X045018D01*
X044960Y019615D01*
Y019498D01*
X045018Y019440D01*
X044960Y020023D02*
Y019790D01*
X045193Y020023D01*
X045252D01*
X045310Y019965D01*
Y019848D01*
X045252Y019790D01*
X047002Y019313D02*
X047060Y019255D01*
Y019138D01*
X047002Y019080D01*
X046768D01*
X046710Y019138D01*
Y019255D01*
X046768Y019313D01*
X047002Y019430D02*
X047060Y019488D01*
Y019605D01*
X047002Y019663D01*
X046943D01*
X046885Y019605D01*
Y019547D01*
Y019605D01*
X046827Y019663D01*
X046768D01*
X046710Y019605D01*
Y019488D01*
X046768Y019430D01*
X046710Y019780D02*
Y019896D01*
Y019838D01*
X047060D01*
X047002Y019780D01*
X035160Y019050D02*
X035510D01*
Y019225D01*
X035452Y019283D01*
X035335D01*
X035277Y019225D01*
Y019050D01*
Y019167D02*
X035160Y019283D01*
Y019400D02*
Y019517D01*
Y019458D01*
X035510D01*
X035452Y019400D01*
Y019691D02*
X035510Y019750D01*
Y019866D01*
X035452Y019925D01*
X035218D01*
X035160Y019866D01*
Y019750D01*
X035218Y019691D01*
X035452D01*
X042660Y016340D02*
Y016690D01*
X042485D01*
X042427Y016632D01*
Y016515D01*
X042485Y016457D01*
X042660D01*
X042543D02*
X042427Y016340D01*
X042077D02*
X042310D01*
X042077Y016573D01*
Y016632D01*
X042135Y016690D01*
X042252D01*
X042310Y016632D01*
X041960D02*
X041902Y016690D01*
X041785D01*
X041727Y016632D01*
Y016398D01*
X041785Y016340D01*
X041902D01*
X041960Y016398D01*
Y016632D01*
X036470Y020870D02*
Y021220D01*
X036295D01*
X036237Y021162D01*
Y021045D01*
X036295Y020987D01*
X036470D01*
X036353D02*
X036237Y020870D01*
X036120Y021162D02*
X036062Y021220D01*
X035945D01*
X035887Y021162D01*
Y021103D01*
X035945Y021045D01*
X035887Y020987D01*
Y020928D01*
X035945Y020870D01*
X036062D01*
X036120Y020928D01*
Y020987D01*
X036062Y021045D01*
X036120Y021103D01*
Y021162D01*
X036062Y021045D02*
X035945D01*
X040000Y020700D02*
X040350D01*
Y020875D01*
X040292Y020933D01*
X040175D01*
X040117Y020875D01*
Y020700D01*
Y020817D02*
X040000Y020933D01*
Y021050D02*
Y021167D01*
Y021108D01*
X040350D01*
X040292Y021050D01*
X040350Y021575D02*
Y021341D01*
X040175D01*
X040233Y021458D01*
Y021516D01*
X040175Y021575D01*
X040058D01*
X040000Y021516D01*
Y021400D01*
X040058Y021341D01*
X039220Y019270D02*
X038870D01*
Y019095D01*
X038928Y019037D01*
X039045D01*
X039103Y019095D01*
Y019270D01*
Y019153D02*
X039220Y019037D01*
Y018687D02*
Y018920D01*
X038987Y018687D01*
X038928D01*
X038870Y018745D01*
Y018862D01*
X038928Y018920D01*
X039220Y018570D02*
Y018454D01*
Y018512D01*
X038870D01*
X038928Y018570D01*
X035760Y022140D02*
Y022490D01*
X035585D01*
X035527Y022432D01*
Y022315D01*
X035585Y022257D01*
X035760D01*
X035643D02*
X035527Y022140D01*
X035177Y022490D02*
X035410D01*
Y022315D01*
X035293Y022373D01*
X035235D01*
X035177Y022315D01*
Y022198D01*
X035235Y022140D01*
X035352D01*
X035410Y022198D01*
X034422Y016353D02*
X034480Y016295D01*
Y016178D01*
X034422Y016120D01*
X034188D01*
X034130Y016178D01*
Y016295D01*
X034188Y016353D01*
X034130Y016470D02*
Y016587D01*
Y016528D01*
X034480D01*
X034422Y016470D01*
X034188Y016761D02*
X034130Y016820D01*
Y016936D01*
X034188Y016995D01*
X034422D01*
X034480Y016936D01*
Y016820D01*
X034422Y016761D01*
X034363D01*
X034305Y016820D01*
Y016995D01*
X033232Y016373D02*
X033290Y016315D01*
Y016198D01*
X033232Y016140D01*
X032998D01*
X032940Y016198D01*
Y016315D01*
X032998Y016373D01*
X032940Y016490D02*
Y016607D01*
Y016548D01*
X033290D01*
X033232Y016490D01*
Y016781D02*
X033290Y016840D01*
Y016956D01*
X033232Y017015D01*
X033173D01*
X033115Y016956D01*
X033057Y017015D01*
X032998D01*
X032940Y016956D01*
Y016840D01*
X032998Y016781D01*
X033057D01*
X033115Y016840D01*
X033173Y016781D01*
X033232D01*
X033115Y016840D02*
Y016956D01*
X032012Y016373D02*
X032070Y016315D01*
Y016198D01*
X032012Y016140D01*
X031778D01*
X031720Y016198D01*
Y016315D01*
X031778Y016373D01*
X031720Y016490D02*
Y016607D01*
Y016548D01*
X032070D01*
X032012Y016490D01*
X032070Y016781D02*
Y017015D01*
X032012D01*
X031778Y016781D01*
X031720D01*
X030862Y016373D02*
X030920Y016315D01*
Y016198D01*
X030862Y016140D01*
X030628D01*
X030570Y016198D01*
Y016315D01*
X030628Y016373D01*
X030570Y016490D02*
Y016607D01*
Y016548D01*
X030920D01*
X030862Y016490D01*
X030920Y017015D02*
X030862Y016898D01*
X030745Y016781D01*
X030628D01*
X030570Y016840D01*
Y016956D01*
X030628Y017015D01*
X030687D01*
X030745Y016956D01*
Y016781D01*
X052770Y019470D02*
X052537D01*
X052653D01*
Y019120D01*
X052420D02*
X052303D01*
X052362D01*
Y019470D01*
X052420Y019412D01*
X050540Y019100D02*
Y019450D01*
X050365D01*
X050307Y019392D01*
Y019275D01*
X050365Y019217D01*
X050540D01*
X050423D02*
X050307Y019100D01*
X049957D02*
X050190D01*
X049957Y019333D01*
Y019392D01*
X050015Y019450D01*
X050132D01*
X050190Y019392D01*
X049840D02*
X049782Y019450D01*
X049665D01*
X049607Y019392D01*
Y019333D01*
X049665Y019275D01*
X049724D01*
X049665D01*
X049607Y019217D01*
Y019158D01*
X049665Y019100D01*
X049782D01*
X049840Y019158D01*
X050950Y018590D02*
X051300D01*
Y018765D01*
X051242Y018823D01*
X051125D01*
X051067Y018765D01*
Y018590D01*
Y018707D02*
X050950Y018823D01*
Y019173D02*
Y018940D01*
X051183Y019173D01*
X051242D01*
X051300Y019115D01*
Y018998D01*
X051242Y018940D01*
X050950Y019465D02*
X051300D01*
X051125Y019290D01*
Y019523D01*
X053420Y017290D02*
Y017640D01*
X053245D01*
X053187Y017582D01*
Y017465D01*
X053245Y017407D01*
X053420D01*
X053303D02*
X053187Y017290D01*
X052837D02*
X053070D01*
X052837Y017523D01*
Y017582D01*
X052895Y017640D01*
X053012D01*
X053070Y017582D01*
X052487Y017640D02*
X052604Y017582D01*
X052720Y017465D01*
Y017348D01*
X052662Y017290D01*
X052545D01*
X052487Y017348D01*
Y017407D01*
X052545Y017465D01*
X052720D01*
X049990Y017780D02*
Y018130D01*
X049815D01*
X049757Y018072D01*
Y017955D01*
X049815Y017897D01*
X049990D01*
X049873D02*
X049757Y017780D01*
X049640Y018072D02*
X049582Y018130D01*
X049465D01*
X049407Y018072D01*
Y018013D01*
X049465Y017955D01*
X049523D01*
X049465D01*
X049407Y017897D01*
Y017838D01*
X049465Y017780D01*
X049582D01*
X049640Y017838D01*
X049290Y017780D02*
X049174D01*
X049232D01*
Y018130D01*
X049290Y018072D01*
X050490Y016450D02*
X050140D01*
Y016275D01*
X050198Y016217D01*
X050315D01*
X050373Y016275D01*
Y016450D01*
Y016333D02*
X050490Y016217D01*
Y015867D02*
Y016100D01*
X050257Y015867D01*
X050198D01*
X050140Y015925D01*
Y016042D01*
X050198Y016100D01*
Y015750D02*
X050140Y015692D01*
Y015575D01*
X050198Y015517D01*
X050257D01*
X050315Y015575D01*
X050373Y015517D01*
X050432D01*
X050490Y015575D01*
Y015692D01*
X050432Y015750D01*
X050373D01*
X050315Y015692D01*
X050257Y015750D01*
X050198D01*
X050315Y015692D02*
Y015575D01*
X048872Y016853D02*
X048930Y016795D01*
Y016678D01*
X048872Y016620D01*
X048638D01*
X048580Y016678D01*
Y016795D01*
X048638Y016853D01*
X048872Y016970D02*
X048930Y017028D01*
Y017145D01*
X048872Y017203D01*
X048813D01*
X048755Y017145D01*
Y017087D01*
Y017145D01*
X048697Y017203D01*
X048638D01*
X048580Y017145D01*
Y017028D01*
X048638Y016970D01*
X048580Y017495D02*
X048930D01*
X048755Y017320D01*
Y017553D01*
X051927Y016892D02*
X051985Y016950D01*
X052102D01*
X052160Y016892D01*
Y016658D01*
X052102Y016600D01*
X051985D01*
X051927Y016658D01*
X051810Y016892D02*
X051752Y016950D01*
X051635D01*
X051577Y016892D01*
Y016833D01*
X051635Y016775D01*
X051693D01*
X051635D01*
X051577Y016717D01*
Y016658D01*
X051635Y016600D01*
X051752D01*
X051810Y016658D01*
X051460Y016892D02*
X051402Y016950D01*
X051285D01*
X051227Y016892D01*
Y016833D01*
X051285Y016775D01*
X051344D01*
X051285D01*
X051227Y016717D01*
Y016658D01*
X051285Y016600D01*
X051402D01*
X051460Y016658D01*
X034960Y021690D02*
Y021398D01*
X034902Y021340D01*
X034785D01*
X034727Y021398D01*
Y021690D01*
X034377Y021340D02*
X034610D01*
X034377Y021573D01*
Y021632D01*
X034435Y021690D01*
X034552D01*
X034610Y021632D01*
X031212Y020643D02*
X031270Y020585D01*
Y020468D01*
X031212Y020410D01*
X030978D01*
X030920Y020468D01*
Y020585D01*
X030978Y020643D01*
X031270Y020760D02*
Y020993D01*
X031212D01*
X030978Y020760D01*
X030920D01*
X037912Y016313D02*
X037970Y016255D01*
Y016138D01*
X037912Y016080D01*
X037678D01*
X037620Y016138D01*
Y016255D01*
X037678Y016313D01*
X037620Y016663D02*
Y016430D01*
X037853Y016663D01*
X037912D01*
X037970Y016605D01*
Y016488D01*
X037912Y016430D01*
X037970Y017013D02*
X037912Y016896D01*
X037795Y016780D01*
X037678D01*
X037620Y016838D01*
Y016955D01*
X037678Y017013D01*
X037737D01*
X037795Y016955D01*
Y016780D01*
X029632Y016373D02*
X029690Y016315D01*
Y016198D01*
X029632Y016140D01*
X029398D01*
X029340Y016198D01*
Y016315D01*
X029398Y016373D01*
Y016490D02*
X029340Y016548D01*
Y016665D01*
X029398Y016723D01*
X029632D01*
X029690Y016665D01*
Y016548D01*
X029632Y016490D01*
X029573D01*
X029515Y016548D01*
Y016723D01*
X029780Y019080D02*
X030130D01*
Y019255D01*
X030072Y019313D01*
X029955D01*
X029897Y019255D01*
Y019080D01*
Y019197D02*
X029780Y019313D01*
Y019663D02*
Y019430D01*
X030013Y019663D01*
X030072D01*
X030130Y019605D01*
Y019488D01*
X030072Y019430D01*
X030500Y019050D02*
X030850D01*
Y019225D01*
X030792Y019283D01*
X030675D01*
X030617Y019225D01*
Y019050D01*
Y019167D02*
X030500Y019283D01*
X030792Y019400D02*
X030850Y019458D01*
Y019575D01*
X030792Y019633D01*
X030733D01*
X030675Y019575D01*
Y019517D01*
Y019575D01*
X030617Y019633D01*
X030558D01*
X030500Y019575D01*
Y019458D01*
X030558Y019400D01*
X031150Y019110D02*
X031500D01*
Y019285D01*
X031442Y019343D01*
X031325D01*
X031267Y019285D01*
Y019110D01*
Y019227D02*
X031150Y019343D01*
X031500Y019693D02*
X031442Y019577D01*
X031325Y019460D01*
X031208D01*
X031150Y019518D01*
Y019635D01*
X031208Y019693D01*
X031267D01*
X031325Y019635D01*
Y019460D01*
X031800Y017950D02*
X032150D01*
Y018125D01*
X032092Y018183D01*
X031975D01*
X031917Y018125D01*
Y017950D01*
Y018067D02*
X031800Y018183D01*
X032150Y018300D02*
Y018533D01*
X032092D01*
X031858Y018300D01*
X031800D01*
X033010Y017950D02*
X033360D01*
Y018125D01*
X033302Y018183D01*
X033185D01*
X033127Y018125D01*
Y017950D01*
Y018067D02*
X033010Y018183D01*
X033068Y018300D02*
X033010Y018358D01*
Y018475D01*
X033068Y018533D01*
X033302D01*
X033360Y018475D01*
Y018358D01*
X033302Y018300D01*
X033243D01*
X033185Y018358D01*
Y018533D01*
X036060Y024230D02*
X036410D01*
Y024405D01*
X036352Y024463D01*
X036235D01*
X036177Y024405D01*
Y024230D01*
Y024347D02*
X036060Y024463D01*
Y024580D02*
Y024697D01*
Y024638D01*
X036410D01*
X036352Y024580D01*
X036060Y025105D02*
Y024871D01*
X036293Y025105D01*
X036352D01*
X036410Y025046D01*
Y024930D01*
X036352Y024871D01*
X039102Y023513D02*
X039160Y023455D01*
Y023338D01*
X039102Y023280D01*
X038868D01*
X038810Y023338D01*
Y023455D01*
X038868Y023513D01*
X038810Y023630D02*
Y023747D01*
Y023688D01*
X039160D01*
X039102Y023630D01*
X039160Y024155D02*
Y023921D01*
X038985D01*
X039043Y024038D01*
Y024096D01*
X038985Y024155D01*
X038868D01*
X038810Y024096D01*
Y023980D01*
X038868Y023921D01*
X041637Y020532D02*
X041695Y020590D01*
X041812D01*
X041870Y020532D01*
Y020298D01*
X041812Y020240D01*
X041695D01*
X041637Y020298D01*
X041287Y020590D02*
X041403Y020532D01*
X041520Y020415D01*
Y020298D01*
X041462Y020240D01*
X041345D01*
X041287Y020298D01*
Y020357D01*
X041345Y020415D01*
X041520D01*
X040562Y026933D02*
X040620Y026875D01*
Y026758D01*
X040562Y026700D01*
X040328D01*
X040270Y026758D01*
Y026875D01*
X040328Y026933D01*
X040270Y027050D02*
Y027167D01*
Y027108D01*
X040620D01*
X040562Y027050D01*
X040270Y027341D02*
Y027458D01*
Y027400D01*
X040620D01*
X040562Y027341D01*
X045228Y024577D02*
X045170Y024635D01*
Y024752D01*
X045228Y024810D01*
X045462D01*
X045520Y024752D01*
Y024635D01*
X045462Y024577D01*
X045520Y024460D02*
Y024343D01*
Y024402D01*
X045170D01*
X045228Y024460D01*
Y024169D02*
X045170Y024110D01*
Y023994D01*
X045228Y023935D01*
X045462D01*
X045520Y023994D01*
Y024110D01*
X045462Y024169D01*
X045228D01*
X044790Y025810D02*
Y025518D01*
X044732Y025460D01*
X044615D01*
X044557Y025518D01*
Y025810D01*
X044440Y025752D02*
X044382Y025810D01*
X044265D01*
X044207Y025752D01*
Y025693D01*
X044265Y025635D01*
X044323D01*
X044265D01*
X044207Y025577D01*
Y025518D01*
X044265Y025460D01*
X044382D01*
X044440Y025518D01*
X045792Y026903D02*
X045850Y026845D01*
Y026728D01*
X045792Y026670D01*
X045558D01*
X045500Y026728D01*
Y026845D01*
X045558Y026903D01*
X045500Y027020D02*
Y027137D01*
Y027078D01*
X045850D01*
X045792Y027020D01*
X045500Y027545D02*
Y027311D01*
X045733Y027545D01*
X045792D01*
X045850Y027486D01*
Y027370D01*
X045792Y027311D01*
X041912Y026963D02*
X041970Y026905D01*
Y026788D01*
X041912Y026730D01*
X041678D01*
X041620Y026788D01*
Y026905D01*
X041678Y026963D01*
X041620Y027080D02*
Y027197D01*
Y027138D01*
X041970D01*
X041912Y027080D01*
Y027371D02*
X041970Y027430D01*
Y027546D01*
X041912Y027605D01*
X041853D01*
X041795Y027546D01*
Y027488D01*
Y027546D01*
X041737Y027605D01*
X041678D01*
X041620Y027546D01*
Y027430D01*
X041678Y027371D01*
X046187Y028592D02*
X046245Y028650D01*
X046362D01*
X046420Y028592D01*
Y028358D01*
X046362Y028300D01*
X046245D01*
X046187Y028358D01*
X046070Y028592D02*
X046012Y028650D01*
X045895D01*
X045837Y028592D01*
Y028533D01*
X045895Y028475D01*
X045953D01*
X045895D01*
X045837Y028417D01*
Y028358D01*
X045895Y028300D01*
X046012D01*
X046070Y028358D01*
X045487Y028650D02*
X045720D01*
Y028475D01*
X045604Y028533D01*
X045545D01*
X045487Y028475D01*
Y028358D01*
X045545Y028300D01*
X045662D01*
X045720Y028358D01*
X035612Y016363D02*
X035670Y016305D01*
Y016188D01*
X035612Y016130D01*
X035378D01*
X035320Y016188D01*
Y016305D01*
X035378Y016363D01*
X035320Y016713D02*
Y016480D01*
X035553Y016713D01*
X035612D01*
X035670Y016655D01*
Y016538D01*
X035612Y016480D01*
Y016830D02*
X035670Y016888D01*
Y017005D01*
X035612Y017063D01*
X035378D01*
X035320Y017005D01*
Y016888D01*
X035378Y016830D01*
X035612D01*
X036762Y016353D02*
X036820Y016295D01*
Y016178D01*
X036762Y016120D01*
X036528D01*
X036470Y016178D01*
Y016295D01*
X036528Y016353D01*
X036470Y016703D02*
Y016470D01*
X036703Y016703D01*
X036762D01*
X036820Y016645D01*
Y016528D01*
X036762Y016470D01*
X036470Y016820D02*
Y016936D01*
Y016878D01*
X036820D01*
X036762Y016820D01*
X035900Y019080D02*
X036250D01*
Y019255D01*
X036192Y019313D01*
X036075D01*
X036017Y019255D01*
Y019080D01*
Y019197D02*
X035900Y019313D01*
Y019430D02*
Y019547D01*
Y019488D01*
X036250D01*
X036192Y019430D01*
Y019721D02*
X036250Y019780D01*
Y019896D01*
X036192Y019955D01*
X036133D01*
X036075Y019896D01*
Y019838D01*
Y019896D01*
X036017Y019955D01*
X035958D01*
X035900Y019896D01*
Y019780D01*
X035958Y019721D01*
X036570Y019090D02*
X036920D01*
Y019265D01*
X036862Y019323D01*
X036745D01*
X036687Y019265D01*
Y019090D01*
Y019207D02*
X036570Y019323D01*
Y019440D02*
Y019557D01*
Y019498D01*
X036920D01*
X036862Y019440D01*
X036570Y019906D02*
X036920D01*
X036745Y019731D01*
Y019965D01*
X028442Y016373D02*
X028500Y016315D01*
Y016198D01*
X028442Y016140D01*
X028208D01*
X028150Y016198D01*
Y016315D01*
X028208Y016373D01*
X028442Y016490D02*
X028500Y016548D01*
Y016665D01*
X028442Y016723D01*
X028383D01*
X028325Y016665D01*
X028267Y016723D01*
X028208D01*
X028150Y016665D01*
Y016548D01*
X028208Y016490D01*
X028267D01*
X028325Y016548D01*
X028383Y016490D01*
X028442D01*
X028325Y016548D02*
Y016665D01*
X026967Y019812D02*
X027025Y019870D01*
X027142D01*
X027200Y019812D01*
Y019578D01*
X027142Y019520D01*
X027025D01*
X026967Y019578D01*
X026850Y019812D02*
X026792Y019870D01*
X026675D01*
X026617Y019812D01*
Y019753D01*
X026675Y019695D01*
X026733D01*
X026675D01*
X026617Y019637D01*
Y019578D01*
X026675Y019520D01*
X026792D01*
X026850Y019578D01*
X026267Y019870D02*
X026384Y019812D01*
X026500Y019695D01*
Y019578D01*
X026442Y019520D01*
X026325D01*
X026267Y019578D01*
Y019637D01*
X026325Y019695D01*
X026500D01*
X053422Y023713D02*
X053480Y023655D01*
Y023538D01*
X053422Y023480D01*
X053188D01*
X053130Y023538D01*
Y023655D01*
X053188Y023713D01*
X053422Y023830D02*
X053480Y023888D01*
Y024005D01*
X053422Y024063D01*
X053363D01*
X053305Y024005D01*
Y023947D01*
Y024005D01*
X053247Y024063D01*
X053188D01*
X053130Y024005D01*
Y023888D01*
X053188Y023830D01*
X053480Y024180D02*
Y024413D01*
X053422D01*
X053188Y024180D01*
X053130D01*
X049417Y025032D02*
X049475Y025090D01*
X049592D01*
X049650Y025032D01*
Y024798D01*
X049592Y024740D01*
X049475D01*
X049417Y024798D01*
X049300Y025032D02*
X049242Y025090D01*
X049125D01*
X049067Y025032D01*
Y024973D01*
X049125Y024915D01*
X049183D01*
X049125D01*
X049067Y024857D01*
Y024798D01*
X049125Y024740D01*
X049242D01*
X049300Y024798D01*
X048950Y025032D02*
X048892Y025090D01*
X048775D01*
X048717Y025032D01*
Y024973D01*
X048775Y024915D01*
X048717Y024857D01*
Y024798D01*
X048775Y024740D01*
X048892D01*
X048950Y024798D01*
Y024857D01*
X048892Y024915D01*
X048950Y024973D01*
Y025032D01*
X048892Y024915D02*
X048775D01*
X053452Y025893D02*
X053510Y025835D01*
Y025718D01*
X053452Y025660D01*
X053218D01*
X053160Y025718D01*
Y025835D01*
X053218Y025893D01*
X053452Y026010D02*
X053510Y026068D01*
Y026185D01*
X053452Y026243D01*
X053393D01*
X053335Y026185D01*
Y026127D01*
Y026185D01*
X053277Y026243D01*
X053218D01*
X053160Y026185D01*
Y026068D01*
X053218Y026010D01*
Y026360D02*
X053160Y026418D01*
Y026535D01*
X053218Y026593D01*
X053452D01*
X053510Y026535D01*
Y026418D01*
X053452Y026360D01*
X053393D01*
X053335Y026418D01*
Y026593D01*
X025812Y019783D02*
X025870Y019725D01*
Y019608D01*
X025812Y019550D01*
X025578D01*
X025520Y019608D01*
Y019725D01*
X025578Y019783D01*
X025520Y020075D02*
X025870D01*
X025695Y019900D01*
Y020133D01*
X025520Y020250D02*
Y020366D01*
Y020308D01*
X025870D01*
X025812Y020250D01*
X039852Y026953D02*
X039910Y026895D01*
Y026778D01*
X039852Y026720D01*
X039618D01*
X039560Y026778D01*
Y026895D01*
X039618Y026953D01*
X039560Y027245D02*
X039910D01*
X039735Y027070D01*
Y027303D01*
X039560Y027653D02*
Y027420D01*
X039793Y027653D01*
X039852D01*
X039910Y027595D01*
Y027478D01*
X039852Y027420D01*
X036470Y020380D02*
Y020730D01*
X036295D01*
X036237Y020672D01*
Y020555D01*
X036295Y020497D01*
X036470D01*
X036353D02*
X036237Y020380D01*
X036120D02*
X036003D01*
X036062D01*
Y020730D01*
X036120Y020672D01*
X035829D02*
X035770Y020730D01*
X035654D01*
X035595Y020672D01*
Y020613D01*
X035654Y020555D01*
X035595Y020497D01*
Y020438D01*
X035654Y020380D01*
X035770D01*
X035829Y020438D01*
Y020497D01*
X035770Y020555D01*
X035829Y020613D01*
Y020672D01*
X035770Y020555D02*
X035654D01*
X051500Y028150D02*
Y028500D01*
X051325D01*
X051267Y028442D01*
Y028325D01*
X051325Y028267D01*
X051500D01*
X051383D02*
X051267Y028150D01*
X051150Y028442D02*
X051092Y028500D01*
X050975D01*
X050917Y028442D01*
Y028383D01*
X050975Y028325D01*
X051033D01*
X050975D01*
X050917Y028267D01*
Y028208D01*
X050975Y028150D01*
X051092D01*
X051150Y028208D01*
X050800Y028442D02*
X050742Y028500D01*
X050625D01*
X050567Y028442D01*
Y028383D01*
X050625Y028325D01*
X050684D01*
X050625D01*
X050567Y028267D01*
Y028208D01*
X050625Y028150D01*
X050742D01*
X050800Y028208D01*
X047670Y025320D02*
X048020D01*
Y025495D01*
X047962Y025553D01*
X047845D01*
X047787Y025495D01*
Y025320D01*
Y025437D02*
X047670Y025553D01*
X047962Y025670D02*
X048020Y025728D01*
Y025845D01*
X047962Y025903D01*
X047903D01*
X047845Y025845D01*
Y025787D01*
Y025845D01*
X047787Y025903D01*
X047728D01*
X047670Y025845D01*
Y025728D01*
X047728Y025670D01*
X047670Y026195D02*
X048020D01*
X047845Y026020D01*
Y026253D01*
X028190Y020630D02*
X027898D01*
X027840Y020688D01*
Y020805D01*
X027898Y020863D01*
X028190D01*
Y021213D02*
X028132Y021097D01*
X028015Y020980D01*
X027898D01*
X027840Y021038D01*
Y021155D01*
X027898Y021213D01*
X027957D01*
X028015Y021155D01*
Y020980D01*
X037210Y019090D02*
X037560D01*
Y019265D01*
X037502Y019323D01*
X037385D01*
X037327Y019265D01*
Y019090D01*
Y019207D02*
X037210Y019323D01*
Y019440D02*
Y019557D01*
Y019498D01*
X037560D01*
X037502Y019440D01*
X037560Y019731D02*
Y019965D01*
X037502D01*
X037268Y019731D01*
X037210D01*
X050203Y025158D02*
X050145Y025100D01*
X050028D01*
X049970Y025158D01*
Y025392D01*
X050028Y025450D01*
X050145D01*
X050203Y025392D01*
X050495Y025450D02*
Y025100D01*
X050320Y025275D01*
X050553D01*
X050670Y025158D02*
X050728Y025100D01*
X050845D01*
X050903Y025158D01*
Y025392D01*
X050845Y025450D01*
X050728D01*
X050670Y025392D01*
Y025158D01*
X038740Y020650D02*
X039090D01*
Y020825D01*
X039032Y020883D01*
X038915D01*
X038857Y020825D01*
Y020650D01*
Y020767D02*
X038740Y020883D01*
X039032Y021000D02*
X039090Y021058D01*
Y021175D01*
X039032Y021233D01*
X038973D01*
X038915Y021175D01*
Y021117D01*
Y021175D01*
X038857Y021233D01*
X038798D01*
X038740Y021175D01*
Y021058D01*
X038798Y021000D01*
X039090Y021583D02*
Y021350D01*
X038915D01*
X038973Y021466D01*
Y021525D01*
X038915Y021583D01*
X038798D01*
X038740Y021525D01*
Y021408D01*
X038798Y021350D01*
X044332Y016593D02*
X044390Y016535D01*
Y016418D01*
X044332Y016360D01*
X044098D01*
X044040Y016418D01*
Y016535D01*
X044098Y016593D01*
X044040Y016885D02*
X044390D01*
X044215Y016710D01*
Y016943D01*
X044332Y017060D02*
X044390Y017118D01*
Y017235D01*
X044332Y017293D01*
X044273D01*
X044215Y017235D01*
Y017176D01*
Y017235D01*
X044157Y017293D01*
X044098D01*
X044040Y017235D01*
Y017118D01*
X044098Y017060D01*
D56*
X044567Y026676D02*
G03*
X044567Y026676I-000118J000000D01*
G01*
X044111Y024809D02*
G03*
X044111Y024809I-000150J000000D01*
G01*
X033636Y021174D02*
G03*
X033764Y021174I000064J000000D01*
G01*
X051167Y025594D02*
Y027286D01*
X048293D02*
X051167D01*
X048293Y025594D02*
X051167D01*
X048293D02*
Y027286D01*
X044705Y026479D02*
Y027739D01*
X042737D02*
X044705D01*
X042737Y026479D02*
Y027739D01*
Y026479D02*
X044705D01*
X040493Y025278D02*
X044331D01*
X040493Y021341D02*
Y025278D01*
Y021341D02*
X044430D01*
Y025179D01*
X044331Y025278D02*
X044430Y025179D01*
X033764Y021174D02*
X034586D01*
X032814D02*
X033636D01*
X032814Y019126D02*
Y021174D01*
Y019126D02*
X034586D01*
Y021174D01*
X052740Y018110D02*
Y018670D01*
X051540Y018110D02*
X052740D01*
X051540Y018670D02*
X052740D01*
X051540Y018110D02*
Y018670D01*
X051167Y022784D02*
Y024476D01*
X048293D02*
X051167D01*
X048293Y022784D02*
X051167D01*
X048293D02*
Y024476D01*
X027285Y020599D02*
Y021741D01*
X026655D02*
X027285D01*
X026655Y020599D02*
Y021741D01*
X026419Y020796D02*
X026655D01*
X027285D02*
X027521D01*
X026419Y021544D02*
X026655D01*
X027285D02*
X027521D01*
X026419Y021170D02*
X026655D01*
Y020599D02*
X027285D01*
X025425Y021920D02*
X026055D01*
X025425Y020660D02*
Y021920D01*
Y020660D02*
X026055D01*
Y021920D01*
X031860Y025989D02*
Y027171D01*
X032502Y027899D02*
X033958D01*
Y025261D02*
Y027899D01*
X032502Y025261D02*
X033958D01*
X032502D02*
Y027899D01*
X031860Y027171D02*
X032502D01*
X031860Y025989D02*
X032502D01*
X033958Y027485D02*
X034600D01*
X033958Y026580D02*
X034600D01*
X033958Y025674D02*
X034600D01*
X035625Y025560D02*
Y026820D01*
X034995Y025560D02*
X035625D01*
X034995D02*
Y026820D01*
X035625D01*
M02*
