%FSAX24Y24*%
%MOIN*%
G70*
G01*
G75*
G04 Layer_Physical_Order=1*
G04 Layer_Color=255*
%ADD10R,0.0433X0.0394*%
%ADD11R,0.0394X0.0433*%
%ADD12R,0.0315X0.0315*%
%ADD13R,0.0846X0.0157*%
%ADD14R,0.0846X0.0157*%
%ADD15R,0.0472X0.0472*%
%ADD16R,0.0591X0.1299*%
%ADD17R,0.0591X0.0394*%
%ADD18R,0.0197X0.0886*%
%ADD19R,0.0807X0.1575*%
%ADD20R,0.0807X0.1378*%
%ADD21R,0.0807X0.1378*%
%ADD22R,0.0315X0.0591*%
%ADD23R,0.0591X0.0512*%
%ADD24C,0.0100*%
%ADD25C,0.0150*%
%ADD26C,0.0080*%
%ADD27C,0.0350*%
%ADD28C,0.0250*%
%ADD29C,0.0200*%
%ADD30C,0.0591*%
%ADD31R,0.0591X0.0591*%
%ADD32R,0.0591X0.0591*%
%ADD33P,0.2131X8X22.5*%
%ADD34C,0.0700*%
%ADD35O,0.0551X0.0591*%
%ADD36C,0.0500*%
%ADD37C,0.0472*%
%ADD38C,0.0315*%
%ADD39C,0.0276*%
%ADD40C,0.0350*%
%ADD41C,0.0354*%
G36*
X056039Y029026D02*
Y015068D01*
X055404Y014433D01*
X052803D01*
Y015237D01*
X051855D01*
Y014433D01*
X051735D01*
X051676Y014473D01*
X051681Y014500D01*
Y014890D01*
X051676Y014918D01*
X051660Y014941D01*
X051637Y014956D01*
X051610Y014962D01*
X049169D01*
X049141Y014956D01*
X049118Y014941D01*
X049103Y014918D01*
X049097Y014890D01*
Y014500D01*
X049103Y014473D01*
X049043Y014433D01*
X048925D01*
Y015237D01*
X047977D01*
Y014433D01*
X025698D01*
X025063Y015068D01*
Y029026D01*
X025708Y029671D01*
X055394D01*
X056039Y029026D01*
D02*
G37*
%LPC*%
G36*
X052279Y016911D02*
X051855D01*
Y016202D01*
X052279D01*
Y016911D01*
D02*
G37*
G36*
X048925D02*
X048501D01*
Y016202D01*
X048925D01*
Y016911D01*
D02*
G37*
G36*
X051188Y016901D02*
X051070D01*
Y016438D01*
X051188D01*
Y016901D01*
D02*
G37*
G36*
X052803Y016911D02*
X052379D01*
Y016202D01*
X052803D01*
Y016911D01*
D02*
G37*
G36*
X054674Y016802D02*
X054197D01*
X053670Y016275D01*
Y015798D01*
X054674D01*
Y016802D01*
D02*
G37*
G36*
X026905D02*
X026428D01*
Y015798D01*
X027432D01*
Y016275D01*
X026905Y016802D01*
D02*
G37*
G36*
X048401Y016911D02*
X047977D01*
Y016202D01*
X048401D01*
Y016911D01*
D02*
G37*
G36*
X055252Y016802D02*
X054774D01*
Y015798D01*
X055779D01*
Y016275D01*
X055252Y016802D01*
D02*
G37*
G36*
X034900Y017378D02*
X034805Y017366D01*
X034716Y017329D01*
X034639Y017271D01*
X034581Y017194D01*
X034544Y017105D01*
X034532Y017010D01*
X034544Y016915D01*
X034581Y016826D01*
X034639Y016749D01*
X034716Y016691D01*
X034805Y016654D01*
X034900Y016642D01*
X034995Y016654D01*
X035084Y016691D01*
X035161Y016749D01*
X035219Y016826D01*
X035256Y016915D01*
X035268Y017010D01*
X035256Y017105D01*
X035219Y017194D01*
X035161Y017271D01*
X035084Y017329D01*
X034995Y017366D01*
X034900Y017378D01*
D02*
G37*
G36*
X046030Y017368D02*
X045935Y017356D01*
X045846Y017319D01*
X045769Y017261D01*
X045711Y017184D01*
X045674Y017095D01*
X045662Y017000D01*
X045674Y016905D01*
X045711Y016816D01*
X045769Y016739D01*
X045846Y016681D01*
X045935Y016644D01*
X046030Y016632D01*
X046125Y016644D01*
X046214Y016681D01*
X046291Y016739D01*
X046349Y016816D01*
X046386Y016905D01*
X046398Y017000D01*
X046386Y017095D01*
X046349Y017184D01*
X046291Y017261D01*
X046214Y017319D01*
X046125Y017356D01*
X046030Y017368D01*
D02*
G37*
G36*
X028905Y017386D02*
X028810Y017374D01*
X028721Y017337D01*
X028644Y017278D01*
X028586Y017202D01*
X028549Y017113D01*
X028537Y017018D01*
X028549Y016922D01*
X028586Y016833D01*
X028644Y016757D01*
X028721Y016699D01*
X028810Y016662D01*
X028905Y016649D01*
X029000Y016662D01*
X029089Y016699D01*
X029165Y016757D01*
X029224Y016833D01*
X029261Y016922D01*
X029273Y017018D01*
X029261Y017113D01*
X029224Y017202D01*
X029165Y017278D01*
X029089Y017337D01*
X029000Y017374D01*
X028905Y017386D01*
D02*
G37*
G36*
X036060Y017378D02*
X035965Y017366D01*
X035876Y017329D01*
X035799Y017271D01*
X035741Y017194D01*
X035704Y017105D01*
X035692Y017010D01*
X035704Y016915D01*
X035741Y016826D01*
X035799Y016749D01*
X035876Y016691D01*
X035965Y016654D01*
X036060Y016642D01*
X036155Y016654D01*
X036244Y016691D01*
X036321Y016749D01*
X036379Y016826D01*
X036416Y016915D01*
X036428Y017010D01*
X036416Y017105D01*
X036379Y017194D01*
X036321Y017271D01*
X036244Y017329D01*
X036155Y017366D01*
X036060Y017378D01*
D02*
G37*
G36*
X039600Y017368D02*
X039505Y017356D01*
X039416Y017319D01*
X039339Y017261D01*
X039281Y017184D01*
X039244Y017095D01*
X039232Y017000D01*
X039244Y016905D01*
X039281Y016816D01*
X039339Y016739D01*
X039416Y016681D01*
X039505Y016644D01*
X039600Y016632D01*
X039695Y016644D01*
X039784Y016681D01*
X039861Y016739D01*
X039919Y016816D01*
X039956Y016905D01*
X039968Y017000D01*
X039956Y017095D01*
X039919Y017184D01*
X039861Y017261D01*
X039784Y017319D01*
X039695Y017356D01*
X039600Y017368D01*
D02*
G37*
G36*
X037220D02*
X037125Y017356D01*
X037036Y017319D01*
X036959Y017261D01*
X036901Y017184D01*
X036864Y017095D01*
X036852Y017000D01*
X036864Y016905D01*
X036901Y016816D01*
X036959Y016739D01*
X037036Y016681D01*
X037125Y016644D01*
X037220Y016632D01*
X037315Y016644D01*
X037404Y016681D01*
X037481Y016739D01*
X037539Y016816D01*
X037576Y016905D01*
X037588Y017000D01*
X037576Y017095D01*
X037539Y017184D01*
X037481Y017261D01*
X037404Y017319D01*
X037315Y017356D01*
X037220Y017368D01*
D02*
G37*
G36*
X044980D02*
X044885Y017356D01*
X044796Y017319D01*
X044719Y017261D01*
X044661Y017184D01*
X044624Y017095D01*
X044612Y017000D01*
X044624Y016905D01*
X044661Y016816D01*
X044719Y016739D01*
X044796Y016681D01*
X044885Y016644D01*
X044980Y016632D01*
X045075Y016644D01*
X045164Y016681D01*
X045241Y016739D01*
X045299Y016816D01*
X045336Y016905D01*
X045348Y017000D01*
X045336Y017095D01*
X045299Y017184D01*
X045241Y017261D01*
X045164Y017319D01*
X045075Y017356D01*
X044980Y017368D01*
D02*
G37*
G36*
X041250D02*
X041155Y017356D01*
X041066Y017319D01*
X040989Y017261D01*
X040931Y017184D01*
X040894Y017095D01*
X040882Y017000D01*
X040894Y016905D01*
X040931Y016816D01*
X040989Y016739D01*
X041066Y016681D01*
X041155Y016644D01*
X041250Y016632D01*
X041345Y016644D01*
X041434Y016681D01*
X041511Y016739D01*
X041569Y016816D01*
X041606Y016905D01*
X041618Y017000D01*
X041606Y017095D01*
X041569Y017184D01*
X041511Y017261D01*
X041434Y017319D01*
X041345Y017356D01*
X041250Y017368D01*
D02*
G37*
G36*
X046030Y016368D02*
X045935Y016356D01*
X045846Y016319D01*
X045769Y016261D01*
X045711Y016184D01*
X045674Y016095D01*
X045662Y016000D01*
X045674Y015905D01*
X045711Y015816D01*
X045769Y015739D01*
X045846Y015681D01*
X045935Y015644D01*
X046030Y015632D01*
X046125Y015644D01*
X046214Y015681D01*
X046291Y015739D01*
X046349Y015816D01*
X046386Y015905D01*
X046398Y016000D01*
X046386Y016095D01*
X046349Y016184D01*
X046291Y016261D01*
X046214Y016319D01*
X046125Y016356D01*
X046030Y016368D01*
D02*
G37*
G36*
X044980D02*
X044885Y016356D01*
X044796Y016319D01*
X044719Y016261D01*
X044661Y016184D01*
X044624Y016095D01*
X044612Y016000D01*
X044624Y015905D01*
X044661Y015816D01*
X044719Y015739D01*
X044796Y015681D01*
X044885Y015644D01*
X044980Y015632D01*
X045075Y015644D01*
X045164Y015681D01*
X045241Y015739D01*
X045299Y015816D01*
X045336Y015905D01*
X045348Y016000D01*
X045336Y016095D01*
X045299Y016184D01*
X045241Y016261D01*
X045164Y016319D01*
X045075Y016356D01*
X044980Y016368D01*
D02*
G37*
G36*
X036060Y016378D02*
X035965Y016366D01*
X035876Y016329D01*
X035799Y016271D01*
X035741Y016194D01*
X035704Y016105D01*
X035692Y016010D01*
X035704Y015915D01*
X035741Y015826D01*
X035799Y015749D01*
X035876Y015691D01*
X035965Y015654D01*
X036060Y015642D01*
X036155Y015654D01*
X036244Y015691D01*
X036321Y015749D01*
X036379Y015826D01*
X036416Y015915D01*
X036428Y016010D01*
X036416Y016105D01*
X036379Y016194D01*
X036321Y016271D01*
X036244Y016329D01*
X036155Y016366D01*
X036060Y016378D01*
D02*
G37*
G36*
X034900D02*
X034805Y016366D01*
X034716Y016329D01*
X034639Y016271D01*
X034581Y016194D01*
X034544Y016105D01*
X034532Y016010D01*
X034544Y015915D01*
X034581Y015826D01*
X034639Y015749D01*
X034716Y015691D01*
X034805Y015654D01*
X034900Y015642D01*
X034995Y015654D01*
X035084Y015691D01*
X035161Y015749D01*
X035219Y015826D01*
X035256Y015915D01*
X035268Y016010D01*
X035256Y016105D01*
X035219Y016194D01*
X035161Y016271D01*
X035084Y016329D01*
X034995Y016366D01*
X034900Y016378D01*
D02*
G37*
G36*
X052279Y016145D02*
X051855D01*
Y015337D01*
X052279D01*
Y016145D01*
D02*
G37*
G36*
X048925Y016145D02*
X048501D01*
Y015337D01*
X048925D01*
Y016145D01*
D02*
G37*
G36*
X037220Y016368D02*
X037125Y016356D01*
X037036Y016319D01*
X036959Y016261D01*
X036901Y016184D01*
X036864Y016095D01*
X036852Y016000D01*
X036864Y015905D01*
X036901Y015816D01*
X036959Y015739D01*
X037036Y015681D01*
X037125Y015644D01*
X037220Y015632D01*
X037315Y015644D01*
X037404Y015681D01*
X037481Y015739D01*
X037539Y015816D01*
X037576Y015905D01*
X037588Y016000D01*
X037576Y016095D01*
X037539Y016184D01*
X037481Y016261D01*
X037404Y016319D01*
X037315Y016356D01*
X037220Y016368D01*
D02*
G37*
G36*
X052803Y016145D02*
X052379D01*
Y015337D01*
X052803D01*
Y016145D01*
D02*
G37*
G36*
X049524Y016287D02*
X049427Y016268D01*
X049346Y016214D01*
X049291Y016132D01*
X049272Y016035D01*
X049291Y015939D01*
X049346Y015857D01*
X049427Y015803D01*
X049524Y015783D01*
X049620Y015803D01*
X049702Y015857D01*
X049757Y015939D01*
X049776Y016035D01*
X049757Y016132D01*
X049702Y016214D01*
X049620Y016268D01*
X049524Y016287D01*
D02*
G37*
G36*
X047390Y016398D02*
X047295Y016386D01*
X047206Y016349D01*
X047129Y016291D01*
X047071Y016214D01*
X047034Y016125D01*
X047022Y016030D01*
X047034Y015935D01*
X047071Y015846D01*
X047129Y015769D01*
X047206Y015711D01*
X047295Y015674D01*
X047390Y015662D01*
X047485Y015674D01*
X047574Y015711D01*
X047651Y015769D01*
X047709Y015846D01*
X047746Y015935D01*
X047758Y016030D01*
X047746Y016125D01*
X047709Y016214D01*
X047651Y016291D01*
X047574Y016349D01*
X047485Y016386D01*
X047390Y016398D01*
D02*
G37*
G36*
X026328Y016802D02*
X025851D01*
X025324Y016275D01*
Y015798D01*
X026328D01*
Y016802D01*
D02*
G37*
G36*
X051256Y016287D02*
X051160Y016268D01*
X051078Y016214D01*
X051023Y016132D01*
X051004Y016035D01*
X051023Y015939D01*
X051078Y015857D01*
X051160Y015803D01*
X051256Y015783D01*
X051353Y015803D01*
X051434Y015857D01*
X051489Y015939D01*
X051508Y016035D01*
X051489Y016132D01*
X051434Y016214D01*
X051353Y016268D01*
X051256Y016287D01*
D02*
G37*
G36*
X031305Y016386D02*
X031210Y016374D01*
X031121Y016337D01*
X031044Y016278D01*
X030986Y016202D01*
X030949Y016113D01*
X030937Y016018D01*
X030949Y015922D01*
X030986Y015833D01*
X031044Y015757D01*
X031121Y015699D01*
X031210Y015662D01*
X031305Y015649D01*
X031400Y015662D01*
X031489Y015699D01*
X031565Y015757D01*
X031624Y015833D01*
X031661Y015922D01*
X031673Y016018D01*
X031661Y016113D01*
X031624Y016202D01*
X031565Y016278D01*
X031489Y016337D01*
X031400Y016374D01*
X031305Y016386D01*
D02*
G37*
G36*
X030105D02*
X030010Y016374D01*
X029921Y016337D01*
X029844Y016278D01*
X029786Y016202D01*
X029749Y016113D01*
X029737Y016018D01*
X029749Y015922D01*
X029786Y015833D01*
X029844Y015757D01*
X029921Y015699D01*
X030010Y015662D01*
X030105Y015649D01*
X030200Y015662D01*
X030289Y015699D01*
X030365Y015757D01*
X030424Y015833D01*
X030461Y015922D01*
X030473Y016018D01*
X030461Y016113D01*
X030424Y016202D01*
X030365Y016278D01*
X030289Y016337D01*
X030200Y016374D01*
X030105Y016386D01*
D02*
G37*
G36*
X033705D02*
X033610Y016374D01*
X033521Y016337D01*
X033444Y016278D01*
X033386Y016202D01*
X033349Y016113D01*
X033337Y016018D01*
X033349Y015922D01*
X033386Y015833D01*
X033444Y015757D01*
X033521Y015699D01*
X033610Y015662D01*
X033705Y015649D01*
X033800Y015662D01*
X033889Y015699D01*
X033965Y015757D01*
X034024Y015833D01*
X034061Y015922D01*
X034073Y016018D01*
X034061Y016113D01*
X034024Y016202D01*
X033965Y016278D01*
X033889Y016337D01*
X033800Y016374D01*
X033705Y016386D01*
D02*
G37*
G36*
X032505D02*
X032410Y016374D01*
X032321Y016337D01*
X032244Y016278D01*
X032186Y016202D01*
X032149Y016113D01*
X032137Y016018D01*
X032149Y015922D01*
X032186Y015833D01*
X032244Y015757D01*
X032321Y015699D01*
X032410Y015662D01*
X032505Y015649D01*
X032600Y015662D01*
X032689Y015699D01*
X032765Y015757D01*
X032824Y015833D01*
X032861Y015922D01*
X032873Y016018D01*
X032861Y016113D01*
X032824Y016202D01*
X032765Y016278D01*
X032689Y016337D01*
X032600Y016374D01*
X032505Y016386D01*
D02*
G37*
G36*
X032020Y019055D02*
X031566D01*
Y018325D01*
X032020D01*
Y019055D01*
D02*
G37*
G36*
X031233D02*
X030778D01*
Y018325D01*
X031233D01*
Y019055D01*
D02*
G37*
G36*
X033595D02*
X033140D01*
Y018325D01*
X033595D01*
Y019055D01*
D02*
G37*
G36*
X032808D02*
X032353D01*
Y018325D01*
X032808D01*
Y019055D01*
D02*
G37*
G36*
X029621Y018237D02*
X029385D01*
Y018020D01*
X029621D01*
Y018237D01*
D02*
G37*
G36*
X029285D02*
X029048D01*
Y018020D01*
X029285D01*
Y018237D01*
D02*
G37*
G36*
X026075Y018605D02*
X025760D01*
Y018290D01*
X026075D01*
Y018605D01*
D02*
G37*
G36*
X025660D02*
X025345D01*
Y018290D01*
X025660D01*
Y018605D01*
D02*
G37*
G36*
X053901Y018570D02*
X053665D01*
Y018353D01*
X053901D01*
Y018570D01*
D02*
G37*
G36*
X053565D02*
X053328D01*
Y018353D01*
X053565D01*
Y018570D01*
D02*
G37*
G36*
X041250Y019398D02*
X041155Y019386D01*
X041066Y019349D01*
X040989Y019291D01*
X040931Y019214D01*
X040894Y019125D01*
X040882Y019030D01*
X040894Y018935D01*
X040931Y018846D01*
X040989Y018769D01*
X041066Y018711D01*
X041155Y018674D01*
X041250Y018662D01*
X041345Y018674D01*
X041434Y018711D01*
X041511Y018769D01*
X041569Y018846D01*
X041606Y018935D01*
X041618Y019030D01*
X041606Y019125D01*
X041569Y019214D01*
X041511Y019291D01*
X041434Y019349D01*
X041345Y019386D01*
X041250Y019398D01*
D02*
G37*
G36*
X048757Y018622D02*
X048223D01*
Y018458D01*
X047695D01*
X047649Y018448D01*
X047609Y018422D01*
X047547Y018360D01*
X047485Y018386D01*
X047390Y018398D01*
X047295Y018386D01*
X047206Y018349D01*
X047129Y018291D01*
X047071Y018214D01*
X047034Y018125D01*
X047022Y018030D01*
X047034Y017935D01*
X047071Y017846D01*
X047129Y017769D01*
X047206Y017711D01*
X047295Y017674D01*
X047390Y017662D01*
X047485Y017674D01*
X047574Y017711D01*
X047651Y017769D01*
X047709Y017846D01*
X047746Y017935D01*
X047758Y018030D01*
X047746Y018125D01*
X047720Y018187D01*
X047746Y018213D01*
X048223D01*
Y018049D01*
X048757D01*
Y018115D01*
X048803Y018134D01*
X049592Y017345D01*
Y016438D01*
X049852D01*
X049876Y016394D01*
X049846Y016349D01*
X049828Y016260D01*
X049846Y016171D01*
X049896Y016096D01*
X049971Y016046D01*
X050060Y016028D01*
X050109Y016038D01*
X050148Y016030D01*
X050166Y015941D01*
X050216Y015866D01*
X050291Y015816D01*
X050380Y015798D01*
X050469Y015816D01*
X050544Y015866D01*
X050594Y015941D01*
X050612Y016030D01*
X050594Y016119D01*
X050544Y016194D01*
X050512Y016215D01*
Y016438D01*
X050970D01*
Y016951D01*
Y017464D01*
X049819D01*
X048861Y018422D01*
X048821Y018448D01*
X048775Y018458D01*
X048757D01*
Y018622D01*
D02*
G37*
G36*
X035170Y019055D02*
X034715D01*
Y018325D01*
X035170D01*
Y019055D01*
D02*
G37*
G36*
X034383D02*
X033928D01*
Y018325D01*
X034383D01*
Y019055D01*
D02*
G37*
G36*
X035957Y018640D02*
X035780D01*
Y018325D01*
X035957D01*
Y018640D01*
D02*
G37*
G36*
X035680D02*
X035503D01*
Y018325D01*
X035680D01*
Y018640D01*
D02*
G37*
G36*
X051188Y017464D02*
X051070D01*
Y017001D01*
X051188D01*
Y017464D01*
D02*
G37*
G36*
X047390Y017398D02*
X047295Y017386D01*
X047206Y017349D01*
X047129Y017291D01*
X047071Y017214D01*
X047034Y017125D01*
X047022Y017030D01*
X047034Y016935D01*
X047071Y016846D01*
X047129Y016769D01*
X047206Y016711D01*
X047295Y016674D01*
X047390Y016662D01*
X047485Y016674D01*
X047574Y016711D01*
X047651Y016769D01*
X047709Y016846D01*
X047746Y016935D01*
X047758Y017030D01*
X047746Y017125D01*
X047709Y017214D01*
X047651Y017291D01*
X047574Y017349D01*
X047485Y017386D01*
X047390Y017398D01*
D02*
G37*
G36*
X048925Y017720D02*
X048501D01*
Y017011D01*
X048925D01*
Y017720D01*
D02*
G37*
G36*
X048401D02*
X047977D01*
Y017011D01*
X048401D01*
Y017720D01*
D02*
G37*
G36*
X031305Y017386D02*
X031210Y017374D01*
X031121Y017337D01*
X031044Y017278D01*
X030986Y017202D01*
X030949Y017113D01*
X030937Y017018D01*
X030949Y016922D01*
X030986Y016833D01*
X031044Y016757D01*
X031121Y016699D01*
X031210Y016662D01*
X031305Y016649D01*
X031400Y016662D01*
X031489Y016699D01*
X031565Y016757D01*
X031624Y016833D01*
X031661Y016922D01*
X031673Y017018D01*
X031661Y017113D01*
X031624Y017202D01*
X031565Y017278D01*
X031489Y017337D01*
X031400Y017374D01*
X031305Y017386D01*
D02*
G37*
G36*
X030105D02*
X030010Y017374D01*
X029921Y017337D01*
X029844Y017278D01*
X029786Y017202D01*
X029749Y017113D01*
X029737Y017018D01*
X029749Y016922D01*
X029786Y016833D01*
X029844Y016757D01*
X029921Y016699D01*
X030010Y016662D01*
X030105Y016649D01*
X030200Y016662D01*
X030289Y016699D01*
X030365Y016757D01*
X030424Y016833D01*
X030461Y016922D01*
X030473Y017018D01*
X030461Y017113D01*
X030424Y017202D01*
X030365Y017278D01*
X030289Y017337D01*
X030200Y017374D01*
X030105Y017386D01*
D02*
G37*
G36*
X033705D02*
X033610Y017374D01*
X033521Y017337D01*
X033444Y017278D01*
X033386Y017202D01*
X033349Y017113D01*
X033337Y017018D01*
X033349Y016922D01*
X033386Y016833D01*
X033444Y016757D01*
X033521Y016699D01*
X033610Y016662D01*
X033705Y016649D01*
X033800Y016662D01*
X033889Y016699D01*
X033965Y016757D01*
X034024Y016833D01*
X034061Y016922D01*
X034073Y017018D01*
X034061Y017113D01*
X034024Y017202D01*
X033965Y017278D01*
X033889Y017337D01*
X033800Y017374D01*
X033705Y017386D01*
D02*
G37*
G36*
X032505D02*
X032410Y017374D01*
X032321Y017337D01*
X032244Y017278D01*
X032186Y017202D01*
X032149Y017113D01*
X032137Y017018D01*
X032149Y016922D01*
X032186Y016833D01*
X032244Y016757D01*
X032321Y016699D01*
X032410Y016662D01*
X032505Y016649D01*
X032600Y016662D01*
X032689Y016699D01*
X032765Y016757D01*
X032824Y016833D01*
X032861Y016922D01*
X032873Y017018D01*
X032861Y017113D01*
X032824Y017202D01*
X032765Y017278D01*
X032689Y017337D01*
X032600Y017374D01*
X032505Y017386D01*
D02*
G37*
G36*
X026710Y018608D02*
X026615Y018596D01*
X026526Y018559D01*
X026449Y018501D01*
X026391Y018424D01*
X026354Y018335D01*
X026342Y018240D01*
X026354Y018145D01*
X026391Y018056D01*
X026449Y017979D01*
X026526Y017921D01*
X026615Y017884D01*
X026710Y017872D01*
X026805Y017884D01*
X026894Y017921D01*
X026971Y017979D01*
X027029Y018056D01*
X027066Y018145D01*
X027078Y018240D01*
X027066Y018335D01*
X027029Y018424D01*
X026971Y018501D01*
X026894Y018559D01*
X026805Y018596D01*
X026710Y018608D01*
D02*
G37*
G36*
X029621Y017920D02*
X029385D01*
Y017703D01*
X029621D01*
Y017920D01*
D02*
G37*
G36*
X026075Y018190D02*
X025760D01*
Y017875D01*
X026075D01*
Y018190D01*
D02*
G37*
G36*
X025660D02*
X025345D01*
Y017875D01*
X025660D01*
Y018190D01*
D02*
G37*
G36*
X052803Y017720D02*
X052379D01*
Y017011D01*
X052803D01*
Y017720D01*
D02*
G37*
G36*
X052279D02*
X051855D01*
Y017011D01*
X052279D01*
Y017720D01*
D02*
G37*
G36*
X029285Y017920D02*
X029048D01*
Y017703D01*
X029285D01*
Y017920D01*
D02*
G37*
G36*
X038390Y019782D02*
X038301Y019764D01*
X038226Y019714D01*
X038176Y019639D01*
X038158Y019550D01*
X038176Y019461D01*
X038226Y019386D01*
X038278Y019351D01*
Y018345D01*
X038216Y018319D01*
X038139Y018261D01*
X038081Y018184D01*
X038044Y018095D01*
X038032Y018000D01*
X038044Y017905D01*
X038081Y017816D01*
X038139Y017739D01*
X038216Y017681D01*
X038305Y017644D01*
X038400Y017632D01*
X038495Y017644D01*
X038584Y017681D01*
X038661Y017739D01*
X038719Y017816D01*
X038756Y017905D01*
X038768Y018000D01*
X038756Y018095D01*
X038719Y018184D01*
X038661Y018261D01*
X038584Y018319D01*
X038522Y018345D01*
Y019365D01*
X038554Y019386D01*
X038604Y019461D01*
X038622Y019550D01*
X038604Y019639D01*
X038554Y019714D01*
X038479Y019764D01*
X038390Y019782D01*
D02*
G37*
G36*
X048401Y016145D02*
X047977D01*
Y015337D01*
X048401D01*
Y016145D01*
D02*
G37*
G36*
X030470Y014968D02*
X030155D01*
Y014652D01*
X030470D01*
Y014968D01*
D02*
G37*
G36*
X030055D02*
X029740D01*
Y014652D01*
X030055D01*
Y014968D01*
D02*
G37*
G36*
X031670D02*
X031355D01*
Y014652D01*
X031670D01*
Y014968D01*
D02*
G37*
G36*
X031255D02*
X030940D01*
Y014652D01*
X031255D01*
Y014968D01*
D02*
G37*
G36*
X036425Y014960D02*
X036110D01*
Y014645D01*
X036425D01*
Y014960D01*
D02*
G37*
G36*
X036010D02*
X035695D01*
Y014645D01*
X036010D01*
Y014960D01*
D02*
G37*
G36*
X029270Y014968D02*
X028955D01*
Y014652D01*
X029270D01*
Y014968D01*
D02*
G37*
G36*
X028855D02*
X028540D01*
Y014652D01*
X028855D01*
Y014968D01*
D02*
G37*
G36*
X047755Y014980D02*
X047440D01*
Y014665D01*
X047755D01*
Y014980D01*
D02*
G37*
G36*
X047340D02*
X047025D01*
Y014665D01*
X047340D01*
Y014980D01*
D02*
G37*
G36*
X027432Y015698D02*
X026428D01*
Y014694D01*
X026905D01*
X027432Y015221D01*
Y015698D01*
D02*
G37*
G36*
X026328D02*
X025324D01*
Y015221D01*
X025851Y014694D01*
X026328D01*
Y015698D01*
D02*
G37*
G36*
X032870Y014968D02*
X032555D01*
Y014652D01*
X032870D01*
Y014968D01*
D02*
G37*
G36*
X032455D02*
X032140D01*
Y014652D01*
X032455D01*
Y014968D01*
D02*
G37*
G36*
X034070D02*
X033755D01*
Y014652D01*
X034070D01*
Y014968D01*
D02*
G37*
G36*
X033655D02*
X033340D01*
Y014652D01*
X033655D01*
Y014968D01*
D02*
G37*
G36*
X039965Y014950D02*
X039650D01*
Y014635D01*
X039965D01*
Y014950D01*
D02*
G37*
G36*
X039550D02*
X039235D01*
Y014635D01*
X039550D01*
Y014950D01*
D02*
G37*
G36*
X041615D02*
X041300D01*
Y014635D01*
X041615D01*
Y014950D01*
D02*
G37*
G36*
X041200D02*
X040885D01*
Y014635D01*
X041200D01*
Y014950D01*
D02*
G37*
G36*
X037585D02*
X037270D01*
Y014635D01*
X037585D01*
Y014950D01*
D02*
G37*
G36*
X037170D02*
X036855D01*
Y014635D01*
X037170D01*
Y014950D01*
D02*
G37*
G36*
X038765D02*
X038450D01*
Y014635D01*
X038765D01*
Y014950D01*
D02*
G37*
G36*
X038350D02*
X038035D01*
Y014635D01*
X038350D01*
Y014950D01*
D02*
G37*
G36*
X046395D02*
X046080D01*
Y014635D01*
X046395D01*
Y014950D01*
D02*
G37*
G36*
X045980D02*
X045665D01*
Y014635D01*
X045980D01*
Y014950D01*
D02*
G37*
G36*
X035265Y014960D02*
X034950D01*
Y014645D01*
X035265D01*
Y014960D01*
D02*
G37*
G36*
X034850D02*
X034535D01*
Y014645D01*
X034850D01*
Y014960D01*
D02*
G37*
G36*
X043675Y014950D02*
X043360D01*
Y014635D01*
X043675D01*
Y014950D01*
D02*
G37*
G36*
X043260D02*
X042945D01*
Y014635D01*
X043260D01*
Y014950D01*
D02*
G37*
G36*
X045345D02*
X045030D01*
Y014635D01*
X045345D01*
Y014950D01*
D02*
G37*
G36*
X044930D02*
X044615D01*
Y014635D01*
X044930D01*
Y014950D01*
D02*
G37*
G36*
X029270Y015383D02*
X028955D01*
Y015068D01*
X029270D01*
Y015383D01*
D02*
G37*
G36*
X028855D02*
X028540D01*
Y015068D01*
X028855D01*
Y015383D01*
D02*
G37*
G36*
X030470D02*
X030155D01*
Y015068D01*
X030470D01*
Y015383D01*
D02*
G37*
G36*
X030055D02*
X029740D01*
Y015068D01*
X030055D01*
Y015383D01*
D02*
G37*
G36*
X035265Y015375D02*
X034950D01*
Y015060D01*
X035265D01*
Y015375D01*
D02*
G37*
G36*
X034850D02*
X034535D01*
Y015060D01*
X034850D01*
Y015375D01*
D02*
G37*
G36*
X036425D02*
X036110D01*
Y015060D01*
X036425D01*
Y015375D01*
D02*
G37*
G36*
X036010D02*
X035695D01*
Y015060D01*
X036010D01*
Y015375D01*
D02*
G37*
G36*
X034070Y015383D02*
X033755D01*
Y015068D01*
X034070D01*
Y015383D01*
D02*
G37*
G36*
X033655D02*
X033340D01*
Y015068D01*
X033655D01*
Y015383D01*
D02*
G37*
G36*
X047755Y015395D02*
X047440D01*
Y015080D01*
X047755D01*
Y015395D01*
D02*
G37*
G36*
X047340D02*
X047025D01*
Y015080D01*
X047340D01*
Y015395D01*
D02*
G37*
G36*
X031670Y015383D02*
X031355D01*
Y015068D01*
X031670D01*
Y015383D01*
D02*
G37*
G36*
X031255D02*
X030940D01*
Y015068D01*
X031255D01*
Y015383D01*
D02*
G37*
G36*
X032870D02*
X032555D01*
Y015068D01*
X032870D01*
Y015383D01*
D02*
G37*
G36*
X032455D02*
X032140D01*
Y015068D01*
X032455D01*
Y015383D01*
D02*
G37*
G36*
X038765Y015365D02*
X038450D01*
Y015050D01*
X038765D01*
Y015365D01*
D02*
G37*
G36*
X038350D02*
X038035D01*
Y015050D01*
X038350D01*
Y015365D01*
D02*
G37*
G36*
X039965D02*
X039650D01*
Y015050D01*
X039965D01*
Y015365D01*
D02*
G37*
G36*
X039550D02*
X039235D01*
Y015050D01*
X039550D01*
Y015365D01*
D02*
G37*
G36*
X055779Y015698D02*
X054774D01*
Y014694D01*
X055252D01*
X055779Y015221D01*
Y015698D01*
D02*
G37*
G36*
X054674D02*
X053670D01*
Y015221D01*
X054197Y014694D01*
X054674D01*
Y015698D01*
D02*
G37*
G36*
X037585Y015365D02*
X037270D01*
Y015050D01*
X037585D01*
Y015365D01*
D02*
G37*
G36*
X037170D02*
X036855D01*
Y015050D01*
X037170D01*
Y015365D01*
D02*
G37*
G36*
X045345D02*
X045030D01*
Y015050D01*
X045345D01*
Y015365D01*
D02*
G37*
G36*
X044930D02*
X044615D01*
Y015050D01*
X044930D01*
Y015365D01*
D02*
G37*
G36*
X046395D02*
X046080D01*
Y015050D01*
X046395D01*
Y015365D01*
D02*
G37*
G36*
X045980D02*
X045665D01*
Y015050D01*
X045980D01*
Y015365D01*
D02*
G37*
G36*
X041615D02*
X041300D01*
Y015050D01*
X041615D01*
Y015365D01*
D02*
G37*
G36*
X041200D02*
X040885D01*
Y015050D01*
X041200D01*
Y015365D01*
D02*
G37*
G36*
X043675D02*
X043360D01*
Y015050D01*
X043675D01*
Y015365D01*
D02*
G37*
G36*
X043260D02*
X042945D01*
Y015050D01*
X043260D01*
Y015365D01*
D02*
G37*
G36*
X032070Y026835D02*
X031616D01*
Y026105D01*
X032070D01*
Y026835D01*
D02*
G37*
G36*
X031283D02*
X030828D01*
Y026105D01*
X031283D01*
Y026835D01*
D02*
G37*
G36*
X033645D02*
X033190D01*
Y026105D01*
X033645D01*
Y026835D01*
D02*
G37*
G36*
X032858D02*
X032403D01*
Y026105D01*
X032858D01*
Y026835D01*
D02*
G37*
G36*
X028921D02*
X028466D01*
Y026105D01*
X028921D01*
Y026835D01*
D02*
G37*
G36*
X037540Y028458D02*
X037445Y028446D01*
X037356Y028409D01*
X037279Y028351D01*
X037221Y028274D01*
X037184Y028185D01*
X037172Y028090D01*
X037184Y027995D01*
X037221Y027906D01*
X037279Y027829D01*
X037356Y027771D01*
X037445Y027734D01*
X037540Y027722D01*
X037635Y027734D01*
X037724Y027771D01*
X037801Y027829D01*
X037801Y027830D01*
X048117D01*
X049713Y026233D01*
X049794Y026179D01*
X049890Y026160D01*
X051768D01*
X051790Y026130D01*
X051878Y026063D01*
X051980Y026021D01*
X052090Y026006D01*
X052200Y026021D01*
X052302Y026063D01*
X052390Y026130D01*
X052457Y026218D01*
X052499Y026320D01*
X052514Y026430D01*
X052499Y026540D01*
X052457Y026642D01*
X052390Y026730D01*
X052302Y026797D01*
X052200Y026839D01*
X052090Y026854D01*
X051980Y026839D01*
X051878Y026797D01*
X051790Y026730D01*
X051737Y026660D01*
X049993D01*
X048397Y028257D01*
X048316Y028311D01*
X048220Y028330D01*
X037816D01*
X037801Y028351D01*
X037724Y028409D01*
X037635Y028446D01*
X037540Y028458D01*
D02*
G37*
G36*
X030496Y026835D02*
X030041D01*
Y026105D01*
X030496D01*
Y026835D01*
D02*
G37*
G36*
X029708D02*
X029253D01*
Y026105D01*
X029708D01*
Y026835D01*
D02*
G37*
G36*
X026328Y028296D02*
X025324D01*
Y027819D01*
X025851Y027292D01*
X026328D01*
Y028296D01*
D02*
G37*
G36*
X040450Y027392D02*
X040361Y027374D01*
X040286Y027324D01*
X040236Y027249D01*
X040218Y027160D01*
X040236Y027071D01*
X040286Y026996D01*
X040328Y026968D01*
Y026681D01*
X039593Y025947D01*
X039567Y025907D01*
X039558Y025860D01*
Y024700D01*
X039516Y024672D01*
X039466Y024597D01*
X039448Y024508D01*
X039466Y024419D01*
X039516Y024344D01*
X039591Y024294D01*
X039680Y024276D01*
X039769Y024294D01*
X039844Y024344D01*
X039894Y024419D01*
X039912Y024508D01*
X039894Y024597D01*
X039844Y024672D01*
X039802Y024700D01*
Y025809D01*
X040537Y026543D01*
X040563Y026583D01*
D01*
D01*
D01*
Y026583D01*
X040563D01*
D01*
D01*
D01*
D01*
X040563D01*
D01*
D01*
D01*
D01*
Y026583D01*
X040563D01*
D01*
Y026583D01*
D01*
D01*
D01*
D01*
D01*
D01*
D01*
D01*
D01*
D01*
D01*
D01*
Y026583D01*
D01*
X040563D01*
D01*
D01*
D01*
D01*
X040563Y026583D01*
X040572Y026630D01*
Y026968D01*
X040614Y026996D01*
X040664Y027071D01*
X040682Y027160D01*
X040664Y027249D01*
X040614Y027324D01*
X040539Y027374D01*
X040450Y027392D01*
D02*
G37*
G36*
X054674Y028296D02*
X053670D01*
Y027819D01*
X054197Y027292D01*
X054674D01*
Y028296D01*
D02*
G37*
G36*
X027432D02*
X026428D01*
Y027292D01*
X026905D01*
X027432Y027819D01*
Y028296D01*
D02*
G37*
G36*
X035220Y026835D02*
X034765D01*
Y026105D01*
X035220D01*
Y026835D01*
D02*
G37*
G36*
X034433D02*
X033978D01*
Y026105D01*
X034433D01*
Y026835D01*
D02*
G37*
G36*
X047290Y027354D02*
X047180Y027339D01*
X047078Y027297D01*
X046990Y027230D01*
X046923Y027142D01*
X046881Y027040D01*
X046866Y026930D01*
X046881Y026820D01*
X046923Y026718D01*
X046990Y026630D01*
X047078Y026563D01*
X047180Y026521D01*
X047290Y026506D01*
X047400Y026521D01*
X047502Y026563D01*
X047590Y026630D01*
X047657Y026718D01*
X047699Y026820D01*
X047714Y026930D01*
X047699Y027040D01*
X047657Y027142D01*
X047590Y027230D01*
X047502Y027297D01*
X047400Y027339D01*
X047290Y027354D01*
D02*
G37*
G36*
X036007Y026835D02*
X035553D01*
Y026105D01*
X036007D01*
Y026835D01*
D02*
G37*
G36*
X052040Y025447D02*
X051980Y025439D01*
X051878Y025397D01*
X051790Y025330D01*
X051723Y025242D01*
X051681Y025140D01*
X051673Y025080D01*
X052040D01*
Y025447D01*
D02*
G37*
G36*
X055400Y025758D02*
X055305Y025746D01*
X055216Y025709D01*
X055139Y025651D01*
X055081Y025574D01*
X055044Y025485D01*
X055032Y025390D01*
X055044Y025295D01*
X055081Y025206D01*
X055139Y025129D01*
X055216Y025071D01*
X055305Y025034D01*
X055400Y025022D01*
X055495Y025034D01*
X055584Y025071D01*
X055661Y025129D01*
X055719Y025206D01*
X055756Y025295D01*
X055768Y025390D01*
X055756Y025485D01*
X055719Y025574D01*
X055661Y025651D01*
X055584Y025709D01*
X055495Y025746D01*
X055400Y025758D01*
D02*
G37*
G36*
X037550Y025420D02*
X037235D01*
Y025105D01*
X037550D01*
Y025420D01*
D02*
G37*
G36*
X052140Y025447D02*
Y025080D01*
X052507D01*
X052499Y025140D01*
X052457Y025242D01*
X052390Y025330D01*
X052302Y025397D01*
X052200Y025439D01*
X052140Y025447D01*
D02*
G37*
G36*
X052507Y024980D02*
X052140D01*
Y024613D01*
X052200Y024621D01*
X052302Y024663D01*
X052390Y024730D01*
X052457Y024818D01*
X052499Y024920D01*
X052507Y024980D01*
D02*
G37*
G36*
X052040D02*
X051673D01*
X051681Y024920D01*
X051723Y024818D01*
X051790Y024730D01*
X051878Y024663D01*
X051980Y024621D01*
X052040Y024613D01*
Y024980D01*
D02*
G37*
G36*
X027175Y025495D02*
Y025495D01*
X026445D01*
Y024765D01*
X027175D01*
Y024808D01*
X027225D01*
Y024808D01*
X027955D01*
Y024931D01*
X028715D01*
Y024869D01*
X029445D01*
Y025402D01*
X028715D01*
Y025329D01*
X027955D01*
Y025460D01*
X027225D01*
Y025460D01*
X027211D01*
X027175Y025495D01*
D02*
G37*
G36*
X044041Y025807D02*
X043468D01*
Y025273D01*
X043563D01*
X043578Y025225D01*
X043576Y025224D01*
X043526Y025149D01*
X043508Y025060D01*
X043526Y024971D01*
X043576Y024896D01*
X043651Y024846D01*
X043740Y024828D01*
X043829Y024846D01*
X043904Y024896D01*
X043954Y024971D01*
X043972Y025060D01*
X043954Y025149D01*
X043904Y025224D01*
X043862Y025252D01*
Y025273D01*
X044041D01*
Y025807D01*
D02*
G37*
G36*
X037965Y025835D02*
X037650D01*
Y025520D01*
X037965D01*
Y025835D01*
D02*
G37*
G36*
X037550D02*
X037235D01*
Y025520D01*
X037550D01*
Y025835D01*
D02*
G37*
G36*
X043372Y025807D02*
X043135D01*
Y025590D01*
X043372D01*
Y025807D01*
D02*
G37*
G36*
X043035D02*
X042799D01*
Y025590D01*
X043035D01*
Y025807D01*
D02*
G37*
G36*
X038500Y025212D02*
X038411Y025194D01*
X038370Y025167D01*
X038329Y025194D01*
X038240Y025212D01*
X038151Y025194D01*
X038076Y025144D01*
X038026Y025069D01*
X038008Y024980D01*
X038026Y024891D01*
X038076Y024816D01*
X038151Y024766D01*
X038240Y024748D01*
X038329Y024766D01*
X038360Y024787D01*
X038380D01*
X038411Y024766D01*
X038458Y024757D01*
X039357Y023857D01*
X039357Y023857D01*
X039357D01*
X039357Y023857D01*
X039357D01*
X039357Y023857D01*
Y023857D01*
Y023857D01*
D01*
D01*
X039357D01*
Y023857D01*
X039413Y023820D01*
X039479Y023807D01*
X040220D01*
X040286Y023820D01*
X040343Y023857D01*
Y023857D01*
X040343D01*
D01*
D01*
D01*
D01*
D01*
D01*
X040343D01*
D01*
X040343D01*
Y023857D01*
D01*
D01*
D01*
D01*
Y023857D01*
D01*
D01*
D01*
D01*
D01*
D01*
Y023857D01*
D01*
D01*
X040343D01*
D01*
D01*
D01*
X040722Y024237D01*
X040925D01*
X040971Y024206D01*
X041060Y024188D01*
X041148Y024206D01*
X041152Y024202D01*
X041216Y024153D01*
X041290Y024122D01*
X041370Y024111D01*
X041450Y024122D01*
X041524Y024153D01*
X041524D01*
D01*
X041524Y024153D01*
D01*
D01*
D01*
X041550Y024158D01*
X041589Y024127D01*
Y023950D01*
X042162D01*
Y024143D01*
X042162D01*
Y024677D01*
X041589D01*
Y024677D01*
X041538Y024677D01*
X041524Y024687D01*
X041450Y024718D01*
X041370Y024729D01*
X041290Y024718D01*
X041216Y024687D01*
X041152Y024638D01*
X041148Y024634D01*
X041060Y024652D01*
X040971Y024634D01*
X040896Y024584D01*
X040896Y024583D01*
X040650D01*
X040584Y024570D01*
X040527Y024533D01*
X040148Y024153D01*
X039551D01*
X038731Y024974D01*
X038732Y024980D01*
X038714Y025069D01*
X038664Y025144D01*
X038589Y025194D01*
X038500Y025212D01*
D02*
G37*
G36*
X037965Y025420D02*
X037650D01*
Y025105D01*
X037965D01*
Y025420D01*
D02*
G37*
G36*
X043372Y025490D02*
X043135D01*
Y025273D01*
X043372D01*
Y025490D01*
D02*
G37*
G36*
X043035D02*
X042799D01*
Y025273D01*
X043035D01*
Y025490D01*
D02*
G37*
G36*
X055779Y028296D02*
X054774D01*
Y027292D01*
X055252D01*
X055779Y027819D01*
Y028296D01*
D02*
G37*
G36*
X039460Y029468D02*
X039365Y029456D01*
X039276Y029419D01*
X039199Y029361D01*
X039141Y029284D01*
X039104Y029195D01*
X039092Y029100D01*
X039104Y029005D01*
X039141Y028916D01*
X039199Y028839D01*
X039276Y028781D01*
X039365Y028744D01*
X039460Y028732D01*
X039555Y028744D01*
X039644Y028781D01*
X039721Y028839D01*
X039779Y028916D01*
X039816Y029005D01*
X039828Y029100D01*
X039816Y029195D01*
X039779Y029284D01*
X039721Y029361D01*
X039644Y029419D01*
X039555Y029456D01*
X039460Y029468D01*
D02*
G37*
G36*
X049470Y029468D02*
X049375Y029456D01*
X049286Y029419D01*
X049209Y029361D01*
X049151Y029284D01*
X049114Y029195D01*
X049102Y029100D01*
X049114Y029005D01*
X049151Y028916D01*
X049209Y028839D01*
X049286Y028781D01*
X049375Y028744D01*
X049470Y028732D01*
X049565Y028744D01*
X049654Y028781D01*
X049731Y028839D01*
X049789Y028916D01*
X049826Y029005D01*
X049838Y029100D01*
X049826Y029195D01*
X049789Y029284D01*
X049731Y029361D01*
X049654Y029419D01*
X049565Y029456D01*
X049470Y029468D01*
D02*
G37*
G36*
X050470Y029468D02*
X050375Y029456D01*
X050286Y029419D01*
X050209Y029361D01*
X050151Y029284D01*
X050114Y029195D01*
X050102Y029100D01*
X050114Y029005D01*
X050151Y028916D01*
X050209Y028839D01*
X050286Y028781D01*
X050375Y028744D01*
X050470Y028732D01*
X050565Y028744D01*
X050654Y028781D01*
X050731Y028839D01*
X050789Y028916D01*
X050826Y029005D01*
X050838Y029100D01*
X050826Y029195D01*
X050789Y029284D01*
X050731Y029361D01*
X050654Y029419D01*
X050565Y029456D01*
X050470Y029468D01*
D02*
G37*
G36*
X040460D02*
X040365Y029456D01*
X040276Y029419D01*
X040199Y029361D01*
X040141Y029284D01*
X040104Y029195D01*
X040092Y029100D01*
X040104Y029005D01*
X040141Y028916D01*
X040199Y028839D01*
X040276Y028781D01*
X040365Y028744D01*
X040460Y028732D01*
X040555Y028744D01*
X040644Y028781D01*
X040721Y028839D01*
X040779Y028916D01*
X040816Y029005D01*
X040828Y029100D01*
X040816Y029195D01*
X040779Y029284D01*
X040721Y029361D01*
X040644Y029419D01*
X040555Y029456D01*
X040460Y029468D01*
D02*
G37*
G36*
X042460Y029468D02*
X042365Y029456D01*
X042276Y029419D01*
X042199Y029361D01*
X042141Y029284D01*
X042104Y029195D01*
X042092Y029100D01*
X042104Y029005D01*
X042141Y028916D01*
X042199Y028839D01*
X042276Y028781D01*
X042365Y028744D01*
X042460Y028732D01*
X042555Y028744D01*
X042644Y028781D01*
X042721Y028839D01*
X042779Y028916D01*
X042816Y029005D01*
X042828Y029100D01*
X042816Y029195D01*
X042779Y029284D01*
X042721Y029361D01*
X042644Y029419D01*
X042555Y029456D01*
X042460Y029468D01*
D02*
G37*
G36*
X051470Y029468D02*
X051375Y029456D01*
X051286Y029419D01*
X051209Y029361D01*
X051151Y029284D01*
X051114Y029195D01*
X051102Y029100D01*
X051114Y029005D01*
X051151Y028916D01*
X051209Y028839D01*
X051286Y028781D01*
X051375Y028744D01*
X051470Y028732D01*
X051565Y028744D01*
X051654Y028781D01*
X051731Y028839D01*
X051789Y028916D01*
X051826Y029005D01*
X051838Y029100D01*
X051826Y029195D01*
X051789Y029284D01*
X051731Y029361D01*
X051654Y029419D01*
X051565Y029456D01*
X051470Y029468D01*
D02*
G37*
G36*
X048470Y029468D02*
X048375Y029456D01*
X048286Y029419D01*
X048209Y029361D01*
X048151Y029284D01*
X048114Y029195D01*
X048102Y029100D01*
X048114Y029005D01*
X048151Y028916D01*
X048209Y028839D01*
X048286Y028781D01*
X048375Y028744D01*
X048470Y028732D01*
X048565Y028744D01*
X048654Y028781D01*
X048731Y028839D01*
X048789Y028916D01*
X048826Y029005D01*
X048838Y029100D01*
X048826Y029195D01*
X048789Y029284D01*
X048731Y029361D01*
X048654Y029419D01*
X048565Y029456D01*
X048470Y029468D01*
D02*
G37*
G36*
X043460D02*
X043365Y029456D01*
X043276Y029419D01*
X043199Y029361D01*
X043141Y029284D01*
X043104Y029195D01*
X043092Y029100D01*
X043104Y029005D01*
X043141Y028916D01*
X043199Y028839D01*
X043276Y028781D01*
X043365Y028744D01*
X043460Y028732D01*
X043555Y028744D01*
X043644Y028781D01*
X043721Y028839D01*
X043779Y028916D01*
X043816Y029005D01*
X043828Y029100D01*
X043816Y029195D01*
X043779Y029284D01*
X043721Y029361D01*
X043644Y029419D01*
X043555Y029456D01*
X043460Y029468D01*
D02*
G37*
G36*
X045825Y029465D02*
X045510D01*
Y029150D01*
X045825D01*
Y029465D01*
D02*
G37*
G36*
X045410D02*
X045095D01*
Y029150D01*
X045410D01*
Y029465D01*
D02*
G37*
G36*
X046835D02*
X046520D01*
Y029150D01*
X046835D01*
Y029465D01*
D02*
G37*
G36*
X046420D02*
X046105D01*
Y029150D01*
X046420D01*
Y029465D01*
D02*
G37*
G36*
X045825Y029050D02*
X045510D01*
Y028735D01*
X045825D01*
Y029050D01*
D02*
G37*
G36*
X045410D02*
X045095D01*
Y028735D01*
X045410D01*
Y029050D01*
D02*
G37*
G36*
X046835D02*
X046520D01*
Y028735D01*
X046835D01*
Y029050D01*
D02*
G37*
G36*
X046420D02*
X046105D01*
Y028735D01*
X046420D01*
Y029050D01*
D02*
G37*
G36*
X032858Y029085D02*
X032403D01*
Y028355D01*
X032858D01*
Y029085D01*
D02*
G37*
G36*
X032070D02*
X031616D01*
Y028355D01*
X032070D01*
Y029085D01*
D02*
G37*
G36*
X034433D02*
X033978D01*
Y028355D01*
X034433D01*
Y029085D01*
D02*
G37*
G36*
X033645D02*
X033190D01*
Y028355D01*
X033645D01*
Y029085D01*
D02*
G37*
G36*
X029708D02*
X029253D01*
Y028355D01*
X029708D01*
Y029085D01*
D02*
G37*
G36*
X028921D02*
X028466D01*
Y028355D01*
X028921D01*
Y029085D01*
D02*
G37*
G36*
X031283D02*
X030828D01*
Y028355D01*
X031283D01*
Y029085D01*
D02*
G37*
G36*
X030496D02*
X030041D01*
Y028355D01*
X030496D01*
Y029085D01*
D02*
G37*
G36*
X055252Y029401D02*
X054774D01*
Y028396D01*
X055779D01*
Y028874D01*
X055252Y029401D01*
D02*
G37*
G36*
X054674D02*
X054197D01*
X053670Y028874D01*
Y028396D01*
X054674D01*
Y029401D01*
D02*
G37*
G36*
X041460Y029468D02*
X041365Y029456D01*
X041276Y029419D01*
X041199Y029361D01*
X041141Y029284D01*
X041104Y029195D01*
X041092Y029100D01*
X041104Y029005D01*
X041141Y028916D01*
X041199Y028839D01*
X041276Y028781D01*
X041365Y028744D01*
X041460Y028732D01*
X041555Y028744D01*
X041644Y028781D01*
X041721Y028839D01*
X041779Y028916D01*
X041816Y029005D01*
X041828Y029100D01*
X041816Y029195D01*
X041779Y029284D01*
X041721Y029361D01*
X041644Y029419D01*
X041555Y029456D01*
X041460Y029468D01*
D02*
G37*
G36*
X047470Y029468D02*
X047375Y029456D01*
X047286Y029419D01*
X047209Y029361D01*
X047151Y029284D01*
X047114Y029195D01*
X047102Y029100D01*
X047114Y029005D01*
X047140Y028943D01*
X046849Y028652D01*
X045081D01*
X044790Y028943D01*
X044816Y029005D01*
X044828Y029100D01*
X044816Y029195D01*
X044779Y029284D01*
X044721Y029361D01*
X044644Y029419D01*
X044555Y029456D01*
X044460Y029468D01*
X044365Y029456D01*
X044276Y029419D01*
X044199Y029361D01*
X044141Y029284D01*
X044104Y029195D01*
X044092Y029100D01*
X044104Y029005D01*
X044141Y028916D01*
X044199Y028839D01*
X044276Y028781D01*
X044365Y028744D01*
X044460Y028732D01*
X044555Y028744D01*
X044617Y028770D01*
X044943Y028443D01*
X044983Y028417D01*
X045030Y028408D01*
X046900D01*
X046947Y028417D01*
X046987Y028443D01*
Y028443D01*
X046987D01*
D01*
D01*
D01*
D01*
D01*
D01*
X046987D01*
D01*
X046987D01*
Y028443D01*
D01*
D01*
D01*
D01*
Y028443D01*
D01*
D01*
D01*
D01*
D01*
D01*
Y028443D01*
D01*
D01*
X046987D01*
D01*
D01*
D01*
X047313Y028770D01*
X047375Y028744D01*
X047470Y028732D01*
X047565Y028744D01*
X047654Y028781D01*
X047731Y028839D01*
X047789Y028916D01*
X047826Y029005D01*
X047838Y029100D01*
X047826Y029195D01*
X047789Y029284D01*
X047731Y029361D01*
X047654Y029419D01*
X047565Y029456D01*
X047470Y029468D01*
D02*
G37*
G36*
X036007Y029085D02*
X035553D01*
Y028355D01*
X036007D01*
Y029085D01*
D02*
G37*
G36*
X035220D02*
X034765D01*
Y028355D01*
X035220D01*
Y029085D01*
D02*
G37*
G36*
X026905Y029401D02*
X026428D01*
Y028396D01*
X027432D01*
Y028874D01*
X026905Y029401D01*
D02*
G37*
G36*
X026328D02*
X025851D01*
X025324Y028874D01*
Y028396D01*
X026328D01*
Y029401D01*
D02*
G37*
G36*
X034383Y021305D02*
X033928D01*
Y020575D01*
X034383D01*
Y021305D01*
D02*
G37*
G36*
X033595D02*
X033140D01*
Y020575D01*
X033595D01*
Y021305D01*
D02*
G37*
G36*
X035957D02*
X035503D01*
Y020575D01*
X035957D01*
Y021305D01*
D02*
G37*
G36*
X035170D02*
X034715D01*
Y020575D01*
X035170D01*
Y021305D01*
D02*
G37*
G36*
X028871D02*
X028416D01*
Y020575D01*
X028871D01*
Y021305D01*
D02*
G37*
G36*
X055400Y020488D02*
X055305Y020476D01*
X055216Y020439D01*
X055139Y020381D01*
X055081Y020304D01*
X055044Y020215D01*
X055032Y020120D01*
X055044Y020025D01*
X055081Y019936D01*
X055139Y019859D01*
X055216Y019801D01*
X055305Y019764D01*
X055400Y019752D01*
X055495Y019764D01*
X055584Y019801D01*
X055661Y019859D01*
X055719Y019936D01*
X055756Y020025D01*
X055768Y020120D01*
X055756Y020215D01*
X055719Y020304D01*
X055661Y020381D01*
X055584Y020439D01*
X055495Y020476D01*
X055400Y020488D01*
D02*
G37*
G36*
X030446Y021305D02*
X029991D01*
Y020575D01*
X030446D01*
Y021305D01*
D02*
G37*
G36*
X029658D02*
X029203D01*
Y020575D01*
X029658D01*
Y021305D01*
D02*
G37*
G36*
X051995Y021920D02*
X051759D01*
Y021703D01*
X051995D01*
Y021920D01*
D02*
G37*
G36*
X033865Y021800D02*
X033550D01*
Y021485D01*
X033865D01*
Y021800D01*
D02*
G37*
G36*
X055400Y022488D02*
X055305Y022476D01*
X055216Y022439D01*
X055139Y022381D01*
X055081Y022304D01*
X055044Y022215D01*
X055032Y022120D01*
X055044Y022025D01*
X055081Y021936D01*
X055139Y021859D01*
X055216Y021801D01*
X055305Y021764D01*
X055400Y021752D01*
X055495Y021764D01*
X055584Y021801D01*
X055661Y021859D01*
X055719Y021936D01*
X055756Y022025D01*
X055768Y022120D01*
X055756Y022215D01*
X055719Y022304D01*
X055661Y022381D01*
X055584Y022439D01*
X055495Y022476D01*
X055400Y022488D01*
D02*
G37*
G36*
X052332Y021920D02*
X052095D01*
Y021703D01*
X052332D01*
Y021920D01*
D02*
G37*
G36*
X047102Y021997D02*
X046529D01*
Y021957D01*
X046492D01*
Y021957D01*
X046037D01*
Y021503D01*
X046047D01*
Y021467D01*
X046047D01*
Y021013D01*
X046502D01*
D01*
X046502D01*
X046529Y020986D01*
Y020973D01*
X047102D01*
Y021463D01*
Y021997D01*
D02*
G37*
G36*
X053001Y022237D02*
X052428D01*
Y021703D01*
X052592D01*
Y021439D01*
X052592Y021439D01*
X052592D01*
X052602Y021392D01*
X052628Y021352D01*
X053127Y020853D01*
X053136Y020847D01*
Y020791D01*
Y020535D01*
Y020279D01*
Y020023D01*
Y020009D01*
X053127Y020003D01*
X052859Y019734D01*
X052832Y019695D01*
X052823Y019648D01*
Y018887D01*
X052659D01*
Y018353D01*
X053232D01*
Y018887D01*
X053068D01*
Y019584D01*
X053109Y019611D01*
X053136Y019600D01*
Y019511D01*
Y019454D01*
X054123D01*
Y019464D01*
X054169Y019484D01*
X054253Y019399D01*
Y019019D01*
X054787D01*
Y019592D01*
X054406D01*
X054356Y019642D01*
X054376Y019688D01*
X054787D01*
Y020249D01*
Y020822D01*
X054430D01*
X054411Y020868D01*
X054461Y020918D01*
X054787D01*
Y021419D01*
X054928D01*
X055070Y021277D01*
X055044Y021215D01*
X055032Y021120D01*
X055044Y021025D01*
X055081Y020936D01*
X055139Y020859D01*
X055216Y020801D01*
X055305Y020764D01*
X055400Y020752D01*
X055495Y020764D01*
X055584Y020801D01*
X055661Y020859D01*
X055719Y020936D01*
X055756Y021025D01*
X055768Y021120D01*
X055756Y021215D01*
X055719Y021304D01*
X055661Y021381D01*
X055584Y021439D01*
X055495Y021476D01*
X055400Y021488D01*
X055305Y021476D01*
X055243Y021450D01*
X055065Y021628D01*
X055026Y021654D01*
X054979Y021664D01*
X053981D01*
X053934Y021654D01*
X053895Y021628D01*
X053611Y021344D01*
X053136D01*
Y021256D01*
X053090Y021236D01*
X052837Y021489D01*
Y021703D01*
X053001D01*
Y022237D01*
D02*
G37*
G36*
X033450Y021800D02*
X033135D01*
Y021485D01*
X033450D01*
Y021800D01*
D02*
G37*
G36*
X044160Y022452D02*
X044071Y022434D01*
X043996Y022384D01*
X043946Y022309D01*
X043928Y022220D01*
X043946Y022131D01*
X043996Y022056D01*
X044048Y022021D01*
Y021431D01*
X042839Y020222D01*
X042792Y020241D01*
Y021229D01*
X042911Y021348D01*
X042960Y021338D01*
X043049Y021356D01*
X043124Y021406D01*
X043174Y021481D01*
X043192Y021570D01*
X043174Y021659D01*
X043124Y021734D01*
X043049Y021784D01*
X042960Y021802D01*
X042871Y021784D01*
X042796Y021734D01*
X042746Y021659D01*
X042728Y021570D01*
X042738Y021521D01*
X042583Y021367D01*
X042557Y021327D01*
X042548Y021280D01*
Y019319D01*
X042503Y019296D01*
X042434Y019349D01*
X042345Y019386D01*
X042250Y019398D01*
X042155Y019386D01*
X042066Y019349D01*
X041989Y019291D01*
X041942Y019307D01*
Y019349D01*
X042257Y019663D01*
X042283Y019703D01*
X042292Y019750D01*
D01*
D01*
D01*
D01*
D01*
X042292D01*
D01*
D01*
D01*
D01*
Y019750D01*
X042292D01*
D01*
Y019750D01*
D01*
D01*
D01*
D01*
D01*
D01*
D01*
D01*
D01*
D01*
D01*
D01*
Y019750D01*
D01*
X042292D01*
D01*
D01*
D01*
D01*
X042292Y019750D01*
Y021378D01*
X042334Y021406D01*
X042384Y021481D01*
X042402Y021570D01*
X042384Y021659D01*
X042334Y021734D01*
X042259Y021784D01*
X042170Y021802D01*
X042081Y021784D01*
X042006Y021734D01*
X041956Y021659D01*
X041938Y021570D01*
X041956Y021481D01*
X042006Y021406D01*
X042048Y021378D01*
Y019801D01*
X041733Y019487D01*
X041707Y019447D01*
X041698Y019400D01*
Y018510D01*
X041707Y018463D01*
X041733Y018423D01*
X042986Y017171D01*
X042954Y017095D01*
X042942Y017000D01*
X042954Y016905D01*
X042991Y016816D01*
X043049Y016739D01*
X043126Y016681D01*
X043215Y016644D01*
X043310Y016632D01*
X043405Y016644D01*
X043494Y016681D01*
X043571Y016739D01*
X043629Y016816D01*
X043666Y016905D01*
X043678Y017000D01*
X043666Y017095D01*
X043629Y017184D01*
X043571Y017261D01*
X043494Y017319D01*
X043405Y017356D01*
X043310Y017368D01*
X043215Y017356D01*
X043167Y017336D01*
X041942Y018561D01*
Y018753D01*
X041989Y018769D01*
X042066Y018711D01*
X042155Y018674D01*
X042250Y018662D01*
X042345Y018674D01*
X042434Y018711D01*
X042503Y018764D01*
X042548Y018741D01*
Y018730D01*
X042557Y018683D01*
X042583Y018643D01*
X043748Y017479D01*
Y016581D01*
X043488Y016321D01*
X043405Y016356D01*
X043310Y016368D01*
X043215Y016356D01*
X043126Y016319D01*
X043049Y016261D01*
X042991Y016184D01*
X042954Y016095D01*
X042942Y016000D01*
X042954Y015905D01*
X042991Y015816D01*
X043044Y015747D01*
X043021Y015702D01*
X041539D01*
X041516Y015747D01*
X041569Y015816D01*
X041606Y015905D01*
X041618Y016000D01*
X041606Y016095D01*
X041569Y016184D01*
X041511Y016261D01*
X041434Y016319D01*
X041345Y016356D01*
X041250Y016368D01*
X041155Y016356D01*
X041066Y016319D01*
X040989Y016261D01*
X040931Y016184D01*
X040894Y016095D01*
X040882Y016000D01*
X040894Y015905D01*
X040931Y015816D01*
X040984Y015747D01*
X040961Y015702D01*
X039889D01*
X039866Y015747D01*
X039919Y015816D01*
X039956Y015905D01*
X039968Y016000D01*
X039956Y016095D01*
X039919Y016184D01*
X039861Y016261D01*
X039784Y016319D01*
X039695Y016356D01*
X039600Y016368D01*
X039505Y016356D01*
X039416Y016319D01*
X039339Y016261D01*
X039281Y016184D01*
X039244Y016095D01*
X039232Y016004D01*
X039185Y015988D01*
X038557Y016617D01*
X038517Y016643D01*
X038516Y016653D01*
X038584Y016681D01*
X038661Y016739D01*
X038719Y016816D01*
X038756Y016905D01*
X038768Y017000D01*
X038756Y017095D01*
X038719Y017184D01*
X038661Y017261D01*
X038584Y017319D01*
X038495Y017356D01*
X038400Y017368D01*
X038305Y017356D01*
X038216Y017319D01*
X038139Y017261D01*
X038081Y017184D01*
X038044Y017095D01*
X038032Y017000D01*
X038044Y016905D01*
X038081Y016816D01*
X038087Y016809D01*
X038069Y016762D01*
X037981Y016744D01*
X037906Y016694D01*
X037856Y016619D01*
X037838Y016530D01*
X037856Y016441D01*
X037906Y016366D01*
X037981Y016316D01*
X038070Y016298D01*
X038122Y016308D01*
X038143Y016263D01*
X038139Y016261D01*
X038081Y016184D01*
X038044Y016095D01*
X038032Y016000D01*
X038044Y015905D01*
X038081Y015816D01*
X038139Y015739D01*
X038216Y015681D01*
X038305Y015644D01*
X038400Y015632D01*
X038495Y015644D01*
X038584Y015681D01*
X038661Y015739D01*
X038719Y015816D01*
X038756Y015905D01*
X038768Y015996D01*
X038815Y016012D01*
X039333Y015493D01*
Y015493D01*
D01*
Y015493D01*
X039333Y015493D01*
D01*
D01*
X039333D01*
X039333Y015493D01*
Y015493D01*
Y015493D01*
D01*
D01*
X039333D01*
Y015493D01*
X039373Y015467D01*
X039420Y015458D01*
X043600D01*
X043647Y015467D01*
X043687Y015493D01*
X044147Y015953D01*
X044173Y015993D01*
X044182Y016040D01*
D01*
D01*
D01*
D01*
D01*
X044182D01*
D01*
D01*
D01*
D01*
Y016040D01*
X044182D01*
D01*
Y016040D01*
D01*
D01*
D01*
D01*
D01*
D01*
D01*
D01*
D01*
D01*
D01*
D01*
Y016040D01*
D01*
X044182D01*
D01*
D01*
D01*
D01*
X044182Y016040D01*
Y017617D01*
X044173Y017664D01*
X044147Y017703D01*
X044147Y017703D01*
D01*
D01*
D01*
D01*
X044147Y017703D01*
D01*
D01*
X044147D01*
X043230Y018620D01*
X043250Y018662D01*
X043340Y018674D01*
X043424Y018708D01*
X043496Y018764D01*
X043552Y018836D01*
X043587Y018920D01*
X043599Y019010D01*
Y019050D01*
X043587Y019140D01*
X043552Y019224D01*
X043496Y019296D01*
X043424Y019352D01*
X043372Y019373D01*
Y019919D01*
X043511Y020058D01*
X043559Y020044D01*
X043566Y020011D01*
X043616Y019936D01*
X043658Y019908D01*
Y019470D01*
X043658Y019470D01*
X043658D01*
X043667Y019423D01*
X043693Y019383D01*
X043911Y019166D01*
X043894Y019125D01*
X043882Y019030D01*
X043894Y018935D01*
X043931Y018846D01*
X043989Y018769D01*
X044066Y018711D01*
X044155Y018674D01*
X044250Y018662D01*
X044345Y018674D01*
X044434Y018711D01*
X044511Y018769D01*
X044569Y018846D01*
X044606Y018935D01*
X044618Y019030D01*
X044606Y019125D01*
X044569Y019214D01*
X044511Y019291D01*
X044434Y019349D01*
X044345Y019386D01*
X044250Y019398D01*
X044155Y019386D01*
X044072Y019351D01*
X043902Y019521D01*
Y019908D01*
X043944Y019936D01*
X043994Y020011D01*
X043996Y020018D01*
X044045Y020028D01*
X044066Y019996D01*
X044141Y019946D01*
X044230Y019928D01*
X044319Y019946D01*
X044394Y019996D01*
X044422Y020038D01*
X047802D01*
X047834Y019999D01*
X047828Y019970D01*
X047846Y019881D01*
X047896Y019806D01*
X047971Y019756D01*
X048060Y019738D01*
X048149Y019756D01*
X048224Y019806D01*
X048274Y019881D01*
X048292Y019970D01*
X048274Y020059D01*
X048224Y020134D01*
X048149Y020184D01*
X048060Y020202D01*
X048019Y020194D01*
X047967Y020247D01*
X047927Y020273D01*
X047880Y020282D01*
X044422D01*
X044394Y020324D01*
X044398Y020338D01*
X049080D01*
X049127Y020347D01*
X049167Y020373D01*
X049361Y020568D01*
X049835D01*
X049849Y020520D01*
X049841Y020514D01*
X049233Y019907D01*
X049207Y019867D01*
X049198Y019820D01*
Y019682D01*
X049156Y019654D01*
X049106Y019579D01*
X049088Y019490D01*
X049106Y019401D01*
X049156Y019326D01*
X049231Y019276D01*
X049320Y019258D01*
X049369Y019268D01*
X049568Y019069D01*
X049568Y019069D01*
X049568D01*
X049568Y019069D01*
X049568D01*
X049568Y019069D01*
Y019069D01*
Y019069D01*
D01*
D01*
X049568D01*
Y019069D01*
X049608Y019042D01*
X049655Y019033D01*
X049963D01*
Y018869D01*
X050497D01*
Y019220D01*
X050532Y019256D01*
X050557D01*
Y019256D01*
X051544D01*
Y019511D01*
Y019767D01*
Y019866D01*
X051051D01*
Y019966D01*
X051511D01*
X051537Y019932D01*
X051544Y019927D01*
Y019870D01*
X051589Y019892D01*
X051601Y019883D01*
X051676Y019852D01*
X051756Y019841D01*
X051836Y019852D01*
X051910Y019883D01*
X051974Y019932D01*
X052023Y019996D01*
X052054Y020070D01*
X052065Y020150D01*
X052054Y020230D01*
X052023Y020304D01*
X051974Y020368D01*
X051910Y020417D01*
X051836Y020448D01*
X051756Y020459D01*
X051676Y020448D01*
X051601Y020417D01*
X051589Y020408D01*
X051544Y020430D01*
Y020535D01*
Y020791D01*
Y021047D01*
Y021344D01*
X050557D01*
Y021322D01*
X050351D01*
Y021467D01*
X049778D01*
Y020933D01*
X050351D01*
Y021078D01*
X050557D01*
Y021047D01*
Y020833D01*
Y020812D01*
X049310D01*
X049263Y020803D01*
X049223Y020777D01*
X049052Y020605D01*
X049003Y020615D01*
X048997Y020629D01*
X049302Y020933D01*
X049682D01*
Y021467D01*
X049109D01*
Y021086D01*
X048775Y020752D01*
X043910D01*
X043863Y020743D01*
X043823Y020717D01*
X043163Y020057D01*
X043137Y020017D01*
X043128Y019970D01*
Y019373D01*
X043076Y019352D01*
X043012Y019303D01*
X042967Y019325D01*
Y020004D01*
X044257Y021293D01*
X044283Y021333D01*
D01*
D01*
D01*
Y021333D01*
X044283D01*
D01*
D01*
D01*
D01*
X044283D01*
D01*
D01*
D01*
D01*
Y021333D01*
X044283D01*
D01*
Y021333D01*
D01*
D01*
D01*
D01*
D01*
D01*
D01*
D01*
D01*
D01*
D01*
D01*
Y021333D01*
D01*
X044283D01*
D01*
D01*
D01*
D01*
X044283Y021333D01*
X044292Y021380D01*
Y022035D01*
X044324Y022056D01*
X044374Y022131D01*
X044392Y022220D01*
X044374Y022309D01*
X044324Y022384D01*
X044249Y022434D01*
X044160Y022452D01*
D02*
G37*
G36*
X035680Y019055D02*
X035503D01*
Y018740D01*
X035680D01*
Y019055D01*
D02*
G37*
G36*
X047901Y019687D02*
X047328D01*
Y019153D01*
X047901D01*
Y019267D01*
X047949Y019281D01*
X047966Y019256D01*
X048041Y019206D01*
X048130Y019188D01*
X048179Y019198D01*
X048223Y019154D01*
Y018718D01*
X048757D01*
Y019291D01*
X048432D01*
X048352Y019371D01*
X048362Y019420D01*
X048344Y019509D01*
X048294Y019584D01*
X048219Y019634D01*
X048130Y019652D01*
X048041Y019634D01*
X047966Y019584D01*
X047949Y019559D01*
X047901Y019573D01*
Y019687D01*
D02*
G37*
G36*
X040200Y019395D02*
X039885D01*
Y019080D01*
X040200D01*
Y019395D01*
D02*
G37*
G36*
X035957Y019055D02*
X035780D01*
Y018740D01*
X035957D01*
Y019055D01*
D02*
G37*
G36*
X040615Y018980D02*
X040300D01*
Y018665D01*
X040615D01*
Y018980D01*
D02*
G37*
G36*
X040200D02*
X039885D01*
Y018665D01*
X040200D01*
Y018980D01*
D02*
G37*
G36*
X053901Y018887D02*
X053665D01*
Y018670D01*
X053901D01*
Y018887D01*
D02*
G37*
G36*
X053565D02*
X053328D01*
Y018670D01*
X053565D01*
Y018887D01*
D02*
G37*
G36*
X046895Y019687D02*
X046659D01*
Y019470D01*
X046895D01*
Y019687D01*
D02*
G37*
G36*
X054123Y019354D02*
X053679D01*
Y019256D01*
X054123D01*
Y019354D01*
D02*
G37*
G36*
X041330Y023652D02*
X041241Y023634D01*
X041166Y023584D01*
X041116Y023509D01*
X041098Y023420D01*
X041116Y023331D01*
X041166Y023256D01*
X041208Y023228D01*
Y020150D01*
X041208Y020150D01*
X041208D01*
X041217Y020103D01*
X041243Y020063D01*
X041301Y020006D01*
X041288Y019940D01*
X041306Y019851D01*
X041356Y019776D01*
X041431Y019726D01*
X041520Y019708D01*
X041609Y019726D01*
X041684Y019776D01*
X041734Y019851D01*
X041752Y019940D01*
X041734Y020029D01*
X041684Y020104D01*
X041609Y020154D01*
X041520Y020172D01*
X041488Y020165D01*
X041452Y020201D01*
Y023228D01*
X041494Y023256D01*
X041544Y023331D01*
X041562Y023420D01*
X041544Y023509D01*
X041494Y023584D01*
X041419Y023634D01*
X041330Y023652D01*
D02*
G37*
G36*
X047232Y019687D02*
X046995D01*
Y019470D01*
X047232D01*
Y019687D01*
D02*
G37*
G36*
X046895Y019370D02*
X046659D01*
Y019153D01*
X046895D01*
Y019370D01*
D02*
G37*
G36*
X040615Y019395D02*
X040300D01*
Y019080D01*
X040615D01*
Y019395D01*
D02*
G37*
G36*
X053579Y019354D02*
X053136D01*
Y019256D01*
X053579D01*
Y019354D01*
D02*
G37*
G36*
X047232Y019370D02*
X046995D01*
Y019153D01*
X047232D01*
Y019370D01*
D02*
G37*
G36*
X037600Y024838D02*
X037505Y024826D01*
X037416Y024789D01*
X037339Y024731D01*
X037281Y024654D01*
X037244Y024565D01*
X037232Y024470D01*
X037244Y024375D01*
X037281Y024286D01*
X037339Y024209D01*
X037416Y024151D01*
X037505Y024114D01*
X037600Y024102D01*
X037695Y024114D01*
X037757Y024140D01*
X038793Y023103D01*
X038793Y023103D01*
X038793D01*
X038793Y023103D01*
X038793D01*
X038793Y023103D01*
Y023103D01*
Y023103D01*
D01*
D01*
X038793D01*
Y023103D01*
X038833Y023077D01*
X038880Y023068D01*
X040439D01*
X040496Y023011D01*
X040488Y022970D01*
X040506Y022881D01*
X040526Y022852D01*
X040502Y022807D01*
X040407D01*
Y022387D01*
X040348D01*
Y021853D01*
X040921D01*
Y022387D01*
X040862D01*
Y022791D01*
X040884Y022806D01*
X040934Y022881D01*
X040952Y022970D01*
X040934Y023059D01*
X040884Y023134D01*
X040809Y023184D01*
X040720Y023202D01*
X040663Y023191D01*
X040577Y023277D01*
X040537Y023303D01*
X040490Y023312D01*
X038931D01*
X037930Y024313D01*
X037956Y024375D01*
X037968Y024470D01*
X037956Y024565D01*
X037919Y024654D01*
X037861Y024731D01*
X037784Y024789D01*
X037695Y024826D01*
X037600Y024838D01*
D02*
G37*
G36*
X055350Y024340D02*
X055035D01*
Y024025D01*
X055350D01*
Y024340D01*
D02*
G37*
G36*
X028596Y024252D02*
X028340D01*
Y023996D01*
X028596D01*
Y024252D01*
D02*
G37*
G36*
X026810Y024498D02*
X026715Y024486D01*
X026626Y024449D01*
X026549Y024391D01*
X026491Y024314D01*
X026454Y024225D01*
X026442Y024130D01*
X026454Y024035D01*
X026491Y023946D01*
X026549Y023869D01*
X026560Y023861D01*
Y023150D01*
X026560Y023150D01*
X026560D01*
X026579Y023054D01*
X026633Y022973D01*
X027250Y022357D01*
Y017390D01*
X027250Y017390D01*
X027250D01*
X027269Y017294D01*
X027323Y017213D01*
X028539Y015998D01*
X028549Y015922D01*
X028586Y015833D01*
X028644Y015757D01*
X028721Y015699D01*
X028810Y015662D01*
X028905Y015649D01*
X029000Y015662D01*
X029089Y015699D01*
X029165Y015757D01*
X029224Y015833D01*
X029261Y015922D01*
X029273Y016018D01*
X029261Y016113D01*
X029224Y016202D01*
X029165Y016278D01*
X029089Y016337D01*
X029000Y016374D01*
X028905Y016386D01*
X028863Y016381D01*
X027750Y017493D01*
Y022460D01*
X027734Y022540D01*
X027731Y022556D01*
X027677Y022637D01*
X027060Y023253D01*
Y023861D01*
X027071Y023869D01*
X027129Y023946D01*
X027166Y024035D01*
X027175Y024103D01*
X027225Y024099D01*
Y024060D01*
X027540D01*
Y024336D01*
X027225D01*
Y024161D01*
X027175Y024157D01*
X027166Y024225D01*
X027129Y024314D01*
X027071Y024391D01*
X026994Y024449D01*
X026905Y024486D01*
X026810Y024498D01*
D02*
G37*
G36*
X055765Y024340D02*
X055450D01*
Y024025D01*
X055765D01*
Y024340D01*
D02*
G37*
G36*
X029030Y024180D02*
X028715D01*
Y023963D01*
X029030D01*
Y024180D01*
D02*
G37*
G36*
X042530Y026322D02*
X042441Y026304D01*
X042366Y026254D01*
X042316Y026179D01*
X042298Y026090D01*
X042316Y026001D01*
X042366Y025926D01*
X042441Y025876D01*
X042530Y025858D01*
X042619Y025876D01*
X042694Y025926D01*
X042722Y025968D01*
X044629D01*
X046476Y024121D01*
X046468Y024080D01*
X046486Y023991D01*
X046536Y023916D01*
X046611Y023866D01*
X046700Y023848D01*
X046789Y023866D01*
X046864Y023916D01*
X046914Y023991D01*
X046932Y024080D01*
X046914Y024169D01*
X046864Y024244D01*
X046789Y024294D01*
X046700Y024312D01*
X046643Y024300D01*
X044767Y026177D01*
X044727Y026203D01*
X044680Y026212D01*
X042722D01*
X042694Y026254D01*
X042619Y026304D01*
X042530Y026322D01*
D02*
G37*
G36*
X027955Y024712D02*
X027640D01*
Y024386D01*
Y024060D01*
X027948D01*
X027984Y024025D01*
Y023996D01*
X028240D01*
Y024302D01*
Y024608D01*
X027991D01*
X027991Y024608D01*
D01*
D01*
X027991Y024608D01*
X027984Y024608D01*
X027955Y024637D01*
Y024712D01*
D02*
G37*
G36*
X029445Y024180D02*
X029130D01*
Y023963D01*
X029445D01*
Y024180D01*
D02*
G37*
G36*
X027540Y024712D02*
X027225D01*
Y024436D01*
X027540D01*
Y024712D01*
D02*
G37*
G36*
X028596Y024608D02*
X028340D01*
Y024352D01*
X028596D01*
Y024608D01*
D02*
G37*
G36*
X055765Y024755D02*
X055450D01*
Y024440D01*
X055765D01*
Y024755D01*
D02*
G37*
G36*
X055350D02*
X055035D01*
Y024440D01*
X055350D01*
Y024755D01*
D02*
G37*
G36*
X029445Y024497D02*
X029130D01*
Y024280D01*
X029445D01*
Y024497D01*
D02*
G37*
G36*
X029030D02*
X028715D01*
Y024280D01*
X029030D01*
Y024497D01*
D02*
G37*
G36*
X031925Y024950D02*
X031610D01*
Y024280D01*
X031925D01*
Y024950D01*
D02*
G37*
G36*
X031510D02*
X031195D01*
Y024280D01*
X031510D01*
Y024950D01*
D02*
G37*
G36*
X055765Y023070D02*
X055450D01*
Y022755D01*
X055765D01*
Y023070D01*
D02*
G37*
G36*
X055350D02*
X055035D01*
Y022755D01*
X055350D01*
Y023070D01*
D02*
G37*
G36*
Y023485D02*
X055035D01*
Y023170D01*
X055350D01*
Y023485D01*
D02*
G37*
G36*
X046010Y023252D02*
X045921Y023234D01*
X045846Y023184D01*
X045818Y023142D01*
X045580D01*
X045533Y023133D01*
X045493Y023107D01*
X045063Y022677D01*
X045037Y022637D01*
X045028Y022590D01*
Y021792D01*
X044986Y021764D01*
X044936Y021689D01*
X044934Y021678D01*
X044885Y021668D01*
X044874Y021684D01*
X044799Y021734D01*
X044710Y021752D01*
X044621Y021734D01*
X044546Y021684D01*
X044496Y021609D01*
X044478Y021520D01*
X044496Y021431D01*
X044546Y021356D01*
X044621Y021306D01*
X044710Y021288D01*
X044767Y021300D01*
X044913Y021153D01*
X044913Y021153D01*
X044913D01*
X044913Y021153D01*
X044913D01*
X044913Y021153D01*
Y021153D01*
Y021153D01*
D01*
D01*
X044913D01*
Y021153D01*
X044953Y021127D01*
X045000Y021118D01*
X045398D01*
Y021013D01*
X045853D01*
Y021467D01*
X045843D01*
Y021503D01*
X045843D01*
Y021957D01*
X045561D01*
X045552Y021966D01*
Y022268D01*
X045594Y022296D01*
X045644Y022371D01*
X045662Y022460D01*
X045644Y022549D01*
X045594Y022624D01*
X045519Y022674D01*
X045430Y022692D01*
X045428Y022695D01*
X045631Y022898D01*
X045818D01*
X045846Y022856D01*
X045921Y022806D01*
X046010Y022788D01*
X046099Y022806D01*
X046174Y022856D01*
X046224Y022931D01*
X046242Y023020D01*
X046224Y023109D01*
X046174Y023184D01*
X046099Y023234D01*
X046010Y023252D01*
D02*
G37*
G36*
X052332Y022237D02*
X052095D01*
Y022020D01*
X052332D01*
Y022237D01*
D02*
G37*
G36*
X051995D02*
X051759D01*
Y022020D01*
X051995D01*
Y022237D01*
D02*
G37*
G36*
X044150Y023882D02*
X044061Y023864D01*
X043986Y023814D01*
X043936Y023739D01*
X043918Y023650D01*
X043936Y023561D01*
X043986Y023486D01*
X044061Y023436D01*
X044150Y023418D01*
X044239Y023436D01*
X044314Y023486D01*
X044335Y023518D01*
X045972D01*
X047362Y022128D01*
Y021997D01*
X047198D01*
Y021463D01*
Y020973D01*
X047771D01*
Y021463D01*
Y021582D01*
X047819Y021596D01*
X047846Y021556D01*
X047921Y021506D01*
X048010Y021488D01*
X048099Y021506D01*
X048174Y021556D01*
X048224Y021631D01*
X048242Y021720D01*
X048224Y021809D01*
X048174Y021884D01*
X048099Y021934D01*
X048010Y021952D01*
X047921Y021934D01*
X047846Y021884D01*
X047825Y021852D01*
X047771D01*
Y021997D01*
X047607D01*
Y022178D01*
X047598Y022225D01*
X047571Y022265D01*
Y022265D01*
X047571Y022265D01*
D01*
D01*
D01*
X047571Y022265D01*
X047571Y022265D01*
X047161Y022675D01*
X047170Y022695D01*
X047182Y022721D01*
X047290Y022706D01*
X047400Y022721D01*
X047502Y022763D01*
X047590Y022830D01*
X047657Y022918D01*
X047699Y023020D01*
X047714Y023130D01*
X047699Y023240D01*
X047657Y023342D01*
X047590Y023430D01*
X047502Y023497D01*
X047400Y023539D01*
X047290Y023554D01*
X047180Y023539D01*
X047078Y023497D01*
X046990Y023430D01*
X046923Y023342D01*
X046881Y023240D01*
X046866Y023130D01*
X046881Y023022D01*
X046855Y023010D01*
X046835Y023001D01*
X046109Y023727D01*
X046070Y023753D01*
X046023Y023762D01*
X044349D01*
X044314Y023814D01*
X044239Y023864D01*
X044150Y023882D01*
D02*
G37*
G36*
X034200Y022962D02*
X031210D01*
X031163Y022953D01*
X031123Y022927D01*
X030649Y022452D01*
X029980D01*
X029933Y022443D01*
X029917Y022432D01*
X029893Y022417D01*
X029657Y022180D01*
X029595Y022206D01*
X029500Y022218D01*
X029405Y022206D01*
X029316Y022169D01*
X029239Y022111D01*
X029181Y022034D01*
X029144Y021945D01*
X029132Y021850D01*
X029144Y021755D01*
X029181Y021666D01*
X029239Y021589D01*
X029316Y021531D01*
X029405Y021494D01*
X029500Y021482D01*
X029595Y021494D01*
X029684Y021531D01*
X029761Y021589D01*
X029819Y021666D01*
X029856Y021755D01*
X029868Y021850D01*
X029856Y021945D01*
X029830Y022007D01*
X030031Y022208D01*
X030288D01*
X030304Y022160D01*
X030239Y022111D01*
X030181Y022034D01*
X030144Y021945D01*
X030132Y021850D01*
X030144Y021755D01*
X030181Y021666D01*
X030239Y021589D01*
X030316Y021531D01*
X030405Y021494D01*
X030500Y021482D01*
X030595Y021494D01*
X030684Y021531D01*
X030761Y021589D01*
X030819Y021666D01*
X030856Y021755D01*
X030868Y021850D01*
X030856Y021945D01*
X030830Y022007D01*
X031331Y022508D01*
X031919D01*
X031938Y022461D01*
X031657Y022180D01*
X031595Y022206D01*
X031500Y022218D01*
X031405Y022206D01*
X031316Y022169D01*
X031239Y022111D01*
X031181Y022034D01*
X031144Y021945D01*
X031132Y021850D01*
X031144Y021755D01*
X031170Y021693D01*
X031129Y021652D01*
X030973D01*
X030926Y021643D01*
X030887Y021617D01*
X030642Y021371D01*
X030615Y021332D01*
X030606Y021285D01*
Y020669D01*
X029374Y019437D01*
X029348Y019398D01*
X029338Y019351D01*
Y019055D01*
X029203D01*
Y018325D01*
X029658D01*
Y019055D01*
X029583D01*
Y019300D01*
X030815Y020532D01*
X030841Y020571D01*
X030842Y020575D01*
X031178D01*
Y020411D01*
X030163Y019397D01*
X030137Y019357D01*
X030128Y019310D01*
Y019055D01*
X029991D01*
Y018325D01*
X030446D01*
Y019055D01*
X030372D01*
Y019259D01*
X031387Y020273D01*
X031413Y020313D01*
X031422Y020360D01*
D01*
D01*
D01*
D01*
D01*
X031422D01*
D01*
D01*
D01*
D01*
Y020360D01*
X031422D01*
D01*
Y020360D01*
D01*
D01*
D01*
D01*
D01*
D01*
D01*
D01*
D01*
D01*
D01*
D01*
Y020360D01*
D01*
X031422D01*
D01*
D01*
D01*
D01*
X031422Y020360D01*
Y021045D01*
X031519Y021142D01*
X031566Y021122D01*
Y020575D01*
X032020D01*
Y020827D01*
X032065Y020850D01*
X032101Y020826D01*
X032190Y020808D01*
X032279Y020826D01*
X032309Y020846D01*
X032353Y020822D01*
Y020575D01*
X032808D01*
Y021305D01*
X032353D01*
Y021258D01*
X032309Y021234D01*
X032279Y021254D01*
X032190Y021272D01*
X032101Y021254D01*
X032065Y021230D01*
X032020Y021253D01*
Y021305D01*
D01*
Y021305D01*
X032028Y021312D01*
X032075D01*
X032122Y021322D01*
X032161Y021348D01*
X032336Y021523D01*
X032405Y021494D01*
X032500Y021482D01*
X032595Y021494D01*
X032684Y021531D01*
X032761Y021589D01*
X032819Y021666D01*
X032856Y021755D01*
X032868Y021850D01*
X032856Y021945D01*
X032827Y022014D01*
X032956Y022143D01*
X033135D01*
Y021900D01*
X033865D01*
Y022026D01*
X033911Y022046D01*
X034293Y021663D01*
Y021663D01*
D01*
Y021663D01*
X034293Y021663D01*
D01*
D01*
X034293D01*
X034293Y021663D01*
Y021663D01*
Y021663D01*
D01*
D01*
X034293D01*
Y021663D01*
X034333Y021637D01*
X034380Y021628D01*
X038688D01*
X038716Y021586D01*
X038791Y021536D01*
X038880Y021518D01*
X038969Y021536D01*
X039044Y021586D01*
X039094Y021661D01*
X039112Y021750D01*
X039107Y021775D01*
X039140Y021808D01*
X039229Y021826D01*
X039304Y021876D01*
X039354Y021951D01*
X039372Y022040D01*
X039370Y022048D01*
X039406Y022083D01*
X039430Y022078D01*
X039519Y022096D01*
X039594Y022146D01*
X039631Y022201D01*
X039679Y022187D01*
Y021853D01*
X039804D01*
X039843Y021815D01*
X039843Y021815D01*
D01*
X039852Y021768D01*
X039879Y021728D01*
X040018Y021589D01*
X040008Y021540D01*
X040026Y021451D01*
X040076Y021376D01*
X040151Y021326D01*
X040240Y021308D01*
X040329Y021326D01*
X040404Y021376D01*
X040454Y021451D01*
X040472Y021540D01*
X040454Y021629D01*
X040404Y021704D01*
X040329Y021754D01*
X040240Y021772D01*
X040191Y021762D01*
X040146Y021807D01*
X040165Y021853D01*
X040252D01*
Y022387D01*
X040213D01*
Y022807D01*
X039758D01*
Y022732D01*
X039372D01*
X039344Y022774D01*
X039269Y022824D01*
X039180Y022842D01*
X039091Y022824D01*
X039016Y022774D01*
X038966Y022699D01*
X038948Y022610D01*
X038966Y022521D01*
X038980Y022500D01*
X038980Y022465D01*
X038976Y022456D01*
X038927Y022446D01*
X038918Y022455D01*
X038905Y022475D01*
X038912Y022510D01*
X038894Y022599D01*
X038844Y022674D01*
X038769Y022724D01*
X038680Y022742D01*
X038591Y022724D01*
X038516Y022674D01*
X038488Y022632D01*
X034581D01*
X034287Y022927D01*
X034247Y022953D01*
X034200Y022962D01*
D02*
G37*
G36*
X041825Y023850D02*
X041589D01*
Y023633D01*
X041825D01*
Y023850D01*
D02*
G37*
G36*
X031925Y024180D02*
X031610D01*
Y023510D01*
X031925D01*
Y024180D01*
D02*
G37*
G36*
X042550Y025062D02*
X042461Y025044D01*
X042386Y024994D01*
X042336Y024919D01*
X042318Y024830D01*
X042336Y024741D01*
X042349Y024721D01*
X042326Y024677D01*
X042258D01*
Y024167D01*
X042258D01*
Y023633D01*
X042831D01*
Y024143D01*
X042831D01*
Y024677D01*
X042774D01*
X042751Y024721D01*
X042764Y024741D01*
X042782Y024830D01*
X042764Y024919D01*
X042714Y024994D01*
X042639Y025044D01*
X042550Y025062D01*
D02*
G37*
G36*
X042162Y023850D02*
X041925D01*
Y023633D01*
X042162D01*
Y023850D01*
D02*
G37*
G36*
X052090Y024054D02*
X051980Y024039D01*
X051878Y023997D01*
X051790Y023930D01*
X051723Y023842D01*
X051681Y023740D01*
X051666Y023630D01*
X051681Y023520D01*
X051723Y023418D01*
X051790Y023330D01*
X051878Y023263D01*
X051980Y023221D01*
X052090Y023206D01*
X052200Y023221D01*
X052302Y023263D01*
X052390Y023330D01*
X052457Y023418D01*
X052499Y023520D01*
X052514Y023630D01*
X052499Y023740D01*
X052457Y023842D01*
X052390Y023930D01*
X052302Y023997D01*
X052200Y024039D01*
X052090Y024054D01*
D02*
G37*
G36*
X055765Y023485D02*
X055450D01*
Y023170D01*
X055765D01*
Y023485D01*
D02*
G37*
G36*
X031510Y024180D02*
X031195D01*
Y023510D01*
X031510D01*
Y024180D01*
D02*
G37*
G36*
X029445Y023591D02*
X028715D01*
Y023426D01*
X028596D01*
Y023584D01*
X027984D01*
Y022972D01*
X028596D01*
Y023130D01*
X028715D01*
Y023058D01*
X028932D01*
Y022501D01*
X028625Y022194D01*
X028595Y022206D01*
X028500Y022218D01*
X028405Y022206D01*
X028316Y022169D01*
X028239Y022111D01*
X028181Y022034D01*
X028144Y021945D01*
X028132Y021850D01*
X028144Y021755D01*
X028156Y021725D01*
X028034Y021603D01*
X028002Y021555D01*
X027991Y021499D01*
Y020001D01*
X028002Y019945D01*
X028002Y019945D01*
X028002Y019945D01*
X028034Y019897D01*
X028516Y019415D01*
Y019055D01*
X028416D01*
Y018325D01*
X028516D01*
Y018237D01*
X028379D01*
Y017703D01*
X028952D01*
Y018237D01*
X028811D01*
Y018325D01*
X028871D01*
Y019055D01*
X028811D01*
Y019477D01*
X028800Y019533D01*
X028768Y019581D01*
X028768Y019581D01*
D01*
D01*
D01*
D01*
X028768Y019581D01*
D01*
D01*
X028768D01*
X028287Y020062D01*
Y021438D01*
X028361Y021512D01*
X028405Y021494D01*
X028500Y021482D01*
X028595Y021494D01*
X028684Y021531D01*
X028761Y021589D01*
X028819Y021666D01*
X028856Y021755D01*
X028868Y021850D01*
X028856Y021945D01*
X028838Y021989D01*
X029184Y022335D01*
X029216Y022383D01*
X029228Y022440D01*
D01*
D01*
D01*
D01*
D01*
X029228D01*
D01*
D01*
D01*
D01*
Y022440D01*
X029228D01*
D01*
Y022440D01*
D01*
D01*
D01*
D01*
D01*
D01*
D01*
D01*
D01*
D01*
D01*
D01*
Y022440D01*
D01*
X029228D01*
D01*
D01*
D01*
D01*
X029228Y022440D01*
Y023058D01*
X029445D01*
Y023591D01*
D02*
G37*
%LPD*%
D10*
X052715Y021970D02*
D03*
X052045D02*
D03*
X047485Y021730D02*
D03*
X046815D02*
D03*
X047485Y021240D02*
D03*
X046815D02*
D03*
X053615Y018620D02*
D03*
X052945D02*
D03*
X043085Y025540D02*
D03*
X043755D02*
D03*
X042545Y023900D02*
D03*
X041875D02*
D03*
X047615Y019420D02*
D03*
X046945D02*
D03*
X039965Y022120D02*
D03*
X040635D02*
D03*
X042545Y024410D02*
D03*
X041875D02*
D03*
X029335Y017970D02*
D03*
X028665D02*
D03*
X049395Y021200D02*
D03*
X050065D02*
D03*
D11*
X054520Y019305D02*
D03*
Y019975D02*
D03*
X050230Y019155D02*
D03*
Y019825D02*
D03*
X054520Y020535D02*
D03*
Y021205D02*
D03*
X048490Y019005D02*
D03*
Y018335D02*
D03*
D12*
X045615Y021730D02*
D03*
X046265D02*
D03*
X045625Y021240D02*
D03*
X046275D02*
D03*
X039985Y022580D02*
D03*
X040635D02*
D03*
D13*
X053629Y019404D02*
D03*
D14*
Y019660D02*
D03*
Y019916D02*
D03*
Y020172D02*
D03*
Y020428D02*
D03*
Y020684D02*
D03*
Y020940D02*
D03*
Y021196D02*
D03*
X051051Y019404D02*
D03*
Y019660D02*
D03*
Y019916D02*
D03*
Y020172D02*
D03*
Y020428D02*
D03*
Y020684D02*
D03*
Y020940D02*
D03*
Y021196D02*
D03*
D15*
X028290Y024302D02*
D03*
Y023278D02*
D03*
D16*
X031560Y024230D02*
D03*
D17*
X029080Y023324D02*
D03*
Y024230D02*
D03*
Y025136D02*
D03*
D18*
X050705Y016951D02*
D03*
X051020D02*
D03*
X049760D02*
D03*
X050075D02*
D03*
X050390D02*
D03*
D19*
X048451Y015287D02*
D03*
X052329Y015287D02*
D03*
D20*
X048451Y016961D02*
D03*
D21*
X052329D02*
D03*
D22*
X028693Y026470D02*
D03*
X029481D02*
D03*
X030268D02*
D03*
X031056D02*
D03*
X031843D02*
D03*
X032630D02*
D03*
X033418D02*
D03*
X034205D02*
D03*
X034993D02*
D03*
X035780D02*
D03*
X028693Y028720D02*
D03*
X029481D02*
D03*
X030268D02*
D03*
X031056D02*
D03*
X031843D02*
D03*
X032630D02*
D03*
X033418D02*
D03*
X034205D02*
D03*
X034993D02*
D03*
X035780D02*
D03*
X035730Y020940D02*
D03*
X034943D02*
D03*
X034155D02*
D03*
X033368D02*
D03*
X032580D02*
D03*
X031793D02*
D03*
X031006D02*
D03*
X030218D02*
D03*
X029431D02*
D03*
X028643D02*
D03*
X035730Y018690D02*
D03*
X034943D02*
D03*
X034155D02*
D03*
X033368D02*
D03*
X032580D02*
D03*
X031793D02*
D03*
X031006D02*
D03*
X030218D02*
D03*
X029431D02*
D03*
X028643D02*
D03*
D23*
X027590Y024386D02*
D03*
Y025134D02*
D03*
D24*
X049760Y016951D02*
Y017350D01*
X048775Y018335D02*
X049760Y017350D01*
X047695Y018335D02*
X048775D01*
X047390Y018030D02*
X047695Y018335D01*
X046360Y022700D02*
Y023062D01*
X046042Y023380D02*
X046360Y023062D01*
X045380Y023380D02*
X046042D01*
X047485Y021730D02*
Y022178D01*
X046023Y023640D02*
X047485Y022178D01*
X044140Y023640D02*
X046023D01*
X045020Y023020D02*
X045380Y023380D01*
X044490Y023020D02*
X045020D01*
X043910Y020630D02*
X048825D01*
X043250Y019970D02*
X043910Y020630D01*
X048825D02*
X049395Y021200D01*
X049310Y020690D02*
X051080D01*
X049080Y020460D02*
X049310Y020690D01*
X044120Y020460D02*
X049080D01*
X043780Y020120D02*
X044120Y020460D01*
X043780Y019470D02*
Y020120D01*
Y019470D02*
X044120Y019130D01*
X044170Y021380D02*
Y022230D01*
X044490Y021692D02*
Y023020D01*
X044433Y021635D02*
X044490Y021692D01*
X044433Y021197D02*
Y021635D01*
Y021197D02*
X044660Y020970D01*
X039430Y022300D02*
Y022300D01*
X039410Y022320D02*
X039430Y022300D01*
X038980Y022320D02*
X039410D01*
X038893Y022233D02*
X038980Y022320D01*
X034507Y022233D02*
X038893D01*
X034110Y022630D02*
X034507Y022233D01*
X031280Y022630D02*
X034110D01*
X030500Y021850D02*
X031280Y022630D01*
X039150Y022610D02*
X039975D01*
X040710Y022970D02*
X040720D01*
X040490Y023190D02*
X040710Y022970D01*
X038880Y023190D02*
X040490D01*
X037620Y024450D02*
X038880Y023190D01*
X039680Y024508D02*
Y025860D01*
X037600Y024450D02*
X037620D01*
X033865Y022265D02*
X034380Y021750D01*
X032905Y022265D02*
X033865D01*
X032075Y021435D02*
X032905Y022265D01*
X031639Y021435D02*
X032075D01*
X031300Y021095D02*
X031639Y021435D01*
X034380Y021750D02*
X038800D01*
X031300Y020360D02*
Y021095D01*
X030250Y019310D02*
X031300Y020360D01*
X030250Y018820D02*
Y019310D01*
X030973Y021530D02*
X031180D01*
X030728Y021285D02*
X030973Y021530D01*
X030728Y020618D02*
Y021285D01*
X029461Y019351D02*
X030728Y020618D01*
X031180Y021530D02*
X031500Y021850D01*
X029461Y018790D02*
Y019351D01*
X029185Y018275D02*
X029330D01*
X028970Y018490D02*
X029185Y018275D01*
X029330D02*
X029335Y018270D01*
Y017970D02*
Y018270D01*
X028970Y018490D02*
Y019320D01*
X029470Y019820D01*
Y020180D01*
X031880Y016850D02*
Y017710D01*
X033297Y018177D02*
X033840D01*
X033050Y017930D02*
X033297Y018177D01*
X033050Y016910D02*
Y017930D01*
X032713Y016573D02*
X033050Y016910D01*
X030450Y016580D02*
X030900Y016130D01*
X041460Y023700D02*
X041875Y023285D01*
X041180Y023700D02*
X041460D01*
X040880Y023400D02*
X041180Y023700D01*
X039100Y023400D02*
X040880D01*
X042845Y018832D02*
Y020055D01*
X042670Y018730D02*
Y021280D01*
X041820Y019400D02*
X042170Y019750D01*
X041820Y018510D02*
Y019400D01*
X042170Y019750D02*
Y021570D01*
X042845Y018832D02*
X044060Y017617D01*
Y016040D02*
Y017617D01*
X042670Y018730D02*
X043870Y017530D01*
Y016530D02*
Y017530D01*
X041820Y018510D02*
X043330Y017000D01*
X043500D01*
X042845Y020055D02*
X044170Y021380D01*
X038070Y016530D02*
X038470D01*
X039420Y015580D01*
X043600D01*
X044060Y016040D01*
X043250Y018970D02*
Y019970D01*
X042670Y021280D02*
X042960Y021570D01*
X043500Y016160D02*
X043870Y016530D01*
X043500Y016000D02*
Y016160D01*
X042110Y025110D02*
X042980D01*
X047020Y024008D02*
Y024440D01*
X046782Y023770D02*
X047020Y024008D01*
X046340Y023770D02*
X046782D01*
X046170Y026600D02*
X046640D01*
X045860Y026290D02*
X046170Y026600D01*
X045860Y025600D02*
Y026290D01*
Y025600D02*
X047020Y024440D01*
X045820Y024290D02*
X046340Y023770D01*
X045580Y023020D02*
X046010D01*
X045150Y022590D02*
X045580Y023020D01*
X045150Y021600D02*
Y022590D01*
X045420Y022460D02*
X045430Y022450D01*
Y021915D02*
Y022450D01*
Y021915D02*
X045615Y021730D01*
X046650Y022410D02*
X046930D01*
X046360Y022700D02*
X046650Y022410D01*
X051944Y019774D02*
X052116Y019946D01*
Y020414D01*
X052045Y020485D02*
X052116Y020414D01*
X052045Y020485D02*
Y021970D01*
X051486Y019916D02*
X051913Y019489D01*
Y018917D02*
Y019489D01*
X051051Y019916D02*
X051486D01*
X053214Y020940D02*
X053629D01*
X052715Y021439D02*
X053214Y020940D01*
X052715Y021439D02*
Y021970D01*
X054575Y021205D02*
X054580D01*
X054054Y020684D02*
X054575Y021205D01*
X053629Y020684D02*
X054054D01*
X053214Y019916D02*
X053629D01*
X052945Y019648D02*
X053214Y019916D01*
X052945Y018620D02*
Y019648D01*
X051051Y019404D02*
Y019660D01*
X050479Y019404D02*
X051051D01*
X050230Y019155D02*
X050479Y019404D01*
X050230Y019825D02*
X050485D01*
X050576Y019916D02*
X051051D01*
X050517Y019857D02*
X050576Y019916D01*
X050065Y021200D02*
X051046D01*
X053629Y018170D02*
Y019404D01*
X054165Y019660D02*
X054520Y019305D01*
X053629Y019660D02*
X054165D01*
X054323Y020172D02*
X054520Y019975D01*
X053629Y020172D02*
X054323D01*
X053629Y020428D02*
X054473D01*
X033830Y019270D02*
X034090Y019530D01*
X032170Y020280D02*
X032820D01*
X032080D02*
X032170D01*
X032820D02*
X032940Y020160D01*
X033830Y019270D01*
X033840Y019260D01*
X032940Y020160D02*
Y021760D01*
X033030Y021850D01*
X033500D01*
X043085Y025215D02*
Y025540D01*
X043740Y025060D02*
Y025525D01*
X042950Y025080D02*
X043640Y024390D01*
X033705Y015018D02*
X034160D01*
X032505D02*
X033705D01*
X031305D02*
X032505D01*
X030105D02*
X031305D01*
X042550Y023905D02*
Y024830D01*
X041180Y026040D02*
X042110Y025110D01*
X042980D02*
X043085Y025215D01*
X034160Y015018D02*
Y017857D01*
X033840Y018177D02*
X034160Y017857D01*
X033840Y018177D02*
Y019260D01*
X029325Y017545D02*
X029520Y017350D01*
X042420Y023040D02*
Y023170D01*
X043640Y024390D01*
X039965Y021815D02*
Y022120D01*
Y021815D02*
X040240Y021540D01*
X040635Y022120D02*
Y022590D01*
X028905Y015018D02*
X029520D01*
X030105D01*
X030700Y016830D02*
Y017370D01*
X030450Y016580D02*
X030700Y016830D01*
X029520Y016580D02*
X030450D01*
X029520Y015018D02*
Y016580D01*
Y017350D01*
X028700Y024230D02*
X029080D01*
X028290Y024302D02*
X028628D01*
X028700Y024230D01*
X030140Y023020D02*
Y024220D01*
X029880Y025790D02*
Y028080D01*
X029950Y024240D02*
Y025720D01*
X029080Y024230D02*
X031560D01*
X039140Y022040D02*
X039150Y022030D01*
X033950Y022460D02*
X034420Y021990D01*
X038662D01*
X038712Y022040D01*
X039140D01*
X032110Y022460D02*
X033950D01*
X031510Y021860D02*
X032110Y022460D01*
X042420Y022260D02*
X042790Y022630D01*
X034160Y017860D02*
X035370D01*
X035730Y018220D01*
X029325Y017545D02*
Y018010D01*
X034160Y015018D02*
X034905D01*
X035730Y018220D02*
Y018690D01*
Y018920D01*
X034090Y019530D02*
X034320D01*
X034360Y019490D01*
X031560Y024230D02*
X033540D01*
X034780Y022990D01*
X051051Y020172D02*
X051712D01*
X053629Y021196D02*
X053636D01*
X053981Y021541D01*
X054979D01*
X055400Y021120D01*
X052720Y018110D02*
X053620D01*
X051913Y018917D02*
X052720Y018110D01*
X049835Y019825D02*
X050230D01*
X049655Y019155D02*
X050230D01*
X049320Y019490D02*
X049655Y019155D01*
X051020Y016951D02*
X052319D01*
X050075Y016365D02*
Y016951D01*
X050390Y016040D02*
Y016951D01*
X049100Y018335D02*
X050395D01*
X051020Y017710D01*
Y016951D02*
Y017710D01*
X048451Y015287D02*
Y016961D01*
X044310Y017390D02*
X044630Y017710D01*
X044310Y015160D02*
Y017390D01*
Y015160D02*
X044470Y015000D01*
X044980D01*
X038400Y018000D02*
Y019550D01*
X035730Y018690D02*
X036290D01*
X037660Y020060D01*
X039150D02*
X039170Y020040D01*
X037660Y020060D02*
X039150D01*
X039680Y025860D02*
X040450Y026630D01*
X038140Y026880D02*
X039740D01*
X033760Y024450D02*
X036010D01*
X033540Y024230D02*
X033760Y024450D01*
X046760Y016520D02*
Y018570D01*
X046600Y018730D02*
X046760Y018570D01*
X046600Y018730D02*
Y019400D01*
X040230Y018280D02*
X041200D01*
X041700Y017780D01*
X046010Y023020D02*
X046030D01*
X046265Y021730D02*
X046815D01*
X046275Y021240D02*
X046815D01*
X044280Y023230D02*
X044490Y023020D01*
X043850Y023230D02*
X044280D01*
X043740Y023120D02*
X043850Y023230D01*
X042420Y023040D02*
X043740Y021720D01*
Y021550D02*
Y021720D01*
Y023120D01*
X043850Y023230D02*
Y023890D01*
X044250Y024290D01*
X045820D01*
X042600Y026090D02*
X044680D01*
X046645Y024125D01*
X049370Y027850D02*
X049840D01*
X050100Y028110D01*
X051570D01*
X052600Y029140D01*
X049928Y020428D02*
X051051D01*
X049320Y019490D02*
Y019820D01*
X049928Y020428D01*
X027680Y023970D02*
Y024475D01*
Y023970D02*
X027830Y023820D01*
X028220D01*
X028290Y023890D01*
Y024302D01*
X040450Y026630D02*
Y027170D01*
X041390Y024410D02*
X041875D01*
X041330Y020150D02*
X041550Y019930D01*
X041330Y020150D02*
Y023410D01*
X041990Y023170D02*
X042420D01*
X029500Y021850D02*
X029980Y022330D01*
X030700D01*
X031210Y022840D01*
X034200D01*
X034530Y022510D01*
X038680D01*
X029910Y022790D02*
X030140Y023020D01*
X044460Y029100D02*
X045030Y028530D01*
X046900D01*
X047470Y029100D01*
X044230Y020160D02*
X047880D01*
X047980Y020060D01*
Y019960D02*
Y020060D01*
X047615Y019420D02*
X048130D01*
X048575Y018975D01*
Y018925D02*
Y018975D01*
X041875Y023285D02*
X041990Y023170D01*
X041875Y023255D02*
Y023285D01*
Y023900D01*
X044710Y021530D02*
X045000Y021240D01*
X045465D01*
X047485D02*
Y021730D01*
X047970D02*
X048010Y021690D01*
X047485Y021730D02*
X047970D01*
D25*
X028139Y020001D02*
X028663Y019477D01*
X028139Y020001D02*
Y021499D01*
X029080Y022440D01*
X028643Y018690D02*
X028663Y018710D01*
Y019477D01*
X029080Y022440D02*
Y023324D01*
X028663Y018150D02*
Y018690D01*
X028290Y023278D02*
X028852D01*
X041370Y024410D02*
X041390D01*
D26*
X047142Y020968D02*
X047250Y020860D01*
X047870D01*
X047142Y020968D02*
Y022198D01*
X046930Y022410D02*
X047142Y022198D01*
D27*
X037640Y028080D02*
X048220D01*
X027500Y017390D02*
Y022460D01*
X026810Y023150D02*
X027500Y022460D01*
Y017390D02*
X028872Y016018D01*
X028905D01*
X026834Y025110D02*
Y025130D01*
X026810D02*
X026834D01*
X026810Y023150D02*
Y024130D01*
X052730Y024390D02*
X055400D01*
X052090Y025030D02*
X052730Y024390D01*
X037520Y028200D02*
X037640Y028080D01*
X048220D02*
X049890Y026410D01*
X052090D01*
X052150Y026350D01*
D28*
X026834Y025130D02*
X029074D01*
D29*
X038260Y024960D02*
X038499D01*
X039479Y023980D02*
X040220D01*
X040650Y024410D01*
X038499Y024960D02*
X039479Y023980D01*
X040650Y024410D02*
X041370D01*
D30*
X028500Y021850D02*
D03*
X029500D02*
D03*
X030500D02*
D03*
X031500D02*
D03*
X032500D02*
D03*
X044980Y017000D02*
D03*
Y016000D02*
D03*
X046030Y017000D02*
D03*
Y016000D02*
D03*
X043310Y017000D02*
D03*
Y016000D02*
D03*
X034900Y017010D02*
D03*
Y016010D02*
D03*
X037220Y016000D02*
D03*
Y017000D02*
D03*
X036060Y017010D02*
D03*
Y016010D02*
D03*
X033705Y016018D02*
D03*
Y017018D02*
D03*
X032505D02*
D03*
Y016018D02*
D03*
X031305D02*
D03*
Y017018D02*
D03*
X030105D02*
D03*
Y016018D02*
D03*
X028905D02*
D03*
Y017018D02*
D03*
X039600Y016000D02*
D03*
Y017000D02*
D03*
X055400Y025390D02*
D03*
X026810Y024130D02*
D03*
X055400Y020120D02*
D03*
Y021120D02*
D03*
Y022120D02*
D03*
X041250Y017000D02*
D03*
Y016000D02*
D03*
X044250Y019030D02*
D03*
X042250D02*
D03*
X041250D02*
D03*
X026710Y018240D02*
D03*
X037600Y024470D02*
D03*
X044460Y029100D02*
D03*
X043460D02*
D03*
X042460D02*
D03*
X041460Y029100D02*
D03*
X040460Y029100D02*
D03*
X039460D02*
D03*
X047390Y018030D02*
D03*
Y017030D02*
D03*
Y016030D02*
D03*
X038400Y018000D02*
D03*
Y017000D02*
D03*
Y016000D02*
D03*
X047470Y029100D02*
D03*
X048470D02*
D03*
X049470D02*
D03*
X050470Y029100D02*
D03*
X051470Y029100D02*
D03*
X037540Y028090D02*
D03*
D31*
X033500Y021850D02*
D03*
X040250Y019030D02*
D03*
X025710Y018240D02*
D03*
X045460Y029100D02*
D03*
X046470D02*
D03*
D32*
X044980Y015000D02*
D03*
X046030D02*
D03*
X043310D02*
D03*
X034900Y015010D02*
D03*
X037220Y015000D02*
D03*
X036060Y015010D02*
D03*
X033705Y015018D02*
D03*
X032505D02*
D03*
X031305D02*
D03*
X030105D02*
D03*
X028905D02*
D03*
X039600Y015000D02*
D03*
X055400Y024390D02*
D03*
X026810Y025130D02*
D03*
X055400Y023120D02*
D03*
X041250Y015000D02*
D03*
X037600Y025470D02*
D03*
X047390Y015030D02*
D03*
X038400Y015000D02*
D03*
D33*
X026378Y028346D02*
D03*
X054724Y015748D02*
D03*
X026378D02*
D03*
X054724Y028346D02*
D03*
D34*
X052090Y023630D02*
D03*
X047290Y023130D02*
D03*
Y026930D02*
D03*
X052090Y025030D02*
D03*
Y026430D02*
D03*
D35*
X043250Y019030D02*
D03*
D36*
X028210Y022490D02*
D03*
X026940Y019390D02*
D03*
X029080Y029350D02*
D03*
X032280D02*
D03*
X034630Y029390D02*
D03*
X032550Y025560D02*
D03*
X036200Y025890D02*
D03*
X035400Y028090D02*
D03*
X032950D02*
D03*
X027000Y021140D02*
D03*
X028340Y017420D02*
D03*
X033140Y017640D02*
D03*
X035500Y017470D02*
D03*
X033100Y020140D02*
D03*
X032180Y023990D02*
D03*
X040240Y016640D02*
D03*
X026800Y017290D02*
D03*
X027730Y015830D02*
D03*
X027610Y026770D02*
D03*
X028400Y025700D02*
D03*
X029860Y024210D02*
D03*
X027450Y023420D02*
D03*
X033810Y026990D02*
D03*
X034520Y024910D02*
D03*
X043960Y028640D02*
D03*
X051470Y028390D02*
D03*
X052430Y027170D02*
D03*
X050090Y026950D02*
D03*
X050940Y025510D02*
D03*
X048560Y025520D02*
D03*
Y024450D02*
D03*
X050930Y024510D02*
D03*
X049740Y025010D02*
D03*
X050050Y023040D02*
D03*
X051690Y022870D02*
D03*
X053650Y022960D02*
D03*
X053840Y024160D02*
D03*
X054880Y025880D02*
D03*
X055530Y026520D02*
D03*
X053290Y027770D02*
D03*
X053250Y021680D02*
D03*
X049560Y015280D02*
D03*
X051060Y015290D02*
D03*
X055200Y018480D02*
D03*
X045160Y019510D02*
D03*
X038000Y022910D02*
D03*
X037140Y023340D02*
D03*
X038530Y028620D02*
D03*
X029470Y017410D02*
D03*
D37*
X038530Y026860D02*
D03*
X043700Y027570D02*
D03*
X051756Y020150D02*
D03*
X028520Y020190D02*
D03*
X052210Y014790D02*
D03*
X052460Y015270D02*
D03*
X052190Y015770D02*
D03*
X052200Y016530D02*
D03*
X052490Y016950D02*
D03*
X048320Y017370D02*
D03*
X048590Y015210D02*
D03*
X048280Y015630D02*
D03*
X048320Y014800D02*
D03*
X041370Y024420D02*
D03*
X037250Y027300D02*
D03*
X034780Y022990D02*
D03*
X036880Y029100D02*
D03*
X039170Y020040D02*
D03*
X040230Y018280D02*
D03*
X041670Y017790D02*
D03*
X046760Y016520D02*
D03*
X044700Y021000D02*
D03*
X048010D02*
D03*
X053620Y018110D02*
D03*
X046640Y026600D02*
D03*
X053780Y025790D02*
D03*
X052610Y029190D02*
D03*
X049370Y027850D02*
D03*
X041790Y027420D02*
D03*
X039740Y026880D02*
D03*
X029880Y028080D02*
D03*
X029950Y025720D02*
D03*
X029910Y022740D02*
D03*
X026140Y025860D02*
D03*
X025900Y022840D02*
D03*
X029470Y020180D02*
D03*
X036010Y024450D02*
D03*
X034370Y017640D02*
D03*
X030820Y017380D02*
D03*
X031880Y017710D02*
D03*
X037370Y019760D02*
D03*
X048300Y016800D02*
D03*
X053950Y022060D02*
D03*
X048910Y022170D02*
D03*
X050650Y021880D02*
D03*
X048630Y017070D02*
D03*
X047360Y018700D02*
D03*
D38*
X039430Y022310D02*
D03*
X039140Y022040D02*
D03*
X039180Y022610D02*
D03*
X040720Y022970D02*
D03*
X039680Y024508D02*
D03*
X042340Y016500D02*
D03*
X042380Y019550D02*
D03*
X045820Y024290D02*
D03*
X045600Y027670D02*
D03*
X045970Y019120D02*
D03*
X031330Y019200D02*
D03*
X029020Y021450D02*
D03*
X027480Y022400D02*
D03*
X041520Y019940D02*
D03*
X042420Y022260D02*
D03*
X043740Y025060D02*
D03*
X042530Y026090D02*
D03*
X038880Y021750D02*
D03*
X039000Y023470D02*
D03*
X043740Y021550D02*
D03*
X041190Y026000D02*
D03*
X042950Y025080D02*
D03*
X042170Y021570D02*
D03*
X042960D02*
D03*
X032170Y020280D02*
D03*
X048130Y019420D02*
D03*
X044710Y021520D02*
D03*
X048010Y021720D02*
D03*
X044150Y023650D02*
D03*
X042550Y024830D02*
D03*
X040240Y021540D02*
D03*
X032190Y021040D02*
D03*
X034040Y019420D02*
D03*
X044160Y022220D02*
D03*
X038070Y016530D02*
D03*
X048060Y019970D02*
D03*
X045150Y021600D02*
D03*
X045430Y022460D02*
D03*
X038680Y022510D02*
D03*
X049820Y019830D02*
D03*
X049320Y019490D02*
D03*
X050060Y016260D02*
D03*
X050380Y016030D02*
D03*
X038390Y019550D02*
D03*
X046010Y023020D02*
D03*
X046700Y024080D02*
D03*
X043820Y018370D02*
D03*
X046360Y022700D02*
D03*
X029980Y021540D02*
D03*
X040450Y027160D02*
D03*
X041330Y023420D02*
D03*
X029840Y019220D02*
D03*
X037160Y017580D02*
D03*
X036400Y017560D02*
D03*
X030850Y020330D02*
D03*
X044230Y020160D02*
D03*
X043780Y020100D02*
D03*
X042850Y018010D02*
D03*
X044130Y019670D02*
D03*
X040100Y019650D02*
D03*
X035330Y020820D02*
D03*
X036060Y021410D02*
D03*
X034370Y020220D02*
D03*
X034550Y018750D02*
D03*
X028190Y018900D02*
D03*
X039290Y025630D02*
D03*
X039630Y028520D02*
D03*
X040760D02*
D03*
Y026780D02*
D03*
X044330Y025810D02*
D03*
X044870Y025410D02*
D03*
X045270Y026050D02*
D03*
X043730Y026910D02*
D03*
X042840Y027130D02*
D03*
X044710Y027100D02*
D03*
X042330Y028540D02*
D03*
X048020Y028640D02*
D03*
X052120Y019110D02*
D03*
X050900Y019090D02*
D03*
X051680Y017930D02*
D03*
X049730Y018210D02*
D03*
X046480Y019820D02*
D03*
X049080Y015980D02*
D03*
X045740Y022170D02*
D03*
X039030Y025000D02*
D03*
X038350Y024370D02*
D03*
X038240Y024980D02*
D03*
X038500D02*
D03*
X041060Y024420D02*
D03*
X040730Y020390D02*
D03*
X041700D02*
D03*
X029030Y018400D02*
D03*
X049370Y020310D02*
D03*
D39*
X037970Y021470D02*
D03*
D40*
X044630Y017710D02*
D03*
D41*
X049524Y016035D02*
D03*
X051256D02*
D03*
M02*
