%FSAX24Y24*%
%MOIN*%
G70*
G01*
G75*
G04 Layer_Physical_Order=2*
G04 Layer_Color=16711680*
%ADD10R,0.0433X0.0394*%
%ADD11R,0.0394X0.0433*%
%ADD12R,0.0315X0.0315*%
%ADD13R,0.0846X0.0157*%
%ADD14R,0.0846X0.0157*%
%ADD15R,0.0472X0.0472*%
%ADD16R,0.0591X0.1299*%
%ADD17R,0.0591X0.0394*%
%ADD18R,0.0197X0.0886*%
%ADD19R,0.0807X0.1575*%
%ADD20R,0.0807X0.1378*%
%ADD21R,0.0807X0.1378*%
%ADD22R,0.0315X0.0591*%
%ADD23R,0.0591X0.0512*%
%ADD24C,0.0100*%
%ADD25C,0.0150*%
%ADD26C,0.0080*%
%ADD27C,0.0350*%
%ADD28C,0.0250*%
%ADD29C,0.0200*%
%ADD30C,0.0591*%
%ADD31R,0.0591X0.0591*%
%ADD32R,0.0591X0.0591*%
%ADD33P,0.2131X8X22.5*%
%ADD34C,0.0700*%
%ADD35O,0.0551X0.0591*%
%ADD36C,0.0500*%
%ADD37C,0.0472*%
%ADD38C,0.0315*%
%ADD39C,0.0276*%
%ADD40C,0.0350*%
%ADD41C,0.0354*%
%ADD42R,0.0787X0.0945*%
%ADD43R,0.0472X0.0354*%
%ADD44O,0.0551X0.0110*%
%ADD45R,0.0551X0.0110*%
%ADD46O,0.0110X0.0551*%
%ADD47O,0.0551X0.0110*%
%ADD48R,0.0433X0.0157*%
%ADD49O,0.0433X0.0157*%
%ADD50R,0.0315X0.0354*%
%ADD51R,0.0354X0.0236*%
%ADD52C,0.0070*%
%ADD53C,0.0090*%
G36*
X040490Y025349D02*
X040707D01*
Y025580D01*
X040857D01*
Y025603D01*
X040985D01*
Y025553D01*
X041035D01*
Y025216D01*
X041075Y025242D01*
X041091D01*
X041133Y025215D01*
X041182Y025205D01*
X041230Y025215D01*
X041272Y025242D01*
X041288D01*
X041328Y025216D01*
Y025553D01*
X041428D01*
Y025216D01*
X041469Y025242D01*
X041485D01*
X041526Y025215D01*
X041575Y025205D01*
X041624Y025215D01*
X041665Y025242D01*
X041682D01*
X041723Y025215D01*
X041772Y025205D01*
X041821Y025215D01*
X041862Y025242D01*
X041879D01*
X041920Y025215D01*
X041969Y025205D01*
X042018Y025215D01*
X042059Y025242D01*
X042076D01*
X042117Y025215D01*
X042166Y025205D01*
X042215Y025215D01*
X042256Y025242D01*
X042272D01*
X042314Y025215D01*
X042363Y025205D01*
X042398Y025212D01*
X042437Y025181D01*
Y025028D01*
X042386Y024994D01*
X042336Y024919D01*
X042318Y024830D01*
X042336Y024741D01*
X042386Y024666D01*
X042461Y024616D01*
X042550Y024598D01*
X042639Y024616D01*
X042714Y024666D01*
X042764Y024741D01*
X042782Y024830D01*
X042774Y024868D01*
X042816Y024896D01*
X042861Y024866D01*
X042950Y024848D01*
X043039Y024866D01*
X043114Y024916D01*
X043164Y024991D01*
X043182Y025080D01*
X043164Y025169D01*
X043145Y025198D01*
X043150Y025205D01*
X043199Y025215D01*
X043240Y025242D01*
X043257D01*
X043298Y025215D01*
X043347Y025205D01*
X043396Y025215D01*
X043437Y025242D01*
X043453D01*
X043495Y025215D01*
X043544Y025205D01*
X043593Y025215D01*
X043634Y025242D01*
X043650D01*
X043691Y025216D01*
Y025553D01*
X043791D01*
Y025216D01*
X043831Y025242D01*
X043847D01*
X043889Y025215D01*
X043937Y025205D01*
X043986Y025215D01*
X044028Y025242D01*
X044055Y025284D01*
X044065Y025333D01*
Y025580D01*
X044303D01*
X044309Y025579D01*
X044315Y025575D01*
X044709Y025181D01*
X044730Y025160D01*
X044985D01*
X045004Y025114D01*
X044830Y024940D01*
X044720D01*
Y024911D01*
X044360D01*
Y024660D01*
X044360Y024660D01*
X044360D01*
X044370Y024642D01*
X044367Y024637D01*
X044357Y024589D01*
X044367Y024540D01*
X044394Y024498D01*
Y024482D01*
X044367Y024441D01*
X044357Y024392D01*
X044367Y024343D01*
X044394Y024302D01*
Y024285D01*
X044367Y024244D01*
X044357Y024195D01*
X044367Y024146D01*
X044394Y024105D01*
Y024088D01*
X044367Y024047D01*
X044357Y023998D01*
X044367Y023949D01*
X044394Y023908D01*
Y023891D01*
X044367Y023850D01*
X044357Y023801D01*
X044367Y023752D01*
X044394Y023711D01*
Y023695D01*
X044368Y023654D01*
X044705D01*
Y023554D01*
X044368D01*
X044367Y023556D01*
X044364Y023567D01*
X044348Y023543D01*
X044316Y023522D01*
X044311Y023521D01*
X044271Y023494D01*
X044081Y023304D01*
X044054Y023264D01*
X044045Y023217D01*
Y022417D01*
X043996Y022384D01*
X043946Y022309D01*
X043928Y022220D01*
X043946Y022131D01*
X043996Y022056D01*
X044071Y022006D01*
X044160Y021988D01*
X044249Y022006D01*
X044301Y022041D01*
X044352Y022031D01*
X044357Y022028D01*
X044367Y021981D01*
X044394Y021939D01*
Y021923D01*
X044367Y021881D01*
X044357Y021833D01*
X044367Y021784D01*
X044394Y021742D01*
X044436Y021715D01*
X044485Y021705D01*
X044507D01*
X044531Y021661D01*
X044496Y021609D01*
X044478Y021520D01*
X044496Y021431D01*
X044546Y021356D01*
X044575Y021336D01*
X044574Y021333D01*
X044570Y021326D01*
X044562Y021305D01*
X044561Y021304D01*
X044560Y021300D01*
X044557Y021298D01*
X044557Y021297D01*
X044514Y021254D01*
X044511Y021252D01*
X044507Y021248D01*
X044506Y021247D01*
X044449Y021204D01*
X044449Y021204D01*
X044442Y021198D01*
X044436Y021191D01*
X044436Y021191D01*
X044393Y021134D01*
X044392Y021133D01*
X044388Y021129D01*
X044386Y021126D01*
X044375Y021115D01*
X044220Y020960D01*
X044065Y021115D01*
Y021285D01*
X044055Y021334D01*
X044028Y021376D01*
X043986Y021403D01*
X043937Y021413D01*
X043930Y021424D01*
X043954Y021461D01*
X043972Y021550D01*
X043954Y021639D01*
X043904Y021714D01*
X043829Y021764D01*
X043740Y021782D01*
X043651Y021764D01*
X043576Y021714D01*
X043526Y021639D01*
X043508Y021550D01*
X043526Y021461D01*
X043531Y021453D01*
X043512Y021407D01*
X043495Y021403D01*
X043453Y021376D01*
X043437D01*
X043396Y021403D01*
X043347Y021413D01*
X043298Y021403D01*
X043257Y021376D01*
X043240D01*
X043199Y021403D01*
X043150Y021413D01*
X043139Y021429D01*
X043174Y021481D01*
X043192Y021570D01*
X043174Y021659D01*
X043124Y021734D01*
X043049Y021784D01*
X042960Y021802D01*
X042871Y021784D01*
X042796Y021734D01*
X042746Y021659D01*
X042728Y021570D01*
X042746Y021481D01*
X042762Y021457D01*
X042743Y021410D01*
X042756Y021413D01*
X042798Y021405D01*
X042806Y021399D01*
Y021065D01*
X042706D01*
Y021402D01*
X042666Y021376D01*
X042650D01*
X042608Y021403D01*
X042561Y021413D01*
X042570Y021455D01*
D01*
D01*
D01*
D01*
D01*
X042570D01*
D01*
D01*
D01*
D01*
Y021455D01*
X042570D01*
D01*
Y021455D01*
D01*
D01*
D01*
D01*
D01*
D01*
D01*
D01*
D01*
D01*
D01*
D01*
Y021455D01*
D01*
X042570D01*
D01*
D01*
D01*
D01*
X042570Y021455D01*
Y022087D01*
X042584Y022096D01*
X042634Y022171D01*
X042652Y022260D01*
X042634Y022349D01*
X042584Y022424D01*
X042509Y022474D01*
X042420Y022492D01*
X042331Y022474D01*
X042256Y022424D01*
X042206Y022349D01*
X042188Y022260D01*
X042206Y022171D01*
X042256Y022096D01*
X042325Y022050D01*
Y021793D01*
X042281Y021769D01*
X042259Y021784D01*
X042170Y021802D01*
X042081Y021784D01*
X042006Y021734D01*
X041956Y021659D01*
X041938Y021570D01*
X041956Y021481D01*
X041973Y021456D01*
X041953Y021410D01*
X041920Y021403D01*
X041879Y021376D01*
X041862D01*
X041821Y021403D01*
X041772Y021413D01*
X041723Y021403D01*
X041691Y021382D01*
X041688Y021383D01*
X041662Y021423D01*
X041662Y021423D01*
X041662D01*
Y021423D01*
D01*
D01*
D01*
X041662Y021423D01*
X041662Y021423D01*
X041537Y021547D01*
X041498Y021574D01*
X041451Y021583D01*
X040621D01*
X040574Y021574D01*
X040553Y021560D01*
X040230D01*
Y021705D01*
X040437D01*
X040486Y021715D01*
X040528Y021742D01*
X040555Y021784D01*
X040565Y021833D01*
X040555Y021881D01*
X040528Y021923D01*
Y021939D01*
X040555Y021981D01*
X040565Y022030D01*
X040555Y022078D01*
X040528Y022120D01*
Y022136D01*
X040555Y022178D01*
X040565Y022226D01*
X040555Y022275D01*
X040528Y022317D01*
Y022333D01*
X040555Y022374D01*
X040565Y022423D01*
X040555Y022472D01*
X040528Y022513D01*
Y022530D01*
X040555Y022571D01*
X040565Y022620D01*
X040555Y022669D01*
X040528Y022710D01*
Y022727D01*
X040553Y022765D01*
X040602Y022775D01*
X040631Y022756D01*
X040720Y022738D01*
X040809Y022756D01*
X040884Y022806D01*
X040934Y022881D01*
X040952Y022970D01*
X040934Y023059D01*
X040884Y023134D01*
X040832Y023169D01*
Y023190D01*
X040823Y023237D01*
X040797Y023277D01*
X040579Y023494D01*
X040539Y023521D01*
X040536Y023527D01*
X040555Y023556D01*
X040565Y023604D01*
X040555Y023653D01*
X040528Y023695D01*
Y023711D01*
X040554Y023751D01*
X040217D01*
Y023851D01*
X040554D01*
X040555Y023850D01*
X040569Y023876D01*
X040704D01*
X041108Y023472D01*
X041098Y023420D01*
X041116Y023331D01*
X041166Y023256D01*
X041241Y023206D01*
X041330Y023188D01*
X041419Y023206D01*
X041494Y023256D01*
X041544Y023331D01*
X041562Y023420D01*
X041544Y023509D01*
X041494Y023584D01*
X041419Y023634D01*
X041330Y023652D01*
X041283Y023643D01*
X040842Y024085D01*
X040802Y024111D01*
X040755Y024120D01*
X040709D01*
X040690Y024167D01*
X040869Y024346D01*
X040896Y024386D01*
D01*
D01*
D01*
Y024386D01*
X040896D01*
D01*
D01*
D01*
D01*
X040896D01*
D01*
D01*
D01*
D01*
Y024386D01*
X040896D01*
D01*
Y024386D01*
D01*
D01*
D01*
D01*
D01*
D01*
D01*
D01*
D01*
D01*
D01*
D01*
Y024386D01*
D01*
X040896D01*
D01*
D01*
D01*
D01*
X040896Y024386D01*
X040905Y024433D01*
Y024928D01*
X040896Y024975D01*
X040869Y025015D01*
X040869Y025015D01*
D01*
D01*
D01*
D01*
X040869Y025015D01*
D01*
D01*
X040869D01*
X040667Y025217D01*
X040627Y025244D01*
X040580Y025253D01*
X040370D01*
Y025349D01*
X040390D01*
Y025635D01*
X040490D01*
Y025349D01*
D02*
G37*
G36*
X042214Y018184D02*
X042086Y018056D01*
X042040Y018075D01*
Y018230D01*
X042195D01*
X042214Y018184D01*
D02*
G37*
G36*
X051858Y029331D02*
Y029247D01*
X051809Y029237D01*
X051789Y029284D01*
X051731Y029361D01*
X051654Y029419D01*
X051565Y029456D01*
X051470Y029468D01*
X051375Y029456D01*
X051286Y029419D01*
X051209Y029361D01*
X051151Y029284D01*
X051114Y029195D01*
X051102Y029100D01*
X051114Y029005D01*
X051140Y028943D01*
X050689Y028492D01*
X049371D01*
X049352Y028539D01*
X049376Y028562D01*
X050075D01*
X050122Y028572D01*
X050161Y028598D01*
X050327Y028764D01*
X050375Y028744D01*
X050470Y028732D01*
X050565Y028744D01*
X050654Y028781D01*
X050731Y028839D01*
X050789Y028916D01*
X050826Y029005D01*
X050838Y029100D01*
X050826Y029195D01*
X050789Y029284D01*
X050731Y029361D01*
X050654Y029419D01*
X050565Y029456D01*
X050470Y029468D01*
X050375Y029456D01*
X050286Y029419D01*
X050209Y029361D01*
X050151Y029284D01*
X050114Y029195D01*
X050102Y029100D01*
X050114Y029005D01*
X050146Y028929D01*
X050024Y028807D01*
X049762D01*
X049740Y028852D01*
X049789Y028916D01*
X049826Y029005D01*
X049838Y029100D01*
X049826Y029195D01*
X049789Y029284D01*
X049731Y029361D01*
X049654Y029419D01*
X049565Y029456D01*
X049470Y029468D01*
X049375Y029456D01*
X049286Y029419D01*
X049209Y029361D01*
X049151Y029284D01*
X049114Y029195D01*
X049102Y029100D01*
X049114Y029005D01*
X049149Y028922D01*
X048149Y027922D01*
X048071D01*
X048052Y027969D01*
X048557Y028473D01*
X048583Y028513D01*
X048592Y028560D01*
D01*
D01*
D01*
D01*
D01*
X048592D01*
D01*
D01*
D01*
D01*
Y028560D01*
X048592D01*
D01*
Y028560D01*
D01*
D01*
D01*
D01*
D01*
D01*
D01*
D01*
D01*
D01*
D01*
D01*
Y028560D01*
D01*
X048592D01*
D01*
D01*
D01*
D01*
X048592Y028560D01*
Y028755D01*
X048654Y028781D01*
X048731Y028839D01*
X048789Y028916D01*
X048826Y029005D01*
X048838Y029100D01*
X048826Y029195D01*
X048789Y029284D01*
X048731Y029361D01*
X048654Y029419D01*
X048565Y029456D01*
X048470Y029468D01*
X048375Y029456D01*
X048286Y029419D01*
X048209Y029361D01*
X048151Y029284D01*
X048114Y029195D01*
X048102Y029100D01*
X048114Y029005D01*
X048151Y028916D01*
X048209Y028839D01*
X048286Y028781D01*
X048348Y028755D01*
Y028611D01*
X047829Y028092D01*
X047580D01*
X047561Y028138D01*
X047577Y028162D01*
X047588Y028178D01*
X047597Y028223D01*
X047761D01*
Y028757D01*
X047701D01*
X047685Y028804D01*
X047731Y028839D01*
X047789Y028916D01*
X047826Y029005D01*
X047838Y029100D01*
X047826Y029195D01*
X047789Y029284D01*
X047731Y029361D01*
X047654Y029419D01*
X047565Y029456D01*
X047470Y029468D01*
X047375Y029456D01*
X047286Y029419D01*
X047209Y029361D01*
X047151Y029284D01*
X047114Y029195D01*
X047102Y029100D01*
X047114Y029005D01*
X047151Y028916D01*
X047209Y028839D01*
X047255Y028804D01*
X047239Y028757D01*
X047188D01*
Y028262D01*
X047092D01*
Y028440D01*
X046519D01*
Y028262D01*
X046518D01*
X046472Y028253D01*
X046432Y028227D01*
X045513Y027308D01*
X045487Y027268D01*
X045478Y027222D01*
Y025771D01*
X044938Y025231D01*
X044760D01*
X044365Y025626D01*
X044360Y025629D01*
X044355Y025634D01*
X044349Y025638D01*
X044349Y025638D01*
X044349Y025638D01*
X044343Y025641D01*
X044342Y025641D01*
X044342Y025641D01*
X044338Y025643D01*
X044331Y025646D01*
X044330Y025646D01*
X044330Y025646D01*
X044323Y025649D01*
X044323D01*
X044323Y025649D01*
X044317Y025650D01*
X044310D01*
X044303Y025651D01*
X044065D01*
Y025774D01*
X044055Y025822D01*
X044028Y025864D01*
X043986Y025891D01*
X043937Y025901D01*
X043889Y025891D01*
X043847Y025864D01*
X043831D01*
X043789Y025891D01*
X043741Y025901D01*
X043705Y025894D01*
X043666Y025926D01*
Y026143D01*
X044077Y026554D01*
X044143D01*
Y026429D01*
X044756D01*
Y026554D01*
X044853D01*
Y026389D01*
X045387D01*
Y026962D01*
X044853D01*
Y026798D01*
X044756D01*
Y026923D01*
X044143D01*
Y026798D01*
X044026D01*
X043979Y026789D01*
X043939Y026762D01*
X043569Y026392D01*
X043522Y026411D01*
Y027135D01*
X043513Y027182D01*
X043487Y027221D01*
X043487Y027221D01*
D01*
D01*
D01*
D01*
X043487Y027221D01*
D01*
D01*
X043487D01*
X043299Y027409D01*
Y027789D01*
X042686D01*
Y027657D01*
X042607D01*
Y027821D01*
X042073D01*
Y027248D01*
X042607D01*
Y027412D01*
X042686D01*
Y027295D01*
X043067D01*
X043278Y027084D01*
Y026923D01*
X043043D01*
Y026676D01*
Y026429D01*
X043201D01*
X043233Y026390D01*
X043224Y026347D01*
Y025926D01*
X043186Y025894D01*
X043150Y025901D01*
X043101Y025891D01*
X043060Y025864D01*
X043043D01*
X043003Y025891D01*
Y025553D01*
X042903D01*
Y025891D01*
X042904Y025891D01*
X042869Y025921D01*
Y025921D01*
X042869Y025921D01*
X042843Y025960D01*
X042754Y026049D01*
X042762Y026090D01*
X042744Y026179D01*
X042694Y026254D01*
X042619Y026304D01*
X042530Y026322D01*
X042441Y026304D01*
X042366Y026254D01*
X042323Y026190D01*
X042273Y026190D01*
X042252Y026221D01*
X042252Y026221D01*
X042252D01*
X042252Y026221D01*
Y026221D01*
X041542Y026931D01*
Y027589D01*
X042081Y028128D01*
X042640D01*
X042687Y028137D01*
X042727Y028163D01*
Y028163D01*
X042727D01*
D01*
D01*
D01*
D01*
D01*
D01*
X042727D01*
D01*
X042727D01*
Y028163D01*
D01*
D01*
D01*
D01*
Y028163D01*
D01*
D01*
D01*
D01*
D01*
D01*
Y028163D01*
D01*
D01*
X042727D01*
D01*
D01*
D01*
X043324Y028761D01*
X043365Y028744D01*
X043460Y028732D01*
X043555Y028744D01*
X043644Y028781D01*
X043721Y028839D01*
X043779Y028916D01*
X043816Y029005D01*
X043828Y029100D01*
X043816Y029195D01*
X043779Y029284D01*
X043721Y029361D01*
X043644Y029419D01*
X043555Y029456D01*
X043460Y029468D01*
X043365Y029456D01*
X043276Y029419D01*
X043199Y029361D01*
X043141Y029284D01*
X043104Y029195D01*
X043092Y029100D01*
X043104Y029005D01*
X043139Y028922D01*
X042589Y028372D01*
X042030D01*
X041983Y028363D01*
X041943Y028337D01*
X041409Y027802D01*
X041362Y027821D01*
Y027839D01*
X042296Y028773D01*
X042365Y028744D01*
X042460Y028732D01*
X042555Y028744D01*
X042644Y028781D01*
X042721Y028839D01*
X042779Y028916D01*
X042816Y029005D01*
X042828Y029100D01*
X042816Y029195D01*
X042779Y029284D01*
X042721Y029361D01*
X042644Y029419D01*
X042555Y029456D01*
X042460Y029468D01*
X042365Y029456D01*
X042276Y029419D01*
X042199Y029361D01*
X042141Y029284D01*
X042104Y029195D01*
X042092Y029100D01*
X042104Y029005D01*
X042127Y028950D01*
X041209Y028032D01*
X041162Y028051D01*
Y028609D01*
X041317Y028764D01*
X041365Y028744D01*
X041460Y028732D01*
X041555Y028744D01*
X041644Y028781D01*
X041721Y028839D01*
X041779Y028916D01*
X041816Y029005D01*
X041828Y029100D01*
X041816Y029195D01*
X041779Y029284D01*
X041721Y029361D01*
X041644Y029419D01*
X041555Y029456D01*
X041460Y029468D01*
X041365Y029456D01*
X041276Y029419D01*
X041199Y029361D01*
X041141Y029284D01*
X041104Y029195D01*
X041092Y029100D01*
X041104Y029005D01*
X041136Y028929D01*
X040953Y028746D01*
X040940Y028725D01*
X040927Y028707D01*
X040927Y028706D01*
X040927Y028706D01*
X040922Y028683D01*
X040918Y028660D01*
Y026740D01*
X040918Y026740D01*
X040918D01*
X040927Y026693D01*
X040953Y026654D01*
X041641Y025966D01*
X041638Y025916D01*
X041611Y025894D01*
X041575Y025901D01*
X041526Y025891D01*
X041485Y025864D01*
X041469D01*
X041427Y025891D01*
X041378Y025901D01*
X041330Y025891D01*
X041288Y025864D01*
X041272D01*
X041231Y025891D01*
Y025553D01*
X041132D01*
Y025891D01*
X041091Y025864D01*
X041075D01*
X041033Y025891D01*
X040985Y025901D01*
X040936Y025891D01*
X040894Y025864D01*
X040867Y025822D01*
X040857Y025774D01*
Y025676D01*
X040707D01*
Y025922D01*
X040173D01*
Y025385D01*
X040127Y025366D01*
X039997Y025496D01*
Y025922D01*
X039557D01*
X039463Y026016D01*
Y026017D01*
X039463Y026018D01*
X039488Y026018D01*
X039488Y026018D01*
X039488Y026018D01*
X039488Y026018D01*
Y026018D01*
D01*
X039680D01*
Y026255D01*
X039463D01*
Y026081D01*
X039434Y026069D01*
X039392Y026096D01*
Y027614D01*
X040144Y028365D01*
X040144Y028365D01*
X040168Y028402D01*
X040177Y028445D01*
X040177Y028445D01*
Y028800D01*
X040222Y028822D01*
X040276Y028781D01*
X040338Y028755D01*
X040338Y027359D01*
X040286Y027324D01*
X040236Y027249D01*
X040218Y027160D01*
X040236Y027071D01*
X040286Y026996D01*
X040361Y026946D01*
X040450Y026928D01*
X040539Y026946D01*
X040614Y026996D01*
X040664Y027071D01*
X040682Y027160D01*
X040664Y027249D01*
X040614Y027324D01*
X040582Y027345D01*
X040582Y028755D01*
X040644Y028781D01*
X040721Y028839D01*
X040779Y028916D01*
X040816Y029005D01*
X040828Y029100D01*
X040816Y029195D01*
X040779Y029284D01*
X040721Y029361D01*
X040644Y029419D01*
X040555Y029456D01*
X040460Y029468D01*
X040442Y029504D01*
X040471Y029533D01*
X051656D01*
X051858Y029331D01*
D02*
G37*
G36*
X056039Y029026D02*
Y015068D01*
X055404Y014433D01*
X025698D01*
X025063Y015068D01*
Y029026D01*
X025708Y029671D01*
X040242D01*
X040261Y029625D01*
X039997Y029362D01*
X039975Y029347D01*
X039951Y029311D01*
X039943Y029268D01*
Y028932D01*
X039943Y028932D01*
X039951Y028889D01*
X039953Y028887D01*
Y028491D01*
X039201Y027739D01*
X039176Y027703D01*
X039168Y027660D01*
X039168Y027660D01*
Y026040D01*
X039168Y026040D01*
X039176Y025997D01*
X039201Y025961D01*
X039463Y025698D01*
Y025349D01*
X039798D01*
X040018Y025129D01*
X039999Y025083D01*
X039924D01*
X039898Y025078D01*
X039605D01*
X039062Y025621D01*
Y028529D01*
X039303Y028770D01*
X039365Y028744D01*
X039460Y028732D01*
X039555Y028744D01*
X039644Y028781D01*
X039721Y028839D01*
X039779Y028916D01*
X039816Y029005D01*
X039828Y029100D01*
X039816Y029195D01*
X039779Y029284D01*
X039721Y029361D01*
X039644Y029419D01*
X039555Y029456D01*
X039460Y029468D01*
X039365Y029456D01*
X039276Y029419D01*
X039199Y029361D01*
X039141Y029284D01*
X039104Y029195D01*
X039092Y029100D01*
X039104Y029005D01*
X039130Y028943D01*
X038853Y028667D01*
X038827Y028627D01*
X038818Y028580D01*
Y025570D01*
X038818Y025570D01*
X038818D01*
X038827Y025523D01*
X038853Y025483D01*
X039383Y024954D01*
X039364Y024908D01*
X039285D01*
X039239Y024898D01*
X039199Y024872D01*
X036279Y021952D01*
X035991D01*
Y022097D01*
X035418D01*
Y021563D01*
X035991D01*
Y021708D01*
X036330D01*
X036377Y021717D01*
X036417Y021743D01*
Y021743D01*
X036417D01*
D01*
D01*
D01*
D01*
D01*
D01*
X036417D01*
D01*
X036417D01*
Y021743D01*
D01*
D01*
D01*
D01*
Y021743D01*
D01*
D01*
D01*
D01*
D01*
D01*
Y021743D01*
D01*
D01*
X036417D01*
D01*
D01*
D01*
X039336Y024663D01*
X039457D01*
X039481Y024619D01*
X039466Y024597D01*
X039448Y024508D01*
X039466Y024419D01*
X039482Y024394D01*
X039459Y024350D01*
X039234D01*
Y023777D01*
X039615D01*
X039665Y023727D01*
X039645Y023681D01*
X039551D01*
Y023394D01*
X039501D01*
Y023344D01*
X039234D01*
Y023182D01*
X038838D01*
X038791Y023173D01*
X038751Y023147D01*
X038303Y022699D01*
X038277Y022659D01*
X038268Y022612D01*
Y021741D01*
X038123D01*
Y021237D01*
X037841D01*
Y021397D01*
X037268D01*
Y020863D01*
X037268D01*
Y020837D01*
X037248Y020817D01*
X037248D01*
Y020283D01*
X037628D01*
X037778Y020134D01*
Y019340D01*
X037778Y019340D01*
X037778D01*
X037787Y019293D01*
X037813Y019253D01*
X039478Y017589D01*
Y017345D01*
X039416Y017319D01*
X039339Y017261D01*
X039281Y017184D01*
X039244Y017095D01*
X039232Y017000D01*
X039244Y016905D01*
X039281Y016816D01*
X039339Y016739D01*
X039416Y016681D01*
X039505Y016644D01*
X039600Y016632D01*
X039695Y016644D01*
X039784Y016681D01*
X039861Y016739D01*
X039919Y016816D01*
X039956Y016905D01*
X039968Y017000D01*
X039956Y017095D01*
X039919Y017184D01*
X039861Y017261D01*
X039784Y017319D01*
X039722Y017345D01*
Y017640D01*
X039713Y017687D01*
X039687Y017727D01*
X038022Y019391D01*
Y020185D01*
X038013Y020231D01*
X038002Y020247D01*
X037987Y020271D01*
X037821Y020436D01*
Y020817D01*
X037821D01*
Y020843D01*
X037841Y020863D01*
X037841D01*
Y021003D01*
X038123D01*
Y020499D01*
X038268D01*
Y019742D01*
X038226Y019714D01*
X038176Y019639D01*
X038158Y019550D01*
X038176Y019461D01*
X038226Y019386D01*
X038301Y019336D01*
X038390Y019318D01*
X038479Y019336D01*
X038554Y019386D01*
X038604Y019461D01*
X038622Y019550D01*
X038604Y019639D01*
X038554Y019714D01*
X038512Y019742D01*
Y020499D01*
X038657D01*
Y021003D01*
X039383D01*
Y020499D01*
X039917D01*
Y020663D01*
X040694D01*
X040803Y020553D01*
X040843Y020527D01*
X040890Y020518D01*
X041070D01*
X041117Y020527D01*
X041137Y020541D01*
X041169Y020502D01*
X040899Y020232D01*
X040020D01*
X039973Y020223D01*
X039933Y020197D01*
X039463Y019727D01*
X039437Y019687D01*
X039428Y019640D01*
Y019511D01*
X039273D01*
Y018938D01*
X039807D01*
Y019511D01*
X039672D01*
Y019589D01*
X040071Y019988D01*
X040950D01*
X040997Y019997D01*
X041037Y020023D01*
X041465Y020452D01*
X041491Y020492D01*
X041501Y020538D01*
Y020692D01*
X041539Y020724D01*
X041575Y020717D01*
X041624Y020727D01*
X041665Y020754D01*
X041682D01*
X041723Y020727D01*
X041772Y020717D01*
X041821Y020727D01*
X041862Y020754D01*
X041879D01*
X041920Y020727D01*
X041939Y020723D01*
Y020687D01*
X041939D01*
Y020470D01*
X042512D01*
Y020687D01*
D01*
D01*
X042512Y020687D01*
D01*
D01*
D01*
D01*
X042551Y020719D01*
X042559Y020717D01*
X042566Y020718D01*
X042607Y020690D01*
X042608Y020687D01*
X042608Y020687D01*
X042608Y020687D01*
Y020153D01*
X042708D01*
Y018751D01*
X042309Y018352D01*
X042101D01*
X041580Y018873D01*
X041606Y018935D01*
X041618Y019030D01*
X041606Y019125D01*
X041569Y019214D01*
X041511Y019291D01*
X041434Y019349D01*
X041345Y019386D01*
X041250Y019398D01*
X041155Y019386D01*
X041066Y019349D01*
X040989Y019291D01*
X040931Y019214D01*
X040894Y019125D01*
X040882Y019030D01*
X040894Y018935D01*
X040931Y018846D01*
X040989Y018769D01*
X041066Y018711D01*
X041155Y018674D01*
X041250Y018662D01*
X041345Y018674D01*
X041407Y018700D01*
X041924Y018183D01*
Y017287D01*
X041739D01*
Y016753D01*
X041903D01*
Y016287D01*
X041739D01*
Y015753D01*
X042312D01*
Y016287D01*
X042148D01*
Y016753D01*
X042312D01*
Y017287D01*
X042169D01*
Y018038D01*
X042239Y018108D01*
X042360D01*
X042407Y018117D01*
X042447Y018143D01*
X042917Y018613D01*
X042943Y018653D01*
X042952Y018700D01*
Y018753D01*
X043000Y018769D01*
X043004Y018764D01*
X043076Y018708D01*
X043160Y018674D01*
X043250Y018662D01*
X043340Y018674D01*
X043424Y018708D01*
X043496Y018764D01*
X043552Y018836D01*
X043587Y018920D01*
X043599Y019010D01*
Y019050D01*
X043587Y019140D01*
X043552Y019224D01*
X043496Y019296D01*
X043424Y019352D01*
X043372Y019373D01*
Y020318D01*
X043422Y020322D01*
X043431Y020279D01*
X043457Y020240D01*
X043556Y020141D01*
X043548Y020100D01*
X043566Y020011D01*
X043616Y019936D01*
X043691Y019886D01*
X043780Y019868D01*
X043869Y019886D01*
X043944Y019936D01*
X043994Y020011D01*
X043996Y020018D01*
X044045Y020028D01*
X044066Y019996D01*
X044141Y019946D01*
X044230Y019928D01*
X044319Y019946D01*
X044394Y019996D01*
X044444Y020071D01*
X044462Y020160D01*
X044444Y020249D01*
X044437Y020259D01*
X044476Y020291D01*
X044558Y020209D01*
Y019307D01*
X044511Y019291D01*
X044434Y019349D01*
X044345Y019386D01*
X044250Y019398D01*
X044155Y019386D01*
X044066Y019349D01*
X043989Y019291D01*
X043931Y019214D01*
X043894Y019125D01*
X043882Y019030D01*
X043894Y018935D01*
X043931Y018846D01*
X043989Y018769D01*
X044066Y018711D01*
X044155Y018674D01*
X044250Y018662D01*
X044345Y018674D01*
X044407Y018700D01*
X044435Y018658D01*
X044113Y018337D01*
X044087Y018297D01*
X044078Y018250D01*
Y016291D01*
X043933D01*
Y015718D01*
X044467D01*
Y015878D01*
X044635D01*
X044661Y015816D01*
X044719Y015739D01*
X044796Y015681D01*
X044885Y015644D01*
X044980Y015632D01*
X045075Y015644D01*
X045164Y015681D01*
X045241Y015739D01*
X045299Y015816D01*
X045325Y015878D01*
X045685D01*
X045711Y015816D01*
X045769Y015739D01*
X045846Y015681D01*
X045935Y015644D01*
X046030Y015632D01*
X046125Y015644D01*
X046214Y015681D01*
X046291Y015739D01*
X046349Y015816D01*
X046386Y015905D01*
X046398Y016000D01*
X046386Y016095D01*
X046349Y016184D01*
X046291Y016261D01*
X046214Y016319D01*
X046125Y016356D01*
X046030Y016368D01*
X045935Y016356D01*
X045846Y016319D01*
X045769Y016261D01*
X045711Y016184D01*
X045685Y016122D01*
X045325D01*
X045299Y016184D01*
X045241Y016261D01*
X045164Y016319D01*
X045075Y016356D01*
X044980Y016368D01*
X044885Y016356D01*
X044796Y016319D01*
X044719Y016261D01*
X044661Y016184D01*
X044635Y016122D01*
X044467D01*
Y016291D01*
X044322D01*
Y018199D01*
X044767Y018643D01*
X044782Y018667D01*
X044793Y018683D01*
X044802Y018730D01*
Y020260D01*
X044793Y020307D01*
X044767Y020347D01*
X044312Y020801D01*
Y020951D01*
X044425Y021065D01*
X044437Y021076D01*
X044439Y021079D01*
X044442Y021082D01*
X044444Y021085D01*
X044446Y021087D01*
X044448Y021090D01*
X044449Y021091D01*
X044493Y021147D01*
X044549Y021191D01*
X044550Y021192D01*
X044550Y021192D01*
X044553Y021194D01*
X044555Y021196D01*
X044558Y021198D01*
X044561Y021201D01*
X044564Y021203D01*
X044607Y021246D01*
X044609Y021250D01*
X044610Y021250D01*
X044611Y021251D01*
X044612Y021252D01*
X044615Y021255D01*
X044617Y021260D01*
X044620Y021263D01*
X044620Y021264D01*
Y021264D01*
X044620Y021264D01*
X044621Y021266D01*
X044623Y021269D01*
X044625Y021273D01*
X044627Y021276D01*
X044627Y021277D01*
X044629Y021280D01*
X044634Y021295D01*
X044635Y021295D01*
X044637Y021301D01*
X044638Y021302D01*
X044710Y021288D01*
X044799Y021306D01*
X044874Y021356D01*
X044924Y021431D01*
X044926Y021442D01*
X044975Y021452D01*
X044986Y021436D01*
X045061Y021386D01*
X045150Y021368D01*
X045239Y021386D01*
X045314Y021436D01*
X045364Y021511D01*
X045382Y021600D01*
X045376Y021630D01*
X045420Y021653D01*
X045578Y021496D01*
Y019273D01*
X045574Y019257D01*
X045570Y019235D01*
Y018961D01*
X045447D01*
Y018961D01*
X044913D01*
Y018388D01*
X045433D01*
Y018388D01*
X045967D01*
Y018388D01*
X045967D01*
X045967Y018388D01*
X046013D01*
Y018388D01*
X046547D01*
Y018388D01*
X047077D01*
Y018961D01*
X046543D01*
Y018961D01*
X046376D01*
Y019236D01*
X046367Y019283D01*
X046340Y019323D01*
X046032Y019631D01*
Y021577D01*
X046023Y021624D01*
X045997Y021663D01*
Y021663D01*
X045997Y021663D01*
D01*
D01*
D01*
X045997Y021663D01*
Y021663D01*
X045997D01*
D01*
D01*
X045997Y021663D01*
X045469Y022191D01*
X045483Y022239D01*
X045519Y022246D01*
X045594Y022296D01*
X045644Y022371D01*
X045654Y022421D01*
X045702Y022435D01*
X046118Y022019D01*
Y020490D01*
X046118Y020490D01*
X046118D01*
X046127Y020443D01*
X046153Y020403D01*
X048993Y017563D01*
Y017168D01*
X049527D01*
Y017342D01*
X049583D01*
Y017168D01*
X050643D01*
Y017168D01*
X051177D01*
Y017183D01*
X051179D01*
Y017183D01*
X051752D01*
Y017717D01*
X051179D01*
D01*
X051179D01*
X051177Y017719D01*
Y017741D01*
X050647D01*
Y017741D01*
X050320D01*
X050174Y017887D01*
X050135Y017913D01*
X050088Y017922D01*
X049221D01*
X046532Y020611D01*
Y022190D01*
X046523Y022237D01*
X046497Y022277D01*
X046001Y022772D01*
X046010Y022788D01*
X046099Y022806D01*
X046174Y022856D01*
X046224Y022931D01*
X046242Y023020D01*
X046232Y023069D01*
X046367Y023203D01*
X046393Y023243D01*
X046402Y023290D01*
Y026889D01*
X046851Y027338D01*
X047054D01*
X047070Y027290D01*
X046990Y027230D01*
X046923Y027142D01*
X046881Y027040D01*
X046866Y026930D01*
X046881Y026820D01*
X046923Y026718D01*
X046990Y026630D01*
X047078Y026563D01*
X047168Y026526D01*
Y026381D01*
X047023D01*
Y025808D01*
X047557D01*
Y026381D01*
X047412D01*
Y026526D01*
X047502Y026563D01*
X047590Y026630D01*
X047657Y026718D01*
X047699Y026820D01*
X047714Y026930D01*
X047699Y027040D01*
X047657Y027142D01*
X047590Y027230D01*
X047502Y027297D01*
X047510Y027338D01*
X048341D01*
X048388Y027347D01*
X048427Y027373D01*
X049302Y028248D01*
X050740D01*
X050787Y028257D01*
X050827Y028283D01*
Y028283D01*
X050827D01*
D01*
D01*
D01*
D01*
D01*
D01*
X050827D01*
D01*
X050827D01*
Y028283D01*
D01*
D01*
D01*
D01*
Y028283D01*
D01*
D01*
D01*
D01*
D01*
D01*
Y028283D01*
D01*
D01*
X050827D01*
D01*
D01*
D01*
X051313Y028770D01*
X051375Y028744D01*
X051470Y028732D01*
X051565Y028744D01*
X051654Y028781D01*
X051731Y028839D01*
X051789Y028916D01*
X051809Y028963D01*
X051858Y028953D01*
Y028087D01*
X051108D01*
Y027553D01*
X052232D01*
Y028087D01*
X052102D01*
Y029360D01*
X052093Y029407D01*
X052067Y029447D01*
X052027Y029473D01*
X052016Y029475D01*
X051866Y029625D01*
X051885Y029671D01*
X055394D01*
X056039Y029026D01*
D02*
G37*
%LPC*%
G36*
X030917Y018302D02*
X030383D01*
Y017916D01*
X030303Y017837D01*
X030277Y017797D01*
X030268Y017750D01*
Y017391D01*
X030226Y017363D01*
X030200Y017374D01*
X030105Y017386D01*
X030010Y017374D01*
X029921Y017337D01*
X029844Y017278D01*
X029786Y017202D01*
X029749Y017113D01*
X029737Y017018D01*
X029749Y016922D01*
X029786Y016833D01*
X029844Y016757D01*
X029921Y016699D01*
X030010Y016662D01*
X030105Y016649D01*
X030200Y016662D01*
X030289Y016699D01*
X030365Y016757D01*
X030424Y016833D01*
X030461Y016922D01*
X030473Y017018D01*
X030461Y017113D01*
X030426Y017196D01*
X030477Y017246D01*
X030503Y017286D01*
X030512Y017333D01*
Y017699D01*
X030542Y017729D01*
X030917D01*
Y018302D01*
D02*
G37*
G36*
X038400Y018368D02*
X038305Y018356D01*
X038216Y018319D01*
X038139Y018261D01*
X038081Y018184D01*
X038044Y018095D01*
X038032Y018000D01*
X038044Y017905D01*
X038081Y017816D01*
X038139Y017739D01*
X038216Y017681D01*
X038305Y017644D01*
X038400Y017632D01*
X038495Y017644D01*
X038584Y017681D01*
X038661Y017739D01*
X038719Y017816D01*
X038756Y017905D01*
X038768Y018000D01*
X038756Y018095D01*
X038719Y018184D01*
X038661Y018261D01*
X038584Y018319D01*
X038495Y018356D01*
X038400Y018368D01*
D02*
G37*
G36*
X049527Y017072D02*
X049310D01*
Y016835D01*
X049527D01*
Y017072D01*
D02*
G37*
G36*
X051177D02*
X050960D01*
Y016835D01*
X051177D01*
Y017072D01*
D02*
G37*
G36*
X043310Y017368D02*
X043215Y017356D01*
X043126Y017319D01*
X043049Y017261D01*
X043029Y017233D01*
X042981Y017249D01*
Y017287D01*
X042408D01*
Y016753D01*
X042981D01*
Y016753D01*
X043039Y016753D01*
X043049Y016739D01*
X043126Y016681D01*
X043215Y016644D01*
X043310Y016632D01*
X043405Y016644D01*
X043494Y016681D01*
X043571Y016739D01*
X043629Y016816D01*
X043666Y016905D01*
X043678Y017000D01*
X043666Y017095D01*
X043629Y017184D01*
X043571Y017261D01*
X043494Y017319D01*
X043405Y017356D01*
X043310Y017368D01*
D02*
G37*
G36*
X045130Y017955D02*
X044913D01*
Y017719D01*
X045130D01*
Y017955D01*
D02*
G37*
G36*
Y018292D02*
X044913D01*
Y018055D01*
X045130D01*
Y018292D01*
D02*
G37*
G36*
X047390Y018398D02*
X047295Y018386D01*
X047206Y018349D01*
X047129Y018291D01*
X047119Y018277D01*
X047077Y018292D01*
Y018292D01*
X047077Y018292D01*
X046860D01*
Y018005D01*
Y017719D01*
X047077D01*
Y017760D01*
X047124Y017776D01*
X047129Y017769D01*
X047206Y017711D01*
X047295Y017674D01*
X047390Y017662D01*
X047485Y017674D01*
X047574Y017711D01*
X047651Y017769D01*
X047709Y017846D01*
X047746Y017935D01*
X047758Y018030D01*
X047746Y018125D01*
X047709Y018214D01*
X047651Y018291D01*
X047574Y018349D01*
X047485Y018386D01*
X047390Y018398D01*
D02*
G37*
G36*
X026075Y018190D02*
X025760D01*
Y017875D01*
X026075D01*
Y018190D01*
D02*
G37*
G36*
X030217Y018302D02*
X029683D01*
Y018132D01*
X029530D01*
X029483Y018123D01*
X029467Y018112D01*
X029443Y018097D01*
X028813Y017467D01*
X028787Y017427D01*
X028778Y017380D01*
Y017360D01*
X028721Y017337D01*
X028644Y017278D01*
X028586Y017202D01*
X028549Y017113D01*
X028537Y017018D01*
X028549Y016922D01*
X028586Y016833D01*
X028644Y016757D01*
X028721Y016699D01*
X028810Y016662D01*
X028905Y016649D01*
X029000Y016662D01*
X029089Y016699D01*
X029165Y016757D01*
X029224Y016833D01*
X029261Y016922D01*
X029273Y017018D01*
X029261Y017113D01*
X029224Y017202D01*
X029165Y017278D01*
X029089Y017337D01*
X029089Y017337D01*
X029079Y017386D01*
X029581Y017888D01*
X029683D01*
Y017729D01*
X030217D01*
Y018302D01*
D02*
G37*
G36*
X025660Y018190D02*
X025345D01*
Y017875D01*
X025660D01*
Y018190D01*
D02*
G37*
G36*
X049210Y017072D02*
X048993D01*
Y016835D01*
X049210D01*
Y017072D01*
D02*
G37*
G36*
X043310Y016368D02*
X043215Y016356D01*
X043126Y016319D01*
X043049Y016261D01*
X043029Y016233D01*
X042981Y016249D01*
Y016287D01*
X042408D01*
Y015753D01*
X042981D01*
Y015753D01*
X043039Y015753D01*
X043049Y015739D01*
X043126Y015681D01*
X043215Y015644D01*
X043310Y015632D01*
X043405Y015644D01*
X043494Y015681D01*
X043571Y015739D01*
X043629Y015816D01*
X043666Y015905D01*
X043678Y016000D01*
X043666Y016095D01*
X043629Y016184D01*
X043571Y016261D01*
X043494Y016319D01*
X043405Y016356D01*
X043310Y016368D01*
D02*
G37*
G36*
X047390Y017398D02*
X047295Y017386D01*
X047206Y017349D01*
X047129Y017291D01*
X047071Y017214D01*
X047034Y017125D01*
X047022Y017030D01*
X047034Y016935D01*
X047071Y016846D01*
X047129Y016769D01*
X047206Y016711D01*
X047295Y016674D01*
X047390Y016662D01*
X047485Y016674D01*
X047547Y016700D01*
X047953Y016293D01*
X047993Y016267D01*
X048040Y016258D01*
X049322D01*
D01*
X049346Y016214D01*
D01*
X049291Y016132D01*
X049272Y016035D01*
X049291Y015939D01*
X049346Y015857D01*
X049356Y015850D01*
X049342Y015802D01*
X048860D01*
X048566Y016097D01*
X048526Y016123D01*
X048480Y016132D01*
X047743D01*
X047709Y016214D01*
X047651Y016291D01*
X047574Y016349D01*
X047485Y016386D01*
X047390Y016398D01*
X047295Y016386D01*
X047206Y016349D01*
X047129Y016291D01*
X047071Y016214D01*
X047034Y016125D01*
X047022Y016030D01*
X047034Y015935D01*
X047071Y015846D01*
X047129Y015769D01*
X047206Y015711D01*
X047295Y015674D01*
X047390Y015662D01*
X047485Y015674D01*
X047574Y015711D01*
X047651Y015769D01*
X047709Y015846D01*
X047726Y015888D01*
X048429D01*
X048723Y015593D01*
X048763Y015567D01*
Y015567D01*
X048763Y015567D01*
D01*
D01*
D01*
X048763D01*
Y015567D01*
D01*
X048763Y015567D01*
X048763Y015567D01*
X048810Y015558D01*
X050040D01*
X050087Y015567D01*
X050127Y015593D01*
X050339Y015806D01*
X050380Y015798D01*
X050469Y015816D01*
X050544Y015866D01*
X050594Y015941D01*
X050612Y016030D01*
X050594Y016119D01*
X050544Y016194D01*
X050502Y016222D01*
Y016499D01*
X050643D01*
Y016499D01*
X050860D01*
Y016785D01*
Y017072D01*
X050647D01*
Y017072D01*
X049583D01*
Y016683D01*
X049542Y016656D01*
X049527Y016662D01*
Y016735D01*
X048993D01*
Y016502D01*
X048091D01*
X047720Y016873D01*
X047746Y016935D01*
X047758Y017030D01*
X047746Y017125D01*
X047709Y017214D01*
X047651Y017291D01*
X047574Y017349D01*
X047485Y017386D01*
X047390Y017398D01*
D02*
G37*
G36*
X051177Y016735D02*
X050960D01*
Y016499D01*
X051177D01*
Y016735D01*
D02*
G37*
G36*
X026905Y016802D02*
X026428D01*
Y015798D01*
X027432D01*
Y016275D01*
X026905Y016802D01*
D02*
G37*
G36*
X054674D02*
X054197D01*
X053670Y016275D01*
Y015798D01*
X054674D01*
Y016802D01*
D02*
G37*
G36*
X055252D02*
X054774D01*
Y015798D01*
X055779D01*
Y016275D01*
X055252Y016802D01*
D02*
G37*
G36*
X037017Y018352D02*
X036483D01*
Y017779D01*
X036628D01*
Y017470D01*
X036637Y017423D01*
X036663Y017383D01*
X036890Y017157D01*
X036864Y017095D01*
X036852Y017000D01*
X036864Y016905D01*
X036901Y016816D01*
X036959Y016739D01*
X037036Y016681D01*
X037125Y016644D01*
X037220Y016632D01*
X037315Y016644D01*
X037404Y016681D01*
X037481Y016739D01*
X037539Y016816D01*
X037576Y016905D01*
X037588Y017000D01*
X037576Y017095D01*
X037539Y017184D01*
X037481Y017261D01*
X037404Y017319D01*
X037315Y017356D01*
X037220Y017368D01*
X037125Y017356D01*
X037063Y017330D01*
X036872Y017521D01*
Y017779D01*
X037017D01*
Y018352D01*
D02*
G37*
G36*
X031575Y018312D02*
X031042D01*
Y017739D01*
X031186D01*
Y017364D01*
X031121Y017337D01*
X031044Y017278D01*
X030986Y017202D01*
X030949Y017113D01*
X030937Y017018D01*
X030949Y016922D01*
X030986Y016833D01*
X031044Y016757D01*
X031121Y016699D01*
X031210Y016662D01*
X031305Y016649D01*
X031400Y016662D01*
X031489Y016699D01*
X031565Y016757D01*
X031624Y016833D01*
X031661Y016922D01*
X031673Y017018D01*
X031661Y017113D01*
X031624Y017202D01*
X031565Y017278D01*
X031489Y017337D01*
X031431Y017361D01*
Y017739D01*
X031575D01*
Y018312D01*
D02*
G37*
G36*
X032745D02*
X032211D01*
Y017739D01*
X032356D01*
Y017351D01*
X032321Y017337D01*
X032244Y017278D01*
X032186Y017202D01*
X032149Y017113D01*
X032137Y017018D01*
X032149Y016922D01*
X032186Y016833D01*
X032244Y016757D01*
X032321Y016699D01*
X032410Y016662D01*
X032505Y016649D01*
X032600Y016662D01*
X032689Y016699D01*
X032765Y016757D01*
X032824Y016833D01*
X032861Y016922D01*
X032873Y017018D01*
X032861Y017113D01*
X032824Y017202D01*
X032765Y017278D01*
X032689Y017337D01*
X032601Y017373D01*
Y017739D01*
X032745D01*
Y018312D01*
D02*
G37*
G36*
X033975D02*
X033442D01*
Y017739D01*
X033586D01*
Y017364D01*
X033521Y017337D01*
X033444Y017278D01*
X033386Y017202D01*
X033349Y017113D01*
X033337Y017018D01*
X033349Y016922D01*
X033386Y016833D01*
X033444Y016757D01*
X033521Y016699D01*
X033610Y016662D01*
X033705Y016649D01*
X033800Y016662D01*
X033889Y016699D01*
X033965Y016757D01*
X034024Y016833D01*
X034061Y016922D01*
X034073Y017018D01*
X034061Y017113D01*
X034024Y017202D01*
X033965Y017278D01*
X033889Y017337D01*
X033831Y017361D01*
Y017739D01*
X033975D01*
Y018312D01*
D02*
G37*
G36*
X039807Y018842D02*
X039273D01*
Y018269D01*
X039409D01*
X039428Y018250D01*
X039428Y018250D01*
D01*
X039437Y018203D01*
X039463Y018163D01*
X040713Y016913D01*
X040753Y016887D01*
X040800Y016878D01*
X040905D01*
X040931Y016816D01*
X040989Y016739D01*
X041066Y016681D01*
X041155Y016644D01*
X041250Y016632D01*
X041345Y016644D01*
X041434Y016681D01*
X041511Y016739D01*
X041569Y016816D01*
X041606Y016905D01*
X041618Y017000D01*
X041606Y017095D01*
X041569Y017184D01*
X041511Y017261D01*
X041434Y017319D01*
X041345Y017356D01*
X041250Y017368D01*
X041155Y017356D01*
X041066Y017319D01*
X040989Y017261D01*
X040931Y017184D01*
X040905Y017122D01*
X040851D01*
X039750Y018223D01*
X039770Y018269D01*
X039807D01*
Y018842D01*
D02*
G37*
G36*
X035557Y018332D02*
X035023D01*
Y017936D01*
X034814Y017727D01*
X034788Y017687D01*
X034778Y017641D01*
Y017355D01*
X034716Y017329D01*
X034639Y017271D01*
X034581Y017194D01*
X034544Y017105D01*
X034532Y017010D01*
X034544Y016915D01*
X034581Y016826D01*
X034639Y016749D01*
X034716Y016691D01*
X034805Y016654D01*
X034900Y016642D01*
X034995Y016654D01*
X035084Y016691D01*
X035161Y016749D01*
X035219Y016826D01*
X035256Y016915D01*
X035268Y017010D01*
X035256Y017105D01*
X035219Y017194D01*
X035161Y017271D01*
X035084Y017329D01*
X035023Y017354D01*
Y017590D01*
X035192Y017759D01*
X035557D01*
Y018332D01*
D02*
G37*
G36*
X036337D02*
X035803D01*
Y017759D01*
X035948D01*
Y017359D01*
X035876Y017329D01*
X035799Y017271D01*
X035741Y017194D01*
X035704Y017105D01*
X035692Y017010D01*
X035704Y016915D01*
X035741Y016826D01*
X035799Y016749D01*
X035876Y016691D01*
X035965Y016654D01*
X036060Y016642D01*
X036155Y016654D01*
X036244Y016691D01*
X036321Y016749D01*
X036379Y016826D01*
X036416Y016915D01*
X036428Y017010D01*
X036416Y017105D01*
X036379Y017194D01*
X036321Y017271D01*
X036244Y017329D01*
X036192Y017351D01*
Y017759D01*
X036337D01*
Y018332D01*
D02*
G37*
G36*
X055400Y020488D02*
X055305Y020476D01*
X055216Y020439D01*
X055139Y020381D01*
X055081Y020304D01*
X055068Y020272D01*
X052037D01*
X052023Y020304D01*
X051974Y020368D01*
X051910Y020417D01*
X051836Y020448D01*
X051756Y020459D01*
X051676Y020448D01*
X051601Y020417D01*
X051537Y020368D01*
X051488Y020304D01*
X051458Y020230D01*
X051447Y020150D01*
X051458Y020070D01*
X051488Y019996D01*
X051537Y019932D01*
X051601Y019883D01*
X051676Y019852D01*
X051756Y019841D01*
X051836Y019852D01*
X051910Y019883D01*
X051974Y019932D01*
X052023Y019996D01*
X052037Y020028D01*
X055044D01*
X055044Y020025D01*
X055081Y019936D01*
X055139Y019859D01*
X055216Y019801D01*
X055305Y019764D01*
X055400Y019752D01*
X055495Y019764D01*
X055584Y019801D01*
X055661Y019859D01*
X055719Y019936D01*
X055756Y020025D01*
X055768Y020120D01*
X055756Y020215D01*
X055719Y020304D01*
X055661Y020381D01*
X055584Y020439D01*
X055495Y020476D01*
X055400Y020488D01*
D02*
G37*
G36*
X027055Y020517D02*
X026818D01*
Y020300D01*
X027055D01*
Y020517D01*
D02*
G37*
G36*
X027391D02*
X027155D01*
Y020300D01*
X027391D01*
Y020517D01*
D02*
G37*
G36*
X031903Y020315D02*
X031686D01*
Y020079D01*
X031903D01*
Y020315D01*
D02*
G37*
G36*
X042175Y020370D02*
X041939D01*
Y020153D01*
X042175D01*
Y020370D01*
D02*
G37*
G36*
X042512D02*
X042275D01*
Y020153D01*
X042512D01*
Y020370D01*
D02*
G37*
G36*
X031586Y020652D02*
X031369D01*
Y020415D01*
X031586D01*
Y020652D01*
D02*
G37*
G36*
X026705Y021120D02*
X026211D01*
Y020982D01*
Y020944D01*
X026046D01*
Y021084D01*
X025434D01*
Y020472D01*
X025582D01*
Y019200D01*
X025593Y019143D01*
X025593Y019143D01*
X025593Y019143D01*
X025625Y019095D01*
X026069Y018651D01*
X026058Y018623D01*
X026058D01*
X026050Y018605D01*
X025760D01*
Y018290D01*
X026075D01*
Y018580D01*
X026093Y018588D01*
X026093D01*
X026121Y018599D01*
X026363Y018358D01*
X026354Y018335D01*
X026342Y018240D01*
X026354Y018145D01*
X026391Y018056D01*
X026449Y017979D01*
X026526Y017921D01*
X026615Y017884D01*
X026710Y017872D01*
X026805Y017884D01*
X026894Y017921D01*
X026971Y017979D01*
X027029Y018056D01*
X027066Y018145D01*
X027078Y018240D01*
X027066Y018335D01*
X027029Y018424D01*
X026971Y018501D01*
X026894Y018559D01*
X026805Y018596D01*
X026710Y018608D01*
X026615Y018596D01*
X026564Y018575D01*
X025878Y019261D01*
Y020472D01*
X026046D01*
Y020648D01*
X026211D01*
Y020608D01*
X026318D01*
Y020517D01*
X026149D01*
Y019983D01*
X026722D01*
Y020517D01*
X026613D01*
Y020608D01*
X026705D01*
Y020982D01*
Y021120D01*
D02*
G37*
G36*
Y021732D02*
X026211D01*
Y021356D01*
Y021220D01*
X026705D01*
Y021356D01*
Y021732D01*
D02*
G37*
G36*
X029500Y022218D02*
X029405Y022206D01*
X029316Y022169D01*
X029239Y022111D01*
X029181Y022034D01*
X029144Y021945D01*
X029132Y021850D01*
X029144Y021755D01*
X029181Y021666D01*
X029239Y021589D01*
X029316Y021531D01*
X029405Y021494D01*
X029500Y021482D01*
X029595Y021494D01*
X029684Y021531D01*
X029761Y021589D01*
X029819Y021666D01*
X029856Y021755D01*
X029868Y021850D01*
X029856Y021945D01*
X029819Y022034D01*
X029761Y022111D01*
X029684Y022169D01*
X029595Y022206D01*
X029500Y022218D01*
D02*
G37*
G36*
X031903Y020652D02*
X031686D01*
Y020415D01*
X031903D01*
Y020652D01*
D02*
G37*
G36*
X027480Y022632D02*
X027391Y022614D01*
X027316Y022564D01*
X027266Y022489D01*
X027248Y022400D01*
X027266Y022311D01*
X027316Y022236D01*
X027368Y022201D01*
Y022130D01*
X027377Y022083D01*
X027403Y022043D01*
X027669Y021778D01*
X027650Y021732D01*
X027235D01*
Y021356D01*
X027497D01*
X027788Y021065D01*
Y020787D01*
X027772Y020778D01*
X027729Y020804D01*
Y020984D01*
X027235D01*
Y020608D01*
X027461D01*
X027497Y020572D01*
Y016640D01*
X027510Y016574D01*
X027547Y016517D01*
X028058Y016007D01*
Y015486D01*
X028592D01*
Y015750D01*
X028654D01*
X028721Y015699D01*
X028810Y015662D01*
X028905Y015649D01*
X029000Y015662D01*
X029089Y015699D01*
X029156Y015750D01*
X029258D01*
Y015486D01*
X029792D01*
Y015750D01*
X029854D01*
X029921Y015699D01*
X030010Y015662D01*
X030105Y015649D01*
X030200Y015662D01*
X030289Y015699D01*
X030356Y015750D01*
X030458D01*
Y015486D01*
X030992D01*
Y015750D01*
X031054D01*
X031121Y015699D01*
X031210Y015662D01*
X031305Y015649D01*
X031400Y015662D01*
X031489Y015699D01*
X031556Y015750D01*
X031658D01*
Y015486D01*
X032192D01*
Y015750D01*
X032254D01*
X032321Y015699D01*
X032410Y015662D01*
X032505Y015649D01*
X032600Y015662D01*
X032689Y015699D01*
X032756Y015750D01*
X032858D01*
Y015486D01*
X033392D01*
Y015750D01*
X033454D01*
X033521Y015699D01*
X033610Y015662D01*
X033705Y015649D01*
X033800Y015662D01*
X033889Y015699D01*
X033956Y015750D01*
X034058D01*
Y015486D01*
X034592D01*
Y015734D01*
X034639Y015750D01*
X034639Y015749D01*
X034716Y015691D01*
X034805Y015654D01*
X034900Y015642D01*
X034995Y015654D01*
X035084Y015691D01*
X035161Y015749D01*
X035161Y015750D01*
X035223D01*
Y015478D01*
X035757D01*
Y015717D01*
X035789Y015742D01*
X035802Y015748D01*
X035876Y015691D01*
X035965Y015654D01*
X036060Y015642D01*
X036155Y015654D01*
X036244Y015691D01*
X036321Y015749D01*
X036321Y015750D01*
X036373D01*
Y015478D01*
X036907D01*
Y015730D01*
X036954Y015746D01*
X036959Y015739D01*
X037036Y015681D01*
X037125Y015644D01*
X037220Y015632D01*
X037315Y015644D01*
X037404Y015681D01*
X037481Y015739D01*
X037486Y015746D01*
X037533Y015730D01*
Y015448D01*
X038067D01*
Y015750D01*
X038131D01*
X038139Y015739D01*
X038216Y015681D01*
X038305Y015644D01*
X038400Y015632D01*
X038495Y015644D01*
X038584Y015681D01*
X038661Y015739D01*
X038669Y015750D01*
X038733D01*
Y015448D01*
X039267D01*
Y015750D01*
X039331D01*
X039339Y015739D01*
X039416Y015681D01*
X039505Y015644D01*
X039600Y015632D01*
X039695Y015644D01*
X039784Y015681D01*
X039861Y015739D01*
X039869Y015750D01*
X039933D01*
Y015448D01*
X040467D01*
Y015750D01*
X040981D01*
X040989Y015739D01*
X041066Y015681D01*
X041155Y015644D01*
X041250Y015632D01*
X041345Y015644D01*
X041434Y015681D01*
X041511Y015739D01*
X041569Y015816D01*
X041606Y015905D01*
X041618Y016000D01*
X041606Y016095D01*
X041569Y016184D01*
X041511Y016261D01*
X041434Y016319D01*
X041345Y016356D01*
X041250Y016368D01*
X041155Y016356D01*
X041066Y016319D01*
X040989Y016261D01*
X040981Y016250D01*
X039869D01*
X039861Y016261D01*
X039784Y016319D01*
X039695Y016356D01*
X039600Y016368D01*
X039505Y016356D01*
X039416Y016319D01*
X039339Y016261D01*
X039331Y016250D01*
X038669D01*
X038661Y016261D01*
X038584Y016319D01*
X038495Y016356D01*
X038400Y016368D01*
X038305Y016356D01*
X038277Y016344D01*
X038245Y016383D01*
X038284Y016441D01*
X038302Y016530D01*
X038287Y016605D01*
X038321Y016642D01*
X038400Y016632D01*
X038495Y016644D01*
X038584Y016681D01*
X038661Y016739D01*
X038719Y016816D01*
X038756Y016905D01*
X038768Y017000D01*
X038756Y017095D01*
X038719Y017184D01*
X038661Y017261D01*
X038584Y017319D01*
X038495Y017356D01*
X038400Y017368D01*
X038305Y017356D01*
X038243Y017330D01*
X037667Y017906D01*
Y018352D01*
X037133D01*
Y017779D01*
X037448D01*
X038070Y017157D01*
X038044Y017095D01*
X038032Y017000D01*
X038044Y016905D01*
X038081Y016816D01*
X038087Y016809D01*
X038069Y016762D01*
X037981Y016744D01*
X037906Y016694D01*
X037856Y016619D01*
X037843Y016555D01*
X028378D01*
X028032Y016901D01*
Y021116D01*
X028023Y021163D01*
X028012Y021179D01*
X027997Y021202D01*
X027729Y021470D01*
Y021653D01*
X027775Y021672D01*
X028499Y020948D01*
X028539Y020921D01*
X028586Y020912D01*
X031369D01*
Y020748D01*
X031903D01*
Y020923D01*
X031994D01*
X032026Y020876D01*
X032101Y020826D01*
X032190Y020808D01*
X032193Y020809D01*
X032289Y020790D01*
X032300Y020732D01*
X032333Y020683D01*
Y020641D01*
X032300Y020592D01*
X032289Y020534D01*
X032300Y020476D01*
X032333Y020427D01*
Y020385D01*
X032300Y020336D01*
X032298Y020328D01*
X032857D01*
X032856Y020336D01*
X032823Y020385D01*
X032828Y020400D01*
X033413D01*
X033459Y020409D01*
X033499Y020436D01*
Y020436D01*
X033499D01*
D01*
D01*
D01*
D01*
D01*
D01*
X033499D01*
D01*
X033499D01*
Y020436D01*
D01*
D01*
D01*
D01*
Y020436D01*
D01*
D01*
D01*
D01*
D01*
D01*
Y020436D01*
D01*
D01*
X033499D01*
D01*
D01*
D01*
X034361Y021298D01*
X035229D01*
X035503Y021023D01*
X035503Y021023D01*
X035503D01*
X035503Y021023D01*
X035503D01*
X035503Y021023D01*
Y021023D01*
Y021023D01*
D01*
D01*
X035503D01*
Y021023D01*
X035543Y020997D01*
X035590Y020988D01*
X036599D01*
Y020863D01*
X036599D01*
Y020837D01*
X036579Y020817D01*
X036579D01*
Y020656D01*
X035103D01*
X035079Y020700D01*
X035100Y020732D01*
X035111Y020790D01*
X035100Y020848D01*
X035090Y020862D01*
X035109Y020897D01*
X035109D01*
X035109Y020897D01*
Y021194D01*
X034536D01*
Y021168D01*
X034446D01*
X034399Y021159D01*
X034383Y021148D01*
X034359Y021132D01*
X033393Y020167D01*
X033367Y020127D01*
X033358Y020080D01*
Y019441D01*
X032791Y018874D01*
X032745Y018894D01*
Y018981D01*
X032211D01*
Y018408D01*
X032745D01*
Y018572D01*
X032785D01*
X032831Y018582D01*
X032871Y018608D01*
X033541Y019278D01*
X033588Y019259D01*
Y018981D01*
X033442D01*
Y018408D01*
X033975D01*
Y018981D01*
X033832D01*
Y019940D01*
X034498Y020606D01*
X034542Y020582D01*
X034533Y020534D01*
X034544Y020476D01*
X034577Y020427D01*
Y020385D01*
X034544Y020336D01*
X034533Y020278D01*
X034544Y020220D01*
X034577Y020171D01*
Y020129D01*
X034544Y020080D01*
X034533Y020022D01*
X034544Y019964D01*
X034577Y019915D01*
Y019873D01*
X034544Y019824D01*
X034533Y019766D01*
X034544Y019708D01*
X034577Y019659D01*
Y019617D01*
X034544Y019568D01*
X034533Y019510D01*
X034544Y019452D01*
X034577Y019403D01*
Y019362D01*
X034544Y019312D01*
X034543Y019304D01*
X035102D01*
X035101Y019309D01*
X035125Y019321D01*
X035168Y019296D01*
Y019001D01*
X035023D01*
Y018428D01*
X035557D01*
Y019001D01*
X035412D01*
Y019360D01*
X035403Y019407D01*
X035377Y019447D01*
X035226Y019597D01*
X035187Y019623D01*
X035140Y019632D01*
X035151Y019644D01*
X035553D01*
X035948Y019249D01*
Y019001D01*
X035803D01*
Y018428D01*
X036337D01*
Y019001D01*
X036192D01*
Y019300D01*
X036183Y019347D01*
X036157Y019387D01*
X036157Y019387D01*
D01*
D01*
D01*
D01*
X036157Y019387D01*
D01*
D01*
X036157D01*
X035690Y019853D01*
X035651Y019879D01*
X035604Y019888D01*
X035615Y019900D01*
X035727D01*
X036560Y019067D01*
X036540Y019021D01*
X036483D01*
Y018448D01*
X037017D01*
Y018945D01*
X037063Y018964D01*
X037133Y018894D01*
Y018448D01*
X037667D01*
Y019021D01*
X037352D01*
X036007Y020367D01*
X035967Y020393D01*
X035920Y020402D01*
X035929Y020412D01*
X036579D01*
Y020283D01*
X037152D01*
Y020817D01*
X037152D01*
Y020843D01*
X037172Y020863D01*
X037172D01*
Y021397D01*
X036599D01*
Y021232D01*
X035641D01*
X035367Y021507D01*
X035327Y021533D01*
X035280Y021542D01*
X035301Y021563D01*
X035322D01*
Y022097D01*
X034749D01*
Y021952D01*
X034460D01*
X034413Y021943D01*
X034373Y021917D01*
X033369Y020912D01*
X032858D01*
X032835Y020956D01*
X032856Y020988D01*
X032867Y021046D01*
X032856Y021104D01*
X032823Y021153D01*
X032774Y021186D01*
X032716Y021197D01*
X032440D01*
X032382Y021186D01*
X032371Y021178D01*
X032354Y021204D01*
X032279Y021254D01*
X032190Y021272D01*
X032101Y021254D01*
X032026Y021204D01*
X032002Y021168D01*
X031903D01*
Y021321D01*
X031369D01*
Y021157D01*
X028636D01*
X028315Y021478D01*
X028343Y021520D01*
X028405Y021494D01*
X028500Y021482D01*
X028595Y021494D01*
X028684Y021531D01*
X028761Y021589D01*
X028819Y021666D01*
X028856Y021755D01*
X028868Y021850D01*
X028856Y021945D01*
X028819Y022034D01*
X028761Y022111D01*
X028684Y022169D01*
X028595Y022206D01*
X028500Y022218D01*
X028405Y022206D01*
X028316Y022169D01*
X028239Y022111D01*
X028181Y022034D01*
X028144Y021945D01*
X028132Y021850D01*
X028144Y021755D01*
X028170Y021693D01*
X028128Y021665D01*
X027612Y022181D01*
Y022215D01*
X027644Y022236D01*
X027694Y022311D01*
X027712Y022400D01*
X027694Y022489D01*
X027644Y022564D01*
X027569Y022614D01*
X027480Y022632D01*
D02*
G37*
G36*
X055400Y021488D02*
X055305Y021476D01*
X055216Y021439D01*
X055139Y021381D01*
X055081Y021304D01*
X055044Y021215D01*
X055032Y021120D01*
X055044Y021025D01*
X055081Y020936D01*
X055139Y020859D01*
X055216Y020801D01*
X055305Y020764D01*
X055400Y020752D01*
X055495Y020764D01*
X055584Y020801D01*
X055661Y020859D01*
X055719Y020936D01*
X055756Y021025D01*
X055768Y021120D01*
X055756Y021215D01*
X055719Y021304D01*
X055661Y021381D01*
X055584Y021439D01*
X055495Y021476D01*
X055400Y021488D01*
D02*
G37*
G36*
X031586Y020315D02*
X031369D01*
Y020079D01*
X031586D01*
Y020315D01*
D02*
G37*
G36*
X040200Y018980D02*
X039885D01*
Y018665D01*
X040200D01*
Y018980D01*
D02*
G37*
G36*
X040615D02*
X040300D01*
Y018665D01*
X040615D01*
Y018980D01*
D02*
G37*
G36*
X048010Y021952D02*
X047921Y021934D01*
X047846Y021884D01*
X047796Y021809D01*
X047778Y021720D01*
X047796Y021631D01*
X047846Y021556D01*
X047921Y021506D01*
X048010Y021488D01*
X048059Y021498D01*
X048258Y021299D01*
Y020430D01*
X048258Y020430D01*
X048258D01*
X048267Y020383D01*
X048293Y020343D01*
X049098Y019539D01*
X049088Y019490D01*
X049106Y019401D01*
X049156Y019326D01*
X049231Y019276D01*
X049320Y019258D01*
X049409Y019276D01*
X049484Y019326D01*
X049498Y019348D01*
X052189D01*
X052411Y019126D01*
Y019031D01*
X052306D01*
Y018906D01*
X052294D01*
X052247Y018897D01*
X052207Y018870D01*
X052020Y018683D01*
X051974Y018702D01*
Y019031D01*
X051519D01*
Y018906D01*
X050731D01*
Y019057D01*
X050158D01*
Y018523D01*
X050159D01*
Y018507D01*
X050159D01*
Y017973D01*
X050732D01*
Y018507D01*
X050731D01*
Y018523D01*
X050731D01*
Y018661D01*
X051519D01*
Y018537D01*
X051808D01*
X051827Y018490D01*
X051709Y018372D01*
X051401D01*
Y018507D01*
X050828D01*
Y017973D01*
X051401D01*
Y018128D01*
X051760D01*
X051807Y018137D01*
X051847Y018163D01*
Y018163D01*
X051847D01*
D01*
D01*
D01*
D01*
D01*
D01*
X051847D01*
D01*
X051847D01*
D01*
D01*
X051847D01*
Y018163D01*
D01*
D01*
D01*
X051866Y018183D01*
X051913Y018164D01*
Y017749D01*
D01*
Y017749D01*
X051880Y017717D01*
X051848D01*
Y017183D01*
X052421D01*
Y017717D01*
X052367D01*
Y017749D01*
X052367D01*
Y018243D01*
X051992D01*
X051973Y018290D01*
X052260Y018577D01*
X052306Y018558D01*
Y018537D01*
X052761D01*
Y019031D01*
X052656D01*
Y019176D01*
X052647Y019223D01*
X052620Y019263D01*
X052620Y019263D01*
X052620D01*
X052620Y019263D01*
Y019263D01*
X052327Y019557D01*
X052287Y019583D01*
X052240Y019592D01*
X049525D01*
X049484Y019654D01*
X049409Y019704D01*
X049320Y019722D01*
X049271Y019712D01*
X048502Y020481D01*
Y021350D01*
X048493Y021397D01*
X048467Y021437D01*
X048467Y021437D01*
D01*
D01*
D01*
D01*
X048467Y021437D01*
D01*
D01*
X048467D01*
X048232Y021671D01*
X048242Y021720D01*
X048224Y021809D01*
X048174Y021884D01*
X048099Y021934D01*
X048010Y021952D01*
D02*
G37*
G36*
X025660Y018605D02*
X025345D01*
Y018290D01*
X025660D01*
Y018605D01*
D02*
G37*
G36*
X045967Y018292D02*
Y018292D01*
X045447D01*
Y018292D01*
X045230D01*
Y018005D01*
Y017719D01*
X045433D01*
Y017719D01*
X045568D01*
Y017641D01*
X045211Y017284D01*
X045164Y017319D01*
X045075Y017356D01*
X044980Y017368D01*
X044885Y017356D01*
X044796Y017319D01*
X044719Y017261D01*
X044661Y017184D01*
X044624Y017095D01*
X044612Y017000D01*
X044624Y016905D01*
X044661Y016816D01*
X044719Y016739D01*
X044796Y016681D01*
X044885Y016644D01*
X044980Y016632D01*
X045075Y016644D01*
X045164Y016681D01*
X045241Y016739D01*
X045299Y016816D01*
X045336Y016905D01*
X045348Y017000D01*
X045340Y017067D01*
X045777Y017503D01*
X045803Y017543D01*
X045812Y017590D01*
D01*
D01*
D01*
D01*
D01*
X045812D01*
D01*
D01*
D01*
D01*
Y017590D01*
X045812D01*
D01*
Y017590D01*
D01*
D01*
D01*
D01*
D01*
D01*
D01*
D01*
D01*
D01*
D01*
D01*
Y017590D01*
D01*
X045812D01*
D01*
D01*
D01*
D01*
X045812Y017590D01*
Y017719D01*
X045967D01*
Y017719D01*
X045967D01*
X045967Y017719D01*
X046013D01*
Y017719D01*
X046070D01*
X046090Y017673D01*
X045953Y017537D01*
X045927Y017497D01*
X045918Y017450D01*
Y017349D01*
X045846Y017319D01*
X045769Y017261D01*
X045711Y017184D01*
X045674Y017095D01*
X045662Y017000D01*
X045674Y016905D01*
X045711Y016816D01*
X045769Y016739D01*
X045846Y016681D01*
X045935Y016644D01*
X046030Y016632D01*
X046125Y016644D01*
X046214Y016681D01*
X046291Y016739D01*
X046349Y016816D01*
X046386Y016905D01*
X046398Y017000D01*
X046386Y017095D01*
X046349Y017184D01*
X046291Y017261D01*
X046214Y017319D01*
X046162Y017341D01*
Y017399D01*
X046367Y017603D01*
X046393Y017643D01*
X046402Y017690D01*
Y017719D01*
X046547D01*
Y017719D01*
X046760D01*
Y018005D01*
Y018292D01*
X046543D01*
Y018292D01*
X046013D01*
D01*
D01*
X046013Y018292D01*
X045967D01*
D02*
G37*
G36*
X041520Y020172D02*
X041431Y020154D01*
X041356Y020104D01*
X041306Y020029D01*
X041288Y019940D01*
X041306Y019851D01*
X041356Y019776D01*
X041398Y019748D01*
Y019720D01*
X041407Y019673D01*
X041433Y019633D01*
X041908Y019159D01*
X041894Y019125D01*
X041882Y019030D01*
X041894Y018935D01*
X041931Y018846D01*
X041989Y018769D01*
X042066Y018711D01*
X042155Y018674D01*
X042250Y018662D01*
X042345Y018674D01*
X042434Y018711D01*
X042511Y018769D01*
X042569Y018846D01*
X042606Y018935D01*
X042618Y019030D01*
X042606Y019125D01*
X042569Y019214D01*
X042511Y019291D01*
X042434Y019349D01*
X042345Y019386D01*
X042250Y019398D01*
X042155Y019386D01*
X042066Y019349D01*
X042065Y019348D01*
X041680Y019733D01*
X041684Y019776D01*
X041734Y019851D01*
X041752Y019940D01*
X041734Y020029D01*
X041684Y020104D01*
X041609Y020154D01*
X041520Y020172D01*
D02*
G37*
G36*
X040200Y019395D02*
X039885D01*
Y019080D01*
X040200D01*
Y019395D01*
D02*
G37*
G36*
X035102Y019204D02*
X034872D01*
Y019103D01*
X034960D01*
X035018Y019114D01*
X035067Y019147D01*
X035100Y019196D01*
X035102Y019204D01*
D02*
G37*
G36*
X027055Y020200D02*
X026818D01*
Y019983D01*
X027055D01*
Y020200D01*
D02*
G37*
G36*
X027391D02*
X027155D01*
Y019983D01*
X027391D01*
Y020200D01*
D02*
G37*
G36*
X040615Y019395D02*
X040300D01*
Y019080D01*
X040615D01*
Y019395D01*
D02*
G37*
G36*
X032857Y020228D02*
X032298D01*
X032300Y020220D01*
X032333Y020171D01*
Y020129D01*
X032300Y020080D01*
X032289Y020022D01*
X032300Y019964D01*
X032321Y019932D01*
X032298Y019888D01*
X030956D01*
X030909Y019879D01*
X030869Y019852D01*
X029988Y018971D01*
X029683D01*
Y018398D01*
X030217D01*
Y018854D01*
X030337Y018974D01*
X030351Y018968D01*
X030351D01*
X030383Y018955D01*
Y018398D01*
X030917D01*
Y018971D01*
X030850D01*
X030830Y019017D01*
X031201Y019388D01*
X031716D01*
X031748Y019341D01*
X031388Y018981D01*
X031042D01*
Y018408D01*
X031575D01*
Y018822D01*
X031885Y019132D01*
X032356D01*
X032382Y019114D01*
X032440Y019103D01*
X032716D01*
X032774Y019114D01*
X032823Y019147D01*
X032856Y019196D01*
X032867Y019254D01*
X032856Y019312D01*
X032823Y019362D01*
Y019403D01*
X032856Y019452D01*
X032867Y019510D01*
X032856Y019568D01*
X032823Y019617D01*
Y019659D01*
X032856Y019708D01*
X032867Y019766D01*
X032856Y019824D01*
X032823Y019873D01*
Y019915D01*
X032856Y019964D01*
X032867Y020022D01*
X032856Y020080D01*
X032823Y020129D01*
Y020171D01*
X032856Y020220D01*
X032857Y020228D01*
D02*
G37*
G36*
X034772Y019204D02*
X034543D01*
X034544Y019196D01*
X034577Y019147D01*
X034626Y019114D01*
X034684Y019103D01*
X034772D01*
Y019204D01*
D02*
G37*
G36*
X036590Y015382D02*
X036373D01*
Y015375D01*
X036110D01*
Y015010D01*
Y014645D01*
X036425D01*
Y014809D01*
X036590D01*
Y015095D01*
Y015382D01*
D02*
G37*
G36*
X028592Y015390D02*
X028375D01*
Y015103D01*
Y014817D01*
X028540D01*
Y014652D01*
X028855D01*
Y015018D01*
Y015383D01*
X028592D01*
Y015390D01*
D02*
G37*
G36*
X029475D02*
X029258D01*
Y015383D01*
X028955D01*
Y015018D01*
Y014652D01*
X029270D01*
Y014817D01*
X029475D01*
Y015103D01*
Y015390D01*
D02*
G37*
G36*
X034592D02*
X034375D01*
Y015103D01*
Y014817D01*
X034535D01*
Y014645D01*
X034850D01*
Y015010D01*
Y015375D01*
X034592D01*
Y015390D01*
D02*
G37*
G36*
X035440Y015382D02*
X035223D01*
Y015375D01*
X034950D01*
Y015010D01*
Y014645D01*
X035265D01*
Y014809D01*
X035440D01*
Y015095D01*
Y015382D01*
D02*
G37*
G36*
X035757D02*
X035540D01*
Y015095D01*
Y014809D01*
X035695D01*
Y014645D01*
X036010D01*
Y015010D01*
Y015375D01*
X035757D01*
Y015382D01*
D02*
G37*
G36*
X029792Y015390D02*
X029575D01*
Y015103D01*
Y014817D01*
X029740D01*
Y014652D01*
X030055D01*
Y015018D01*
Y015383D01*
X029792D01*
Y015390D01*
D02*
G37*
G36*
X032192D02*
X031975D01*
Y015103D01*
Y014817D01*
X032140D01*
Y014652D01*
X032455D01*
Y015018D01*
Y015383D01*
X032192D01*
Y015390D01*
D02*
G37*
G36*
X033075D02*
X032858D01*
Y015383D01*
X032555D01*
Y015018D01*
Y014652D01*
X032870D01*
Y014817D01*
X033075D01*
Y015103D01*
Y015390D01*
D02*
G37*
G36*
X033392D02*
X033175D01*
Y015103D01*
Y014817D01*
X033340D01*
Y014652D01*
X033655D01*
Y015018D01*
Y015383D01*
X033392D01*
Y015390D01*
D02*
G37*
G36*
X030675D02*
X030458D01*
Y015383D01*
X030155D01*
Y015018D01*
Y014652D01*
X030470D01*
Y014817D01*
X030675D01*
Y015103D01*
Y015390D01*
D02*
G37*
G36*
X030992D02*
X030775D01*
Y015103D01*
Y014817D01*
X030940D01*
Y014652D01*
X031255D01*
Y015018D01*
Y015383D01*
X030992D01*
Y015390D01*
D02*
G37*
G36*
X031875D02*
X031658D01*
Y015383D01*
X031355D01*
Y015018D01*
Y014652D01*
X031670D01*
Y014817D01*
X031875D01*
Y015103D01*
Y015390D01*
D02*
G37*
G36*
X046395Y014950D02*
X046080D01*
Y014635D01*
X046395D01*
Y014950D01*
D02*
G37*
G36*
X038765Y015365D02*
X038450D01*
Y015000D01*
Y014635D01*
X038765D01*
Y014779D01*
X038950D01*
Y015065D01*
Y015352D01*
X038765D01*
Y015365D01*
D02*
G37*
G36*
X039550D02*
X039235D01*
Y015352D01*
X039050D01*
Y015065D01*
Y014779D01*
X039235D01*
Y014635D01*
X039550D01*
Y015000D01*
Y015365D01*
D02*
G37*
G36*
X039965D02*
X039650D01*
Y015000D01*
Y014635D01*
X039965D01*
Y014779D01*
X040150D01*
Y015065D01*
Y015352D01*
X039965D01*
Y015365D01*
D02*
G37*
G36*
X036907Y015382D02*
X036690D01*
Y015095D01*
Y014809D01*
X036855D01*
Y014635D01*
X037170D01*
Y015000D01*
Y015365D01*
X036907D01*
Y015382D01*
D02*
G37*
G36*
X037585Y015365D02*
X037270D01*
Y015000D01*
Y014635D01*
X037585D01*
Y014779D01*
X037750D01*
Y015065D01*
Y015352D01*
X037585D01*
Y015365D01*
D02*
G37*
G36*
X038350D02*
X038035D01*
Y015352D01*
X037850D01*
Y015065D01*
Y014779D01*
X038035D01*
Y014635D01*
X038350D01*
Y015000D01*
Y015365D01*
D02*
G37*
G36*
X041200Y014950D02*
X040885D01*
Y014635D01*
X041200D01*
Y014950D01*
D02*
G37*
G36*
X044930D02*
X044615D01*
Y014635D01*
X044930D01*
Y014950D01*
D02*
G37*
G36*
X045345D02*
X045030D01*
Y014635D01*
X045345D01*
Y014950D01*
D02*
G37*
G36*
X045980D02*
X045665D01*
Y014635D01*
X045980D01*
Y014950D01*
D02*
G37*
G36*
X041615D02*
X041300D01*
Y014635D01*
X041615D01*
Y014950D01*
D02*
G37*
G36*
X043260D02*
X042945D01*
Y014635D01*
X043260D01*
Y014950D01*
D02*
G37*
G36*
X043675D02*
X043360D01*
Y014635D01*
X043675D01*
Y014950D01*
D02*
G37*
G36*
X045980Y015365D02*
X045665D01*
Y015050D01*
X045980D01*
Y015365D01*
D02*
G37*
G36*
X046395D02*
X046080D01*
Y015050D01*
X046395D01*
Y015365D01*
D02*
G37*
G36*
X047340Y015395D02*
X047025D01*
Y015080D01*
X047340D01*
Y015395D01*
D02*
G37*
G36*
X043675Y015365D02*
X043360D01*
Y015050D01*
X043675D01*
Y015365D01*
D02*
G37*
G36*
X044930D02*
X044615D01*
Y015050D01*
X044930D01*
Y015365D01*
D02*
G37*
G36*
X045345D02*
X045030D01*
Y015050D01*
X045345D01*
Y015365D01*
D02*
G37*
G36*
X047755Y015395D02*
X047440D01*
Y015080D01*
X047755D01*
Y015395D01*
D02*
G37*
G36*
X044467Y015622D02*
X044250D01*
Y015385D01*
X044467D01*
Y015622D01*
D02*
G37*
G36*
X051256Y016287D02*
X051160Y016268D01*
X051078Y016214D01*
X051023Y016132D01*
X051004Y016035D01*
X051023Y015939D01*
X051078Y015857D01*
X051160Y015803D01*
X051256Y015783D01*
X051353Y015803D01*
X051434Y015857D01*
X051489Y015939D01*
X051508Y016035D01*
X051489Y016132D01*
X051434Y016214D01*
X051353Y016268D01*
X051256Y016287D01*
D02*
G37*
G36*
X026328Y016802D02*
X025851D01*
X025324Y016275D01*
Y015798D01*
X026328D01*
Y016802D01*
D02*
G37*
G36*
X040467Y015352D02*
X040250D01*
Y015115D01*
X040467D01*
Y015352D01*
D02*
G37*
G36*
X028275Y015390D02*
X028058D01*
Y015153D01*
X028275D01*
Y015390D01*
D02*
G37*
G36*
X044150Y015622D02*
X043933D01*
Y015385D01*
X044150D01*
Y015622D01*
D02*
G37*
G36*
X043260Y015365D02*
X042945D01*
Y015050D01*
X043260D01*
Y015365D01*
D02*
G37*
G36*
X026328Y015698D02*
X025324D01*
Y015221D01*
X025851Y014694D01*
X026328D01*
Y015698D01*
D02*
G37*
G36*
X027432D02*
X026428D01*
Y014694D01*
X026905D01*
X027432Y015221D01*
Y015698D01*
D02*
G37*
G36*
X054674D02*
X053670D01*
Y015221D01*
X054197Y014694D01*
X054674D01*
Y015698D01*
D02*
G37*
G36*
X034275Y015390D02*
X034058D01*
Y015383D01*
X033755D01*
Y015018D01*
Y014652D01*
X034070D01*
Y014817D01*
X034275D01*
Y015103D01*
Y015390D01*
D02*
G37*
G36*
X047340Y014980D02*
X047025D01*
Y014665D01*
X047340D01*
Y014980D01*
D02*
G37*
G36*
X047755D02*
X047440D01*
Y014665D01*
X047755D01*
Y014980D01*
D02*
G37*
G36*
X055779Y015698D02*
X054774D01*
Y014694D01*
X055252D01*
X055779Y015221D01*
Y015698D01*
D02*
G37*
G36*
X044467Y015285D02*
X044250D01*
Y015049D01*
X044467D01*
Y015285D01*
D02*
G37*
G36*
X041200Y015365D02*
X040885D01*
Y015050D01*
X041200D01*
Y015365D01*
D02*
G37*
G36*
X041615D02*
X041300D01*
Y015050D01*
X041615D01*
Y015365D01*
D02*
G37*
G36*
X040467Y015015D02*
X040250D01*
Y014779D01*
X040467D01*
Y015015D01*
D02*
G37*
G36*
X028275Y015053D02*
X028058D01*
Y014817D01*
X028275D01*
Y015053D01*
D02*
G37*
G36*
X044150Y015285D02*
X043933D01*
Y015049D01*
X044150D01*
Y015285D01*
D02*
G37*
G36*
X034835Y026847D02*
X034520D01*
Y026630D01*
X034835D01*
Y026847D01*
D02*
G37*
G36*
X042943Y026923D02*
X042686D01*
Y026726D01*
X042943D01*
Y026923D01*
D02*
G37*
G36*
X035260Y027008D02*
X035004D01*
Y026752D01*
X035260D01*
Y027008D01*
D02*
G37*
G36*
X042290Y026815D02*
X042073D01*
Y026579D01*
X042290D01*
Y026815D01*
D02*
G37*
G36*
X042607D02*
X042390D01*
Y026579D01*
X042607D01*
Y026815D01*
D02*
G37*
G36*
X034420Y026847D02*
X034105D01*
Y026630D01*
X034420D01*
Y026847D01*
D02*
G37*
G36*
X036395Y027092D02*
X036080D01*
Y026816D01*
X036395D01*
Y027092D01*
D02*
G37*
G36*
X045387Y027295D02*
X045170D01*
Y027058D01*
X045387D01*
Y027295D01*
D02*
G37*
G36*
X026328Y028296D02*
X025324D01*
Y027819D01*
X025851Y027292D01*
X026328D01*
Y028296D01*
D02*
G37*
G36*
X027432D02*
X026428D01*
Y027292D01*
X026905D01*
X027432Y027819D01*
Y028296D01*
D02*
G37*
G36*
X042290Y027152D02*
X042073D01*
Y026915D01*
X042290D01*
Y027152D01*
D02*
G37*
G36*
X042607D02*
X042390D01*
Y026915D01*
X042607D01*
Y027152D01*
D02*
G37*
G36*
X045070Y027295D02*
X044853D01*
Y027058D01*
X045070D01*
Y027295D01*
D02*
G37*
G36*
X039680Y026591D02*
X039463D01*
Y026355D01*
X039680D01*
Y026591D01*
D02*
G37*
G36*
X039997D02*
X039780D01*
Y026355D01*
X039997D01*
Y026591D01*
D02*
G37*
G36*
X040390D02*
X040173D01*
Y026355D01*
X040390D01*
Y026591D01*
D02*
G37*
G36*
X051375Y026982D02*
X050447D01*
Y025898D01*
X051375D01*
Y026190D01*
X051745D01*
X051790Y026130D01*
X051878Y026063D01*
X051980Y026021D01*
X052090Y026006D01*
X052200Y026021D01*
X052302Y026063D01*
X052390Y026130D01*
X052446Y026204D01*
X052493Y026188D01*
Y026138D01*
X053027D01*
Y026711D01*
X052493D01*
Y026672D01*
X052446Y026656D01*
X052390Y026730D01*
X052302Y026797D01*
X052200Y026839D01*
X052090Y026854D01*
X051980Y026839D01*
X051878Y026797D01*
X051790Y026730D01*
X051760Y026690D01*
X051375D01*
Y026982D01*
D02*
G37*
G36*
X034420Y026530D02*
X034105D01*
Y026313D01*
X034420D01*
Y026530D01*
D02*
G37*
G36*
X034835D02*
X034520D01*
Y026313D01*
X034835D01*
Y026530D01*
D02*
G37*
G36*
X040707Y026591D02*
X040490D01*
Y026355D01*
X040707D01*
Y026591D01*
D02*
G37*
G36*
X036395Y026716D02*
X036080D01*
Y026440D01*
X036395D01*
Y026716D01*
D02*
G37*
G36*
X048499Y026982D02*
X048085D01*
Y026490D01*
X048499D01*
Y026982D01*
D02*
G37*
G36*
X049013D02*
X048599D01*
Y026490D01*
X049013D01*
Y026982D01*
D02*
G37*
G36*
X035260Y026652D02*
X035004D01*
Y026396D01*
X035260D01*
Y026652D01*
D02*
G37*
G36*
X035980Y027092D02*
X035665D01*
Y027008D01*
X035616D01*
Y027008D01*
X035360D01*
Y026702D01*
Y026396D01*
X035616D01*
Y026440D01*
X035665D01*
Y026440D01*
X035980D01*
Y026766D01*
Y027092D01*
D02*
G37*
G36*
X042943Y026626D02*
X042686D01*
Y026429D01*
X042943D01*
Y026626D01*
D02*
G37*
G36*
X054674Y028296D02*
X053670D01*
Y027819D01*
X054197Y027292D01*
X054674D01*
Y028296D01*
D02*
G37*
G36*
X046835Y029050D02*
X046520D01*
Y028735D01*
X046519D01*
Y028540D01*
X046755D01*
Y028757D01*
X046835D01*
Y029050D01*
D02*
G37*
G36*
X047092Y028757D02*
X046855D01*
Y028540D01*
X047092D01*
Y028757D01*
D02*
G37*
G36*
X044460Y029468D02*
X044365Y029456D01*
X044276Y029419D01*
X044199Y029361D01*
X044141Y029284D01*
X044104Y029195D01*
X044092Y029100D01*
X044104Y029005D01*
X044141Y028916D01*
X044199Y028839D01*
X044276Y028781D01*
X044365Y028744D01*
X044460Y028732D01*
X044555Y028744D01*
X044644Y028781D01*
X044721Y028839D01*
X044779Y028916D01*
X044816Y029005D01*
X044828Y029100D01*
X044816Y029195D01*
X044779Y029284D01*
X044721Y029361D01*
X044644Y029419D01*
X044555Y029456D01*
X044460Y029468D01*
D02*
G37*
G36*
X054674Y029401D02*
X054197D01*
X053670Y028874D01*
Y028396D01*
X054674D01*
Y029401D01*
D02*
G37*
G36*
X055252D02*
X054774D01*
Y028396D01*
X055779D01*
Y028874D01*
X055252Y029401D01*
D02*
G37*
G36*
X037550Y028460D02*
X037542Y028458D01*
X037540Y028458D01*
X037445Y028446D01*
X037356Y028409D01*
X037279Y028351D01*
X037271Y028340D01*
X036660D01*
X036564Y028321D01*
X036483Y028267D01*
X036057Y027840D01*
X035665D01*
Y027735D01*
X034835D01*
Y027752D01*
X034105D01*
Y027735D01*
X029165D01*
X029086Y027719D01*
X029070Y027716D01*
X028989Y027662D01*
X026822Y025495D01*
X026445D01*
Y024765D01*
X027175D01*
Y025142D01*
X029269Y027236D01*
X031625D01*
Y026630D01*
X032355D01*
Y027236D01*
X034105D01*
Y027219D01*
X034835D01*
Y027236D01*
X035665D01*
Y027188D01*
X036395D01*
Y027472D01*
X036763Y027840D01*
X037271D01*
X037279Y027829D01*
X037356Y027771D01*
X037445Y027734D01*
X037540Y027722D01*
X037635Y027734D01*
X037724Y027771D01*
X037801Y027829D01*
X037859Y027906D01*
X037896Y027995D01*
X037908Y028090D01*
X037896Y028185D01*
X037859Y028274D01*
X037801Y028351D01*
X037724Y028409D01*
X037635Y028446D01*
X037590Y028452D01*
X037550Y028460D01*
D02*
G37*
G36*
X045410Y029050D02*
X045095D01*
Y028735D01*
X045410D01*
Y029050D01*
D02*
G37*
G36*
X045825Y029465D02*
X045510D01*
Y029150D01*
X045825D01*
Y029465D01*
D02*
G37*
G36*
X046420D02*
X046105D01*
Y029150D01*
X046420D01*
Y029465D01*
D02*
G37*
G36*
X046835D02*
X046520D01*
Y029150D01*
X046835D01*
Y029465D01*
D02*
G37*
G36*
X045825Y029050D02*
X045510D01*
Y028735D01*
X045825D01*
Y029050D01*
D02*
G37*
G36*
X046420D02*
X046105D01*
Y028735D01*
X046420D01*
Y029050D01*
D02*
G37*
G36*
X045410Y029465D02*
X045095D01*
Y029150D01*
X045410D01*
Y029465D01*
D02*
G37*
G36*
X045070Y027631D02*
X044853D01*
Y027395D01*
X045070D01*
Y027631D01*
D02*
G37*
G36*
X045387D02*
X045170D01*
Y027395D01*
X045387D01*
Y027631D01*
D02*
G37*
G36*
X050675Y027770D02*
X050439D01*
Y027553D01*
X050675D01*
Y027770D01*
D02*
G37*
G36*
X055779Y028296D02*
X054774D01*
Y027292D01*
X055252D01*
X055779Y027819D01*
Y028296D01*
D02*
G37*
G36*
X044399Y027492D02*
X044143D01*
Y027295D01*
X044399D01*
Y027492D01*
D02*
G37*
G36*
X044756D02*
X044499D01*
Y027295D01*
X044756D01*
Y027492D01*
D02*
G37*
G36*
X051012Y027770D02*
X050775D01*
Y027553D01*
X051012D01*
Y027770D01*
D02*
G37*
G36*
Y028087D02*
X050775D01*
Y027870D01*
X051012D01*
Y028087D01*
D02*
G37*
G36*
X026328Y029401D02*
X025851D01*
X025324Y028874D01*
Y028396D01*
X026328D01*
Y029401D01*
D02*
G37*
G36*
X026905D02*
X026428D01*
Y028396D01*
X027432D01*
Y028874D01*
X026905Y029401D01*
D02*
G37*
G36*
X044399Y027789D02*
X044143D01*
Y027592D01*
X044399D01*
Y027789D01*
D02*
G37*
G36*
X044756D02*
X044499D01*
Y027592D01*
X044756D01*
Y027789D01*
D02*
G37*
G36*
X050675Y028087D02*
X050439D01*
Y027870D01*
X050675D01*
Y028087D01*
D02*
G37*
G36*
X040707Y026255D02*
X040490D01*
Y026018D01*
X040707D01*
Y026255D01*
D02*
G37*
G36*
X055765Y023485D02*
X055450D01*
Y023170D01*
X055765D01*
Y023485D01*
D02*
G37*
G36*
X039451Y023681D02*
X039234D01*
Y023444D01*
X039451D01*
Y023681D01*
D02*
G37*
G36*
X048499Y024172D02*
X048085D01*
Y023680D01*
X048499D01*
Y024172D01*
D02*
G37*
G36*
Y023580D02*
X048085D01*
Y023088D01*
X048499D01*
Y023580D01*
D02*
G37*
G36*
X049013D02*
X048599D01*
Y023088D01*
X049013D01*
Y023580D01*
D02*
G37*
G36*
X055350Y023485D02*
X055035D01*
Y023170D01*
X055350D01*
Y023485D01*
D02*
G37*
G36*
X049013Y024172D02*
X048599D01*
Y023680D01*
X049013D01*
Y024172D01*
D02*
G37*
G36*
X055350Y024340D02*
X055035D01*
Y024025D01*
X055350D01*
Y024340D01*
D02*
G37*
G36*
X055765D02*
X055450D01*
Y024025D01*
X055765D01*
Y024340D01*
D02*
G37*
G36*
X052710Y024591D02*
X052493D01*
Y024355D01*
X052710D01*
Y024591D01*
D02*
G37*
G36*
X026810Y024498D02*
X026715Y024486D01*
X026626Y024449D01*
X026549Y024391D01*
X026491Y024314D01*
X026454Y024225D01*
X026442Y024130D01*
X026454Y024035D01*
X026491Y023946D01*
X026549Y023869D01*
X026626Y023811D01*
X026715Y023774D01*
X026810Y023762D01*
X026905Y023774D01*
X026994Y023811D01*
X027071Y023869D01*
X027129Y023946D01*
X027166Y024035D01*
X027178Y024130D01*
X027166Y024225D01*
X027129Y024314D01*
X027071Y024391D01*
X026994Y024449D01*
X026905Y024486D01*
X026810Y024498D01*
D02*
G37*
G36*
X052710Y024255D02*
X052493D01*
Y024018D01*
X052710D01*
Y024255D01*
D02*
G37*
G36*
X053027D02*
X052810D01*
Y024018D01*
X053027D01*
Y024255D01*
D02*
G37*
G36*
X033450Y021800D02*
X033135D01*
Y021485D01*
X033450D01*
Y021800D01*
D02*
G37*
G36*
X033865D02*
X033550D01*
Y021485D01*
X033865D01*
Y021800D01*
D02*
G37*
G36*
X025690Y021752D02*
X025434D01*
Y021496D01*
X025690D01*
Y021752D01*
D02*
G37*
G36*
X030500Y022218D02*
X030405Y022206D01*
X030316Y022169D01*
X030239Y022111D01*
X030181Y022034D01*
X030144Y021945D01*
X030132Y021850D01*
X030144Y021755D01*
X030181Y021666D01*
X030239Y021589D01*
X030316Y021531D01*
X030405Y021494D01*
X030500Y021482D01*
X030595Y021494D01*
X030684Y021531D01*
X030761Y021589D01*
X030819Y021666D01*
X030856Y021755D01*
X030868Y021850D01*
X030856Y021945D01*
X030819Y022034D01*
X030761Y022111D01*
X030684Y022169D01*
X030595Y022206D01*
X030500Y022218D01*
D02*
G37*
G36*
X031500D02*
X031405Y022206D01*
X031316Y022169D01*
X031239Y022111D01*
X031181Y022034D01*
X031144Y021945D01*
X031132Y021850D01*
X031144Y021755D01*
X031181Y021666D01*
X031239Y021589D01*
X031316Y021531D01*
X031405Y021494D01*
X031500Y021482D01*
X031595Y021494D01*
X031684Y021531D01*
X031761Y021589D01*
X031819Y021666D01*
X031856Y021755D01*
X031868Y021850D01*
X031856Y021945D01*
X031819Y022034D01*
X031761Y022111D01*
X031684Y022169D01*
X031595Y022206D01*
X031500Y022218D01*
D02*
G37*
G36*
X032500D02*
X032405Y022206D01*
X032316Y022169D01*
X032239Y022111D01*
X032181Y022034D01*
X032144Y021945D01*
X032132Y021850D01*
X032144Y021755D01*
X032181Y021666D01*
X032239Y021589D01*
X032316Y021531D01*
X032405Y021494D01*
X032500Y021482D01*
X032595Y021494D01*
X032684Y021531D01*
X032761Y021589D01*
X032819Y021666D01*
X032856Y021755D01*
X032868Y021850D01*
X032856Y021945D01*
X032819Y022034D01*
X032761Y022111D01*
X032684Y022169D01*
X032595Y022206D01*
X032500Y022218D01*
D02*
G37*
G36*
X026046Y021752D02*
X025790D01*
Y021496D01*
X026046D01*
Y021752D01*
D02*
G37*
G36*
X033865Y022215D02*
X033550D01*
Y021900D01*
X033865D01*
Y022215D01*
D02*
G37*
G36*
X046700Y024312D02*
X046611Y024294D01*
X046536Y024244D01*
X046486Y024169D01*
X046468Y024080D01*
X046486Y023991D01*
X046536Y023916D01*
X046588Y023881D01*
Y020810D01*
X046588Y020810D01*
X046588D01*
X046597Y020763D01*
X046623Y020723D01*
X047903Y019444D01*
X047898Y019420D01*
X047916Y019331D01*
X047966Y019256D01*
X048041Y019206D01*
X048130Y019188D01*
X048219Y019206D01*
X048294Y019256D01*
X048344Y019331D01*
X048361Y019414D01*
X048409Y019428D01*
X049133Y018703D01*
X049173Y018677D01*
X049220Y018668D01*
X049489D01*
Y018523D01*
X050062D01*
Y019057D01*
X049489D01*
Y018912D01*
X049271D01*
X048279Y019904D01*
X048292Y019970D01*
X048274Y020059D01*
X048224Y020134D01*
X048149Y020184D01*
X048060Y020202D01*
X047971Y020184D01*
X047896Y020134D01*
X047846Y020059D01*
X047828Y019970D01*
X047837Y019923D01*
X047793Y019900D01*
X046832Y020861D01*
Y023009D01*
X046881Y023019D01*
X046923Y022918D01*
X046990Y022830D01*
X047078Y022763D01*
X047180Y022721D01*
X047290Y022706D01*
X047400Y022721D01*
X047502Y022763D01*
X047590Y022830D01*
X047657Y022918D01*
X047699Y023020D01*
X047714Y023130D01*
X047699Y023240D01*
X047657Y023342D01*
X047590Y023430D01*
X047502Y023497D01*
X047400Y023539D01*
X047290Y023554D01*
X047180Y023539D01*
X047078Y023497D01*
X046990Y023430D01*
X046923Y023342D01*
X046881Y023241D01*
X046832Y023251D01*
Y023895D01*
X046864Y023916D01*
X046914Y023991D01*
X046932Y024080D01*
X046914Y024169D01*
X046864Y024244D01*
X046789Y024294D01*
X046700Y024312D01*
D02*
G37*
G36*
X055765Y023070D02*
X055450D01*
Y022755D01*
X055765D01*
Y023070D01*
D02*
G37*
G36*
X025690Y022108D02*
X025434D01*
Y021852D01*
X025690D01*
Y022108D01*
D02*
G37*
G36*
X026046D02*
X025790D01*
Y021852D01*
X026046D01*
Y022108D01*
D02*
G37*
G36*
X033450Y022215D02*
X033135D01*
Y021900D01*
X033450D01*
Y022215D01*
D02*
G37*
G36*
X037550Y025835D02*
X037235D01*
Y025520D01*
X037550D01*
Y025835D01*
D02*
G37*
G36*
X037965D02*
X037650D01*
Y025520D01*
X037965D01*
Y025835D01*
D02*
G37*
G36*
X052710Y026042D02*
X052493D01*
Y025805D01*
X052710D01*
Y026042D01*
D02*
G37*
G36*
X040390Y026255D02*
X040173D01*
Y026018D01*
X040390D01*
Y026255D01*
D02*
G37*
G36*
X047240Y025712D02*
X047023D01*
Y025475D01*
X047240D01*
Y025712D01*
D02*
G37*
G36*
X047557D02*
X047340D01*
Y025475D01*
X047557D01*
Y025712D01*
D02*
G37*
G36*
X053027Y026042D02*
X052810D01*
Y025805D01*
X053027D01*
Y026042D01*
D02*
G37*
G36*
X048499Y026390D02*
X048085D01*
Y025898D01*
X048499D01*
Y026390D01*
D02*
G37*
G36*
X049013D02*
X048599D01*
Y025898D01*
X049013D01*
Y026390D01*
D02*
G37*
G36*
X039997Y026255D02*
X039780D01*
Y026018D01*
X039997D01*
Y026255D01*
D02*
G37*
G36*
X035616Y025984D02*
X035004D01*
Y025848D01*
X034835D01*
Y025941D01*
X034105D01*
Y025408D01*
X034835D01*
Y025501D01*
X035004D01*
Y025372D01*
X035371D01*
X035871Y024872D01*
X035927Y024835D01*
X035993Y024821D01*
X036483D01*
Y024698D01*
X037017D01*
Y024821D01*
X037380D01*
X037396Y024774D01*
X037339Y024731D01*
X037281Y024654D01*
X037247Y024572D01*
X037017D01*
Y024602D01*
X036483D01*
Y024029D01*
X037017D01*
Y024328D01*
X037264D01*
X037281Y024286D01*
X037339Y024209D01*
X037416Y024151D01*
X037505Y024114D01*
X037600Y024102D01*
X037695Y024114D01*
X037784Y024151D01*
X037861Y024209D01*
X037919Y024286D01*
X037956Y024375D01*
X037968Y024470D01*
X037956Y024565D01*
X037919Y024654D01*
X037861Y024731D01*
X037784Y024789D01*
X037791Y024821D01*
X038072D01*
X038076Y024816D01*
X038151Y024766D01*
X038240Y024748D01*
X038329Y024766D01*
X038370Y024793D01*
X038411Y024766D01*
X038500Y024748D01*
X038589Y024766D01*
X038664Y024816D01*
X038714Y024891D01*
X038732Y024980D01*
X038714Y025069D01*
X038664Y025144D01*
X038589Y025194D01*
X038500Y025212D01*
X038411Y025194D01*
X038372Y025168D01*
X038368D01*
X038329Y025194D01*
X038240Y025212D01*
X038151Y025194D01*
X038112Y025168D01*
X037965D01*
Y025420D01*
X037235D01*
Y025168D01*
X037017D01*
Y025271D01*
X036483D01*
Y025168D01*
X036065D01*
X035616Y025617D01*
Y025984D01*
D02*
G37*
G36*
X031940Y026530D02*
X031625D01*
Y025860D01*
X031940D01*
Y026530D01*
D02*
G37*
G36*
X032355D02*
X032040D01*
Y025860D01*
X032355D01*
Y026530D01*
D02*
G37*
G36*
X052040Y024980D02*
X051673D01*
X051681Y024920D01*
X051723Y024818D01*
X051790Y024730D01*
X051878Y024663D01*
X051980Y024621D01*
X052040Y024613D01*
Y024980D01*
D02*
G37*
G36*
X052507D02*
X052140D01*
Y024613D01*
X052200Y024621D01*
X052302Y024663D01*
X052390Y024730D01*
X052457Y024818D01*
X052499Y024920D01*
X052507Y024980D01*
D02*
G37*
G36*
X052901Y028087D02*
X052328D01*
Y027553D01*
X052708D01*
X053868Y026393D01*
X053868Y026393D01*
X053868D01*
X053868Y026393D01*
X053868D01*
X053868Y026393D01*
Y026393D01*
Y026393D01*
D01*
D01*
X053868D01*
Y026393D01*
X053908Y026367D01*
X053955Y026358D01*
X054879D01*
X055268Y025969D01*
Y025731D01*
X055216Y025709D01*
X055139Y025651D01*
X055098Y025596D01*
X055053Y025567D01*
X054523Y025037D01*
X054469Y024956D01*
X054450Y024860D01*
Y024381D01*
X053949Y023880D01*
X053027D01*
Y023922D01*
X052493D01*
Y023880D01*
X052428D01*
X052390Y023930D01*
X052302Y023997D01*
X052200Y024039D01*
X052090Y024054D01*
X051980Y024039D01*
X051878Y023997D01*
X051790Y023930D01*
X051752Y023880D01*
X051375D01*
Y024172D01*
X050447D01*
Y023088D01*
X051375D01*
Y023380D01*
X051752D01*
X051790Y023330D01*
X051878Y023263D01*
X051980Y023221D01*
X052090Y023206D01*
X052200Y023221D01*
X052302Y023263D01*
X052390Y023330D01*
X052428Y023380D01*
X052493D01*
Y023349D01*
X053027D01*
Y023380D01*
X053949D01*
X054450Y022879D01*
Y022690D01*
X054450Y022690D01*
X054450D01*
X054469Y022594D01*
X054523Y022513D01*
X055067Y021970D01*
X055081Y021936D01*
X055139Y021859D01*
X055216Y021801D01*
X055305Y021764D01*
X055400Y021752D01*
X055495Y021764D01*
X055584Y021801D01*
X055661Y021859D01*
X055719Y021936D01*
X055756Y022025D01*
X055768Y022120D01*
X055756Y022215D01*
X055719Y022304D01*
X055661Y022381D01*
X055584Y022439D01*
X055495Y022476D01*
X055400Y022488D01*
X055305Y022476D01*
X055278Y022465D01*
X055035Y022709D01*
Y022755D01*
D01*
X055043D01*
Y022755D01*
X055350D01*
Y023070D01*
X055035D01*
Y022774D01*
X055028Y022771D01*
D01*
X054989Y022755D01*
X054950Y022793D01*
Y023560D01*
X054943Y023595D01*
X054950Y023630D01*
Y024757D01*
X055250Y025057D01*
X055305Y025034D01*
X055400Y025022D01*
X055495Y025034D01*
X055584Y025071D01*
X055661Y025129D01*
X055719Y025206D01*
X055756Y025295D01*
X055768Y025390D01*
X055756Y025485D01*
X055719Y025574D01*
X055661Y025651D01*
X055584Y025709D01*
X055512Y025739D01*
Y026020D01*
X055503Y026067D01*
X055477Y026107D01*
X055017Y026567D01*
X054977Y026593D01*
X054930Y026602D01*
X054005D01*
X052901Y027706D01*
Y028087D01*
D02*
G37*
G36*
X053027Y024591D02*
X052810D01*
Y024355D01*
X053027D01*
Y024591D01*
D02*
G37*
G36*
X055350Y024755D02*
X055035D01*
Y024440D01*
X055350D01*
Y024755D01*
D02*
G37*
G36*
X055765D02*
X055450D01*
Y024440D01*
X055765D01*
Y024755D01*
D02*
G37*
G36*
X052040Y025447D02*
X051980Y025439D01*
X051878Y025397D01*
X051790Y025330D01*
X051723Y025242D01*
X051681Y025140D01*
X051673Y025080D01*
X052040D01*
Y025447D01*
D02*
G37*
G36*
X040935Y025503D02*
X040857D01*
Y025333D01*
X040867Y025284D01*
X040894Y025242D01*
X040935Y025216D01*
Y025503D01*
D02*
G37*
G36*
X052710Y025705D02*
X052493D01*
Y025469D01*
X052710D01*
Y025705D01*
D02*
G37*
G36*
X053027D02*
X052810D01*
Y025469D01*
X053027D01*
Y025705D01*
D02*
G37*
G36*
X052140Y025447D02*
Y025080D01*
X052507D01*
X052499Y025140D01*
X052457Y025242D01*
X052390Y025330D01*
X052302Y025397D01*
X052200Y025439D01*
X052140Y025447D01*
D02*
G37*
G36*
X047240Y025375D02*
X047023D01*
Y025139D01*
X047240D01*
Y025375D01*
D02*
G37*
G36*
X047557D02*
X047340D01*
Y025139D01*
X047557D01*
Y025375D01*
D02*
G37*
%LPD*%
G36*
X054700Y022850D02*
X054670Y022820D01*
X054670Y022820D01*
Y022820D01*
X054628Y022802D01*
X053930Y023500D01*
Y023540D01*
Y023760D01*
X054610Y024440D01*
X054700D01*
Y022850D01*
D02*
G37*
D10*
X052615Y027820D02*
D03*
X051945D02*
D03*
X046805Y028490D02*
D03*
X047475D02*
D03*
X042895Y020420D02*
D03*
X042225D02*
D03*
X051115Y018240D02*
D03*
X050445D02*
D03*
X035035Y021830D02*
D03*
X035705D02*
D03*
X036885Y021130D02*
D03*
X037555D02*
D03*
X042025Y017020D02*
D03*
X042695D02*
D03*
X042025Y016020D02*
D03*
X042695D02*
D03*
X051465Y017450D02*
D03*
X052135D02*
D03*
X049775Y018790D02*
D03*
X050445D02*
D03*
X036865Y020550D02*
D03*
X037535D02*
D03*
X050725Y027820D02*
D03*
X051395D02*
D03*
X027105Y020250D02*
D03*
X026435D02*
D03*
D11*
X037400Y018735D02*
D03*
Y018065D02*
D03*
X045120Y026675D02*
D03*
Y027345D02*
D03*
X045440Y024285D02*
D03*
Y023615D02*
D03*
X039501Y023394D02*
D03*
Y024064D02*
D03*
X042340Y027535D02*
D03*
Y026865D02*
D03*
X040440Y025635D02*
D03*
Y026305D02*
D03*
X046810Y018005D02*
D03*
Y018675D02*
D03*
X045180Y018005D02*
D03*
Y018675D02*
D03*
X037800Y015735D02*
D03*
Y015065D02*
D03*
X031636Y021034D02*
D03*
Y020365D02*
D03*
X029950Y018015D02*
D03*
Y018685D02*
D03*
X030650Y018015D02*
D03*
Y018685D02*
D03*
X031308Y018025D02*
D03*
Y018695D02*
D03*
X032478Y018025D02*
D03*
Y018695D02*
D03*
X033708Y018025D02*
D03*
Y018695D02*
D03*
X035290Y018045D02*
D03*
Y018715D02*
D03*
X036750Y024985D02*
D03*
Y024315D02*
D03*
X039650Y021455D02*
D03*
Y020785D02*
D03*
X046280Y018005D02*
D03*
Y018675D02*
D03*
X045700Y018005D02*
D03*
Y018675D02*
D03*
X049260Y016785D02*
D03*
Y017455D02*
D03*
X050910Y016785D02*
D03*
Y017455D02*
D03*
X050380Y016785D02*
D03*
Y017455D02*
D03*
X049850Y016785D02*
D03*
Y017455D02*
D03*
X036750Y018735D02*
D03*
Y018065D02*
D03*
X036070Y018715D02*
D03*
Y018045D02*
D03*
X036640Y015095D02*
D03*
Y015765D02*
D03*
X035490Y015095D02*
D03*
Y015765D02*
D03*
X039540Y019225D02*
D03*
Y018555D02*
D03*
X052760Y025755D02*
D03*
Y026425D02*
D03*
Y024305D02*
D03*
Y023635D02*
D03*
X047290Y025425D02*
D03*
Y026095D02*
D03*
X039730Y026305D02*
D03*
Y025635D02*
D03*
X039000Y015065D02*
D03*
Y015735D02*
D03*
X040200D02*
D03*
Y015065D02*
D03*
X034325Y015772D02*
D03*
Y015103D02*
D03*
X033125Y015772D02*
D03*
Y015103D02*
D03*
X031925Y015772D02*
D03*
Y015103D02*
D03*
X030725Y015772D02*
D03*
Y015103D02*
D03*
X029525Y015772D02*
D03*
Y015103D02*
D03*
X028325D02*
D03*
Y015772D02*
D03*
X038390Y021455D02*
D03*
Y020785D02*
D03*
X044200Y015335D02*
D03*
Y016005D02*
D03*
D15*
X025740Y021802D02*
D03*
Y020778D02*
D03*
X035310Y025678D02*
D03*
Y026702D02*
D03*
D16*
X031990Y026580D02*
D03*
D17*
X034470Y027485D02*
D03*
Y026580D02*
D03*
Y025674D02*
D03*
D23*
X036030Y026766D02*
D03*
Y027514D02*
D03*
D24*
X054724Y015748D02*
Y017254D01*
X055850Y018380D01*
Y022300D01*
X055400Y022750D02*
X055850Y022300D01*
X055400Y022750D02*
Y024390D01*
X041182Y020752D02*
Y021065D01*
X041070Y020640D02*
X041182Y020752D01*
X040890Y020640D02*
X041070D01*
X040745Y020785D02*
X040890Y020640D01*
X039650Y020785D02*
X040745D01*
X028586Y021034D02*
X031636D01*
X027490Y022130D02*
X028586Y021034D01*
X027490Y022130D02*
Y022380D01*
X044850Y019070D02*
X045070Y019290D01*
X044850Y018660D02*
Y019070D01*
X044840Y018650D02*
X044850Y018660D01*
X044840Y018185D02*
Y018650D01*
X044190Y020750D02*
Y021560D01*
Y020750D02*
X044680Y020260D01*
Y018730D02*
Y020260D01*
X044200Y018250D02*
X044680Y018730D01*
X044200Y016010D02*
Y018250D01*
X044180Y015990D02*
X044200Y016010D01*
X045070Y019290D02*
Y020560D01*
X037973Y016433D02*
X038070Y016530D01*
X028327Y016433D02*
X037973D01*
X027910Y016850D02*
X028327Y016433D01*
X027910Y016850D02*
Y021116D01*
X027482Y021544D02*
X027910Y021116D01*
X051395Y027820D02*
X051920D01*
X051980Y027880D01*
Y029360D01*
X038940Y028580D02*
X039460Y029100D01*
X038940Y025570D02*
Y028580D01*
Y025570D02*
X039555Y024955D01*
X039919D01*
X039924Y024961D01*
X040510D01*
X040613Y024858D01*
Y024713D02*
Y024858D01*
X040489Y024589D02*
X040613Y024713D01*
X040217Y024589D02*
X040489D01*
X046110Y023670D02*
Y027010D01*
X045651Y023211D02*
X046110Y023670D01*
X046280Y023290D02*
Y026940D01*
X046010Y023020D02*
X046280Y023290D01*
X050470Y029080D02*
Y029100D01*
X050075Y028685D02*
X050470Y029080D01*
X049325Y028685D02*
X050075D01*
X048270Y027630D02*
X049325Y028685D01*
X046730Y027630D02*
X048270D01*
X046110Y027010D02*
X046730Y027630D01*
X044705Y023211D02*
X045651D01*
X044167Y022230D02*
Y023217D01*
X039254Y023058D02*
X039748D01*
X039900Y023211D01*
X040217D01*
X038390Y021515D02*
Y022612D01*
X038370Y021495D02*
X038390Y021515D01*
X039252Y023060D02*
X039254Y023058D01*
X038390Y022612D02*
X038838Y023060D01*
X039252D01*
X039184Y022888D02*
X039632D01*
X039182Y022890D02*
X039184Y022888D01*
X039050Y022890D02*
X039182D01*
X038690Y022530D02*
X039050Y022890D01*
X039632Y022888D02*
X039900Y022620D01*
X040217D01*
X038690Y022510D02*
Y022530D01*
X039140Y022030D02*
X040217D01*
X039343Y021833D02*
X040217D01*
X039250Y021740D02*
X039343Y021833D01*
X038810Y021740D02*
X039250D01*
X039754Y022226D02*
X040217D01*
X039670Y022310D02*
X039754Y022226D01*
X039440Y022310D02*
X039670D01*
X039430Y022300D02*
X039440Y022310D01*
X039827Y022423D02*
X040217D01*
X039650Y022600D02*
X039827Y022423D01*
X039170Y022600D02*
X039650D01*
X039150Y022610D02*
X039170Y022600D01*
X040280Y021120D02*
X040621Y021461D01*
X040960D01*
X041451D01*
X040902D02*
X040960D01*
X041451D02*
X041575Y021336D01*
Y021065D02*
Y021336D01*
X040509Y023801D02*
X041210Y023100D01*
Y022120D02*
Y023100D01*
X040307Y021455D02*
X040522Y021670D01*
X039650Y021455D02*
X040307D01*
X040522Y021670D02*
X040760D01*
X040217Y023801D02*
X040509D01*
X040760Y021670D02*
X041210Y022120D01*
X041575Y021065D02*
Y021322D01*
X040710Y023010D02*
Y023190D01*
X040493Y023407D02*
X040710Y023190D01*
X040217Y023407D02*
X040493D01*
X042993Y026417D02*
X043043Y026367D01*
X042347D02*
X043043D01*
X043050Y026360D01*
X042340D02*
X042347Y026367D01*
X042993Y027542D02*
X043400Y027135D01*
Y026400D02*
Y027135D01*
X043347Y026347D02*
X043400Y026400D01*
X043347Y025553D02*
Y026347D01*
X043544Y026194D02*
X044026Y026676D01*
X043544Y025553D02*
Y026194D01*
X044026Y026676D02*
X044449D01*
X042993Y026417D02*
Y026676D01*
X042340Y026360D02*
Y026865D01*
X042640Y028250D02*
X043440Y029050D01*
X042030Y028250D02*
X042640D01*
X041420Y027640D02*
X042030Y028250D01*
X041420Y026880D02*
Y027640D01*
Y026880D02*
X042166Y026134D01*
Y025553D02*
Y026134D01*
X040545Y024195D02*
X040783Y024433D01*
Y024928D01*
X040580Y025131D02*
X040783Y024928D01*
X040189Y025131D02*
X040580D01*
X039707Y025613D02*
X040189Y025131D01*
X040217Y024195D02*
X040545D01*
X047390Y017030D02*
X048040Y016380D01*
X049850Y016420D02*
Y016746D01*
X048040Y016380D02*
X049484D01*
X049850Y016746D01*
X042420Y022260D02*
X042447Y022233D01*
Y021455D02*
Y022233D01*
X042363Y021370D02*
X042447Y021455D01*
X042363Y021065D02*
Y021370D01*
X042683Y021447D02*
X042756Y021374D01*
X042683Y021447D02*
Y021685D01*
X042697Y021700D01*
Y022748D01*
X042693Y022753D02*
X042697Y022748D01*
X042756Y021065D02*
Y021374D01*
X042830Y020355D02*
X042895Y020420D01*
X042830Y018700D02*
Y020355D01*
X042360Y018230D02*
X042830Y018700D01*
X042050Y018230D02*
X042360D01*
X042046Y018234D02*
X042050Y018230D01*
X044660Y020970D02*
X045070Y020560D01*
X044840Y018185D02*
X044895Y018130D01*
X045440Y024265D02*
Y024285D01*
X044976Y023801D02*
X045440Y024265D01*
X044705Y023801D02*
X044976D01*
X046800Y027460D02*
X048341D01*
X049251Y028370D02*
X050740D01*
X048341Y027460D02*
X049251Y028370D01*
X049470Y029070D02*
Y029100D01*
X048200Y027800D02*
X049470Y029070D01*
X046659Y027800D02*
X048200D01*
X045940Y027081D02*
X046659Y027800D01*
X045940Y025480D02*
Y027081D01*
X045049Y024589D02*
X045940Y025480D01*
X044705Y024589D02*
X045049D01*
X046280Y026940D02*
X046800Y027460D01*
X046589Y027970D02*
X047880D01*
X045770Y027151D02*
X046589Y027970D01*
X046518Y028140D02*
X047390D01*
X045600Y027222D02*
X046518Y028140D01*
X047390D02*
X047475Y028225D01*
X047880Y027970D02*
X048470Y028560D01*
X050740Y028370D02*
X051470Y029100D01*
X045600Y025720D02*
Y027222D01*
X045770Y025570D02*
Y027151D01*
X047475Y028225D02*
Y028490D01*
X044910Y025030D02*
X045600Y025720D01*
X044489Y025030D02*
X044910D01*
X044705Y022030D02*
X044727Y022008D01*
X044998D01*
X045150Y021856D01*
Y021690D02*
Y021856D01*
Y021690D02*
X045160Y021680D01*
X045700Y019242D02*
Y021546D01*
X045016Y022230D02*
X045700Y021546D01*
X044690Y022230D02*
X045016D01*
X045910Y019580D02*
Y021577D01*
X045067Y022420D02*
X045910Y021577D01*
X044680Y022420D02*
X045067D01*
X045693Y018732D02*
Y019235D01*
Y018732D02*
X045700Y018725D01*
X045693Y019235D02*
X045700Y019242D01*
X046254Y018701D02*
X046280Y018675D01*
X046254Y018701D02*
Y019236D01*
X045910Y019580D02*
X046254Y019236D01*
X045420Y022460D02*
Y022490D01*
X045290Y022620D02*
X045420Y022490D01*
X044705Y022620D02*
X045290D01*
X048010Y021690D02*
X048040D01*
X048380Y021350D01*
Y020430D02*
Y021350D01*
Y020430D02*
X049320Y019490D01*
X049265Y017465D02*
X049840D01*
X046240Y020490D02*
X049265Y017465D01*
X050380Y017455D02*
Y017508D01*
X050088Y017800D02*
X050380Y017508D01*
X049170Y017800D02*
X050088D01*
X046240Y020490D02*
Y022070D01*
X045493Y022817D02*
X046240Y022070D01*
X046410Y020560D02*
X049170Y017800D01*
X046410Y020560D02*
Y022190D01*
X045586Y023014D02*
X046410Y022190D01*
X044705Y023014D02*
X045586D01*
X031150Y019510D02*
X032414D01*
X030645Y019005D02*
X031150Y019510D01*
X030645Y018695D02*
Y019005D01*
X030956Y019766D02*
X032414D01*
X029935Y018745D02*
X030956Y019766D01*
X029935Y018685D02*
Y018745D01*
X031647Y021046D02*
X032414D01*
X040755Y023998D02*
X041307Y023447D01*
X040217Y023998D02*
X040755D01*
X045750Y018675D02*
Y018720D01*
X042278Y023168D02*
X042693Y022753D01*
X044190Y023604D02*
X044230Y023564D01*
X044190Y023604D02*
X044705D01*
X043544D02*
X044190D01*
X045440Y024285D02*
X045815D01*
X044705Y024392D02*
X045333D01*
X043741Y023634D02*
Y025553D01*
X042559Y024831D02*
Y025553D01*
X042710Y026360D02*
X042953Y026117D01*
Y025553D02*
Y026117D01*
X044449Y027542D02*
Y027809D01*
Y026676D02*
X045119D01*
X042340Y027535D02*
X042985D01*
X040985Y025010D02*
X041368D01*
X040985D02*
Y025553D01*
Y024210D02*
Y025010D01*
X040945Y026305D02*
X041182Y026068D01*
X040440Y026305D02*
X040945D01*
X040537Y025553D02*
X040985D01*
X040530Y025560D02*
X040537Y025553D01*
X040530Y025560D02*
Y025715D01*
X043250Y018960D02*
Y020670D01*
X043150Y020770D02*
X043250Y020670D01*
X043150Y020770D02*
Y021065D01*
X039501Y024064D02*
X039764Y023801D01*
X040217D01*
X039711Y023604D02*
X040217D01*
X043741Y021065D02*
Y021509D01*
X042953Y025083D02*
Y025553D01*
X042693Y022753D02*
X043544Y023604D01*
X044705D02*
X045460D01*
X042166Y021065D02*
Y021546D01*
X042953Y021065D02*
Y021543D01*
X042363Y020740D02*
Y021065D01*
X042756Y020558D02*
Y021065D01*
X046280Y018675D02*
X046810D01*
X033671Y018732D02*
X033708Y018695D01*
Y017021D02*
Y018025D01*
X032478Y017044D02*
Y018025D01*
X031308Y017021D02*
Y018025D01*
X049840Y017465D02*
X049850Y017455D01*
X049840Y017465D02*
X049850Y017455D01*
X050380Y017455D02*
X050900D01*
X050910Y017455D02*
X051440D01*
X052140Y017455D02*
Y017996D01*
X050458Y018784D02*
X051746D01*
X050445Y018240D02*
Y018789D01*
X051115Y018240D02*
X051125Y018250D01*
X051760D01*
X052294Y018784D01*
X052534D01*
X048365Y016785D02*
X049320D01*
X050910D02*
X051915D01*
X052070Y016410D02*
Y016610D01*
X044705Y021535D02*
Y021833D01*
X052190Y015748D02*
X054724D01*
X045060Y027980D02*
X045120Y027920D01*
Y027345D02*
Y027920D01*
X044449Y027809D02*
X044620Y027980D01*
X034901Y017011D02*
Y017641D01*
X036070Y017020D02*
Y018045D01*
X034901Y017641D02*
X035250Y017990D01*
X035290Y018850D02*
X035320Y018820D01*
X035290Y018850D02*
Y019360D01*
X035140Y019510D02*
X035290Y019360D01*
X034658Y019510D02*
X035140D01*
X033710Y018732D02*
Y019991D01*
X034509Y020790D01*
X034658D01*
X031308Y018695D02*
Y018728D01*
X031834Y019254D02*
X032414D01*
X031308Y018728D02*
X031834Y019254D01*
X027887Y015103D02*
X028325D01*
X027810Y015180D02*
X027887Y015103D01*
X027810Y015180D02*
Y015660D01*
X027722Y015748D02*
X027810Y015660D01*
X026378Y015748D02*
X027722D01*
X054724Y028346D02*
X055844D01*
X055920Y028270D01*
Y024470D02*
Y028270D01*
X055800Y024370D02*
X055920Y024490D01*
X055400Y024370D02*
X055800D01*
X026370Y015780D02*
Y016980D01*
X026080Y017270D02*
X026370Y016980D01*
X025790Y017270D02*
X026080D01*
X026378Y027118D02*
Y028346D01*
X025210Y017850D02*
X025790Y017270D01*
X025220Y018230D02*
X025730D01*
X026458Y021170D02*
X026830D01*
X027135Y020865D01*
Y020250D02*
Y020865D01*
X025222Y021802D02*
X025740D01*
X026830Y021170D02*
Y021900D01*
X026460Y022270D02*
X026830Y021900D01*
X044357Y023407D02*
X044705D01*
X044167Y023217D02*
X044357Y023407D01*
X026378Y028346D02*
X029584D01*
X040970Y019870D02*
X041520Y020420D01*
X042225D01*
X042785Y016020D02*
X043480D01*
X042785Y017020D02*
X043480D01*
X042025Y016020D02*
Y017020D01*
X034822Y020534D02*
X036849D01*
X036750Y017470D02*
Y018065D01*
Y017470D02*
X037220Y017000D01*
X037400Y018000D02*
X038400Y017000D01*
X034940Y020280D02*
X035920D01*
X037450Y018750D01*
X045230Y018675D02*
X045750D01*
X046280Y017690D02*
Y018005D01*
X039818Y024392D02*
X040217D01*
X040610Y019870D02*
X040970D01*
X040250Y019510D02*
X040610Y019870D01*
X040250Y018300D02*
Y019030D01*
Y019510D01*
X041520Y019720D02*
Y019940D01*
Y019720D02*
X042210Y019030D01*
X042250D01*
X045100Y015000D02*
X046300D01*
X039100Y023400D02*
X039495D01*
X039501Y023394D02*
X039711Y023604D01*
X028550Y020180D02*
X029470D01*
X025900Y022290D02*
Y022840D01*
X025210Y017850D02*
Y022270D01*
Y025950D01*
Y022270D02*
X026460D01*
X025635Y026365D02*
X026140Y025860D01*
X025210Y025950D02*
X026378Y027118D01*
X029584Y028346D02*
X029880Y028050D01*
X031990Y026580D02*
X034470D01*
X034840D01*
X034962Y026702D01*
X035622D02*
X035725Y026805D01*
X036030D01*
X034962Y026702D02*
X035310D01*
X035622D01*
X031723Y020278D02*
X032414D01*
X051720Y020150D02*
X055400D01*
X049340Y019470D02*
X052240D01*
X052534Y019176D01*
Y018784D02*
Y019176D01*
X043700Y027500D02*
Y027970D01*
X039740Y026315D02*
Y026880D01*
X044620Y027980D02*
X045060D01*
X049320Y019490D02*
X049340Y019470D01*
X041250Y015060D02*
X041320Y014990D01*
X045090D02*
X045100Y015000D01*
X046040Y017450D02*
X046280Y017690D01*
X046040Y017040D02*
Y017450D01*
X046760Y015010D02*
Y016520D01*
X047420Y015000D02*
X048080D01*
X051915Y016785D02*
X052080Y016620D01*
X052200Y015778D02*
Y016530D01*
X052172Y015748D02*
X052190D01*
X052490Y016950D02*
X052950D01*
X053620Y017620D01*
Y018110D01*
X049850Y016746D02*
Y016785D01*
Y016420D02*
X049990Y016280D01*
X048080Y015000D02*
X048260Y014820D01*
X047390Y016030D02*
X047410Y016010D01*
X048480D01*
X048810Y015680D01*
X050040D01*
X050380Y016020D01*
Y016030D01*
Y016785D01*
X044630Y017710D02*
Y018070D01*
X044690Y018130D01*
X044895Y018005D02*
Y018130D01*
X044690D02*
X044895D01*
X046810Y016500D02*
Y018005D01*
X038390Y019540D02*
Y020765D01*
X041815Y027391D02*
X042340Y026865D01*
X041815Y027745D02*
X042050Y027980D01*
X044620D01*
X041969Y025553D02*
Y026071D01*
X041240Y026800D02*
X041969Y026071D01*
X041240Y026800D02*
Y027890D01*
X042350Y029000D01*
Y029130D01*
X041040Y028660D02*
X041470Y029090D01*
X041040Y026740D02*
Y028660D01*
Y026740D02*
X041772Y026008D01*
Y025553D02*
Y026008D01*
X040460Y029100D02*
X040460Y027140D01*
X039730Y026305D02*
X040440D01*
X039660Y024550D02*
X039818Y024392D01*
X036030Y026805D02*
X036755D01*
X037250Y027300D01*
X036755Y026295D02*
X037600Y025450D01*
X036755Y026295D02*
Y026805D01*
X036880Y029100D02*
X037720D01*
X038320Y028500D01*
Y027760D02*
Y028500D01*
X037860Y027300D02*
X038320Y027760D01*
X037250Y027300D02*
X037860D01*
X038190Y026920D02*
Y026970D01*
X037860Y027300D02*
X038190Y026970D01*
X044265Y016000D02*
X044980D01*
X044930D02*
X044980D01*
X046030D01*
X046070D01*
X046300Y015000D02*
X047420D01*
X047470Y028495D02*
Y029100D01*
X045460D02*
X045960D01*
X046470D01*
X045960Y028700D02*
Y029100D01*
X046170Y028490D02*
X046805D01*
X045060Y027980D02*
X045440D01*
X041815Y027391D02*
Y027745D01*
X045440Y027980D02*
X046060Y028600D01*
X046170Y028490D01*
X045960Y028700D02*
X046060Y028600D01*
X043544Y020326D02*
Y021065D01*
Y020326D02*
X043742Y020128D01*
X043937Y020693D02*
Y021065D01*
Y020693D02*
X044220Y020410D01*
Y020160D02*
Y020410D01*
X048470Y028560D02*
Y029100D01*
X047290Y026095D02*
Y026930D01*
X046640Y025560D02*
Y026600D01*
Y025560D02*
X046775Y025425D01*
X047290D01*
X048524D01*
X048549Y023630D02*
Y026440D01*
X049290D02*
X049370Y026520D01*
X048549Y026440D02*
X049290D01*
X052090Y025030D02*
Y025470D01*
Y025520D01*
Y025470D02*
Y025590D01*
X052255Y025755D01*
X052760D01*
X049380Y027820D02*
X050770D01*
X049370Y026520D02*
Y027850D01*
X052760Y025755D02*
X053745D01*
X055390Y025400D02*
X055400Y025390D01*
X055390Y025400D02*
Y026020D01*
X054930Y026480D02*
X055390Y026020D01*
X053955Y026480D02*
X054930D01*
X052615Y027820D02*
X053955Y026480D01*
X052760Y024305D02*
Y025755D01*
X051790Y022060D02*
X053950D01*
X051610Y021880D02*
X051790Y022060D01*
X050650Y021880D02*
X051610D01*
X048910Y022170D02*
Y022570D01*
X048549Y022931D02*
X048910Y022570D01*
X048549Y022931D02*
Y023630D01*
X049220D01*
X050650Y022200D01*
Y021880D02*
Y022200D01*
X048910Y020740D02*
X049820Y019830D01*
X048910Y020740D02*
Y022170D01*
X044200Y015000D02*
Y015335D01*
X041320Y014990D02*
X045090D01*
X042025Y017020D02*
X042046Y017041D01*
X041250Y019030D02*
X042046Y018234D01*
Y017041D02*
Y018234D01*
X030090Y017033D02*
X030390Y017333D01*
Y017750D01*
X030560Y017920D01*
X028900Y017023D02*
Y017380D01*
X029530Y018010D01*
X029980D01*
X032478Y018695D02*
X032785D01*
X033480Y019390D01*
Y020080D01*
X034446Y021046D01*
X034822D01*
X037535Y020550D02*
X037900Y020185D01*
Y019340D02*
Y020185D01*
Y019340D02*
X039600Y017640D01*
Y017000D02*
Y017640D01*
X039550Y018250D02*
Y018545D01*
Y018250D02*
X040800Y017000D01*
X041250D01*
X036330Y021830D02*
X039285Y024785D01*
X040217D01*
X035645Y021770D02*
X035705Y021830D01*
X036330D01*
X034360Y019390D02*
Y019490D01*
Y019390D02*
X034496Y019254D01*
X034822D01*
X034760Y020022D02*
X035778D01*
X036750Y019050D01*
Y018750D02*
Y019050D01*
X034760Y019766D02*
X035604D01*
X036070Y019300D01*
Y018715D02*
Y019300D01*
X032578Y020534D02*
X032589Y020523D01*
X033413D01*
X034310Y021420D01*
X035280D01*
X035590Y021110D01*
X036900D01*
X032578Y020790D02*
X033420D01*
X034460Y021830D01*
X034920D01*
X045100Y017000D02*
X045690Y017590D01*
Y017945D01*
X045750Y018005D01*
X046710Y020810D02*
Y024100D01*
Y020810D02*
X048070Y019450D01*
Y019410D02*
Y019450D01*
X044705Y022817D02*
X045493D01*
X047965Y019965D02*
X048045D01*
X049220Y018790D01*
X049775D01*
X041182Y025553D02*
Y026040D01*
X044895Y018005D02*
X045180D01*
X045230D01*
X044705Y024785D02*
X044985D01*
X045770Y025570D01*
X041378Y023810D02*
Y025553D01*
X036750Y024315D02*
X036885Y024450D01*
X037600D01*
X039550Y019085D02*
Y019640D01*
X040020Y020110D01*
X040950D01*
X041378Y020538D01*
Y021065D01*
X042600Y026030D02*
Y026090D01*
Y026030D02*
X042756Y025874D01*
Y025553D02*
Y025874D01*
D25*
X025730Y019200D02*
Y020768D01*
X025758Y020796D01*
X026458D01*
X026465Y020789D01*
Y020250D02*
Y020789D01*
X025730Y019200D02*
X026670Y018260D01*
X052090Y026430D02*
X052755D01*
X027482Y020796D02*
X027670Y020608D01*
D26*
X040055Y028932D02*
Y029268D01*
Y028932D02*
X040065Y028922D01*
Y028445D02*
Y028922D01*
X039280Y027660D02*
X040065Y028445D01*
X039280Y026040D02*
Y027660D01*
Y026040D02*
X039685Y025635D01*
X039730D01*
D27*
X028310Y016000D02*
X041300D01*
X028408Y015020D02*
X041250D01*
X026810Y025130D02*
X029165Y027485D01*
X034470D01*
X050911Y026440D02*
X052080D01*
X034470Y027485D02*
X036056D01*
X036660Y028090D01*
X037430D01*
X037550Y028210D01*
X050911Y023630D02*
X054700D01*
Y024860D01*
X055230Y025390D01*
X055400D01*
X054700Y022690D02*
Y023560D01*
Y022690D02*
X055270Y022120D01*
X055400D01*
D29*
X027670Y016640D02*
X028300Y016010D01*
X027670Y016640D02*
Y020608D01*
X035314Y025674D02*
X035993Y024995D01*
X038455D02*
X038490Y024960D01*
X034470Y025674D02*
X035314D01*
X035993Y024995D02*
X038455D01*
D30*
X028500Y021850D02*
D03*
X029500D02*
D03*
X030500D02*
D03*
X031500D02*
D03*
X032500D02*
D03*
X044980Y017000D02*
D03*
Y016000D02*
D03*
X046030Y017000D02*
D03*
Y016000D02*
D03*
X043310Y017000D02*
D03*
Y016000D02*
D03*
X034900Y017010D02*
D03*
Y016010D02*
D03*
X037220Y016000D02*
D03*
Y017000D02*
D03*
X036060Y017010D02*
D03*
Y016010D02*
D03*
X033705Y016018D02*
D03*
Y017018D02*
D03*
X032505D02*
D03*
Y016018D02*
D03*
X031305D02*
D03*
Y017018D02*
D03*
X030105D02*
D03*
Y016018D02*
D03*
X028905D02*
D03*
Y017018D02*
D03*
X039600Y016000D02*
D03*
Y017000D02*
D03*
X055400Y025390D02*
D03*
X026810Y024130D02*
D03*
X055400Y020120D02*
D03*
Y021120D02*
D03*
Y022120D02*
D03*
X041250Y017000D02*
D03*
Y016000D02*
D03*
X044250Y019030D02*
D03*
X042250D02*
D03*
X041250D02*
D03*
X026710Y018240D02*
D03*
X037600Y024470D02*
D03*
X044460Y029100D02*
D03*
X043460D02*
D03*
X042460D02*
D03*
X041460Y029100D02*
D03*
X040460Y029100D02*
D03*
X039460D02*
D03*
X047390Y018030D02*
D03*
Y017030D02*
D03*
Y016030D02*
D03*
X038400Y018000D02*
D03*
Y017000D02*
D03*
Y016000D02*
D03*
X047470Y029100D02*
D03*
X048470D02*
D03*
X049470D02*
D03*
X050470Y029100D02*
D03*
X051470Y029100D02*
D03*
X037540Y028090D02*
D03*
D31*
X033500Y021850D02*
D03*
X040250Y019030D02*
D03*
X025710Y018240D02*
D03*
X045460Y029100D02*
D03*
X046470D02*
D03*
D32*
X044980Y015000D02*
D03*
X046030D02*
D03*
X043310D02*
D03*
X034900Y015010D02*
D03*
X037220Y015000D02*
D03*
X036060Y015010D02*
D03*
X033705Y015018D02*
D03*
X032505D02*
D03*
X031305D02*
D03*
X030105D02*
D03*
X028905D02*
D03*
X039600Y015000D02*
D03*
X055400Y024390D02*
D03*
X026810Y025130D02*
D03*
X055400Y023120D02*
D03*
X041250Y015000D02*
D03*
X037600Y025470D02*
D03*
X047390Y015030D02*
D03*
X038400Y015000D02*
D03*
D33*
X026378Y028346D02*
D03*
X054724Y015748D02*
D03*
X026378D02*
D03*
X054724Y028346D02*
D03*
D34*
X052090Y023630D02*
D03*
X047290Y023130D02*
D03*
Y026930D02*
D03*
X052090Y025030D02*
D03*
Y026430D02*
D03*
D35*
X043250Y019030D02*
D03*
D36*
X028210Y022490D02*
D03*
X026940Y019390D02*
D03*
X029080Y029350D02*
D03*
X032280D02*
D03*
X034630Y029390D02*
D03*
X032550Y025560D02*
D03*
X036200Y025890D02*
D03*
X035400Y028090D02*
D03*
X032950D02*
D03*
X027000Y021140D02*
D03*
X028340Y017420D02*
D03*
X033140Y017640D02*
D03*
X035500Y017470D02*
D03*
X033100Y020140D02*
D03*
X032180Y023990D02*
D03*
X040240Y016640D02*
D03*
X026800Y017290D02*
D03*
X027730Y015830D02*
D03*
X027610Y026770D02*
D03*
X028400Y025700D02*
D03*
X029860Y024210D02*
D03*
X027450Y023420D02*
D03*
X033810Y026990D02*
D03*
X034520Y024910D02*
D03*
X043960Y028640D02*
D03*
X051470Y028390D02*
D03*
X052430Y027170D02*
D03*
X050090Y026950D02*
D03*
X050940Y025510D02*
D03*
X048560Y025520D02*
D03*
Y024450D02*
D03*
X050930Y024510D02*
D03*
X049740Y025010D02*
D03*
X050050Y023040D02*
D03*
X051690Y022870D02*
D03*
X053650Y022960D02*
D03*
X053840Y024160D02*
D03*
X054880Y025880D02*
D03*
X055530Y026520D02*
D03*
X053290Y027770D02*
D03*
X053250Y021680D02*
D03*
X049560Y015280D02*
D03*
X051060Y015290D02*
D03*
X055200Y018480D02*
D03*
X045160Y019510D02*
D03*
X038000Y022910D02*
D03*
X037140Y023340D02*
D03*
X038530Y028620D02*
D03*
X029470Y017410D02*
D03*
D37*
X038530Y026860D02*
D03*
X043700Y027570D02*
D03*
X051756Y020150D02*
D03*
X028520Y020190D02*
D03*
X052210Y014790D02*
D03*
X052460Y015270D02*
D03*
X052190Y015770D02*
D03*
X052200Y016530D02*
D03*
X052490Y016950D02*
D03*
X048320Y017370D02*
D03*
X048590Y015210D02*
D03*
X048280Y015630D02*
D03*
X048320Y014800D02*
D03*
X041370Y024420D02*
D03*
X037250Y027300D02*
D03*
X034780Y022990D02*
D03*
X036880Y029100D02*
D03*
X039170Y020040D02*
D03*
X040230Y018280D02*
D03*
X041670Y017790D02*
D03*
X046760Y016520D02*
D03*
X044700Y021000D02*
D03*
X048010D02*
D03*
X053620Y018110D02*
D03*
X046640Y026600D02*
D03*
X053780Y025790D02*
D03*
X052610Y029190D02*
D03*
X049370Y027850D02*
D03*
X041790Y027420D02*
D03*
X039740Y026880D02*
D03*
X029880Y028080D02*
D03*
X029950Y025720D02*
D03*
X029910Y022740D02*
D03*
X026140Y025860D02*
D03*
X025900Y022840D02*
D03*
X029470Y020180D02*
D03*
X036010Y024450D02*
D03*
X034370Y017640D02*
D03*
X030820Y017380D02*
D03*
X031880Y017710D02*
D03*
X037370Y019760D02*
D03*
X048300Y016800D02*
D03*
X053950Y022060D02*
D03*
X048910Y022170D02*
D03*
X050650Y021880D02*
D03*
X048630Y017070D02*
D03*
X047360Y018700D02*
D03*
D38*
X039430Y022310D02*
D03*
X039140Y022040D02*
D03*
X039180Y022610D02*
D03*
X040720Y022970D02*
D03*
X039680Y024508D02*
D03*
X042340Y016500D02*
D03*
X042380Y019550D02*
D03*
X045820Y024290D02*
D03*
X045600Y027670D02*
D03*
X045970Y019120D02*
D03*
X031330Y019200D02*
D03*
X029020Y021450D02*
D03*
X027480Y022400D02*
D03*
X041520Y019940D02*
D03*
X042420Y022260D02*
D03*
X043740Y025060D02*
D03*
X042530Y026090D02*
D03*
X038880Y021750D02*
D03*
X039000Y023470D02*
D03*
X043740Y021550D02*
D03*
X041190Y026000D02*
D03*
X042950Y025080D02*
D03*
X042170Y021570D02*
D03*
X042960D02*
D03*
X032170Y020280D02*
D03*
X048130Y019420D02*
D03*
X044710Y021520D02*
D03*
X048010Y021720D02*
D03*
X044150Y023650D02*
D03*
X042550Y024830D02*
D03*
X040240Y021540D02*
D03*
X032190Y021040D02*
D03*
X034040Y019420D02*
D03*
X044160Y022220D02*
D03*
X038070Y016530D02*
D03*
X048060Y019970D02*
D03*
X045150Y021600D02*
D03*
X045430Y022460D02*
D03*
X038680Y022510D02*
D03*
X049820Y019830D02*
D03*
X049320Y019490D02*
D03*
X050060Y016260D02*
D03*
X050380Y016030D02*
D03*
X038390Y019550D02*
D03*
X046010Y023020D02*
D03*
X046700Y024080D02*
D03*
X043820Y018370D02*
D03*
X046360Y022700D02*
D03*
X029980Y021540D02*
D03*
X040450Y027160D02*
D03*
X041330Y023420D02*
D03*
X029840Y019220D02*
D03*
X037160Y017580D02*
D03*
X036400Y017560D02*
D03*
X030850Y020330D02*
D03*
X044230Y020160D02*
D03*
X043780Y020100D02*
D03*
X042850Y018010D02*
D03*
X044130Y019670D02*
D03*
X040100Y019650D02*
D03*
X035330Y020820D02*
D03*
X036060Y021410D02*
D03*
X034370Y020220D02*
D03*
X034550Y018750D02*
D03*
X028190Y018900D02*
D03*
X039290Y025630D02*
D03*
X039630Y028520D02*
D03*
X040760D02*
D03*
Y026780D02*
D03*
X044330Y025810D02*
D03*
X044870Y025410D02*
D03*
X045270Y026050D02*
D03*
X043730Y026910D02*
D03*
X042840Y027130D02*
D03*
X044710Y027100D02*
D03*
X042330Y028540D02*
D03*
X048020Y028640D02*
D03*
X052120Y019110D02*
D03*
X050900Y019090D02*
D03*
X051680Y017930D02*
D03*
X049730Y018210D02*
D03*
X046480Y019820D02*
D03*
X049080Y015980D02*
D03*
X045740Y022170D02*
D03*
X039030Y025000D02*
D03*
X038350Y024370D02*
D03*
X038240Y024980D02*
D03*
X038500D02*
D03*
X041060Y024420D02*
D03*
X040730Y020390D02*
D03*
X041700D02*
D03*
X029030Y018400D02*
D03*
X049370Y020310D02*
D03*
D39*
X037970Y021470D02*
D03*
D40*
X044630Y017710D02*
D03*
D41*
X049524Y016035D02*
D03*
X051256D02*
D03*
D42*
X050911Y026440D02*
D03*
X048549D02*
D03*
X050911Y023630D02*
D03*
X048549D02*
D03*
D43*
X044449Y026676D02*
D03*
X042993Y027542D02*
D03*
X044449D02*
D03*
X042993Y026676D02*
D03*
D44*
X044705Y023998D02*
D03*
Y024392D02*
D03*
Y024195D02*
D03*
Y024589D02*
D03*
Y023801D02*
D03*
Y023604D02*
D03*
Y023407D02*
D03*
Y023211D02*
D03*
Y023014D02*
D03*
Y022817D02*
D03*
Y022620D02*
D03*
Y022423D02*
D03*
Y022226D02*
D03*
Y022030D02*
D03*
Y021833D02*
D03*
X040217D02*
D03*
Y022030D02*
D03*
Y022226D02*
D03*
Y022423D02*
D03*
Y022620D02*
D03*
Y022817D02*
D03*
Y023014D02*
D03*
Y023211D02*
D03*
Y023407D02*
D03*
Y023604D02*
D03*
Y023801D02*
D03*
Y023998D02*
D03*
Y024195D02*
D03*
Y024392D02*
D03*
Y024589D02*
D03*
D45*
X044705Y024785D02*
D03*
D46*
X043937Y021065D02*
D03*
X043741D02*
D03*
X043150D02*
D03*
X042953D02*
D03*
X042756D02*
D03*
X042363D02*
D03*
X042166D02*
D03*
X041969D02*
D03*
X041575D02*
D03*
X041378D02*
D03*
X041182D02*
D03*
X040985Y025553D02*
D03*
X041182D02*
D03*
X041378D02*
D03*
X041772D02*
D03*
X041969D02*
D03*
X042166D02*
D03*
X042559D02*
D03*
X042756D02*
D03*
X042953D02*
D03*
X043347D02*
D03*
X043544D02*
D03*
X043741D02*
D03*
X043347Y021065D02*
D03*
X042559D02*
D03*
X041772D02*
D03*
X040985D02*
D03*
X041575Y025553D02*
D03*
X042363D02*
D03*
X043150D02*
D03*
X043937D02*
D03*
X043544Y021065D02*
D03*
D47*
X040217Y024785D02*
D03*
D48*
X034822Y021046D02*
D03*
D49*
Y020790D02*
D03*
Y020534D02*
D03*
Y020278D02*
D03*
Y020022D02*
D03*
Y019766D02*
D03*
Y019510D02*
D03*
Y019254D02*
D03*
X032578Y021046D02*
D03*
Y020790D02*
D03*
Y020534D02*
D03*
Y020278D02*
D03*
Y020022D02*
D03*
Y019766D02*
D03*
Y019510D02*
D03*
Y019254D02*
D03*
D50*
X052534Y018784D02*
D03*
X052140Y017996D02*
D03*
X051746Y018784D02*
D03*
D51*
X026458Y020796D02*
D03*
Y021170D02*
D03*
Y021544D02*
D03*
X027482D02*
D03*
Y020796D02*
D03*
D52*
X051700Y029640D02*
X051980Y029360D01*
X040427Y029640D02*
X051700D01*
X040055Y029268D02*
X040427Y029640D01*
D53*
X037590Y021120D02*
X040280D01*
M02*
