G75*
%MOIN*%
%OFA0B0*%
%FSLAX24Y24*%
%IPPOS*%
%LPD*%
%AMOC8*
5,1,8,0,0,1.08239X$1,22.5*
%
%ADD10C,0.0710*%
%ADD11C,0.0660*%
%ADD12R,0.0454X0.0493*%
%ADD13C,0.0161*%
%ADD14R,0.0257X0.1044*%
%ADD15R,0.0847X0.1044*%
%ADD16R,0.0610X0.0197*%
%ADD17R,0.0493X0.0454*%
%ADD18R,0.0375X0.0375*%
%ADD19C,0.1241*%
D10*
X021921Y010071D03*
X021921Y011071D03*
X022921Y011071D03*
X022921Y010071D03*
X023921Y010071D03*
X023921Y011071D03*
X023921Y013433D03*
X023921Y014433D03*
X022921Y014433D03*
X021921Y014433D03*
X021921Y013433D03*
X022921Y013433D03*
X022921Y016795D03*
X021921Y016795D03*
X021921Y017795D03*
X022921Y017795D03*
X023921Y017795D03*
X023921Y016795D03*
X023921Y020157D03*
X023921Y021157D03*
X022921Y021157D03*
X021921Y021157D03*
X021921Y020157D03*
X022921Y020157D03*
D11*
X019120Y020850D02*
X019120Y021450D01*
X018120Y021450D02*
X018120Y020850D01*
X017120Y020850D02*
X017120Y021450D01*
X016120Y021450D02*
X016120Y020850D01*
X015120Y020850D02*
X015120Y021450D01*
X014120Y021450D02*
X014120Y020850D01*
X013120Y020850D02*
X013120Y021450D01*
X012120Y021450D02*
X012120Y020850D01*
X011120Y020850D02*
X011120Y021450D01*
X010120Y021450D02*
X010120Y020850D01*
X009120Y020850D02*
X009120Y021450D01*
X008120Y021450D02*
X008120Y020850D01*
X007120Y020850D02*
X007120Y021450D01*
X006120Y021450D02*
X006120Y020850D01*
X005120Y020850D02*
X005120Y021450D01*
X002646Y020634D02*
X002046Y020634D01*
X002046Y019634D02*
X002646Y019634D01*
X002646Y018634D02*
X002046Y018634D01*
X002046Y017634D02*
X002646Y017634D01*
X002646Y016634D02*
X002046Y016634D01*
X002046Y015634D02*
X002646Y015634D01*
X002646Y014634D02*
X002046Y014634D01*
X005610Y010379D02*
X005610Y009779D01*
X006610Y009779D02*
X006610Y010379D01*
X007610Y010379D02*
X007610Y009779D01*
X008610Y009779D02*
X008610Y010379D01*
X009610Y010379D02*
X009610Y009779D01*
X010610Y009779D02*
X010610Y010379D01*
X011610Y010379D02*
X011610Y009779D01*
X012610Y009779D02*
X012610Y010379D01*
X013610Y010379D02*
X013610Y009779D01*
X014610Y009779D02*
X014610Y010379D01*
X015610Y010379D02*
X015610Y009779D01*
X016610Y009779D02*
X016610Y010379D01*
X017610Y010379D02*
X017610Y009779D01*
X018610Y009779D02*
X018610Y010379D01*
D12*
X016000Y007835D03*
X016000Y007165D03*
X016000Y005335D03*
X016000Y004665D03*
X011500Y004335D03*
X011500Y003665D03*
X010500Y003665D03*
X010500Y004335D03*
X005000Y004665D03*
X005000Y005335D03*
X005000Y007165D03*
X005000Y007835D03*
X010500Y023215D03*
X010500Y023885D03*
X010500Y025665D03*
X010500Y026335D03*
X015500Y026165D03*
X015500Y026835D03*
X016500Y026835D03*
X016500Y026165D03*
X022000Y026335D03*
X022000Y025665D03*
X022000Y023235D03*
X022000Y022565D03*
X005400Y026165D03*
X005400Y026835D03*
X004500Y026835D03*
X004500Y026165D03*
X022000Y004335D03*
X022000Y003665D03*
X023000Y003665D03*
X023000Y004335D03*
D13*
X019978Y002000D02*
X019980Y002023D01*
X019986Y002046D01*
X019996Y002067D01*
X020009Y002087D01*
X020025Y002104D01*
X020044Y002118D01*
X020065Y002128D01*
X020087Y002135D01*
X020110Y002138D01*
X020134Y002137D01*
X020156Y002132D01*
X020178Y002123D01*
X020198Y002111D01*
X020216Y002095D01*
X020230Y002077D01*
X020242Y002057D01*
X020250Y002035D01*
X020254Y002012D01*
X020254Y001988D01*
X020250Y001965D01*
X020242Y001943D01*
X020230Y001923D01*
X020216Y001905D01*
X020198Y001889D01*
X020178Y001877D01*
X020156Y001868D01*
X020134Y001863D01*
X020110Y001862D01*
X020087Y001865D01*
X020065Y001872D01*
X020044Y001882D01*
X020025Y001896D01*
X020009Y001913D01*
X019996Y001933D01*
X019986Y001954D01*
X019980Y001977D01*
X019978Y002000D01*
X018246Y002000D02*
X018248Y002023D01*
X018254Y002046D01*
X018264Y002067D01*
X018277Y002087D01*
X018293Y002104D01*
X018312Y002118D01*
X018333Y002128D01*
X018355Y002135D01*
X018378Y002138D01*
X018402Y002137D01*
X018424Y002132D01*
X018446Y002123D01*
X018466Y002111D01*
X018484Y002095D01*
X018498Y002077D01*
X018510Y002057D01*
X018518Y002035D01*
X018522Y002012D01*
X018522Y001988D01*
X018518Y001965D01*
X018510Y001943D01*
X018498Y001923D01*
X018484Y001905D01*
X018466Y001889D01*
X018446Y001877D01*
X018424Y001868D01*
X018402Y001863D01*
X018378Y001862D01*
X018355Y001865D01*
X018333Y001872D01*
X018312Y001882D01*
X018293Y001896D01*
X018277Y001913D01*
X018264Y001933D01*
X018254Y001954D01*
X018248Y001977D01*
X018246Y002000D01*
X008478Y002000D02*
X008480Y002023D01*
X008486Y002046D01*
X008496Y002067D01*
X008509Y002087D01*
X008525Y002104D01*
X008544Y002118D01*
X008565Y002128D01*
X008587Y002135D01*
X008610Y002138D01*
X008634Y002137D01*
X008656Y002132D01*
X008678Y002123D01*
X008698Y002111D01*
X008716Y002095D01*
X008730Y002077D01*
X008742Y002057D01*
X008750Y002035D01*
X008754Y002012D01*
X008754Y001988D01*
X008750Y001965D01*
X008742Y001943D01*
X008730Y001923D01*
X008716Y001905D01*
X008698Y001889D01*
X008678Y001877D01*
X008656Y001868D01*
X008634Y001863D01*
X008610Y001862D01*
X008587Y001865D01*
X008565Y001872D01*
X008544Y001882D01*
X008525Y001896D01*
X008509Y001913D01*
X008496Y001933D01*
X008486Y001954D01*
X008480Y001977D01*
X008478Y002000D01*
X006746Y002000D02*
X006748Y002023D01*
X006754Y002046D01*
X006764Y002067D01*
X006777Y002087D01*
X006793Y002104D01*
X006812Y002118D01*
X006833Y002128D01*
X006855Y002135D01*
X006878Y002138D01*
X006902Y002137D01*
X006924Y002132D01*
X006946Y002123D01*
X006966Y002111D01*
X006984Y002095D01*
X006998Y002077D01*
X007010Y002057D01*
X007018Y002035D01*
X007022Y002012D01*
X007022Y001988D01*
X007018Y001965D01*
X007010Y001943D01*
X006998Y001923D01*
X006984Y001905D01*
X006966Y001889D01*
X006946Y001877D01*
X006924Y001868D01*
X006902Y001863D01*
X006878Y001862D01*
X006855Y001865D01*
X006833Y001872D01*
X006812Y001882D01*
X006793Y001896D01*
X006777Y001913D01*
X006764Y001933D01*
X006754Y001954D01*
X006748Y001977D01*
X006746Y002000D01*
X006746Y029000D02*
X006748Y029023D01*
X006754Y029046D01*
X006764Y029067D01*
X006777Y029087D01*
X006793Y029104D01*
X006812Y029118D01*
X006833Y029128D01*
X006855Y029135D01*
X006878Y029138D01*
X006902Y029137D01*
X006924Y029132D01*
X006946Y029123D01*
X006966Y029111D01*
X006984Y029095D01*
X006998Y029077D01*
X007010Y029057D01*
X007018Y029035D01*
X007022Y029012D01*
X007022Y028988D01*
X007018Y028965D01*
X007010Y028943D01*
X006998Y028923D01*
X006984Y028905D01*
X006966Y028889D01*
X006946Y028877D01*
X006924Y028868D01*
X006902Y028863D01*
X006878Y028862D01*
X006855Y028865D01*
X006833Y028872D01*
X006812Y028882D01*
X006793Y028896D01*
X006777Y028913D01*
X006764Y028933D01*
X006754Y028954D01*
X006748Y028977D01*
X006746Y029000D01*
X008478Y029000D02*
X008480Y029023D01*
X008486Y029046D01*
X008496Y029067D01*
X008509Y029087D01*
X008525Y029104D01*
X008544Y029118D01*
X008565Y029128D01*
X008587Y029135D01*
X008610Y029138D01*
X008634Y029137D01*
X008656Y029132D01*
X008678Y029123D01*
X008698Y029111D01*
X008716Y029095D01*
X008730Y029077D01*
X008742Y029057D01*
X008750Y029035D01*
X008754Y029012D01*
X008754Y028988D01*
X008750Y028965D01*
X008742Y028943D01*
X008730Y028923D01*
X008716Y028905D01*
X008698Y028889D01*
X008678Y028877D01*
X008656Y028868D01*
X008634Y028863D01*
X008610Y028862D01*
X008587Y028865D01*
X008565Y028872D01*
X008544Y028882D01*
X008525Y028896D01*
X008509Y028913D01*
X008496Y028933D01*
X008486Y028954D01*
X008480Y028977D01*
X008478Y029000D01*
X018246Y029000D02*
X018248Y029023D01*
X018254Y029046D01*
X018264Y029067D01*
X018277Y029087D01*
X018293Y029104D01*
X018312Y029118D01*
X018333Y029128D01*
X018355Y029135D01*
X018378Y029138D01*
X018402Y029137D01*
X018424Y029132D01*
X018446Y029123D01*
X018466Y029111D01*
X018484Y029095D01*
X018498Y029077D01*
X018510Y029057D01*
X018518Y029035D01*
X018522Y029012D01*
X018522Y028988D01*
X018518Y028965D01*
X018510Y028943D01*
X018498Y028923D01*
X018484Y028905D01*
X018466Y028889D01*
X018446Y028877D01*
X018424Y028868D01*
X018402Y028863D01*
X018378Y028862D01*
X018355Y028865D01*
X018333Y028872D01*
X018312Y028882D01*
X018293Y028896D01*
X018277Y028913D01*
X018264Y028933D01*
X018254Y028954D01*
X018248Y028977D01*
X018246Y029000D01*
X019978Y029000D02*
X019980Y029023D01*
X019986Y029046D01*
X019996Y029067D01*
X020009Y029087D01*
X020025Y029104D01*
X020044Y029118D01*
X020065Y029128D01*
X020087Y029135D01*
X020110Y029138D01*
X020134Y029137D01*
X020156Y029132D01*
X020178Y029123D01*
X020198Y029111D01*
X020216Y029095D01*
X020230Y029077D01*
X020242Y029057D01*
X020250Y029035D01*
X020254Y029012D01*
X020254Y028988D01*
X020250Y028965D01*
X020242Y028943D01*
X020230Y028923D01*
X020216Y028905D01*
X020198Y028889D01*
X020178Y028877D01*
X020156Y028868D01*
X020134Y028863D01*
X020110Y028862D01*
X020087Y028865D01*
X020065Y028872D01*
X020044Y028882D01*
X020025Y028896D01*
X020009Y028913D01*
X019996Y028933D01*
X019986Y028954D01*
X019980Y028977D01*
X019978Y029000D01*
D14*
X019880Y028016D03*
X019565Y028016D03*
X019250Y028016D03*
X018935Y028016D03*
X018620Y028016D03*
X008380Y028016D03*
X008065Y028016D03*
X007750Y028016D03*
X007435Y028016D03*
X007120Y028016D03*
X007120Y002984D03*
X007435Y002984D03*
X007750Y002984D03*
X008065Y002984D03*
X008380Y002984D03*
X018620Y002984D03*
X018935Y002984D03*
X019250Y002984D03*
X019565Y002984D03*
X019880Y002984D03*
D15*
X021022Y002984D03*
X021022Y000819D03*
X017478Y000819D03*
X017478Y002984D03*
X009522Y002984D03*
X009522Y000819D03*
X005978Y000819D03*
X005978Y002984D03*
X005978Y028016D03*
X005978Y030181D03*
X009522Y030181D03*
X009522Y028016D03*
X017478Y028016D03*
X017478Y030181D03*
X021022Y030181D03*
X021022Y028016D03*
D16*
X020689Y026413D03*
X020689Y026157D03*
X020689Y025902D03*
X020689Y025646D03*
X020689Y025390D03*
X020689Y025134D03*
X020689Y024878D03*
X020689Y024622D03*
X020689Y024366D03*
X020689Y024110D03*
X020689Y023854D03*
X020689Y023598D03*
X020689Y023343D03*
X020689Y023087D03*
X017811Y023087D03*
X017811Y023343D03*
X017811Y023598D03*
X017811Y023854D03*
X017811Y024110D03*
X017811Y024366D03*
X017811Y024622D03*
X017811Y024878D03*
X017811Y025134D03*
X017811Y025390D03*
X017811Y025646D03*
X017811Y025902D03*
X017811Y026157D03*
X017811Y026413D03*
X009189Y026413D03*
X009189Y026157D03*
X009189Y025902D03*
X009189Y025646D03*
X009189Y025390D03*
X009189Y025134D03*
X009189Y024878D03*
X009189Y024622D03*
X009189Y024366D03*
X009189Y024110D03*
X009189Y023854D03*
X009189Y023598D03*
X009189Y023343D03*
X009189Y023087D03*
X006311Y023087D03*
X006311Y023343D03*
X006311Y023598D03*
X006311Y023854D03*
X006311Y024110D03*
X006311Y024366D03*
X006311Y024622D03*
X006311Y024878D03*
X006311Y025134D03*
X006311Y025390D03*
X006311Y025646D03*
X006311Y025902D03*
X006311Y026157D03*
X006311Y026413D03*
X006311Y007913D03*
X006311Y007657D03*
X006311Y007402D03*
X006311Y007146D03*
X006311Y006890D03*
X006311Y006634D03*
X006311Y006378D03*
X006311Y006122D03*
X006311Y005866D03*
X006311Y005610D03*
X006311Y005354D03*
X006311Y005098D03*
X006311Y004843D03*
X006311Y004587D03*
X009189Y004587D03*
X009189Y004843D03*
X009189Y005098D03*
X009189Y005354D03*
X009189Y005610D03*
X009189Y005866D03*
X009189Y006122D03*
X009189Y006378D03*
X009189Y006634D03*
X009189Y006890D03*
X009189Y007146D03*
X009189Y007402D03*
X009189Y007657D03*
X009189Y007913D03*
X017811Y007913D03*
X017811Y007657D03*
X017811Y007402D03*
X017811Y007146D03*
X017811Y006890D03*
X017811Y006634D03*
X017811Y006378D03*
X017811Y006122D03*
X017811Y005866D03*
X017811Y005610D03*
X017811Y005354D03*
X017811Y005098D03*
X017811Y004843D03*
X017811Y004587D03*
X020689Y004587D03*
X020689Y004843D03*
X020689Y005098D03*
X020689Y005354D03*
X020689Y005610D03*
X020689Y005866D03*
X020689Y006122D03*
X020689Y006378D03*
X020689Y006634D03*
X020689Y006890D03*
X020689Y007146D03*
X020689Y007402D03*
X020689Y007657D03*
X020689Y007913D03*
D17*
X022165Y008000D03*
X022835Y008000D03*
X011335Y008000D03*
X010665Y008000D03*
X016165Y022750D03*
X016835Y022750D03*
X005335Y023000D03*
X004665Y023000D03*
D18*
X003500Y023205D03*
X003500Y023795D03*
X003500Y024705D03*
X003500Y025295D03*
X015500Y025295D03*
X015500Y024705D03*
X015500Y023795D03*
X015500Y023205D03*
X011500Y007295D03*
X011500Y006705D03*
X011500Y005795D03*
X011500Y005205D03*
X023000Y005205D03*
X023000Y005795D03*
X023000Y006705D03*
X023000Y007295D03*
D19*
X002500Y002500D03*
X026000Y002500D03*
X026000Y028500D03*
X002500Y028500D03*
M02*
