G75*
%MOIN*%
%OFA0B0*%
%FSLAX24Y24*%
%IPPOS*%
%LPD*%
%AMOC8*
5,1,8,0,0,1.08239X$1,22.5*
%
%ADD10R,0.0394X0.0433*%
%ADD11R,0.0197X0.0984*%
%ADD12R,0.0787X0.0984*%
%ADD13R,0.0550X0.0137*%
%ADD14R,0.0433X0.0394*%
%ADD15R,0.0315X0.0315*%
D10*
X005000Y004665D03*
X005000Y005335D03*
X005000Y007165D03*
X005000Y007835D03*
X010500Y004335D03*
X010500Y003665D03*
X011500Y003665D03*
X011500Y004335D03*
X016000Y004665D03*
X016000Y005335D03*
X016000Y007165D03*
X016000Y007835D03*
X022000Y004335D03*
X022000Y003665D03*
X023000Y003665D03*
X023000Y004335D03*
X022000Y022565D03*
X022000Y023235D03*
X022000Y025665D03*
X022000Y026335D03*
X016500Y026165D03*
X016500Y026835D03*
X015500Y026835D03*
X015500Y026165D03*
X010500Y026335D03*
X010500Y025665D03*
X010500Y023885D03*
X010500Y023215D03*
X005400Y026165D03*
X005400Y026835D03*
X004500Y026835D03*
X004500Y026165D03*
D11*
X007120Y028016D03*
X007435Y028016D03*
X007750Y028016D03*
X008065Y028016D03*
X008380Y028016D03*
X018620Y028016D03*
X018935Y028016D03*
X019250Y028016D03*
X019565Y028016D03*
X019880Y028016D03*
X019880Y002984D03*
X019565Y002984D03*
X019250Y002984D03*
X018935Y002984D03*
X018620Y002984D03*
X008380Y002984D03*
X008065Y002984D03*
X007750Y002984D03*
X007435Y002984D03*
X007120Y002984D03*
D12*
X005978Y002984D03*
X005978Y000819D03*
X009522Y000819D03*
X009522Y002984D03*
X017478Y002984D03*
X017478Y000819D03*
X021022Y000819D03*
X021022Y002984D03*
X021022Y028016D03*
X021022Y030181D03*
X017478Y030181D03*
X017478Y028016D03*
X009522Y028016D03*
X009522Y030181D03*
X005978Y030181D03*
X005978Y028016D03*
D13*
X006311Y026413D03*
X006311Y026157D03*
X006311Y025902D03*
X006311Y025646D03*
X006311Y025390D03*
X006311Y025134D03*
X006311Y024878D03*
X006311Y024622D03*
X006311Y024366D03*
X006311Y024110D03*
X006311Y023854D03*
X006311Y023598D03*
X006311Y023343D03*
X006311Y023087D03*
X009189Y023087D03*
X009189Y023343D03*
X009189Y023598D03*
X009189Y023854D03*
X009189Y024110D03*
X009189Y024366D03*
X009189Y024622D03*
X009189Y024878D03*
X009189Y025134D03*
X009189Y025390D03*
X009189Y025646D03*
X009189Y025902D03*
X009189Y026157D03*
X009189Y026413D03*
X017811Y026413D03*
X017811Y026157D03*
X017811Y025902D03*
X017811Y025646D03*
X017811Y025390D03*
X017811Y025134D03*
X017811Y024878D03*
X017811Y024622D03*
X017811Y024366D03*
X017811Y024110D03*
X017811Y023854D03*
X017811Y023598D03*
X017811Y023343D03*
X017811Y023087D03*
X020689Y023087D03*
X020689Y023343D03*
X020689Y023598D03*
X020689Y023854D03*
X020689Y024110D03*
X020689Y024366D03*
X020689Y024622D03*
X020689Y024878D03*
X020689Y025134D03*
X020689Y025390D03*
X020689Y025646D03*
X020689Y025902D03*
X020689Y026157D03*
X020689Y026413D03*
X020689Y007913D03*
X020689Y007657D03*
X020689Y007402D03*
X020689Y007146D03*
X020689Y006890D03*
X020689Y006634D03*
X020689Y006378D03*
X020689Y006122D03*
X020689Y005866D03*
X020689Y005610D03*
X020689Y005354D03*
X020689Y005098D03*
X020689Y004843D03*
X020689Y004587D03*
X017811Y004587D03*
X017811Y004843D03*
X017811Y005098D03*
X017811Y005354D03*
X017811Y005610D03*
X017811Y005866D03*
X017811Y006122D03*
X017811Y006378D03*
X017811Y006634D03*
X017811Y006890D03*
X017811Y007146D03*
X017811Y007402D03*
X017811Y007657D03*
X017811Y007913D03*
X009189Y007913D03*
X009189Y007657D03*
X009189Y007402D03*
X009189Y007146D03*
X009189Y006890D03*
X009189Y006634D03*
X009189Y006378D03*
X009189Y006122D03*
X009189Y005866D03*
X009189Y005610D03*
X009189Y005354D03*
X009189Y005098D03*
X009189Y004843D03*
X009189Y004587D03*
X006311Y004587D03*
X006311Y004843D03*
X006311Y005098D03*
X006311Y005354D03*
X006311Y005610D03*
X006311Y005866D03*
X006311Y006122D03*
X006311Y006378D03*
X006311Y006634D03*
X006311Y006890D03*
X006311Y007146D03*
X006311Y007402D03*
X006311Y007657D03*
X006311Y007913D03*
D14*
X010665Y008000D03*
X011335Y008000D03*
X022165Y008000D03*
X022835Y008000D03*
X016835Y022750D03*
X016165Y022750D03*
X005335Y023000D03*
X004665Y023000D03*
D15*
X003500Y023205D03*
X003500Y023795D03*
X003500Y024705D03*
X003500Y025295D03*
X015500Y025295D03*
X015500Y024705D03*
X015500Y023795D03*
X015500Y023205D03*
X011500Y007295D03*
X011500Y006705D03*
X011500Y005795D03*
X011500Y005205D03*
X023000Y005205D03*
X023000Y005795D03*
X023000Y006705D03*
X023000Y007295D03*
M02*
