%FSAX24Y24*%
%MOIN*%
G70*
G01*
G75*
G04 Layer_Color=128*
%ADD10R,0.0433X0.0394*%
%ADD11R,0.0394X0.0433*%
%ADD12R,0.0315X0.0315*%
%ADD13R,0.0846X0.0157*%
%ADD14R,0.0846X0.0157*%
%ADD15R,0.0472X0.0472*%
%ADD16R,0.0591X0.1299*%
%ADD17R,0.0591X0.0394*%
%ADD18R,0.0197X0.0886*%
%ADD19R,0.0807X0.1575*%
%ADD20R,0.0807X0.1378*%
%ADD21R,0.0807X0.1378*%
%ADD22R,0.0315X0.0591*%
%ADD23R,0.0591X0.0512*%
%ADD24C,0.0100*%
%ADD25C,0.0150*%
%ADD26C,0.0080*%
%ADD27C,0.0350*%
%ADD28C,0.0250*%
%ADD29C,0.0200*%
%ADD30C,0.0591*%
%ADD31R,0.0591X0.0591*%
%ADD32R,0.0591X0.0591*%
%ADD33P,0.2131X8X22.5*%
%ADD34C,0.0700*%
%ADD35O,0.0551X0.0591*%
%ADD36C,0.0500*%
%ADD37C,0.0472*%
%ADD38C,0.0315*%
%ADD39C,0.0276*%
%ADD40C,0.0350*%
%ADD41C,0.0354*%
%ADD42R,0.0787X0.0945*%
%ADD43R,0.0472X0.0354*%
%ADD44O,0.0551X0.0110*%
%ADD45R,0.0551X0.0110*%
%ADD46O,0.0110X0.0551*%
%ADD47O,0.0551X0.0110*%
%ADD48R,0.0433X0.0157*%
%ADD49O,0.0433X0.0157*%
%ADD50R,0.0315X0.0354*%
%ADD51R,0.0354X0.0236*%
%ADD52C,0.0070*%
%ADD53C,0.0090*%
%ADD54C,0.0098*%
%ADD55C,0.0079*%
%ADD56C,0.0050*%
%ADD57C,0.0197*%
%ADD58C,0.0120*%
D10*
X052615Y027820D02*
D03*
X051945D02*
D03*
X046805Y028490D02*
D03*
X047475D02*
D03*
X042895Y020420D02*
D03*
X042225D02*
D03*
X051115Y018240D02*
D03*
X050445D02*
D03*
X035035Y021830D02*
D03*
X035705D02*
D03*
X036885Y021130D02*
D03*
X037555D02*
D03*
X042025Y017020D02*
D03*
X042695D02*
D03*
X042025Y016020D02*
D03*
X042695D02*
D03*
X051465Y017450D02*
D03*
X052135D02*
D03*
X049775Y018790D02*
D03*
X050445D02*
D03*
X036865Y020550D02*
D03*
X037535D02*
D03*
X050725Y027820D02*
D03*
X051395D02*
D03*
X027105Y020250D02*
D03*
X026435D02*
D03*
D11*
X037400Y018735D02*
D03*
Y018065D02*
D03*
X045120Y026675D02*
D03*
Y027345D02*
D03*
X045440Y024285D02*
D03*
Y023615D02*
D03*
X039501Y023394D02*
D03*
Y024064D02*
D03*
X042340Y027535D02*
D03*
Y026865D02*
D03*
X040440Y025635D02*
D03*
Y026305D02*
D03*
X046810Y018005D02*
D03*
Y018675D02*
D03*
X045180Y018005D02*
D03*
Y018675D02*
D03*
X037800Y015735D02*
D03*
Y015065D02*
D03*
X031636Y021034D02*
D03*
Y020365D02*
D03*
X029950Y018015D02*
D03*
Y018685D02*
D03*
X030650Y018015D02*
D03*
Y018685D02*
D03*
X031308Y018025D02*
D03*
Y018695D02*
D03*
X032478Y018025D02*
D03*
Y018695D02*
D03*
X033708Y018025D02*
D03*
Y018695D02*
D03*
X035290Y018045D02*
D03*
Y018715D02*
D03*
X036750Y024985D02*
D03*
Y024315D02*
D03*
X039650Y021455D02*
D03*
Y020785D02*
D03*
X046280Y018005D02*
D03*
Y018675D02*
D03*
X045700Y018005D02*
D03*
Y018675D02*
D03*
X049260Y016785D02*
D03*
Y017455D02*
D03*
X050910Y016785D02*
D03*
Y017455D02*
D03*
X050380Y016785D02*
D03*
Y017455D02*
D03*
X049850Y016785D02*
D03*
Y017455D02*
D03*
X036750Y018735D02*
D03*
Y018065D02*
D03*
X036070Y018715D02*
D03*
Y018045D02*
D03*
X036640Y015095D02*
D03*
Y015765D02*
D03*
X035490Y015095D02*
D03*
Y015765D02*
D03*
X039540Y019225D02*
D03*
Y018555D02*
D03*
X052760Y025755D02*
D03*
Y026425D02*
D03*
Y024305D02*
D03*
Y023635D02*
D03*
X047290Y025425D02*
D03*
Y026095D02*
D03*
X039730Y026305D02*
D03*
Y025635D02*
D03*
X039000Y015065D02*
D03*
Y015735D02*
D03*
X040200D02*
D03*
Y015065D02*
D03*
X034325Y015772D02*
D03*
Y015103D02*
D03*
X033125Y015772D02*
D03*
Y015103D02*
D03*
X031925Y015772D02*
D03*
Y015103D02*
D03*
X030725Y015772D02*
D03*
Y015103D02*
D03*
X029525Y015772D02*
D03*
Y015103D02*
D03*
X028325D02*
D03*
Y015772D02*
D03*
X038390Y021455D02*
D03*
Y020785D02*
D03*
X044200Y015335D02*
D03*
Y016005D02*
D03*
D15*
X025740Y021802D02*
D03*
Y020778D02*
D03*
X035310Y025678D02*
D03*
Y026702D02*
D03*
D16*
X031990Y026580D02*
D03*
D17*
X034470Y027485D02*
D03*
Y026580D02*
D03*
Y025674D02*
D03*
D23*
X036030Y026766D02*
D03*
Y027514D02*
D03*
D42*
X050911Y026440D02*
D03*
X048549D02*
D03*
X050911Y023630D02*
D03*
X048549D02*
D03*
D43*
X044449Y026676D02*
D03*
X042993Y027542D02*
D03*
X044449D02*
D03*
X042993Y026676D02*
D03*
D44*
X044705Y023998D02*
D03*
Y024392D02*
D03*
Y024195D02*
D03*
Y024589D02*
D03*
Y023801D02*
D03*
Y023604D02*
D03*
Y023407D02*
D03*
Y023211D02*
D03*
Y023014D02*
D03*
Y022817D02*
D03*
Y022620D02*
D03*
Y022423D02*
D03*
Y022226D02*
D03*
Y022030D02*
D03*
Y021833D02*
D03*
X040217D02*
D03*
Y022030D02*
D03*
Y022226D02*
D03*
Y022423D02*
D03*
Y022620D02*
D03*
Y022817D02*
D03*
Y023014D02*
D03*
Y023211D02*
D03*
Y023407D02*
D03*
Y023604D02*
D03*
Y023801D02*
D03*
Y023998D02*
D03*
Y024195D02*
D03*
Y024392D02*
D03*
Y024589D02*
D03*
D45*
X044705Y024785D02*
D03*
D46*
X043937Y021065D02*
D03*
X043741D02*
D03*
X043150D02*
D03*
X042953D02*
D03*
X042756D02*
D03*
X042363D02*
D03*
X042166D02*
D03*
X041969D02*
D03*
X041575D02*
D03*
X041378D02*
D03*
X041182D02*
D03*
X040985Y025553D02*
D03*
X041182D02*
D03*
X041378D02*
D03*
X041772D02*
D03*
X041969D02*
D03*
X042166D02*
D03*
X042559D02*
D03*
X042756D02*
D03*
X042953D02*
D03*
X043347D02*
D03*
X043544D02*
D03*
X043741D02*
D03*
X043347Y021065D02*
D03*
X042559D02*
D03*
X041772D02*
D03*
X040985D02*
D03*
X041575Y025553D02*
D03*
X042363D02*
D03*
X043150D02*
D03*
X043937D02*
D03*
X043544Y021065D02*
D03*
D47*
X040217Y024785D02*
D03*
D48*
X034822Y021046D02*
D03*
D49*
Y020790D02*
D03*
Y020534D02*
D03*
Y020278D02*
D03*
Y020022D02*
D03*
Y019766D02*
D03*
Y019510D02*
D03*
Y019254D02*
D03*
X032578Y021046D02*
D03*
Y020790D02*
D03*
Y020534D02*
D03*
Y020278D02*
D03*
Y020022D02*
D03*
Y019766D02*
D03*
Y019510D02*
D03*
Y019254D02*
D03*
D50*
X052534Y018784D02*
D03*
X052140Y017996D02*
D03*
X051746Y018784D02*
D03*
D51*
X026458Y020796D02*
D03*
Y021170D02*
D03*
Y021544D02*
D03*
X027482D02*
D03*
Y020796D02*
D03*
M02*
