%FSAX24Y24*%
%MOIN*%
G70*
G01*
G75*
G04 Layer_Color=8421504*
%ADD10R,0.0433X0.0394*%
%ADD11R,0.0394X0.0433*%
%ADD12R,0.0315X0.0315*%
%ADD13R,0.0846X0.0157*%
%ADD14R,0.0846X0.0157*%
%ADD15R,0.0472X0.0472*%
%ADD16R,0.0591X0.1299*%
%ADD17R,0.0591X0.0394*%
%ADD18R,0.0197X0.0886*%
%ADD19R,0.0807X0.1575*%
%ADD20R,0.0807X0.1378*%
%ADD21R,0.0807X0.1378*%
%ADD22R,0.0315X0.0591*%
%ADD23R,0.0591X0.0512*%
%ADD24C,0.0100*%
%ADD25C,0.0150*%
%ADD26C,0.0080*%
%ADD27C,0.0350*%
%ADD28C,0.0250*%
%ADD29C,0.0200*%
%ADD30C,0.0591*%
%ADD31R,0.0591X0.0591*%
%ADD32R,0.0591X0.0591*%
%ADD33P,0.2131X8X22.5*%
%ADD34C,0.0700*%
%ADD35O,0.0551X0.0591*%
%ADD36C,0.0500*%
%ADD37C,0.0472*%
%ADD38C,0.0315*%
%ADD39C,0.0276*%
%ADD40C,0.0350*%
%ADD41C,0.0354*%
%ADD42R,0.0787X0.0945*%
%ADD43R,0.0472X0.0354*%
%ADD44O,0.0551X0.0110*%
%ADD45R,0.0551X0.0110*%
%ADD46O,0.0110X0.0551*%
%ADD47O,0.0551X0.0110*%
%ADD48R,0.0433X0.0157*%
%ADD49O,0.0433X0.0157*%
%ADD50R,0.0315X0.0354*%
%ADD51R,0.0354X0.0236*%
%ADD52C,0.0070*%
%ADD53C,0.0090*%
%ADD54C,0.0098*%
%ADD55C,0.0079*%
%ADD56C,0.0050*%
%ADD57C,0.0197*%
%ADD58C,0.0120*%
D10*
X052715Y021970D02*
D03*
X052045D02*
D03*
X047485Y021730D02*
D03*
X046815D02*
D03*
X047485Y021240D02*
D03*
X046815D02*
D03*
X053615Y018620D02*
D03*
X052945D02*
D03*
X043085Y025540D02*
D03*
X043755D02*
D03*
X042545Y023900D02*
D03*
X041875D02*
D03*
X047615Y019420D02*
D03*
X046945D02*
D03*
X039965Y022120D02*
D03*
X040635D02*
D03*
X042545Y024410D02*
D03*
X041875D02*
D03*
X029335Y017970D02*
D03*
X028665D02*
D03*
X049395Y021200D02*
D03*
X050065D02*
D03*
D11*
X054520Y019305D02*
D03*
Y019975D02*
D03*
X050230Y019155D02*
D03*
Y019825D02*
D03*
X054520Y020535D02*
D03*
Y021205D02*
D03*
X048490Y019005D02*
D03*
Y018335D02*
D03*
D12*
X045615Y021730D02*
D03*
X046265D02*
D03*
X045625Y021240D02*
D03*
X046275D02*
D03*
X039985Y022580D02*
D03*
X040635D02*
D03*
D13*
X053629Y019404D02*
D03*
D14*
Y019660D02*
D03*
Y019916D02*
D03*
Y020172D02*
D03*
Y020428D02*
D03*
Y020684D02*
D03*
Y020940D02*
D03*
Y021196D02*
D03*
X051051Y019404D02*
D03*
Y019660D02*
D03*
Y019916D02*
D03*
Y020172D02*
D03*
Y020428D02*
D03*
Y020684D02*
D03*
Y020940D02*
D03*
Y021196D02*
D03*
D15*
X028290Y024302D02*
D03*
Y023278D02*
D03*
D16*
X031560Y024230D02*
D03*
D17*
X029080Y023324D02*
D03*
Y024230D02*
D03*
Y025136D02*
D03*
D18*
X050705Y016951D02*
D03*
X051020D02*
D03*
X049760D02*
D03*
X050075D02*
D03*
X050390D02*
D03*
D19*
X048451Y015287D02*
D03*
X052329Y015287D02*
D03*
D20*
X048451Y016961D02*
D03*
D21*
X052329D02*
D03*
D22*
X028693Y026470D02*
D03*
X029481D02*
D03*
X030268D02*
D03*
X031056D02*
D03*
X031843D02*
D03*
X032630D02*
D03*
X033418D02*
D03*
X034205D02*
D03*
X034993D02*
D03*
X035780D02*
D03*
X028693Y028720D02*
D03*
X029481D02*
D03*
X030268D02*
D03*
X031056D02*
D03*
X031843D02*
D03*
X032630D02*
D03*
X033418D02*
D03*
X034205D02*
D03*
X034993D02*
D03*
X035780D02*
D03*
X035730Y020940D02*
D03*
X034943D02*
D03*
X034155D02*
D03*
X033368D02*
D03*
X032580D02*
D03*
X031793D02*
D03*
X031006D02*
D03*
X030218D02*
D03*
X029431D02*
D03*
X028643D02*
D03*
X035730Y018690D02*
D03*
X034943D02*
D03*
X034155D02*
D03*
X033368D02*
D03*
X032580D02*
D03*
X031793D02*
D03*
X031006D02*
D03*
X030218D02*
D03*
X029431D02*
D03*
X028643D02*
D03*
D23*
X027590Y024386D02*
D03*
Y025134D02*
D03*
M02*
