G04 #@! TF.FileFunction,Legend,Bot*
%FSLAX46Y46*%
G04 Gerber Fmt 4.6, Leading zero omitted, Abs format (unit mm)*
G04 Created by KiCad (PCBNEW (2015-08-03 BZR 6047)-product) date Mon 05 Oct 2015 04:37:09 PM CEST*
%MOMM*%
G01*
G04 APERTURE LIST*
%ADD10C,0.100000*%
%ADD11C,0.300000*%
%ADD12R,1.200000X1.200000*%
%ADD13O,1.200000X1.200000*%
%ADD14O,1.450000X2.500000*%
%ADD15C,1.450000*%
%ADD16C,1.300000*%
G04 APERTURE END LIST*
D10*
D11*
X41035714Y-24928571D02*
X41035714Y-23428571D01*
X41035714Y-24142857D02*
X40178571Y-24142857D01*
X40178571Y-24928571D02*
X40178571Y-23428571D01*
X38892857Y-24857143D02*
X39035714Y-24928571D01*
X39321428Y-24928571D01*
X39464285Y-24857143D01*
X39535714Y-24714286D01*
X39535714Y-24142857D01*
X39464285Y-24000000D01*
X39321428Y-23928571D01*
X39035714Y-23928571D01*
X38892857Y-24000000D01*
X38821428Y-24142857D01*
X38821428Y-24285714D01*
X39535714Y-24428571D01*
X37964285Y-24928571D02*
X38107143Y-24857143D01*
X38178571Y-24714286D01*
X38178571Y-23428571D01*
X37392857Y-24928571D02*
X37392857Y-23928571D01*
X37392857Y-23428571D02*
X37464286Y-23500000D01*
X37392857Y-23571429D01*
X37321429Y-23500000D01*
X37392857Y-23428571D01*
X37392857Y-23571429D01*
X36750000Y-24857143D02*
X36607143Y-24928571D01*
X36321428Y-24928571D01*
X36178571Y-24857143D01*
X36107143Y-24714286D01*
X36107143Y-24642857D01*
X36178571Y-24500000D01*
X36321428Y-24428571D01*
X36535714Y-24428571D01*
X36678571Y-24357143D01*
X36750000Y-24214286D01*
X36750000Y-24142857D01*
X36678571Y-24000000D01*
X36535714Y-23928571D01*
X36321428Y-23928571D01*
X36178571Y-24000000D01*
X34821428Y-24928571D02*
X34821428Y-24142857D01*
X34892857Y-24000000D01*
X35035714Y-23928571D01*
X35321428Y-23928571D01*
X35464285Y-24000000D01*
X34821428Y-24857143D02*
X34964285Y-24928571D01*
X35321428Y-24928571D01*
X35464285Y-24857143D01*
X35535714Y-24714286D01*
X35535714Y-24571429D01*
X35464285Y-24428571D01*
X35321428Y-24357143D01*
X34964285Y-24357143D01*
X34821428Y-24285714D01*
X33107142Y-23928571D02*
X32749999Y-24928571D01*
X32392857Y-23928571D01*
X31035714Y-24928571D02*
X31892857Y-24928571D01*
X31464285Y-24928571D02*
X31464285Y-23428571D01*
X31607142Y-23642857D01*
X31750000Y-23785714D01*
X31892857Y-23857143D01*
X30392857Y-24785714D02*
X30321429Y-24857143D01*
X30392857Y-24928571D01*
X30464286Y-24857143D01*
X30392857Y-24785714D01*
X30392857Y-24928571D01*
X29392857Y-23428571D02*
X29250000Y-23428571D01*
X29107143Y-23500000D01*
X29035714Y-23571429D01*
X28964285Y-23714286D01*
X28892857Y-24000000D01*
X28892857Y-24357143D01*
X28964285Y-24642857D01*
X29035714Y-24785714D01*
X29107143Y-24857143D01*
X29250000Y-24928571D01*
X29392857Y-24928571D01*
X29535714Y-24857143D01*
X29607143Y-24785714D01*
X29678571Y-24642857D01*
X29750000Y-24357143D01*
X29750000Y-24000000D01*
X29678571Y-23714286D01*
X29607143Y-23571429D01*
X29535714Y-23500000D01*
X29392857Y-23428571D01*
%LPC*%
D12*
X28000000Y-34000000D03*
D13*
X28000000Y-32750000D03*
X28000000Y-31500000D03*
D12*
X31750000Y-38500000D03*
D13*
X31750000Y-37250000D03*
X31750000Y-36000000D03*
D12*
X28000000Y-38500000D03*
D13*
X28000000Y-37250000D03*
D14*
X34040000Y-38600000D03*
X44200000Y-38600000D03*
X42930000Y-38600000D03*
X41660000Y-38600000D03*
X40390000Y-38600000D03*
X39120000Y-38600000D03*
X37850000Y-38600000D03*
X36580000Y-38600000D03*
X35310000Y-38600000D03*
D12*
X37500000Y-35000000D03*
D13*
X36250000Y-35000000D03*
X35000000Y-35000000D03*
D12*
X43250000Y-35000000D03*
D13*
X42000000Y-35000000D03*
X40750000Y-35000000D03*
D15*
X44100000Y-23340000D03*
X44100000Y-24610000D03*
X44100000Y-25880000D03*
X44100000Y-27150000D03*
X44100000Y-28420000D03*
X44100000Y-29690000D03*
X44100000Y-30960000D03*
X44100000Y-32230000D03*
D16*
X26925000Y-23500000D03*
X26925000Y-26500000D03*
M02*
