G04 #@! TF.FileFunction,Soldermask,Top*
%FSLAX46Y46*%
G04 Gerber Fmt 4.6, Leading zero omitted, Abs format (unit mm)*
G04 Created by KiCad (PCBNEW (2015-08-03 BZR 6047)-product) date Mon 05 Oct 2015 04:37:09 PM CEST*
%MOMM*%
G01*
G04 APERTURE LIST*
%ADD10C,0.100000*%
%ADD11R,1.200000X1.200000*%
%ADD12O,1.200000X1.200000*%
%ADD13O,1.450000X2.500000*%
%ADD14C,1.450000*%
%ADD15C,1.900000*%
%ADD16R,1.900000X1.200000*%
%ADD17R,1.200000X1.900000*%
%ADD18C,1.300000*%
%ADD19R,1.900000X1.100000*%
%ADD20R,1.200000X1.400000*%
%ADD21R,1.670000X1.365200*%
G04 APERTURE END LIST*
D10*
D11*
X28000000Y-34000000D03*
D12*
X28000000Y-32750000D03*
X28000000Y-31500000D03*
D11*
X31750000Y-38500000D03*
D12*
X31750000Y-37250000D03*
X31750000Y-36000000D03*
D11*
X28000000Y-38500000D03*
D12*
X28000000Y-37250000D03*
D13*
X34040000Y-38600000D03*
X44200000Y-38600000D03*
X42930000Y-38600000D03*
X41660000Y-38600000D03*
X40390000Y-38600000D03*
X39120000Y-38600000D03*
X37850000Y-38600000D03*
X36580000Y-38600000D03*
X35310000Y-38600000D03*
D11*
X37500000Y-35000000D03*
D12*
X36250000Y-35000000D03*
X35000000Y-35000000D03*
D11*
X43250000Y-35000000D03*
D12*
X42000000Y-35000000D03*
X40750000Y-35000000D03*
D14*
X44100000Y-23340000D03*
X44100000Y-24610000D03*
X44100000Y-25880000D03*
X44100000Y-27150000D03*
X44100000Y-28420000D03*
X44100000Y-29690000D03*
X44100000Y-30960000D03*
X44100000Y-32230000D03*
D15*
X30750000Y-33000000D03*
D16*
X31000000Y-30500000D03*
X31000000Y-29300000D03*
X31000000Y-28100000D03*
X31000000Y-26900000D03*
X31000000Y-25700000D03*
X31000000Y-24500000D03*
X31000000Y-23300000D03*
X31000000Y-22100000D03*
X42000000Y-22100000D03*
X42000000Y-23300000D03*
X42000000Y-24500000D03*
X42000000Y-25700000D03*
X42000000Y-26900000D03*
X42000000Y-28100000D03*
X42000000Y-29300000D03*
X42000000Y-30500000D03*
D17*
X33500000Y-32750000D03*
X34700000Y-32750000D03*
X35900000Y-32750000D03*
X37100000Y-32750000D03*
X38300000Y-32750000D03*
X39500000Y-32750000D03*
D15*
X42250000Y-33000000D03*
D18*
X26925000Y-23500000D03*
X26925000Y-26500000D03*
D19*
X28675000Y-22750000D03*
X28675000Y-25750000D03*
X28675000Y-27250000D03*
D20*
X25825000Y-21350000D03*
X25825000Y-28650000D03*
X28025000Y-28650000D03*
X28025000Y-21350000D03*
D21*
X28750000Y-24885000D03*
X28750000Y-23615000D03*
M02*
