G04 #@! TF.FileFunction,Copper,L1,Top,Signal*
%FSLAX46Y46*%
G04 Gerber Fmt 4.6, Leading zero omitted, Abs format (unit mm)*
G04 Created by KiCad (PCBNEW (2015-08-03 BZR 6047)-product) date Mon 05 Oct 2015 04:37:09 PM CEST*
%MOMM*%
G01*
G04 APERTURE LIST*
%ADD10C,0.100000*%
%ADD11R,0.800000X0.800000*%
%ADD12O,0.800000X0.800000*%
%ADD13O,1.050000X2.100000*%
%ADD14C,1.050000*%
%ADD15C,1.500000*%
%ADD16R,1.500000X0.800000*%
%ADD17R,0.800000X1.500000*%
%ADD18R,1.500000X0.700000*%
%ADD19R,0.800000X1.000000*%
%ADD20R,1.270000X0.965200*%
%ADD21C,0.600000*%
%ADD22C,0.250000*%
G04 APERTURE END LIST*
D10*
D11*
X28000000Y-34000000D03*
D12*
X28000000Y-32750000D03*
X28000000Y-31500000D03*
D11*
X31750000Y-38500000D03*
D12*
X31750000Y-37250000D03*
X31750000Y-36000000D03*
D11*
X28000000Y-38500000D03*
D12*
X28000000Y-37250000D03*
D13*
X34040000Y-38600000D03*
X44200000Y-38600000D03*
X42930000Y-38600000D03*
X41660000Y-38600000D03*
X40390000Y-38600000D03*
X39120000Y-38600000D03*
X37850000Y-38600000D03*
X36580000Y-38600000D03*
X35310000Y-38600000D03*
D11*
X37500000Y-35000000D03*
D12*
X36250000Y-35000000D03*
X35000000Y-35000000D03*
D11*
X43250000Y-35000000D03*
D12*
X42000000Y-35000000D03*
X40750000Y-35000000D03*
D14*
X44100000Y-23340000D03*
X44100000Y-24610000D03*
X44100000Y-25880000D03*
X44100000Y-27150000D03*
X44100000Y-28420000D03*
X44100000Y-29690000D03*
X44100000Y-30960000D03*
X44100000Y-32230000D03*
D15*
X30750000Y-33000000D03*
D16*
X31000000Y-30500000D03*
X31000000Y-29300000D03*
X31000000Y-28100000D03*
X31000000Y-26900000D03*
X31000000Y-25700000D03*
X31000000Y-24500000D03*
X31000000Y-23300000D03*
X31000000Y-22100000D03*
X42000000Y-22100000D03*
X42000000Y-23300000D03*
X42000000Y-24500000D03*
X42000000Y-25700000D03*
X42000000Y-26900000D03*
X42000000Y-28100000D03*
X42000000Y-29300000D03*
X42000000Y-30500000D03*
D17*
X33500000Y-32750000D03*
X34700000Y-32750000D03*
X35900000Y-32750000D03*
X37100000Y-32750000D03*
X38300000Y-32750000D03*
X39500000Y-32750000D03*
D15*
X42250000Y-33000000D03*
D18*
X28675000Y-22750000D03*
X28675000Y-25750000D03*
X28675000Y-27250000D03*
D19*
X25825000Y-21350000D03*
X25825000Y-28650000D03*
X28025000Y-28650000D03*
X28025000Y-21350000D03*
D20*
X28750000Y-24885000D03*
X28750000Y-23615000D03*
D21*
X39207354Y-36599969D03*
X32191692Y-33600392D03*
X43750000Y-21250000D03*
X33250000Y-22500000D03*
X40500000Y-28000000D03*
X38750000Y-27000000D03*
D22*
X38783090Y-36599969D02*
X39207354Y-36599969D01*
X38683115Y-36499994D02*
X38783090Y-36599969D01*
X35426992Y-36499994D02*
X38683115Y-36499994D01*
X30405706Y-34246708D02*
X33173706Y-34246708D01*
X28725001Y-32225001D02*
X28725001Y-32566003D01*
X33173706Y-34246708D02*
X35426992Y-36499994D01*
X28000000Y-31500000D02*
X28725001Y-32225001D01*
X28725001Y-32566003D02*
X30405706Y-34246708D01*
X39120000Y-38600000D02*
X39120000Y-38075000D01*
X34040000Y-38600000D02*
X33265000Y-38600000D01*
X28650000Y-38500000D02*
X28000000Y-38500000D01*
X29375001Y-39225001D02*
X28650000Y-38500000D01*
X32639999Y-39225001D02*
X29375001Y-39225001D01*
X33265000Y-38600000D02*
X32639999Y-39225001D01*
X32042085Y-33749999D02*
X32191692Y-33600392D01*
X30750000Y-33000000D02*
X31499999Y-33749999D01*
X31499999Y-33749999D02*
X32042085Y-33749999D01*
X42250000Y-33000000D02*
X43330000Y-33000000D01*
X43330000Y-33000000D02*
X44100000Y-32230000D01*
X42000000Y-22100000D02*
X42900000Y-22100000D01*
X42900000Y-22100000D02*
X43750000Y-21250000D01*
X31000000Y-22100000D02*
X32850000Y-22100000D01*
X32850000Y-22100000D02*
X33250000Y-22500000D01*
X28750000Y-24885000D02*
X28750000Y-25675000D01*
X28750000Y-25675000D02*
X28675000Y-25750000D01*
X43357538Y-30960000D02*
X44100000Y-30960000D01*
X41174999Y-34174999D02*
X41600001Y-34600001D01*
X41600001Y-34600001D02*
X42000000Y-35000000D01*
X41174999Y-32483999D02*
X41174999Y-34174999D01*
X28000000Y-37250000D02*
X28000000Y-36684315D01*
X28000000Y-36684315D02*
X27000000Y-35684315D01*
X27000000Y-33184315D02*
X27434315Y-32750000D01*
X27000000Y-35684315D02*
X27000000Y-33184315D01*
X27434315Y-32750000D02*
X28000000Y-32750000D01*
X31750000Y-37250000D02*
X28000000Y-37250000D01*
X41000000Y-34000000D02*
X36684315Y-34000000D01*
X36684315Y-34000000D02*
X36250000Y-34434315D01*
X36250000Y-34434315D02*
X36250000Y-35000000D01*
X42000000Y-35000000D02*
X41000000Y-34000000D01*
X35310000Y-38600000D02*
X35310000Y-37810000D01*
X35310000Y-37810000D02*
X34500000Y-37000000D01*
X32096574Y-37000000D02*
X31798287Y-37298287D01*
X34500000Y-37000000D02*
X32096574Y-37000000D01*
X31798287Y-37298287D02*
X31750000Y-37250000D01*
X28675000Y-25750000D02*
X29075000Y-25750000D01*
X29075000Y-25750000D02*
X29750000Y-26425000D01*
X29750000Y-26425000D02*
X29750000Y-30985002D01*
X29750000Y-30985002D02*
X30264998Y-31500000D01*
X30264998Y-31500000D02*
X41843858Y-31500000D01*
X41843858Y-31500000D02*
X42158998Y-31500000D01*
X42158998Y-31500000D02*
X42817538Y-31500000D01*
X41983999Y-31674999D02*
X42158998Y-31500000D01*
X42817538Y-31500000D02*
X43357538Y-30960000D01*
X41983999Y-31674999D02*
X41174999Y-32483999D01*
X44200000Y-38600000D02*
X44200000Y-38075000D01*
X41149999Y-35399999D02*
X40750000Y-35000000D01*
X44200000Y-38075000D02*
X41850001Y-35725001D01*
X41475001Y-35725001D02*
X41149999Y-35399999D01*
X41850001Y-35725001D02*
X41475001Y-35725001D01*
X40729999Y-35874999D02*
X40050001Y-35874999D01*
X40050001Y-35874999D02*
X39800001Y-35624999D01*
X38949999Y-35874999D02*
X35874999Y-35874999D01*
X35399999Y-35399999D02*
X35000000Y-35000000D01*
X42930000Y-38075000D02*
X40729999Y-35874999D01*
X42930000Y-38600000D02*
X42930000Y-38075000D01*
X39800001Y-35624999D02*
X39199999Y-35624999D01*
X39199999Y-35624999D02*
X38949999Y-35874999D01*
X35874999Y-35874999D02*
X35399999Y-35399999D01*
X42930000Y-38600000D02*
X42930000Y-38142905D01*
X32315685Y-36000000D02*
X31750000Y-36000000D01*
X41660000Y-38075000D02*
X40809990Y-37224990D01*
X38799988Y-37224990D02*
X38576913Y-37001915D01*
X34136410Y-36000000D02*
X32315685Y-36000000D01*
X38576913Y-37001915D02*
X35138325Y-37001915D01*
X40809990Y-37224990D02*
X38799988Y-37224990D01*
X35138325Y-37001915D02*
X34136410Y-36000000D01*
X41660000Y-38600000D02*
X41660000Y-38075000D01*
X40500000Y-28000000D02*
X31100000Y-28000000D01*
X31100000Y-28000000D02*
X31000000Y-28100000D01*
X38650000Y-26900000D02*
X38750000Y-27000000D01*
X31000000Y-26900000D02*
X38650000Y-26900000D01*
X28750000Y-23615000D02*
X28750000Y-22825000D01*
X28750000Y-22825000D02*
X28675000Y-22750000D01*
X28675000Y-22750000D02*
X28675000Y-22150000D01*
X28675000Y-22150000D02*
X29450001Y-21374999D01*
X39074999Y-21374999D02*
X41000000Y-23300000D01*
X29450001Y-21374999D02*
X39074999Y-21374999D01*
X41000000Y-23300000D02*
X42000000Y-23300000D01*
M02*
