M48
INCH,TZ
T1C0.016
T2C0.020
T3C0.030
%
G90
G05
T1
X1.2674Y-1.3229
X1.3091Y-0.8858
X1.5256Y-1.063
X1.5436Y-1.4409
X1.5945Y-1.1024
X1.7224Y-0.8366
T2
X1.1024Y-1.2402
X1.1024Y-1.2894
X1.1024Y-1.3386
X1.1024Y-1.4665
X1.1024Y-1.5157
X1.25Y-1.4173
X1.25Y-1.4665
X1.25Y-1.5157
X1.378Y-1.378
X1.4272Y-1.378
X1.4764Y-1.378
X1.6043Y-1.378
X1.6535Y-1.378
X1.7028Y-1.378
T3
X1.3402Y-1.5197
X1.3902Y-1.5197
X1.4402Y-1.5197
X1.4902Y-1.5197
X1.5402Y-1.5197
X1.5902Y-1.5197
X1.6402Y-1.5197
X1.6902Y-1.5197
X1.7362Y-0.9189
X1.7362Y-0.9689
X1.7362Y-1.0189
X1.7362Y-1.0689
X1.7362Y-1.1189
X1.7362Y-1.1689
X1.7362Y-1.2189
X1.7362Y-1.2689
X1.7402Y-1.5197
T0
M30
