G04 #@! TF.FileFunction,Legend,Top*
%FSLAX46Y46*%
G04 Gerber Fmt 4.6, Leading zero omitted, Abs format (unit mm)*
G04 Created by KiCad (PCBNEW (2015-08-03 BZR 6047)-product) date Mon 05 Oct 2015 04:37:09 PM CEST*
%MOMM*%
G01*
G04 APERTURE LIST*
%ADD10C,0.100000*%
%ADD11C,0.150000*%
%ADD12C,0.060000*%
%ADD13R,1.200000X1.200000*%
%ADD14O,1.200000X1.200000*%
%ADD15O,1.450000X2.500000*%
%ADD16C,1.450000*%
%ADD17C,1.900000*%
%ADD18R,1.900000X1.200000*%
%ADD19R,1.200000X1.900000*%
%ADD20C,1.300000*%
%ADD21R,1.900000X1.100000*%
%ADD22R,1.200000X1.400000*%
%ADD23R,1.670000X1.365200*%
G04 APERTURE END LIST*
D10*
D11*
X27880000Y-35500000D02*
X25950000Y-35500000D01*
X25950000Y-35500000D02*
X25950000Y-30000000D01*
X25950000Y-30000000D02*
X29150000Y-30000000D01*
X29150000Y-30000000D02*
X29150000Y-34230000D01*
X29650000Y-34000000D02*
X30150000Y-33500000D01*
X30150000Y-33500000D02*
X30150000Y-34500000D01*
X30150000Y-34500000D02*
X29650000Y-34000000D01*
X31630000Y-40000000D02*
X29700000Y-40000000D01*
X29700000Y-40000000D02*
X29700000Y-34500000D01*
X29700000Y-34500000D02*
X32900000Y-34500000D01*
X32900000Y-34500000D02*
X32900000Y-38730000D01*
X33400000Y-38500000D02*
X33900000Y-38000000D01*
X33900000Y-38000000D02*
X33900000Y-39000000D01*
X33900000Y-39000000D02*
X33400000Y-38500000D01*
X27880000Y-40000000D02*
X25950000Y-40000000D01*
X25950000Y-40000000D02*
X25950000Y-35750000D01*
X25950000Y-35750000D02*
X29150000Y-35750000D01*
X29150000Y-35750000D02*
X29150000Y-38730000D01*
X29650000Y-38500000D02*
X30150000Y-38000000D01*
X30150000Y-38000000D02*
X30150000Y-39000000D01*
X30150000Y-39000000D02*
X29650000Y-38500000D01*
X39000000Y-35120000D02*
X39000000Y-37050000D01*
X39000000Y-37050000D02*
X33500000Y-37050000D01*
X33500000Y-37050000D02*
X33500000Y-33850000D01*
X33500000Y-33850000D02*
X37730000Y-33850000D01*
X37500000Y-33350000D02*
X37000000Y-32850000D01*
X37000000Y-32850000D02*
X38000000Y-32850000D01*
X38000000Y-32850000D02*
X37500000Y-33350000D01*
X44750000Y-35120000D02*
X44750000Y-37050000D01*
X44750000Y-37050000D02*
X39250000Y-37050000D01*
X39250000Y-37050000D02*
X39250000Y-33850000D01*
X39250000Y-33850000D02*
X43480000Y-33850000D01*
X43250000Y-33350000D02*
X42750000Y-32850000D01*
X42750000Y-32850000D02*
X43750000Y-32850000D01*
X43750000Y-32850000D02*
X43250000Y-33350000D01*
D10*
X40450000Y-32505000D02*
X40450000Y-31495000D01*
X41450000Y-32505000D02*
X41450000Y-31495000D01*
X40450000Y-32500000D02*
G75*
G03X41450000Y-32500000I500000J500000D01*
G01*
X41450000Y-31490000D02*
G75*
G03X40450000Y-31490000I-500000J-500000D01*
G01*
X41800000Y-19650000D02*
G75*
G03X40800000Y-19650000I-500000J-500000D01*
G01*
X40800000Y-20800000D02*
G75*
G03X41800000Y-20800000I500000J500000D01*
G01*
X40800000Y-20800000D02*
X40800000Y-19650000D01*
X41800000Y-20800000D02*
X41800000Y-19650000D01*
X32550000Y-31490000D02*
G75*
G03X31550000Y-31490000I-500000J-500000D01*
G01*
X31550000Y-32500000D02*
G75*
G03X32550000Y-32500000I500000J500000D01*
G01*
X32550000Y-32500000D02*
X32550000Y-31490000D01*
X31550000Y-32505000D02*
X31550000Y-31495000D01*
X31200000Y-20850000D02*
X31200000Y-19700000D01*
X32200000Y-20850000D02*
X32200000Y-19700000D01*
X31200000Y-20850000D02*
G75*
G03X32200000Y-20850000I500000J500000D01*
G01*
X32200000Y-19700000D02*
G75*
G03X31200000Y-19700000I-500000J-500000D01*
G01*
D11*
X33350000Y-18450000D02*
X33350000Y-20050000D01*
X35550000Y-18450000D02*
X35550000Y-20050000D01*
X33350000Y-20050000D02*
X35550000Y-20050000D01*
X33350000Y-18450000D02*
X35550000Y-18450000D01*
X30750000Y-18450000D02*
X42250000Y-18450000D01*
X42250000Y-33000000D02*
X30750000Y-33000000D01*
X42250000Y-13500000D02*
X30750000Y-13500000D01*
X42250000Y-13500000D02*
X42250000Y-33000000D01*
X30750000Y-33000000D02*
X30750000Y-13500000D01*
X25925000Y-25750000D02*
X25625000Y-25750000D01*
X25925000Y-24250000D02*
X25625000Y-24250000D01*
X28225000Y-26400000D02*
X28225000Y-26600000D01*
X24325000Y-23600000D02*
X24125000Y-23800000D01*
X24325000Y-24900000D02*
X24125000Y-24700000D01*
X25625000Y-23600000D02*
X24325000Y-23600000D01*
X24125000Y-23800000D02*
X24125000Y-24700000D01*
X24325000Y-24900000D02*
X25625000Y-24900000D01*
X25625000Y-22150000D02*
X25625000Y-27850000D01*
X28225000Y-23400000D02*
X28225000Y-25100000D01*
X27325000Y-21650000D02*
X26525000Y-21650000D01*
X26525000Y-28350000D02*
X27325000Y-28350000D01*
X29639000Y-25520000D02*
X29639000Y-22980000D01*
X27861000Y-22980000D02*
X27861000Y-25520000D01*
X27861000Y-22980000D02*
X29639000Y-22980000D01*
X29639000Y-25520000D02*
X27861000Y-25520000D01*
X35807143Y-9728571D02*
X35807143Y-10942857D01*
X35878571Y-11085714D01*
X35950000Y-11157143D01*
X36092857Y-11228571D01*
X36378571Y-11228571D01*
X36521429Y-11157143D01*
X36592857Y-11085714D01*
X36664286Y-10942857D01*
X36664286Y-9728571D01*
X38164286Y-11228571D02*
X37307143Y-11228571D01*
X37735715Y-11228571D02*
X37735715Y-9728571D01*
X37592858Y-9942857D01*
X37450000Y-10085714D01*
X37307143Y-10157143D01*
X33321430Y-25178571D02*
X32821430Y-24464286D01*
X32464287Y-25178571D02*
X32464287Y-23678571D01*
X33035715Y-23678571D01*
X33178573Y-23750000D01*
X33250001Y-23821429D01*
X33321430Y-23964286D01*
X33321430Y-24178571D01*
X33250001Y-24321429D01*
X33178573Y-24392857D01*
X33035715Y-24464286D01*
X32464287Y-24464286D01*
X33964287Y-25178571D02*
X33964287Y-23678571D01*
X34821430Y-25178571D01*
X34821430Y-23678571D01*
X36178573Y-24178571D02*
X36178573Y-25178571D01*
X35821430Y-23607143D02*
X35464287Y-24678571D01*
X36392859Y-24678571D01*
X37250001Y-23678571D02*
X37392858Y-23678571D01*
X37535715Y-23750000D01*
X37607144Y-23821429D01*
X37678573Y-23964286D01*
X37750001Y-24250000D01*
X37750001Y-24607143D01*
X37678573Y-24892857D01*
X37607144Y-25035714D01*
X37535715Y-25107143D01*
X37392858Y-25178571D01*
X37250001Y-25178571D01*
X37107144Y-25107143D01*
X37035715Y-25035714D01*
X36964287Y-24892857D01*
X36892858Y-24607143D01*
X36892858Y-24250000D01*
X36964287Y-23964286D01*
X37035715Y-23821429D01*
X37107144Y-23750000D01*
X37250001Y-23678571D01*
X38321429Y-23821429D02*
X38392858Y-23750000D01*
X38535715Y-23678571D01*
X38892858Y-23678571D01*
X39035715Y-23750000D01*
X39107144Y-23821429D01*
X39178572Y-23964286D01*
X39178572Y-24107143D01*
X39107144Y-24321429D01*
X38250001Y-25178571D01*
X39178572Y-25178571D01*
X40107143Y-23678571D02*
X40250000Y-23678571D01*
X40392857Y-23750000D01*
X40464286Y-23821429D01*
X40535715Y-23964286D01*
X40607143Y-24250000D01*
X40607143Y-24607143D01*
X40535715Y-24892857D01*
X40464286Y-25035714D01*
X40392857Y-25107143D01*
X40250000Y-25178571D01*
X40107143Y-25178571D01*
X39964286Y-25107143D01*
X39892857Y-25035714D01*
X39821429Y-24892857D01*
X39750000Y-24607143D01*
X39750000Y-24250000D01*
X39821429Y-23964286D01*
X39892857Y-23821429D01*
X39964286Y-23750000D01*
X40107143Y-23678571D01*
D12*
X33792858Y-19476190D02*
X33792858Y-18976190D01*
X34078572Y-19476190D02*
X33864286Y-19190476D01*
X34078572Y-18976190D02*
X33792858Y-19261905D01*
X34388096Y-18976190D02*
X34483334Y-18976190D01*
X34530953Y-19000000D01*
X34578572Y-19047619D01*
X34602381Y-19142857D01*
X34602381Y-19309524D01*
X34578572Y-19404762D01*
X34530953Y-19452381D01*
X34483334Y-19476190D01*
X34388096Y-19476190D01*
X34340477Y-19452381D01*
X34292858Y-19404762D01*
X34269048Y-19309524D01*
X34269048Y-19142857D01*
X34292858Y-19047619D01*
X34340477Y-19000000D01*
X34388096Y-18976190D01*
X34792858Y-19333333D02*
X35030953Y-19333333D01*
X34745239Y-19476190D02*
X34911906Y-18976190D01*
X35078572Y-19476190D01*
D10*
X32242858Y-15950000D02*
X32528572Y-15950000D01*
X32185715Y-16121429D02*
X32385715Y-15521429D01*
X32585715Y-16121429D01*
X32785715Y-15721429D02*
X32785715Y-16121429D01*
X32785715Y-15778571D02*
X32814287Y-15750000D01*
X32871429Y-15721429D01*
X32957144Y-15721429D01*
X33014287Y-15750000D01*
X33042858Y-15807143D01*
X33042858Y-16121429D01*
X33242858Y-15721429D02*
X33471429Y-15721429D01*
X33328572Y-15521429D02*
X33328572Y-16035714D01*
X33357144Y-16092857D01*
X33414286Y-16121429D01*
X33471429Y-16121429D01*
X33900001Y-16092857D02*
X33842858Y-16121429D01*
X33728572Y-16121429D01*
X33671429Y-16092857D01*
X33642858Y-16035714D01*
X33642858Y-15807143D01*
X33671429Y-15750000D01*
X33728572Y-15721429D01*
X33842858Y-15721429D01*
X33900001Y-15750000D01*
X33928572Y-15807143D01*
X33928572Y-15864286D01*
X33642858Y-15921429D01*
X34185715Y-15721429D02*
X34185715Y-16121429D01*
X34185715Y-15778571D02*
X34214287Y-15750000D01*
X34271429Y-15721429D01*
X34357144Y-15721429D01*
X34414287Y-15750000D01*
X34442858Y-15807143D01*
X34442858Y-16121429D01*
X34728572Y-15721429D02*
X34728572Y-16121429D01*
X34728572Y-15778571D02*
X34757144Y-15750000D01*
X34814286Y-15721429D01*
X34900001Y-15721429D01*
X34957144Y-15750000D01*
X34985715Y-15807143D01*
X34985715Y-16121429D01*
X35528572Y-16121429D02*
X35528572Y-15807143D01*
X35500001Y-15750000D01*
X35442858Y-15721429D01*
X35328572Y-15721429D01*
X35271429Y-15750000D01*
X35528572Y-16092857D02*
X35471429Y-16121429D01*
X35328572Y-16121429D01*
X35271429Y-16092857D01*
X35242858Y-16035714D01*
X35242858Y-15978571D01*
X35271429Y-15921429D01*
X35328572Y-15892857D01*
X35471429Y-15892857D01*
X35528572Y-15864286D01*
X36271429Y-16121429D02*
X36271429Y-15521429D01*
X36614286Y-16121429D01*
X36614286Y-15521429D01*
X36985714Y-16121429D02*
X36928572Y-16092857D01*
X36900000Y-16064286D01*
X36871429Y-16007143D01*
X36871429Y-15835714D01*
X36900000Y-15778571D01*
X36928572Y-15750000D01*
X36985714Y-15721429D01*
X37071429Y-15721429D01*
X37128572Y-15750000D01*
X37157143Y-15778571D01*
X37185714Y-15835714D01*
X37185714Y-16007143D01*
X37157143Y-16064286D01*
X37128572Y-16092857D01*
X37071429Y-16121429D01*
X36985714Y-16121429D01*
X38242857Y-16064286D02*
X38214286Y-16092857D01*
X38128572Y-16121429D01*
X38071429Y-16121429D01*
X37985714Y-16092857D01*
X37928572Y-16035714D01*
X37900000Y-15978571D01*
X37871429Y-15864286D01*
X37871429Y-15778571D01*
X37900000Y-15664286D01*
X37928572Y-15607143D01*
X37985714Y-15550000D01*
X38071429Y-15521429D01*
X38128572Y-15521429D01*
X38214286Y-15550000D01*
X38242857Y-15578571D01*
X38585714Y-16121429D02*
X38528572Y-16092857D01*
X38500000Y-16064286D01*
X38471429Y-16007143D01*
X38471429Y-15835714D01*
X38500000Y-15778571D01*
X38528572Y-15750000D01*
X38585714Y-15721429D01*
X38671429Y-15721429D01*
X38728572Y-15750000D01*
X38757143Y-15778571D01*
X38785714Y-15835714D01*
X38785714Y-16007143D01*
X38757143Y-16064286D01*
X38728572Y-16092857D01*
X38671429Y-16121429D01*
X38585714Y-16121429D01*
X39042857Y-15721429D02*
X39042857Y-16321429D01*
X39042857Y-15750000D02*
X39100000Y-15721429D01*
X39214286Y-15721429D01*
X39271429Y-15750000D01*
X39300000Y-15778571D01*
X39328571Y-15835714D01*
X39328571Y-16007143D01*
X39300000Y-16064286D01*
X39271429Y-16092857D01*
X39214286Y-16121429D01*
X39100000Y-16121429D01*
X39042857Y-16092857D01*
X39585714Y-15721429D02*
X39585714Y-16321429D01*
X39585714Y-15750000D02*
X39642857Y-15721429D01*
X39757143Y-15721429D01*
X39814286Y-15750000D01*
X39842857Y-15778571D01*
X39871428Y-15835714D01*
X39871428Y-16007143D01*
X39842857Y-16064286D01*
X39814286Y-16092857D01*
X39757143Y-16121429D01*
X39642857Y-16121429D01*
X39585714Y-16092857D01*
X40357143Y-16092857D02*
X40300000Y-16121429D01*
X40185714Y-16121429D01*
X40128571Y-16092857D01*
X40100000Y-16035714D01*
X40100000Y-15807143D01*
X40128571Y-15750000D01*
X40185714Y-15721429D01*
X40300000Y-15721429D01*
X40357143Y-15750000D01*
X40385714Y-15807143D01*
X40385714Y-15864286D01*
X40100000Y-15921429D01*
X40642857Y-16121429D02*
X40642857Y-15721429D01*
X40642857Y-15835714D02*
X40671429Y-15778571D01*
X40700000Y-15750000D01*
X40757143Y-15721429D01*
X40814286Y-15721429D01*
%LPC*%
D13*
X28000000Y-34000000D03*
D14*
X28000000Y-32750000D03*
X28000000Y-31500000D03*
D13*
X31750000Y-38500000D03*
D14*
X31750000Y-37250000D03*
X31750000Y-36000000D03*
D13*
X28000000Y-38500000D03*
D14*
X28000000Y-37250000D03*
D15*
X34040000Y-38600000D03*
X44200000Y-38600000D03*
X42930000Y-38600000D03*
X41660000Y-38600000D03*
X40390000Y-38600000D03*
X39120000Y-38600000D03*
X37850000Y-38600000D03*
X36580000Y-38600000D03*
X35310000Y-38600000D03*
D13*
X37500000Y-35000000D03*
D14*
X36250000Y-35000000D03*
X35000000Y-35000000D03*
D13*
X43250000Y-35000000D03*
D14*
X42000000Y-35000000D03*
X40750000Y-35000000D03*
D16*
X44100000Y-23340000D03*
X44100000Y-24610000D03*
X44100000Y-25880000D03*
X44100000Y-27150000D03*
X44100000Y-28420000D03*
X44100000Y-29690000D03*
X44100000Y-30960000D03*
X44100000Y-32230000D03*
D17*
X30750000Y-33000000D03*
D18*
X31000000Y-30500000D03*
X31000000Y-29300000D03*
X31000000Y-28100000D03*
X31000000Y-26900000D03*
X31000000Y-25700000D03*
X31000000Y-24500000D03*
X31000000Y-23300000D03*
X31000000Y-22100000D03*
X42000000Y-22100000D03*
X42000000Y-23300000D03*
X42000000Y-24500000D03*
X42000000Y-25700000D03*
X42000000Y-26900000D03*
X42000000Y-28100000D03*
X42000000Y-29300000D03*
X42000000Y-30500000D03*
D19*
X33500000Y-32750000D03*
X34700000Y-32750000D03*
X35900000Y-32750000D03*
X37100000Y-32750000D03*
X38300000Y-32750000D03*
X39500000Y-32750000D03*
D17*
X42250000Y-33000000D03*
D20*
X26925000Y-23500000D03*
X26925000Y-26500000D03*
D21*
X28675000Y-22750000D03*
X28675000Y-25750000D03*
X28675000Y-27250000D03*
D22*
X25825000Y-21350000D03*
X25825000Y-28650000D03*
X28025000Y-28650000D03*
X28025000Y-21350000D03*
D23*
X28750000Y-24885000D03*
X28750000Y-23615000D03*
M02*
