%FSLAX44Y44*%
%MOMM*%
G71*
G01*
G75*
G04 Layer_Physical_Order=4*
G04 Layer_Color=16711680*
%ADD10R,0.5500X0.6000*%
%ADD11R,0.8000X0.8000*%
%ADD12R,0.6000X0.5500*%
%ADD13R,1.4000X1.1500*%
%ADD14R,1.5000X0.3000*%
%ADD15R,0.3000X1.5000*%
G04:AMPARAMS|DCode=16|XSize=1.5mm|YSize=0.3mm|CornerRadius=0mm|HoleSize=0mm|Usage=FLASHONLY|Rotation=90.000|XOffset=0mm|YOffset=0mm|HoleType=Round|Shape=Octagon|*
%AMOCTAGOND16*
4,1,8,0.0750,0.7500,-0.0750,0.7500,-0.1500,0.6750,-0.1500,-0.6750,-0.0750,-0.7500,0.0750,-0.7500,0.1500,-0.6750,0.1500,0.6750,0.0750,0.7500,0.0*
%
%ADD16OCTAGOND16*%

%ADD17C,0.2000*%
%ADD18C,0.5000*%
%ADD19C,0.2540*%
%ADD20C,0.3000*%
%ADD21C,0.2032*%
%ADD22C,0.3048*%
%ADD23C,0.1778*%
%ADD24C,0.3500*%
%ADD25C,0.1800*%
%ADD26R,1.0160X1.5240*%
%ADD27O,1.0160X1.5240*%
%ADD28O,1.5240X1.0160*%
%ADD29R,1.5240X1.0160*%
G04:AMPARAMS|DCode=30|XSize=1.016mm|YSize=1.524mm|CornerRadius=0mm|HoleSize=0mm|Usage=FLASHONLY|Rotation=90.000|XOffset=0mm|YOffset=0mm|HoleType=Round|Shape=Octagon|*
%AMOCTAGOND30*
4,1,8,-0.7620,-0.2540,-0.7620,0.2540,-0.5080,0.5080,0.5080,0.5080,0.7620,0.2540,0.7620,-0.2540,0.5080,-0.5080,-0.5080,-0.5080,-0.7620,-0.2540,0.0*
%
%ADD30OCTAGOND30*%

%ADD31C,0.8000*%
%ADD32C,1.5000*%
%ADD33C,1.0160*%
%ADD34C,1.0000*%
%ADD35C,1.6160*%
%ADD36C,1.4160*%
%ADD37C,2.0160*%
%ADD38R,0.9500X0.9500*%
%ADD39R,1.3000X0.5000*%
%ADD40R,0.5000X1.1000*%
%ADD41R,0.9500X0.9500*%
%ADD42R,0.8000X1.2000*%
%ADD43P,1.3435X4X270.0*%
%ADD44R,0.6000X1.2000*%
G04:AMPARAMS|DCode=45|XSize=0.55mm|YSize=0.6mm|CornerRadius=0mm|HoleSize=0mm|Usage=FLASHONLY|Rotation=135.000|XOffset=0mm|YOffset=0mm|HoleType=Round|Shape=Rectangle|*
%AMROTATEDRECTD45*
4,1,4,0.4066,0.0177,-0.0177,-0.4066,-0.4066,-0.0177,0.0177,0.4066,0.4066,0.0177,0.0*
%
%ADD45ROTATEDRECTD45*%

G04:AMPARAMS|DCode=46|XSize=0.55mm|YSize=0.6mm|CornerRadius=0mm|HoleSize=0mm|Usage=FLASHONLY|Rotation=45.000|XOffset=0mm|YOffset=0mm|HoleType=Round|Shape=Rectangle|*
%AMROTATEDRECTD46*
4,1,4,0.0177,-0.4066,-0.4066,0.0177,-0.0177,0.4066,0.4066,-0.0177,0.0177,-0.4066,0.0*
%
%ADD46ROTATEDRECTD46*%

%ADD47R,1.1000X0.6500*%
G04:AMPARAMS|DCode=48|XSize=0.3454mm|YSize=0.7238mm|CornerRadius=0mm|HoleSize=0mm|Usage=FLASHONLY|Rotation=225.000|XOffset=0mm|YOffset=0mm|HoleType=Round|Shape=Octagon|*
%AMOCTAGOND48*
4,1,8,0.3170,-0.1948,0.1948,-0.3170,0.0727,-0.3170,-0.3170,0.0727,-0.3170,0.1948,-0.1948,0.3170,-0.0727,0.3170,0.3170,-0.0727,0.3170,-0.1948,0.0*
%
%ADD48OCTAGOND48*%

G04:AMPARAMS|DCode=49|XSize=0.3454mm|YSize=0.8mm|CornerRadius=0mm|HoleSize=0mm|Usage=FLASHONLY|Rotation=225.000|XOffset=0mm|YOffset=0mm|HoleType=Round|Shape=Rectangle|*
%AMROTATEDRECTD49*
4,1,4,-0.1607,0.4050,0.4050,-0.1607,0.1607,-0.4050,-0.4050,0.1607,-0.1607,0.4050,0.0*
%
%ADD49ROTATEDRECTD49*%

G04:AMPARAMS|DCode=50|XSize=0.3454mm|YSize=0.8mm|CornerRadius=0mm|HoleSize=0mm|Usage=FLASHONLY|Rotation=135.000|XOffset=0mm|YOffset=0mm|HoleType=Round|Shape=Rectangle|*
%AMROTATEDRECTD50*
4,1,4,0.4050,0.1607,-0.1607,-0.4050,-0.4050,-0.1607,0.1607,0.4050,0.4050,0.1607,0.0*
%
%ADD50ROTATEDRECTD50*%

G04:AMPARAMS|DCode=51|XSize=0.3454mm|YSize=0.8mm|CornerRadius=0mm|HoleSize=0mm|Usage=FLASHONLY|Rotation=135.000|XOffset=0mm|YOffset=0mm|HoleType=Round|Shape=Octagon|*
%AMOCTAGOND51*
4,1,8,-0.2218,-0.3439,-0.3439,-0.2218,-0.3439,-0.0997,0.0997,0.3439,0.2218,0.3439,0.3439,0.2218,0.3439,0.0997,-0.0997,-0.3439,-0.2218,-0.3439,0.0*
%
%ADD51OCTAGOND51*%

G04:AMPARAMS|DCode=52|XSize=0.3454mm|YSize=0.7238mm|CornerRadius=0mm|HoleSize=0mm|Usage=FLASHONLY|Rotation=135.000|XOffset=0mm|YOffset=0mm|HoleType=Round|Shape=Octagon|*
%AMOCTAGOND52*
4,1,8,-0.1948,-0.3170,-0.3170,-0.1948,-0.3170,-0.0727,0.0727,0.3170,0.1948,0.3170,0.3170,0.1948,0.3170,0.0727,-0.0727,-0.3170,-0.1948,-0.3170,0.0*
%
%ADD52OCTAGOND52*%

%ADD53C,0.1700*%
G36*
X-65304Y-68808D02*
X-65125Y-69710D01*
X-63909Y-71529D01*
X-62090Y-72745D01*
X-61188Y-72924D01*
X-60452Y-73660D01*
X-67765Y-81321D01*
X-67558Y-81528D01*
Y-86862D01*
X-66260Y-88160D01*
X-66141Y-88760D01*
X-66034Y-88920D01*
Y-99308D01*
X-69336Y-102610D01*
X-73935D01*
X-87418Y-89127D01*
Y-85344D01*
Y-74972D01*
X-77216Y-64770D01*
X-69342D01*
X-65304Y-68808D01*
D02*
G37*
G36*
X83566Y78740D02*
X93526Y68780D01*
Y57150D01*
X55350D01*
X52500Y60000D01*
X52578Y66040D01*
X68580Y82042D01*
X80264D01*
X83566Y78740D01*
D02*
G37*
D10*
X-15996Y49214D02*
D03*
Y40714D02*
D03*
X52838Y8320D02*
D03*
Y-180D02*
D03*
X60712Y8320D02*
D03*
Y-180D02*
D03*
X-15996Y26744D02*
D03*
Y35244D02*
D03*
X53600Y-37518D02*
D03*
Y-29018D02*
D03*
D12*
X-53018Y68580D02*
D03*
X-44518D02*
D03*
X-25716Y-55112D02*
D03*
X-34216D02*
D03*
X-55044Y-6344D02*
D03*
X-46544D02*
D03*
X-37908Y2292D02*
D03*
X-46408D02*
D03*
X-9460Y-55112D02*
D03*
X-17960D02*
D03*
X-688Y-34538D02*
D03*
X7812D02*
D03*
X-6920Y79000D02*
D03*
X-15420D02*
D03*
D17*
X-34544Y-56964D02*
X-34470Y-56890D01*
X-34544Y-59944D02*
Y-56964D01*
X-40786Y-66186D02*
X-34544Y-59944D01*
X-20568Y-44952D02*
X-9646D01*
X-25970Y-50354D02*
X-20568Y-44952D01*
X-25970Y-56890D02*
Y-50354D01*
X-6090Y-74278D02*
Y-58934D01*
X-8134Y-56890D02*
X-6090Y-58934D01*
X-9714Y-56890D02*
X-8134D01*
X-59944Y-67564D02*
X-43090D01*
X-60088Y48750D02*
Y63102D01*
Y48750D02*
X-59682Y48344D01*
X-60088Y63102D02*
X-53848Y69342D01*
X-44518Y60072D02*
Y68580D01*
X67500Y107500D02*
X67500D01*
X67500D02*
X67500D01*
X-26812Y49214D02*
X-15996D01*
X-17774Y60712D02*
X-16250Y59188D01*
Y50552D02*
Y59188D01*
Y50552D02*
X-10492Y44794D01*
Y31463D02*
Y44794D01*
X-13755Y28200D02*
X-10492Y31463D01*
X-18458Y28200D02*
X-13755D01*
X-20314Y26344D02*
X-18458Y28200D01*
X-6992Y30013D02*
Y36950D01*
X-8772Y28232D02*
X-6992Y30013D01*
X-8772Y22509D02*
Y28232D01*
X-35554Y14484D02*
Y24390D01*
X-37840Y12198D02*
X-35554Y14484D01*
X-37840Y2672D02*
Y12198D01*
Y2672D02*
X-37206Y2038D01*
X-78734Y37136D02*
X-77002D01*
X-67304Y27438D01*
Y7626D02*
Y27438D01*
Y7626D02*
X-66542Y6864D01*
X-27682Y48344D02*
Y52444D01*
Y26344D02*
X-19122D01*
X-17774Y22612D02*
X-16758Y23628D01*
X-14472Y23882D02*
Y27506D01*
X-14726Y23628D02*
X-14472Y23882D01*
X-16758Y23628D02*
X-14726D01*
X-23362Y26344D02*
X-20646Y23628D01*
X-18790D01*
X-17774Y22612D01*
X-6992Y36950D02*
X-2280Y41662D01*
X2292D01*
X-8772Y22509D02*
X-6369Y20105D01*
X-43555Y77857D02*
X-40253D01*
X-49524Y83826D02*
X-43555Y77857D01*
X-68574Y83826D02*
X-49524D01*
X-77764Y74636D02*
X-68574Y83826D01*
X-79750Y74636D02*
X-77764D01*
X17575Y-27637D02*
X23714Y-33776D01*
X14166Y-7550D02*
Y6928D01*
Y-7550D02*
X18330Y-11714D01*
X18380D01*
X8261Y34677D02*
X14484Y40900D01*
X6737Y34677D02*
X8261D01*
X4832Y32772D02*
X6737Y34677D01*
X-1518Y32772D02*
X4832D01*
X11066Y85720D02*
X16516Y80270D01*
X39884Y26168D02*
Y42932D01*
X35814Y22098D02*
X39884Y26168D01*
X20580D02*
X21088Y26676D01*
X10674Y26168D02*
X20580D01*
X8416Y23910D02*
X10674Y26168D01*
X8043Y23910D02*
X8416D01*
X35312Y4174D02*
X36732Y5594D01*
X35312Y-5836D02*
Y4174D01*
X28962Y-12186D02*
X35312Y-5836D01*
X25923Y-12186D02*
X28962D01*
X21916Y-8179D02*
X25923Y-12186D01*
X-4058Y24644D02*
X-1579Y27123D01*
X-37332Y39250D02*
X-35682Y40900D01*
X-46408Y-11746D02*
Y2292D01*
Y-11746D02*
X-41142Y-17012D01*
X-53588Y54870D02*
X-51682Y52964D01*
X-53588Y54870D02*
Y59950D01*
X-44396D02*
X-43682D01*
X-35682Y48344D02*
Y58230D01*
X-37588Y37344D02*
X-35682Y39250D01*
X-45714Y37344D02*
X-43682Y39376D01*
X-53586Y37344D02*
X-51682Y39248D01*
X-49778Y37344D01*
X-51682Y39248D02*
Y48344D01*
X-43682Y39376D02*
X-41650Y37344D01*
X-43682Y39376D02*
Y48344D01*
X-35682Y39250D02*
X-33776Y37344D01*
X-35682Y39250D02*
Y48344D01*
X-63682Y37344D02*
X-23682D01*
X-43936Y16770D02*
Y24644D01*
X-55044Y5662D02*
X-43936Y16770D01*
X-55044Y-6344D02*
Y5662D01*
X-64904Y-16204D02*
X-55044Y-6344D01*
X-79750Y-16204D02*
X-64904D01*
X-37840Y-6344D02*
Y2224D01*
X44456Y8642D02*
X60644D01*
X44964Y-18790D02*
X56140D01*
X74736Y-37386D01*
X43508Y-942D02*
X60712D01*
X74736Y-37386D02*
X85858D01*
X44964Y-28696D02*
X53532D01*
X44964Y-38348D02*
X53786D01*
X-2534Y13468D02*
X1657Y9277D01*
X-2534Y13468D02*
Y16271D01*
X-6369Y20105D02*
X-2534Y16271D01*
X38614Y41662D02*
Y63662D01*
X2292Y65284D02*
Y78484D01*
X-1579Y27123D02*
Y32203D01*
X72690Y15714D02*
X72904Y15500D01*
X72690Y15714D02*
Y28338D01*
X82050Y37698D01*
X82810D01*
X-5836Y78492D02*
X4762D01*
X11066Y85720D02*
Y88260D01*
X59978Y-70606D02*
Y-58132D01*
X-18034Y-64516D02*
Y-56750D01*
X-1264Y-45206D02*
X11944Y-58414D01*
X24124D01*
X28194Y-62484D01*
Y-68822D02*
Y-62484D01*
Y-68822D02*
X29978Y-70606D01*
X8134Y-44952D02*
X16008Y-52826D01*
X31490D01*
X38100Y-59436D01*
Y-68728D02*
Y-59436D01*
Y-68728D02*
X39978Y-70606D01*
X19310Y-45714D02*
X34792D01*
X48260Y-59182D01*
Y-68888D02*
Y-59182D01*
Y-68888D02*
X49978Y-70606D01*
X67564Y49276D02*
X57567D01*
X60900Y45944D01*
X57567Y42611D01*
X67564D01*
X60900Y39279D02*
X67564Y32615D01*
X64232Y35947D01*
X60900Y32615D01*
X67564Y39279D01*
Y29282D02*
Y25950D01*
Y27616D01*
X57567D01*
X59233Y29282D01*
D18*
X-63240Y-75686D02*
X2800D01*
X-71876Y-84322D02*
X-63240Y-75686D01*
X-33268Y-92820D02*
X-29320Y-96768D01*
X-33268Y-92820D02*
Y-80004D01*
Y-75940D01*
Y-80004D02*
Y-78988D01*
X-29966Y-75686D01*
X-52420Y-85186D02*
X-43744D01*
X-59376Y-92142D02*
X-52420Y-85186D01*
X-20760D02*
X-11576D01*
X-6852Y-89910D01*
X5086D01*
X-43820Y-96768D02*
Y-85262D01*
X-71876Y-94482D02*
Y-84322D01*
X2800Y-75686D02*
X5340Y-73146D01*
X-55880Y-96774D02*
X-44704D01*
D19*
X-34030Y-18282D02*
X-30474Y-14726D01*
X-34030Y-24378D02*
Y-18282D01*
X-65278Y-37338D02*
X-55372D01*
X-68332Y-34284D02*
X-65278Y-37338D01*
X-22600Y84588D02*
X-15996Y77984D01*
X-22700Y89822D02*
X-22600Y89722D01*
Y84588D02*
Y89722D01*
X-16574Y-36062D02*
X-12694Y-32182D01*
X-24539Y-36062D02*
X-16574D01*
X-26109Y-37633D02*
X-24539Y-36062D01*
X-54858Y-36178D02*
X-43688D01*
X-75178Y-34284D02*
X-68332D01*
X-67304Y-51556D02*
X-42666D01*
X-30372Y-14504D02*
X-20511Y-4643D01*
X-30372Y-14504D02*
X-26786Y-18089D01*
X-12694Y-32182D02*
X-2833Y-22321D01*
X-16533Y-28342D02*
X-12694Y-32182D01*
X-30431Y4789D02*
Y10971D01*
Y4789D02*
X-20999Y-4643D01*
X-20511D01*
X-24439Y16963D02*
X-16976Y9499D01*
X14844Y-15250D02*
X21240Y-21646D01*
X11309Y-18786D02*
X17664Y-25140D01*
X-8376Y-34538D02*
X-688D01*
X-11653Y-31261D02*
X-8376Y-34538D01*
X-11774Y-31261D02*
X-11653D01*
X15500Y66046D02*
Y78122D01*
X14684Y65538D02*
X27184D01*
D21*
X-12186Y514D02*
X-1010Y-10662D01*
Y-13538D02*
Y-10662D01*
Y-13538D02*
X7773Y-22321D01*
X7812Y-28510D02*
X9658Y-26664D01*
Y-24206D01*
X7812Y-34538D02*
Y-28510D01*
D26*
X-59382Y-94996D02*
D03*
X59650Y93986D02*
D03*
X-10200D02*
D03*
X72858Y-93212D02*
D03*
D27*
X-71882Y-94996D02*
D03*
X22150Y93986D02*
D03*
X34650D02*
D03*
X47150D02*
D03*
X-22700D02*
D03*
X-35200D02*
D03*
X-47700D02*
D03*
X35358Y-93212D02*
D03*
X47858D02*
D03*
X60358D02*
D03*
D28*
X-79750Y21296D02*
D03*
Y8796D02*
D03*
Y-3704D02*
D03*
X85858Y114D02*
D03*
X85858Y-12386D02*
D03*
X85858Y-24886D02*
D03*
X85858Y-37386D02*
D03*
Y-49886D02*
D03*
Y-62386D02*
D03*
Y25198D02*
D03*
Y37698D02*
D03*
Y50198D02*
D03*
X-79750Y74636D02*
D03*
Y62136D02*
D03*
Y49636D02*
D03*
D29*
Y-16204D02*
D03*
X85858Y12614D02*
D03*
Y62698D02*
D03*
D30*
X-79750Y37136D02*
D03*
D31*
X-59944Y-67564D02*
D03*
X-66548Y-51308D02*
D03*
X-54604Y-88386D02*
D03*
X-60960Y-86614D02*
D03*
X-51810Y-76194D02*
D03*
X-30474Y-14726D02*
D03*
X-41910Y-36068D02*
D03*
X36322Y21590D02*
D03*
X-79756Y-92710D02*
D03*
X-17774Y22612D02*
D03*
X-248Y32264D02*
D03*
X35312Y4578D02*
D03*
X48520Y44456D02*
D03*
X-41142Y-17012D02*
D03*
X-35808Y37344D02*
D03*
X-37840Y-6344D02*
D03*
X-52826Y76968D02*
D03*
X-43174Y77222D02*
D03*
X-10154Y-44952D02*
D03*
X44710Y-28696D02*
D03*
X44964Y-18790D02*
D03*
X44456Y8642D02*
D03*
X43440Y-1010D02*
D03*
X4578Y-99562D02*
D03*
X-51810Y-94482D02*
D03*
X-12694Y-32182D02*
D03*
X27184Y35058D02*
D03*
X1530Y9658D02*
D03*
X-67304Y4832D02*
D03*
X5086Y-89910D02*
D03*
X58680Y61220D02*
D03*
X-75178Y-34284D02*
D03*
X-43682Y59950D02*
D03*
X-53588D02*
D03*
X8642Y-72892D02*
D03*
X-42666Y-51556D02*
D03*
X44710Y-38602D02*
D03*
X69348Y62284D02*
D03*
X-12186Y514D02*
D03*
X24136Y-33776D02*
D03*
X19818Y25660D02*
D03*
X72650Y16516D02*
D03*
X11182Y90176D02*
D03*
X-502Y-45206D02*
D03*
X9658D02*
D03*
X19310Y-45714D02*
D03*
X59978Y-58132D02*
D03*
X-74930Y-87376D02*
D03*
D32*
X72500Y-72500D02*
D03*
X-72500D02*
D03*
X72500Y72500D02*
D03*
D38*
X-33152Y61474D02*
D03*
X-18652D02*
D03*
X3678Y79000D02*
D03*
X18178D02*
D03*
X-29320Y-97784D02*
D03*
X-43820D02*
D03*
D39*
X-63682Y37344D02*
D03*
X-23682D02*
D03*
D40*
X-43682Y48344D02*
D03*
X-35682D02*
D03*
X-27682D02*
D03*
X-51682D02*
D03*
X-59682D02*
D03*
Y26344D02*
D03*
X-51682D02*
D03*
X-27682D02*
D03*
X-35682D02*
D03*
X-43682D02*
D03*
D41*
X-6090Y-74278D02*
D03*
Y-88778D02*
D03*
X-55366Y-51694D02*
D03*
Y-37194D02*
D03*
D42*
X28194Y-70866D02*
D03*
X38194D02*
D03*
X48194D02*
D03*
X58194D02*
D03*
D43*
X-24332Y-36363D02*
D03*
X-34585Y-26109D02*
D03*
D44*
X39838Y65870D02*
D03*
X27338D02*
D03*
X14838D02*
D03*
X2338D02*
D03*
Y43870D02*
D03*
X14838D02*
D03*
X39838D02*
D03*
X27338D02*
D03*
D45*
X17575Y-27637D02*
D03*
X23585Y-21627D02*
D03*
X-30177Y9701D02*
D03*
X-24167Y15711D02*
D03*
D46*
X-24335Y-20357D02*
D03*
X-18325Y-26367D02*
D03*
D47*
X-43744Y-85186D02*
D03*
Y-75686D02*
D03*
Y-66186D02*
D03*
X-19744D02*
D03*
Y-85186D02*
D03*
D48*
X-3103Y23910D02*
D03*
D49*
X-6369Y20105D02*
D03*
X-9904Y16570D02*
D03*
X-13440Y13034D02*
D03*
X-16976Y9499D02*
D03*
X-20511Y5963D02*
D03*
X7773Y-22321D02*
D03*
X11309Y-18786D02*
D03*
X14844Y-15250D02*
D03*
X18380Y-11714D02*
D03*
X21916Y-8179D02*
D03*
X25451Y-4643D02*
D03*
D50*
X-20511D02*
D03*
X-16976Y-8179D02*
D03*
X-13440Y-11714D02*
D03*
X-9904Y-15250D02*
D03*
X-6369Y-18786D02*
D03*
X-2833Y-22321D02*
D03*
X25451Y5963D02*
D03*
X21916Y9499D02*
D03*
X18380Y13034D02*
D03*
X14844Y16570D02*
D03*
D51*
X11309Y20105D02*
D03*
D52*
X8043Y23910D02*
D03*
D53*
X17532Y34550D02*
X27184D01*
X13214Y30232D02*
X17532Y34550D01*
X7118Y30232D02*
X13214D01*
X2470Y25584D02*
X7118Y30232D01*
X2470Y18624D02*
Y25584D01*
Y18624D02*
X14166Y6928D01*
M02*
