%FSLAX44Y44*%
%MOMM*%
G71*
G01*
G75*
G04 Layer_Physical_Order=1*
G04 Layer_Color=255*
%ADD10R,0.5500X0.6000*%
%ADD11R,0.8000X0.8000*%
%ADD12R,0.6000X0.5500*%
%ADD13R,1.4000X1.1500*%
%ADD14R,1.5000X0.3000*%
%ADD15R,0.3000X1.5000*%
G04:AMPARAMS|DCode=16|XSize=1.5mm|YSize=0.3mm|CornerRadius=0mm|HoleSize=0mm|Usage=FLASHONLY|Rotation=90.000|XOffset=0mm|YOffset=0mm|HoleType=Round|Shape=Octagon|*
%AMOCTAGOND16*
4,1,8,0.0750,0.7500,-0.0750,0.7500,-0.1500,0.6750,-0.1500,-0.6750,-0.0750,-0.7500,0.0750,-0.7500,0.1500,-0.6750,0.1500,0.6750,0.0750,0.7500,0.0*
%
%ADD16OCTAGOND16*%

%ADD17C,0.2000*%
%ADD18C,0.5000*%
%ADD19C,0.2540*%
%ADD20C,0.3000*%
%ADD21C,0.2032*%
%ADD22C,0.3048*%
%ADD23C,0.1778*%
%ADD24C,0.3500*%
%ADD25C,0.1800*%
%ADD26R,1.0160X1.5240*%
%ADD27O,1.0160X1.5240*%
%ADD28O,1.5240X1.0160*%
%ADD29R,1.5240X1.0160*%
G04:AMPARAMS|DCode=30|XSize=1.016mm|YSize=1.524mm|CornerRadius=0mm|HoleSize=0mm|Usage=FLASHONLY|Rotation=90.000|XOffset=0mm|YOffset=0mm|HoleType=Round|Shape=Octagon|*
%AMOCTAGOND30*
4,1,8,-0.7620,-0.2540,-0.7620,0.2540,-0.5080,0.5080,0.5080,0.5080,0.7620,0.2540,0.7620,-0.2540,0.5080,-0.5080,-0.5080,-0.5080,-0.7620,-0.2540,0.0*
%
%ADD30OCTAGOND30*%

%ADD31C,0.8000*%
%ADD32C,1.5000*%
G36*
X-66394Y-85740D02*
X-66568Y-86614D01*
X-66288Y-88020D01*
Y-97784D01*
Y-99816D01*
X-69130Y-102658D01*
X-73887D01*
X-87418Y-89127D01*
Y-81528D01*
X-70606D01*
X-66394Y-85740D01*
D02*
G37*
G36*
X93472Y68072D02*
Y57404D01*
X76962D01*
X71882Y52324D01*
X69596Y50038D01*
X64516D01*
Y53594D01*
X64008Y54102D01*
X63500Y54610D01*
X61976D01*
X60452Y53086D01*
X57658D01*
X55880Y54864D01*
X52324Y58420D01*
Y63754D01*
X69088Y80518D01*
X81026D01*
X93472Y68072D01*
D02*
G37*
D10*
X-63754Y48328D02*
D03*
Y56828D02*
D03*
X66554Y44524D02*
D03*
Y53024D02*
D03*
X14992Y-88962D02*
D03*
Y-97462D02*
D03*
X-3550Y-90994D02*
D03*
Y-99494D02*
D03*
X58680Y44524D02*
D03*
Y53024D02*
D03*
X73158Y-30542D02*
D03*
Y-39042D02*
D03*
X-67304Y-42344D02*
D03*
Y-33844D02*
D03*
D11*
X-63754Y85974D02*
D03*
X-63754Y69474D02*
D03*
X-83312Y-34422D02*
D03*
X-83312Y-50922D02*
D03*
D12*
X-83752Y-59182D02*
D03*
X-75252D02*
D03*
X25338Y-80004D02*
D03*
X16838D02*
D03*
X-44004Y68586D02*
D03*
X-52504D02*
D03*
X-67372Y-25648D02*
D03*
X-75872D02*
D03*
X4002Y-81528D02*
D03*
X-4498D02*
D03*
X-43750Y52076D02*
D03*
X-52250D02*
D03*
X-42734Y-59684D02*
D03*
X-51234D02*
D03*
Y-67812D02*
D03*
X-42734D02*
D03*
X25338Y-72384D02*
D03*
X16838D02*
D03*
X-4498Y-73146D02*
D03*
X4002D02*
D03*
D13*
X-17188Y-96640D02*
D03*
X-39188D02*
D03*
Y-80640D02*
D03*
X-17188D02*
D03*
D14*
X-54960Y24794D02*
D03*
X-54960Y-30206D02*
D03*
Y-20206D02*
D03*
Y-25206D02*
D03*
X59040Y-10206D02*
D03*
Y-25206D02*
D03*
X59040Y-30206D02*
D03*
X-54960Y4794D02*
D03*
X59040Y4794D02*
D03*
X59040Y24794D02*
D03*
X59040Y14794D02*
D03*
X-54960Y14794D02*
D03*
X59040Y19794D02*
D03*
Y-15206D02*
D03*
Y-5206D02*
D03*
X59040Y-206D02*
D03*
X59040Y9794D02*
D03*
X59040Y29794D02*
D03*
Y34794D02*
D03*
X-54960Y29794D02*
D03*
X-54960Y19794D02*
D03*
X-54960Y-5206D02*
D03*
X-54960Y-206D02*
D03*
X-54960Y-40206D02*
D03*
X59040Y-20206D02*
D03*
X-54960Y9794D02*
D03*
Y-15206D02*
D03*
X-54960Y-10206D02*
D03*
Y34794D02*
D03*
X59040Y-35206D02*
D03*
X59040Y-40206D02*
D03*
X-54960Y-35206D02*
D03*
D15*
X-5460Y-59706D02*
D03*
X-15460Y54294D02*
D03*
X-20460Y54294D02*
D03*
X-5460Y54294D02*
D03*
X-460Y-59706D02*
D03*
X4540Y54294D02*
D03*
X19540Y54294D02*
D03*
X-25460Y-59706D02*
D03*
X-20460D02*
D03*
X-35460D02*
D03*
X19540D02*
D03*
X24540D02*
D03*
X9540D02*
D03*
X14540D02*
D03*
X-10460D02*
D03*
X34540D02*
D03*
X4540D02*
D03*
X-460Y54294D02*
D03*
X29540Y-59706D02*
D03*
X-35460Y54294D02*
D03*
X-15460Y-59706D02*
D03*
X-30460D02*
D03*
X-25460Y54294D02*
D03*
X-30460Y54294D02*
D03*
X34540Y54294D02*
D03*
X24540Y54294D02*
D03*
X29540D02*
D03*
X14540D02*
D03*
X9540D02*
D03*
X-10460D02*
D03*
D16*
X39540Y54294D02*
D03*
Y-59706D02*
D03*
D17*
X-54960Y-206D02*
X-47425D01*
X-38837Y8382D01*
X-10862D01*
X-5686Y3206D01*
Y-4162D02*
Y3206D01*
X-34544Y-33020D02*
X-5686Y-4162D01*
X-34544Y-38862D02*
Y-33020D01*
X-40132Y-44450D02*
X-34544Y-38862D01*
X-49784Y-44450D02*
X-40132D01*
X-64516Y-59182D02*
X-49784Y-44450D01*
X-75252Y-59182D02*
X-64516D01*
X-51234Y-67812D02*
Y-59684D01*
X-460Y42974D02*
Y54294D01*
X-3556Y39878D02*
X-460Y42974D01*
X-25654Y39878D02*
X-3556D01*
X-29972Y44196D02*
X-25654Y39878D01*
X-59622Y44196D02*
X-29972D01*
X-63754Y48328D02*
X-59622Y44196D01*
X12452Y32264D02*
X24540Y44352D01*
X-1772Y32264D02*
X12452D01*
X-61220Y76968D02*
X-52826D01*
X-63754Y79502D02*
X-61220Y76968D01*
X-63754Y79502D02*
Y85974D01*
X-63754Y56828D02*
Y69474D01*
X-25460Y54294D02*
Y66862D01*
X-31502Y72904D02*
X-25460Y66862D01*
X-38856Y72904D02*
X-31502D01*
X-43174Y77222D02*
X-38856Y72904D01*
X-83752Y-59182D02*
Y-51244D01*
X-756Y-14980D02*
X35814Y21590D01*
X-5836Y-14980D02*
X-756D01*
X-30460Y-39604D02*
X-5836Y-14980D01*
X-30460Y-59706D02*
Y-39604D01*
X34540Y54294D02*
X34550Y54284D01*
Y29470D02*
Y54284D01*
X1276Y9658D02*
X14738D01*
X34550Y29470D01*
X39540Y42768D02*
Y54294D01*
Y42768D02*
X43688Y38620D01*
Y19558D02*
Y38620D01*
X35312Y11182D02*
X43688Y19558D01*
X35312Y4578D02*
Y11182D01*
X24540Y44352D02*
Y54294D01*
X29540Y39446D02*
Y54294D01*
X26543Y36449D02*
X29540Y39446D01*
X43694Y-1518D02*
X47382Y-5206D01*
X43186Y-1518D02*
X43694D01*
X47382Y-5206D02*
X59040D01*
X39630Y-5074D02*
X43186Y-1518D01*
X29724Y-5074D02*
X39630D01*
X-10154Y-44952D02*
X29724Y-5074D01*
X-40380Y-7868D02*
X-38094D01*
X-42718Y-10206D02*
X-40380Y-7868D01*
X-54960Y-10206D02*
X-42718D01*
X-52318Y68586D02*
Y76074D01*
X14540Y54294D02*
Y69348D01*
X32010Y75952D02*
X47150Y91092D01*
X14540Y69348D02*
X21144Y75952D01*
X32010D01*
X24644Y81540D02*
X34650Y91546D01*
X19818Y81540D02*
X24644D01*
X9540Y71262D02*
X19818Y81540D01*
X9540Y69094D02*
Y71262D01*
Y54294D02*
Y69094D01*
X37852D02*
X59650Y90892D01*
X24644Y69094D02*
X37852D01*
X19540Y63990D02*
X24644Y69094D01*
X19540Y54294D02*
Y63990D01*
X-3550Y-99494D02*
X4510D01*
X5086Y-89910D02*
X9638Y-94462D01*
X11924D02*
X14924Y-97462D01*
X9638Y-94462D02*
X11924D01*
X47150Y93986D02*
Y94746D01*
X47858Y-97122D02*
Y-94228D01*
X44327Y-18028D02*
X51504Y-25206D01*
X59040D01*
X76860Y-20206D02*
X81540Y-24886D01*
X59040Y-15206D02*
X71278D01*
X74044Y-12440D01*
X83572D01*
X82302Y768D02*
X83064D01*
X71328Y-10206D02*
X82302Y768D01*
X59040Y-10206D02*
X71328D01*
X76968Y6610D02*
X79762Y9404D01*
X71888Y6610D02*
X76968D01*
X-48380Y-80640D02*
X-39442D01*
X-51234Y-77786D02*
X-48380Y-80640D01*
X-51816Y-77792D02*
Y-68326D01*
X-40888Y-68066D02*
X-39110Y-69844D01*
X8134Y-46984D02*
Y-44952D01*
X4540Y-50578D02*
X8134Y-46984D01*
X4540Y-59706D02*
Y-50578D01*
X-59944Y-94688D02*
Y-67310D01*
X-17442Y-96640D02*
X-6404D01*
X-3550Y-99494D01*
X-65550Y19794D02*
X-54960D01*
X-76548Y8796D02*
X-65550Y19794D01*
X-79750Y8796D02*
X-76548D01*
X-79750Y-3704D02*
X-70452D01*
X-63950Y-10206D01*
X-54960D01*
X-75786Y49636D02*
X-60944Y34794D01*
X-78734Y49636D02*
X-75786D01*
X-55332Y10166D02*
X-54960Y9794D01*
X68704Y9794D02*
X71888Y6610D01*
X59040Y9794D02*
X68704D01*
X4540Y54294D02*
Y69310D01*
X59040Y-15206D02*
X59464Y-14782D01*
X59040Y-25206D02*
X59204Y-25042D01*
X-42734Y-51624D02*
X-42666Y-51556D01*
X48520Y44456D02*
X58612D01*
X59040Y34794D02*
Y44164D01*
X-53080Y52076D02*
Y60780D01*
X-43428Y52076D02*
Y60390D01*
X-44166Y51822D02*
X-36062D01*
X17600Y-79750D02*
Y-72130D01*
X-66802Y-51054D02*
Y-42350D01*
X59040Y-25206D02*
X59554Y-25720D01*
X-66898Y4794D02*
X-57182D01*
X4540Y69310D02*
Y73374D01*
X22150Y90984D01*
X59040Y24794D02*
X81644D01*
X59040Y-20206D02*
X76860D01*
X59040Y19794D02*
X68610D01*
X72904Y15500D01*
X-78752Y-15206D02*
X-54960D01*
X-39110Y-69844D02*
X-31111D01*
X-28887Y-72067D01*
X-27212Y-73743D01*
X-28887Y-72067D02*
X-25537D01*
X5086Y-89910D02*
Y-82612D01*
X14992Y-88962D02*
X21782D01*
X26100Y-84644D01*
Y-72130D01*
X-460Y-59706D02*
Y-48804D01*
X-3042Y-46222D02*
X-460Y-48804D01*
X14540Y-59706D02*
Y-50484D01*
X19310Y-45714D01*
X59040Y-47102D02*
Y-40206D01*
Y-47102D02*
X67056Y-55118D01*
Y-62484D02*
Y-55118D01*
X61214Y-68326D02*
X67056Y-62484D01*
X61214Y-79502D02*
Y-68326D01*
Y-79502D02*
X72858Y-91146D01*
X29540Y-67241D02*
Y-59706D01*
Y-67241D02*
X31040Y-68741D01*
Y-78284D02*
Y-68741D01*
Y-78284D02*
X35358Y-82602D01*
Y-94228D02*
Y-82602D01*
X34540Y-76196D02*
Y-59706D01*
X47504Y-90418D02*
Y-89160D01*
X34540Y-76196D02*
X47504Y-89160D01*
X50998Y-83092D02*
X57761Y-89855D01*
X48040Y-83092D02*
X50998D01*
X39540Y-74592D02*
X48040Y-83092D01*
X39540Y-74592D02*
Y-59706D01*
X59240Y-91334D02*
X60358D01*
X57761Y-89855D02*
X59240Y-91334D01*
D18*
X-51810Y-97276D02*
Y-91180D01*
X-54604Y-88386D02*
X-51810Y-91180D01*
X-60960Y-86614D02*
X-56376D01*
X-54604Y-88386D01*
X-84074Y-34422D02*
X-75316D01*
X-54610Y-100076D02*
X-51810Y-97276D01*
D19*
X66554Y44524D02*
X69856Y41222D01*
Y32518D02*
Y41222D01*
X67132Y29794D02*
X69856Y32518D01*
X-30460Y54294D02*
Y63602D01*
X-35444Y68586D02*
X-30460Y63602D01*
X-44444Y68586D02*
X-35444D01*
X44202Y-26410D02*
X47998Y-30206D01*
X59040D01*
X-65882Y24794D02*
X-54960D01*
X-69842Y20834D02*
X-65882Y24794D01*
X-75940Y20834D02*
X-69842D01*
X-24329Y-70860D02*
X-18697D01*
X-15460Y-67623D02*
Y-59706D01*
X-18697Y-70860D02*
X-15460Y-67623D01*
X-10460Y-73960D02*
Y-59706D01*
X-11809Y-75309D02*
X-10460Y-73960D01*
X-15614Y-80640D02*
X-5260Y-90994D01*
X-17442Y-80640D02*
X-15614D01*
X-42734Y-59938D02*
Y-51624D01*
X-5460Y-82666D02*
Y-59706D01*
X8642Y-72892D02*
X17714D01*
X58680Y53024D02*
Y63808D01*
X24540Y-70580D02*
Y-59706D01*
X17714Y-72892D02*
X19540Y-71066D01*
Y-59706D01*
X-67614Y-35206D02*
X-54960D01*
X-68109Y-40605D02*
X-55359D01*
X-43046Y-59706D02*
X-35460D01*
X59040Y-30206D02*
X73158D01*
X-36756Y-94922D02*
X-27212Y-85378D01*
Y-73743D01*
X-24329Y-70860D01*
X66554Y53024D02*
X69348Y55818D01*
Y62284D01*
X70110Y63046D01*
D20*
X59040Y29794D02*
X67132D01*
D21*
X-46100Y-5206D02*
X-40380Y514D01*
X-12186D01*
X-54960Y-5206D02*
X-46100D01*
X-10460Y54294D02*
Y65070D01*
X-21844Y76454D02*
X-10460Y65070D01*
X-32512Y76454D02*
X-21844D01*
X-46996Y90938D02*
X-32512Y76454D01*
X-47492Y90938D02*
X-46996D01*
X-5460Y54294D02*
Y70230D01*
X-15748Y80518D02*
X-5460Y70230D01*
X-25146Y80518D02*
X-15748D01*
X-34792Y90164D02*
X-25146Y80518D01*
X-34792Y90164D02*
Y90176D01*
D22*
X49122Y-35206D02*
X59040D01*
X46742Y-37586D02*
X49122Y-35206D01*
X67316D02*
X69564Y-37453D01*
X59040Y-35206D02*
X67316D01*
X69564Y-37548D02*
X71864Y-39848D01*
X69564Y-37548D02*
Y-37453D01*
X71864Y-39848D02*
X72352D01*
D23*
X-67558Y-25394D02*
X-62414Y-20250D01*
X-55044D01*
D24*
X-75872Y-32710D02*
Y-25648D01*
X-74738Y-33844D02*
X-67304D01*
D25*
X51115Y-55878D02*
X52447Y-54545D01*
Y-51879D01*
X51115Y-50546D01*
X45783D01*
X44450Y-51879D01*
Y-54545D01*
X45783Y-55878D01*
X52447Y-58543D02*
X44450D01*
Y-62542D01*
X45783Y-63875D01*
X51115D01*
X52447Y-62542D01*
Y-58543D01*
Y-66541D02*
X44450D01*
X47116Y-69207D01*
X44450Y-71872D01*
X52447D01*
D26*
X-59382Y-94996D02*
D03*
X59650Y93986D02*
D03*
X-10200D02*
D03*
X72858Y-93212D02*
D03*
D27*
X-71882Y-94996D02*
D03*
X22150Y93986D02*
D03*
X34650D02*
D03*
X47150D02*
D03*
X-22700D02*
D03*
X-35200D02*
D03*
X-47700D02*
D03*
X35358Y-93212D02*
D03*
X47858D02*
D03*
X60358D02*
D03*
D28*
X-79750Y21296D02*
D03*
Y8796D02*
D03*
Y-3704D02*
D03*
X85858Y114D02*
D03*
X85858Y-12386D02*
D03*
X85858Y-24886D02*
D03*
X85858Y-37386D02*
D03*
Y-49886D02*
D03*
Y-62386D02*
D03*
Y25198D02*
D03*
Y37698D02*
D03*
Y50198D02*
D03*
X-79750Y74636D02*
D03*
Y62136D02*
D03*
Y49636D02*
D03*
D29*
Y-16204D02*
D03*
X85858Y12614D02*
D03*
Y62698D02*
D03*
D30*
X-79750Y37136D02*
D03*
D31*
X-59944Y-67564D02*
D03*
X-66548Y-51308D02*
D03*
X-54604Y-88386D02*
D03*
X-60960Y-86614D02*
D03*
X-51810Y-76194D02*
D03*
X-30474Y-14726D02*
D03*
X-41910Y-36068D02*
D03*
X36322Y21590D02*
D03*
X-79756Y-92710D02*
D03*
X-17774Y22612D02*
D03*
X-248Y32264D02*
D03*
X35312Y4578D02*
D03*
X48520Y44456D02*
D03*
X-41142Y-17012D02*
D03*
X-35808Y37344D02*
D03*
X-37840Y-6344D02*
D03*
X-52826Y76968D02*
D03*
X-43174Y77222D02*
D03*
X-10154Y-44952D02*
D03*
X44710Y-28696D02*
D03*
X44964Y-18790D02*
D03*
X44456Y8642D02*
D03*
X43440Y-1010D02*
D03*
X4578Y-99562D02*
D03*
X-51810Y-94482D02*
D03*
X-12694Y-32182D02*
D03*
X27184Y35058D02*
D03*
X1530Y9658D02*
D03*
X-67304Y4832D02*
D03*
X5086Y-89910D02*
D03*
X58680Y61220D02*
D03*
X-75178Y-34284D02*
D03*
X-43682Y59950D02*
D03*
X-53588D02*
D03*
X8642Y-72892D02*
D03*
X-42666Y-51556D02*
D03*
X44710Y-38602D02*
D03*
X69348Y62284D02*
D03*
X-12186Y514D02*
D03*
X24136Y-33776D02*
D03*
X19818Y25660D02*
D03*
X72650Y16516D02*
D03*
X11182Y90176D02*
D03*
X-502Y-45206D02*
D03*
X9658D02*
D03*
X19310Y-45714D02*
D03*
X59978Y-58132D02*
D03*
X-74930Y-87376D02*
D03*
D32*
X72500Y-72500D02*
D03*
X-72500D02*
D03*
X72500Y72500D02*
D03*
M02*
