%FSLAX44Y44*%
%MOMM*%
G71*
G01*
G75*
G04 Layer_Physical_Order=2*
G04 Layer_Color=32768*
%ADD10R,0.5500X0.6000*%
%ADD11R,0.8000X0.8000*%
%ADD12R,0.6000X0.5500*%
%ADD13R,1.4000X1.1500*%
%ADD14R,1.5000X0.3000*%
%ADD15R,0.3000X1.5000*%
G04:AMPARAMS|DCode=16|XSize=1.5mm|YSize=0.3mm|CornerRadius=0mm|HoleSize=0mm|Usage=FLASHONLY|Rotation=90.000|XOffset=0mm|YOffset=0mm|HoleType=Round|Shape=Octagon|*
%AMOCTAGOND16*
4,1,8,0.0750,0.7500,-0.0750,0.7500,-0.1500,0.6750,-0.1500,-0.6750,-0.0750,-0.7500,0.0750,-0.7500,0.1500,-0.6750,0.1500,0.6750,0.0750,0.7500,0.0*
%
%ADD16OCTAGOND16*%

%ADD17C,0.2000*%
%ADD18C,0.5000*%
%ADD19C,0.2540*%
%ADD20C,0.3000*%
%ADD21C,0.2032*%
%ADD22C,0.3048*%
%ADD23C,0.1778*%
%ADD24C,0.3500*%
%ADD25C,0.1800*%
%ADD26R,1.0160X1.5240*%
%ADD27O,1.0160X1.5240*%
%ADD28O,1.5240X1.0160*%
%ADD29R,1.5240X1.0160*%
G04:AMPARAMS|DCode=30|XSize=1.016mm|YSize=1.524mm|CornerRadius=0mm|HoleSize=0mm|Usage=FLASHONLY|Rotation=90.000|XOffset=0mm|YOffset=0mm|HoleType=Round|Shape=Octagon|*
%AMOCTAGOND30*
4,1,8,-0.7620,-0.2540,-0.7620,0.2540,-0.5080,0.5080,0.5080,0.5080,0.7620,0.2540,0.7620,-0.2540,0.5080,-0.5080,-0.5080,-0.5080,-0.7620,-0.2540,0.0*
%
%ADD30OCTAGOND30*%

%ADD31C,0.8000*%
%ADD32C,1.5000*%
%ADD33C,1.0160*%
%ADD34C,1.0000*%
%ADD35C,1.6160*%
%ADD36C,1.4160*%
%ADD37C,2.0160*%
D33*
X-93974Y-91434D02*
Y79508D01*
X-65272Y108210D01*
X67570D01*
X100082Y75698D01*
Y-88132D02*
Y75698D01*
X79000Y-109214D02*
X100082Y-88132D01*
X-76194Y-109214D02*
X79000D01*
X-93974Y-91434D02*
X-76194Y-109214D01*
D34*
X21844Y-44704D02*
Y-33020D01*
X-78486Y-5842D02*
X-68072Y4572D01*
X-78486Y15494D02*
X-77724D01*
X-78486D02*
X-67564Y4572D01*
X73158Y16008D02*
X87890Y1276D01*
X73158Y16008D02*
Y16516D01*
Y15754D02*
Y16770D01*
Y16262D02*
X83820Y26924D01*
X-84830Y-97530D02*
X-72892D01*
X-85084Y-97276D02*
X-84830Y-97530D01*
X-85084Y-97276D02*
Y-92704D01*
X-93218Y-25654D02*
X-87630Y-20066D01*
X-84582Y-18034D02*
Y87630D01*
X-78232Y-1270D02*
Y6604D01*
X-79502Y16002D02*
Y34036D01*
X-70866Y101092D02*
X-32512D01*
X-12446Y99568D02*
X71374D01*
X-17780Y104902D02*
X-12446Y99568D01*
X-34290Y104902D02*
X-17780D01*
X57658Y63754D02*
X69088Y75184D01*
X74168D01*
X83820Y65532D01*
Y64262D02*
Y65532D01*
X81026Y61468D02*
X83820Y64262D01*
X62230Y61468D02*
X81026D01*
X67564Y67310D02*
X76708D01*
X91948Y59944D02*
Y81534D01*
Y59944D02*
X97282Y54610D01*
Y45212D02*
Y54610D01*
X92710Y40640D02*
X97282Y45212D01*
X92710Y-40386D02*
Y40640D01*
Y-40386D02*
X98044Y-45720D01*
Y-54356D02*
Y-45720D01*
X91440Y-60960D02*
X98044Y-54356D01*
X91440Y-65532D02*
Y-60960D01*
Y-65532D02*
X98298Y-72390D01*
X88392Y7366D02*
Y11684D01*
X83820Y16256D02*
X88392Y11684D01*
X83820Y16256D02*
Y19050D01*
X88138Y23368D01*
Y29972D01*
X73660Y77978D02*
X78486D01*
X84074Y83566D01*
Y87884D01*
X85598Y86360D01*
Y73152D02*
Y86360D01*
X85344Y72898D02*
X85598Y73152D01*
X74168Y-70866D02*
X83820Y-61214D01*
X74168Y-70866D02*
X85598D01*
X86360D01*
X93218Y-77724D01*
Y-83820D02*
Y-77724D01*
X76708Y-100330D02*
X93218Y-83820D01*
X30480Y-100330D02*
X76708D01*
X24638Y-106172D02*
X30480Y-100330D01*
X4064Y-99822D02*
X12954Y-108712D01*
X13208D01*
X-4064Y-107188D02*
X4064Y-99060D01*
X-51816Y-97028D02*
X-41402Y-107442D01*
X-51816Y-97028D02*
Y-74930D01*
X-58928Y-67818D02*
X-51816Y-74930D01*
X-85598Y-67818D02*
X-58928D01*
X-91948Y-61468D02*
X-85598Y-67818D01*
X-91186Y-73914D02*
X-64770D01*
X-59182Y-79502D01*
Y-103632D02*
Y-79502D01*
Y-103632D02*
X-58166Y-102616D01*
X-51562D01*
X-66548Y-104140D02*
Y-85598D01*
X-71374Y-80772D02*
X-66548Y-85598D01*
X-86106Y-80772D02*
X-71374D01*
X-89408Y-84074D02*
X-86106Y-80772D01*
X-89408Y-84074D02*
X-77470D01*
X-73406Y-88138D01*
X-76454D02*
X-73406D01*
X-78994Y-90678D02*
X-76454Y-88138D01*
X-78994Y-98298D02*
Y-90678D01*
Y-98298D02*
X-73406Y-103886D01*
D35*
X-59382Y-94996D02*
D03*
X-71882D02*
D03*
X-79750Y21296D02*
D03*
Y8796D02*
D03*
Y-16204D02*
D03*
Y-3704D02*
D03*
X85858Y114D02*
D03*
X85858Y12614D02*
D03*
Y-12386D02*
D03*
X85858Y-24886D02*
D03*
X85858Y-37386D02*
D03*
Y-62386D02*
D03*
X22150Y93986D02*
D03*
X34650D02*
D03*
X59650D02*
D03*
X47150D02*
D03*
X-10200D02*
D03*
X-35200D02*
D03*
X-47700D02*
D03*
X85858Y25198D02*
D03*
Y37698D02*
D03*
Y62698D02*
D03*
X-79750Y74636D02*
D03*
Y62136D02*
D03*
Y37136D02*
D03*
Y49636D02*
D03*
X35358Y-93212D02*
D03*
X47858D02*
D03*
X72858D02*
D03*
X60358D02*
D03*
D36*
X-59944Y-67564D02*
D03*
X-54604Y-88386D02*
D03*
X-60960Y-86614D02*
D03*
X-51810Y-76194D02*
D03*
X-30474Y-14726D02*
D03*
X-41910Y-36068D02*
D03*
X36322Y21590D02*
D03*
X-79756Y-92710D02*
D03*
X-248Y32264D02*
D03*
X35312Y4578D02*
D03*
X-35808Y37344D02*
D03*
X-37840Y-6344D02*
D03*
X-52826Y76968D02*
D03*
X-43174Y77222D02*
D03*
X-10154Y-44952D02*
D03*
X44964Y-18790D02*
D03*
X44456Y8642D02*
D03*
X43440Y-1010D02*
D03*
X4578Y-99562D02*
D03*
X-51810Y-94482D02*
D03*
X27184Y35058D02*
D03*
X1530Y9658D02*
D03*
X-67304Y4832D02*
D03*
X58680Y61220D02*
D03*
X-75178Y-34284D02*
D03*
X-53588Y59950D02*
D03*
X8642Y-72892D02*
D03*
X44710Y-38602D02*
D03*
X69348Y62284D02*
D03*
X-12186Y514D02*
D03*
X24136Y-33776D02*
D03*
X19818Y25660D02*
D03*
X72650Y16516D02*
D03*
X11182Y90176D02*
D03*
X-502Y-45206D02*
D03*
X9658D02*
D03*
X19310Y-45714D02*
D03*
X59978Y-58132D02*
D03*
X-74930Y-87376D02*
D03*
D37*
X72500Y-72500D02*
D03*
X-72500D02*
D03*
X72500Y72500D02*
D03*
M02*
