M48
;Layer_Color=9474304
;FILE_FORMAT=4:4
METRIC
;TYPE=PLATED
T1F00S00C0.4000
T2F00S00C0.6000
T3F00S00C1.0000
%
T01
X-00079756Y-00092710
X-00074930Y-00087376
X-00060960Y-00086614
X-00054604Y-00088386
X-00051810Y-00094482
Y-00076194
X-00059944Y-00067564
X-00066548Y-00051308
X-00042666Y-00051556
X-00041910Y-00036068
X-00041142Y-00017012
X-00030474Y-00014726
X-00037840Y-00006344
X-00012186Y00000514
X00001530Y00009658
X-00000248Y00032264
X00019818Y00025660
X00027184Y00035058
X00036322Y00021590
X00035312Y00004578
X00044456Y00008642
X00043440Y-00001010
X00044964Y-00018790
X00044710Y-00028696
Y-00038602
X00024136Y-00033776
X00019310Y-00045714
X00009658Y-00045206
X-00000502
X-00010154Y-00044952
X-00012694Y-00032182
X-00017774Y00022612
X-00035808Y00037344
X-00043682Y00059950
X-00053588
X-00067304Y00004832
X-00075178Y-00034284
X00008642Y-00072892
X00005086Y-00089910
X00004578Y-00099562
X00059978Y-00058132
X00048520Y00044456
X00058680Y00061220
X00069348Y00062284
X00072650Y00016516
X00011182Y00090176
X-00043174Y00077222
X-00052826Y00076968
T02
X-00071882Y-00094996
X-00059382
X00035358Y-00093212
X00047858
X00060358
X-00079750Y-00016204
Y-00003704
Y00008796
Y00021296
Y00037136
Y00049636
Y00062136
X00085858Y00062698
Y00050198
Y00037698
Y00025198
Y00012614
X00085858Y00000114
X00085858Y-00012386
X00085858Y-00024886
X00085858Y-00037386
Y-00049886
Y-00062386
X00072858Y-00093212
X00059650Y00093986
X00047150
X00034650
X00022150
X-00010200
X-00022700
X-00035200
X-00047700
X-00079750Y00074636
T03
X-00072500Y-00072500
X00072500
Y00072500
M30
