%FSLAX44Y44*%
%MOMM*%
G71*
G01*
G75*
G04 Layer_Physical_Order=3*
G04 Layer_Color=128*
%ADD10R,0.5500X0.6000*%
%ADD11R,0.8000X0.8000*%
%ADD12R,0.6000X0.5500*%
%ADD13R,1.4000X1.1500*%
%ADD14R,1.5000X0.3000*%
%ADD15R,0.3000X1.5000*%
G04:AMPARAMS|DCode=16|XSize=1.5mm|YSize=0.3mm|CornerRadius=0mm|HoleSize=0mm|Usage=FLASHONLY|Rotation=90.000|XOffset=0mm|YOffset=0mm|HoleType=Round|Shape=Octagon|*
%AMOCTAGOND16*
4,1,8,0.0750,0.7500,-0.0750,0.7500,-0.1500,0.6750,-0.1500,-0.6750,-0.0750,-0.7500,0.0750,-0.7500,0.1500,-0.6750,0.1500,0.6750,0.0750,0.7500,0.0*
%
%ADD16OCTAGOND16*%

%ADD17C,0.2000*%
%ADD18C,0.5000*%
%ADD19C,0.2540*%
%ADD20C,0.3000*%
%ADD21C,0.2032*%
%ADD22C,0.3048*%
%ADD23C,0.1778*%
%ADD24C,0.3500*%
%ADD25C,0.1800*%
%ADD26R,1.0160X1.5240*%
%ADD27O,1.0160X1.5240*%
%ADD28O,1.5240X1.0160*%
%ADD29R,1.5240X1.0160*%
G04:AMPARAMS|DCode=30|XSize=1.016mm|YSize=1.524mm|CornerRadius=0mm|HoleSize=0mm|Usage=FLASHONLY|Rotation=90.000|XOffset=0mm|YOffset=0mm|HoleType=Round|Shape=Octagon|*
%AMOCTAGOND30*
4,1,8,-0.7620,-0.2540,-0.7620,0.2540,-0.5080,0.5080,0.5080,0.5080,0.7620,0.2540,0.7620,-0.2540,0.5080,-0.5080,-0.5080,-0.5080,-0.7620,-0.2540,0.0*
%
%ADD30OCTAGOND30*%

%ADD31C,0.8000*%
%ADD32C,1.5000*%
%ADD33C,1.0160*%
%ADD34C,1.0000*%
%ADD35C,1.6160*%
%ADD36C,1.4160*%
%ADD37C,2.0160*%
D33*
X-93974Y-91434D02*
Y79508D01*
X-65272Y108210D01*
X67570D01*
X100082Y75698D01*
Y-88132D02*
Y75698D01*
X79000Y-109214D02*
X100082Y-88132D01*
X-76194Y-109214D02*
X79000D01*
X-93974Y-91434D02*
X-76194Y-109214D01*
D34*
X-77978Y-6604D02*
X-66802Y4572D01*
X-77978Y15240D02*
X-67564Y4826D01*
X-82550Y-17780D02*
Y49530D01*
X-77470Y-17272D02*
Y48006D01*
X-10414Y-33528D02*
X-508Y-43434D01*
X-10414Y-33528D02*
Y-33274D01*
X-14732Y-41656D02*
X-11684Y-44704D01*
X-14732Y-41656D02*
Y-32512D01*
X73412Y13976D02*
X84334Y3054D01*
X73412Y13976D02*
Y15500D01*
X75190Y16770D02*
X81794Y23374D01*
X73666Y16770D02*
X75190D01*
X-88392Y-94742D02*
Y72644D01*
X-57150Y103886D01*
X67818D01*
X95504Y76200D01*
Y-84328D02*
Y76200D01*
X77216Y-102616D02*
X95504Y-84328D01*
X16764Y-102616D02*
X77216D01*
X16764D02*
X17018Y-102870D01*
X-62484Y-105156D02*
Y-97790D01*
Y-105156D02*
X-59690Y-102362D01*
X-50038D01*
X-49276Y-101854D02*
Y-92710D01*
Y-101854D02*
X-43942Y-107188D01*
X-67056D02*
X-62484Y-102616D01*
X24892Y-101346D02*
X34036Y-92202D01*
X18288Y-101346D02*
X24892D01*
X10922Y-108712D02*
X18288Y-101346D01*
X38608Y-90170D02*
X86360D01*
X87630Y-50038D02*
X96012Y-58420D01*
X88392Y52070D02*
X90170D01*
X94996Y56896D01*
X37084Y93472D02*
X75692D01*
X11430Y104394D02*
X21082Y94742D01*
X-64516Y96774D02*
X-50546D01*
X-47244Y100076D01*
X-18288D01*
D35*
X-59382Y-94996D02*
D03*
X-79750Y21296D02*
D03*
Y8796D02*
D03*
Y-16204D02*
D03*
Y-3704D02*
D03*
X85858Y114D02*
D03*
X85858Y12614D02*
D03*
Y-12386D02*
D03*
X85858Y-24886D02*
D03*
X85858Y-37386D02*
D03*
Y-49886D02*
D03*
X22150Y93986D02*
D03*
X34650D02*
D03*
X59650D02*
D03*
X47150D02*
D03*
X-22700D02*
D03*
X-35200D02*
D03*
X-47700D02*
D03*
X85858Y25198D02*
D03*
Y37698D02*
D03*
Y50198D02*
D03*
X-79750Y74636D02*
D03*
Y37136D02*
D03*
Y49636D02*
D03*
X35358Y-93212D02*
D03*
X47858D02*
D03*
X72858D02*
D03*
X60358D02*
D03*
D36*
X-59944Y-67564D02*
D03*
X-66548Y-51308D02*
D03*
X-54604Y-88386D02*
D03*
X-60960Y-86614D02*
D03*
X36322Y21590D02*
D03*
X-17774Y22612D02*
D03*
X-248Y32264D02*
D03*
X35312Y4578D02*
D03*
X48520Y44456D02*
D03*
X-41142Y-17012D02*
D03*
X-37840Y-6344D02*
D03*
X-43174Y77222D02*
D03*
X-10154Y-44952D02*
D03*
X44710Y-28696D02*
D03*
X44964Y-18790D02*
D03*
X43440Y-1010D02*
D03*
X-51810Y-94482D02*
D03*
X-12694Y-32182D02*
D03*
X27184Y35058D02*
D03*
X1530Y9658D02*
D03*
X-67304Y4832D02*
D03*
X5086Y-89910D02*
D03*
X-43682Y59950D02*
D03*
X-42666Y-51556D02*
D03*
X-12186Y514D02*
D03*
X72650Y16516D02*
D03*
X-502Y-45206D02*
D03*
X9658D02*
D03*
X19310Y-45714D02*
D03*
M02*
