%FSLAX44Y44*%
%MOMM*%
G71*
G01*
G75*
G04 Layer_Color=65535*
%ADD10R,0.5500X0.6000*%
%ADD11R,0.8000X0.8000*%
%ADD12R,0.6000X0.5500*%
%ADD13R,1.4000X1.1500*%
%ADD14R,1.5000X0.3000*%
%ADD15R,0.3000X1.5000*%
G04:AMPARAMS|DCode=16|XSize=1.5mm|YSize=0.3mm|CornerRadius=0mm|HoleSize=0mm|Usage=FLASHONLY|Rotation=90.000|XOffset=0mm|YOffset=0mm|HoleType=Round|Shape=Octagon|*
%AMOCTAGOND16*
4,1,8,0.0750,0.7500,-0.0750,0.7500,-0.1500,0.6750,-0.1500,-0.6750,-0.0750,-0.7500,0.0750,-0.7500,0.1500,-0.6750,0.1500,0.6750,0.0750,0.7500,0.0*
%
%ADD16OCTAGOND16*%

%ADD17C,0.2000*%
%ADD18C,0.5000*%
%ADD19C,0.2540*%
%ADD20C,0.3000*%
%ADD21C,0.2032*%
%ADD22C,0.3048*%
%ADD23C,0.1778*%
%ADD24C,0.3500*%
%ADD25C,0.1800*%
%ADD26R,1.0160X1.5240*%
%ADD27O,1.0160X1.5240*%
%ADD28O,1.5240X1.0160*%
%ADD29R,1.5240X1.0160*%
G04:AMPARAMS|DCode=30|XSize=1.016mm|YSize=1.524mm|CornerRadius=0mm|HoleSize=0mm|Usage=FLASHONLY|Rotation=90.000|XOffset=0mm|YOffset=0mm|HoleType=Round|Shape=Octagon|*
%AMOCTAGOND30*
4,1,8,-0.7620,-0.2540,-0.7620,0.2540,-0.5080,0.5080,0.5080,0.5080,0.7620,0.2540,0.7620,-0.2540,0.5080,-0.5080,-0.5080,-0.5080,-0.7620,-0.2540,0.0*
%
%ADD30OCTAGOND30*%

%ADD31C,0.8000*%
%ADD32C,1.5000*%
%ADD33C,1.0160*%
%ADD34C,1.0000*%
%ADD35C,1.6160*%
%ADD36C,1.4160*%
%ADD37C,2.0160*%
%ADD38R,0.9500X0.9500*%
%ADD39R,1.3000X0.5000*%
%ADD40R,0.5000X1.1000*%
%ADD41R,0.9500X0.9500*%
%ADD42R,0.8000X1.2000*%
%ADD43P,1.3435X4X270.0*%
%ADD44R,0.6000X1.2000*%
G04:AMPARAMS|DCode=45|XSize=0.55mm|YSize=0.6mm|CornerRadius=0mm|HoleSize=0mm|Usage=FLASHONLY|Rotation=135.000|XOffset=0mm|YOffset=0mm|HoleType=Round|Shape=Rectangle|*
%AMROTATEDRECTD45*
4,1,4,0.4066,0.0177,-0.0177,-0.4066,-0.4066,-0.0177,0.0177,0.4066,0.4066,0.0177,0.0*
%
%ADD45ROTATEDRECTD45*%

G04:AMPARAMS|DCode=46|XSize=0.55mm|YSize=0.6mm|CornerRadius=0mm|HoleSize=0mm|Usage=FLASHONLY|Rotation=45.000|XOffset=0mm|YOffset=0mm|HoleType=Round|Shape=Rectangle|*
%AMROTATEDRECTD46*
4,1,4,0.0177,-0.4066,-0.4066,0.0177,-0.0177,0.4066,0.4066,-0.0177,0.0177,-0.4066,0.0*
%
%ADD46ROTATEDRECTD46*%

%ADD47R,1.1000X0.6500*%
G04:AMPARAMS|DCode=48|XSize=0.3454mm|YSize=0.7238mm|CornerRadius=0mm|HoleSize=0mm|Usage=FLASHONLY|Rotation=225.000|XOffset=0mm|YOffset=0mm|HoleType=Round|Shape=Octagon|*
%AMOCTAGOND48*
4,1,8,0.3170,-0.1948,0.1948,-0.3170,0.0727,-0.3170,-0.3170,0.0727,-0.3170,0.1948,-0.1948,0.3170,-0.0727,0.3170,0.3170,-0.0727,0.3170,-0.1948,0.0*
%
%ADD48OCTAGOND48*%

G04:AMPARAMS|DCode=49|XSize=0.3454mm|YSize=0.8mm|CornerRadius=0mm|HoleSize=0mm|Usage=FLASHONLY|Rotation=225.000|XOffset=0mm|YOffset=0mm|HoleType=Round|Shape=Rectangle|*
%AMROTATEDRECTD49*
4,1,4,-0.1607,0.4050,0.4050,-0.1607,0.1607,-0.4050,-0.4050,0.1607,-0.1607,0.4050,0.0*
%
%ADD49ROTATEDRECTD49*%

G04:AMPARAMS|DCode=50|XSize=0.3454mm|YSize=0.8mm|CornerRadius=0mm|HoleSize=0mm|Usage=FLASHONLY|Rotation=135.000|XOffset=0mm|YOffset=0mm|HoleType=Round|Shape=Rectangle|*
%AMROTATEDRECTD50*
4,1,4,0.4050,0.1607,-0.1607,-0.4050,-0.4050,-0.1607,0.1607,0.4050,0.4050,0.1607,0.0*
%
%ADD50ROTATEDRECTD50*%

G04:AMPARAMS|DCode=51|XSize=0.3454mm|YSize=0.8mm|CornerRadius=0mm|HoleSize=0mm|Usage=FLASHONLY|Rotation=135.000|XOffset=0mm|YOffset=0mm|HoleType=Round|Shape=Octagon|*
%AMOCTAGOND51*
4,1,8,-0.2218,-0.3439,-0.3439,-0.2218,-0.3439,-0.0997,0.0997,0.3439,0.2218,0.3439,0.3439,0.2218,0.3439,0.0997,-0.0997,-0.3439,-0.2218,-0.3439,0.0*
%
%ADD51OCTAGOND51*%

G04:AMPARAMS|DCode=52|XSize=0.3454mm|YSize=0.7238mm|CornerRadius=0mm|HoleSize=0mm|Usage=FLASHONLY|Rotation=135.000|XOffset=0mm|YOffset=0mm|HoleType=Round|Shape=Octagon|*
%AMOCTAGOND52*
4,1,8,-0.1948,-0.3170,-0.3170,-0.1948,-0.3170,-0.0727,0.0727,0.3170,0.1948,0.3170,0.3170,0.1948,0.3170,0.0727,-0.0727,-0.3170,-0.1948,-0.3170,0.0*
%
%ADD52OCTAGOND52*%

%ADD53C,0.1700*%
%ADD54C,0.1270*%
%ADD55C,0.1000*%
%ADD56C,0.1524*%
D17*
X-21584Y-71114D02*
G03*
X-21584Y-71114I-1000J0D01*
G01*
X-30960Y-39706D02*
G03*
X-30960Y-39706I-4000J0D01*
G01*
X-40634Y-52572D02*
G03*
X-40634Y-52572I-2000J0D01*
G01*
D19*
X-93974Y87048D02*
Y132842D01*
X100082Y83238D02*
Y132842D01*
X-93974Y130302D02*
X-35544D01*
X33524D02*
X100082D01*
X-93974D02*
X-78734Y125222D01*
X-93974Y130302D02*
X-78734Y135382D01*
X84842D02*
X100082Y130302D01*
X84842Y125222D02*
X100082Y130302D01*
X86540Y-109214D02*
X125984D01*
X-57732Y108210D02*
X125984D01*
X123444Y-109214D02*
Y-41639D01*
Y32507D02*
Y108210D01*
Y-109214D02*
X128524Y-93974D01*
X118364D02*
X123444Y-109214D01*
X118364Y92970D02*
X123444Y108210D01*
X128524Y92970D01*
X-66802Y76200D02*
X-63754Y79248D01*
X-66802Y76200D02*
X-60706D01*
X-63754Y79248D02*
X-60706Y76200D01*
X-86360Y-44196D02*
X-83312Y-41148D01*
X-86360Y-44196D02*
X-80264D01*
X-83312Y-41148D02*
X-80264Y-44196D01*
X-42960Y-47706D02*
X47040D01*
X-42960D02*
Y42294D01*
X47040Y42294D01*
X47040Y-47706D02*
X47040Y42294D01*
D54*
X74358Y-77386D02*
X104146D01*
X76206Y77698D02*
X101352D01*
X106358Y10198D02*
Y63506D01*
X-100250Y-31204D02*
X-68250D01*
X-100250D02*
Y36296D01*
X-89910D01*
X106358Y-65526D02*
Y27614D01*
X96526D02*
X106358D01*
X7150Y105486D02*
X74650D01*
Y80016D02*
Y105486D01*
X7150Y73486D02*
Y105486D01*
X-62700Y73486D02*
Y105486D01*
X4800Y73486D02*
Y105486D01*
X-62700D02*
X4800D01*
X96272Y10198D02*
X106358D01*
X-100250Y22136D02*
X-90164D01*
X-100250D02*
Y89636D01*
X-68250D01*
X87858Y-113712D02*
Y-81712D01*
X20358Y-113712D02*
X87858D01*
X20358D02*
Y-81712D01*
D55*
X-68580Y39116D02*
Y42615D01*
X-66831D01*
X-66247Y42032D01*
Y40865D01*
X-66831Y40282D01*
X-68580D01*
X-67414D02*
X-66247Y39116D01*
X-65081D02*
X-63915D01*
X-64498D01*
Y42615D01*
X-65081Y42032D01*
X-60416Y39116D02*
Y42615D01*
X-62165Y40865D01*
X-59833D01*
X99706Y561D02*
X99123Y-23D01*
Y-1189D01*
X99706Y-1772D01*
X100289D01*
X100873Y-1189D01*
Y-23D01*
X101456Y561D01*
X102039D01*
X102622Y-23D01*
Y-1189D01*
X102039Y-1772D01*
X102622Y1727D02*
X99123D01*
Y3476D01*
X99706Y4059D01*
X100873D01*
X101456Y3476D01*
Y1727D01*
X99123Y5226D02*
Y6392D01*
Y5809D01*
X102622D01*
Y5226D01*
Y6392D01*
X-87122Y-67564D02*
Y-64065D01*
X-85373D01*
X-84789Y-64648D01*
Y-65815D01*
X-85373Y-66398D01*
X-87122D01*
X-85956D02*
X-84789Y-67564D01*
X-83623Y-64648D02*
X-83040Y-64065D01*
X-81874D01*
X-81291Y-64648D01*
Y-65231D01*
X-81874Y-65815D01*
X-82457D01*
X-81874D01*
X-81291Y-66398D01*
Y-66981D01*
X-81874Y-67564D01*
X-83040D01*
X-83623Y-66981D01*
X14833Y77916D02*
X14249Y78499D01*
X13083D01*
X12500Y77916D01*
Y77333D01*
X13083Y76749D01*
X14249D01*
X14833Y76166D01*
Y75583D01*
X14249Y75000D01*
X13083D01*
X12500Y75583D01*
X15999Y75000D02*
Y78499D01*
X17748D01*
X18331Y77916D01*
Y76749D01*
X17748Y76166D01*
X15999D01*
X17165D02*
X18331Y75000D01*
X19498Y78499D02*
Y76166D01*
X20664Y75000D01*
X21830Y76166D01*
Y78499D01*
X-7500Y75000D02*
Y78499D01*
X-5751D01*
X-5167Y77916D01*
Y76749D01*
X-5751Y76166D01*
X-7500D01*
X-6334D02*
X-5167Y75000D01*
X-4001Y77333D02*
X-1669Y75000D01*
X-2835Y76166D01*
X-1669Y77333D01*
X-4001Y75000D01*
X-502D02*
X664D01*
X81D01*
Y78499D01*
X-502Y77916D01*
X-69850Y23622D02*
X-66351D01*
Y21873D01*
X-66934Y21289D01*
X-68101D01*
X-68684Y21873D01*
Y23622D01*
Y22456D02*
X-69850Y21289D01*
X-67517Y20123D02*
X-69850Y17791D01*
X-68684Y18957D01*
X-67517Y17791D01*
X-69850Y20123D01*
Y14875D02*
X-66351D01*
X-68101Y16624D01*
Y14292D01*
X101860Y31756D02*
X98361D01*
Y33505D01*
X98944Y34089D01*
X100111D01*
X100694Y33505D01*
Y31756D01*
Y32922D02*
X101860Y34089D01*
X99527Y35255D02*
X101860Y37587D01*
X100694Y36421D01*
X99527Y37587D01*
X101860Y35255D01*
X98944Y38754D02*
X98361Y39337D01*
Y40503D01*
X98944Y41086D01*
X99527D01*
X100111Y40503D01*
Y39920D01*
Y40503D01*
X100694Y41086D01*
X101277D01*
X101860Y40503D01*
Y39337D01*
X101277Y38754D01*
X-67188Y34243D02*
X-66605Y34827D01*
Y35993D01*
X-67188Y36576D01*
X-67771D01*
X-68355Y35993D01*
Y34827D01*
X-68938Y34243D01*
X-69521D01*
X-70104Y34827D01*
Y35993D01*
X-69521Y36576D01*
X-66605Y33077D02*
X-70104D01*
X-68938Y31911D01*
X-70104Y30745D01*
X-66605D01*
Y29578D02*
X-70104D01*
Y27829D01*
X-69521Y27246D01*
X-67188D01*
X-66605Y27829D01*
Y29578D01*
X11690Y-103175D02*
Y-106674D01*
X14023D01*
X17521D02*
X15189D01*
X17521Y-104341D01*
Y-103758D01*
X16938Y-103175D01*
X15772D01*
X15189Y-103758D01*
X-50747Y46356D02*
X-51331Y46939D01*
X-52497D01*
X-53080Y46356D01*
Y44023D01*
X-52497Y43440D01*
X-51331D01*
X-50747Y44023D01*
X-47249Y43440D02*
X-49581D01*
X-47249Y45773D01*
Y46356D01*
X-47832Y46939D01*
X-48998D01*
X-49581Y46356D01*
X-46082Y43440D02*
X-44916D01*
X-45499D01*
Y46939D01*
X-46082Y46356D01*
X33073Y-78866D02*
X32489Y-78283D01*
X31323D01*
X30740Y-78866D01*
Y-81199D01*
X31323Y-81782D01*
X32489D01*
X33073Y-81199D01*
X34239D02*
X34822Y-81782D01*
X35988D01*
X36571Y-81199D01*
Y-78866D01*
X35988Y-78283D01*
X34822D01*
X34239Y-78866D01*
Y-79449D01*
X34822Y-80033D01*
X36571D01*
X-64209Y-58038D02*
X-64793Y-57455D01*
X-65959D01*
X-66542Y-58038D01*
Y-60371D01*
X-65959Y-60954D01*
X-64793D01*
X-64209Y-60371D01*
X-60711Y-60954D02*
X-63043D01*
X-60711Y-58621D01*
Y-58038D01*
X-61294Y-57455D01*
X-62460D01*
X-63043Y-58038D01*
X-59544D02*
X-58961Y-57455D01*
X-57795D01*
X-57212Y-58038D01*
Y-60371D01*
X-57795Y-60954D01*
X-58961D01*
X-59544Y-60371D01*
Y-58038D01*
X-65479Y-66420D02*
X-66063Y-65837D01*
X-67229D01*
X-67812Y-66420D01*
Y-68753D01*
X-67229Y-69336D01*
X-66063D01*
X-65479Y-68753D01*
X-64313Y-69336D02*
X-63147D01*
X-63730D01*
Y-65837D01*
X-64313Y-66420D01*
X-59065Y-65837D02*
X-60231Y-66420D01*
X-61397Y-67587D01*
Y-68753D01*
X-60814Y-69336D01*
X-59648D01*
X-59065Y-68753D01*
Y-68170D01*
X-59648Y-67587D01*
X-61397D01*
X3355Y-94360D02*
X2771Y-93777D01*
X1605D01*
X1022Y-94360D01*
Y-96693D01*
X1605Y-97276D01*
X2771D01*
X3355Y-96693D01*
X4521Y-97276D02*
X5687D01*
X5104D01*
Y-93777D01*
X4521Y-94360D01*
X9769Y-93777D02*
X7437D01*
Y-95527D01*
X8603Y-94943D01*
X9186D01*
X9769Y-95527D01*
Y-96693D01*
X9186Y-97276D01*
X8020D01*
X7437Y-96693D01*
X-86614Y-27686D02*
Y-24187D01*
X-84865D01*
X-84281Y-24770D01*
Y-25937D01*
X-84865Y-26520D01*
X-86614D01*
X-85448D02*
X-84281Y-27686D01*
X-81366D02*
Y-24187D01*
X-83115Y-25937D01*
X-80783D01*
X1022Y-89910D02*
Y-86411D01*
X2771D01*
X3355Y-86994D01*
Y-88161D01*
X2771Y-88744D01*
X1022D01*
X2188D02*
X3355Y-89910D01*
X6853D02*
X4521D01*
X6853Y-87577D01*
Y-86994D01*
X6270Y-86411D01*
X5104D01*
X4521Y-86994D01*
X54155Y61342D02*
X53571Y61925D01*
X52405D01*
X51822Y61342D01*
Y59009D01*
X52405Y58426D01*
X53571D01*
X54155Y59009D01*
X55321Y58426D02*
X56487D01*
X55904D01*
Y61925D01*
X55321Y61342D01*
X58237Y59009D02*
X58820Y58426D01*
X59986D01*
X60569Y59009D01*
Y61342D01*
X59986Y61925D01*
X58820D01*
X58237Y61342D01*
Y60759D01*
X58820Y60175D01*
X60569D01*
X69395Y-45592D02*
X68811Y-45009D01*
X67645D01*
X67062Y-45592D01*
Y-47925D01*
X67645Y-48508D01*
X68811D01*
X69395Y-47925D01*
X70561Y-48508D02*
X71727D01*
X71144D01*
Y-45009D01*
X70561Y-45592D01*
X73477D02*
X74060Y-45009D01*
X75226D01*
X75809Y-45592D01*
Y-46175D01*
X75226Y-46759D01*
X75809Y-47342D01*
Y-47925D01*
X75226Y-48508D01*
X74060D01*
X73477Y-47925D01*
Y-47342D01*
X74060Y-46759D01*
X73477Y-46175D01*
Y-45592D01*
X74060Y-46759D02*
X75226D01*
X-68279Y-48646D02*
X-68863Y-48063D01*
X-70029D01*
X-70612Y-48646D01*
Y-50979D01*
X-70029Y-51562D01*
X-68863D01*
X-68279Y-50979D01*
X-67113Y-51562D02*
X-65947D01*
X-66530D01*
Y-48063D01*
X-67113Y-48646D01*
X-64197Y-48063D02*
X-61865D01*
Y-48646D01*
X-64197Y-50979D01*
Y-51562D01*
X67617Y61088D02*
X67033Y61671D01*
X65867D01*
X65284Y61088D01*
Y58755D01*
X65867Y58172D01*
X67033D01*
X67617Y58755D01*
X68783Y58172D02*
X69949D01*
X69366D01*
Y61671D01*
X68783Y61088D01*
X73448Y58172D02*
Y61671D01*
X71699Y59921D01*
X74031D01*
X-36015Y70232D02*
X-36599Y70815D01*
X-37765D01*
X-38348Y70232D01*
Y67899D01*
X-37765Y67316D01*
X-36599D01*
X-36015Y67899D01*
X-34849Y67316D02*
X-33683D01*
X-34266D01*
Y70815D01*
X-34849Y70232D01*
X-31933D02*
X-31350Y70815D01*
X-30184D01*
X-29601Y70232D01*
Y69649D01*
X-30184Y69065D01*
X-30767D01*
X-30184D01*
X-29601Y68482D01*
Y67899D01*
X-30184Y67316D01*
X-31350D01*
X-31933Y67899D01*
X33327Y-71500D02*
X32743Y-70917D01*
X31577D01*
X30994Y-71500D01*
Y-73833D01*
X31577Y-74416D01*
X32743D01*
X33327Y-73833D01*
X34493Y-74416D02*
X35659D01*
X35076D01*
Y-70917D01*
X34493Y-71500D01*
X39741Y-74416D02*
X37409D01*
X39741Y-72083D01*
Y-71500D01*
X39158Y-70917D01*
X37992D01*
X37409Y-71500D01*
X-16203Y-70484D02*
X-16787Y-69901D01*
X-17953D01*
X-18536Y-70484D01*
Y-72817D01*
X-17953Y-73400D01*
X-16787D01*
X-16203Y-72817D01*
X-15037Y-73400D02*
X-13871D01*
X-14454D01*
Y-69901D01*
X-15037Y-70484D01*
X-12121D02*
X-11538Y-69901D01*
X-10372D01*
X-9789Y-70484D01*
Y-72817D01*
X-10372Y-73400D01*
X-11538D01*
X-12121Y-72817D01*
Y-70484D01*
X23882Y-109976D02*
Y-106477D01*
X25631D01*
X26215Y-107060D01*
Y-108227D01*
X25631Y-108810D01*
X23882D01*
X25048D02*
X26215Y-109976D01*
X27381Y-107643D02*
X29713Y-109976D01*
X28547Y-108810D01*
X29713Y-107643D01*
X27381Y-109976D01*
X33212D02*
X30880D01*
X33212Y-107643D01*
Y-107060D01*
X32629Y-106477D01*
X31463D01*
X30880Y-107060D01*
D56*
X-31480Y121160D02*
X-26402D01*
X-28941D01*
Y136396D01*
X-31480Y133856D01*
X-18784Y123700D02*
X-16245Y121160D01*
X-11167D01*
X-8627Y123700D01*
Y133856D01*
X-11167Y136396D01*
X-16245D01*
X-18784Y133856D01*
Y131317D01*
X-16245Y128778D01*
X-8627D01*
X-3549Y121160D02*
Y123700D01*
X-1010D01*
Y121160D01*
X-3549D01*
X16764D02*
Y136396D01*
X9147Y128778D01*
X19303D01*
X24382Y121160D02*
X29460D01*
X26921D01*
Y136396D01*
X24382Y133856D01*
X132585Y-27419D02*
Y-37575D01*
X122429Y-27419D01*
X119890D01*
X117351Y-29958D01*
Y-35036D01*
X119890Y-37575D01*
X132585Y-22340D02*
Y-17262D01*
Y-19801D01*
X117351D01*
X119890Y-22340D01*
X132585Y-9644D02*
X130046D01*
Y-7105D01*
X132585D01*
Y-9644D01*
X117351Y3052D02*
Y13208D01*
X119890D01*
X130046Y3052D01*
X132585D01*
Y25904D02*
X117351D01*
X124968Y18287D01*
Y28443D01*
M02*
