%FSAX25Y25*%
%MOIN*%
G70*
G01*
G75*
%ADD10C,0.00800*%
%ADD11R,0.03543X0.03150*%
%ADD12R,0.03150X0.03543*%
%ADD13R,0.03150X0.03150*%
%ADD14R,0.01575X0.04331*%
%ADD15O,0.01575X0.04331*%
%ADD16O,0.01102X0.05512*%
%ADD17O,0.05512X0.01102*%
%ADD18R,0.04724X0.03543*%
%ADD19R,0.03543X0.03150*%
%ADD20O,0.01102X0.05512*%
%ADD21R,0.01102X0.05512*%
%ADD22C,0.03000*%
%ADD23C,0.04000*%
%ADD24C,0.01500*%
%ADD25R,0.04000X0.06000*%
%ADD26O,0.04000X0.06000*%
%ADD27C,0.04000*%
%ADD28C,0.07000*%
%ADD29O,0.07000X0.15000*%
%ADD30R,0.07000X0.15000*%
%ADD31R,0.03543X0.02362*%
%ADD32R,0.04724X0.04724*%
%ADD33R,0.05906X0.12992*%
%ADD34R,0.05906X0.03937*%
%ADD35R,0.09449X0.07874*%
%ADD36C,0.02500*%
%ADD37C,0.02000*%
%ADD38C,0.07000*%
%ADD39R,0.04343X0.03950*%
%ADD40R,0.03950X0.04343*%
%ADD41R,0.03950X0.03950*%
%ADD42R,0.02375X0.05131*%
%ADD43O,0.02375X0.05131*%
%ADD44O,0.01902X0.06312*%
%ADD45O,0.06312X0.01902*%
%ADD46R,0.05524X0.04343*%
%ADD47R,0.04343X0.03950*%
%ADD48O,0.01902X0.06312*%
%ADD49R,0.01902X0.06312*%
%ADD50R,0.04800X0.06800*%
%ADD51O,0.04800X0.06800*%
%ADD52C,0.04800*%
%ADD53C,0.07800*%
%ADD54O,0.07800X0.15800*%
%ADD55R,0.07800X0.15800*%
%ADD56R,0.04343X0.03162*%
%ADD57R,0.05524X0.05524*%
%ADD58R,0.06706X0.13792*%
%ADD59R,0.06706X0.04737*%
%ADD60R,0.10249X0.08674*%
D10*
X0000400Y0000400D02*
Y0119500D01*
X0157800Y0000400D02*
Y0119500D01*
X0000400D02*
X0157800D01*
X0000400Y0000400D02*
X0157800D01*
D40*
X0052200Y0048400D02*
D03*
Y0054400D02*
D03*
D50*
X0007500Y0106835D02*
D03*
X0150700Y0089774D02*
D03*
Y0035774D02*
D03*
Y0076274D02*
D03*
Y0062774D02*
D03*
Y0103274D02*
D03*
Y0049274D02*
D03*
X0007500Y0093335D02*
D03*
X0007500Y0079835D02*
D03*
X0150700Y0022274D02*
D03*
X0007500Y0025835D02*
D03*
X0007500Y0052835D02*
D03*
Y0039335D02*
D03*
X0150700Y0008774D02*
D03*
X0108176D02*
D03*
X0007500Y0012335D02*
D03*
X0007500Y0066335D02*
D03*
D51*
X0012421Y0106835D02*
D03*
X0017342D02*
D03*
X0140858Y0089774D02*
D03*
X0145779D02*
D03*
Y0035774D02*
D03*
X0140858D02*
D03*
Y0076274D02*
D03*
X0145779D02*
D03*
Y0062774D02*
D03*
X0140858D02*
D03*
Y0103274D02*
D03*
X0145779D02*
D03*
Y0049274D02*
D03*
X0140858D02*
D03*
X0012421Y0093335D02*
D03*
X0017342D02*
D03*
X0022264D02*
D03*
X0027185Y0079835D02*
D03*
X0022264D02*
D03*
X0017343D02*
D03*
X0012421D02*
D03*
X0131015Y0022274D02*
D03*
X0135936D02*
D03*
X0140858D02*
D03*
X0145779D02*
D03*
X0012421Y0025835D02*
D03*
X0017343D02*
D03*
X0022264D02*
D03*
X0027185D02*
D03*
X0037028Y0052835D02*
D03*
X0032106D02*
D03*
X0027185D02*
D03*
X0022264D02*
D03*
X0017343D02*
D03*
X0012421Y0052835D02*
D03*
X0012421Y0039335D02*
D03*
X0017343D02*
D03*
X0022264D02*
D03*
X0027185D02*
D03*
X0032106D02*
D03*
X0037028D02*
D03*
X0121172Y0008774D02*
D03*
X0126094D02*
D03*
X0131015D02*
D03*
X0135936D02*
D03*
X0140858D02*
D03*
X0145779D02*
D03*
X0073728D02*
D03*
X0078649D02*
D03*
X0083570D02*
D03*
X0088491D02*
D03*
X0093413D02*
D03*
X0098334D02*
D03*
X0103255D02*
D03*
X0012421Y0012335D02*
D03*
X0017343D02*
D03*
X0022264D02*
D03*
X0027185D02*
D03*
X0032106D02*
D03*
X0037027D02*
D03*
X0041949D02*
D03*
X0012421Y0066335D02*
D03*
X0017343D02*
D03*
X0022264D02*
D03*
X0027185D02*
D03*
D52*
X0073700Y0071300D02*
D03*
X0082826Y0081074D02*
D03*
X0050700Y0014274D02*
D03*
X0075400Y0084200D02*
D03*
X0086600Y0050400D02*
D03*
X0022200Y0059800D02*
D03*
X0119100Y0027000D02*
D03*
X0061600Y0034100D02*
D03*
X0065500Y0036500D02*
D03*
X0103400Y0107300D02*
D03*
X0111200Y0087500D02*
D03*
X0094500Y0100600D02*
D03*
X0109600Y0099300D02*
D03*
X0108800Y0031700D02*
D03*
X0122600Y0070300D02*
D03*
X0136600Y0083200D02*
D03*
X0123700Y0107000D02*
D03*
X0130700Y0061700D02*
D03*
X0074800Y0104000D02*
D03*
X0065200Y0103100D02*
D03*
X0046282Y0062300D02*
D03*
X0118900Y0098100D02*
D03*
X0132600Y0107700D02*
D03*
X0124700Y0098100D02*
D03*
X0068600Y0027700D02*
D03*
X0100100Y0051200D02*
D03*
X0030900Y0033000D02*
D03*
X0077826Y0024474D02*
D03*
X0073700Y0094400D02*
D03*
X0134400Y0036100D02*
D03*
X0127500Y0074600D02*
D03*
X0135000Y0097300D02*
D03*
X0060200Y0062300D02*
D03*
X0094300Y0031600D02*
D03*
X0108100Y0061200D02*
D03*
X0103000Y0086800D02*
D03*
X0111300Y0052200D02*
D03*
X0080500Y0048600D02*
D03*
X0088900Y0080000D02*
D03*
X0112100Y0037600D02*
D03*
X0131200Y0032500D02*
D03*
X0115300Y0016100D02*
D03*
X0110500Y0042200D02*
D03*
X0093772Y0075500D02*
D03*
X0060600Y0008000D02*
D03*
X0035500Y0031300D02*
D03*
X0081400Y0034000D02*
D03*
X0100100Y0057800D02*
D03*
X0089500Y0031700D02*
D03*
X0089700Y0036500D02*
D03*
X0064900Y0011200D02*
D03*
X0098100Y0086800D02*
D03*
X0094900Y0062800D02*
D03*
X0060000Y0026100D02*
D03*
X0073226Y0026174D02*
D03*
D03*
X0060600Y0101500D02*
D03*
X0073200Y0108800D02*
D03*
X0104000Y0031300D02*
D03*
X0152600Y0115024D02*
D03*
X0015000Y0115000D02*
D03*
X0142500Y0115024D02*
D03*
X0005000Y0115024D02*
D03*
X0025000Y0115024D02*
D03*
Y0105000D02*
D03*
X0086600Y0058400D02*
D03*
X0150700Y0014600D02*
D03*
X0005000Y0005000D02*
D03*
X0064500Y0047600D02*
D03*
X0037794Y0065300D02*
D03*
X0032994Y0064400D02*
D03*
X0005000Y0019024D02*
D03*
Y0032874D02*
D03*
Y0046024D02*
D03*
Y0060000D02*
D03*
Y0073400D02*
D03*
Y0086724D02*
D03*
Y0100200D02*
D03*
D53*
X0059400Y0080600D02*
D03*
X0107400Y0075600D02*
D03*
Y0113600D02*
D03*
X0059400Y0094600D02*
D03*
Y0108600D02*
D03*
D54*
X0043600Y0109700D02*
D03*
D55*
X0033600D02*
D03*
D56*
X0056518Y0043140D02*
D03*
Y0039400D02*
D03*
Y0035660D02*
D03*
X0046282D02*
D03*
Y0043140D02*
D03*
D57*
X0051618Y0026000D02*
D03*
X0041382D02*
D03*
X0093000Y0055618D02*
D03*
Y0045382D02*
D03*
D58*
X0060198Y0054419D02*
D03*
D59*
X0085002Y0045364D02*
D03*
Y0054419D02*
D03*
Y0063474D02*
D03*
D60*
X0123700Y0112511D02*
D03*
Y0088889D02*
D03*
X0042900Y0096011D02*
D03*
Y0072389D02*
D03*
M02*
