%FSAX25Y25*%
%MOIN*%
G70*
G01*
G75*
%ADD10C,0.00800*%
%ADD11R,0.03543X0.03150*%
%ADD12R,0.03150X0.03543*%
%ADD13R,0.03150X0.03150*%
%ADD14R,0.01575X0.04331*%
%ADD15O,0.01575X0.04331*%
%ADD16O,0.01102X0.05512*%
%ADD17O,0.05512X0.01102*%
%ADD18R,0.04724X0.03543*%
%ADD19R,0.03543X0.03150*%
%ADD20O,0.01102X0.05512*%
%ADD21R,0.01102X0.05512*%
%ADD22C,0.03000*%
%ADD23C,0.04000*%
%ADD24C,0.01500*%
%ADD25R,0.04000X0.06000*%
%ADD26O,0.04000X0.06000*%
%ADD27C,0.04000*%
%ADD28C,0.07000*%
%ADD29O,0.07000X0.15000*%
%ADD30R,0.07000X0.15000*%
%ADD31R,0.03543X0.02362*%
%ADD32R,0.04724X0.04724*%
%ADD33R,0.05906X0.12992*%
%ADD34R,0.05906X0.03937*%
%ADD35R,0.09449X0.07874*%
%ADD36C,0.02500*%
%ADD37C,0.02000*%
%ADD38C,0.07000*%
D10*
X0010512Y0018530D02*
G03*
X0009721Y0016621I0001909J-0001909D01*
G01*
X0010512Y0018530D02*
G03*
X0009721Y0016621I0001909J-0001909D01*
G01*
X0010700Y0008638D02*
G03*
X0014882Y0009290I0001721J0002698D01*
G01*
G03*
X0019803Y0009290I0002461J0002046D01*
G01*
X0010700Y0022138D02*
G03*
X0014081Y0022099I0001721J0002698D01*
G01*
X0020715Y0008535D02*
G03*
X0021132Y0007805I0001549J0000401D01*
G01*
X0020715Y0008535D02*
G03*
X0021132Y0007805I0001549J0000401D01*
G01*
X0019803Y0009290D02*
G03*
X0020715Y0008535I0002461J0002046D01*
G01*
X0021967Y0006970D02*
G03*
X0023100Y0006500I0001133J0001130D01*
G01*
X0021969Y0006969D02*
G03*
X0023100Y0006500I0001131J0001131D01*
G01*
X0024724Y0055881D02*
G03*
X0023391Y0056830I-0002461J-0002046D01*
G01*
G03*
X0025400Y0059800I-0001191J0002970D01*
G01*
X0029646Y0055881D02*
G03*
X0024724Y0055881I-0002461J-0002046D01*
G01*
X0034567D02*
G03*
X0029646Y0055881I-0002461J-0002046D01*
G01*
X0039700Y0055595D02*
G03*
X0034567Y0055881I-0002672J-0001760D01*
G01*
X0025400Y0059800D02*
G03*
X0023838Y0062549I-0003200J0000000D01*
G01*
G03*
X0024724Y0063289I-0001574J0002786D01*
G01*
G03*
X0030385Y0065335I0002461J0002046D01*
G01*
X0040169Y0065331D02*
G03*
X0039700Y0064200I0001131J-0001131D01*
G01*
X0040170Y0065333D02*
G03*
X0039700Y0064200I0001130J-0001133D01*
G01*
X0055900Y0006500D02*
G03*
X0057031Y0006969I0000000J0001600D01*
G01*
X0055900Y0006500D02*
G03*
X0057033Y0006970I0000000J0001600D01*
G01*
X0049735Y0036885D02*
G03*
X0051468Y0037603I0000000J0002450D01*
G01*
X0049735Y0036885D02*
G03*
X0051470Y0037605I0000000J0002450D01*
G01*
X0070528Y0007774D02*
G03*
X0076188Y0005728I0003200J0000000D01*
G01*
X0057700Y0032500D02*
G03*
X0056567Y0032030I0000000J-0001600D01*
G01*
X0057700Y0032500D02*
G03*
X0056569Y0032031I0000000J-0001600D01*
G01*
X0058507Y0033279D02*
G03*
X0058829Y0032500I0003093J0000821D01*
G01*
X0060905Y0037224D02*
G03*
X0059490Y0036506I0000695J-0003124D01*
G01*
X0062800Y0038919D02*
G03*
X0062091Y0038409I0001200J-0002419D01*
G01*
X0066300Y0006400D02*
G03*
X0067431Y0006869I0000000J0001600D01*
G01*
X0076188Y0005728D02*
G03*
X0081109Y0005728I0002461J0002046D01*
G01*
X0057458Y0007395D02*
G03*
X0063371Y0006400I0003142J0000605D01*
G01*
X0066300D02*
G03*
X0067433Y0006870I0000000J0001600D01*
G01*
X0062800Y0038919D02*
G03*
X0062091Y0038409I0001200J-0002419D01*
G01*
X0049468Y0043932D02*
G03*
X0049254Y0043688I0001732J-0001732D01*
G01*
X0049470Y0043935D02*
G03*
X0049254Y0043688I0001730J-0001735D01*
G01*
X0052930Y0039065D02*
G03*
X0053547Y0040095I-0001730J0001735D01*
G01*
X0052932Y0039068D02*
G03*
X0053547Y0040095I-0001732J0001732D01*
G01*
X0054000Y0059600D02*
G03*
X0055909Y0060391I0000000J0002700D01*
G01*
X0054000Y0059600D02*
G03*
X0055909Y0060391I0000000J0002700D01*
G01*
X0057095Y0045521D02*
G03*
X0056518Y0045590I-0000577J-0002381D01*
G01*
X0057095Y0045521D02*
G03*
X0056518Y0045590I-0000577J-0002381D01*
G01*
X0063591Y0044209D02*
G03*
X0062800Y0042300I0001909J-0001909D01*
G01*
X0063591Y0044209D02*
G03*
X0062800Y0042300I0001909J-0001909D01*
G01*
X0068582Y0048082D02*
G03*
X0066673Y0047291I0000000J-0002700D01*
G01*
X0068582Y0048082D02*
G03*
X0066673Y0047291I0000000J-0002700D01*
G01*
X0080849Y0051781D02*
G03*
X0077342Y0048082I-0000349J-0003181D01*
G01*
X0071363Y0061211D02*
G03*
X0073626Y0060274I0002263J0002263D01*
G01*
X0071360Y0061214D02*
G03*
X0073626Y0060274I0002266J0002260D01*
G01*
X0014160Y0083522D02*
G03*
X0010700Y0083533I-0001738J-0002687D01*
G01*
X0009721Y0089079D02*
G03*
X0010512Y0087170I0002700J0000000D01*
G01*
X0009721Y0089079D02*
G03*
X0010512Y0087170I0002700J0000000D01*
G01*
X0024724Y0069381D02*
G03*
X0020042Y0069639I-0002461J-0002046D01*
G01*
Y0076532D02*
G03*
X0024724Y0076790I0002221J0002303D01*
G01*
Y0082881D02*
G03*
X0020042Y0083139I-0002461J-0002046D01*
G01*
X0030385Y0067335D02*
G03*
X0024724Y0069381I-0003200J0000000D01*
G01*
X0024724Y0076790D02*
G03*
X0030385Y0078835I0002461J0002046D01*
G01*
Y0080835D02*
G03*
X0024724Y0082881I-0003200J0000000D01*
G01*
X0020042Y0084158D02*
G03*
X0019252Y0086067I-0002700J0000000D01*
G01*
X0020042Y0084158D02*
G03*
X0019252Y0086067I-0002700J0000000D01*
G01*
X0015770Y0089548D02*
G03*
X0019803Y0090290I0001572J0002787D01*
G01*
X0028900Y0089900D02*
G03*
X0030280Y0086573I0004700J0000000D01*
G01*
X0028900Y0089900D02*
G03*
X0030277Y0086577I0004700J0000000D01*
G01*
X0014882Y0109881D02*
G03*
X0010700Y0110533I-0002461J-0002046D01*
G01*
X0019803Y0096381D02*
G03*
X0015121Y0096639I-0002461J-0002046D01*
G01*
X0019803Y0090290D02*
G03*
X0025464Y0092335I0002461J0002046D01*
G01*
Y0094335D02*
G03*
X0019803Y0096381I-0003200J0000000D01*
G01*
X0020542Y0107835D02*
G03*
X0014882Y0109881I-0003200J0000000D01*
G01*
X0015121Y0103532D02*
G03*
X0020542Y0105835I0002221J0002303D01*
G01*
X0058386Y0099189D02*
G03*
X0062500Y0091067I0001014J-0004589D01*
G01*
X0073520Y0068105D02*
G03*
X0076900Y0071300I0000180J0003195D01*
G01*
G03*
X0072100Y0074071I-0003200J0000000D01*
G01*
X0062500Y0084133D02*
G03*
X0059150Y0085293I-0003100J-0003533D01*
G01*
X0072100Y0091629D02*
G03*
X0076471Y0092800I0001600J0002771D01*
G01*
X0086012Y0081377D02*
G03*
X0085714Y0079697I-0003186J-0000303D01*
G01*
X0038900Y0105700D02*
G03*
X0042430Y0101148I0004700J0000000D01*
G01*
X0044770D02*
G03*
X0048300Y0105700I-0001170J0004552D01*
G01*
X0041491Y0117900D02*
G03*
X0038900Y0113700I0002110J-0004200D01*
G01*
X0048300D02*
G03*
X0045709Y0117900I-0004700J0000000D01*
G01*
X0058570Y0103974D02*
G03*
X0058386Y0099189I0002030J-0002474D01*
G01*
X0062842Y0111800D02*
G03*
X0058570Y0103974I-0003442J-0003200D01*
G01*
X0068863Y0110863D02*
G03*
X0066600Y0111800I-0002263J-0002263D01*
G01*
X0075971Y0110400D02*
G03*
X0070107Y0109619I-0002771J-0001600D01*
G01*
X0068866Y0110860D02*
G03*
X0066600Y0111800I-0002266J-0002260D01*
G01*
X0081109Y0005728D02*
G03*
X0086031Y0005728I0002461J0002046D01*
G01*
G03*
X0090952Y0005728I0002461J0002046D01*
G01*
G03*
X0095873Y0005728I0002461J0002046D01*
G01*
G03*
X0100794Y0005728I0002461J0002046D01*
G01*
G03*
X0104976Y0005076I0002461J0002046D01*
G01*
X0111591Y0009891D02*
G03*
X0113500Y0009100I0001909J0001909D01*
G01*
X0111591Y0009891D02*
G03*
X0113500Y0009100I0001909J0001909D01*
G01*
X0117973Y0007774D02*
G03*
X0123633Y0005728I0003200J0000000D01*
G01*
G03*
X0128554Y0005728I0002461J0002046D01*
G01*
X0117100Y0009100D02*
G03*
X0117973Y0009245I0000000J0002700D01*
G01*
X0117100Y0009100D02*
G03*
X0117973Y0009245I0000000J0002700D01*
G01*
X0116067Y0031370D02*
G03*
X0117200Y0030900I0001133J0001130D01*
G01*
X0116069Y0031369D02*
G03*
X0117200Y0030900I0001131J0001131D01*
G01*
X0083700Y0048600D02*
G03*
X0082293Y0051250I-0003200J0000000D01*
G01*
X0113600Y0033100D02*
G03*
X0113130Y0034233I-0001600J0000000D01*
G01*
X0113600Y0033100D02*
G03*
X0113131Y0034231I-0001600J0000000D01*
G01*
X0085002Y0060274D02*
G03*
X0085449Y0060306I0000000J0003200D01*
G01*
X0090000Y0061500D02*
G03*
X0090470Y0060367I0001600J0000000D01*
G01*
X0090000Y0061500D02*
G03*
X0090469Y0060369I0001600J0000000D01*
G01*
X0115191Y0036772D02*
G03*
X0115300Y0037600I-0003091J0000828D01*
G01*
G03*
X0115243Y0038204I-0003200J0000000D01*
G01*
X0128300Y0057350D02*
G03*
X0129679Y0057921I0000000J0001950D01*
G01*
X0128300Y0057350D02*
G03*
X0129679Y0057921I0000000J0001950D01*
G01*
X0128554Y0005728D02*
G03*
X0133476Y0005728I0002461J0002046D01*
G01*
G03*
X0138397Y0005728I0002461J0002046D01*
G01*
G03*
X0143318Y0005728I0002461J0002046D01*
G01*
G03*
X0147500Y0005076I0002461J0002046D01*
G01*
X0133476Y0025320D02*
G03*
X0127872Y0023874I-0002461J-0002046D01*
G01*
X0134336Y0026045D02*
G03*
X0133476Y0025320I0001600J-0002771D01*
G01*
X0134805Y0028668D02*
G03*
X0134336Y0027536I0001131J-0001131D01*
G01*
X0134806Y0028669D02*
G03*
X0134336Y0027536I0001130J-0001133D01*
G01*
X0128429Y0030900D02*
G03*
X0134400Y0032500I0002771J0001600D01*
G01*
X0147500Y0012472D02*
G03*
X0146588Y0012870I-0001721J-0002698D01*
G01*
X0147688Y0013970D02*
G03*
X0148479Y0015879I-0001909J0001909D01*
G01*
X0147688Y0013970D02*
G03*
X0148479Y0015879I-0001909J0001909D01*
G01*
X0134400Y0032500D02*
G03*
X0128429Y0034100I-0003200J0000000D01*
G01*
X0130285Y0058527D02*
G03*
X0133900Y0061700I0000415J0003173D01*
G01*
G03*
X0131494Y0064800I-0003200J0000000D01*
G01*
X0085449Y0066642D02*
G03*
X0085002Y0066674I-0000448J-0003168D01*
G01*
X0087300Y0071158D02*
G03*
X0087770Y0070025I0001600J0000000D01*
G01*
X0087300Y0071158D02*
G03*
X0087769Y0070026I0001600J0000000D01*
G01*
X0085714Y0079697D02*
G03*
X0087300Y0077229I0003186J0000303D01*
G01*
X0092172Y0078271D02*
G03*
X0093317Y0072333I0001600J-0002771D01*
G01*
X0090500Y0077229D02*
G03*
X0092100Y0080000I-0001600J0002771D01*
G01*
G03*
X0086012Y0081377I-0003200J0000000D01*
G01*
X0090967Y0090470D02*
G03*
X0092100Y0090000I0001133J0001130D01*
G01*
X0090969Y0090469D02*
G03*
X0092100Y0090000I0001131J0001131D01*
G01*
X0092640Y0089603D02*
G03*
X0092172Y0088472I0001131J-0001131D01*
G01*
X0092642Y0089604D02*
G03*
X0092172Y0088472I0001130J-0001133D01*
G01*
X0093200Y0068458D02*
G03*
X0092730Y0069591I-0001600J0000000D01*
G01*
X0093200Y0068458D02*
G03*
X0092731Y0069589I-0001600J0000000D01*
G01*
X0121100Y0073127D02*
G03*
X0119900Y0072018I0001500J-0002827D01*
G01*
X0125693Y0071119D02*
G03*
X0124300Y0073011I-0003093J-0000819D01*
G01*
X0121569Y0077631D02*
G03*
X0121100Y0076500I0001131J-0001131D01*
G01*
X0128700Y0072800D02*
G03*
X0126435Y0071860I0000000J-0003200D01*
G01*
X0128700Y0072800D02*
G03*
X0126437Y0071863I0000000J-0003200D01*
G01*
X0121570Y0077633D02*
G03*
X0121100Y0076500I0001130J-0001133D01*
G01*
X0126300Y0081700D02*
G03*
X0125167Y0081230I0000000J-0001600D01*
G01*
X0126300Y0081700D02*
G03*
X0125169Y0081231I0000000J-0001600D01*
G01*
X0109818Y0096107D02*
G03*
X0112800Y0099300I-0000218J0003193D01*
G01*
X0105503Y0117900D02*
G03*
X0112100Y0113600I0001897J-0004300D01*
G01*
X0095194Y0109931D02*
G03*
X0094063Y0110400I-0001131J-0001131D01*
G01*
X0095196Y0109930D02*
G03*
X0094063Y0110400I-0001133J-0001130D01*
G01*
X0112100Y0113600D02*
G03*
X0109297Y0117900I-0004700J0000000D01*
G01*
X0115552Y0094563D02*
G03*
X0113289Y0095500I-0002263J-0002263D01*
G01*
X0115554Y0094560D02*
G03*
X0113289Y0095500I-0002266J-0002260D01*
G01*
X0112800Y0099300D02*
G03*
X0112371Y0100900I-0003200J0000000D01*
G01*
X0115809Y0098928D02*
G03*
X0121800Y0096747I0003091J-0000828D01*
G01*
G03*
X0127900Y0098100I0002900J0001353D01*
G01*
G03*
X0123872Y0101191I-0003200J0000000D01*
G01*
X0119831Y0105231D02*
G03*
X0118700Y0105700I-0001131J-0001131D01*
G01*
X0119833Y0105230D02*
G03*
X0118700Y0105700I-0001133J-0001130D01*
G01*
X0133500Y0078500D02*
G03*
X0134631Y0078969I0000000J0001600D01*
G01*
X0133500Y0078500D02*
G03*
X0134633Y0078970I0000000J0001600D01*
G01*
X0137658Y0075274D02*
G03*
X0138828Y0072800I0003200J0000000D01*
G01*
X0142579Y0079972D02*
G03*
X0137658Y0077274I-0001721J-0002698D01*
G01*
X0135772Y0080109D02*
G03*
X0139800Y0083200I0000828J0003091D01*
G01*
G03*
X0133509Y0082372I-0003200J0000000D01*
G01*
X0137658Y0088774D02*
G03*
X0142579Y0086076I0003200J0000000D01*
G01*
Y0093472D02*
G03*
X0137658Y0090774I-0001721J-0002698D01*
G01*
X0129417Y0107374D02*
G03*
X0133428Y0104609I0003183J0000326D01*
G01*
X0135895Y0102143D02*
G03*
X0137026Y0101674I0001131J0001131D01*
G01*
X0135893Y0102144D02*
G03*
X0137026Y0101674I0001133J0001130D01*
G01*
X0135691Y0106872D02*
G03*
X0135800Y0107700I-0003091J0000828D01*
G01*
G03*
X0129624Y0108877I-0003200J0000000D01*
G01*
X0137714Y0101674D02*
G03*
X0142579Y0099576I0003143J0000600D01*
G01*
X0143318Y0106320D02*
G03*
X0137714Y0104874I-0002461J-0002046D01*
G01*
X0147500Y0106972D02*
G03*
X0143318Y0106320I-0001721J-0002698D01*
G01*
X0137658Y0029258D02*
Y0065042D01*
X0117200Y0032500D02*
X0131200D01*
X0112100Y0037600D02*
X0117200Y0032500D01*
X0125900Y0062200D02*
X0130100Y0066400D01*
X0119300Y0062200D02*
X0125900D01*
X0113500Y0068000D02*
X0119300Y0062200D01*
X0023100Y0008100D02*
X0055900D01*
X0022264Y0008936D02*
X0023100Y0008100D01*
X0055900D02*
X0064074Y0016274D01*
X0048151Y0010649D02*
X0056186D01*
X0063411Y0017874D01*
X0046465Y0012335D02*
X0048151Y0010649D01*
X0022264Y0008936D02*
Y0012335D01*
X0046282Y0024718D02*
Y0035660D01*
X0048600Y0022400D02*
X0054537D01*
X0046282Y0024718D02*
X0048600Y0022400D01*
X0057700Y0030900D02*
X0063000D01*
X0055200Y0028400D02*
X0057700Y0030900D01*
X0055200Y0023063D02*
Y0028400D01*
X0054537Y0022400D02*
X0055200Y0023063D01*
X0058400Y0029300D02*
X0063700D01*
X0056800Y0027700D02*
X0058400Y0029300D01*
X0056800Y0022400D02*
Y0027700D01*
X0055200Y0020800D02*
X0056800Y0022400D01*
X0063700Y0029300D02*
X0066100Y0031700D01*
X0066900Y0033300D02*
X0074900Y0041300D01*
X0063000Y0030900D02*
X0065400Y0033300D01*
X0066900D01*
X0057949Y0019200D02*
X0061523Y0022774D01*
X0076126D01*
X0034037Y0017600D02*
X0058612D01*
X0062086Y0021074D01*
X0050700Y0014274D02*
X0057548D01*
X0062748Y0019474D01*
X0064074Y0016274D02*
X0087811D01*
X0135936Y0022274D02*
Y0027536D01*
X0137658Y0029258D01*
X0134400Y0029600D02*
Y0036100D01*
X0131800Y0027000D02*
X0134400Y0029600D01*
X0122700Y0068700D02*
Y0076500D01*
X0136300Y0066400D02*
X0137658Y0065042D01*
X0130100Y0066400D02*
X0136300D01*
X0133558Y0074600D02*
X0140000Y0081042D01*
X0127500Y0074600D02*
X0133558D01*
X0137658Y0087442D02*
Y0094642D01*
Y0087442D02*
X0140000Y0085100D01*
Y0081042D02*
Y0085100D01*
X0135000Y0097300D02*
X0137658Y0094642D01*
X0107163Y0064400D02*
X0109500D01*
X0111300Y0062600D01*
Y0059100D02*
Y0062600D01*
X0110200Y0066000D02*
X0112900Y0063300D01*
Y0058400D02*
Y0063300D01*
X0101800Y0078700D02*
X0107800Y0084700D01*
X0107900Y0066000D02*
X0110200D01*
X0100200Y0071363D02*
Y0079400D01*
Y0071363D02*
X0107163Y0064400D01*
X0101800Y0072100D02*
X0107900Y0066000D01*
X0101800Y0072100D02*
Y0078700D01*
X0098600Y0070700D02*
X0108100Y0061200D01*
X0100200Y0079400D02*
X0106200Y0085400D01*
X0098600Y0082400D02*
X0103000Y0086800D01*
X0098600Y0070700D02*
Y0082400D01*
X0094900Y0062800D02*
X0101900D01*
X0094900D02*
Y0072100D01*
X0097000Y0074200D01*
Y0076800D01*
X0095700Y0078100D02*
X0097000Y0076800D01*
X0095700Y0078100D02*
Y0084400D01*
X0098100Y0086800D01*
X0106200Y0085400D02*
Y0088200D01*
X0119200Y0027000D02*
X0131800D01*
X0071426Y0024374D02*
X0073226Y0026174D01*
X0065300Y0024374D02*
X0071426D01*
X0063574Y0026100D02*
X0065300Y0024374D01*
X0060000Y0026100D02*
X0063574D01*
X0101900Y0062800D02*
X0104900Y0059800D01*
X0030400Y0021237D02*
X0034037Y0017600D01*
X0030400Y0021237D02*
Y0028500D01*
X0135936Y0019036D02*
Y0022274D01*
X0134100Y0017200D02*
X0135936Y0019036D01*
X0116400Y0017200D02*
X0134100D01*
X0115300Y0016100D02*
X0116400Y0017200D01*
X0091600Y0061500D02*
Y0068458D01*
Y0061500D02*
X0093500Y0059600D01*
X0096300D01*
X0097900Y0061200D01*
X0101237D01*
X0103300Y0059137D01*
X0022264Y0012335D02*
X0022264D01*
X0041949D02*
X0046465D01*
X0076126Y0022774D02*
X0077826Y0024474D01*
X0030900Y0033000D02*
X0032000Y0031900D01*
X0096800Y0054500D02*
X0100100Y0057800D01*
X0064900Y0011200D02*
X0068374Y0014674D01*
X0088474D01*
X0132600Y0107700D02*
X0137026Y0103274D01*
X0140858D01*
X0123700Y0104000D02*
X0130400Y0097300D01*
X0135000D01*
X0109900Y0057700D02*
X0111300Y0059100D01*
X0106500Y0054263D02*
X0109919Y0057681D01*
X0108100Y0053600D02*
X0112900Y0058400D01*
X0060600Y0101500D02*
X0064100Y0098000D01*
X0065200Y0099163D02*
Y0103100D01*
Y0099163D02*
X0065700Y0098663D01*
Y0077818D02*
Y0098663D01*
X0088900Y0071158D02*
X0091600Y0068458D01*
X0088900Y0071158D02*
Y0080000D01*
X0073700Y0094400D02*
X0089300D01*
X0093772Y0075500D02*
Y0088472D01*
X0104400Y0090000D02*
X0106200Y0088200D01*
X0093772Y0088472D02*
X0095300Y0090000D01*
X0104400D01*
X0089300Y0094400D02*
X0092100Y0091600D01*
X0118700Y0104100D02*
X0124700Y0098100D01*
X0114500Y0102500D02*
X0118900Y0098100D01*
X0096600Y0104000D02*
X0098100Y0102500D01*
X0074800Y0104000D02*
X0096600D01*
X0098100Y0102500D02*
X0114500D01*
X0094063Y0108800D02*
X0098763Y0104100D01*
X0073200Y0108800D02*
X0094063D01*
X0098763Y0104100D02*
X0118700D01*
X0094500Y0100600D02*
X0101600D01*
X0102900Y0099300D01*
X0109600D01*
X0066100Y0031700D02*
X0079100D01*
X0082000Y0034600D01*
X0062086Y0021074D02*
X0079000D01*
X0068600Y0027700D02*
X0070300Y0029400D01*
X0081400D01*
X0084600Y0032600D01*
Y0037200D01*
X0087100Y0039700D01*
X0086300Y0035400D02*
X0087400Y0036500D01*
X0089700D01*
X0089500Y0029300D02*
Y0031700D01*
X0062748Y0019474D02*
X0079674D01*
X0063411Y0017874D02*
X0080574D01*
X0089174Y0013074D02*
X0100733Y0024633D01*
X0088474Y0014674D02*
X0099100Y0025300D01*
X0087811Y0016274D02*
X0097500Y0025963D01*
X0108900Y0040600D02*
X0110500Y0042200D01*
X0108100Y0047700D02*
Y0053600D01*
X0106500Y0048400D02*
Y0054263D01*
X0104900Y0049100D02*
Y0059800D01*
X0103300Y0049800D02*
Y0059137D01*
X0100100Y0048900D02*
Y0051200D01*
X0100000Y0046500D02*
X0103300Y0049800D01*
X0101600Y0045800D02*
X0104900Y0049100D01*
X0103200Y0045100D02*
X0106500Y0048400D01*
X0104900Y0044500D02*
X0108100Y0047700D01*
X0098400Y0047200D02*
X0100100Y0048900D01*
X0087100Y0039700D02*
X0096100D01*
X0074900Y0041300D02*
X0095400D01*
X0100733Y0024633D02*
Y0037433D01*
X0099100Y0025300D02*
Y0038100D01*
X0097500Y0025963D02*
Y0038800D01*
X0104900Y0039300D02*
Y0044500D01*
X0108900Y0036200D02*
Y0040600D01*
X0104000Y0038400D02*
X0104900Y0039300D01*
X0104000Y0031300D02*
Y0038400D01*
X0133500Y0080100D02*
X0136600Y0083200D01*
X0122700Y0076500D02*
X0126300Y0080100D01*
X0133500D01*
X0112000Y0024300D02*
X0114026Y0022274D01*
X0112000Y0024300D02*
Y0033100D01*
X0108900Y0036200D02*
X0112000Y0033100D01*
X0114026Y0022274D02*
X0131015D01*
X0079674Y0019474D02*
X0089500Y0029300D01*
X0080574Y0017874D02*
X0094300Y0031600D01*
X0079000Y0021074D02*
X0086300Y0028374D01*
Y0035400D01*
X0100733Y0037433D02*
X0103200Y0039900D01*
Y0045100D01*
X0099100Y0038100D02*
X0101600Y0040600D01*
Y0045800D01*
X0097500Y0038800D02*
X0100000Y0041300D01*
Y0046500D01*
X0096100Y0039700D02*
X0098400Y0042000D01*
Y0047200D01*
X0095400Y0041300D02*
X0096800Y0042700D01*
Y0054500D01*
X0032106Y0039335D02*
Y0042806D01*
X0027185Y0039335D02*
Y0042985D01*
X0032106Y0042806D02*
X0034300Y0045000D01*
X0039600D01*
X0027185Y0042985D02*
X0031300Y0047100D01*
X0022264Y0034336D02*
X0024600Y0032000D01*
X0026900D02*
X0030400Y0028500D01*
X0024600Y0032000D02*
X0026900D01*
X0022264Y0034336D02*
Y0039335D01*
X0037000Y0019200D02*
X0057949D01*
X0032000Y0024200D02*
X0037000Y0019200D01*
X0032000Y0024200D02*
Y0031900D01*
X0035500Y0024300D02*
X0039000Y0020800D01*
X0035500Y0024300D02*
Y0031300D01*
X0039000Y0020800D02*
X0055200D01*
X0111200Y0087500D02*
X0113500Y0085200D01*
Y0068000D02*
Y0085200D01*
X0092100Y0091600D02*
X0105200D01*
X0107800Y0089000D01*
Y0084700D02*
Y0089000D01*
X0060600Y0008000D02*
X0066300D01*
X0071374Y0013074D01*
X0089174D01*
X0064100Y0078481D02*
Y0098000D01*
X0056900Y0075900D02*
X0061519D01*
X0064100Y0078481D01*
X0048100Y0067100D02*
X0056900Y0075900D01*
X0062182Y0074300D02*
X0065700Y0077818D01*
X0057600Y0074300D02*
X0062182D01*
X0048800Y0065500D02*
X0057600Y0074300D01*
X0039600Y0045000D02*
X0043000Y0048400D01*
Y0063600D02*
X0044900Y0065500D01*
X0048800D01*
X0043000Y0048400D02*
Y0063600D01*
X0039300Y0047100D02*
X0041300Y0049100D01*
Y0064200D01*
X0044200Y0067100D01*
X0048100D01*
X0031300Y0047100D02*
X0039300D01*
X0002000Y0008224D02*
X0004300D01*
X0002000Y0008824D02*
X0004300D01*
X0002000Y0009424D02*
X0004300D01*
X0002000Y0010024D02*
X0004300D01*
X0002000Y0010624D02*
X0004300D01*
X0004794Y0002000D02*
Y0008135D01*
X0005394Y0002000D02*
Y0008135D01*
X0002000Y0011224D02*
X0004300D01*
X0005994Y0002000D02*
Y0008135D01*
X0002000Y0011824D02*
X0004300D01*
X0002000Y0012424D02*
X0004300D01*
X0002000Y0013024D02*
X0004300D01*
X0002000Y0013624D02*
X0004300D01*
X0002000Y0014224D02*
X0004300D01*
X0002000Y0014824D02*
X0004300D01*
Y0008135D02*
Y0016535D01*
X0002000Y0015424D02*
X0004300D01*
X0002000Y0016024D02*
X0004300D01*
X0004794Y0016535D02*
Y0021635D01*
X0005394Y0016535D02*
Y0021635D01*
X0006594Y0002000D02*
Y0008135D01*
X0002000Y0007024D02*
X0021913D01*
X0004700Y0012335D02*
X0007500D01*
X0002000Y0007624D02*
X0021313D01*
X0004300Y0008135D02*
X0010700D01*
X0007194Y0002000D02*
Y0008135D01*
X0007794Y0002000D02*
Y0008135D01*
X0007500Y0008535D02*
Y0012335D01*
X0008394Y0002000D02*
Y0008135D01*
X0008994Y0002000D02*
Y0008135D01*
X0004300Y0016535D02*
X0009721D01*
X0002000Y0016624D02*
X0009721D01*
X0002000Y0017224D02*
X0009789D01*
X0002000Y0017824D02*
X0010004D01*
X0002000Y0018424D02*
X0010412D01*
X0005994Y0016535D02*
Y0021635D01*
X0007500Y0012335D02*
Y0016135D01*
X0006594Y0016535D02*
Y0021635D01*
X0007194Y0016535D02*
Y0021635D01*
X0007794Y0016535D02*
Y0021635D01*
X0008394Y0016535D02*
Y0021635D01*
X0002000Y0022024D02*
X0004300D01*
X0002000Y0022624D02*
X0004300D01*
X0002000Y0023224D02*
X0004300D01*
X0002000Y0023824D02*
X0004300D01*
X0002000Y0024424D02*
X0004300D01*
X0002000Y0025024D02*
X0004300D01*
X0002000Y0025624D02*
X0004300D01*
X0002000Y0026224D02*
X0004300D01*
X0002000Y0026824D02*
X0004300D01*
X0002000Y0027424D02*
X0004300D01*
X0002000Y0028024D02*
X0004300D01*
X0002000Y0028624D02*
X0004300D01*
X0002000Y0029224D02*
X0004300D01*
X0002000Y0029824D02*
X0004300D01*
X0002000Y0035224D02*
X0004300D01*
X0004300Y0021635D02*
Y0030035D01*
X0004794D02*
Y0035135D01*
X0005394Y0030035D02*
Y0035135D01*
X0005994Y0030035D02*
Y0035135D01*
X0006594Y0030035D02*
Y0035135D01*
X0002000Y0019024D02*
X0011006D01*
X0002000Y0019624D02*
X0011606D01*
X0002000Y0020224D02*
X0012206D01*
X0002000Y0020824D02*
X0012806D01*
X0002000Y0021424D02*
X0013406D01*
X0007500Y0022035D02*
Y0025835D01*
X0004300Y0021635D02*
X0010700D01*
X0004700Y0025835D02*
X0007500D01*
Y0029635D01*
X0004300Y0030035D02*
X0009721D01*
X0002000Y0030424D02*
X0009721D01*
X0002000Y0031024D02*
X0009721D01*
X0002000Y0031624D02*
X0009721D01*
X0002000Y0032224D02*
X0009721D01*
X0002000Y0032824D02*
X0009721D01*
X0007194Y0030035D02*
Y0035135D01*
X0007794Y0030035D02*
Y0035135D01*
X0008394Y0030035D02*
Y0035135D01*
X0002000Y0033424D02*
X0009721D01*
X0002000Y0034024D02*
X0009721D01*
X0002000Y0034624D02*
X0009721D01*
X0009594Y0002000D02*
Y0008135D01*
X0010194Y0002000D02*
Y0008135D01*
X0011394Y0002000D02*
Y0008305D01*
X0011994Y0002000D02*
Y0008164D01*
X0012594Y0002000D02*
Y0008140D01*
X0013194Y0002000D02*
Y0008230D01*
X0016194Y0002000D02*
Y0008349D01*
X0016794Y0002000D02*
Y0008183D01*
X0020994Y0002000D02*
Y0007963D01*
X0017394Y0002000D02*
Y0008136D01*
X0010794Y0002000D02*
Y0008580D01*
X0013794Y0002000D02*
Y0008445D01*
X0014394Y0002000D02*
Y0008816D01*
X0015594Y0002000D02*
Y0008655D01*
X0014994Y0002000D02*
Y0009162D01*
X0017994Y0002000D02*
Y0008202D01*
X0018594Y0002000D02*
Y0008390D01*
X0019194Y0002000D02*
Y0008725D01*
X0020394Y0002000D02*
Y0008739D01*
X0019794Y0002000D02*
Y0009278D01*
X0022794Y0002000D02*
Y0006530D01*
X0023394Y0002000D02*
Y0006500D01*
X0023994Y0002000D02*
Y0006500D01*
X0024594Y0002000D02*
Y0006500D01*
X0025194Y0002000D02*
Y0006500D01*
X0025794Y0002000D02*
Y0006500D01*
X0026394Y0002000D02*
Y0006500D01*
X0026994Y0002000D02*
Y0006500D01*
X0027594Y0002000D02*
Y0006500D01*
X0028194Y0002000D02*
Y0006500D01*
X0021594Y0002000D02*
Y0007344D01*
X0022194Y0002000D02*
Y0006781D01*
X0028794Y0002000D02*
Y0006500D01*
X0029394Y0002000D02*
Y0006500D01*
X0029994Y0002000D02*
Y0006500D01*
X0030594Y0002000D02*
Y0006500D01*
X0031194Y0002000D02*
Y0006500D01*
X0031794Y0002000D02*
Y0006500D01*
X0032394Y0002000D02*
Y0006500D01*
X0032994Y0002000D02*
Y0006500D01*
X0033594Y0002000D02*
Y0006500D01*
X0010700Y0008135D02*
Y0008638D01*
Y0008224D02*
X0011671D01*
X0008994Y0016535D02*
Y0021635D01*
X0013171Y0008224D02*
X0016593D01*
X0014405Y0008824D02*
X0015359D01*
X0019326D02*
X0020280D01*
X0009594Y0016535D02*
Y0021635D01*
X0010194Y0018147D02*
Y0021635D01*
X0008994Y0030035D02*
Y0035135D01*
X0010700Y0021635D02*
Y0022138D01*
X0010512Y0018530D02*
X0014081Y0022099D01*
X0010794Y0018812D02*
Y0022080D01*
X0011394Y0019412D02*
Y0021805D01*
X0011994Y0020012D02*
Y0021664D01*
X0012594Y0020612D02*
Y0021640D01*
X0013194Y0021212D02*
Y0021730D01*
X0034194Y0002000D02*
Y0006500D01*
X0034794Y0002000D02*
Y0006500D01*
X0035394Y0002000D02*
Y0006500D01*
X0035994Y0002000D02*
Y0006500D01*
X0036594Y0002000D02*
Y0006500D01*
X0037194Y0002000D02*
Y0006500D01*
X0037794Y0002000D02*
Y0006500D01*
X0038394Y0002000D02*
Y0006500D01*
X0038994Y0002000D02*
Y0006500D01*
X0039594Y0002000D02*
Y0006500D01*
X0021134Y0007803D02*
X0021967Y0006970D01*
X0018092Y0008224D02*
X0020831D01*
X0040194Y0002000D02*
Y0006500D01*
X0040794Y0002000D02*
Y0006500D01*
X0041394Y0002000D02*
Y0006500D01*
X0041994Y0002000D02*
Y0006500D01*
X0002000Y0035824D02*
X0004300D01*
X0002000Y0036424D02*
X0004300D01*
X0002000Y0037024D02*
X0004300D01*
X0002000Y0037624D02*
X0004300D01*
X0002000Y0038224D02*
X0004300D01*
X0002000Y0038824D02*
X0004300D01*
X0002000Y0039424D02*
X0004300D01*
X0002000Y0040024D02*
X0004300D01*
X0002000Y0040624D02*
X0004300D01*
X0002000Y0041224D02*
X0004300D01*
X0002000Y0002000D02*
Y0117900D01*
X0002394Y0002000D02*
Y0117900D01*
X0002000Y0041824D02*
X0004300D01*
X0002000Y0042424D02*
X0004300D01*
X0002000Y0043024D02*
X0004300D01*
X0002994Y0002000D02*
Y0117900D01*
X0003594Y0002000D02*
Y0117900D01*
X0004194Y0002000D02*
Y0117900D01*
X0004300Y0035135D02*
Y0043535D01*
Y0048635D02*
Y0057035D01*
X0002000Y0043624D02*
X0009721D01*
X0002000Y0044224D02*
X0009721D01*
X0002000Y0044824D02*
X0009721D01*
X0002000Y0045424D02*
X0009721D01*
X0002000Y0046024D02*
X0009721D01*
X0007500Y0035535D02*
Y0039335D01*
X0004300Y0035135D02*
X0009721D01*
X0004700Y0039335D02*
X0007500D01*
Y0043135D01*
X0004300Y0043535D02*
X0009721D01*
X0002000Y0046624D02*
X0009721D01*
X0002000Y0047224D02*
X0009721D01*
X0002000Y0049024D02*
X0004300D01*
X0002000Y0047824D02*
X0009721D01*
X0002000Y0048424D02*
X0009721D01*
X0004794Y0043535D02*
Y0048635D01*
X0005394Y0043535D02*
Y0048635D01*
X0005994Y0043535D02*
Y0048635D01*
X0006594Y0043535D02*
Y0048635D01*
X0007194Y0043535D02*
Y0048635D01*
X0004300D02*
X0009721D01*
X0002000Y0049624D02*
X0004300D01*
X0002000Y0050224D02*
X0004300D01*
X0002000Y0050824D02*
X0004300D01*
X0002000Y0051424D02*
X0004300D01*
X0002000Y0052024D02*
X0004300D01*
X0002000Y0052624D02*
X0004300D01*
X0002000Y0053224D02*
X0004300D01*
X0002000Y0053824D02*
X0004300D01*
X0002000Y0054424D02*
X0004300D01*
X0002000Y0055024D02*
X0004300D01*
X0002000Y0055624D02*
X0004300D01*
X0002000Y0056224D02*
X0004300D01*
X0002000Y0056824D02*
X0004300D01*
X0002000Y0062224D02*
X0004300D01*
X0002000Y0062824D02*
X0004300D01*
Y0062135D02*
Y0070535D01*
X0002000Y0063424D02*
X0004300D01*
X0002000Y0064024D02*
X0004300D01*
X0002000Y0064624D02*
X0004300D01*
X0002000Y0065224D02*
X0004300D01*
X0002000Y0065824D02*
X0004300D01*
X0002000Y0057424D02*
X0009721D01*
X0002000Y0058024D02*
X0009721D01*
X0002000Y0058624D02*
X0009721D01*
X0002000Y0059224D02*
X0009721D01*
X0002000Y0059824D02*
X0009721D01*
X0007500Y0049035D02*
Y0052835D01*
X0004700D02*
X0007500D01*
Y0056635D01*
X0004300Y0057035D02*
X0009721D01*
X0002000Y0060424D02*
X0009721D01*
X0004794Y0057035D02*
Y0062135D01*
X0002000Y0061024D02*
X0009721D01*
X0002000Y0066424D02*
X0004300D01*
X0002000Y0061624D02*
X0009721D01*
X0004300Y0062135D02*
X0009721D01*
X0005394Y0057035D02*
Y0062135D01*
X0005994Y0057035D02*
Y0062135D01*
X0006594Y0057035D02*
Y0062135D01*
X0007194Y0057035D02*
Y0062135D01*
X0007500Y0062535D02*
Y0066335D01*
X0004700D02*
X0007500D01*
X0009594Y0030035D02*
Y0035135D01*
X0009721Y0030035D02*
Y0035135D01*
X0007794Y0043535D02*
Y0048635D01*
X0008394Y0043535D02*
Y0048635D01*
X0008994Y0043535D02*
Y0048635D01*
X0009594Y0043535D02*
Y0048635D01*
X0009721Y0043535D02*
Y0048635D01*
X0024393Y0056224D02*
X0025056D01*
X0023406Y0056824D02*
X0026043D01*
X0007794Y0057035D02*
Y0062135D01*
X0008394Y0057035D02*
Y0062135D01*
X0008994Y0057035D02*
Y0062135D01*
X0009594Y0057035D02*
Y0062135D01*
X0009721Y0057035D02*
Y0062135D01*
X0024594Y0056029D02*
Y0057676D01*
X0025194Y0056340D02*
Y0058669D01*
X0023994Y0056528D02*
Y0057150D01*
X0025794Y0056717D02*
Y0062454D01*
X0028794Y0056602D02*
Y0062569D01*
X0029314Y0056224D02*
X0029977D01*
X0028328Y0056824D02*
X0030964D01*
X0034235Y0056224D02*
X0034899D01*
X0033249Y0056824D02*
X0035885D01*
X0039156Y0056224D02*
X0039700D01*
X0038170Y0056824D02*
X0039700D01*
X0029394Y0056151D02*
Y0063020D01*
X0029994Y0056239D02*
Y0063802D01*
X0030594Y0056655D02*
Y0086260D01*
X0034194Y0056261D02*
Y0082660D01*
X0033594Y0056669D02*
Y0083260D01*
X0034794Y0056126D02*
Y0082060D01*
X0039700Y0055595D02*
Y0064200D01*
X0039594Y0055747D02*
Y0067252D01*
X0035394Y0056587D02*
Y0081460D01*
X0038394Y0056729D02*
Y0067252D01*
X0038994Y0056360D02*
Y0067252D01*
X0024594Y0061924D02*
Y0063142D01*
X0024289Y0062224D02*
X0026435D01*
X0024248Y0062824D02*
X0025201D01*
X0026394Y0056936D02*
Y0062235D01*
X0026994Y0057030D02*
Y0062141D01*
X0025194Y0060931D02*
Y0062830D01*
X0027594Y0057009D02*
Y0062161D01*
X0028194Y0056872D02*
Y0062298D01*
X0031194Y0056902D02*
Y0085660D01*
X0031794Y0057020D02*
Y0085060D01*
X0007500Y0066335D02*
Y0070135D01*
X0030385Y0065335D02*
Y0067335D01*
X0032394Y0057022D02*
Y0084460D01*
X0035994Y0056864D02*
Y0080860D01*
X0032994Y0056910D02*
Y0083860D01*
X0036594Y0057006D02*
Y0080260D01*
X0037194Y0057031D02*
Y0067252D01*
X0037794Y0056942D02*
Y0067252D01*
X0024344Y0057424D02*
X0039700D01*
X0024862Y0058024D02*
X0039700D01*
X0025176Y0058624D02*
X0039700D01*
X0025348Y0059224D02*
X0039700D01*
X0024829Y0061624D02*
X0039700D01*
X0025400Y0059824D02*
X0039700D01*
X0025339Y0060424D02*
X0039700D01*
X0025157Y0061024D02*
X0039700D01*
X0027935Y0062224D02*
X0039700D01*
X0029169Y0062824D02*
X0039700D01*
X0029752Y0063424D02*
X0039700D01*
X0030104Y0064024D02*
X0039700D01*
X0030305Y0064624D02*
X0039757D01*
X0030383Y0065224D02*
X0040071D01*
X0030385Y0065824D02*
X0040662D01*
X0040194Y0065356D02*
Y0067252D01*
X0040794Y0065956D02*
Y0067252D01*
X0030385Y0066424D02*
X0041262D01*
X0041394Y0066556D02*
Y0067252D01*
X0042594Y0002000D02*
Y0006500D01*
X0043194Y0002000D02*
Y0006500D01*
X0043794Y0002000D02*
Y0006500D01*
X0044394Y0002000D02*
Y0006500D01*
X0044994Y0002000D02*
Y0006500D01*
X0045594Y0002000D02*
Y0006500D01*
X0046194Y0002000D02*
Y0006500D01*
X0046794Y0002000D02*
Y0006500D01*
X0047394Y0002000D02*
Y0006500D01*
X0047994Y0002000D02*
Y0006500D01*
X0048594Y0002000D02*
Y0006500D01*
X0049194Y0002000D02*
Y0006500D01*
X0047882Y0025381D02*
Y0033279D01*
X0048456Y0026000D02*
X0051618D01*
X0048056Y0025207D02*
Y0029562D01*
X0049794Y0002000D02*
Y0006500D01*
X0050394Y0002000D02*
Y0006500D01*
X0050994Y0002000D02*
Y0006500D01*
X0051594Y0002000D02*
Y0006500D01*
X0051618Y0026000D02*
Y0029162D01*
X0002000Y0002000D02*
X0156240D01*
X0002000Y0002224D02*
X0156240D01*
X0002000Y0002824D02*
X0156240D01*
X0002000Y0003424D02*
X0156240D01*
X0002000Y0004024D02*
X0156240D01*
X0052194Y0002000D02*
Y0006500D01*
X0052794Y0002000D02*
Y0006500D01*
X0002000Y0005824D02*
X0058253D01*
X0002000Y0004624D02*
X0073162D01*
X0002000Y0005224D02*
X0059008D01*
X0053394Y0002000D02*
Y0006500D01*
X0053994Y0002000D02*
Y0006500D01*
X0048056Y0029562D02*
X0054100D01*
X0023100Y0006500D02*
X0055900D01*
X0002000Y0006424D02*
X0057815D01*
X0054594Y0002000D02*
Y0006500D01*
X0055194Y0002000D02*
Y0006500D01*
X0055794Y0002000D02*
Y0006500D01*
X0056394Y0002000D02*
Y0006578D01*
X0048594Y0029562D02*
Y0033279D01*
X0049194Y0029562D02*
Y0033279D01*
X0047882D02*
X0049254D01*
Y0033424D02*
X0053547D01*
X0049254Y0034024D02*
X0053547D01*
X0049254Y0033279D02*
Y0036885D01*
X0049794Y0029562D02*
Y0036886D01*
X0049254Y0034624D02*
X0053547D01*
X0049254Y0035224D02*
X0053547D01*
X0049254Y0035824D02*
X0053547D01*
X0050394Y0029562D02*
Y0036975D01*
X0050994Y0029562D02*
Y0037233D01*
X0049254Y0036885D02*
X0049735D01*
X0051594Y0029562D02*
Y0037729D01*
X0052194Y0029562D02*
Y0038329D01*
X0052794Y0029562D02*
Y0038929D01*
X0053547Y0033279D02*
Y0037019D01*
X0051470Y0037605D02*
X0052930Y0039065D01*
X0047882Y0029824D02*
X0054362D01*
X0047882Y0030424D02*
X0054962D01*
X0047882Y0031024D02*
X0055562D01*
X0047882Y0031624D02*
X0056162D01*
X0047882Y0032224D02*
X0056802D01*
X0053994Y0029562D02*
Y0033279D01*
X0054100Y0029562D02*
X0056567Y0032030D01*
X0054594Y0030056D02*
Y0033279D01*
X0047882Y0032824D02*
X0058665D01*
X0055194Y0030656D02*
Y0033279D01*
X0049254Y0036424D02*
X0053547D01*
X0050549Y0037024D02*
X0053547D01*
X0051489Y0037624D02*
X0053547D01*
X0052089Y0038224D02*
X0053547D01*
X0052689Y0038824D02*
X0053547D01*
Y0037019D02*
Y0038041D01*
X0055794Y0031256D02*
Y0033279D01*
X0053547D02*
X0058507D01*
X0053547Y0037019D02*
Y0038041D01*
X0053227Y0039424D02*
X0053547D01*
X0053947Y0039400D02*
X0056518D01*
X0058194Y0002000D02*
Y0005891D01*
X0058794Y0002000D02*
Y0005359D01*
X0059394Y0002000D02*
Y0005036D01*
X0059994Y0002000D02*
Y0004858D01*
X0060594Y0002000D02*
Y0004800D01*
X0061194Y0002000D02*
Y0004856D01*
X0061794Y0002000D02*
Y0005031D01*
X0062394Y0002000D02*
Y0005350D01*
X0062994Y0002000D02*
Y0005876D01*
X0063594Y0002000D02*
Y0006400D01*
X0056994Y0002000D02*
Y0006932D01*
X0057594Y0002000D02*
Y0006904D01*
X0064194Y0002000D02*
Y0006400D01*
X0064794Y0002000D02*
Y0006400D01*
X0065394Y0002000D02*
Y0006400D01*
X0065994Y0002000D02*
Y0006400D01*
X0066594Y0002000D02*
Y0006427D01*
X0067194Y0002000D02*
Y0006673D01*
X0067794Y0002000D02*
Y0007231D01*
X0068394Y0002000D02*
Y0007831D01*
X0072594Y0002000D02*
Y0004782D01*
X0073194Y0002000D02*
Y0004619D01*
X0073794Y0002000D02*
Y0004575D01*
X0074394Y0002000D02*
Y0004644D01*
X0074994Y0002000D02*
Y0004835D01*
X0077394Y0002000D02*
Y0004831D01*
X0077994Y0002000D02*
Y0004642D01*
X0078594Y0002000D02*
Y0004575D01*
X0079194Y0002000D02*
Y0004621D01*
X0079794Y0002000D02*
Y0004786D01*
X0068994Y0002000D02*
Y0008431D01*
X0069594Y0002000D02*
Y0009031D01*
X0070194Y0002000D02*
Y0009631D01*
X0070794Y0002000D02*
Y0006497D01*
X0071394Y0002000D02*
Y0005585D01*
X0071994Y0002000D02*
Y0005085D01*
X0075594Y0002000D02*
Y0005174D01*
X0076194Y0002000D02*
Y0005722D01*
X0076794Y0002000D02*
Y0005167D01*
X0080394Y0002000D02*
Y0005091D01*
X0057033Y0006970D02*
X0057458Y0007395D01*
X0057087Y0007024D02*
X0057552D01*
X0056394Y0031856D02*
Y0033279D01*
X0056994Y0032336D02*
Y0033279D01*
X0057700Y0032500D02*
X0058829D01*
X0057594Y0032497D02*
Y0033279D01*
X0058194Y0032500D02*
Y0033279D01*
X0059490Y0036506D02*
Y0037019D01*
X0056518Y0039400D02*
X0059090D01*
X0059490Y0037024D02*
X0060301D01*
X0059490Y0037624D02*
X0061306D01*
X0059490Y0037019D02*
Y0038041D01*
Y0037019D02*
Y0038041D01*
X0060905Y0037224D02*
X0062091Y0038409D01*
X0059490Y0038224D02*
X0061906D01*
X0059490Y0038824D02*
X0062626D01*
X0062947Y0005824D02*
X0071190D01*
X0062192Y0005224D02*
X0071794D01*
X0063371Y0006400D02*
X0066300D01*
X0066578Y0006424D02*
X0070826D01*
X0074293Y0004624D02*
X0078083D01*
X0075661Y0005224D02*
X0076715D01*
X0079215Y0004624D02*
X0083004D01*
X0080583Y0005224D02*
X0081636D01*
X0067433Y0006870D02*
X0070534Y0009971D01*
X0059490Y0039424D02*
X0062800D01*
X0067587Y0007024D02*
X0070617D01*
X0068187Y0007624D02*
X0070531D01*
X0070528Y0007774D02*
Y0009774D01*
X0068787Y0008224D02*
X0070528D01*
X0069387Y0008824D02*
X0070528D01*
X0069987Y0009424D02*
X0070528D01*
X0048982Y0046024D02*
X0049425D01*
X0049470Y0043935D02*
X0049750Y0044215D01*
X0048982Y0046624D02*
X0049425D01*
X0049254Y0043688D02*
Y0045521D01*
Y0044224D02*
X0049750D01*
Y0044215D02*
Y0045428D01*
X0049254Y0044824D02*
X0049750D01*
X0049425Y0045428D02*
X0049750D01*
X0048982Y0047224D02*
X0049425D01*
X0048982Y0047824D02*
X0049425D01*
X0048982Y0048424D02*
X0049425D01*
X0048982Y0049024D02*
X0049425D01*
X0048982Y0049624D02*
X0049425D01*
X0048982Y0045521D02*
Y0059600D01*
X0049425Y0045428D02*
Y0051372D01*
X0048982Y0050224D02*
X0049425D01*
X0048982Y0050824D02*
X0049425D01*
Y0051428D02*
Y0057372D01*
X0053394Y0029562D02*
Y0039709D01*
X0053547Y0038041D02*
Y0040095D01*
X0049254Y0045424D02*
X0049750D01*
X0054650Y0045590D02*
X0054975D01*
X0056518D01*
X0054975Y0046024D02*
X0065406D01*
X0054975Y0046624D02*
X0066006D01*
X0054975Y0047224D02*
X0066606D01*
X0054975Y0047824D02*
X0067431D01*
X0054975Y0048424D02*
X0077305D01*
X0049425Y0051372D02*
X0054975D01*
X0049425Y0051428D02*
X0054975D01*
X0048982Y0051424D02*
X0078996D01*
X0054975Y0045590D02*
Y0051372D01*
Y0049024D02*
X0077328D01*
X0055194Y0045590D02*
Y0059878D01*
X0054975Y0049624D02*
X0077468D01*
X0054975Y0050224D02*
X0077743D01*
X0054975Y0050824D02*
X0078200D01*
X0048982Y0052024D02*
X0049425D01*
X0048982Y0052624D02*
X0049425D01*
X0048982Y0053224D02*
X0049425D01*
X0048982Y0053824D02*
X0049425D01*
X0048982Y0054424D02*
X0049425D01*
X0052200Y0051828D02*
Y0054400D01*
X0049825D02*
X0052200D01*
X0048982Y0055024D02*
X0049425D01*
X0048982Y0055624D02*
X0049425D01*
X0048982Y0056224D02*
X0049425D01*
X0048982Y0056824D02*
X0049425D01*
X0049794Y0057372D02*
Y0059600D01*
X0040170Y0065333D02*
X0042089Y0067252D01*
X0050394Y0057372D02*
Y0059600D01*
X0050994Y0057372D02*
Y0059600D01*
X0051594Y0057372D02*
Y0059600D01*
X0052200Y0054400D02*
Y0056972D01*
X0052194Y0057372D02*
Y0059600D01*
X0052794Y0057372D02*
Y0059600D01*
X0053394Y0057372D02*
Y0059600D01*
X0053994Y0057372D02*
Y0059600D01*
X0054975Y0052024D02*
X0080849D01*
X0054975Y0052624D02*
X0080849D01*
X0052200Y0054400D02*
X0054575D01*
X0054975Y0053224D02*
X0080849D01*
X0054975Y0053824D02*
X0080849D01*
X0054975Y0054424D02*
X0080849D01*
X0054975Y0055024D02*
X0080849D01*
X0054975Y0055624D02*
X0080849D01*
X0054975Y0056224D02*
X0080849D01*
X0054975Y0056824D02*
X0080849D01*
X0048982Y0057424D02*
X0080849D01*
X0048982Y0058024D02*
X0089438D01*
X0048982Y0059600D02*
X0054000D01*
X0048982Y0058624D02*
X0089438D01*
X0048982Y0059224D02*
X0091613D01*
X0054594Y0057372D02*
Y0059666D01*
X0054975Y0051428D02*
Y0057372D01*
X0049425D02*
X0054975D01*
X0055078Y0059824D02*
X0091013D01*
X0055794Y0045590D02*
Y0060282D01*
X0057095Y0045521D02*
X0059490D01*
X0056394Y0045590D02*
Y0060875D01*
X0059490Y0038041D02*
Y0040759D01*
X0062800Y0038919D02*
Y0042300D01*
X0059490Y0040759D02*
Y0041781D01*
Y0040759D02*
Y0041781D01*
Y0045521D01*
X0057594D02*
Y0062075D01*
X0058194Y0045521D02*
Y0062675D01*
X0056994Y0045544D02*
Y0061475D01*
X0058794Y0045521D02*
Y0063275D01*
X0059394Y0045521D02*
Y0063875D01*
X0059994Y0036868D02*
Y0063900D01*
X0060594Y0037138D02*
Y0063900D01*
X0061194Y0037512D02*
Y0063900D01*
X0061794Y0038112D02*
Y0063900D01*
X0062394Y0038670D02*
Y0063900D01*
X0059490Y0040024D02*
X0062800D01*
X0059490Y0040624D02*
X0062800D01*
X0059490Y0041224D02*
X0062800D01*
X0059490Y0041824D02*
X0062800D01*
X0059490Y0042424D02*
X0062803D01*
X0059490Y0043024D02*
X0062899D01*
X0059490Y0043624D02*
X0063147D01*
X0059490Y0044224D02*
X0063606D01*
X0062994Y0043304D02*
Y0063900D01*
X0063591Y0044209D02*
X0066673Y0047291D01*
X0063594Y0044212D02*
Y0063900D01*
X0059490Y0044824D02*
X0064206D01*
X0059490Y0045424D02*
X0064806D01*
X0064194Y0044812D02*
Y0063900D01*
X0064794Y0045412D02*
Y0063900D01*
X0065394Y0046012D02*
Y0063900D01*
X0065994Y0046612D02*
Y0063900D01*
X0070194Y0048082D02*
Y0062381D01*
X0055943Y0060424D02*
X0072657D01*
X0057743Y0062224D02*
X0070350D01*
X0056543Y0061024D02*
X0071567D01*
X0057143Y0061624D02*
X0070950D01*
X0070794Y0048082D02*
Y0061781D01*
X0071394Y0048082D02*
Y0061181D01*
X0071994Y0048082D02*
Y0060722D01*
X0072594Y0048082D02*
Y0060445D01*
X0073194Y0048082D02*
Y0060303D01*
X0055909Y0060391D02*
X0059418Y0063900D01*
X0066594Y0047212D02*
Y0063900D01*
X0059418D02*
X0068674D01*
X0058343Y0062824D02*
X0069750D01*
X0058943Y0063424D02*
X0069150D01*
X0067194Y0047698D02*
Y0063900D01*
X0067794Y0047964D02*
Y0063900D01*
X0068394Y0048075D02*
Y0063900D01*
X0068994Y0048082D02*
Y0063581D01*
X0069594Y0048082D02*
Y0062981D01*
X0068674Y0063900D02*
X0071360Y0061214D01*
X0073794Y0048082D02*
Y0060274D01*
X0068582Y0048082D02*
X0077342D01*
X0074394D02*
Y0060274D01*
X0074994Y0048082D02*
Y0060274D01*
X0075594Y0048082D02*
Y0060274D01*
X0076194Y0048082D02*
Y0060274D01*
X0076794Y0048082D02*
Y0060274D01*
X0080849Y0051781D02*
Y0057587D01*
X0089154D01*
X0073520Y0068105D02*
X0074951Y0066674D01*
X0073626Y0060274D02*
X0085002D01*
X0074994Y0066674D02*
Y0068373D01*
X0077394Y0049368D02*
Y0060274D01*
X0077994Y0050590D02*
Y0060274D01*
X0078594Y0051170D02*
Y0060274D01*
X0079194Y0051521D02*
Y0060274D01*
X0079794Y0051721D02*
Y0060274D01*
X0080394Y0051798D02*
Y0060274D01*
X0002000Y0067024D02*
X0004300D01*
X0002000Y0067624D02*
X0004300D01*
X0002000Y0068224D02*
X0004300D01*
X0002000Y0068824D02*
X0004300D01*
X0002000Y0069424D02*
X0004300D01*
X0002000Y0070024D02*
X0004300D01*
X0004794Y0070535D02*
Y0075635D01*
X0002000Y0076024D02*
X0004300D01*
X0005394Y0070535D02*
Y0075635D01*
X0005994Y0070535D02*
Y0075635D01*
X0002000Y0076624D02*
X0004300D01*
X0002000Y0077224D02*
X0004300D01*
X0002000Y0077824D02*
X0004300D01*
X0002000Y0078424D02*
X0004300D01*
X0002000Y0079024D02*
X0004300D01*
Y0075635D02*
Y0084035D01*
X0002000Y0079624D02*
X0004300D01*
X0002000Y0080224D02*
X0004300D01*
X0002000Y0080824D02*
X0004300D01*
X0002000Y0081424D02*
X0004300D01*
X0002000Y0070624D02*
X0009721D01*
X0002000Y0071224D02*
X0009721D01*
X0002000Y0071824D02*
X0009721D01*
X0002000Y0072424D02*
X0009721D01*
X0002000Y0073024D02*
X0009721D01*
X0004300Y0070535D02*
X0009721D01*
X0002000Y0073624D02*
X0009721D01*
X0002000Y0074224D02*
X0009721D01*
X0002000Y0074824D02*
X0009721D01*
X0002000Y0075424D02*
X0009721D01*
X0006594Y0070535D02*
Y0075635D01*
X0007194Y0070535D02*
Y0075635D01*
X0007500Y0076035D02*
Y0079835D01*
X0004300Y0075635D02*
X0009721D01*
X0004700Y0079835D02*
X0007500D01*
X0007794Y0070535D02*
Y0075635D01*
X0008394Y0070535D02*
Y0075635D01*
X0008994Y0070535D02*
Y0075635D01*
X0007500Y0079835D02*
Y0083635D01*
X0009594Y0070535D02*
Y0075635D01*
X0009721Y0070535D02*
Y0075635D01*
X0002000Y0082024D02*
X0004300D01*
X0002000Y0082624D02*
X0004300D01*
X0002000Y0083224D02*
X0004300D01*
X0002000Y0083824D02*
X0004300D01*
X0002000Y0088624D02*
X0009760D01*
X0004794Y0084035D02*
Y0089135D01*
X0005394Y0084035D02*
Y0089135D01*
X0002000Y0089224D02*
X0004300D01*
X0005994Y0084035D02*
Y0089135D01*
X0006594Y0084035D02*
Y0089135D01*
X0002000Y0089824D02*
X0004300D01*
X0002000Y0090424D02*
X0004300D01*
X0002000Y0091024D02*
X0004300D01*
X0002000Y0091624D02*
X0004300D01*
X0002000Y0092224D02*
X0004300D01*
X0007194Y0084035D02*
Y0089135D01*
X0007794Y0084035D02*
Y0089135D01*
X0008394Y0084035D02*
Y0089135D01*
X0008994Y0084035D02*
Y0089135D01*
X0009594Y0084035D02*
Y0089135D01*
X0010700Y0083533D02*
Y0084035D01*
X0004300D02*
X0010700D01*
X0002000Y0085624D02*
X0012057D01*
X0002000Y0084424D02*
X0013257D01*
X0002000Y0085024D02*
X0012657D01*
X0010700Y0083824D02*
X0011279D01*
X0011994Y0084007D02*
Y0085688D01*
X0013194Y0083941D02*
Y0084488D01*
X0012594Y0084031D02*
Y0085088D01*
X0002000Y0086824D02*
X0010857D01*
X0002000Y0086224D02*
X0011457D01*
X0004300Y0089135D02*
X0009721D01*
X0002000Y0087424D02*
X0010287D01*
X0002000Y0088024D02*
X0009936D01*
X0010794Y0083591D02*
Y0086888D01*
X0011394Y0083866D02*
Y0086288D01*
X0010512Y0087170D02*
X0014160Y0083522D01*
X0010194Y0084035D02*
Y0087553D01*
X0020042Y0070024D02*
X0020529D01*
X0020042Y0076024D02*
X0020734D01*
X0021594Y0070464D02*
Y0075706D01*
X0020994Y0070272D02*
Y0075898D01*
X0023994Y0070027D02*
Y0076143D01*
X0023998Y0070024D02*
X0025450D01*
X0022194Y0070535D02*
Y0075636D01*
X0022794Y0070491D02*
Y0075679D01*
X0023394Y0070329D02*
Y0075841D01*
X0020042Y0069639D02*
Y0076532D01*
X0020394Y0069932D02*
Y0076239D01*
X0020042Y0083139D02*
Y0084158D01*
X0024594Y0069529D02*
Y0076642D01*
X0025194Y0069840D02*
Y0076331D01*
X0024594Y0083029D02*
Y0090142D01*
X0023793Y0076024D02*
X0025656D01*
X0025794Y0070217D02*
Y0075954D01*
X0026394Y0070436D02*
Y0075735D01*
X0026994Y0070530D02*
Y0075641D01*
X0027594Y0070509D02*
Y0075661D01*
X0028194Y0070372D02*
Y0075798D01*
X0030372Y0067624D02*
X0036976D01*
X0030259Y0068224D02*
X0036976D01*
X0028794Y0070102D02*
Y0076069D01*
X0030017Y0068824D02*
X0036976D01*
X0029394Y0069651D02*
Y0076520D01*
X0029994Y0068869D02*
Y0077302D01*
X0030156Y0082024D02*
X0034829D01*
X0029838Y0082624D02*
X0034229D01*
X0030385Y0078835D02*
Y0080835D01*
X0036976Y0067252D02*
Y0077526D01*
X0030385Y0080224D02*
X0036629D01*
X0029994Y0082369D02*
Y0086886D01*
X0030385Y0080824D02*
X0036029D01*
X0030330Y0081424D02*
X0035429D01*
X0017394Y0087925D02*
Y0089136D01*
X0017994Y0087325D02*
Y0089202D01*
X0016094Y0089224D02*
X0016593D01*
X0016794Y0088525D02*
Y0089183D01*
X0018092Y0089224D02*
X0021514D01*
X0020042Y0083824D02*
X0021121D01*
X0021594Y0083964D02*
Y0089206D01*
X0022194Y0084035D02*
Y0089136D01*
X0015770Y0089548D02*
X0019252Y0086067D01*
X0019194Y0086125D02*
Y0089725D01*
X0018594Y0086725D02*
Y0089390D01*
X0019326Y0089824D02*
X0020280D01*
X0020394Y0083432D02*
Y0089739D01*
X0020994Y0083772D02*
Y0089398D01*
X0023994Y0083527D02*
Y0089643D01*
X0019794Y0085290D02*
Y0090278D01*
X0022794Y0083991D02*
Y0089180D01*
X0023394Y0083829D02*
Y0089341D01*
X0019609Y0085624D02*
X0031229D01*
X0020029Y0084424D02*
X0032429D01*
X0017894Y0087424D02*
X0029605D01*
X0019094Y0086224D02*
X0030629D01*
X0018494Y0086824D02*
X0030046D01*
X0024393Y0083224D02*
X0025056D01*
X0029314D02*
X0033629D01*
X0023406Y0083824D02*
X0026042D01*
X0028328D02*
X0033029D01*
X0019899Y0085024D02*
X0031829D01*
X0016694Y0088624D02*
X0029076D01*
X0017294Y0088024D02*
X0029291D01*
X0023013Y0089224D02*
X0028949D01*
X0024247Y0089824D02*
X0028901D01*
X0024830Y0090424D02*
X0028900D01*
X0025194Y0083340D02*
Y0091049D01*
X0029394Y0083151D02*
Y0087803D01*
X0025183Y0091024D02*
X0028900D01*
X0025384Y0091624D02*
X0028900D01*
X0002000Y0092824D02*
X0004300D01*
X0002000Y0093424D02*
X0004300D01*
X0002000Y0094024D02*
X0004300D01*
X0002000Y0094624D02*
X0004300D01*
X0002000Y0095224D02*
X0004300D01*
Y0089135D02*
Y0097535D01*
X0002000Y0095824D02*
X0004300D01*
X0002000Y0096424D02*
X0004300D01*
X0002000Y0097024D02*
X0004300D01*
X0004794Y0097535D02*
Y0102635D01*
X0002000Y0103024D02*
X0004300D01*
X0002000Y0103624D02*
X0004300D01*
X0002000Y0104224D02*
X0004300D01*
X0002000Y0104824D02*
X0004300D01*
X0002000Y0105424D02*
X0004300D01*
X0005394Y0097535D02*
Y0102635D01*
X0005994Y0097535D02*
Y0102635D01*
X0004300D02*
Y0111035D01*
X0006594Y0097535D02*
Y0102635D01*
X0002000Y0106024D02*
X0004300D01*
X0002000Y0097624D02*
X0009721D01*
X0002000Y0098224D02*
X0009721D01*
X0002000Y0098824D02*
X0009721D01*
X0002000Y0099424D02*
X0009721D01*
X0002000Y0100024D02*
X0009721D01*
X0007500Y0089535D02*
Y0093335D01*
X0004700D02*
X0007500D01*
Y0097135D01*
X0004300Y0097535D02*
X0009721D01*
X0002000Y0100624D02*
X0009721D01*
X0007194Y0097535D02*
Y0102635D01*
X0002000Y0101224D02*
X0009721D01*
X0002000Y0101824D02*
X0009721D01*
X0002000Y0102424D02*
X0009721D01*
X0004300Y0102635D02*
X0009721D01*
X0007794Y0097535D02*
Y0102635D01*
X0008394Y0097535D02*
Y0102635D01*
X0008994Y0097535D02*
Y0102635D01*
X0007500Y0103035D02*
Y0106835D01*
X0009594Y0097535D02*
Y0102635D01*
X0009721Y0097535D02*
Y0102635D01*
X0002000Y0106624D02*
X0004300D01*
X0002000Y0107224D02*
X0004300D01*
X0002000Y0107824D02*
X0004300D01*
X0002000Y0108424D02*
X0004300D01*
X0002000Y0109024D02*
X0004300D01*
X0004700Y0106835D02*
X0007500D01*
Y0110635D01*
X0002000Y0109624D02*
X0004300D01*
X0002000Y0110224D02*
X0004300D01*
X0002000Y0110824D02*
X0004300D01*
X0004794Y0111035D02*
Y0117900D01*
X0005394Y0111035D02*
Y0117900D01*
X0005994Y0111035D02*
Y0117900D01*
X0006594Y0111035D02*
Y0117900D01*
X0007194Y0111035D02*
Y0117900D01*
X0007794Y0111035D02*
Y0117900D01*
X0010700Y0110533D02*
Y0111035D01*
X0008394D02*
Y0117900D01*
X0008994Y0111035D02*
Y0117900D01*
X0009594Y0111035D02*
Y0117900D01*
X0010194Y0111035D02*
Y0117900D01*
X0002000Y0111424D02*
X0028900D01*
X0002000Y0112024D02*
X0028900D01*
X0002000Y0112624D02*
X0028900D01*
X0002000Y0113224D02*
X0028900D01*
X0002000Y0113824D02*
X0028900D01*
X0010700Y0110824D02*
X0011278D01*
X0004300Y0111035D02*
X0010700D01*
X0013564Y0110824D02*
X0016200D01*
X0002000Y0114424D02*
X0028900D01*
X0002000Y0115024D02*
X0028900D01*
X0002000Y0115624D02*
X0028900D01*
X0002000Y0116224D02*
X0028900D01*
X0002000Y0116824D02*
X0028900D01*
X0002000Y0117424D02*
X0028900D01*
X0010794Y0110591D02*
Y0117900D01*
X0011394Y0110866D02*
Y0117900D01*
X0011994Y0111007D02*
Y0117900D01*
X0012594Y0111031D02*
Y0117900D01*
X0013194Y0110941D02*
Y0117900D01*
X0002000D02*
X0028900D01*
X0015121Y0097024D02*
X0015608D01*
X0015594Y0097015D02*
Y0103156D01*
X0016794Y0097488D02*
Y0102683D01*
X0016194Y0097322D02*
Y0102849D01*
X0019194Y0096946D02*
Y0103225D01*
X0019077Y0097024D02*
X0020529D01*
X0017394Y0097535D02*
Y0102636D01*
X0017994Y0097468D02*
Y0102702D01*
X0018594Y0097281D02*
Y0102890D01*
X0015121Y0096639D02*
Y0103532D01*
X0019794Y0096393D02*
Y0103778D01*
X0020394Y0096932D02*
Y0104871D01*
X0020994Y0097273D02*
Y0117900D01*
X0021594Y0097465D02*
Y0117900D01*
X0023994Y0097027D02*
Y0117900D01*
X0024594Y0096529D02*
Y0117900D01*
X0022194Y0097535D02*
Y0117900D01*
X0022794Y0097491D02*
Y0117900D01*
X0023394Y0097329D02*
Y0117900D01*
X0025462Y0092224D02*
X0028900D01*
X0025338Y0095224D02*
X0028900D01*
X0025096Y0095824D02*
X0028900D01*
X0024688Y0096424D02*
X0028900D01*
X0025464Y0092335D02*
Y0094335D01*
Y0092824D02*
X0028900D01*
X0025464Y0093424D02*
X0028900D01*
X0025464Y0094024D02*
X0028900D01*
X0025451Y0094624D02*
X0028900D01*
X0025794Y0083717D02*
Y0117900D01*
X0025194Y0095622D02*
Y0117900D01*
X0023998Y0097024D02*
X0028900D01*
X0015121Y0097624D02*
X0028900D01*
X0026394Y0083936D02*
Y0117900D01*
X0028194Y0083872D02*
Y0117900D01*
X0028794Y0083602D02*
Y0117900D01*
X0026994Y0084030D02*
Y0117900D01*
X0028900Y0089900D02*
Y0101000D01*
X0027594Y0084009D02*
Y0117900D01*
X0015121Y0098224D02*
X0028900D01*
X0015121Y0098824D02*
X0028900D01*
X0013794Y0110726D02*
Y0117900D01*
X0014550Y0110224D02*
X0015213D01*
X0015121Y0099424D02*
X0028900D01*
X0015121Y0100024D02*
X0028900D01*
X0015121Y0103024D02*
X0015813D01*
X0020542Y0105835D02*
Y0107835D01*
X0014394Y0110355D02*
Y0117900D01*
X0014994Y0110009D02*
Y0117900D01*
X0015594Y0110515D02*
Y0117900D01*
X0016194Y0110822D02*
Y0117900D01*
X0016794Y0110988D02*
Y0117900D01*
X0019194Y0110446D02*
Y0117900D01*
X0019794Y0109892D02*
Y0117900D01*
X0020394Y0108800D02*
Y0117900D01*
X0017394Y0111035D02*
Y0117900D01*
X0017994Y0110968D02*
Y0117900D01*
X0018594Y0110781D02*
Y0117900D01*
X0015121Y0100624D02*
X0028900D01*
X0015121Y0101224D02*
X0028900D01*
X0015121Y0101824D02*
X0028900D01*
X0015121Y0102424D02*
X0028900D01*
X0018872Y0103024D02*
X0028900D01*
X0019656Y0103624D02*
X0028900D01*
X0020107Y0104224D02*
X0028900D01*
X0020379Y0104824D02*
X0028900D01*
X0020516Y0105424D02*
X0028900D01*
X0020542Y0106024D02*
X0028900D01*
X0020542Y0106624D02*
X0028900D01*
X0020313Y0109024D02*
X0028900D01*
X0019996Y0109624D02*
X0028900D01*
X0019471Y0110224D02*
X0028900D01*
X0018485Y0110824D02*
X0028900D01*
Y0101000D02*
Y0109700D01*
X0020542Y0107224D02*
X0028900D01*
Y0101000D02*
Y0109700D01*
X0020542Y0107824D02*
X0028900D01*
X0020488Y0108424D02*
X0028900D01*
Y0109700D02*
Y0117900D01*
X0020042Y0070624D02*
X0036976D01*
X0020042Y0071224D02*
X0036976D01*
X0020042Y0071824D02*
X0036976D01*
X0020042Y0072424D02*
X0036976D01*
X0020042Y0073024D02*
X0036976D01*
X0029609Y0069424D02*
X0036976D01*
X0028920Y0070024D02*
X0036976D01*
X0020042Y0073624D02*
X0036976D01*
X0020042Y0074224D02*
X0036976D01*
X0020042Y0074824D02*
X0036976D01*
X0020042Y0075424D02*
X0036976D01*
X0028714Y0076024D02*
X0036976D01*
X0029498Y0076624D02*
X0036976D01*
X0029950Y0077224D02*
X0036976D01*
X0030385Y0079024D02*
X0037829D01*
X0037194Y0077526D02*
Y0079660D01*
X0036976Y0077526D02*
X0038200D01*
X0030385Y0079624D02*
X0037229D01*
X0038200Y0077526D02*
Y0078653D01*
X0037794Y0077526D02*
Y0079060D01*
X0030385Y0067024D02*
X0041862D01*
X0036976Y0067252D02*
X0042089D01*
X0030221Y0077824D02*
X0038200D01*
X0030358Y0078424D02*
X0038200D01*
X0030280Y0086573D02*
X0038200Y0078653D01*
X0056994Y0085300D02*
Y0090563D01*
X0044847Y0085300D02*
X0058900D01*
X0057594D02*
Y0090261D01*
X0058194Y0085300D02*
Y0090057D01*
X0058794Y0085300D02*
Y0089939D01*
X0039273Y0090874D02*
X0044847Y0085300D01*
X0044994D02*
Y0090874D01*
X0045594Y0085300D02*
Y0090874D01*
X0046194Y0085300D02*
Y0090874D01*
X0046794Y0085300D02*
Y0090874D01*
X0047394Y0085300D02*
Y0090874D01*
X0047994Y0085300D02*
Y0090874D01*
X0048594Y0085300D02*
Y0090874D01*
X0055194Y0085300D02*
Y0092503D01*
X0056394Y0085300D02*
Y0090987D01*
X0055794Y0085300D02*
Y0091586D01*
X0040794Y0089353D02*
Y0090874D01*
X0041394Y0088753D02*
Y0090874D01*
X0039594Y0090553D02*
Y0090874D01*
X0040194Y0089953D02*
Y0090874D01*
X0039273D02*
X0048824D01*
X0043794Y0086353D02*
Y0090874D01*
X0044394Y0085753D02*
Y0090874D01*
X0041994Y0088153D02*
Y0090874D01*
X0042594Y0087553D02*
Y0090874D01*
X0043194Y0086953D02*
Y0090874D01*
X0042900Y0091274D02*
Y0096011D01*
X0048824Y0092824D02*
X0055048D01*
X0042900Y0096011D02*
Y0100748D01*
X0048824Y0093424D02*
X0054849D01*
X0042900Y0096011D02*
X0048424D01*
X0048824Y0094024D02*
X0054735D01*
X0048824Y0094624D02*
X0054700D01*
X0048824Y0095224D02*
X0054742D01*
X0048824Y0095824D02*
X0054862D01*
X0048824Y0096424D02*
X0055068D01*
X0042122Y0088024D02*
X0062500D01*
X0041522Y0088624D02*
X0062500D01*
X0039722Y0090424D02*
X0057243D01*
X0040922Y0089224D02*
X0062500D01*
X0040322Y0089824D02*
X0062500D01*
X0044522Y0085624D02*
X0062500D01*
X0043922Y0086224D02*
X0062500D01*
X0048824Y0091024D02*
X0056350D01*
X0043322Y0086824D02*
X0062500D01*
X0042722Y0087424D02*
X0062500D01*
X0048824Y0092224D02*
X0055345D01*
X0048824Y0091624D02*
X0055762D01*
X0048824Y0097024D02*
X0055374D01*
X0048824Y0097624D02*
X0055802D01*
X0048824Y0098224D02*
X0056408D01*
X0048824Y0098824D02*
X0057340D01*
X0055100Y0094600D02*
X0059400D01*
X0057594Y0098939D02*
Y0100404D01*
X0048824Y0099424D02*
X0058164D01*
X0048824Y0100024D02*
X0057761D01*
X0072100Y0074224D02*
X0072401D01*
X0072594Y0074303D02*
Y0091397D01*
X0073194Y0074460D02*
Y0091240D01*
X0075594Y0066674D02*
Y0068720D01*
X0076194Y0066674D02*
Y0069295D01*
X0073794Y0074499D02*
Y0091201D01*
X0074394Y0067232D02*
Y0068176D01*
X0076794Y0066674D02*
Y0070482D01*
X0075594Y0073880D02*
Y0091820D01*
X0076194Y0073305D02*
Y0092395D01*
X0072100Y0074071D02*
Y0091629D01*
X0074394Y0074424D02*
Y0091276D01*
X0074994Y0074227D02*
Y0091473D01*
X0077394Y0066674D02*
Y0092800D01*
X0077994Y0066674D02*
Y0092800D01*
X0076794Y0072118D02*
Y0092800D01*
X0078594Y0066674D02*
Y0092800D01*
X0079194Y0066674D02*
Y0092800D01*
X0074951Y0066674D02*
X0085002D01*
X0074601Y0067024D02*
X0090000D01*
X0075728Y0068824D02*
X0088971D01*
X0074001Y0067624D02*
X0090000D01*
X0074584Y0068224D02*
X0089571D01*
X0076635Y0070024D02*
X0087771D01*
X0076293Y0069424D02*
X0088371D01*
X0076828Y0070624D02*
X0087392D01*
X0076899Y0071224D02*
X0087300D01*
X0076857Y0071824D02*
X0087300D01*
X0072100Y0074824D02*
X0087300D01*
X0072100Y0075424D02*
X0087300D01*
X0072100Y0076024D02*
X0087300D01*
X0072100Y0076624D02*
X0087300D01*
X0072100Y0077224D02*
X0087300D01*
X0079794Y0066674D02*
Y0080052D01*
X0076696Y0072424D02*
X0087300D01*
X0080394Y0066674D02*
Y0078995D01*
X0076396Y0073024D02*
X0087300D01*
X0075899Y0073624D02*
X0087300D01*
X0074999Y0074224D02*
X0087300D01*
X0072100Y0079624D02*
X0079973D01*
X0072100Y0079024D02*
X0080369D01*
X0062132Y0084424D02*
X0062500D01*
X0060986Y0085024D02*
X0062500D01*
X0072100Y0080224D02*
X0079741D01*
X0072100Y0080824D02*
X0079636D01*
X0072100Y0081424D02*
X0079645D01*
X0072100Y0082024D02*
X0079770D01*
X0072100Y0082624D02*
X0080027D01*
X0060594Y0085146D02*
Y0090054D01*
X0061194Y0084944D02*
Y0090256D01*
X0059394Y0085300D02*
Y0089900D01*
X0059994Y0085262D02*
Y0089938D01*
X0059400Y0090300D02*
Y0094600D01*
X0062394Y0084223D02*
Y0090977D01*
X0062500Y0084133D02*
Y0091067D01*
X0079794Y0082096D02*
Y0092800D01*
X0061794Y0084645D02*
Y0090555D01*
X0061557Y0090424D02*
X0062500D01*
X0072100Y0078424D02*
X0081032D01*
X0072100Y0077824D02*
X0086553D01*
X0072100Y0083224D02*
X0080456D01*
X0072100Y0083824D02*
X0081190D01*
X0072100Y0084424D02*
X0092172D01*
X0072100Y0085024D02*
X0092172D01*
X0072100Y0085624D02*
X0092172D01*
X0072100Y0086224D02*
X0092172D01*
X0072100Y0086824D02*
X0092172D01*
X0072100Y0087424D02*
X0092172D01*
X0072100Y0088024D02*
X0092172D01*
X0072100Y0088624D02*
X0092179D01*
X0072100Y0089224D02*
X0092360D01*
X0072100Y0089824D02*
X0092862D01*
X0080394Y0083153D02*
Y0092800D01*
X0072100Y0090424D02*
X0091015D01*
X0072100Y0091024D02*
X0090413D01*
X0076471Y0092800D02*
X0088637D01*
X0075292Y0091624D02*
X0089813D01*
X0076047Y0092224D02*
X0089213D01*
X0038300Y0102424D02*
X0040229D01*
X0038300Y0101824D02*
X0040941D01*
X0038300Y0104224D02*
X0039138D01*
X0038300Y0103024D02*
X0039736D01*
X0038300Y0103624D02*
X0039383D01*
X0038994Y0101148D02*
Y0104766D01*
X0039594Y0101148D02*
Y0103243D01*
X0040194Y0101148D02*
Y0102462D01*
X0041394Y0101148D02*
Y0101550D01*
X0040794Y0101148D02*
Y0101930D01*
X0038300Y0105424D02*
X0038908D01*
X0038300Y0104824D02*
X0038982D01*
X0038300Y0106024D02*
X0038900D01*
X0038300Y0106624D02*
X0038900D01*
X0038300Y0107224D02*
X0038900D01*
X0038300Y0101148D02*
Y0109700D01*
Y0101148D02*
Y0109700D01*
X0038394Y0101148D02*
Y0117900D01*
X0038300Y0107824D02*
X0038900D01*
Y0105700D02*
Y0113700D01*
X0038300Y0101224D02*
X0042165D01*
X0038300Y0101148D02*
X0042430D01*
X0046194D02*
Y0101780D01*
X0044770Y0101148D02*
X0048824D01*
X0045035Y0101224D02*
X0057412D01*
X0046794Y0101148D02*
Y0102252D01*
X0047394Y0101148D02*
Y0102925D01*
X0046259Y0101824D02*
X0057416D01*
X0046970Y0102424D02*
X0057536D01*
X0047464Y0103024D02*
X0057786D01*
X0047994Y0101148D02*
Y0104031D01*
X0047817Y0103624D02*
X0058207D01*
X0048062Y0104224D02*
X0057684D01*
X0048300Y0106024D02*
X0055469D01*
X0048218Y0104824D02*
X0056601D01*
X0048292Y0105424D02*
X0055935D01*
X0048300Y0107824D02*
X0054764D01*
X0048300Y0106624D02*
X0055135D01*
X0048300Y0107224D02*
X0054906D01*
X0038300Y0108424D02*
X0038900D01*
X0038300Y0109024D02*
X0038900D01*
X0038300Y0109624D02*
X0038900D01*
X0038300Y0110224D02*
X0038900D01*
X0038300Y0110824D02*
X0038900D01*
X0038300Y0111424D02*
X0038900D01*
X0038300Y0112024D02*
X0038900D01*
X0038300Y0112624D02*
X0038900D01*
X0038300Y0113224D02*
X0038900D01*
X0038300Y0113824D02*
X0038902D01*
X0038300Y0114424D02*
X0038956D01*
X0038300Y0115024D02*
X0039090D01*
X0038300Y0115624D02*
X0039312D01*
X0038300Y0116224D02*
X0039636D01*
X0038300Y0116824D02*
X0040089D01*
X0038300Y0109700D02*
Y0117900D01*
X0038994Y0114634D02*
Y0117900D01*
X0039594Y0116157D02*
Y0117900D01*
X0040194Y0116938D02*
Y0117900D01*
X0038300Y0117424D02*
X0040733D01*
X0040794Y0117470D02*
Y0117900D01*
X0039300Y0109700D02*
X0043600D01*
X0048300Y0108424D02*
X0054703D01*
X0043600Y0109700D02*
X0047900D01*
X0048244Y0114424D02*
X0102773D01*
X0048109Y0115024D02*
X0102921D01*
X0048300Y0109024D02*
X0054719D01*
X0048300Y0109624D02*
X0054813D01*
X0048300Y0110224D02*
X0054990D01*
X0048300Y0110824D02*
X0055260D01*
X0048300Y0111424D02*
X0055643D01*
X0038300Y0117900D02*
X0041491D01*
X0046467Y0117424D02*
X0104668D01*
X0045709Y0117900D02*
X0105503D01*
X0047994Y0115369D02*
Y0117900D01*
X0047888Y0115624D02*
X0103158D01*
X0047565Y0116224D02*
X0103501D01*
X0046794Y0117148D02*
Y0117900D01*
X0047111Y0116824D02*
X0103981D01*
X0047394Y0116475D02*
Y0117900D01*
X0048824Y0090874D02*
Y0101148D01*
X0049194Y0085300D02*
Y0117900D01*
X0048300Y0105700D02*
Y0113700D01*
X0048824Y0100624D02*
X0057522D01*
X0048594Y0101148D02*
Y0117900D01*
X0055194Y0096697D02*
Y0106503D01*
X0055794Y0097614D02*
Y0105586D01*
X0056394Y0098213D02*
Y0104987D01*
X0057594Y0102596D02*
Y0104261D01*
X0056994Y0098637D02*
Y0104563D01*
X0049794Y0085300D02*
Y0117900D01*
X0050394Y0085300D02*
Y0117900D01*
X0050994Y0085300D02*
Y0117900D01*
X0051594Y0085300D02*
Y0117900D01*
X0052194Y0085300D02*
Y0117900D01*
X0052794Y0085300D02*
Y0117900D01*
X0053394Y0085300D02*
Y0117900D01*
X0053994Y0085300D02*
Y0117900D01*
X0054594Y0085300D02*
Y0117900D01*
X0055194Y0110697D02*
Y0117900D01*
X0058194Y0103609D02*
Y0104058D01*
X0068866Y0110860D02*
X0070107Y0109619D01*
X0069501Y0110224D02*
X0070335D01*
X0068901Y0110824D02*
X0070722D01*
X0075971Y0110400D02*
X0094063D01*
X0075678Y0110824D02*
X0103607D01*
X0069594Y0110132D02*
Y0117900D01*
X0070194Y0109896D02*
Y0117900D01*
X0068994Y0110732D02*
Y0117900D01*
X0076194Y0110400D02*
Y0117900D01*
X0076794Y0110400D02*
Y0117900D01*
X0077394Y0110400D02*
Y0117900D01*
X0077994Y0110400D02*
Y0117900D01*
X0078594Y0110400D02*
Y0117900D01*
X0079194Y0110400D02*
Y0117900D01*
X0079794Y0110400D02*
Y0117900D01*
X0080394Y0110400D02*
Y0117900D01*
X0055794Y0111614D02*
Y0117900D01*
X0048300Y0112024D02*
X0056181D01*
X0056394Y0112213D02*
Y0117900D01*
X0048300Y0112624D02*
X0056972D01*
X0048300Y0113224D02*
X0058561D01*
X0056994Y0112637D02*
Y0117900D01*
X0057594Y0112939D02*
Y0117900D01*
X0058194Y0113143D02*
Y0117900D01*
X0058794Y0113261D02*
Y0117900D01*
X0059394Y0113300D02*
Y0117900D01*
X0061794Y0112645D02*
Y0117900D01*
X0062394Y0112223D02*
Y0117900D01*
X0059994Y0113262D02*
Y0117900D01*
X0060594Y0113146D02*
Y0117900D01*
X0061194Y0112944D02*
Y0117900D01*
X0062994Y0111800D02*
Y0117900D01*
X0063594Y0111800D02*
Y0117900D01*
X0064194Y0111800D02*
Y0117900D01*
X0064794Y0111800D02*
Y0117900D01*
X0065394Y0111800D02*
Y0117900D01*
X0065994Y0111800D02*
Y0117900D01*
X0062842Y0111800D02*
X0066600D01*
X0062619Y0112024D02*
X0102972D01*
X0061828Y0112624D02*
X0102802D01*
X0060239Y0113224D02*
X0102715D01*
X0048298Y0113824D02*
X0102705D01*
X0068104Y0111424D02*
X0071369D01*
X0066594Y0111800D02*
Y0117900D01*
X0075031Y0111424D02*
X0103234D01*
X0067194Y0111744D02*
Y0117900D01*
X0068394Y0111250D02*
Y0117900D01*
X0070794Y0110909D02*
Y0117900D01*
X0067794Y0111569D02*
Y0117900D01*
X0071394Y0111441D02*
Y0117900D01*
X0071994Y0111764D02*
Y0117900D01*
X0072594Y0111942D02*
Y0117900D01*
X0074994Y0111450D02*
Y0117900D01*
X0075594Y0110924D02*
Y0117900D01*
X0073194Y0112000D02*
Y0117900D01*
X0073794Y0111944D02*
Y0117900D01*
X0074394Y0111769D02*
Y0117900D01*
X0082194Y0002000D02*
Y0004885D01*
X0082794Y0002000D02*
Y0004670D01*
X0083394Y0002000D02*
Y0004579D01*
X0083994Y0002000D02*
Y0004602D01*
X0084594Y0002000D02*
Y0004742D01*
X0087594Y0002000D02*
Y0004702D01*
X0088194Y0002000D02*
Y0004588D01*
X0088794Y0002000D02*
Y0004588D01*
X0089394Y0002000D02*
Y0004704D01*
X0092394Y0002000D02*
Y0004741D01*
X0080994Y0002000D02*
Y0005596D01*
X0081594Y0002000D02*
Y0005257D01*
X0085194Y0002000D02*
Y0005016D01*
X0086394Y0002000D02*
Y0005358D01*
X0085794Y0002000D02*
Y0005473D01*
X0086994Y0002000D02*
Y0004946D01*
X0089994Y0002000D02*
Y0004949D01*
X0090594Y0002000D02*
Y0005361D01*
X0091794Y0002000D02*
Y0005014D01*
X0091194Y0002000D02*
Y0005468D01*
X0092994Y0002000D02*
Y0004602D01*
X0093594Y0002000D02*
Y0004579D01*
X0094194Y0002000D02*
Y0004671D01*
X0097794Y0002000D02*
Y0004620D01*
X0098394Y0002000D02*
Y0004575D01*
X0098994Y0002000D02*
Y0004643D01*
X0102594Y0002000D02*
Y0004643D01*
X0103194Y0002000D02*
Y0004575D01*
X0103794Y0002000D02*
Y0004620D01*
X0104994Y0002000D02*
Y0004574D01*
X0094794Y0002000D02*
Y0004887D01*
X0095394Y0002000D02*
Y0005261D01*
X0095994Y0002000D02*
Y0005592D01*
X0097194Y0002000D02*
Y0004784D01*
X0096594Y0002000D02*
Y0005089D01*
X0099594Y0002000D02*
Y0004832D01*
X0100194Y0002000D02*
Y0005170D01*
X0100794Y0002000D02*
Y0005727D01*
X0101394Y0002000D02*
Y0005171D01*
X0101994Y0002000D02*
Y0004833D01*
X0104394Y0002000D02*
Y0004783D01*
X0084136Y0004624D02*
X0087926D01*
X0089057D02*
X0092847D01*
X0093978D02*
X0097768D01*
X0098900D02*
X0102689D01*
X0103821D02*
X0104976D01*
X0105594Y0002000D02*
Y0004574D01*
X0106194Y0002000D02*
Y0004574D01*
X0106794Y0002000D02*
Y0004574D01*
X0107394Y0002000D02*
Y0004574D01*
X0107994Y0002000D02*
Y0004574D01*
X0085504Y0005224D02*
X0086558D01*
X0090425D02*
X0091479D01*
X0095346D02*
X0096400D01*
X0100268D02*
X0101321D01*
X0104976Y0004574D02*
Y0005076D01*
X0108594Y0002000D02*
Y0004574D01*
X0109194Y0002000D02*
Y0004574D01*
X0109794Y0002000D02*
Y0004574D01*
X0110394Y0002000D02*
Y0004574D01*
X0104976D02*
X0111376D01*
X0110994Y0002000D02*
Y0004574D01*
X0111376Y0004624D02*
X0120607D01*
X0111376Y0006424D02*
X0118271D01*
X0111376Y0005224D02*
X0119239D01*
X0111376Y0005824D02*
X0118635D01*
X0108176Y0004974D02*
Y0008774D01*
X0111376Y0007024D02*
X0118062D01*
X0108176Y0008774D02*
X0110976D01*
X0111376Y0007624D02*
X0117976D01*
X0111376Y0008224D02*
X0117973D01*
X0111376Y0004574D02*
Y0010105D01*
Y0008824D02*
X0117973D01*
X0111594Y0002000D02*
Y0009888D01*
X0111376Y0010105D02*
X0111591Y0009891D01*
X0111376Y0009424D02*
X0112217D01*
X0112794Y0002000D02*
Y0009194D01*
X0113394Y0002000D02*
Y0009102D01*
X0113994Y0002000D02*
Y0009100D01*
X0118794Y0002000D02*
Y0005634D01*
X0118194Y0002000D02*
Y0006605D01*
X0119394Y0002000D02*
Y0005114D01*
X0119994Y0002000D02*
Y0004799D01*
X0120594Y0002000D02*
Y0004627D01*
X0121194Y0002000D02*
Y0004574D01*
X0121794Y0002000D02*
Y0004635D01*
X0112194Y0002000D02*
Y0009437D01*
X0114594Y0002000D02*
Y0009100D01*
X0115194Y0002000D02*
Y0009100D01*
X0113500D02*
X0117100D01*
X0115794Y0002000D02*
Y0009100D01*
X0116394Y0002000D02*
Y0009100D01*
X0116994Y0002000D02*
Y0009100D01*
X0117594Y0002000D02*
Y0009145D01*
X0117973Y0007774D02*
Y0009245D01*
X0122394Y0002000D02*
Y0004816D01*
X0124794Y0002000D02*
Y0004850D01*
X0125394Y0002000D02*
Y0004651D01*
X0121738Y0004624D02*
X0125528D01*
X0125994Y0002000D02*
Y0004576D01*
X0126594Y0002000D02*
Y0004613D01*
X0127194Y0002000D02*
Y0004769D01*
X0130194Y0002000D02*
Y0004681D01*
X0126660Y0004624D02*
X0130449D01*
X0130794Y0002000D02*
Y0004582D01*
X0122994Y0002000D02*
Y0005143D01*
X0123594Y0002000D02*
Y0005682D01*
X0123106Y0005224D02*
X0124160D01*
X0124194Y0002000D02*
Y0005199D01*
X0127794Y0002000D02*
Y0005063D01*
X0128394Y0002000D02*
Y0005549D01*
X0128994Y0002000D02*
Y0005293D01*
X0129594Y0002000D02*
Y0004907D01*
X0128028Y0005224D02*
X0129081D01*
X0113600Y0024963D02*
X0114689Y0023874D01*
X0116994D02*
Y0030913D01*
X0117594Y0023874D02*
Y0030900D01*
X0118194Y0023874D02*
Y0030900D01*
X0118794Y0023874D02*
Y0030900D01*
X0119394Y0023874D02*
Y0030900D01*
X0119994Y0023874D02*
Y0030900D01*
X0120594Y0023874D02*
Y0030900D01*
X0115194Y0023874D02*
Y0032244D01*
X0115794Y0023874D02*
Y0031644D01*
X0113600Y0031624D02*
X0115813D01*
X0113600Y0031024D02*
X0116581D01*
X0116394Y0023874D02*
Y0031118D01*
X0121194Y0023874D02*
Y0030900D01*
X0121794Y0023874D02*
Y0030900D01*
X0122394Y0023874D02*
Y0030900D01*
X0122994Y0023874D02*
Y0030900D01*
X0114138Y0024424D02*
X0128029D01*
X0113600Y0025024D02*
X0128336D01*
X0113600Y0025624D02*
X0128843D01*
X0113600Y0026224D02*
X0129776D01*
X0113600Y0029824D02*
X0129445D01*
X0114689Y0023874D02*
X0127872D01*
X0128994Y0025755D02*
Y0030182D01*
X0129594Y0026141D02*
Y0029732D01*
X0130194Y0026367D02*
Y0029462D01*
X0130794Y0026466D02*
Y0029326D01*
X0123594Y0023874D02*
Y0030900D01*
X0124194Y0023874D02*
Y0030900D01*
X0124794Y0023874D02*
Y0030900D01*
X0113600Y0030424D02*
X0128764D01*
X0117200Y0030900D02*
X0128429D01*
X0125394Y0023874D02*
Y0030900D01*
X0125994Y0023874D02*
Y0030900D01*
X0126594Y0023874D02*
Y0030900D01*
X0127194Y0023874D02*
Y0030900D01*
X0127794Y0023874D02*
Y0030900D01*
X0128394Y0025109D02*
Y0030900D01*
X0083994Y0048532D02*
Y0051250D01*
X0083699Y0048532D02*
X0089154D01*
X0082794Y0050831D02*
Y0051250D01*
X0083394Y0049966D02*
Y0051250D01*
X0089154Y0048082D02*
Y0048532D01*
X0089438Y0048082D02*
Y0048944D01*
X0084594Y0048532D02*
Y0051250D01*
X0085194Y0048532D02*
Y0051250D01*
X0085794Y0048532D02*
Y0051250D01*
X0086394Y0048532D02*
Y0051250D01*
X0086994Y0048532D02*
Y0051250D01*
X0085002Y0051650D02*
Y0054419D01*
X0087594Y0048532D02*
Y0051250D01*
X0082293D02*
X0089154D01*
X0088194Y0048532D02*
Y0051250D01*
X0088794Y0048532D02*
Y0051250D01*
X0089154D02*
Y0057587D01*
X0089994Y0048944D02*
Y0052056D01*
X0090594Y0048944D02*
Y0052056D01*
X0083672Y0049024D02*
X0095200D01*
X0112869Y0034494D02*
X0113130Y0034233D01*
X0089438Y0048944D02*
X0095200D01*
X0083532Y0049624D02*
X0095200D01*
X0083257Y0050224D02*
X0095200D01*
X0113600Y0032224D02*
X0115213D01*
X0112928Y0034509D02*
X0116067Y0031370D01*
X0113600Y0032824D02*
X0114613D01*
X0091194Y0048944D02*
Y0052056D01*
X0091794Y0048944D02*
Y0052056D01*
X0082800Y0050824D02*
X0095200D01*
X0089154Y0051424D02*
X0095200D01*
X0089438Y0052056D02*
X0095200D01*
X0092394Y0048944D02*
Y0052056D01*
X0092994Y0048944D02*
Y0052056D01*
X0093594Y0048944D02*
Y0052056D01*
X0094194Y0048944D02*
Y0052056D01*
X0094794Y0048944D02*
Y0052056D01*
X0095200Y0048944D02*
Y0052056D01*
X0080994Y0057587D02*
Y0060274D01*
X0081249Y0054419D02*
X0085002D01*
X0081594Y0057587D02*
Y0060274D01*
X0082194Y0057587D02*
Y0060274D01*
X0082794Y0057587D02*
Y0060274D01*
X0085002Y0054419D02*
X0088754D01*
X0089438Y0052056D02*
Y0059180D01*
X0083394Y0057587D02*
Y0060274D01*
X0085002Y0054419D02*
Y0057187D01*
X0083994Y0057587D02*
Y0060274D01*
X0084594Y0057587D02*
Y0060274D01*
X0085194Y0057587D02*
Y0060280D01*
X0085794Y0057587D02*
Y0060306D01*
X0085449D02*
X0089154D01*
X0086394Y0057587D02*
Y0060306D01*
X0086994Y0057587D02*
Y0060306D01*
X0087594Y0057587D02*
Y0060306D01*
X0088194Y0057587D02*
Y0060306D01*
X0088794Y0057587D02*
Y0060306D01*
X0089154D02*
Y0066642D01*
X0089838Y0055618D02*
X0093000D01*
X0089154Y0052024D02*
X0095200D01*
X0089154Y0061024D02*
X0090072D01*
X0089438Y0059180D02*
X0091657D01*
X0089154Y0060424D02*
X0090416D01*
X0090594Y0059180D02*
Y0060244D01*
X0093000Y0052456D02*
Y0055618D01*
X0091194Y0059180D02*
Y0059644D01*
X0090470Y0060367D02*
X0091657Y0059180D01*
X0089154Y0061624D02*
X0090000D01*
X0089154Y0062224D02*
X0090000D01*
X0089154Y0062824D02*
X0090000D01*
X0089154Y0063424D02*
X0090000D01*
X0089154Y0064024D02*
X0090000D01*
X0089994Y0059180D02*
Y0067801D01*
X0090000Y0061500D02*
Y0067795D01*
X0089154Y0064624D02*
X0090000D01*
X0089154Y0065224D02*
X0090000D01*
X0093300Y0065571D02*
Y0072100D01*
X0113994Y0024569D02*
Y0033444D01*
X0114594Y0023969D02*
Y0032844D01*
X0113600Y0024963D02*
Y0033100D01*
X0113567Y0033424D02*
X0114013D01*
X0115191Y0036772D02*
X0117863Y0034100D01*
X0118794D02*
Y0037704D01*
X0119394Y0034100D02*
Y0037704D01*
X0119994Y0034100D02*
Y0037704D01*
X0120594Y0034100D02*
Y0037704D01*
X0116994Y0034969D02*
Y0038204D01*
X0117594Y0034369D02*
Y0038204D01*
X0115794Y0036169D02*
Y0038204D01*
X0116394Y0035569D02*
Y0038204D01*
X0118194Y0034100D02*
Y0038204D01*
X0121194Y0034100D02*
Y0037704D01*
X0118601D02*
Y0038204D01*
X0121794Y0034100D02*
Y0037704D01*
X0122394Y0034100D02*
Y0037704D01*
X0124194Y0034100D02*
Y0035906D01*
X0117863Y0034100D02*
X0128429D01*
X0124794D02*
Y0035906D01*
X0117338Y0034624D02*
X0128807D01*
X0116738Y0035224D02*
X0129521D01*
X0125394Y0034100D02*
Y0035906D01*
X0125994Y0034100D02*
Y0035906D01*
X0126594Y0034100D02*
Y0035906D01*
X0127194Y0034100D02*
Y0035906D01*
X0127794Y0034100D02*
Y0035906D01*
X0122994Y0034100D02*
Y0037704D01*
X0115538Y0036424D02*
X0123801D01*
X0115248Y0037024D02*
X0123801D01*
X0115300Y0037624D02*
X0123801D01*
X0118601Y0037704D02*
X0123801D01*
X0123594Y0034100D02*
Y0037704D01*
X0128394Y0034100D02*
Y0035906D01*
X0128994Y0034818D02*
Y0035906D01*
X0123801D02*
Y0037704D01*
X0129594Y0035268D02*
Y0035906D01*
X0130194Y0035538D02*
Y0035906D01*
X0115243Y0038204D02*
X0118601D01*
X0115058Y0053200D02*
X0118601D01*
X0115794D02*
Y0053936D01*
X0115082Y0053224D02*
X0118601D01*
X0115682Y0053824D02*
X0118601D01*
X0116394Y0053200D02*
Y0054536D01*
X0116994Y0053200D02*
Y0055136D01*
X0117594Y0053200D02*
Y0055736D01*
X0116282Y0054424D02*
X0118601D01*
Y0053200D02*
Y0054700D01*
X0118194Y0053200D02*
Y0056336D01*
X0115058Y0053200D02*
X0119208Y0057350D01*
X0118794Y0054700D02*
Y0056936D01*
X0119394Y0054700D02*
Y0057350D01*
X0119994Y0054700D02*
Y0057350D01*
X0120594Y0054700D02*
Y0057350D01*
X0121194Y0054700D02*
Y0057350D01*
X0121794Y0054700D02*
Y0057350D01*
X0122394Y0054700D02*
Y0057350D01*
X0122994Y0054700D02*
Y0057350D01*
X0123594Y0054700D02*
Y0057350D01*
X0118601Y0054700D02*
X0123801D01*
X0116882Y0055024D02*
X0123801D01*
X0117482Y0055624D02*
X0123801D01*
X0118082Y0056224D02*
X0123801D01*
X0118682Y0056824D02*
X0123801D01*
Y0054700D02*
Y0056900D01*
X0124194D02*
Y0057350D01*
X0124794Y0056900D02*
Y0057350D01*
X0125394Y0056900D02*
Y0057350D01*
X0125994Y0056900D02*
Y0057350D01*
X0126594Y0056900D02*
Y0057350D01*
X0127194Y0056900D02*
Y0057350D01*
X0127794Y0056900D02*
Y0057350D01*
X0119208D02*
X0128300D01*
X0128394Y0056900D02*
Y0057352D01*
X0128994Y0056900D02*
Y0057477D01*
X0129594Y0056900D02*
Y0057841D01*
X0130194Y0056900D02*
Y0058436D01*
X0129679Y0057921D02*
X0130285Y0058527D01*
X0131394Y0002000D02*
Y0004597D01*
X0131994Y0002000D02*
Y0004727D01*
X0132594Y0002000D02*
Y0004990D01*
X0131581Y0004624D02*
X0135371D01*
X0134394Y0002000D02*
Y0004970D01*
X0134994Y0002000D02*
Y0004716D01*
X0135594Y0002000D02*
Y0004592D01*
X0136194Y0002000D02*
Y0004584D01*
X0136794Y0002000D02*
Y0004691D01*
X0139794Y0002000D02*
Y0004756D01*
X0133194Y0002000D02*
Y0005430D01*
X0133794Y0002000D02*
Y0005397D01*
X0132949Y0005224D02*
X0134002D01*
X0137394Y0002000D02*
Y0004925D01*
X0137994Y0002000D02*
Y0005323D01*
X0138594Y0002000D02*
Y0005512D01*
X0139194Y0002000D02*
Y0005041D01*
X0137870Y0005224D02*
X0138924D01*
X0140394Y0002000D02*
Y0004608D01*
X0140994Y0002000D02*
Y0004577D01*
X0136502Y0004624D02*
X0140292D01*
X0141594Y0002000D02*
Y0004660D01*
X0141423Y0004624D02*
X0145213D01*
X0145194Y0002000D02*
Y0004628D01*
X0145794Y0002000D02*
Y0004574D01*
X0146394Y0002000D02*
Y0004634D01*
X0146345Y0004624D02*
X0147500D01*
X0147594Y0002000D02*
Y0004574D01*
X0142194Y0002000D02*
Y0004866D01*
X0142794Y0002000D02*
Y0005226D01*
X0143394Y0002000D02*
Y0005641D01*
X0143994Y0002000D02*
Y0005118D01*
X0144594Y0002000D02*
Y0004802D01*
X0146994Y0002000D02*
Y0004814D01*
X0147500Y0004574D02*
Y0005076D01*
X0148194Y0002000D02*
Y0004574D01*
X0147500D02*
X0153900D01*
X0132254Y0026224D02*
X0134336D01*
X0113600Y0026824D02*
X0134336D01*
X0113600Y0027424D02*
X0134336D01*
X0113600Y0028024D02*
X0134413D01*
X0133187Y0025624D02*
X0133765D01*
X0134336Y0026045D02*
Y0027536D01*
X0131394Y0026452D02*
Y0029306D01*
X0131994Y0026321D02*
Y0029400D01*
X0113600Y0028624D02*
X0134763D01*
X0113600Y0029224D02*
X0135362D01*
X0133194Y0025618D02*
Y0029997D01*
X0133794Y0025651D02*
Y0030626D01*
X0132594Y0026058D02*
Y0029619D01*
X0134806Y0028669D02*
X0136058Y0029920D01*
X0134394Y0027961D02*
Y0032298D01*
X0142791Y0005224D02*
X0143845D01*
X0146994Y0012734D02*
Y0013275D01*
X0146743Y0013024D02*
X0156240D01*
X0146588Y0012870D02*
X0147688Y0013970D01*
X0147500Y0012472D02*
Y0012974D01*
X0153900D01*
X0147594D02*
Y0013875D01*
X0147343Y0013624D02*
X0156240D01*
X0147913Y0014224D02*
X0156240D01*
X0132955Y0029824D02*
X0135962D01*
X0133635Y0030424D02*
X0136058D01*
X0134039Y0031024D02*
X0136058D01*
X0134278Y0031624D02*
X0136058D01*
X0134264Y0033424D02*
X0136058D01*
X0148194Y0012974D02*
Y0014671D01*
X0134388Y0032224D02*
X0136058D01*
X0148265Y0014824D02*
X0156240D01*
X0134383Y0032824D02*
X0136058D01*
X0148794Y0002000D02*
Y0004574D01*
X0149394Y0002000D02*
Y0004574D01*
X0149994Y0002000D02*
Y0004574D01*
X0150594Y0002000D02*
Y0004574D01*
X0150700Y0004974D02*
Y0008774D01*
X0151194Y0002000D02*
Y0004574D01*
X0151794Y0002000D02*
Y0004574D01*
X0152394Y0002000D02*
Y0004574D01*
X0152994Y0002000D02*
Y0004574D01*
X0153594Y0002000D02*
Y0004574D01*
X0148794Y0012974D02*
Y0018074D01*
X0150700Y0008774D02*
Y0012574D01*
X0148479Y0015879D02*
Y0018074D01*
X0149394Y0012974D02*
Y0018074D01*
X0149994Y0012974D02*
Y0018074D01*
X0150594Y0012974D02*
Y0018074D01*
X0151194Y0012974D02*
Y0018074D01*
X0151794Y0012974D02*
Y0018074D01*
X0152394Y0012974D02*
Y0018074D01*
X0152994Y0012974D02*
Y0018074D01*
X0153900Y0004624D02*
X0156240D01*
X0153900Y0005224D02*
X0156240D01*
X0150700Y0008774D02*
X0153500D01*
X0153900Y0005824D02*
X0156240D01*
X0153900Y0006424D02*
X0156240D01*
X0153900Y0007024D02*
X0156240D01*
X0153900Y0007624D02*
X0156240D01*
X0153900Y0008224D02*
X0156240D01*
X0153900Y0008824D02*
X0156240D01*
X0153900Y0009424D02*
X0156240D01*
X0153594Y0012974D02*
Y0018074D01*
X0148440Y0015424D02*
X0156240D01*
X0148479Y0016024D02*
X0156240D01*
X0148479Y0016624D02*
X0156240D01*
X0148479Y0017224D02*
X0156240D01*
X0153900Y0004574D02*
Y0012974D01*
Y0010024D02*
X0156240D01*
X0153900Y0010624D02*
X0156240D01*
X0153900Y0011224D02*
X0156240D01*
X0153900Y0011824D02*
X0156240D01*
X0153900Y0012424D02*
X0156240D01*
X0148479Y0018074D02*
X0153900D01*
X0148479Y0017824D02*
X0156240D01*
X0150700Y0018474D02*
Y0022274D01*
X0153500D01*
X0150700D02*
Y0026074D01*
X0153900Y0018074D02*
Y0026474D01*
Y0018424D02*
X0156240D01*
X0153900Y0019024D02*
X0156240D01*
X0153900Y0019624D02*
X0156240D01*
X0153900Y0020224D02*
X0156240D01*
X0148979Y0026474D02*
Y0031574D01*
Y0026474D02*
X0153900D01*
X0149394D02*
Y0031574D01*
X0149994Y0026474D02*
Y0031574D01*
X0148979D02*
X0153900D01*
X0150594Y0026474D02*
Y0031574D01*
X0151194Y0026474D02*
Y0031574D01*
X0151794Y0026474D02*
Y0031574D01*
X0152394Y0026474D02*
Y0031574D01*
X0152994Y0026474D02*
Y0031574D01*
X0153594Y0026474D02*
Y0031574D01*
X0153900Y0020824D02*
X0156240D01*
X0153900Y0021424D02*
X0156240D01*
X0153900Y0022024D02*
X0156240D01*
X0153900Y0022624D02*
X0156240D01*
X0153900Y0023224D02*
X0156240D01*
X0153900Y0023824D02*
X0156240D01*
X0153900Y0024424D02*
X0156240D01*
X0153900Y0025024D02*
X0156240D01*
X0153900Y0025624D02*
X0156240D01*
X0153900Y0026224D02*
X0156240D01*
X0148979Y0026824D02*
X0156240D01*
X0148979Y0027424D02*
X0156240D01*
X0148979Y0028024D02*
X0156240D01*
X0148979Y0028624D02*
X0156240D01*
X0148979Y0029224D02*
X0156240D01*
X0148979Y0029824D02*
X0156240D01*
X0148979Y0030424D02*
X0156240D01*
X0148979Y0031024D02*
X0156240D01*
X0153900Y0031624D02*
X0156240D01*
X0153900Y0032224D02*
X0156240D01*
X0153900Y0032824D02*
X0156240D01*
X0116138Y0035824D02*
X0136058D01*
X0123801Y0035906D02*
X0131800D01*
Y0036424D02*
X0136058D01*
X0131800Y0037024D02*
X0136058D01*
X0134014Y0034024D02*
X0136058D01*
X0133593Y0034624D02*
X0136058D01*
X0132879Y0035224D02*
X0136058D01*
X0131800Y0037624D02*
X0136058D01*
X0131800Y0038224D02*
X0136058D01*
X0132594Y0035381D02*
Y0059120D01*
X0133194Y0035003D02*
Y0059695D01*
X0131800Y0035906D02*
Y0056900D01*
Y0038824D02*
X0136058D01*
X0131994Y0035600D02*
Y0058773D01*
X0134994Y0028856D02*
Y0064800D01*
X0135594Y0029456D02*
Y0064800D01*
X0133794Y0034374D02*
Y0060882D01*
X0136058Y0029920D02*
Y0064380D01*
X0134394Y0032702D02*
Y0064800D01*
X0131800Y0039424D02*
X0136058D01*
X0131800Y0040024D02*
X0136058D01*
X0131800Y0040624D02*
X0136058D01*
X0131800Y0041224D02*
X0136058D01*
X0131800Y0041824D02*
X0136058D01*
X0148979Y0039974D02*
X0153900D01*
X0148979Y0040024D02*
X0156240D01*
X0148979Y0040624D02*
X0156240D01*
X0148979Y0041224D02*
X0156240D01*
X0148979Y0041824D02*
X0156240D01*
X0131800Y0042424D02*
X0136058D01*
X0131800Y0043024D02*
X0136058D01*
X0131800Y0043624D02*
X0136058D01*
X0131800Y0044224D02*
X0136058D01*
X0131800Y0044824D02*
X0136058D01*
X0148979Y0042424D02*
X0156240D01*
X0148979Y0043024D02*
X0156240D01*
X0148979Y0043624D02*
X0156240D01*
X0131800Y0045424D02*
X0136058D01*
X0148979Y0044224D02*
X0156240D01*
X0148979Y0044824D02*
X0156240D01*
X0131800Y0046024D02*
X0136058D01*
X0131800Y0046624D02*
X0136058D01*
X0131800Y0047224D02*
X0136058D01*
X0131800Y0047824D02*
X0136058D01*
X0131800Y0048424D02*
X0136058D01*
X0131800Y0049024D02*
X0136058D01*
X0131800Y0049624D02*
X0136058D01*
X0131800Y0050224D02*
X0136058D01*
X0131800Y0050824D02*
X0136058D01*
X0131800Y0051424D02*
X0136058D01*
X0130794Y0056900D02*
Y0058501D01*
X0123801Y0056900D02*
X0131800D01*
X0131394D02*
Y0058576D01*
X0133194Y0063705D02*
Y0064800D01*
X0131800Y0052024D02*
X0136058D01*
X0133794Y0062518D02*
Y0064800D01*
X0132594Y0064280D02*
Y0064800D01*
X0131494D02*
X0135637D01*
X0131999Y0064624D02*
X0135813D01*
X0131800Y0052624D02*
X0136058D01*
X0131800Y0053224D02*
X0136058D01*
X0131800Y0053824D02*
X0136058D01*
X0128833Y0057424D02*
X0136058D01*
X0129782Y0058024D02*
X0136058D01*
X0131800Y0054424D02*
X0136058D01*
X0131800Y0055024D02*
X0136058D01*
X0131800Y0055624D02*
X0136058D01*
X0131800Y0056224D02*
X0136058D01*
X0131800Y0056824D02*
X0136058D01*
X0131584Y0058624D02*
X0136058D01*
X0132728Y0059224D02*
X0136058D01*
X0133293Y0059824D02*
X0136058D01*
X0133396Y0063424D02*
X0136058D01*
X0132899Y0064024D02*
X0136058D01*
X0133635Y0060424D02*
X0136058D01*
X0133828Y0061024D02*
X0136058D01*
X0133899Y0061624D02*
X0136058D01*
X0133857Y0062224D02*
X0136058D01*
X0133696Y0062824D02*
X0136058D01*
X0135637Y0064800D02*
X0136058Y0064380D01*
X0150700Y0031974D02*
Y0035774D01*
X0153500D01*
X0148979Y0039974D02*
Y0045074D01*
X0149394Y0039974D02*
Y0045074D01*
X0149994Y0039974D02*
Y0045074D01*
X0150700Y0035774D02*
Y0039574D01*
X0153900Y0031574D02*
Y0039974D01*
X0150594D02*
Y0045074D01*
X0151194Y0039974D02*
Y0045074D01*
X0151794Y0039974D02*
Y0045074D01*
X0152394Y0039974D02*
Y0045074D01*
X0148979D02*
X0153900D01*
X0150700Y0045474D02*
Y0049274D01*
X0153500D01*
X0150700D02*
Y0053074D01*
X0154194Y0002000D02*
Y0117900D01*
X0154794Y0002000D02*
Y0117900D01*
X0152994Y0039974D02*
Y0045074D01*
X0153594Y0039974D02*
Y0045074D01*
X0153900D02*
Y0053474D01*
Y0033424D02*
X0156240D01*
X0153900Y0034024D02*
X0156240D01*
X0153900Y0034624D02*
X0156240D01*
X0153900Y0035224D02*
X0156240D01*
X0153900Y0035824D02*
X0156240D01*
X0153900Y0036424D02*
X0156240D01*
X0153900Y0037024D02*
X0156240D01*
X0153900Y0037624D02*
X0156240D01*
X0153900Y0038224D02*
X0156240D01*
X0153900Y0038824D02*
X0156240D01*
X0153900Y0039424D02*
X0156240D01*
X0153900Y0045424D02*
X0156240D01*
X0153900Y0046024D02*
X0156240D01*
X0153900Y0046624D02*
X0156240D01*
X0153900Y0047224D02*
X0156240D01*
X0155394Y0002000D02*
Y0117900D01*
X0155994Y0002000D02*
Y0117900D01*
X0156240Y0002000D02*
Y0117900D01*
X0153900Y0047824D02*
X0156240D01*
X0153900Y0048424D02*
X0156240D01*
X0153900Y0049024D02*
X0156240D01*
X0148979Y0053474D02*
X0153900D01*
Y0049624D02*
X0156240D01*
X0148979Y0053474D02*
Y0058574D01*
X0149394Y0053474D02*
Y0058574D01*
X0149994Y0053474D02*
Y0058574D01*
X0153900Y0050224D02*
X0156240D01*
X0153900Y0050824D02*
X0156240D01*
X0153900Y0051424D02*
X0156240D01*
X0153900Y0052024D02*
X0156240D01*
X0153900Y0052624D02*
X0156240D01*
X0150594Y0053474D02*
Y0058574D01*
X0148979D02*
X0153900D01*
X0150700Y0058974D02*
Y0062774D01*
X0153500D01*
X0150700D02*
Y0066574D01*
X0151194Y0053474D02*
Y0058574D01*
X0151794Y0053474D02*
Y0058574D01*
X0152394Y0053474D02*
Y0058574D01*
X0152994Y0053474D02*
Y0058574D01*
X0153594Y0053474D02*
Y0058574D01*
X0153900D02*
Y0066974D01*
X0148979Y0053824D02*
X0156240D01*
X0148979Y0054424D02*
X0156240D01*
X0148979Y0055024D02*
X0156240D01*
X0148979Y0055624D02*
X0156240D01*
X0148979Y0056224D02*
X0156240D01*
X0153900Y0053224D02*
X0156240D01*
X0148979Y0056824D02*
X0156240D01*
X0148979Y0057424D02*
X0156240D01*
X0148979Y0058024D02*
X0156240D01*
X0153900Y0058624D02*
X0156240D01*
X0153900Y0059224D02*
X0156240D01*
X0153900Y0059824D02*
X0156240D01*
X0153900Y0060424D02*
X0156240D01*
X0153900Y0061024D02*
X0156240D01*
X0153900Y0061624D02*
X0156240D01*
X0153900Y0062224D02*
X0156240D01*
X0153900Y0062824D02*
X0156240D01*
X0153900Y0063424D02*
X0156240D01*
X0153900Y0064024D02*
X0156240D01*
X0153900Y0064624D02*
X0156240D01*
X0153900Y0065224D02*
X0156240D01*
X0082194Y0066674D02*
Y0077937D01*
X0086994Y0066642D02*
Y0077430D01*
X0085449Y0066642D02*
X0089154D01*
X0087594D02*
Y0070234D01*
X0088194Y0066642D02*
Y0069601D01*
X0087300Y0071158D02*
Y0077229D01*
X0088794Y0066642D02*
Y0069001D01*
X0080994Y0066674D02*
Y0078451D01*
X0081594Y0066674D02*
Y0078121D01*
X0082794Y0066674D02*
Y0077874D01*
X0083394Y0066674D02*
Y0077925D01*
X0083994Y0066674D02*
Y0078095D01*
X0084594Y0066674D02*
Y0078407D01*
X0085194Y0066668D02*
Y0078921D01*
X0085794Y0066642D02*
Y0079232D01*
X0086394Y0066642D02*
Y0078010D01*
X0089154Y0065824D02*
X0090000D01*
X0089154Y0066424D02*
X0090000D01*
X0087770Y0070025D02*
X0090000Y0067795D01*
X0090500Y0071820D02*
X0092730Y0069591D01*
X0090500Y0071824D02*
X0093300D01*
X0092394Y0069927D02*
Y0072612D01*
X0092296Y0070024D02*
X0093300D01*
X0090500Y0072424D02*
X0092888D01*
X0091696Y0070624D02*
X0093300D01*
X0091096Y0071224D02*
X0093300D01*
X0090594Y0071727D02*
Y0075125D01*
X0090500Y0071820D02*
Y0077229D01*
Y0074224D02*
X0090837D01*
X0090500Y0073024D02*
X0091744D01*
X0090500Y0073624D02*
X0091179D01*
X0091194Y0071127D02*
Y0073604D01*
X0091794Y0070527D02*
Y0072984D01*
X0090594Y0075875D02*
Y0077285D01*
X0090500Y0077224D02*
X0091076D01*
X0085283Y0079024D02*
X0085852D01*
X0084620Y0078424D02*
X0086115D01*
X0080994Y0083697D02*
Y0092800D01*
X0081594Y0084027D02*
Y0092800D01*
X0082194Y0084211D02*
Y0092800D01*
X0085882Y0082024D02*
X0086422D01*
X0085625Y0082624D02*
X0087069D01*
X0088794Y0083198D02*
Y0092644D01*
X0089994Y0083007D02*
Y0091444D01*
X0089394Y0083162D02*
Y0092044D01*
X0084594Y0083741D02*
Y0092800D01*
X0085194Y0083227D02*
Y0092800D01*
X0082794Y0084274D02*
Y0092800D01*
X0083394Y0084223D02*
Y0092800D01*
X0083994Y0084053D02*
Y0092800D01*
X0085794Y0082271D02*
Y0092800D01*
X0086394Y0081990D02*
Y0092800D01*
X0086994Y0082570D02*
Y0092800D01*
X0087594Y0082921D02*
Y0092800D01*
X0088194Y0083121D02*
Y0092800D01*
X0091194Y0077396D02*
Y0077769D01*
X0090731Y0082624D02*
X0092172D01*
X0085196Y0083224D02*
X0092172D01*
X0084462Y0083824D02*
X0092172D01*
X0091247Y0077824D02*
X0091572D01*
X0091794Y0078016D02*
Y0078634D01*
X0091685Y0078424D02*
X0092172D01*
X0091765Y0081424D02*
X0092172D01*
X0091378Y0082024D02*
X0092172D01*
X0090594Y0082715D02*
Y0090844D01*
X0091194Y0082231D02*
Y0090281D01*
X0088637Y0092800D02*
X0090967Y0090470D01*
X0091794Y0081366D02*
Y0090030D01*
X0092172Y0078271D02*
Y0088472D01*
X0092394Y0089285D02*
Y0090000D01*
X0092100D02*
X0093037D01*
X0093200Y0065511D02*
Y0068458D01*
X0092875Y0069424D02*
X0093300D01*
X0092994Y0069244D02*
Y0072396D01*
X0119900Y0072424D02*
X0120207D01*
X0119900Y0073024D02*
X0120921D01*
X0119900Y0073624D02*
X0121100D01*
X0119900Y0074224D02*
X0121100D01*
X0119900Y0074824D02*
X0121100D01*
X0119900Y0075424D02*
X0121100D01*
X0119900Y0076024D02*
X0121100D01*
X0119900Y0076624D02*
X0121105D01*
X0119900Y0077224D02*
X0121273D01*
X0119900Y0072018D02*
Y0083752D01*
X0119994Y0072157D02*
Y0083752D01*
X0120594Y0072793D02*
Y0083752D01*
X0121100Y0073127D02*
Y0076500D01*
X0121194Y0077039D02*
Y0083752D01*
X0124794Y0072630D02*
Y0076331D01*
X0124993Y0072424D02*
X0127196D01*
X0124300Y0073011D02*
Y0075837D01*
X0125693Y0071119D02*
X0126435Y0071860D01*
X0125414Y0071824D02*
X0126399D01*
X0125394Y0071861D02*
Y0076931D01*
X0125994Y0071419D02*
Y0077531D01*
X0124300Y0075837D02*
X0126963Y0078500D01*
X0119900Y0077824D02*
X0121762D01*
X0121570Y0077633D02*
X0125167Y0081230D01*
X0126594Y0072009D02*
Y0078131D01*
X0127194Y0072423D02*
Y0078500D01*
X0127794Y0072669D02*
Y0078500D01*
X0128394Y0072785D02*
Y0078500D01*
X0128994Y0072800D02*
Y0078500D01*
X0129594Y0072800D02*
Y0078500D01*
X0092642Y0089604D02*
X0093037Y0090000D01*
X0119900Y0078424D02*
X0122362D01*
X0117776Y0092339D02*
Y0094026D01*
X0117290Y0092824D02*
X0117776D01*
X0116690Y0093424D02*
X0117776D01*
X0121794Y0077856D02*
Y0083752D01*
X0122394Y0078456D02*
Y0083752D01*
X0119900Y0079024D02*
X0122962D01*
X0119900Y0079624D02*
X0123562D01*
X0122994Y0079056D02*
Y0083752D01*
X0117594Y0092521D02*
Y0095179D01*
X0115554Y0094560D02*
X0117776Y0092339D01*
X0114588Y0095224D02*
X0117496D01*
X0116090Y0094024D02*
X0117776D01*
X0118194Y0094026D02*
Y0094979D01*
X0118794Y0094026D02*
Y0094902D01*
X0119394Y0094026D02*
Y0094938D01*
X0119994Y0094026D02*
Y0095093D01*
X0120594Y0094026D02*
Y0095385D01*
X0122994Y0094026D02*
Y0095393D01*
X0120304Y0095224D02*
X0123296D01*
X0123594Y0079656D02*
Y0083752D01*
X0119900Y0080224D02*
X0124162D01*
X0124194Y0080256D02*
Y0083752D01*
X0119900Y0080824D02*
X0124762D01*
X0119900Y0081424D02*
X0125402D01*
X0124794Y0080856D02*
Y0083752D01*
X0125394Y0081419D02*
Y0083752D01*
X0125994Y0081670D02*
Y0083752D01*
X0126594Y0081700D02*
Y0083752D01*
X0119900D02*
X0129624D01*
X0124194Y0094026D02*
Y0094940D01*
X0124794Y0094026D02*
Y0094901D01*
X0125394Y0094026D02*
Y0094976D01*
X0127194Y0081700D02*
Y0083752D01*
X0127794Y0081700D02*
Y0083752D01*
X0128394Y0081700D02*
Y0083752D01*
X0128994Y0081700D02*
Y0083752D01*
X0129594Y0081700D02*
Y0083752D01*
X0129624D02*
Y0094026D01*
X0095196Y0109930D02*
X0099426Y0105700D01*
X0103194D02*
Y0111503D01*
X0095994Y0109132D02*
Y0117900D01*
X0096101Y0109024D02*
X0106326D01*
X0096594Y0108532D02*
Y0117900D01*
X0103794Y0105700D02*
Y0110586D01*
X0104394Y0105700D02*
Y0109987D01*
X0104994Y0105700D02*
Y0109563D01*
X0106194Y0105700D02*
Y0109057D01*
X0105594Y0105700D02*
Y0109261D01*
X0098994Y0106132D02*
Y0117900D01*
X0099594Y0105700D02*
Y0117900D01*
X0097194Y0107932D02*
Y0117900D01*
X0097794Y0107332D02*
Y0117900D01*
X0098394Y0106732D02*
Y0117900D01*
X0100194Y0105700D02*
Y0117900D01*
X0100794Y0105700D02*
Y0117900D01*
X0101394Y0105700D02*
Y0117900D01*
X0101994Y0105700D02*
Y0117900D01*
X0102594Y0105700D02*
Y0117900D01*
X0109818Y0096107D02*
X0110425Y0095500D01*
X0110101Y0095824D02*
X0116650D01*
X0099426Y0105700D02*
X0118700D01*
X0097901Y0107224D02*
X0129436D01*
X0110394Y0095532D02*
Y0096200D01*
X0110425Y0095500D02*
X0113289D01*
X0110994D02*
Y0096419D01*
X0111004Y0096424D02*
X0116174D01*
X0111594Y0095500D02*
Y0096797D01*
X0106794Y0105700D02*
Y0108939D01*
X0107394Y0105700D02*
Y0108900D01*
X0097301Y0107824D02*
X0117776D01*
X0096701Y0108424D02*
X0117776D01*
X0107994Y0105700D02*
Y0108938D01*
X0108594Y0105700D02*
Y0109054D01*
X0109194Y0105700D02*
Y0109256D01*
X0109794Y0105700D02*
Y0109555D01*
X0110394Y0105700D02*
Y0109977D01*
X0110994Y0105700D02*
Y0110571D01*
X0080994Y0110400D02*
Y0117900D01*
X0081594Y0110400D02*
Y0117900D01*
X0082194Y0110400D02*
Y0117900D01*
X0082794Y0110400D02*
Y0117900D01*
X0083394Y0110400D02*
Y0117900D01*
X0083994Y0110400D02*
Y0117900D01*
X0084594Y0110400D02*
Y0117900D01*
X0085194Y0110400D02*
Y0117900D01*
X0085794Y0110400D02*
Y0117900D01*
X0086394Y0110400D02*
Y0117900D01*
X0086994Y0110400D02*
Y0117900D01*
X0087594Y0110400D02*
Y0117900D01*
X0088194Y0110400D02*
Y0117900D01*
X0088794Y0110400D02*
Y0117900D01*
X0089394Y0110400D02*
Y0117900D01*
X0089994Y0110400D02*
Y0117900D01*
X0090594Y0110400D02*
Y0117900D01*
X0091194Y0110400D02*
Y0117900D01*
X0091794Y0110400D02*
Y0117900D01*
X0092394Y0110400D02*
Y0117900D01*
X0092994Y0110400D02*
Y0117900D01*
X0095501Y0109624D02*
X0104893D01*
X0108474Y0109024D02*
X0117776D01*
X0094792Y0110224D02*
X0104130D01*
X0109907Y0109624D02*
X0117776D01*
X0110670Y0110224D02*
X0117776D01*
X0111193Y0110824D02*
X0117776D01*
X0111299Y0116224D02*
X0117776D01*
X0110819Y0116824D02*
X0117776D01*
X0094794Y0110223D02*
Y0117900D01*
X0095394Y0109732D02*
Y0117900D01*
X0093594Y0110400D02*
Y0117900D01*
X0094194Y0110395D02*
Y0117900D01*
X0103194Y0115697D02*
Y0117900D01*
X0103794Y0116614D02*
Y0117900D01*
X0110994Y0116629D02*
Y0117900D01*
X0104394Y0117213D02*
Y0117900D01*
X0110132Y0117424D02*
X0117776D01*
X0110394Y0117223D02*
Y0117900D01*
X0112194Y0095500D02*
Y0097426D01*
X0111850Y0097024D02*
X0115886D01*
X0112326Y0097624D02*
X0115735D01*
X0112614Y0098224D02*
X0115702D01*
X0112765Y0098824D02*
X0115783D01*
X0115794Y0094321D02*
Y0097332D01*
X0112794Y0095500D02*
Y0099098D01*
X0115194Y0094871D02*
Y0099544D01*
X0112798Y0099424D02*
X0115313D01*
X0112371Y0100900D02*
X0113837D01*
X0112717Y0100024D02*
X0114713D01*
X0112513Y0100624D02*
X0114113D01*
X0113394Y0095498D02*
Y0100900D01*
X0114594Y0095222D02*
Y0100144D01*
X0112794Y0099502D02*
Y0100900D01*
X0113994Y0095421D02*
Y0100744D01*
X0113837Y0100900D02*
X0115809Y0098928D01*
X0116394Y0093721D02*
Y0096110D01*
X0116994Y0093121D02*
Y0095530D01*
X0121194Y0094026D02*
Y0095869D01*
X0121150Y0095824D02*
X0122450D01*
X0121626Y0096424D02*
X0121974D01*
X0122394Y0094026D02*
Y0095882D01*
X0123594Y0094026D02*
Y0095097D01*
X0125994Y0094026D02*
Y0095173D01*
X0126594Y0094026D02*
Y0095520D01*
X0127194Y0094026D02*
Y0096095D01*
X0121794Y0094026D02*
Y0096734D01*
X0125994Y0101027D02*
Y0107374D01*
X0127794Y0094026D02*
Y0097282D01*
X0128394Y0094026D02*
Y0107374D01*
X0128994Y0094026D02*
Y0107374D01*
X0126594Y0100680D02*
Y0107374D01*
X0127194Y0100105D02*
Y0107374D01*
X0127794Y0098918D02*
Y0107374D01*
X0111594Y0105700D02*
Y0111478D01*
X0111566Y0111424D02*
X0117776D01*
X0111828Y0112024D02*
X0117776D01*
X0111998Y0112624D02*
X0117776D01*
X0111642Y0115624D02*
X0117776D01*
Y0107374D02*
Y0117648D01*
X0112085Y0113224D02*
X0117776D01*
X0112095Y0113824D02*
X0117776D01*
X0112027Y0114424D02*
X0117776D01*
X0111879Y0115024D02*
X0117776D01*
X0112194Y0105700D02*
Y0117900D01*
X0112794Y0105700D02*
Y0117900D01*
X0111594Y0115722D02*
Y0117900D01*
X0113394Y0105700D02*
Y0117900D01*
X0113994Y0105700D02*
Y0117900D01*
X0114594Y0105700D02*
Y0117900D01*
X0115194Y0105700D02*
Y0117900D01*
X0115794Y0105700D02*
Y0117900D01*
X0116394Y0105700D02*
Y0117900D01*
X0116994Y0105700D02*
Y0117900D01*
X0117594Y0105700D02*
Y0117900D01*
X0118194Y0105700D02*
Y0107374D01*
X0118794Y0105697D02*
Y0107374D01*
X0119394Y0105542D02*
Y0107374D01*
X0121794Y0103269D02*
Y0107374D01*
X0119833Y0105230D02*
X0123872Y0101191D01*
X0119994Y0105069D02*
Y0107374D01*
X0120594Y0104469D02*
Y0107374D01*
X0121194Y0103869D02*
Y0107374D01*
X0122994Y0102069D02*
Y0107374D01*
X0123594Y0101469D02*
Y0107374D01*
X0122394Y0102669D02*
Y0107374D01*
X0117776D02*
X0129417D01*
X0118176Y0112511D02*
X0123700D01*
X0124194Y0101260D02*
Y0107374D01*
X0124794Y0101299D02*
Y0107374D01*
X0125394Y0101224D02*
Y0107374D01*
X0123700Y0107774D02*
Y0112511D01*
X0129224D01*
X0123700D02*
Y0117248D01*
X0130194Y0072800D02*
Y0078500D01*
X0130794Y0072800D02*
Y0078500D01*
X0126963D02*
X0133500D01*
X0124300Y0074824D02*
X0137689D01*
X0124300Y0075424D02*
X0137658D01*
X0131394Y0072800D02*
Y0078500D01*
X0131994Y0072800D02*
Y0078500D01*
X0132594Y0072800D02*
Y0078500D01*
X0137658Y0075274D02*
Y0077274D01*
X0133194Y0072800D02*
Y0078500D01*
X0133794Y0072800D02*
Y0078527D01*
X0134394Y0072800D02*
Y0078773D01*
X0134633Y0078970D02*
X0135772Y0080109D01*
X0134994Y0072800D02*
Y0079331D01*
X0135594Y0072800D02*
Y0079931D01*
X0136194Y0072800D02*
Y0080026D01*
X0136794Y0072800D02*
Y0080006D01*
X0137394Y0072800D02*
Y0080100D01*
X0124300Y0073624D02*
X0138116D01*
X0124300Y0073024D02*
X0138582D01*
X0124487Y0076024D02*
X0137658D01*
X0124300Y0074224D02*
X0137835D01*
X0125087Y0076624D02*
X0137658D01*
X0128700Y0072800D02*
X0138828D01*
X0125687Y0077224D02*
X0137658D01*
X0137994Y0072800D02*
Y0073847D01*
X0126287Y0077824D02*
X0137705D01*
X0126887Y0078424D02*
X0137872D01*
X0134687Y0079024D02*
X0138179D01*
X0135287Y0079624D02*
X0138686D01*
X0137994Y0078702D02*
Y0080319D01*
X0138594Y0079536D02*
Y0080697D01*
X0139194Y0080007D02*
Y0081326D01*
X0137777Y0080224D02*
X0139619D01*
X0139794Y0080292D02*
Y0082998D01*
X0140394Y0080440D02*
Y0085608D01*
X0126300Y0081700D02*
X0132837D01*
X0119900Y0082024D02*
X0133162D01*
X0119900Y0082624D02*
X0133452D01*
X0119900Y0083224D02*
X0133400D01*
X0129624Y0083824D02*
X0133461D01*
X0132837Y0081700D02*
X0133509Y0082372D01*
X0129624Y0084424D02*
X0133643D01*
X0129624Y0085024D02*
X0133971D01*
X0129624Y0085624D02*
X0134511D01*
X0129624Y0086224D02*
X0135555D01*
X0129624Y0088024D02*
X0137747D01*
X0129624Y0087424D02*
X0137956D01*
X0117776Y0094026D02*
X0129624D01*
Y0088624D02*
X0137661D01*
X0129624Y0089224D02*
X0137658D01*
Y0088774D02*
Y0090774D01*
X0137994Y0086081D02*
Y0087347D01*
X0129624Y0089824D02*
X0137658D01*
X0129624Y0090424D02*
X0137658D01*
X0129624Y0091024D02*
X0137667D01*
X0129624Y0091624D02*
X0137773D01*
X0138744Y0080824D02*
X0142579D01*
X0139262Y0081424D02*
X0142579D01*
X0138689Y0085624D02*
X0140292D01*
X0139576Y0082024D02*
X0142579D01*
X0139229Y0085024D02*
X0142579D01*
X0139748Y0082624D02*
X0142579D01*
X0139800Y0083224D02*
X0142579D01*
X0139794Y0083402D02*
Y0085756D01*
X0139739Y0083824D02*
X0142579D01*
X0139557Y0084424D02*
X0142579D01*
X0129624Y0092224D02*
X0138005D01*
X0129624Y0086824D02*
X0138320D01*
X0129624Y0092824D02*
X0138401D01*
X0129624Y0093424D02*
X0139065D01*
X0129624Y0094024D02*
X0142579D01*
X0139194Y0085074D02*
Y0086041D01*
X0138594Y0085703D02*
Y0086513D01*
X0137645Y0086224D02*
X0138924D01*
X0148979Y0066974D02*
X0153900D01*
X0148979Y0067024D02*
X0156240D01*
X0148979Y0066974D02*
Y0069600D01*
Y0072074D01*
X0149394Y0066974D02*
Y0072074D01*
X0153900Y0065824D02*
X0156240D01*
X0153900Y0066424D02*
X0156240D01*
X0149994Y0066974D02*
Y0072074D01*
X0150594Y0066974D02*
Y0072074D01*
X0151194Y0066974D02*
Y0072074D01*
X0150700Y0072474D02*
Y0076274D01*
X0148979Y0072074D02*
X0153900D01*
X0142579Y0079972D02*
Y0086076D01*
X0150700Y0076274D02*
X0153500D01*
X0150700D02*
Y0080074D01*
X0151794Y0066974D02*
Y0072074D01*
X0152394Y0066974D02*
Y0072074D01*
X0152994Y0066974D02*
Y0072074D01*
X0153594Y0066974D02*
Y0072074D01*
X0153900D02*
Y0080474D01*
X0148979Y0067624D02*
X0156240D01*
X0148979Y0068224D02*
X0156240D01*
X0148979Y0068824D02*
X0156240D01*
X0148979Y0069424D02*
X0156240D01*
X0148979Y0070024D02*
X0156240D01*
X0148979Y0070624D02*
X0156240D01*
X0148979Y0071224D02*
X0156240D01*
X0148979Y0071824D02*
X0156240D01*
X0153900Y0072424D02*
X0156240D01*
X0153900Y0073024D02*
X0156240D01*
X0153900Y0073624D02*
X0156240D01*
X0153900Y0074224D02*
X0156240D01*
X0153900Y0074824D02*
X0156240D01*
X0153900Y0075424D02*
X0156240D01*
X0153900Y0076024D02*
X0156240D01*
X0153900Y0076624D02*
X0156240D01*
X0153900Y0077224D02*
X0156240D01*
X0153900Y0077824D02*
X0156240D01*
X0153900Y0078424D02*
X0156240D01*
X0153900Y0079024D02*
X0156240D01*
X0153900Y0079624D02*
X0156240D01*
X0140994Y0080471D02*
Y0085577D01*
X0142097Y0080224D02*
X0142579D01*
X0141423Y0085624D02*
X0142579D01*
X0148979Y0080474D02*
X0153900D01*
X0148979Y0080824D02*
X0156240D01*
X0148979Y0080474D02*
Y0085574D01*
X0153900Y0080224D02*
X0156240D01*
X0149394Y0080474D02*
Y0085574D01*
X0149994Y0080474D02*
Y0085574D01*
X0150594Y0080474D02*
Y0085574D01*
X0141594Y0080388D02*
Y0085660D01*
X0142194Y0080182D02*
Y0085866D01*
X0150700Y0085974D02*
Y0089774D01*
X0148979Y0085574D02*
X0153900D01*
X0150700Y0089774D02*
X0153500D01*
X0151194Y0080474D02*
Y0085574D01*
X0151794Y0080474D02*
Y0085574D01*
X0152394Y0080474D02*
Y0085574D01*
X0150700Y0089774D02*
Y0093574D01*
X0152994Y0080474D02*
Y0085574D01*
X0153594Y0080474D02*
Y0085574D01*
X0148979Y0081424D02*
X0156240D01*
X0148979Y0082024D02*
X0156240D01*
X0148979Y0082624D02*
X0156240D01*
X0148979Y0083224D02*
X0156240D01*
X0148979Y0083824D02*
X0156240D01*
X0148979Y0084424D02*
X0156240D01*
X0148979Y0085024D02*
X0156240D01*
X0153900Y0085624D02*
X0156240D01*
X0153900Y0086224D02*
X0156240D01*
X0153900Y0086824D02*
X0156240D01*
X0153900Y0087424D02*
X0156240D01*
X0153900Y0088024D02*
X0156240D01*
X0153900Y0088624D02*
X0156240D01*
X0153900Y0089224D02*
X0156240D01*
X0153900Y0089824D02*
X0156240D01*
X0153900Y0090424D02*
X0156240D01*
X0153900Y0091024D02*
X0156240D01*
X0153900Y0091624D02*
X0156240D01*
X0153900Y0092224D02*
X0156240D01*
X0153900Y0092824D02*
X0156240D01*
X0153900Y0093424D02*
X0156240D01*
X0132594Y0081700D02*
Y0104500D01*
X0122638Y0102424D02*
X0135613D01*
X0120838Y0104224D02*
X0133813D01*
X0122038Y0103024D02*
X0135013D01*
X0121438Y0103624D02*
X0134413D01*
X0133794Y0084738D02*
Y0104244D01*
X0134394Y0085518D02*
Y0103644D01*
X0134994Y0085968D02*
Y0103044D01*
X0136194Y0086374D02*
Y0101908D01*
X0135594Y0086238D02*
Y0102444D01*
X0129594Y0094026D02*
Y0106604D01*
X0130194Y0081700D02*
Y0105591D01*
X0119598Y0105424D02*
X0130350D01*
X0120238Y0104824D02*
X0131196D01*
X0130794Y0081700D02*
Y0105059D01*
X0131394Y0081700D02*
Y0104736D01*
X0131994Y0081700D02*
Y0104558D01*
X0133194Y0082056D02*
Y0104555D01*
X0133428Y0104609D02*
X0135893Y0102144D01*
X0115488Y0094624D02*
X0142579D01*
X0126104Y0095224D02*
X0142579D01*
X0127257Y0100024D02*
X0138582D01*
X0126950Y0095824D02*
X0142579D01*
X0127426Y0096424D02*
X0142579D01*
X0127714Y0097024D02*
X0142579D01*
X0127865Y0097624D02*
X0142579D01*
X0127613Y0099424D02*
X0139402D01*
X0127898Y0098224D02*
X0142579D01*
X0127817Y0098824D02*
X0142579D01*
X0125391Y0101224D02*
X0137835D01*
X0126667Y0100624D02*
X0138116D01*
X0123238Y0101824D02*
X0136349D01*
X0135691Y0106872D02*
X0137689Y0104874D01*
X0136794Y0086394D02*
Y0101691D01*
X0137394Y0086300D02*
Y0101674D01*
Y0105169D02*
Y0117900D01*
X0137026Y0101674D02*
X0137714D01*
X0137138Y0105424D02*
X0137872D01*
X0098501Y0106624D02*
X0129586D01*
X0099101Y0106024D02*
X0129874D01*
X0117776Y0117648D02*
X0129624D01*
Y0109624D02*
X0130043D01*
X0129624Y0110224D02*
X0130633D01*
X0129624Y0108877D02*
Y0117648D01*
Y0110824D02*
X0131909D01*
X0130194Y0109809D02*
Y0117900D01*
X0130794Y0110341D02*
Y0117900D01*
X0131394Y0110664D02*
Y0117900D01*
X0131994Y0110842D02*
Y0117900D01*
X0132594Y0110900D02*
Y0117900D01*
X0133194Y0110845D02*
Y0117900D01*
X0135594Y0108831D02*
Y0117900D01*
X0136194Y0106369D02*
Y0117900D01*
X0136794Y0105769D02*
Y0117900D01*
X0133794Y0110669D02*
Y0117900D01*
X0134394Y0110350D02*
Y0117900D01*
X0134994Y0109824D02*
Y0117900D01*
X0135513Y0109024D02*
X0156240D01*
X0135157Y0109624D02*
X0156240D01*
X0134567Y0110224D02*
X0156240D01*
X0133291Y0110824D02*
X0156240D01*
X0129624Y0111424D02*
X0156240D01*
X0136538Y0106024D02*
X0138179D01*
X0135938Y0106624D02*
X0138686D01*
X0135765Y0107224D02*
X0139619D01*
X0135798Y0107824D02*
X0156240D01*
X0135717Y0108424D02*
X0156240D01*
X0129624Y0112024D02*
X0156240D01*
X0129624Y0112624D02*
X0156240D01*
X0129624Y0113224D02*
X0156240D01*
X0129624Y0113824D02*
X0156240D01*
X0109297Y0117900D02*
X0156240D01*
X0129624Y0114424D02*
X0156240D01*
X0129624Y0115024D02*
X0156240D01*
X0129624Y0115624D02*
X0156240D01*
X0129624Y0116224D02*
X0156240D01*
X0129624Y0116824D02*
X0156240D01*
X0129624Y0117424D02*
X0156240D01*
X0139794Y0093792D02*
Y0099256D01*
X0140394Y0093940D02*
Y0099108D01*
X0140994Y0093971D02*
Y0099077D01*
X0141594Y0093888D02*
Y0099160D01*
X0148979Y0093974D02*
Y0099074D01*
X0149394Y0093974D02*
Y0099074D01*
X0149994Y0093974D02*
Y0099074D01*
X0150594Y0093974D02*
Y0099074D01*
X0151194Y0093974D02*
Y0099074D01*
X0151794Y0093974D02*
Y0099074D01*
X0137994Y0092202D02*
Y0100847D01*
X0138594Y0093036D02*
Y0100013D01*
X0139194Y0093507D02*
Y0099541D01*
X0142194Y0093682D02*
Y0099366D01*
X0142579Y0093472D02*
Y0099576D01*
X0152394Y0093974D02*
Y0099074D01*
X0150700Y0099474D02*
Y0103274D01*
X0152994Y0093974D02*
Y0099074D01*
X0153594Y0093974D02*
Y0099074D01*
X0148979Y0093974D02*
X0153900D01*
X0148979Y0094024D02*
X0156240D01*
X0148979Y0094624D02*
X0156240D01*
X0148979Y0095224D02*
X0156240D01*
X0148979Y0095824D02*
X0156240D01*
X0153900Y0085574D02*
Y0093974D01*
X0148979Y0096424D02*
X0156240D01*
X0148979Y0097024D02*
X0156240D01*
X0148979Y0097624D02*
X0156240D01*
X0148979Y0098224D02*
X0156240D01*
X0148979Y0099074D02*
X0153900D01*
X0148979Y0098824D02*
X0156240D01*
X0150700Y0103274D02*
X0153500D01*
X0153900Y0099424D02*
X0156240D01*
X0153900Y0100024D02*
X0156240D01*
X0153900Y0099074D02*
Y0107474D01*
Y0100624D02*
X0156240D01*
X0153900Y0101224D02*
X0156240D01*
X0153900Y0101824D02*
X0156240D01*
X0153900Y0102424D02*
X0156240D01*
X0153900Y0103024D02*
X0156240D01*
X0137994Y0105701D02*
Y0117900D01*
X0138594Y0106535D02*
Y0117900D01*
X0139194Y0107007D02*
Y0117900D01*
X0139794Y0107292D02*
Y0117900D01*
X0143029Y0106624D02*
X0143607D01*
X0140394Y0107440D02*
Y0117900D01*
X0142097Y0107224D02*
X0144540D01*
X0147500Y0106972D02*
Y0107474D01*
X0142794Y0106822D02*
Y0117900D01*
X0143394Y0106407D02*
Y0117900D01*
X0140994Y0107471D02*
Y0117900D01*
X0141594Y0107388D02*
Y0117900D01*
X0142194Y0107182D02*
Y0117900D01*
X0143994Y0106930D02*
Y0117900D01*
X0144594Y0107246D02*
Y0117900D01*
X0145194Y0107420D02*
Y0117900D01*
X0145794Y0107474D02*
Y0117900D01*
X0146394Y0107414D02*
Y0117900D01*
X0146994Y0107234D02*
Y0117900D01*
X0150700Y0103274D02*
Y0107074D01*
X0153900Y0103624D02*
X0156240D01*
X0147018Y0107224D02*
X0147500D01*
X0153900Y0104224D02*
X0156240D01*
X0147500Y0107474D02*
X0153900D01*
Y0104824D02*
X0156240D01*
X0153900Y0105424D02*
X0156240D01*
X0153900Y0106024D02*
X0156240D01*
X0153900Y0106624D02*
X0156240D01*
X0153900Y0107224D02*
X0156240D01*
X0147594Y0107474D02*
Y0117900D01*
X0148194Y0107474D02*
Y0117900D01*
X0148794Y0107474D02*
Y0117900D01*
X0149394Y0107474D02*
Y0117900D01*
X0149994Y0107474D02*
Y0117900D01*
X0150594Y0107474D02*
Y0117900D01*
X0151194Y0107474D02*
Y0117900D01*
X0151794Y0107474D02*
Y0117900D01*
X0152394Y0107474D02*
Y0117900D01*
X0152994Y0107474D02*
Y0117900D01*
X0153594Y0107474D02*
Y0117900D01*
X0123700Y0104000D02*
Y0107000D01*
Y0112511D01*
X0125801Y0054900D02*
X0128800D01*
Y0053400D01*
X0128300Y0052901D01*
X0127800D01*
X0127301D01*
X0126801Y0053400D01*
Y0054900D01*
Y0051901D02*
X0128300D01*
X0128800Y0051401D01*
Y0049902D01*
X0129300D01*
X0129800Y0050401D01*
Y0050901D01*
X0128800Y0049902D02*
X0126801D01*
X0126301Y0043904D02*
X0125801Y0044403D01*
Y0045403D01*
X0126301Y0045903D01*
X0128300D01*
X0128800Y0045403D01*
Y0044403D01*
X0128300Y0043904D01*
X0127301D01*
Y0044903D01*
X0128800Y0042904D02*
X0125801D01*
Y0041404D01*
X0126301Y0040905D01*
X0127301D01*
X0127800Y0041404D01*
Y0042904D01*
Y0041904D02*
X0128800Y0040905D01*
X0125801Y0039905D02*
Y0037905D01*
X0126301D01*
X0128300Y0039905D01*
X0128800D01*
Y0037905D01*
X0121601Y0052700D02*
X0123600Y0051700D01*
X0121601Y0050701D01*
X0123600Y0049701D02*
Y0048701D01*
Y0049201D01*
X0120601D01*
X0121101Y0049701D01*
X0123600Y0047202D02*
X0123100D01*
Y0046702D01*
X0123600D01*
Y0047202D01*
X0121101Y0044703D02*
X0120601Y0044203D01*
Y0043203D01*
X0121101Y0042703D01*
X0123100D01*
X0123600Y0043203D01*
Y0044203D01*
X0123100Y0044703D01*
X0121101D01*
Y0041704D02*
X0120601Y0041204D01*
Y0040204D01*
X0121101Y0039704D01*
X0123100D01*
X0123600Y0040204D01*
Y0041204D01*
X0123100Y0041704D01*
X0121101D01*
X0115201Y0051200D02*
Y0049201D01*
Y0050200D01*
X0118200D01*
X0115201Y0048201D02*
X0118200D01*
X0117200Y0047201D01*
X0118200Y0046202D01*
X0115201D01*
Y0043702D02*
Y0044702D01*
X0115701Y0045202D01*
X0117700D01*
X0118200Y0044702D01*
Y0043702D01*
X0117700Y0043203D01*
X0115701D01*
X0115201Y0043702D01*
X0115701Y0040204D02*
X0115201Y0040703D01*
Y0041703D01*
X0115701Y0042203D01*
X0117700D01*
X0118200Y0041703D01*
Y0040703D01*
X0117700Y0040204D01*
X0116700D01*
Y0041203D01*
X0000400Y0000400D02*
Y0119500D01*
X0157800Y0000400D02*
Y0119500D01*
X0000400D02*
X0157800D01*
X0000400Y0000400D02*
X0157800D01*
D12*
X0052200Y0048400D02*
D03*
Y0054400D02*
D03*
D22*
X0064000Y0036500D02*
X0065500D01*
Y0042300D01*
X0061600Y0034100D02*
X0064000Y0036500D01*
X0065500Y0042300D02*
X0068582Y0045382D01*
X0017326Y0052819D02*
X0017343Y0052835D01*
X0052200Y0054400D02*
X0052981Y0054419D01*
X0060198D01*
X0149874Y0003474D02*
X0150700Y0004300D01*
Y0008774D01*
X0103255D02*
Y0013055D01*
X0104300Y0014100D01*
X0111200D01*
X0117100Y0011800D02*
X0119400Y0014100D01*
X0144000D01*
X0145779Y0015879D01*
Y0022274D01*
X0054000Y0062300D02*
X0058300Y0066600D01*
X0012521Y0059800D02*
X0022200D01*
X0012421Y0079835D02*
X0012421Y0079835D01*
X0012421Y0052835D02*
Y0066335D01*
X0113500Y0011800D02*
X0117100D01*
X0111200Y0014100D02*
X0113500Y0011800D01*
X0108176Y0004324D02*
Y0008774D01*
X0109026Y0003474D02*
X0149874D01*
X0108176Y0004324D02*
X0109026Y0003474D01*
X0017326Y0025835D02*
X0017343D01*
X0012421Y0089079D02*
Y0093335D01*
Y0089079D02*
X0017343Y0084158D01*
X0012421Y0066335D02*
Y0079835D01*
X0012421Y0093335D02*
Y0106835D01*
X0017343Y0021542D02*
Y0025835D01*
X0012421Y0016621D02*
X0017343Y0021542D01*
X0012421Y0012335D02*
Y0016621D01*
X0046282Y0043140D02*
Y0062300D01*
X0054000D01*
X0012421Y0025835D02*
Y0039335D01*
Y0052835D01*
X0058300Y0066600D02*
X0070500D01*
X0017326Y0025835D02*
Y0039335D01*
Y0052819D01*
X0017343Y0066335D02*
Y0079835D01*
Y0084158D01*
X0068582Y0045382D02*
X0080500D01*
X0085002D01*
X0093000D01*
X0085002Y0045364D02*
Y0045382D01*
D23*
X0124584Y0065484D02*
X0128700Y0069600D01*
X0120616Y0065484D02*
X0124584D01*
X0116700Y0069400D02*
X0120616Y0065484D01*
X0146689Y0112511D02*
X0150700Y0108500D01*
Y0103274D02*
Y0108500D01*
X0073626Y0063474D02*
X0085002D01*
X0043600Y0109700D02*
X0049300D01*
X0054500Y0114900D01*
X0053400Y0094600D02*
X0059400D01*
X0051589Y0096411D02*
X0053400Y0094600D01*
X0043600Y0096411D02*
X0051589D01*
X0059400Y0108600D02*
X0066600D01*
X0070000Y0105200D01*
Y0099300D02*
Y0105200D01*
X0068900Y0098200D02*
X0070000Y0099300D01*
X0068900Y0068200D02*
Y0098200D01*
X0070100Y0099200D02*
X0089100D01*
X0054500Y0114900D02*
X0092488D01*
X0100088Y0107300D01*
X0110200D02*
X0115411Y0112511D01*
X0089100Y0099200D02*
X0093500Y0094800D01*
X0116700Y0088889D02*
X0123700D01*
X0116700Y0069400D02*
Y0088889D01*
X0093500Y0094800D02*
X0106600D01*
X0109100Y0092300D01*
X0113289D01*
X0116700Y0088889D01*
X0070500Y0066600D02*
X0073626Y0063474D01*
X0068900Y0068200D02*
X0070500Y0066600D01*
X0145779Y0022274D02*
X0145779Y0022274D01*
X0145779Y0022274D02*
X0145779Y0022274D01*
Y0035774D01*
Y0049274D01*
Y0062774D01*
Y0069600D01*
Y0076274D01*
Y0089774D01*
Y0103274D01*
X0128700Y0069600D02*
X0145779D01*
X0007500Y0012335D02*
Y0019024D01*
Y0025835D01*
Y0032874D01*
Y0039335D01*
Y0046024D01*
Y0052835D01*
Y0060000D01*
Y0066335D01*
Y0073400D01*
Y0079835D01*
Y0086724D01*
Y0093335D01*
Y0100200D01*
Y0106835D01*
X0100088Y0107300D02*
X0103400D01*
X0110200D01*
X0150700Y0008774D02*
Y0014600D01*
Y0022274D01*
Y0035774D01*
Y0049274D01*
Y0062774D01*
Y0076274D01*
Y0089774D01*
Y0103274D01*
Y0103274D01*
X0115411Y0112511D02*
X0123700D01*
X0142500D01*
X0146689D01*
X0150700Y0103274D02*
X0150700Y0103274D01*
D24*
X0118400Y0059300D02*
X0128300D01*
X0130700Y0061700D01*
X0111300Y0052200D02*
X0118400Y0059300D01*
X0037028Y0035772D02*
X0041382Y0031418D01*
Y0026000D02*
Y0031418D01*
X0051618Y0037018D02*
X0054000Y0039400D01*
X0051618Y0026000D02*
Y0037018D01*
X0037028Y0035772D02*
Y0039335D01*
X0080500Y0045464D02*
Y0048600D01*
X0098334Y0008774D02*
Y0012734D01*
X0088719Y0054419D02*
X0089918Y0055618D01*
X0093000D01*
X0059200Y0039400D02*
X0060198Y0040398D01*
X0086600Y0050400D02*
Y0054300D01*
X0086400Y0054500D02*
Y0057000D01*
X0089600Y0060200D01*
Y0067700D01*
X0085300Y0072000D02*
X0089600Y0067700D01*
X0081800Y0072000D02*
X0085300D01*
X0060198Y0040398D02*
Y0054419D01*
X0075400Y0078400D02*
Y0084200D01*
Y0078400D02*
X0081800Y0072000D01*
X0098334Y0012734D02*
X0108800Y0023200D01*
X0111300Y0048100D02*
Y0052200D01*
X0106900Y0043700D02*
X0111300Y0048100D01*
X0108800Y0023200D02*
Y0031700D01*
X0106900Y0033600D02*
X0108800Y0031700D01*
X0106900Y0033600D02*
Y0043700D01*
X0054000Y0039400D02*
X0056518D01*
X0059200D01*
X0060198Y0054419D02*
X0085002D01*
X0088719D01*
D25*
X0007500Y0106835D02*
D03*
X0150700Y0089774D02*
D03*
Y0035774D02*
D03*
Y0076274D02*
D03*
Y0062774D02*
D03*
Y0103274D02*
D03*
Y0049274D02*
D03*
X0007500Y0093335D02*
D03*
X0007500Y0079835D02*
D03*
X0150700Y0022274D02*
D03*
X0007500Y0025835D02*
D03*
X0007500Y0052835D02*
D03*
Y0039335D02*
D03*
X0150700Y0008774D02*
D03*
X0108176D02*
D03*
X0007500Y0012335D02*
D03*
X0007500Y0066335D02*
D03*
D26*
X0012421Y0106835D02*
D03*
X0017342D02*
D03*
X0140858Y0089774D02*
D03*
X0145779D02*
D03*
Y0035774D02*
D03*
X0140858D02*
D03*
Y0076274D02*
D03*
X0145779D02*
D03*
Y0062774D02*
D03*
X0140858D02*
D03*
Y0103274D02*
D03*
X0145779D02*
D03*
Y0049274D02*
D03*
X0140858D02*
D03*
X0012421Y0093335D02*
D03*
X0017342D02*
D03*
X0022264D02*
D03*
X0027185Y0079835D02*
D03*
X0022264D02*
D03*
X0017343D02*
D03*
X0012421D02*
D03*
X0131015Y0022274D02*
D03*
X0135936D02*
D03*
X0140858D02*
D03*
X0145779D02*
D03*
X0012421Y0025835D02*
D03*
X0017343D02*
D03*
X0022264D02*
D03*
X0027185D02*
D03*
X0037028Y0052835D02*
D03*
X0032106D02*
D03*
X0027185D02*
D03*
X0022264D02*
D03*
X0017343D02*
D03*
X0012421Y0052835D02*
D03*
X0012421Y0039335D02*
D03*
X0017343D02*
D03*
X0022264D02*
D03*
X0027185D02*
D03*
X0032106D02*
D03*
X0037028D02*
D03*
X0121172Y0008774D02*
D03*
X0126094D02*
D03*
X0131015D02*
D03*
X0135936D02*
D03*
X0140858D02*
D03*
X0145779D02*
D03*
X0073728D02*
D03*
X0078649D02*
D03*
X0083570D02*
D03*
X0088491D02*
D03*
X0093413D02*
D03*
X0098334D02*
D03*
X0103255D02*
D03*
X0012421Y0012335D02*
D03*
X0017343D02*
D03*
X0022264D02*
D03*
X0027185D02*
D03*
X0032106D02*
D03*
X0037027D02*
D03*
X0041949D02*
D03*
X0012421Y0066335D02*
D03*
X0017343D02*
D03*
X0022264D02*
D03*
X0027185D02*
D03*
D27*
X0073700Y0071300D02*
D03*
X0082826Y0081074D02*
D03*
X0050700Y0014274D02*
D03*
X0075400Y0084200D02*
D03*
X0086600Y0050400D02*
D03*
X0022200Y0059800D02*
D03*
X0119100Y0027000D02*
D03*
X0061600Y0034100D02*
D03*
X0065500Y0036500D02*
D03*
X0103400Y0107300D02*
D03*
X0111200Y0087500D02*
D03*
X0094500Y0100600D02*
D03*
X0109600Y0099300D02*
D03*
X0108800Y0031700D02*
D03*
X0122600Y0070300D02*
D03*
X0136600Y0083200D02*
D03*
X0123700Y0107000D02*
D03*
X0130700Y0061700D02*
D03*
X0074800Y0104000D02*
D03*
X0065200Y0103100D02*
D03*
X0046282Y0062300D02*
D03*
X0118900Y0098100D02*
D03*
X0132600Y0107700D02*
D03*
X0124700Y0098100D02*
D03*
X0068600Y0027700D02*
D03*
X0100100Y0051200D02*
D03*
X0030900Y0033000D02*
D03*
X0077826Y0024474D02*
D03*
X0073700Y0094400D02*
D03*
X0134400Y0036100D02*
D03*
X0127500Y0074600D02*
D03*
X0135000Y0097300D02*
D03*
X0060200Y0062300D02*
D03*
X0094300Y0031600D02*
D03*
X0108100Y0061200D02*
D03*
X0103000Y0086800D02*
D03*
X0111300Y0052200D02*
D03*
X0080500Y0048600D02*
D03*
X0088900Y0080000D02*
D03*
X0112100Y0037600D02*
D03*
X0131200Y0032500D02*
D03*
X0115300Y0016100D02*
D03*
X0110500Y0042200D02*
D03*
X0093772Y0075500D02*
D03*
X0060600Y0008000D02*
D03*
X0035500Y0031300D02*
D03*
X0081400Y0034000D02*
D03*
X0100100Y0057800D02*
D03*
X0089500Y0031700D02*
D03*
X0089700Y0036500D02*
D03*
X0064900Y0011200D02*
D03*
X0098100Y0086800D02*
D03*
X0094900Y0062800D02*
D03*
X0060000Y0026100D02*
D03*
X0073226Y0026174D02*
D03*
D03*
X0060600Y0101500D02*
D03*
X0073200Y0108800D02*
D03*
X0104000Y0031300D02*
D03*
X0152600Y0115024D02*
D03*
X0015000Y0115000D02*
D03*
X0142500Y0115024D02*
D03*
X0005000Y0115024D02*
D03*
X0025000Y0115024D02*
D03*
Y0105000D02*
D03*
X0086600Y0058400D02*
D03*
X0150700Y0014600D02*
D03*
X0005000Y0005000D02*
D03*
X0064500Y0047600D02*
D03*
X0037794Y0065300D02*
D03*
X0032994Y0064400D02*
D03*
X0005000Y0019024D02*
D03*
Y0032874D02*
D03*
Y0046024D02*
D03*
Y0060000D02*
D03*
Y0073400D02*
D03*
Y0086724D02*
D03*
Y0100200D02*
D03*
D28*
X0059400Y0080600D02*
D03*
X0107400Y0075600D02*
D03*
Y0113600D02*
D03*
X0059400Y0094600D02*
D03*
Y0108600D02*
D03*
D29*
X0043600Y0109700D02*
D03*
D30*
X0033600D02*
D03*
D31*
X0056518Y0043140D02*
D03*
Y0039400D02*
D03*
Y0035660D02*
D03*
X0046282D02*
D03*
Y0043140D02*
D03*
D32*
X0051618Y0026000D02*
D03*
X0041382D02*
D03*
X0093000Y0055618D02*
D03*
Y0045382D02*
D03*
D33*
X0060198Y0054419D02*
D03*
D34*
X0085002Y0045364D02*
D03*
Y0054419D02*
D03*
Y0063474D02*
D03*
D35*
X0123700Y0112511D02*
D03*
Y0088889D02*
D03*
X0042900Y0096011D02*
D03*
Y0072389D02*
D03*
D36*
X0052200Y0043200D02*
Y0048400D01*
Y0043200D02*
X0052260Y0043140D01*
X0056518D01*
X0056518Y0043140D01*
X0037028Y0039335D02*
X0049735D01*
X0051200Y0040800D01*
Y0042200D01*
X0052200Y0043200D01*
D37*
X0012346Y0106911D02*
X0012421Y0106835D01*
X0012346Y0106911D02*
X0012421Y0106835D01*
D38*
X0042900Y0072389D02*
Y0080600D01*
X0058900D01*
X0033600Y0089900D02*
X0042900Y0080600D01*
X0033600Y0089900D02*
Y0109700D01*
X0043600Y0096411D02*
Y0109700D01*
M02*
