%FSAX25Y25*%
%MOIN*%
G70*
G01*
G75*
%ADD10C,0.00800*%
%ADD11R,0.03543X0.03150*%
%ADD12R,0.03150X0.03543*%
%ADD13R,0.03150X0.03150*%
%ADD14R,0.01575X0.04331*%
%ADD15O,0.01575X0.04331*%
%ADD16O,0.01102X0.05512*%
%ADD17O,0.05512X0.01102*%
%ADD18R,0.04724X0.03543*%
%ADD19R,0.03543X0.03150*%
%ADD20O,0.01102X0.05512*%
%ADD21R,0.01102X0.05512*%
%ADD22C,0.03000*%
%ADD23C,0.04000*%
%ADD24C,0.01500*%
%ADD25R,0.04000X0.06000*%
%ADD26O,0.04000X0.06000*%
%ADD27C,0.04000*%
%ADD28C,0.07000*%
%ADD29O,0.07000X0.15000*%
%ADD30R,0.07000X0.15000*%
D10*
X0010512Y0018530D02*
G03*
X0009721Y0016621I0001909J-0001909D01*
G01*
X0010512Y0018530D02*
G03*
X0009721Y0016621I0001909J-0001909D01*
G01*
X0009891Y0008135D02*
G03*
X0010512Y0007170I0002530J0000943D01*
G01*
X0009891Y0008135D02*
G03*
X0010512Y0007170I0002530J0000943D01*
G01*
X0010700Y0022138D02*
G03*
X0014081Y0022099I0001721J0002698D01*
G01*
X0028669Y0062500D02*
G03*
X0030343Y0064818I-0001484J0002835D01*
G01*
G03*
X0030967Y0065204I-0000508J0001517D01*
G01*
X0030343Y0064818D02*
G03*
X0030968Y0065205I-0000508J0001517D01*
G01*
X0042400Y0065000D02*
G03*
X0040491Y0064209I0000000J-0002700D01*
G01*
X0042400Y0065000D02*
G03*
X0040491Y0064209I0000000J-0002700D01*
G01*
X0047876Y0065075D02*
G03*
X0044564Y0065000I-0001594J-0002775D01*
G01*
X0078200Y0042714D02*
G03*
X0078239Y0043083I-0001712J0000368D01*
G01*
X0070630Y0046035D02*
G03*
X0070387Y0044600I0001448J-0000984D01*
G01*
X0078239Y0043083D02*
G03*
X0077937Y0044067I-0001751J0000000D01*
G01*
G03*
X0078239Y0045051I-0001448J0000984D01*
G01*
G03*
X0077937Y0046035I-0001751J0000000D01*
G01*
X0078140Y0046439D02*
G03*
X0083700Y0048600I0002360J0002161D01*
G01*
X0070367Y0047388D02*
G03*
X0070630Y0046035I0001712J-0000368D01*
G01*
X0077937D02*
G03*
X0078140Y0046439I-0001448J0000984D01*
G01*
X0066681Y0047857D02*
G03*
X0067812Y0047388I0001131J0001131D01*
G01*
X0066679Y0047858D02*
G03*
X0067812Y0047388I0001133J0001130D01*
G01*
X0086600Y0048800D02*
G03*
X0085467Y0048330I0000000J-0001600D01*
G01*
X0086600Y0048800D02*
G03*
X0085469Y0048331I0000000J-0001600D01*
G01*
X0090930Y0047867D02*
G03*
X0091400Y0049000I-0001130J0001133D01*
G01*
X0090931Y0047869D02*
G03*
X0091400Y0049000I-0001131J0001131D01*
G01*
X0095873Y0011820D02*
G03*
X0095013Y0012545I-0002461J-0002046D01*
G01*
Y0019190D02*
G03*
X0095291Y0019697I-0001241J0001010D01*
G01*
X0095013Y0019190D02*
G03*
X0095291Y0019697I-0001241J0001010D01*
G01*
X0100794Y0011820D02*
G03*
X0095873Y0011820I-0002461J-0002046D01*
G01*
X0104976Y0012472D02*
G03*
X0100794Y0011820I-0001721J-0002698D01*
G01*
X0095291Y0019697D02*
G03*
X0096724Y0019941I0000450J0001692D01*
G01*
G03*
X0098693Y0019941I0000984J0001448D01*
G01*
X0096831Y0045631D02*
G03*
X0095700Y0046100I-0001131J-0001131D01*
G01*
X0096833Y0045630D02*
G03*
X0095700Y0046100I-0001133J-0001130D01*
G01*
X0098693Y0019941D02*
G03*
X0100221Y0019725I0000984J0001448D01*
G01*
X0100661Y0027248D02*
G03*
X0099505Y0027542I-0000984J-0001448D01*
G01*
X0100221Y0019725D02*
G03*
X0100465Y0019375I0001424J0000729D01*
G01*
X0100221Y0019725D02*
G03*
X0100465Y0019375I0001424J0000729D01*
G01*
X0100947Y0027405D02*
G03*
X0100661Y0027248I0000699J-0001606D01*
G01*
X0078239Y0050957D02*
G03*
X0077937Y0051941I-0001751J0000000D01*
G01*
G03*
X0078239Y0052925I-0001448J0000984D01*
G01*
G03*
X0077937Y0053909I-0001751J0000000D01*
G01*
G03*
X0078239Y0054894I-0001448J0000984D01*
G01*
G03*
X0077937Y0055878I-0001751J0000000D01*
G01*
G03*
X0078239Y0056862I-0001448J0000984D01*
G01*
G03*
X0077937Y0057846I-0001751J0000000D01*
G01*
G03*
X0078239Y0058831I-0001448J0000984D01*
G01*
X0083700Y0048600D02*
G03*
X0078237Y0050862I-0003200J0000000D01*
G01*
X0066231Y0059731D02*
G03*
X0065100Y0060200I-0001131J-0001131D01*
G01*
X0066233Y0059730D02*
G03*
X0065100Y0060200I-0001133J-0001130D01*
G01*
X0063367Y0065070D02*
G03*
X0063825Y0064749I0001133J0001130D01*
G01*
X0063369Y0065069D02*
G03*
X0063825Y0064749I0001131J0001131D01*
G01*
X0070387Y0059284D02*
G03*
X0070367Y0058462I0001691J-0000453D01*
G01*
X0069768Y0059669D02*
G03*
X0070387Y0059284I0001133J0001130D01*
G01*
X0069770Y0059668D02*
G03*
X0070387Y0059284I0001131J0001131D01*
G01*
X0078239Y0058831D02*
G03*
X0077937Y0059815I-0001751J0000000D01*
G01*
X0083200Y0060500D02*
G03*
X0084333Y0060970I0000000J0001600D01*
G01*
X0084806Y0053069D02*
G03*
X0085937Y0052600I0001131J0001131D01*
G01*
X0084804Y0053070D02*
G03*
X0085937Y0052600I0001133J0001130D01*
G01*
X0091400Y0052700D02*
G03*
X0090931Y0053831I-0001600J0000000D01*
G01*
X0091400Y0052700D02*
G03*
X0090930Y0053833I-0001600J0000000D01*
G01*
X0103300Y0051200D02*
G03*
X0100928Y0048109I-0003200J0000000D01*
G01*
X0083200Y0060500D02*
G03*
X0084331Y0060969I0000000J0001600D01*
G01*
X0089431Y0055331D02*
G03*
X0088300Y0055800I-0001131J-0001131D01*
G01*
X0089433Y0055330D02*
G03*
X0088300Y0055800I-0001133J-0001130D01*
G01*
X0092129Y0061200D02*
G03*
X0097993Y0061981I0002771J0001600D01*
G01*
X0098500Y0060571D02*
G03*
X0103163Y0056874I0001600J-0002771D01*
G01*
X0014151Y0083528D02*
G03*
X0010700Y0083533I-0001729J-0002692D01*
G01*
X0009721Y0089076D02*
G03*
X0010512Y0087166I0002700J0000000D01*
G01*
X0009721Y0089076D02*
G03*
X0010512Y0087166I0002700J0000000D01*
G01*
X0024731Y0098731D02*
G03*
X0023600Y0099200I-0001131J-0001131D01*
G01*
X0024733Y0098730D02*
G03*
X0023600Y0099200I-0001133J-0001130D01*
G01*
X0014882Y0109881D02*
G03*
X0010700Y0110533I-0002461J-0002046D01*
G01*
X0018942Y0103064D02*
G03*
X0020542Y0105835I-0001600J0002771D01*
G01*
Y0107835D02*
G03*
X0014882Y0109881I-0003200J0000000D01*
G01*
X0038900Y0105700D02*
G03*
X0046726Y0102190I0004700J0000000D01*
G01*
X0041491Y0117900D02*
G03*
X0038900Y0113700I0002110J-0004200D01*
G01*
X0064050Y0081286D02*
G03*
X0061726Y0084684I-0004650J-0000686D01*
G01*
X0066000Y0082574D02*
G03*
X0064867Y0082104I0000000J-0001600D01*
G01*
X0066000Y0082574D02*
G03*
X0064869Y0082105I0000000J-0001600D01*
G01*
X0058041Y0085099D02*
G03*
X0055867Y0077500I0001359J-0004499D01*
G01*
X0052956Y0092193D02*
G03*
X0053426Y0093326I-0001130J0001133D01*
G01*
X0052957Y0092195D02*
G03*
X0053426Y0093326I-0001131J0001131D01*
G01*
X0061945Y0090649D02*
G03*
X0064100Y0094600I-0002545J0003951D01*
G01*
X0078794Y0082105D02*
G03*
X0077663Y0082574I-0001131J-0001131D01*
G01*
X0078795Y0082104D02*
G03*
X0077663Y0082574I-0001133J-0001130D01*
G01*
X0079735Y0081902D02*
G03*
X0079632Y0081268I0003091J-0000828D01*
G01*
X0076952Y0085348D02*
G03*
X0077422Y0084215I0001600J0000000D01*
G01*
X0076952Y0085348D02*
G03*
X0077421Y0084217I0001600J0000000D01*
G01*
X0072300Y0091128D02*
G03*
X0072817Y0091324I-0000300J0001572D01*
G01*
X0072300Y0091128D02*
G03*
X0072817Y0091324I-0000300J0001572D01*
G01*
X0100184Y0084372D02*
G03*
X0100550Y0084741I-0002084J0002428D01*
G01*
G03*
X0100916Y0084372I0002450J0002059D01*
G01*
X0072817Y0091324D02*
G03*
X0076900Y0094400I0000883J0003076D01*
G01*
X0054793Y0095528D02*
G03*
X0056855Y0090649I0004607J-0000928D01*
G01*
X0058386Y0099189D02*
G03*
X0057575Y0098931I0001014J-0004589D01*
G01*
X0064100Y0094600D02*
G03*
X0061904Y0098578I-0004700J0000000D01*
G01*
X0057400Y0101472D02*
G03*
X0057575Y0100457I0003200J0000028D01*
G01*
Y0102543D02*
G03*
X0057400Y0101528I0003025J-0001043D01*
G01*
X0061904Y0098578D02*
G03*
X0063582Y0100339I-0001304J0002922D01*
G01*
X0057575Y0100457D02*
G03*
X0058386Y0099189I0003025J0001043D01*
G01*
X0063582Y0100339D02*
G03*
X0065325Y0099902I0001618J0002761D01*
G01*
X0068321Y0101672D02*
G03*
X0068733Y0101970I-0000721J0001428D01*
G01*
X0058570Y0103974D02*
G03*
X0057575Y0102543I0002030J-0002474D01*
G01*
Y0104269D02*
G03*
X0058570Y0103974I0001825J0004331D01*
G01*
X0066300Y0110400D02*
G03*
X0065167Y0109930I0000000J-0001600D01*
G01*
X0064093Y0108856D02*
G03*
X0062537Y0112100I-0004693J-0000256D01*
G01*
X0066300Y0110400D02*
G03*
X0065169Y0109931I0000000J-0001600D01*
G01*
X0068321Y0101672D02*
G03*
X0068731Y0101969I-0000721J0001428D01*
G01*
X0076400Y0108800D02*
G03*
X0070429Y0110400I-0003200J0000000D01*
G01*
X0076900Y0094400D02*
G03*
X0070875Y0095903I-0003200J0000000D01*
G01*
X0072029Y0102400D02*
G03*
X0077728Y0102710I0002771J0001600D01*
G01*
X0101428Y0102755D02*
G03*
X0101230Y0102996I-0001328J-0000892D01*
G01*
X0101428Y0102755D02*
G03*
X0101231Y0102994I-0001328J-0000892D01*
G01*
X0077728Y0105290D02*
G03*
X0075859Y0107020I-0002928J-0001290D01*
G01*
G03*
X0076400Y0108800I-0002659J0001780D01*
G01*
X0113261Y0040582D02*
G03*
X0113700Y0042200I-0002761J0001618D01*
G01*
X0115297Y0037726D02*
G03*
X0113261Y0040582I-0003198J-0000126D01*
G01*
X0113700Y0042200D02*
G03*
X0107729Y0043800I-0003200J0000000D01*
G01*
X0103034Y0046003D02*
G03*
X0104165Y0045535I0001131J0001131D01*
G01*
X0103033Y0046005D02*
G03*
X0104165Y0045535I0001133J0001130D01*
G01*
X0117300Y0026900D02*
G03*
X0116831Y0028031I-0001600J0000000D01*
G01*
X0117300Y0026900D02*
G03*
X0116830Y0028033I-0001600J0000000D01*
G01*
X0123069Y0028480D02*
G03*
X0122600Y0027349I0001131J-0001131D01*
G01*
X0123070Y0028482D02*
G03*
X0122600Y0027349I0001130J-0001133D01*
G01*
X0121370Y0029520D02*
G03*
X0123121Y0031272I0000000J0001751D01*
G01*
G03*
X0122819Y0032256I-0001751J0000000D01*
G01*
X0113935Y0045535D02*
G03*
X0115067Y0046005I0000000J0001600D01*
G01*
X0115512Y0038161D02*
G03*
X0115297Y0037726I0001448J-0000984D01*
G01*
X0115512Y0040130D02*
G03*
X0115512Y0038161I0001448J-0000984D01*
G01*
Y0042098D02*
G03*
X0115512Y0040130I0001448J-0000984D01*
G01*
Y0044067D02*
G03*
X0115512Y0042098I0001448J-0000984D01*
G01*
X0113935Y0045535D02*
G03*
X0115066Y0046003I0000000J0001600D01*
G01*
X0115269Y0050502D02*
G03*
X0114655Y0050118I0000519J-0001514D01*
G01*
X0115512Y0046035D02*
G03*
X0115512Y0044067I0001448J-0000984D01*
G01*
X0115364Y0046301D02*
G03*
X0115512Y0046035I0001597J0000719D01*
G01*
X0115269Y0050502D02*
G03*
X0114657Y0050120I0000519J-0001514D01*
G01*
X0122819Y0032256D02*
G03*
X0122982Y0032555I-0001448J0000984D01*
G01*
X0124312Y0048151D02*
G03*
X0123180Y0048620I-0001131J-0001131D01*
G01*
X0124313Y0048150D02*
G03*
X0123180Y0048620I-0001133J-0001130D01*
G01*
X0123121Y0048988D02*
G03*
X0122819Y0049972I-0001751J0000000D01*
G01*
X0123082Y0048620D02*
G03*
X0123121Y0048988I-0001712J0000368D01*
G01*
X0122819Y0049972D02*
G03*
X0123121Y0050957I-0001448J0000984D01*
G01*
X0103191Y0050372D02*
G03*
X0103300Y0051200I-0003091J0000828D01*
G01*
X0108112Y0051925D02*
G03*
X0114500Y0052200I0003188J0000274D01*
G01*
G03*
X0109632Y0054931I-0003200J0000000D01*
G01*
X0104900Y0061200D02*
G03*
X0111300Y0061200I0003200J0000000D01*
G01*
X0104900D02*
G03*
X0104431Y0062331I-0001600J0000000D01*
G01*
X0104900Y0061200D02*
G03*
X0104430Y0062333I-0001600J0000000D01*
G01*
X0102164Y0064599D02*
G03*
X0102630Y0064823I-0000518J0001673D01*
G01*
G03*
X0104598Y0064823I0000984J0001448D01*
G01*
X0106510Y0063977D02*
G03*
X0104900Y0061200I0001590J-0002777D01*
G01*
X0111300D02*
G03*
X0110188Y0063625I-0003200J0000000D01*
G01*
X0106778Y0064701D02*
G03*
X0106510Y0063977I0001323J-0000900D01*
G01*
X0104598Y0064823D02*
G03*
X0106567Y0064823I0000984J0001448D01*
G01*
X0106778Y0064701D02*
G03*
X0106510Y0063977I0001323J-0000900D01*
G01*
X0110650Y0064087D02*
G03*
X0110959Y0064520I-0001130J0001133D01*
G01*
X0110651Y0064088D02*
G03*
X0110959Y0064520I-0001131J0001131D01*
G01*
X0115512Y0051941D02*
G03*
X0115269Y0050502I0001448J-0000984D01*
G01*
X0115253Y0053314D02*
G03*
X0115512Y0051941I0001708J-0000389D01*
G01*
X0123121Y0050957D02*
G03*
X0122819Y0051941I-0001751J0000000D01*
G01*
X0112000Y0056800D02*
G03*
X0112470Y0055667I0001600J0000000D01*
G01*
X0112000Y0056800D02*
G03*
X0112469Y0055669I0001600J0000000D01*
G01*
X0114374Y0053764D02*
G03*
X0115253Y0053314I0001133J0001130D01*
G01*
X0114375Y0053762D02*
G03*
X0115253Y0053314I0001131J0001131D01*
G01*
X0122819Y0051941D02*
G03*
X0123121Y0052925I-0001448J0000984D01*
G01*
G03*
X0123065Y0053365I-0001751J0000000D01*
G01*
G03*
X0123726Y0053764I-0000472J0001529D01*
G01*
X0123065Y0053365D02*
G03*
X0123725Y0053762I-0000472J0001529D01*
G01*
X0123082Y0060431D02*
G03*
X0123121Y0060799I-0001712J0000368D01*
G01*
X0112469Y0064399D02*
G03*
X0112000Y0063268I0001131J-0001131D01*
G01*
X0112470Y0064401D02*
G03*
X0112000Y0063268I0001130J-0001133D01*
G01*
X0123121Y0060799D02*
G03*
X0121370Y0062550I-0001751J0000000D01*
G01*
X0127400Y0063300D02*
G03*
X0126267Y0062830I0000000J-0001600D01*
G01*
X0127400Y0063300D02*
G03*
X0126269Y0062831I0000000J-0001600D01*
G01*
X0139689Y0015531D02*
G03*
X0138558Y0016000I-0001131J-0001131D01*
G01*
X0139690Y0015530D02*
G03*
X0138558Y0016000I-0001133J-0001130D01*
G01*
X0143318Y0011820D02*
G03*
X0142381Y0012588I-0002461J-0002046D01*
G01*
G03*
X0141988Y0013233I-0001524J-0000488D01*
G01*
X0142381Y0012588D02*
G03*
X0141989Y0013231I-0001524J-0000488D01*
G01*
X0147500Y0012472D02*
G03*
X0143318Y0011820I-0001721J-0002698D01*
G01*
X0129411Y0035153D02*
G03*
X0129130Y0035533I-0001412J-0000753D01*
G01*
X0129411Y0035153D02*
G03*
X0129131Y0035531I-0001412J-0000753D01*
G01*
X0134357Y0031975D02*
G03*
X0134400Y0032500I-0003157J0000525D01*
G01*
X0138397Y0025320D02*
G03*
X0136493Y0026425I-0002461J-0002046D01*
G01*
X0139258Y0026045D02*
G03*
X0138397Y0025320I0001600J-0002771D01*
G01*
X0137658Y0034774D02*
G03*
X0139307Y0031975I0003200J0000000D01*
G01*
X0153200Y0016400D02*
G03*
X0154331Y0016869I0000000J0001600D01*
G01*
X0153200Y0016400D02*
G03*
X0154333Y0016870I0000000J0001600D01*
G01*
X0155030Y0017567D02*
G03*
X0155500Y0018700I-0001130J0001133D01*
G01*
X0155031Y0017569D02*
G03*
X0155500Y0018700I-0001131J0001131D01*
G01*
X0134400Y0032500D02*
G03*
X0129411Y0035153I-0003200J0000000D01*
G01*
X0136000Y0046900D02*
G03*
X0136469Y0045769I0001600J0000000D01*
G01*
X0136000Y0046900D02*
G03*
X0136470Y0045767I0001600J0000000D01*
G01*
X0133178Y0059675D02*
G03*
X0133900Y0061700I-0002478J0002025D01*
G01*
X0136469Y0052731D02*
G03*
X0136000Y0051600I0001131J-0001131D01*
G01*
X0136470Y0052733D02*
G03*
X0136000Y0051600I0001130J-0001133D01*
G01*
X0133900Y0061700D02*
G03*
X0127929Y0063300I-0003200J0000000D01*
G01*
X0137725Y0037425D02*
G03*
X0137658Y0036774I0003133J-0000651D01*
G01*
X0139258Y0039545D02*
G03*
X0138372Y0038789I0001600J-0002771D01*
G01*
X0102630Y0072129D02*
G03*
X0101761Y0072428I-0000984J-0001448D01*
G01*
X0103960Y0072398D02*
G03*
X0102630Y0072129I-0000346J-0001717D01*
G01*
X0107144Y0080293D02*
G03*
X0103960Y0072398I0000256J-0004693D01*
G01*
X0104600Y0083500D02*
G03*
X0105070Y0082367I0001600J0000000D01*
G01*
X0102575Y0083628D02*
G03*
X0104600Y0084029I0000425J0003172D01*
G01*
Y0083500D02*
G03*
X0105069Y0082369I0001600J0000000D01*
G01*
X0107800Y0088200D02*
G03*
X0107330Y0089333I-0001600J0000000D01*
G01*
X0107800Y0088200D02*
G03*
X0107331Y0089331I-0001600J0000000D01*
G01*
X0109600Y0090271D02*
G03*
X0113754Y0085572I0001600J-0002771D01*
G01*
X0114400Y0087500D02*
G03*
X0112800Y0090271I-0003200J0000000D01*
G01*
X0113230Y0072667D02*
G03*
X0113700Y0073800I-0001130J0001133D01*
G01*
X0113231Y0072669D02*
G03*
X0113700Y0073800I-0001131J0001131D01*
G01*
Y0077600D02*
G03*
X0113231Y0078731I-0001600J0000000D01*
G01*
X0113700Y0077600D02*
G03*
X0113230Y0078733I-0001600J0000000D01*
G01*
X0113754Y0085572D02*
G03*
X0114167Y0086302I-0002554J0001928D01*
G01*
G03*
X0114400Y0087500I-0002967J0001198D01*
G01*
X0119031Y0088198D02*
G03*
X0120561Y0088361I0000572J0001903D01*
G01*
X0109968Y0096121D02*
G03*
X0109600Y0095100I0001232J-0001021D01*
G01*
X0109968Y0096121D02*
G03*
X0109600Y0095100I0001232J-0001021D01*
G01*
X0106787Y0100825D02*
G03*
X0109968Y0096121I0002813J-0001525D01*
G01*
X0109269Y0107231D02*
G03*
X0108824Y0106375I0001131J-0001131D01*
G01*
X0109270Y0107233D02*
G03*
X0108824Y0106375I0001130J-0001133D01*
G01*
X0111600Y0108900D02*
G03*
X0110467Y0108430I0000000J-0001600D01*
G01*
X0111600Y0108900D02*
G03*
X0110469Y0108431I0000000J-0001600D01*
G01*
X0102981Y0112000D02*
G03*
X0112100Y0113600I0004419J0001600D01*
G01*
G03*
X0109297Y0117900I-0004700J0000000D01*
G01*
X0115194Y0096833D02*
G03*
X0115700Y0098000I-0001094J0001167D01*
G01*
X0115811Y0097264D02*
G03*
X0115443Y0096243I0001232J-0001021D01*
G01*
X0115811Y0097264D02*
G03*
X0115443Y0096243I0001232J-0001021D01*
G01*
X0115700Y0098100D02*
G03*
X0115811Y0097264I0003200J0000000D01*
G01*
X0118669Y0105800D02*
G03*
X0119139Y0104667I0001600J0000000D01*
G01*
X0121800Y0099453D02*
G03*
X0115700Y0098100I-0002900J-0001353D01*
G01*
X0121223Y0102583D02*
G03*
X0122356Y0102113I0001133J0001130D01*
G01*
X0121224Y0102582D02*
G03*
X0122356Y0102113I0001131J0001131D01*
G01*
X0118669Y0105800D02*
G03*
X0119138Y0104669I0001600J0000000D01*
G01*
X0115056Y0112542D02*
G03*
X0115309Y0111572I0001987J0000000D01*
G01*
X0118323Y0116819D02*
G03*
X0115056Y0115298I-0001280J-0001521D01*
G01*
X0120882Y0116819D02*
G03*
X0118323Y0116819I-0001280J-0001521D01*
G01*
X0125767Y0077170D02*
G03*
X0126900Y0076700I0001133J0001130D01*
G01*
X0125769Y0077169D02*
G03*
X0126900Y0076700I0001131J0001131D01*
G01*
X0125930Y0094467D02*
G03*
X0126385Y0095379I-0001130J0001133D01*
G01*
X0128559Y0094378D02*
G03*
X0126000Y0094378I-0001280J-0001521D01*
G01*
X0136944Y0092857D02*
G03*
X0133677Y0094378I-0001987J0000000D01*
G01*
X0125931Y0094469D02*
G03*
X0126385Y0095379I-0001131J0001131D01*
G01*
X0127900Y0098100D02*
G03*
X0121800Y0099453I-0003200J0000000D01*
G01*
X0126385Y0095379D02*
G03*
X0127900Y0098100I-0001685J0002721D01*
G01*
X0131118Y0094378D02*
G03*
X0128559Y0094378I-0001280J-0001521D01*
G01*
X0133677D02*
G03*
X0131118Y0094378I-0001280J-0001521D01*
G01*
X0137689Y0091220D02*
G03*
X0137241Y0090904I0000685J-0001446D01*
G01*
X0137689Y0091220D02*
G03*
X0137243Y0090905I0000685J-0001446D01*
G01*
X0142579Y0093472D02*
G03*
X0137689Y0091220I-0001721J-0002698D01*
G01*
X0141928Y0099259D02*
G03*
X0142212Y0099375I-0001071J0003015D01*
G01*
G03*
X0142579Y0099576I-0001354J0002899D01*
G01*
X0133913Y0102113D02*
G03*
X0135046Y0102583I0000000J0001600D01*
G01*
X0133913Y0102113D02*
G03*
X0135045Y0102582I0000000J0001600D01*
G01*
X0130824Y0110362D02*
G03*
X0130468Y0105313I0001776J-0002662D01*
G01*
X0135796Y0107859D02*
G03*
X0134024Y0110566I-0003196J-0000159D01*
G01*
X0123291Y0110329D02*
G03*
X0123648Y0110869I-0001130J0001133D01*
G01*
X0123293Y0110330D02*
G03*
X0123648Y0110869I-0001131J0001131D01*
G01*
X0123441Y0116819D02*
G03*
X0120882Y0116819I-0001280J-0001521D01*
G01*
X0123648Y0110869D02*
G03*
X0126000Y0111022I0001073J0001673D01*
G01*
Y0116819D02*
G03*
X0123441Y0116819I-0001280J-0001521D01*
G01*
X0126000Y0111022D02*
G03*
X0128559Y0111022I0001280J0001521D01*
G01*
X0128559Y0116819D02*
G03*
X0126000Y0116819I-0001280J-0001521D01*
G01*
X0128559Y0111022D02*
G03*
X0130824Y0110816I0001280J0001521D01*
G01*
X0131118Y0116819D02*
G03*
X0128559Y0116819I-0001280J-0001521D01*
G01*
X0133677D02*
G03*
X0131118Y0116819I-0001280J-0001521D01*
G01*
X0134024Y0110788D02*
G03*
X0136944Y0112542I0000933J0001755D01*
G01*
Y0115298D02*
G03*
X0133677Y0116819I-0001987J0000000D01*
G01*
X0137658Y0102274D02*
G03*
X0141928Y0099259I0003200J0000000D01*
G01*
X0137862Y0105399D02*
G03*
X0137658Y0104274I0002996J-0001125D01*
G01*
X0137700Y0109100D02*
G03*
X0136567Y0108630I0000000J-0001600D01*
G01*
X0137700Y0109100D02*
G03*
X0136569Y0108631I0000000J-0001600D01*
G01*
X0154331D02*
G03*
X0153200Y0109100I-0001131J-0001131D01*
G01*
X0154333Y0108630D02*
G03*
X0153200Y0109100I-0001133J-0001130D01*
G01*
X0155500Y0106800D02*
G03*
X0155030Y0107933I-0001600J0000000D01*
G01*
X0155500Y0106800D02*
G03*
X0155031Y0107931I-0001600J0000000D01*
G01*
X0057400Y0028700D02*
X0060000Y0026100D01*
X0066486Y0023288D02*
X0066537Y0023237D01*
X0069100Y0035100D02*
Y0037500D01*
X0068600Y0027700D02*
Y0034600D01*
X0069100Y0035100D01*
X0100100Y0094300D02*
X0106200Y0088200D01*
X0100100Y0094300D02*
Y0101863D01*
X0111488Y0019912D02*
Y0023594D01*
Y0019912D02*
X0115300Y0016100D01*
X0109520Y0017280D02*
X0118026Y0008774D01*
X0109520Y0017280D02*
Y0023594D01*
X0062924Y0022800D02*
X0063412Y0023288D01*
X0104600Y0016600D02*
Y0018700D01*
Y0016600D02*
X0107900D01*
X0101646Y0020454D02*
X0102700Y0019400D01*
X0107900Y0016600D02*
X0113800Y0010700D01*
X0103900Y0019400D02*
X0104600Y0018700D01*
X0102700Y0019400D02*
X0103900D01*
X0101646Y0020454D02*
Y0023594D01*
X0106976Y0013400D02*
X0108176Y0012200D01*
Y0008774D02*
Y0012200D01*
X0099800Y0013400D02*
X0106976D01*
X0098600Y0014600D02*
X0099800Y0013400D01*
X0128000Y0026600D02*
Y0034400D01*
X0127400Y0026000D02*
X0128000Y0026600D01*
X0127400Y0020100D02*
X0133100Y0014400D01*
X0127400Y0020100D02*
Y0026000D01*
X0126400Y0027286D02*
Y0033700D01*
X0125800Y0026686D02*
X0126400Y0027286D01*
X0125800Y0019400D02*
X0132500Y0012700D01*
X0125800Y0019400D02*
Y0026686D01*
X0124800Y0027949D02*
Y0033000D01*
X0124200Y0027349D02*
X0124800Y0027949D01*
X0124200Y0018700D02*
X0131015Y0011885D01*
X0124200Y0018700D02*
Y0027349D01*
X0138200Y0052200D02*
Y0057600D01*
X0137600Y0051600D02*
X0138200Y0052200D01*
X0136000Y0059800D02*
X0138200Y0057600D01*
X0135800Y0056900D02*
X0136600Y0056100D01*
X0136000Y0052263D02*
X0136600Y0052863D01*
Y0056100D01*
X0133700Y0056900D02*
X0135800D01*
X0106200Y0083500D02*
Y0088200D01*
Y0083500D02*
X0112100Y0077600D01*
X0107800Y0085300D02*
Y0088900D01*
Y0085300D02*
X0109769Y0083331D01*
X0134400Y0036100D02*
X0135400Y0037100D01*
X0128200Y0043300D02*
Y0045400D01*
Y0043300D02*
X0129400Y0042100D01*
Y0040200D02*
Y0042100D01*
X0135400Y0042200D02*
X0136000Y0042800D01*
X0122500Y0050957D02*
X0125057Y0048400D01*
X0124800Y0045400D02*
X0128200D01*
X0123180Y0047020D02*
X0124800Y0045400D01*
X0137600Y0046900D02*
Y0051600D01*
X0133700Y0056900D02*
Y0059000D01*
X0119165Y0047020D02*
X0123180D01*
X0124531Y0058831D02*
X0127400Y0061700D01*
X0130700D01*
X0136000Y0059800D02*
Y0070500D01*
X0122161Y0075339D02*
Y0091479D01*
Y0075339D02*
X0126100Y0071400D01*
X0135100D01*
X0136000Y0070500D01*
X0131814Y0074600D02*
X0131884Y0074669D01*
X0127500Y0074600D02*
X0131814D01*
X0135100Y0079900D02*
X0137600Y0077400D01*
X0127279Y0081420D02*
X0128800Y0079900D01*
X0135100D01*
X0136000Y0073337D02*
Y0076737D01*
X0124721Y0080480D02*
Y0091479D01*
Y0080480D02*
X0126900Y0078300D01*
X0134437D01*
X0136000Y0076737D01*
X0137600Y0074000D02*
Y0077400D01*
X0127279Y0081420D02*
Y0091479D01*
X0131884Y0083331D02*
X0132014Y0083200D01*
X0136600D01*
X0140858Y0076274D02*
Y0084142D01*
X0132400Y0086400D02*
X0138600D01*
X0140858Y0084142D01*
X0133700Y0059000D02*
X0134119Y0059419D01*
X0133000Y0064800D02*
X0134119Y0063681D01*
Y0059419D02*
Y0063681D01*
X0115200Y0057500D02*
Y0062605D01*
X0113600Y0056800D02*
Y0063268D01*
X0117316Y0066984D02*
Y0073069D01*
X0113600Y0063268D02*
X0117316Y0066984D01*
X0137600Y0060463D02*
Y0071737D01*
X0136000Y0073337D02*
X0137600Y0071737D01*
Y0074000D02*
X0140858Y0070742D01*
X0140820Y0057242D02*
X0140858D01*
X0137600Y0060463D02*
X0140820Y0057242D01*
X0140858Y0062774D02*
Y0070742D01*
Y0049274D02*
Y0057242D01*
X0137600Y0046900D02*
X0140858Y0043642D01*
X0020000Y0097600D02*
X0023600D01*
X0028500Y0092700D01*
X0051600Y0028800D02*
Y0034200D01*
X0032106Y0015506D02*
X0045300Y0028700D01*
X0032106Y0012335D02*
Y0015506D01*
X0074283Y0033240D02*
X0077860D01*
X0073400Y0026400D02*
X0074700Y0027700D01*
X0080300Y0062100D02*
X0083200D01*
X0083900Y0062800D01*
X0094900D01*
X0066537Y0015363D02*
X0066637Y0015463D01*
X0037027Y0015728D02*
X0042052Y0020752D01*
X0037027Y0012335D02*
Y0015728D01*
X0047726Y0014274D02*
X0052026D01*
X0045752Y0016248D02*
X0047726Y0014274D01*
X0100100Y0057800D02*
Y0062137D01*
X0097709Y0064529D02*
X0100100Y0062137D01*
X0097709Y0064529D02*
Y0069264D01*
X0035500Y0031300D02*
X0037400D01*
X0042226Y0036126D01*
Y0045774D01*
X0039626Y0048374D02*
X0042226Y0045774D01*
X0029926Y0048374D02*
X0039626D01*
X0027185Y0051115D02*
X0029926Y0048374D01*
X0027185Y0051115D02*
Y0052835D01*
X0113600Y0056800D02*
X0115506Y0054894D01*
X0115838Y0056862D02*
X0119165D01*
X0115200Y0057500D02*
X0115838Y0056862D01*
X0056700Y0008000D02*
X0056900Y0008200D01*
X0052700Y0008000D02*
X0056700D01*
X0056900Y0008200D02*
X0057100Y0008000D01*
X0060600D01*
X0083929Y0023594D02*
X0083929Y0022500D01*
X0131900Y0029200D02*
X0134500D01*
X0131200Y0029900D02*
X0131900Y0029200D01*
X0131200Y0029900D02*
Y0032500D01*
X0107551Y0023594D02*
Y0027051D01*
X0108100Y0027600D01*
X0124900Y0013300D02*
X0126094Y0012106D01*
Y0008774D02*
Y0012106D01*
X0131015Y0008774D02*
Y0011885D01*
X0135936Y0008774D02*
Y0012264D01*
X0135500Y0012700D02*
X0135936Y0012264D01*
X0132500Y0012700D02*
X0135500D01*
X0133100Y0014400D02*
X0138558D01*
X0140858Y0012100D01*
Y0008774D02*
Y0012100D01*
X0018400Y0008000D02*
X0047100D01*
X0017343Y0009058D02*
X0018400Y0008000D01*
X0017343Y0009058D02*
Y0012335D01*
X0063000Y0053800D02*
X0067812Y0048988D01*
X0055000Y0053800D02*
X0063000D01*
X0054600Y0053400D02*
X0055000Y0053800D01*
X0080112Y0048988D02*
X0080500Y0048600D01*
X0056100Y0022800D02*
X0062924D01*
X0053800Y0025100D02*
X0056100Y0022800D01*
X0053800Y0025100D02*
Y0025800D01*
X0057700Y0034100D02*
X0061600D01*
X0048600Y0043100D02*
Y0046000D01*
X0071000Y0043000D02*
X0071083Y0043083D01*
X0074283D01*
X0022264Y0021236D02*
Y0025835D01*
Y0021236D02*
X0023300Y0020200D01*
X0032100D01*
X0045626Y0033726D01*
Y0042300D01*
X0046326Y0043000D01*
X0035335Y0025835D02*
X0043926Y0034426D01*
X0027185Y0025835D02*
X0035335D01*
X0068143Y0050957D02*
X0074283D01*
X0063700Y0055400D02*
X0068143Y0050957D01*
X0045800Y0055400D02*
X0063700D01*
X0043926Y0053526D02*
X0045800Y0055400D01*
X0037028Y0052835D02*
X0039835D01*
X0044000Y0057000D01*
X0064400D01*
X0068475Y0052925D01*
X0074283D01*
X0032106Y0052835D02*
Y0056406D01*
X0065100Y0058600D02*
X0066838Y0056862D01*
X0074283D01*
X0080900Y0063900D02*
X0082600D01*
X0083929Y0065229D01*
Y0068476D01*
X0017342Y0100258D02*
Y0106835D01*
Y0100258D02*
X0020000Y0097600D01*
X0028500Y0092700D02*
X0045600D01*
X0048326Y0095426D01*
Y0108700D01*
X0056526Y0116900D01*
X0022264Y0093335D02*
X0022264Y0093335D01*
X0024665D01*
X0027300Y0090700D01*
X0046400D01*
X0049926Y0094226D01*
Y0108037D01*
X0057189Y0115300D01*
X0017342Y0093335D02*
X0017342Y0093335D01*
Y0089617D02*
Y0093335D01*
Y0089617D02*
X0018060Y0088900D01*
X0047400D01*
X0051826Y0093326D01*
Y0107675D01*
X0057851Y0113700D01*
X0095740Y0069264D02*
Y0072788D01*
X0095740Y0068476D02*
X0095740Y0069264D01*
X0060600Y0046000D02*
Y0051000D01*
X0067169Y0058831D02*
X0074283D01*
X0086600Y0049500D02*
Y0050400D01*
X0082151Y0045051D02*
X0086600Y0049500D01*
X0112000Y0056100D02*
X0115000Y0053100D01*
Y0051700D02*
Y0053100D01*
Y0051700D02*
X0115743Y0050957D01*
X0047800Y0025800D02*
X0050200D01*
X0050600Y0025400D01*
Y0023700D02*
Y0025400D01*
Y0023700D02*
X0052248Y0022052D01*
Y0020800D02*
Y0022052D01*
X0022264Y0049336D02*
Y0052835D01*
Y0049336D02*
X0022826Y0048774D01*
Y0046074D02*
Y0048774D01*
X0030900Y0033000D02*
X0032700Y0034800D01*
X0038400D01*
X0040626Y0037026D01*
Y0042248D01*
X0036800Y0046074D02*
X0040626Y0042248D01*
X0022826Y0046074D02*
X0036800D01*
X0066600Y0040000D02*
X0069100Y0037500D01*
X0048800Y0036500D02*
Y0040100D01*
X0047300Y0035000D02*
X0048800Y0036500D01*
X0047300Y0033100D02*
Y0035000D01*
X0031200Y0017000D02*
X0047300Y0033100D01*
X0028289Y0017000D02*
X0031200D01*
X0027185Y0015896D02*
X0028289Y0017000D01*
X0027185Y0012335D02*
Y0015896D01*
X0140858Y0035774D02*
Y0043642D01*
X0140858Y0089774D02*
X0140858Y0089774D01*
X0140500Y0029200D02*
X0140858Y0029042D01*
Y0022274D02*
Y0029042D01*
X0038026Y0079874D02*
X0043426D01*
X0065700Y0078411D02*
X0066663Y0079374D01*
X0043426Y0077774D02*
Y0079874D01*
X0045926Y0085874D02*
X0046426Y0085374D01*
X0032026Y0085874D02*
X0032026Y0085874D01*
X0024226Y0085874D02*
X0032026D01*
X0022264Y0083912D02*
X0024226Y0085874D01*
X0022264Y0079835D02*
Y0083912D01*
X0031987Y0079835D02*
X0032026Y0079874D01*
X0027185Y0079835D02*
X0031987D01*
X0060126Y0081326D02*
Y0087874D01*
X0059400Y0080600D02*
X0060126Y0081326D01*
X0056900Y0014200D02*
Y0016000D01*
X0058763Y0017863D01*
X0058663Y0019300D02*
X0058763Y0017863D01*
X0119165Y0039146D02*
X0122154D01*
X0123200Y0038100D01*
X0119165Y0041114D02*
X0122486D01*
X0124800Y0038800D01*
X0119165Y0043083D02*
X0122817D01*
X0118500Y0014300D02*
X0119500Y0013300D01*
X0118500Y0014300D02*
Y0017500D01*
X0119500Y0013300D02*
X0124900D01*
X0119165Y0033240D02*
X0122260D01*
X0123200Y0032300D01*
Y0028700D02*
Y0032300D01*
X0121500Y0027000D02*
X0123200Y0028700D01*
X0119100Y0027000D02*
X0121500D01*
X0121400Y0023000D02*
X0121500Y0023100D01*
X0121400Y0016900D02*
Y0019000D01*
X0120500Y0019900D02*
X0121400Y0019000D01*
X0114061Y0021938D02*
X0118500Y0017500D01*
X0118700Y0019900D02*
X0120500D01*
X0115700Y0022900D02*
X0118700Y0019900D01*
X0124800Y0035300D02*
Y0038800D01*
Y0035300D02*
X0126400Y0033700D01*
X0123200Y0034600D02*
Y0038100D01*
Y0034600D02*
X0124800Y0033000D01*
X0126400Y0036000D02*
X0128000Y0034400D01*
X0126400Y0036000D02*
Y0039500D01*
X0122817Y0043083D02*
X0126400Y0039500D01*
X0111488Y0068476D02*
Y0073188D01*
X0112000Y0063931D02*
X0113300Y0065231D01*
X0111488Y0073188D02*
X0112100Y0073800D01*
X0113300Y0072700D02*
X0113700Y0073100D01*
X0113300Y0065231D02*
Y0072700D01*
X0132424Y0107876D02*
Y0113920D01*
Y0107876D02*
X0132600Y0107700D01*
X0066537Y0012837D02*
Y0015363D01*
X0065100Y0011400D02*
X0066537Y0012837D01*
X0099677Y0020377D02*
Y0023594D01*
X0098600Y0019300D02*
X0099677Y0020377D01*
X0118026Y0008774D02*
X0121172D01*
X0085898Y0068476D02*
Y0071902D01*
X0085300Y0072500D02*
X0085898Y0071902D01*
X0083874Y0072500D02*
X0085300D01*
X0066663Y0079374D02*
X0077000D01*
X0083874Y0072500D01*
X0087866Y0068476D02*
Y0072234D01*
X0086000Y0074100D02*
X0087866Y0072234D01*
X0084537Y0074100D02*
X0086000D01*
X0077663Y0080974D02*
X0084537Y0074100D01*
X0082826Y0078074D02*
X0085199Y0075700D01*
X0086700D01*
X0089835Y0072565D01*
Y0068476D02*
Y0072565D01*
X0082826Y0078074D02*
Y0081074D01*
X0091803Y0068476D02*
Y0072897D01*
X0093700Y0068548D02*
X0093772Y0068476D01*
X0097025Y0074073D02*
Y0076775D01*
X0095740Y0072788D02*
X0097025Y0074073D01*
X0095300Y0078500D02*
X0097025Y0076775D01*
X0097000Y0079063D02*
X0097663Y0078400D01*
X0099400D01*
X0099677Y0078123D01*
X0101646Y0071946D02*
X0102600Y0072900D01*
Y0080800D01*
X0102000Y0081400D02*
X0102600Y0080800D01*
X0099800Y0081400D02*
X0102000D01*
X0132398Y0088702D02*
Y0091479D01*
Y0088702D02*
X0133100Y0088000D01*
X0136600D01*
X0138374Y0089774D01*
X0140858D01*
X0134957Y0091479D02*
Y0097257D01*
X0135000Y0097300D01*
X0119165Y0058831D02*
X0124531D01*
X0122594Y0054894D02*
X0124600Y0056900D01*
X0127700D01*
X0123700Y0107000D02*
Y0109800D01*
X0124721Y0110820D02*
Y0113920D01*
X0123700Y0109800D02*
X0124721Y0110820D01*
X0099980Y0064520D02*
X0103300Y0061200D01*
X0101646Y0065154D02*
X0104900Y0061900D01*
X0109520Y0065220D02*
Y0068476D01*
X0108100Y0063800D02*
X0109520Y0065220D01*
X0108100Y0061200D02*
Y0063800D01*
X0054800Y0104500D02*
Y0107900D01*
X0055500Y0108600D01*
X0059400D01*
X0054800Y0095300D02*
Y0098500D01*
X0060600Y0101500D02*
Y0103100D01*
X0066300Y0108800D01*
X0073200D01*
X0068500Y0104000D02*
X0074800D01*
X0067600Y0103100D02*
X0068500Y0104000D01*
X0065200Y0103100D02*
X0067600D01*
X0046426Y0077800D02*
X0048326Y0075900D01*
X0046426Y0077800D02*
Y0085374D01*
X0064000Y0078974D02*
X0066000Y0080974D01*
X0077663D01*
X0066463Y0076400D02*
X0068552D01*
X0060200Y0062300D02*
X0062300Y0060200D01*
X0065800D02*
X0067169Y0058831D01*
X0062300Y0060200D02*
X0065800D01*
X0070901Y0060799D02*
X0074283D01*
X0066600Y0063200D02*
X0068500D01*
X0070901Y0060799D01*
X0068700Y0066200D02*
X0072200Y0062700D01*
X0077437D01*
X0066600Y0069200D02*
X0068700D01*
X0078100Y0064300D02*
X0080300Y0062100D01*
X0073600Y0064300D02*
X0078100D01*
X0068700Y0069200D02*
X0073600Y0064300D01*
X0078900Y0065900D02*
X0080900Y0063900D01*
X0069600Y0070563D02*
X0074263Y0065900D01*
X0069600Y0070563D02*
Y0071300D01*
X0074263Y0065900D02*
X0078900D01*
X0068600Y0072300D02*
X0069600Y0071300D01*
X0075048Y0072648D02*
Y0076400D01*
X0073700Y0071300D02*
X0075048Y0072648D01*
X0076524Y0068476D02*
X0081961D01*
X0073700Y0071300D02*
X0076524Y0068476D01*
X0060126Y0087874D02*
X0064626D01*
X0072000Y0092700D02*
X0073700Y0094400D01*
X0081900Y0085600D02*
X0083200Y0084300D01*
X0081900Y0085600D02*
Y0090100D01*
X0080700Y0091300D02*
X0081900Y0090100D01*
X0080700Y0091300D02*
Y0095000D01*
X0078552Y0085348D02*
X0082826Y0081074D01*
X0078552Y0085348D02*
Y0088600D01*
X0085048D02*
Y0090952D01*
X0083700Y0092300D02*
X0085048Y0090952D01*
X0083700Y0092300D02*
Y0110000D01*
X0086700Y0091900D02*
X0088000Y0090600D01*
X0090500Y0076900D02*
X0092100Y0078500D01*
X0090500Y0074200D02*
X0091803Y0072897D01*
X0090500Y0074200D02*
Y0076900D01*
X0083200Y0084300D02*
X0084600D01*
X0088900Y0080000D01*
X0092100Y0078500D02*
Y0081400D01*
X0088000Y0085500D02*
X0092100Y0081400D01*
X0088000Y0085500D02*
Y0090600D01*
X0086700Y0108600D02*
X0087400Y0107900D01*
X0086700Y0108600D02*
Y0112900D01*
X0085900Y0113700D02*
X0086700Y0112900D01*
X0057851Y0113700D02*
X0085900D01*
X0086700Y0105000D02*
X0088900D01*
X0089700Y0086063D02*
Y0104200D01*
X0088900Y0105000D02*
X0089700Y0104200D01*
Y0086063D02*
X0093700Y0082063D01*
X0088900Y0107900D02*
X0091300Y0105500D01*
X0087400Y0107900D02*
X0088900D01*
X0091300Y0086725D02*
Y0105500D01*
X0095300Y0078500D02*
Y0082726D01*
X0091300Y0086725D02*
X0095300Y0082726D01*
X0097000Y0079063D02*
Y0083288D01*
X0094600Y0105100D02*
Y0111000D01*
X0090300Y0115300D02*
X0094600Y0111000D01*
X0057189Y0115300D02*
X0090300D01*
X0096200Y0105763D02*
Y0111700D01*
X0091000Y0116900D02*
X0096200Y0111700D01*
X0056526Y0116900D02*
X0091000D01*
X0089700Y0110800D02*
X0091900D01*
X0092900Y0109800D01*
Y0102200D02*
Y0109800D01*
Y0087388D02*
X0097000Y0083288D01*
X0095700Y0096600D02*
Y0099400D01*
X0092900Y0102200D02*
X0095700Y0099400D01*
X0093500Y0096600D02*
X0095700D01*
X0092900Y0096000D02*
X0093500Y0096600D01*
X0092900Y0087388D02*
Y0096000D01*
X0096100Y0087000D02*
X0098200D01*
X0095700Y0087400D02*
X0096100Y0087000D01*
X0095700Y0087400D02*
Y0090600D01*
X0098500Y0091300D02*
X0103000Y0086800D01*
X0094600Y0105100D02*
X0098500Y0101200D01*
Y0091300D02*
Y0101200D01*
X0096200Y0105763D02*
X0100100Y0101863D01*
X0099500Y0113600D02*
X0107400D01*
X0112100Y0073800D02*
Y0077600D01*
X0129839Y0088961D02*
Y0091479D01*
Y0088961D02*
X0132400Y0086400D01*
X0119602Y0111202D02*
Y0113920D01*
X0104400Y0092300D02*
X0107800Y0088900D01*
X0131015Y0018885D02*
Y0022274D01*
Y0018885D02*
X0131900Y0018000D01*
X0153200D01*
X0153900Y0018700D01*
Y0106800D01*
X0153200Y0107500D02*
X0153900Y0106800D01*
X0137700Y0107500D02*
X0153200D01*
X0133913Y0103713D02*
X0137700Y0107500D01*
X0120269Y0105800D02*
Y0109569D01*
X0122161Y0111461D01*
Y0113920D01*
X0120269Y0105800D02*
X0122356Y0103713D01*
X0133913D01*
X0119602Y0091479D02*
Y0094502D01*
X0120200Y0095100D02*
X0124300D01*
X0124800Y0095600D01*
Y0098000D01*
X0119602Y0094502D02*
X0120200Y0095100D01*
X0117043Y0096243D02*
X0118900Y0098100D01*
X0117043Y0091479D02*
Y0096243D01*
X0099500Y0107600D02*
X0099800Y0107300D01*
X0103400D01*
X0104400Y0106300D01*
X0109600Y0099300D02*
X0110400Y0100100D01*
X0114100Y0105700D02*
X0119602Y0111202D01*
X0114100Y0098000D02*
Y0105700D01*
X0117043Y0111043D02*
Y0113920D01*
X0113300Y0107300D02*
X0117043Y0111043D01*
X0111600Y0107300D02*
X0113300D01*
X0110400Y0106100D02*
X0111600Y0107300D01*
X0074283Y0037177D02*
X0077577D01*
X0074283Y0035209D02*
X0078009D01*
X0080600Y0037800D01*
X0086600Y0047200D02*
X0088000D01*
X0089800Y0049000D01*
X0080514Y0041114D02*
X0086600Y0047200D01*
X0074283Y0041114D02*
X0080514D01*
X0077577Y0037177D02*
X0079800Y0039400D01*
X0080600Y0037800D02*
X0081800D01*
X0079800Y0039400D02*
X0081100D01*
X0074700Y0027700D02*
X0077700D01*
X0077860Y0033240D02*
X0078500Y0032600D01*
X0077700Y0027700D02*
X0078500Y0028500D01*
Y0032600D01*
X0077826Y0024474D02*
X0080200Y0026848D01*
Y0028200D01*
X0081400Y0034000D02*
Y0035100D01*
X0084600Y0032600D02*
Y0036000D01*
X0080200Y0028200D02*
X0084600Y0032600D01*
X0087866Y0030066D02*
X0089500Y0031700D01*
X0087866Y0023594D02*
Y0030066D01*
X0091803Y0029103D02*
X0094300Y0031600D01*
X0091803Y0022807D02*
Y0029103D01*
X0095740Y0023594D02*
Y0028440D01*
X0097500Y0030200D01*
X0097709Y0028009D02*
X0099100Y0029400D01*
X0084600Y0036000D02*
X0088300Y0039700D01*
X0097709Y0022807D02*
Y0028009D01*
X0099100Y0029400D02*
Y0033900D01*
X0100700Y0029914D02*
Y0034600D01*
X0103614Y0022807D02*
Y0027000D01*
X0100700Y0029914D02*
X0103614Y0027000D01*
X0081400Y0035100D02*
X0087600Y0041300D01*
X0081800Y0037800D02*
X0086900Y0042900D01*
X0081100Y0039400D02*
X0086200Y0044500D01*
X0115809Y0035209D02*
X0119165D01*
X0115200Y0034600D02*
X0115809Y0035209D01*
X0108100Y0027600D02*
X0112700D01*
X0114061Y0026239D01*
Y0021938D02*
Y0026239D01*
X0115700Y0022900D02*
Y0026900D01*
X0115200Y0027400D02*
X0115700Y0026900D01*
X0108800Y0031700D02*
X0109228Y0031272D01*
X0105583Y0023594D02*
Y0029717D01*
X0104000Y0031300D02*
X0105583Y0029717D01*
X0089700Y0036500D02*
X0094100D01*
X0097500Y0033100D01*
Y0030200D02*
Y0033100D01*
X0087600Y0041300D02*
X0094000D01*
X0100700Y0034600D01*
X0088300Y0039700D02*
X0093300D01*
X0099100Y0033900D01*
X0100200Y0037600D02*
X0112100D01*
X0094900Y0042900D02*
X0100200Y0037600D01*
X0086900Y0042900D02*
X0094900D01*
X0098000Y0042200D02*
X0110500D01*
X0086200Y0044500D02*
X0095700D01*
X0098000Y0042200D01*
X0115788Y0048988D02*
X0119165D01*
X0104900Y0059700D02*
Y0061900D01*
Y0059700D02*
X0106600Y0058000D01*
X0110100Y0052200D02*
X0111300D01*
X0103300Y0059000D02*
Y0061200D01*
Y0059000D02*
X0110100Y0052200D01*
X0100100Y0051200D02*
X0104165Y0047135D01*
X0113935D02*
X0115788Y0048988D01*
X0104165Y0047135D02*
X0113935D01*
X0115200Y0062605D02*
X0120395Y0067800D01*
X0133000Y0064800D02*
Y0067800D01*
X0111200Y0087500D02*
Y0095100D01*
X0114027Y0097927D01*
X0088300Y0054200D02*
X0089800Y0052700D01*
X0077437Y0062700D02*
X0085937Y0054200D01*
X0089800Y0049000D02*
Y0052700D01*
X0085937Y0054200D02*
X0088300D01*
X0073728Y0012267D02*
X0081961Y0020500D01*
Y0023594D01*
X0073728Y0008774D02*
Y0012267D01*
X0078649Y0014920D02*
X0083929Y0020200D01*
Y0022500D01*
X0078649Y0008774D02*
Y0014920D01*
X0085898Y0019900D02*
Y0023594D01*
X0083570Y0017572D02*
X0085898Y0019900D01*
X0083570Y0008774D02*
Y0017572D01*
X0089835Y0020200D02*
Y0023594D01*
X0088491Y0018857D02*
X0089835Y0020200D01*
X0088491Y0008774D02*
Y0018857D01*
X0093772Y0020200D02*
Y0023594D01*
X0093413Y0019841D02*
X0093772Y0020200D01*
X0093413Y0008774D02*
Y0019841D01*
X0043426Y0077774D02*
X0046900Y0074300D01*
X0022264Y0066335D02*
Y0069900D01*
X0023464Y0071100D01*
X0065700Y0077900D02*
Y0078411D01*
X0064000Y0078500D02*
Y0078974D01*
X0064626Y0072300D02*
X0068600D01*
X0023464Y0071100D02*
X0063425D01*
X0064626Y0072300D01*
X0046200Y0072700D02*
X0062763D01*
X0066463Y0076400D01*
X0046900Y0074300D02*
X0062100D01*
X0065645Y0077845D01*
X0061400Y0075900D02*
X0064000Y0078500D01*
X0048326Y0075900D02*
X0061400D01*
X0038000Y0074300D02*
X0044600D01*
X0046200Y0072700D01*
X0027185Y0066335D02*
X0029835D01*
X0033000Y0069500D01*
X0061200D01*
X0064500Y0066200D02*
X0068700D01*
X0061200Y0069500D02*
X0064500Y0066200D01*
X0027185Y0066335D02*
X0027520Y0066000D01*
X0046282Y0062300D02*
X0050000D01*
X0056000D02*
X0060200D01*
X0032106Y0056406D02*
X0032800Y0057100D01*
X0041100D01*
X0042600Y0058600D01*
X0065100D01*
X0002000Y0008224D02*
X0004300D01*
X0002000Y0008824D02*
X0004300D01*
X0002000Y0009424D02*
X0004300D01*
X0002000Y0010024D02*
X0004300D01*
X0002000Y0010624D02*
X0004300D01*
X0002000Y0011224D02*
X0004300D01*
X0002000Y0011824D02*
X0004300D01*
X0002000Y0012424D02*
X0004300D01*
X0002000Y0013024D02*
X0004300D01*
X0002000Y0013624D02*
X0004300D01*
X0002000Y0014224D02*
X0004300D01*
X0002000Y0014824D02*
X0004300D01*
X0002000Y0015424D02*
X0004300D01*
X0002000Y0016024D02*
X0004300D01*
X0002000Y0022024D02*
X0004300D01*
X0002000Y0022624D02*
X0004300D01*
X0002000Y0023224D02*
X0004300D01*
X0002000Y0023824D02*
X0004300D01*
X0002000Y0024424D02*
X0004300D01*
X0002000Y0025024D02*
X0004300D01*
X0002000Y0002000D02*
X0015682D01*
X0002000Y0002224D02*
X0015457D01*
X0002000Y0004024D02*
X0013657D01*
X0002000Y0002824D02*
X0014857D01*
X0002000Y0003424D02*
X0014257D01*
X0002000Y0005224D02*
X0012457D01*
X0002000Y0004624D02*
X0013057D01*
X0002000Y0007024D02*
X0010657D01*
X0002000Y0005824D02*
X0011857D01*
X0002000Y0006424D02*
X0011257D01*
X0002000Y0016624D02*
X0009721D01*
X0002000Y0007624D02*
X0010146D01*
X0002000Y0017224D02*
X0009789D01*
X0002000Y0017824D02*
X0010004D01*
X0002000Y0018424D02*
X0010412D01*
X0002000Y0019024D02*
X0011006D01*
X0002000Y0019624D02*
X0011606D01*
X0002000Y0020224D02*
X0012206D01*
X0002000Y0020824D02*
X0012806D01*
X0002000Y0021424D02*
X0013406D01*
X0002000Y0025624D02*
X0004300D01*
X0002000Y0026224D02*
X0004300D01*
X0002000Y0026824D02*
X0004300D01*
X0002000Y0027424D02*
X0004300D01*
X0002000Y0028024D02*
X0004300D01*
X0002000Y0028624D02*
X0004300D01*
X0002000Y0029224D02*
X0004300D01*
X0002000Y0029824D02*
X0004300D01*
X0002000Y0030424D02*
X0004254D01*
X0002000Y0031024D02*
X0004254D01*
X0002000Y0031624D02*
X0004254D01*
X0002000Y0032224D02*
X0004254D01*
X0002000Y0032824D02*
X0004254D01*
X0002000Y0033424D02*
X0004254D01*
X0002000Y0034024D02*
X0004254D01*
X0002000Y0034624D02*
X0004254D01*
X0002000Y0035224D02*
X0004254D01*
X0002000Y0035824D02*
X0004300D01*
X0002000Y0036424D02*
X0004300D01*
X0002000Y0037024D02*
X0004300D01*
X0002000Y0037624D02*
X0004300D01*
X0002000Y0038224D02*
X0004300D01*
X0002000Y0038824D02*
X0004300D01*
X0002000Y0039424D02*
X0004300D01*
X0002000Y0040024D02*
X0004300D01*
X0002000Y0040624D02*
X0004300D01*
X0002000Y0041224D02*
X0004300D01*
X0002000Y0041824D02*
X0004300D01*
X0002000Y0042424D02*
X0004300D01*
X0002000Y0043024D02*
X0004300D01*
X0002000Y0043624D02*
X0009721D01*
X0002000Y0044224D02*
X0009721D01*
X0002000Y0044824D02*
X0009721D01*
X0002000Y0045424D02*
X0009721D01*
X0002000Y0046024D02*
X0009721D01*
X0002000Y0046624D02*
X0009721D01*
X0002000Y0047224D02*
X0009721D01*
X0002000Y0049024D02*
X0004300D01*
X0002000Y0047824D02*
X0009721D01*
X0002000Y0048424D02*
X0009721D01*
X0004794Y0002000D02*
Y0008135D01*
X0005394Y0002000D02*
Y0008135D01*
X0005994Y0002000D02*
Y0008135D01*
X0006594Y0002000D02*
Y0008135D01*
X0004700Y0012335D02*
X0007500D01*
X0007194Y0002000D02*
Y0008135D01*
X0007794Y0002000D02*
Y0008135D01*
X0007500Y0008535D02*
Y0012335D01*
X0008394Y0002000D02*
Y0008135D01*
X0008994Y0002000D02*
Y0008135D01*
X0004300D02*
Y0016535D01*
X0004794D02*
Y0021635D01*
X0005394Y0016535D02*
Y0021635D01*
X0005994Y0016535D02*
Y0021635D01*
X0006594Y0016535D02*
Y0021635D01*
X0007194Y0016535D02*
Y0021635D01*
X0007500Y0012335D02*
Y0016135D01*
X0007794Y0016535D02*
Y0021635D01*
X0008394Y0016535D02*
Y0021635D01*
X0008994Y0016535D02*
Y0021635D01*
X0010194Y0002000D02*
Y0007553D01*
X0010512Y0007170D02*
X0015682Y0002000D01*
X0010794D02*
Y0006888D01*
X0011994Y0002000D02*
Y0005688D01*
X0011394Y0002000D02*
Y0006288D01*
X0012594Y0002000D02*
Y0005088D01*
X0013194Y0002000D02*
Y0004488D01*
X0013794Y0002000D02*
Y0003888D01*
X0014994Y0002000D02*
Y0002688D01*
X0014394Y0002000D02*
Y0003288D01*
X0009594Y0002000D02*
Y0008135D01*
X0004300D02*
X0009891D01*
X0004300Y0016535D02*
X0009721D01*
X0009594D02*
Y0021635D01*
X0010194Y0018147D02*
Y0021635D01*
X0010512Y0018530D02*
X0014081Y0022099D01*
X0004300Y0021635D02*
Y0030035D01*
X0004700Y0025835D02*
X0007500D01*
X0004254Y0030099D02*
Y0035649D01*
X0004654Y0032874D02*
X0007226D01*
X0004300Y0035135D02*
Y0035649D01*
X0007500Y0022035D02*
Y0025835D01*
Y0029635D01*
X0007226Y0030499D02*
Y0032874D01*
X0004700Y0039335D02*
X0007500D01*
Y0043135D01*
X0004300Y0035649D02*
Y0043535D01*
X0004794D02*
Y0048635D01*
X0002000Y0049624D02*
X0004300D01*
X0005394Y0043535D02*
Y0048635D01*
X0005994Y0043535D02*
Y0048635D01*
X0006594Y0043535D02*
Y0048635D01*
X0007194Y0043535D02*
Y0048635D01*
X0007794Y0043535D02*
Y0048635D01*
X0008394Y0043535D02*
Y0048635D01*
X0008994Y0043535D02*
Y0048635D01*
X0004300Y0021635D02*
X0010700D01*
Y0022138D01*
X0004300Y0030035D02*
X0009721D01*
X0004254Y0030099D02*
X0009721D01*
X0010794Y0018812D02*
Y0022080D01*
X0011394Y0019412D02*
Y0021805D01*
X0011994Y0020012D02*
Y0021664D01*
X0012594Y0020612D02*
Y0021640D01*
X0013194Y0021212D02*
Y0021730D01*
X0009594Y0043535D02*
Y0048635D01*
X0004300Y0043535D02*
X0009721D01*
Y0048635D01*
X0057572Y0044600D02*
Y0048225D01*
X0004300Y0048635D02*
X0009721D01*
X0057825Y0044600D02*
Y0048225D01*
X0058225Y0046000D02*
X0060600D01*
X0057572Y0048225D02*
Y0048775D01*
X0060600Y0046000D02*
X0062975D01*
X0057572Y0048225D02*
Y0048775D01*
X0002000Y0050224D02*
X0004300D01*
X0002000Y0050824D02*
X0004300D01*
X0002000Y0051424D02*
X0004300D01*
X0002000Y0052024D02*
X0004300D01*
X0002000Y0052624D02*
X0004300D01*
X0002000Y0053224D02*
X0004300D01*
X0002000Y0053824D02*
X0004300D01*
X0002000Y0054424D02*
X0004300D01*
X0002000Y0055024D02*
X0004300D01*
X0002000Y0055624D02*
X0004300D01*
X0002000Y0002000D02*
Y0117900D01*
X0002394Y0002000D02*
Y0117900D01*
X0002994Y0002000D02*
Y0117900D01*
X0002000Y0056224D02*
X0004300D01*
X0002000Y0056824D02*
X0004300D01*
X0003594Y0002000D02*
Y0117900D01*
X0004194Y0002000D02*
Y0117900D01*
X0004300Y0048635D02*
Y0057035D01*
X0004794D02*
Y0062135D01*
X0005394Y0057035D02*
Y0062135D01*
X0002000Y0057424D02*
X0009721D01*
X0002000Y0058024D02*
X0009721D01*
X0002000Y0058624D02*
X0009721D01*
X0002000Y0059224D02*
X0009721D01*
X0002000Y0059824D02*
X0009721D01*
X0007500Y0049035D02*
Y0052835D01*
X0004700D02*
X0007500D01*
Y0056635D01*
X0004300Y0057035D02*
X0009721D01*
X0002000Y0060424D02*
X0009721D01*
X0005994Y0057035D02*
Y0062135D01*
X0006594Y0057035D02*
Y0062135D01*
X0007194Y0057035D02*
Y0062135D01*
X0002000Y0061024D02*
X0009721D01*
X0002000Y0061624D02*
X0009721D01*
X0007794Y0057035D02*
Y0062135D01*
X0008394Y0057035D02*
Y0062135D01*
X0008994Y0057035D02*
Y0062135D01*
X0009594Y0057035D02*
Y0062135D01*
X0009721Y0057035D02*
Y0062135D01*
X0002000Y0062224D02*
X0004300D01*
X0002000Y0062824D02*
X0004300D01*
X0002000Y0063424D02*
X0004300D01*
X0002000Y0064024D02*
X0004300D01*
X0002000Y0064624D02*
X0004300D01*
X0002000Y0065224D02*
X0004300D01*
X0002000Y0065824D02*
X0004300D01*
X0002000Y0066424D02*
X0004300D01*
X0002000Y0067024D02*
X0004300D01*
X0002000Y0067624D02*
X0004300D01*
Y0062135D02*
Y0070535D01*
X0002000Y0068224D02*
X0004300D01*
X0002000Y0068824D02*
X0004300D01*
X0002000Y0069424D02*
X0004300D01*
X0002000Y0070024D02*
X0004300D01*
X0004794Y0070535D02*
Y0075635D01*
X0005394Y0070535D02*
Y0075635D01*
X0005994Y0070535D02*
Y0075635D01*
X0006594Y0070535D02*
Y0075635D01*
X0007194Y0070535D02*
Y0075635D01*
X0004300Y0062135D02*
X0009721D01*
X0028669Y0062500D02*
X0038782D01*
X0029394D02*
Y0063020D01*
X0029169Y0062824D02*
X0039106D01*
X0029994Y0062500D02*
Y0063802D01*
X0029752Y0063424D02*
X0039706D01*
X0030104Y0064024D02*
X0040306D01*
X0030305Y0064624D02*
X0041026D01*
X0007500Y0062535D02*
Y0066335D01*
X0004700D02*
X0007500D01*
Y0070135D01*
X0004300Y0070535D02*
X0009721D01*
X0002000Y0070624D02*
X0009721D01*
X0007794Y0070535D02*
Y0075635D01*
X0008394Y0070535D02*
Y0075635D01*
X0008994Y0070535D02*
Y0075635D01*
X0009594Y0070535D02*
Y0075635D01*
X0009721D02*
X0009721Y0070535D01*
X0030594Y0062500D02*
Y0064926D01*
X0031194Y0062500D02*
Y0065431D01*
X0031794Y0062500D02*
Y0066031D01*
X0032394Y0062500D02*
Y0066631D01*
X0032994Y0062500D02*
Y0067231D01*
X0033594Y0062500D02*
Y0067831D01*
X0034194Y0062500D02*
Y0067900D01*
X0038782Y0062500D02*
X0040491Y0064209D01*
X0034794Y0062500D02*
Y0067900D01*
X0035394Y0062500D02*
Y0067900D01*
X0035994Y0062500D02*
Y0067900D01*
X0036594Y0062500D02*
Y0067900D01*
X0037194Y0062500D02*
Y0067900D01*
X0037794Y0062500D02*
Y0067900D01*
X0038394Y0062500D02*
Y0067900D01*
X0038994Y0062712D02*
Y0067900D01*
X0039594Y0063312D02*
Y0067900D01*
X0040194Y0063912D02*
Y0067900D01*
X0040794Y0064470D02*
Y0067900D01*
X0053172Y0060200D02*
Y0065075D01*
X0053628Y0062300D02*
X0056200D01*
X0058772D01*
X0057628Y0048225D02*
Y0052200D01*
X0057572Y0048775D02*
Y0052200D01*
X0056200Y0062300D02*
Y0064675D01*
X0058028Y0051000D02*
X0060600D01*
X0063172D01*
X0053228Y0060200D02*
Y0065075D01*
X0059172Y0060200D02*
Y0065075D01*
X0041394Y0064805D02*
Y0067900D01*
X0059394Y0060200D02*
Y0067900D01*
X0059994Y0060200D02*
Y0067900D01*
X0060594Y0060200D02*
Y0067844D01*
X0061194Y0060200D02*
Y0067244D01*
X0061794Y0060200D02*
Y0066644D01*
X0062994Y0060200D02*
Y0065444D01*
X0062394Y0060200D02*
Y0066044D01*
X0041994Y0064969D02*
Y0067900D01*
X0042400Y0065000D02*
X0044564D01*
X0030968Y0065205D02*
X0033663Y0067900D01*
X0030987Y0065224D02*
X0044983D01*
X0042594Y0065000D02*
Y0067900D01*
X0043194Y0065000D02*
Y0067900D01*
X0043794Y0065000D02*
Y0067900D01*
X0044394Y0065000D02*
Y0067900D01*
X0044994Y0065229D02*
Y0067900D01*
X0047394Y0065301D02*
Y0067900D01*
X0047994Y0065075D02*
Y0067900D01*
X0045594Y0065425D02*
Y0067900D01*
X0046194Y0065499D02*
Y0067900D01*
X0046794Y0065459D02*
Y0067900D01*
X0048594Y0065075D02*
Y0067900D01*
X0049194Y0065075D02*
Y0067900D01*
X0049794Y0065075D02*
Y0067900D01*
X0050394Y0065075D02*
Y0067900D01*
X0050994Y0065075D02*
Y0067900D01*
X0051594Y0065075D02*
Y0067900D01*
X0047876Y0065075D02*
X0053172D01*
X0032787Y0067024D02*
X0061413D01*
X0031587Y0065824D02*
X0062613D01*
X0032187Y0066424D02*
X0062013D01*
X0052194Y0065075D02*
Y0067900D01*
X0052794Y0065075D02*
Y0067900D01*
X0053394Y0065075D02*
Y0067900D01*
X0053228Y0065075D02*
X0059172D01*
X0053994D02*
Y0067900D01*
X0054594Y0065075D02*
Y0067900D01*
X0055194Y0065075D02*
Y0067900D01*
X0055794Y0065075D02*
Y0067900D01*
X0033663D02*
X0060537D01*
X0033387Y0067624D02*
X0060813D01*
X0056394Y0065075D02*
Y0067900D01*
X0056994Y0065075D02*
Y0067900D01*
X0057594Y0065075D02*
Y0067900D01*
X0058194Y0065075D02*
Y0067900D01*
X0058794Y0065075D02*
Y0067900D01*
X0067794Y0044600D02*
Y0047388D01*
X0063375Y0044600D02*
X0070387D01*
X0068394D02*
Y0047388D01*
X0063375Y0044824D02*
X0070342D01*
X0063375Y0045424D02*
X0070368D01*
X0068994Y0044600D02*
Y0047388D01*
X0070727Y0045051D02*
X0074283D01*
X0077839D01*
X0063375Y0044600D02*
Y0048225D01*
X0063594Y0044600D02*
Y0050944D01*
X0064194Y0044600D02*
Y0050344D01*
X0065394Y0044600D02*
Y0049144D01*
X0064794Y0044600D02*
Y0049744D01*
X0065994Y0044600D02*
Y0048544D01*
X0066594Y0044600D02*
Y0047944D01*
X0067194Y0044600D02*
Y0047512D01*
X0069594Y0044600D02*
Y0047388D01*
X0070194Y0044600D02*
Y0047388D01*
X0078200Y0042714D02*
X0079851D01*
X0078153Y0043624D02*
X0080762D01*
X0078032Y0044224D02*
X0081362D01*
X0079794Y0042714D02*
Y0045479D01*
X0078238Y0043024D02*
X0080162D01*
X0078199Y0045424D02*
X0080106D01*
X0078225Y0044824D02*
X0081962D01*
X0080394Y0043256D02*
Y0045402D01*
X0078594Y0042714D02*
Y0046030D01*
X0079194Y0042714D02*
Y0045679D01*
X0079851Y0042714D02*
X0085467Y0048330D01*
X0080994Y0043856D02*
Y0045438D01*
X0081594Y0044456D02*
Y0045593D01*
X0082194Y0045056D02*
Y0045885D01*
X0080895Y0045424D02*
X0082562D01*
X0082794Y0045656D02*
Y0046369D01*
X0063375Y0046024D02*
X0070623D01*
X0063375Y0047224D02*
X0070340D01*
X0063375Y0046624D02*
X0070373D01*
X0067812Y0047388D02*
X0070367D01*
X0077944Y0046024D02*
X0078601D01*
X0082399D02*
X0083162D01*
X0083017Y0046624D02*
X0083762D01*
X0083394Y0046256D02*
Y0047234D01*
X0063572Y0048424D02*
X0066113D01*
X0063375Y0047824D02*
X0066714D01*
X0063572Y0050224D02*
X0064313D01*
X0063572Y0049024D02*
X0065513D01*
X0063572Y0049624D02*
X0064913D01*
X0083389Y0047224D02*
X0084362D01*
X0083605Y0047824D02*
X0084962D01*
X0083695Y0048424D02*
X0085570D01*
X0089163Y0046100D02*
X0090930Y0047867D01*
X0089163Y0046100D02*
X0095700D01*
X0089687Y0046624D02*
X0102413D01*
X0089994Y0046100D02*
Y0046931D01*
X0090594Y0046100D02*
Y0047531D01*
X0091194Y0046100D02*
Y0048214D01*
X0091293Y0048424D02*
X0098507D01*
X0090287Y0047224D02*
X0101813D01*
X0090887Y0047824D02*
X0101213D01*
X0083672Y0049024D02*
X0087562D01*
X0083532Y0049624D02*
X0088162D01*
X0083257Y0050224D02*
X0088200D01*
X0082800Y0050824D02*
X0088200D01*
X0086600Y0048800D02*
X0087337D01*
X0091400Y0049024D02*
X0097753D01*
X0087337Y0048800D02*
X0088200Y0049663D01*
X0095206Y0012424D02*
X0096541D01*
X0095013Y0014224D02*
X0095628D01*
X0095013Y0014824D02*
X0095628D01*
X0095013Y0015424D02*
X0095628D01*
X0095994Y0011957D02*
Y0013825D01*
X0096594Y0012459D02*
Y0013825D01*
X0095013Y0016024D02*
X0095628D01*
X0097194Y0012764D02*
Y0013825D01*
X0097794Y0012928D02*
Y0013825D01*
X0095013Y0016624D02*
X0095628D01*
X0095013Y0017224D02*
X0095628D01*
X0095013Y0017824D02*
X0095628D01*
X0095013Y0018424D02*
X0095628D01*
X0095013Y0019024D02*
X0095628D01*
X0095013Y0012545D02*
Y0019190D01*
X0095394Y0012287D02*
Y0019673D01*
X0095628Y0013825D02*
Y0019375D01*
X0099594Y0012716D02*
Y0013825D01*
X0098394Y0012973D02*
Y0013825D01*
X0095013Y0013024D02*
X0109213D01*
X0098994Y0012905D02*
Y0013825D01*
X0100794Y0011821D02*
Y0013825D01*
X0100194Y0012378D02*
Y0013825D01*
X0100127Y0012424D02*
X0101462D01*
X0101394Y0012377D02*
Y0013825D01*
X0095628D02*
X0101572D01*
X0095013Y0013624D02*
X0108613D01*
X0098600Y0014225D02*
Y0016600D01*
X0096028D02*
X0098600D01*
X0095628Y0019375D02*
X0100465D01*
X0101572Y0013825D02*
Y0018266D01*
X0101628Y0013825D02*
X0107572D01*
X0098600Y0016600D02*
Y0018975D01*
Y0016600D02*
X0101172D01*
X0101628Y0013825D02*
Y0018212D01*
X0096594Y0019375D02*
Y0019861D01*
X0097194Y0019375D02*
Y0019716D01*
X0096833Y0045630D02*
X0098663Y0043800D01*
X0098394Y0019375D02*
Y0019778D01*
X0098994Y0019375D02*
Y0019777D01*
X0099677Y0020039D02*
Y0023594D01*
X0100194Y0019375D02*
Y0019716D01*
X0099677Y0023594D02*
Y0027150D01*
X0091400Y0050224D02*
X0097052D01*
X0091400Y0049624D02*
X0097315D01*
X0091400Y0050824D02*
X0096922D01*
X0098994Y0043800D02*
Y0048197D01*
X0099594Y0043800D02*
Y0048040D01*
X0097194Y0045269D02*
Y0049861D01*
X0098394Y0044069D02*
Y0048493D01*
X0097794Y0044669D02*
Y0048982D01*
X0095265Y0019624D02*
X0100278D01*
X0099505Y0027542D02*
X0100157Y0028194D01*
X0099987Y0028024D02*
X0100327D01*
X0100194Y0027472D02*
Y0028158D01*
X0100329Y0027424D02*
X0100927D01*
X0098663Y0043800D02*
X0107729D01*
X0098238Y0044224D02*
X0108022D01*
X0096186Y0046024D02*
X0103013D01*
X0097638Y0044824D02*
X0108669D01*
X0097038Y0045424D02*
X0115250D01*
X0100194Y0043800D02*
Y0048001D01*
X0100157Y0028194D02*
X0100947Y0027405D01*
X0100794Y0043800D02*
Y0048076D01*
X0101394Y0043800D02*
Y0047644D01*
X0100928Y0048109D02*
X0103033Y0046005D01*
X0063572Y0048225D02*
Y0050966D01*
X0066679Y0047858D01*
X0078176Y0051424D02*
X0078996D01*
X0066233Y0059730D02*
X0067501Y0058462D01*
X0067338Y0058624D02*
X0070340D01*
X0067794Y0058462D02*
Y0060228D01*
X0067501Y0058462D02*
X0070367D01*
X0068394D02*
Y0060228D01*
X0078594Y0051170D02*
Y0059281D01*
X0079194Y0051521D02*
Y0058681D01*
X0068994Y0058462D02*
Y0060228D01*
X0079794Y0051721D02*
Y0058081D01*
X0077990Y0052024D02*
X0088200D01*
X0077991Y0053824D02*
X0084050D01*
X0078213Y0052624D02*
X0085659D01*
X0078214Y0053224D02*
X0084650D01*
X0082194Y0051315D02*
Y0055681D01*
X0082794Y0050831D02*
Y0055081D01*
X0078234Y0055024D02*
X0082850D01*
X0082004Y0051424D02*
X0088200D01*
X0078175Y0054424D02*
X0083450D01*
X0078080Y0055624D02*
X0082250D01*
X0077985Y0059890D02*
X0084804Y0053070D01*
X0078043Y0058024D02*
X0079850D01*
X0078119Y0056224D02*
X0081650D01*
X0078147Y0057424D02*
X0080450D01*
X0080394Y0051798D02*
Y0057481D01*
X0081594Y0051607D02*
Y0056281D01*
X0080994Y0051762D02*
Y0056881D01*
X0078239Y0056824D02*
X0081050D01*
X0081900Y0060500D02*
X0086600Y0055800D01*
X0059172Y0060424D02*
X0063825D01*
X0059172Y0060200D02*
X0065100D01*
X0059172Y0061024D02*
X0063825D01*
X0059172Y0061624D02*
X0063825D01*
X0059172Y0062224D02*
X0063825D01*
X0066594Y0059369D02*
Y0060228D01*
X0067194Y0058769D02*
Y0060228D01*
X0065994Y0059927D02*
Y0060228D01*
X0059172Y0062824D02*
X0063825D01*
X0059172Y0063424D02*
X0063825D01*
X0047581Y0065224D02*
X0063213D01*
X0059172Y0064024D02*
X0063825D01*
X0059172Y0064624D02*
X0063825D01*
X0063594Y0060200D02*
Y0064881D01*
X0063825Y0060228D02*
Y0064749D01*
X0060537Y0067900D02*
X0063367Y0065070D01*
X0070194Y0058462D02*
Y0059364D01*
X0066738Y0059224D02*
X0070372D01*
X0070727Y0058831D02*
X0074283D01*
X0078227Y0058624D02*
X0079250D01*
X0074283Y0058831D02*
X0077839D01*
X0078194Y0059224D02*
X0078650D01*
X0083176D02*
X0097234D01*
X0069594Y0058462D02*
Y0059844D01*
X0063825Y0060228D02*
X0069209D01*
X0066130Y0059824D02*
X0069613D01*
X0069209Y0060228D02*
X0069768Y0059669D01*
X0082794Y0059606D02*
Y0060500D01*
X0082576Y0059824D02*
X0093723D01*
X0081900Y0060500D02*
X0083200D01*
X0081976Y0060424D02*
X0092756D01*
X0085194Y0048056D02*
Y0052783D01*
X0085794Y0048582D02*
Y0052606D01*
X0086394Y0048787D02*
Y0052600D01*
X0086994Y0048800D02*
Y0052600D01*
X0085937D02*
X0087637D01*
X0087594Y0049056D02*
Y0052600D01*
X0091400Y0049000D02*
Y0052700D01*
X0088200Y0049663D02*
Y0052037D01*
X0088194Y0049656D02*
Y0052044D01*
X0087637Y0052600D02*
X0088200Y0052037D01*
X0083994Y0046856D02*
Y0053881D01*
X0084594Y0047456D02*
Y0053281D01*
X0083394Y0049966D02*
Y0054481D01*
X0090594Y0054169D02*
Y0061200D01*
X0089433Y0055330D02*
X0090930Y0053833D01*
X0091194Y0053486D02*
Y0061200D01*
X0091400Y0051424D02*
X0096908D01*
X0091400Y0052024D02*
X0097008D01*
X0091400Y0052624D02*
X0097234D01*
X0091312Y0053224D02*
X0097622D01*
X0090938Y0053824D02*
X0098269D01*
X0097794Y0053418D02*
Y0055582D01*
X0098394Y0053907D02*
Y0055093D01*
X0098994Y0054203D02*
Y0054797D01*
X0100794Y0054324D02*
Y0054676D01*
X0091794Y0046100D02*
Y0061200D01*
X0092394Y0046100D02*
Y0060811D01*
X0092994Y0046100D02*
Y0060230D01*
X0094194Y0046100D02*
Y0059679D01*
X0093594Y0046100D02*
Y0059879D01*
X0094794Y0046100D02*
Y0059602D01*
X0096594Y0045827D02*
Y0060085D01*
X0095394Y0046100D02*
Y0059638D01*
X0097194Y0052539D02*
Y0056461D01*
X0095994Y0046073D02*
Y0059793D01*
X0083994Y0058406D02*
Y0060711D01*
X0084594Y0057806D02*
Y0061200D01*
X0083394Y0059006D02*
Y0060512D01*
X0084333Y0060970D02*
X0084563Y0061200D01*
X0085194Y0057206D02*
Y0061200D01*
X0086600Y0055800D02*
X0088300D01*
X0085576Y0056824D02*
X0097052D01*
X0086394Y0056006D02*
Y0061200D01*
X0086994Y0055800D02*
Y0061200D01*
X0085794Y0056606D02*
Y0061200D01*
X0084387Y0061024D02*
X0092238D01*
X0084563Y0061200D02*
X0092129D01*
X0089394Y0055368D02*
Y0061200D01*
X0089994Y0054769D02*
Y0061200D01*
X0087594Y0055800D02*
Y0061200D01*
X0088194Y0055800D02*
Y0061200D01*
X0088794Y0055722D02*
Y0061200D01*
X0086176Y0056224D02*
X0097315D01*
X0089029Y0055624D02*
X0097753D01*
X0084976Y0057424D02*
X0096922D01*
X0084376Y0058024D02*
X0096908D01*
X0083776Y0058624D02*
X0097008D01*
X0101394Y0054127D02*
Y0054873D01*
X0090338Y0054424D02*
X0105613D01*
X0097194Y0059139D02*
Y0060569D01*
X0089738Y0055024D02*
X0098507D01*
X0096077Y0059824D02*
X0097622D01*
X0097794Y0060018D02*
Y0061434D01*
X0097044Y0060424D02*
X0098269D01*
X0097562Y0061024D02*
X0098500D01*
X0098394Y0060507D02*
Y0061581D01*
X0098500Y0060571D02*
Y0061475D01*
X0097876Y0061624D02*
X0098350D01*
X0097993Y0061981D02*
X0098500Y0061475D01*
X0101646Y0068476D02*
Y0072032D01*
X0002000Y0076024D02*
X0004300D01*
X0002000Y0076624D02*
X0004300D01*
X0002000Y0077224D02*
X0004300D01*
X0002000Y0077824D02*
X0004300D01*
X0002000Y0078424D02*
X0004300D01*
X0002000Y0079024D02*
X0004300D01*
X0002000Y0079624D02*
X0004300D01*
X0002000Y0080224D02*
X0004300D01*
X0002000Y0080824D02*
X0004300D01*
X0002000Y0081424D02*
X0004300D01*
Y0075635D02*
Y0084035D01*
X0002000Y0082024D02*
X0004300D01*
X0002000Y0082624D02*
X0004300D01*
X0002000Y0083224D02*
X0004300D01*
X0002000Y0083824D02*
X0004300D01*
X0004794Y0084035D02*
Y0089135D01*
X0005394Y0084035D02*
Y0089135D01*
X0005994Y0084035D02*
Y0089135D01*
X0006594Y0084035D02*
Y0089135D01*
X0007194Y0084035D02*
Y0089135D01*
X0002000Y0071224D02*
X0009721D01*
X0002000Y0071824D02*
X0009721D01*
X0002000Y0072424D02*
X0009721D01*
X0002000Y0073024D02*
X0009721D01*
X0002000Y0073624D02*
X0009721D01*
X0002000Y0074224D02*
X0009721D01*
X0002000Y0074824D02*
X0009721D01*
X0007500Y0076035D02*
Y0079835D01*
X0002000Y0075424D02*
X0009721D01*
X0004300Y0075635D02*
X0009721D01*
X0004700Y0079835D02*
X0007500D01*
Y0083635D01*
X0007794Y0084035D02*
Y0089135D01*
X0004300Y0084035D02*
X0010700D01*
X0008394D02*
Y0089135D01*
X0010700Y0083533D02*
Y0084035D01*
X0010794Y0083591D02*
Y0086885D01*
X0010700Y0083824D02*
X0011279D01*
X0010512Y0087166D02*
X0014151Y0083528D01*
X0002000Y0089224D02*
X0004300D01*
X0002000Y0089824D02*
X0004300D01*
X0002000Y0090424D02*
X0004300D01*
X0002000Y0091024D02*
X0004300D01*
X0002000Y0091624D02*
X0004300D01*
X0008994Y0084035D02*
Y0089135D01*
X0009594Y0084035D02*
Y0089135D01*
X0002000Y0092224D02*
X0004300D01*
X0002000Y0092824D02*
X0004300D01*
X0002000Y0093424D02*
X0004300D01*
X0002000Y0094024D02*
X0004300D01*
X0002000Y0094624D02*
X0004300D01*
X0002000Y0095224D02*
X0004300D01*
X0002000Y0095824D02*
X0004300D01*
X0002000Y0096424D02*
X0004300D01*
Y0089135D02*
Y0097535D01*
X0007500Y0089535D02*
Y0093335D01*
X0002000Y0097024D02*
X0004300D01*
X0004700Y0093335D02*
X0007500D01*
Y0097135D01*
X0002000Y0085024D02*
X0012654D01*
X0002000Y0084424D02*
X0013254D01*
X0002000Y0086824D02*
X0010854D01*
X0002000Y0085624D02*
X0012054D01*
X0002000Y0086224D02*
X0011454D01*
X0010194Y0084035D02*
Y0087550D01*
X0002000Y0087424D02*
X0010285D01*
X0002000Y0088624D02*
X0009759D01*
X0002000Y0088024D02*
X0009934D01*
X0004300Y0089135D02*
X0009721D01*
X0002000Y0097624D02*
X0009721D01*
X0002000Y0098224D02*
X0009721D01*
X0002000Y0098824D02*
X0009721D01*
X0002000Y0099424D02*
X0009721D01*
X0002000Y0100024D02*
X0009721D01*
X0004300Y0097535D02*
X0009721D01*
X0002000Y0100624D02*
X0009721D01*
X0002000Y0101224D02*
X0009721D01*
X0048026Y0082649D02*
Y0083099D01*
X0048594Y0082649D02*
Y0083099D01*
X0011994Y0084007D02*
Y0085685D01*
X0013194Y0083941D02*
Y0084485D01*
X0012594Y0084031D02*
Y0085085D01*
X0049194Y0082649D02*
Y0083099D01*
X0049426Y0079874D02*
Y0082249D01*
X0049794Y0082649D02*
Y0083099D01*
X0050394Y0082649D02*
Y0083099D01*
X0050994Y0082649D02*
Y0083099D01*
X0011394Y0083866D02*
Y0086285D01*
X0024733Y0098730D02*
X0029163Y0094300D01*
X0029394D02*
Y0101000D01*
X0029163Y0094300D02*
X0044937D01*
X0029994D02*
Y0101000D01*
X0049426Y0083499D02*
Y0085874D01*
Y0088249D01*
X0030594Y0094300D02*
Y0101000D01*
X0049794Y0088649D02*
Y0089031D01*
X0050394Y0088649D02*
Y0089631D01*
X0049426Y0079874D02*
X0051998D01*
X0048026Y0082649D02*
X0052398D01*
X0049412Y0088649D02*
X0051154D01*
X0051594Y0082649D02*
Y0083099D01*
X0048026D02*
X0052398D01*
Y0077500D02*
Y0082649D01*
X0052794Y0077500D02*
Y0085099D01*
X0052194Y0082649D02*
Y0083099D01*
X0052398D02*
Y0085099D01*
X0053394Y0077500D02*
Y0085099D01*
X0050994Y0088649D02*
Y0090231D01*
X0049412Y0088649D02*
X0051154Y0090392D01*
Y0088649D02*
Y0090392D01*
X0049987Y0089224D02*
X0051154D01*
X0050587Y0089824D02*
X0051154D01*
Y0090392D02*
X0051411Y0090649D01*
X0052956Y0092193D01*
X0052194Y0090649D02*
Y0091431D01*
X0052794Y0090649D02*
Y0092031D01*
X0053394Y0090649D02*
Y0093006D01*
X0031194Y0094300D02*
Y0101000D01*
X0018942Y0100920D02*
X0020663Y0099200D01*
X0023600D01*
X0031794Y0094300D02*
Y0101000D01*
X0032394Y0094300D02*
Y0101000D01*
X0032994Y0094300D02*
Y0101000D01*
X0033594Y0094300D02*
Y0101000D01*
X0034194Y0094300D02*
Y0101000D01*
X0034794Y0094300D02*
Y0101000D01*
X0035394Y0094300D02*
Y0101000D01*
X0018942Y0101224D02*
X0028900D01*
X0035994Y0094300D02*
Y0101000D01*
X0028900D02*
X0038300D01*
X0036594Y0094300D02*
Y0101000D01*
X0037194Y0094300D02*
Y0101000D01*
X0037794Y0094300D02*
Y0101000D01*
X0041994Y0094300D02*
Y0101283D01*
X0041394Y0094300D02*
Y0101550D01*
X0026438Y0097024D02*
X0046726D01*
X0025838Y0097624D02*
X0046726D01*
X0025238Y0098224D02*
X0046726D01*
X0024630Y0098824D02*
X0046726D01*
X0020438Y0099424D02*
X0046726D01*
X0028838Y0094624D02*
X0045262D01*
X0044937Y0094300D02*
X0046726Y0096089D01*
X0028238Y0095224D02*
X0045862D01*
X0027638Y0095824D02*
X0046462D01*
X0027038Y0096424D02*
X0046726D01*
X0042594Y0094300D02*
Y0101109D01*
X0043194Y0094300D02*
Y0101018D01*
X0038300Y0101224D02*
X0042165D01*
X0019838Y0100024D02*
X0046726D01*
X0019238Y0100624D02*
X0046726D01*
X0043794Y0094300D02*
Y0101004D01*
X0044394Y0094300D02*
Y0101067D01*
X0044994Y0094356D02*
Y0101211D01*
X0045594Y0094956D02*
Y0101444D01*
X0045035Y0101224D02*
X0046726D01*
X0002000Y0103024D02*
X0004300D01*
X0002000Y0103624D02*
X0004300D01*
X0002000Y0104224D02*
X0004300D01*
X0002000Y0104824D02*
X0004300D01*
X0002000Y0105424D02*
X0004300D01*
X0004794Y0097535D02*
Y0102635D01*
X0005394Y0097535D02*
Y0102635D01*
X0005994Y0097535D02*
Y0102635D01*
X0006594Y0097535D02*
Y0102635D01*
X0007194Y0097535D02*
Y0102635D01*
X0002000Y0106024D02*
X0004300D01*
X0002000Y0106624D02*
X0004300D01*
X0002000Y0107224D02*
X0004300D01*
X0002000Y0107824D02*
X0004300D01*
X0002000Y0108424D02*
X0004300D01*
Y0102635D02*
Y0111035D01*
X0007500Y0103035D02*
Y0106835D01*
X0002000Y0109024D02*
X0004300D01*
X0002000Y0109624D02*
X0004300D01*
X0002000Y0110224D02*
X0004300D01*
X0007794Y0097535D02*
Y0102635D01*
X0008394Y0097535D02*
Y0102635D01*
X0002000Y0101824D02*
X0009721D01*
X0002000Y0102424D02*
X0009721D01*
X0004300Y0102635D02*
X0009721D01*
X0008994Y0097535D02*
Y0102635D01*
X0009594Y0097535D02*
Y0102635D01*
X0009721Y0097535D02*
Y0102635D01*
X0018942Y0101824D02*
X0028900D01*
X0018942Y0102424D02*
X0028900D01*
X0004700Y0106835D02*
X0007500D01*
Y0110635D01*
X0010700Y0110533D02*
Y0111035D01*
X0014550Y0110224D02*
X0015213D01*
X0018942Y0100920D02*
Y0103064D01*
Y0103024D02*
X0028900D01*
X0014994Y0110009D02*
Y0117900D01*
X0002000Y0110824D02*
X0004300D01*
Y0111035D02*
X0010700D01*
X0004794D02*
Y0117900D01*
X0005394Y0111035D02*
Y0117900D01*
X0005994Y0111035D02*
Y0117900D01*
X0006594Y0111035D02*
Y0117900D01*
X0010700Y0110824D02*
X0011278D01*
X0007194Y0111035D02*
Y0117900D01*
X0007794Y0111035D02*
Y0117900D01*
X0008394Y0111035D02*
Y0117900D01*
X0008994Y0111035D02*
Y0117900D01*
X0010794Y0110591D02*
Y0117900D01*
X0009594Y0111035D02*
Y0117900D01*
X0010194Y0111035D02*
Y0117900D01*
X0011394Y0110866D02*
Y0117900D01*
X0013794Y0110726D02*
Y0117900D01*
X0014394Y0110355D02*
Y0117900D01*
X0011994Y0111007D02*
Y0117900D01*
X0012594Y0111031D02*
Y0117900D01*
X0013194Y0110941D02*
Y0117900D01*
X0002000Y0111424D02*
X0028900D01*
X0002000Y0112024D02*
X0028900D01*
X0002000Y0112624D02*
X0028900D01*
X0002000Y0113224D02*
X0028900D01*
X0002000Y0113824D02*
X0028900D01*
X0013564Y0110824D02*
X0016200D01*
X0018485D02*
X0028900D01*
X0002000Y0114424D02*
X0028900D01*
X0002000Y0115024D02*
X0028900D01*
X0002000Y0115624D02*
X0028900D01*
X0015594Y0110515D02*
Y0117900D01*
X0002000Y0116224D02*
X0028900D01*
X0002000Y0116824D02*
X0028900D01*
X0002000Y0117424D02*
X0028900D01*
X0002000Y0117900D02*
X0028900D01*
X0016194Y0110822D02*
Y0117900D01*
X0018594Y0110781D02*
Y0117900D01*
X0016794Y0110988D02*
Y0117900D01*
X0017394Y0111035D02*
Y0117900D01*
X0017994Y0110968D02*
Y0117900D01*
X0019794Y0100069D02*
Y0103778D01*
X0020394Y0099469D02*
Y0104871D01*
X0019194Y0100669D02*
Y0103225D01*
X0019656Y0103624D02*
X0028900D01*
X0020107Y0104224D02*
X0028900D01*
X0020994Y0099200D02*
Y0117900D01*
X0021594Y0099200D02*
Y0117900D01*
X0022194Y0099200D02*
Y0117900D01*
X0022794Y0099200D02*
Y0117900D01*
X0023394Y0099200D02*
Y0117900D01*
X0025794Y0097669D02*
Y0117900D01*
X0026394Y0097069D02*
Y0117900D01*
X0023994Y0099151D02*
Y0117900D01*
X0024594Y0098854D02*
Y0117900D01*
X0025194Y0098269D02*
Y0117900D01*
X0028194Y0095269D02*
Y0117900D01*
X0028794Y0094669D02*
Y0117900D01*
X0026994Y0096469D02*
Y0117900D01*
X0027594Y0095869D02*
Y0117900D01*
X0028900Y0101000D02*
Y0117900D01*
X0039594Y0094300D02*
Y0103243D01*
X0038300Y0101824D02*
X0040941D01*
X0038300Y0103624D02*
X0039383D01*
X0038300Y0102424D02*
X0040229D01*
X0038300Y0103024D02*
X0039736D01*
X0040194Y0094300D02*
Y0102462D01*
X0040794Y0094300D02*
Y0101930D01*
X0046194Y0095556D02*
Y0101780D01*
X0046259Y0101824D02*
X0046726D01*
Y0096089D02*
Y0102190D01*
X0020379Y0104824D02*
X0028900D01*
X0038300Y0104224D02*
X0039138D01*
X0020516Y0105424D02*
X0028900D01*
X0038300Y0104824D02*
X0038982D01*
X0038300Y0105424D02*
X0038908D01*
X0038394Y0094300D02*
Y0117900D01*
X0038994Y0094300D02*
Y0104766D01*
X0038300Y0101000D02*
Y0117900D01*
X0043600Y0101400D02*
Y0109700D01*
X0020542Y0105835D02*
Y0107835D01*
Y0106024D02*
X0028900D01*
X0020542Y0106624D02*
X0028900D01*
X0020542Y0107224D02*
X0028900D01*
X0020542Y0107824D02*
X0028900D01*
X0038300Y0106024D02*
X0038900D01*
X0038300Y0106624D02*
X0038900D01*
X0020488Y0108424D02*
X0028900D01*
X0038300Y0107224D02*
X0038900D01*
X0038300Y0107824D02*
X0038900D01*
X0019794Y0109892D02*
Y0117900D01*
X0020313Y0109024D02*
X0028900D01*
X0019194Y0110446D02*
Y0117900D01*
X0019996Y0109624D02*
X0028900D01*
X0019471Y0110224D02*
X0028900D01*
X0038900Y0105700D02*
Y0113700D01*
X0038300Y0108424D02*
X0038900D01*
X0020394Y0108800D02*
Y0117900D01*
X0038300Y0109024D02*
X0038900D01*
X0038300Y0109624D02*
X0038900D01*
X0038300Y0110224D02*
X0038900D01*
X0038300Y0110824D02*
X0038900D01*
X0038300Y0111424D02*
X0038900D01*
X0038300Y0112024D02*
X0038900D01*
X0038300Y0112624D02*
X0038900D01*
X0038300Y0113224D02*
X0038900D01*
X0039300Y0109700D02*
X0043600D01*
X0038300Y0113824D02*
X0038902D01*
X0038300Y0114424D02*
X0038956D01*
X0038300Y0115024D02*
X0039090D01*
X0038300Y0115624D02*
X0039312D01*
X0038300Y0116224D02*
X0039636D01*
X0038300Y0116824D02*
X0040089D01*
X0038300Y0117424D02*
X0040733D01*
X0038300Y0117900D02*
X0041491D01*
X0038994Y0114634D02*
Y0117900D01*
X0039594Y0116157D02*
Y0117900D01*
X0040194Y0116938D02*
Y0117900D01*
X0040794Y0117470D02*
Y0117900D01*
X0052398Y0077824D02*
X0055607D01*
X0052398Y0077500D02*
X0055867D01*
X0052398Y0079024D02*
X0054972D01*
X0052398Y0078424D02*
X0055234D01*
X0052398Y0079624D02*
X0054802D01*
X0052398Y0080224D02*
X0054715D01*
X0055194Y0077500D02*
Y0078503D01*
X0052398Y0080824D02*
X0054705D01*
X0052398Y0081424D02*
X0054773D01*
X0052398Y0082024D02*
X0054921D01*
X0053994Y0077500D02*
Y0085099D01*
X0052398Y0082624D02*
X0055158D01*
X0052398Y0083224D02*
X0055501D01*
X0052398Y0083824D02*
X0055980D01*
X0052398Y0084424D02*
X0056668D01*
X0054594Y0077500D02*
Y0085099D01*
X0055194Y0082697D02*
Y0085099D01*
X0055794Y0083614D02*
Y0085099D01*
X0056394Y0084213D02*
Y0085099D01*
X0056994Y0084637D02*
Y0085099D01*
X0063299Y0083224D02*
X0078413D01*
X0052398Y0085099D02*
X0057098D01*
X0062819Y0083824D02*
X0077813D01*
X0062132Y0084424D02*
X0077245D01*
X0063879Y0082024D02*
X0064788D01*
X0064050Y0081286D02*
X0064867Y0082104D01*
X0063642Y0082624D02*
X0079013D01*
X0061726Y0084684D02*
Y0085099D01*
X0057098D02*
Y0090503D01*
X0052398Y0085024D02*
X0057814D01*
X0057154Y0085099D02*
X0058041D01*
X0063594Y0082722D02*
Y0085025D01*
X0064194Y0081430D02*
Y0085025D01*
X0061794Y0084645D02*
Y0085025D01*
X0062394Y0084223D02*
Y0085025D01*
X0062994Y0083629D02*
Y0085025D01*
X0054126Y0085499D02*
Y0087874D01*
X0051787Y0091024D02*
X0056350D01*
X0053345Y0092824D02*
X0055048D01*
X0052387Y0091624D02*
X0055762D01*
X0052986Y0092224D02*
X0055345D01*
X0054126Y0087874D02*
Y0090249D01*
Y0087874D02*
X0056698D01*
X0055194Y0090649D02*
Y0092503D01*
X0056394Y0090649D02*
Y0090987D01*
X0055794Y0090649D02*
Y0091586D01*
X0053426Y0094024D02*
X0054735D01*
X0053426Y0093424D02*
X0054849D01*
X0053426Y0094624D02*
X0054700D01*
X0053994Y0090649D02*
Y0095528D01*
X0054594Y0090649D02*
Y0095528D01*
X0053426Y0093326D02*
Y0095528D01*
Y0095224D02*
X0054742D01*
X0053426Y0095528D02*
X0054793D01*
X0057154Y0085099D02*
Y0090471D01*
X0061728Y0085025D02*
X0067672D01*
X0051411Y0090649D02*
X0056855D01*
X0061726Y0085024D02*
X0076985D01*
X0061945Y0090649D02*
X0063098D01*
X0062394D02*
Y0090977D01*
X0063098Y0090575D02*
X0065325D01*
X0062994Y0090649D02*
Y0091571D01*
X0062450Y0091024D02*
X0065325D01*
X0063038Y0091624D02*
X0065325D01*
X0063594Y0090575D02*
Y0092478D01*
X0055100Y0094600D02*
X0059400D01*
X0063455Y0092224D02*
X0065325D01*
X0059400Y0094600D02*
X0063700D01*
X0063752Y0092824D02*
X0065325D01*
X0063951Y0093424D02*
X0065325D01*
X0064065Y0094024D02*
X0065325D01*
X0064100Y0094624D02*
X0065325D01*
X0064058Y0095224D02*
X0065325D01*
X0064794Y0082030D02*
Y0085025D01*
X0065394Y0082455D02*
Y0085025D01*
X0065994Y0082574D02*
Y0085025D01*
X0066594Y0082574D02*
Y0085025D01*
X0067194Y0082574D02*
Y0085025D01*
X0067794Y0082574D02*
Y0085025D01*
X0068394Y0082574D02*
Y0085025D01*
X0068994Y0082574D02*
Y0085025D01*
X0069594Y0082574D02*
Y0085025D01*
X0070194Y0082574D02*
Y0085025D01*
X0070794Y0082574D02*
Y0085025D01*
X0071394Y0082574D02*
Y0085025D01*
X0071994Y0082574D02*
Y0085025D01*
X0072594Y0082574D02*
Y0085025D01*
X0073194Y0082574D02*
Y0085025D01*
X0073794Y0082574D02*
Y0091201D01*
X0074394Y0082574D02*
Y0091276D01*
X0074994Y0082574D02*
Y0091473D01*
X0076194Y0082574D02*
Y0085825D01*
X0075594Y0082574D02*
Y0091820D01*
X0078795Y0082104D02*
X0079632Y0081268D01*
X0066000Y0082574D02*
X0077663D01*
X0078875Y0082024D02*
X0079613D01*
X0101258Y0078372D02*
X0102575D01*
X0101248Y0078428D02*
X0102575D01*
X0079194Y0081706D02*
Y0082444D01*
X0099800Y0081400D02*
X0102175D01*
X0076794Y0082574D02*
Y0085825D01*
X0077422Y0084215D02*
X0079735Y0081902D01*
X0077394Y0082574D02*
Y0084244D01*
X0078594Y0082275D02*
Y0083044D01*
X0099800Y0081400D02*
Y0083972D01*
X0077994Y0082539D02*
Y0083644D01*
X0100184Y0084372D02*
X0100916D01*
X0100244Y0084424D02*
X0100856D01*
X0067672Y0085025D02*
Y0089728D01*
X0067728Y0085025D02*
X0073672D01*
X0067728D02*
Y0089728D01*
X0073672Y0086224D02*
X0075777D01*
X0073672Y0086824D02*
X0075777D01*
X0073672Y0087424D02*
X0075777D01*
X0073672Y0088024D02*
X0075777D01*
X0073672Y0088624D02*
X0075777D01*
X0073672Y0089224D02*
X0075777D01*
X0073672Y0089824D02*
X0075777D01*
X0072300Y0090575D02*
Y0091128D01*
Y0090575D02*
X0073672D01*
X0072300Y0091024D02*
X0075777D01*
X0073672Y0085025D02*
Y0090575D01*
X0075777Y0085825D02*
Y0091375D01*
X0072594Y0090575D02*
Y0091214D01*
X0073672Y0090424D02*
X0075777D01*
X0073194Y0090575D02*
Y0091240D01*
X0076952Y0085348D02*
Y0085825D01*
X0073672Y0085624D02*
X0076952D01*
X0075777Y0085825D02*
X0076952D01*
X0075777Y0091375D02*
X0079100D01*
X0075292Y0091624D02*
X0079100D01*
X0077994Y0091375D02*
Y0092225D01*
X0078594Y0091375D02*
Y0092225D01*
X0079100Y0091375D02*
Y0092225D01*
X0076194Y0091375D02*
Y0092395D01*
X0076485Y0092824D02*
X0077728D01*
X0076047Y0092224D02*
X0079100D01*
X0076748Y0093424D02*
X0077728D01*
X0076794Y0091375D02*
Y0093582D01*
X0077728Y0092225D02*
X0079100D01*
X0076878Y0094024D02*
X0077728D01*
X0076892Y0094624D02*
X0077728D01*
X0076792Y0095224D02*
X0077728D01*
X0054800Y0095928D02*
Y0098500D01*
X0057175D01*
X0057575Y0099424D02*
X0058164D01*
X0064194Y0090575D02*
Y0100062D01*
X0062394Y0098223D02*
Y0098850D01*
X0062994Y0097629D02*
Y0099376D01*
X0063440Y0100024D02*
X0064316D01*
X0054800Y0098500D02*
Y0101072D01*
X0053426Y0101472D02*
X0057400D01*
X0053426Y0101528D02*
X0057400D01*
X0063594Y0096722D02*
Y0100332D01*
X0057575Y0098931D02*
Y0100457D01*
X0057594Y0098939D02*
Y0100404D01*
X0063938Y0095824D02*
X0065325D01*
X0063731Y0096424D02*
X0065325D01*
X0063426Y0097024D02*
X0065325D01*
X0062998Y0097624D02*
X0065325D01*
X0062392Y0098224D02*
X0065325D01*
Y0090575D02*
Y0095672D01*
X0070763D01*
X0068100Y0096128D02*
Y0098700D01*
X0065325Y0095728D02*
X0070789D01*
X0070875Y0096424D02*
X0071222D01*
X0064794Y0090575D02*
Y0099926D01*
X0065325Y0095728D02*
Y0099902D01*
X0062355Y0098824D02*
X0065325D01*
X0063036Y0099424D02*
X0065325D01*
X0065725Y0098700D02*
X0068100D01*
X0070475D01*
X0068100D02*
Y0101272D01*
X0068321Y0101672D02*
X0070875D01*
X0057575Y0102543D02*
Y0104269D01*
X0057594Y0102596D02*
Y0104261D01*
X0057575Y0103624D02*
X0058207D01*
X0058194Y0103609D02*
Y0104058D01*
X0064093Y0108856D02*
X0065167Y0109930D01*
X0063987Y0109624D02*
X0064862D01*
X0063810Y0110224D02*
X0065571D01*
X0064194Y0108956D02*
Y0112100D01*
X0062994Y0111629D02*
Y0112100D01*
X0063594Y0110722D02*
Y0112100D01*
X0064794Y0109556D02*
Y0112100D01*
X0065394Y0110118D02*
Y0112100D01*
X0065994Y0110370D02*
Y0112100D01*
X0066594Y0110400D02*
Y0112100D01*
X0067194Y0110400D02*
Y0112100D01*
X0068994Y0101672D02*
Y0102231D01*
X0066300Y0110400D02*
X0070429D01*
X0068566Y0101824D02*
X0072453D01*
X0063540Y0110824D02*
X0070722D01*
X0069594Y0101672D02*
Y0102400D01*
X0070194Y0101672D02*
Y0102400D01*
X0068733Y0101970D02*
X0069163Y0102400D01*
X0070794Y0101672D02*
Y0102400D01*
X0069163D02*
X0072029D01*
X0067794Y0110400D02*
Y0112100D01*
X0068394Y0110400D02*
Y0112100D01*
X0063157Y0111424D02*
X0071369D01*
X0062619Y0112024D02*
X0080728D01*
X0062537Y0112100D02*
X0080728D01*
X0068994Y0110400D02*
Y0112100D01*
X0069594Y0110400D02*
Y0112100D01*
X0070194Y0110400D02*
Y0112100D01*
X0070794Y0110909D02*
Y0112100D01*
X0070875Y0097024D02*
X0071869D01*
X0073794Y0097599D02*
Y0100962D01*
X0074394Y0097524D02*
Y0100826D01*
X0074994Y0097327D02*
Y0100806D01*
X0077728Y0092225D02*
Y0097225D01*
X0076565Y0095824D02*
X0077728D01*
X0076178Y0096424D02*
X0077728D01*
X0075531Y0097024D02*
X0077728D01*
Y0097225D02*
Y0097775D01*
X0070875Y0095903D02*
Y0101672D01*
X0071394Y0096618D02*
Y0102400D01*
X0071994Y0097107D02*
Y0102400D01*
X0070875Y0101224D02*
X0073207D01*
X0072594Y0097403D02*
Y0101682D01*
X0076794Y0095218D02*
Y0101497D01*
X0077394Y0091375D02*
Y0102126D01*
X0073194Y0097560D02*
Y0101232D01*
X0075594Y0096980D02*
Y0100900D01*
X0076194Y0096405D02*
Y0101119D01*
X0070875Y0097624D02*
X0077728D01*
X0070875Y0098224D02*
X0077728D01*
X0070875Y0098824D02*
X0077728D01*
X0070875Y0099424D02*
X0077728D01*
X0070875Y0100024D02*
X0077728D01*
Y0097225D02*
Y0097775D01*
X0078128Y0100000D02*
X0080700D01*
X0070875Y0100624D02*
X0077728D01*
X0076393Y0101224D02*
X0077728D01*
X0077147Y0101824D02*
X0077728D01*
Y0097775D02*
Y0102225D01*
Y0102710D01*
Y0102225D02*
Y0102710D01*
X0099597Y0104628D02*
X0101230Y0102996D01*
X0100794Y0103432D02*
Y0104628D01*
X0101428Y0102755D02*
Y0104628D01*
X0101394Y0102804D02*
Y0104628D01*
X0075985Y0107224D02*
X0077728D01*
X0071394Y0111441D02*
Y0112100D01*
X0071994Y0111764D02*
Y0112100D01*
X0074394Y0111769D02*
Y0112100D01*
X0077728Y0105290D02*
Y0107775D01*
X0077278Y0106024D02*
X0077728D01*
X0076631Y0106624D02*
X0077728D01*
X0076194Y0106881D02*
Y0107669D01*
X0076794Y0106503D02*
Y0112100D01*
X0077394Y0105874D02*
Y0112100D01*
X0074994Y0111450D02*
Y0112100D01*
X0075594Y0110924D02*
Y0112100D01*
X0076194Y0109931D02*
Y0112100D01*
X0077994Y0107775D02*
Y0112100D01*
X0078594Y0107775D02*
Y0112100D01*
X0079194Y0107775D02*
Y0112100D01*
X0079794Y0107775D02*
Y0112100D01*
X0080394Y0107775D02*
Y0112100D01*
X0078128Y0105000D02*
X0080700D01*
Y0107375D01*
X0077728Y0107775D02*
X0082100D01*
X0099500Y0105028D02*
Y0107600D01*
X0080728Y0108025D02*
X0082100D01*
X0100194Y0104032D02*
Y0104628D01*
X0100601Y0103624D02*
X0101428D01*
X0100001Y0104224D02*
X0101428D01*
X0099597Y0104628D02*
X0101428D01*
X0099500Y0107600D02*
X0101875D01*
X0076378Y0108424D02*
X0080728D01*
X0076292Y0109624D02*
X0080728D01*
X0076065Y0110224D02*
X0080728D01*
X0075678Y0110824D02*
X0080728D01*
X0075031Y0111424D02*
X0080728D01*
Y0108025D02*
Y0112100D01*
X0099500Y0107600D02*
Y0110172D01*
X0076392Y0109024D02*
X0080728D01*
X0097800Y0110572D02*
X0102275D01*
X0097800Y0110628D02*
X0102275D01*
X0101994Y0012715D02*
Y0013825D01*
X0104394Y0012765D02*
Y0013825D01*
X0102594Y0012905D02*
Y0013825D01*
X0103194Y0012973D02*
Y0013825D01*
X0103794Y0012928D02*
Y0013825D01*
X0108176Y0008774D02*
X0110976D01*
X0111376Y0006174D02*
Y0010861D01*
X0104976Y0012472D02*
Y0012974D01*
X0108176Y0008774D02*
Y0012574D01*
X0104976Y0012974D02*
X0109263D01*
X0104994D02*
Y0013825D01*
X0105594Y0012974D02*
Y0013825D01*
X0106194Y0012974D02*
Y0013825D01*
X0106794Y0012974D02*
Y0013825D01*
X0107394Y0012974D02*
Y0013825D01*
X0107994Y0012974D02*
Y0014244D01*
X0107572Y0014666D02*
X0109263Y0012974D01*
X0107572Y0013825D02*
Y0014666D01*
X0108594Y0012974D02*
Y0013644D01*
X0107572Y0014224D02*
X0108013D01*
X0111376Y0006174D02*
X0112200D01*
X0111376Y0006424D02*
X0112200D01*
X0111376Y0007024D02*
X0112200D01*
X0111376Y0007624D02*
X0112200D01*
X0111376Y0008224D02*
X0112200D01*
Y0006174D02*
Y0010037D01*
X0112194Y0006174D02*
Y0010044D01*
X0111376Y0008824D02*
X0112200D01*
X0111376Y0009424D02*
X0112200D01*
X0111376Y0010024D02*
X0112200D01*
X0111594Y0006174D02*
Y0010644D01*
X0111376Y0010861D02*
X0112200Y0010037D01*
X0113394Y0040527D02*
Y0040834D01*
X0113285Y0040624D02*
X0115279D01*
X0113548Y0041224D02*
X0115213D01*
X0113678Y0041824D02*
X0115360D01*
X0113692Y0042424D02*
X0115338D01*
X0103794Y0043800D02*
Y0045578D01*
X0104394Y0043800D02*
Y0045535D01*
X0104994Y0043800D02*
Y0045535D01*
X0105594Y0043800D02*
Y0045535D01*
X0106194Y0043800D02*
Y0045535D01*
X0106794Y0043800D02*
Y0045535D01*
X0107394Y0043800D02*
Y0045535D01*
X0107994Y0044190D02*
Y0045535D01*
X0108594Y0044770D02*
Y0045535D01*
X0109194Y0045121D02*
Y0045535D01*
X0101994Y0043800D02*
Y0047044D01*
X0102594Y0043800D02*
Y0046444D01*
X0103194Y0043800D02*
Y0045864D01*
X0103191Y0050372D02*
X0104828Y0048735D01*
X0108594D02*
Y0050493D01*
X0103278Y0050824D02*
X0108411D01*
X0109194Y0048735D02*
Y0049791D01*
X0103338Y0050224D02*
X0108783D01*
X0112194Y0044915D02*
Y0045535D01*
X0112331Y0044824D02*
X0115224D01*
X0111594Y0045207D02*
Y0045535D01*
X0104165D02*
X0113935D01*
X0104828Y0048735D02*
X0113272D01*
X0113592Y0043024D02*
X0115210D01*
X0113365Y0043624D02*
X0115295D01*
X0112794Y0044431D02*
Y0045535D01*
X0112978Y0044224D02*
X0115417D01*
X0113394Y0043566D02*
Y0045535D01*
X0109794Y0048735D02*
Y0049377D01*
X0110394Y0048735D02*
Y0049131D01*
X0103938Y0049624D02*
X0109401D01*
X0104538Y0049024D02*
X0110906D01*
X0111695D02*
X0113562D01*
X0112194Y0048735D02*
Y0049127D01*
X0112794Y0048735D02*
Y0049370D01*
X0113394Y0048856D02*
Y0049780D01*
X0113199Y0049624D02*
X0114162D01*
X0113272Y0048735D02*
X0114655Y0050118D01*
X0117300Y0023563D02*
X0118625Y0022238D01*
X0117300Y0023824D02*
X0118625D01*
X0117300Y0024424D02*
X0118625D01*
X0117300Y0025024D02*
X0118625D01*
Y0022238D02*
Y0025872D01*
X0118238Y0022624D02*
X0118625D01*
X0117300Y0023563D02*
Y0026900D01*
X0117638Y0023224D02*
X0118625D01*
X0117300Y0025624D02*
X0118625D01*
X0117594Y0023269D02*
Y0029520D01*
X0118194Y0022669D02*
Y0029520D01*
X0116800Y0028063D02*
Y0029528D01*
X0116994Y0027842D02*
Y0029520D01*
X0118794Y0025872D02*
Y0029520D01*
X0119394Y0025872D02*
Y0029520D01*
X0119994Y0025872D02*
Y0029520D01*
X0120594Y0025872D02*
Y0029520D01*
X0121194Y0025872D02*
Y0029520D01*
X0118625Y0025872D02*
X0122600D01*
X0117300Y0026224D02*
X0122600D01*
X0117300Y0026824D02*
X0122600D01*
X0117212Y0027424D02*
X0122602D01*
X0116838Y0028024D02*
X0122749D01*
X0119025Y0022900D02*
X0121400D01*
Y0025472D01*
X0122600Y0025872D02*
Y0027349D01*
X0121794Y0025872D02*
Y0029572D01*
X0116800Y0028624D02*
X0123200D01*
X0116961Y0029520D02*
X0121370D01*
X0116800Y0029224D02*
X0123200D01*
X0122394Y0025872D02*
Y0029851D01*
X0122994Y0028400D02*
Y0030615D01*
X0122356Y0029824D02*
X0123200D01*
Y0028612D02*
Y0032337D01*
X0114594Y0039605D02*
Y0045677D01*
X0114729Y0039424D02*
X0115232D01*
X0113994Y0040180D02*
Y0045536D01*
X0114189Y0040024D02*
X0115446D01*
X0115194Y0038418D02*
Y0046131D01*
X0113994Y0049456D02*
Y0050472D01*
X0113817Y0050224D02*
X0114772D01*
X0114189Y0050824D02*
X0115214D01*
X0115087Y0046024D02*
X0115505D01*
X0115067Y0046005D02*
X0115364Y0046301D01*
X0122994Y0031928D02*
Y0032544D01*
X0122839Y0032224D02*
X0123200D01*
X0122982Y0032555D02*
X0123200Y0032337D01*
X0124313Y0048150D02*
X0125425Y0047038D01*
X0128000Y0036663D02*
Y0037425D01*
X0124638Y0047824D02*
X0125425D01*
Y0047038D02*
Y0048372D01*
X0123002Y0049624D02*
X0125425D01*
X0115609Y0050957D02*
X0119165D01*
X0122961Y0050224D02*
X0125425D01*
X0119165Y0050957D02*
X0122721D01*
X0123121Y0049024D02*
X0125425D01*
X0122994Y0049644D02*
Y0050300D01*
X0123116Y0050824D02*
X0125425D01*
X0102965Y0052624D02*
X0107413D01*
X0101692Y0055024D02*
X0105013D01*
X0102578Y0053224D02*
X0106813D01*
X0101931Y0053824D02*
X0106213D01*
X0104994Y0048735D02*
Y0055044D01*
X0105594Y0048735D02*
Y0054444D01*
X0106194Y0048735D02*
Y0053844D01*
X0107394Y0048735D02*
Y0052644D01*
X0106794Y0048735D02*
Y0053244D01*
X0102594Y0053205D02*
Y0055795D01*
X0103194Y0052018D02*
Y0056844D01*
X0101994Y0053780D02*
Y0055220D01*
X0102447Y0055624D02*
X0104413D01*
X0102885Y0056224D02*
X0103813D01*
X0103794Y0049769D02*
Y0056244D01*
X0104394Y0049169D02*
Y0055644D01*
X0106794Y0057769D02*
Y0058279D01*
X0107394Y0057169D02*
Y0058079D01*
X0106538Y0058024D02*
X0107705D01*
X0103163Y0056874D02*
X0108112Y0051925D01*
X0103292Y0051424D02*
X0108195D01*
X0103192Y0052024D02*
X0108013D01*
X0107738Y0056824D02*
X0112000D01*
X0107138Y0057424D02*
X0112000D01*
X0107994Y0048735D02*
Y0052044D01*
X0108338Y0056224D02*
X0112107D01*
X0108938Y0055624D02*
X0112513D01*
X0108594Y0055969D02*
Y0058038D01*
X0104900Y0059663D02*
X0109632Y0054931D01*
X0107994Y0056569D02*
Y0058002D01*
X0108494Y0058024D02*
X0112000D01*
X0109794Y0055023D02*
Y0058485D01*
X0110394Y0055269D02*
Y0058969D01*
X0109194Y0055369D02*
Y0058193D01*
X0109999Y0058624D02*
X0112000D01*
X0110994Y0055385D02*
Y0059834D01*
X0103938Y0062824D02*
X0105343D01*
X0103194Y0063569D02*
Y0064572D01*
X0103338Y0063424D02*
X0105800D01*
X0103794Y0062969D02*
Y0064530D01*
X0104994Y0059569D02*
Y0060432D01*
X0104900Y0059824D02*
X0105211D01*
X0104900Y0059663D02*
Y0061200D01*
X0104529Y0062224D02*
X0105068D01*
X0102594Y0064169D02*
Y0064799D01*
X0102164Y0064599D02*
X0104430Y0062333D01*
X0102240Y0064624D02*
X0103019D01*
X0104394Y0062369D02*
Y0064703D01*
X0104994Y0061968D02*
Y0064622D01*
X0104209Y0064624D02*
X0104988D01*
X0105594Y0063190D02*
Y0064520D01*
X0106194Y0063770D02*
Y0064630D01*
X0102738Y0064024D02*
X0106516D01*
X0110400Y0063424D02*
X0112008D01*
X0110394Y0063431D02*
Y0063831D01*
X0110617Y0059224D02*
X0112000D01*
X0110989Y0059824D02*
X0112000D01*
X0111205Y0060424D02*
X0112000D01*
X0111295Y0061024D02*
X0112000D01*
X0110857Y0062824D02*
X0112000D01*
X0110188Y0063625D02*
X0110650Y0064087D01*
X0106177Y0064624D02*
X0106729D01*
X0110994Y0062566D02*
Y0064520D01*
X0110587Y0064024D02*
X0112190D01*
X0110959Y0064520D02*
X0112590D01*
X0114594Y0050056D02*
Y0053579D01*
X0114405Y0051424D02*
X0115273D01*
X0114495Y0052024D02*
X0115459D01*
X0114472Y0052624D02*
X0115235D01*
X0114332Y0053224D02*
X0115235D01*
X0115194Y0050474D02*
Y0053325D01*
X0122994Y0051613D02*
Y0052269D01*
X0111594Y0055387D02*
Y0064520D01*
X0112194Y0055273D02*
Y0056037D01*
X0112000Y0056800D02*
Y0063268D01*
X0112794Y0055030D02*
Y0055344D01*
X0112804Y0055024D02*
X0113113D01*
X0112470Y0055667D02*
X0114374Y0053764D01*
X0123058Y0051424D02*
X0125425D01*
X0122872Y0052024D02*
X0125425D01*
X0123095Y0052624D02*
X0125425D01*
X0123096Y0053224D02*
X0125425D01*
X0123594Y0048565D02*
Y0053645D01*
X0123787Y0053824D02*
X0125425D01*
X0124194Y0048258D02*
Y0054231D01*
X0123726Y0053764D02*
X0124728Y0054766D01*
X0124387Y0054424D02*
X0124728D01*
X0123082Y0060431D02*
X0123868D01*
X0124794Y0047669D02*
Y0054125D01*
X0125394Y0047069D02*
Y0054125D01*
X0124728D02*
Y0054766D01*
X0125425Y0048428D02*
Y0054125D01*
X0124728D02*
X0125425D01*
X0111272Y0061624D02*
X0112000D01*
X0111132Y0062224D02*
X0112000D01*
X0112194Y0064031D02*
Y0064520D01*
X0117408Y0062550D02*
X0121370D01*
X0118194D02*
Y0063336D01*
X0118794Y0062550D02*
Y0063936D01*
X0119394Y0062550D02*
Y0064536D01*
X0112590Y0064520D02*
X0113239Y0065170D01*
X0117408Y0062550D02*
X0121057Y0066200D01*
X0113239Y0065170D02*
Y0072432D01*
Y0065170D02*
X0115717Y0067647D01*
X0113394Y0065324D02*
Y0072859D01*
X0119994Y0062550D02*
Y0065136D01*
X0122394Y0062220D02*
Y0066200D01*
X0120594Y0062550D02*
Y0065736D01*
X0121194Y0062550D02*
Y0066200D01*
X0121794Y0062498D02*
Y0066200D01*
X0123107Y0061024D02*
X0124462D01*
X0122915Y0061624D02*
X0125062D01*
X0122388Y0062224D02*
X0125662D01*
X0117682Y0062824D02*
X0126262D01*
X0118282Y0063424D02*
X0128004D01*
X0124194Y0060756D02*
Y0065025D01*
X0123868Y0060431D02*
X0126267Y0062830D01*
X0127400Y0063300D02*
X0127929D01*
X0123594Y0060431D02*
Y0066200D01*
X0124794Y0061356D02*
Y0065025D01*
X0122994Y0061455D02*
Y0066200D01*
X0120082Y0065224D02*
X0124028D01*
Y0065025D02*
Y0066200D01*
X0125394Y0061956D02*
Y0065025D01*
X0125994Y0062556D02*
Y0065025D01*
X0126594Y0063082D02*
Y0065025D01*
X0127194Y0063287D02*
Y0065025D01*
X0127794Y0063300D02*
Y0065025D01*
X0139690Y0015530D02*
X0141988Y0013233D01*
X0133363Y0016400D02*
X0133763Y0016000D01*
X0139194Y0015868D02*
Y0016400D01*
X0145794Y0002000D02*
Y0002549D01*
X0142651Y0012424D02*
X0143986D01*
X0141594Y0013627D02*
Y0016400D01*
X0142194Y0012980D02*
Y0016400D01*
X0139794Y0015427D02*
Y0016400D01*
X0140394Y0014827D02*
Y0016400D01*
X0140994Y0014227D02*
Y0016400D01*
X0142794Y0012322D02*
Y0016400D01*
X0143394Y0011907D02*
Y0016400D01*
X0143994Y0012430D02*
Y0016400D01*
X0144594Y0012746D02*
Y0016400D01*
X0145194Y0012920D02*
Y0016400D01*
X0145244Y0002000D02*
X0147688Y0004444D01*
X0145244Y0002000D02*
X0156240D01*
X0145469Y0002224D02*
X0156240D01*
X0146069Y0002824D02*
X0156240D01*
X0146394Y0002000D02*
Y0003149D01*
X0146994Y0002000D02*
Y0003749D01*
X0147594Y0002000D02*
Y0004349D01*
X0146669Y0003424D02*
X0156240D01*
X0147269Y0004024D02*
X0156240D01*
X0142164Y0013024D02*
X0156240D01*
X0141596Y0013624D02*
X0156240D01*
X0140996Y0014224D02*
X0156240D01*
X0140396Y0014824D02*
X0156240D01*
X0139796Y0015424D02*
X0156240D01*
X0146994Y0012734D02*
Y0016400D01*
X0147500Y0012472D02*
Y0012974D01*
X0145794Y0012974D02*
Y0016400D01*
X0147500Y0012974D02*
X0153900D01*
X0146394Y0012914D02*
Y0016400D01*
X0133794Y0016000D02*
Y0016400D01*
X0134394Y0016000D02*
Y0016400D01*
X0134994Y0016000D02*
Y0016400D01*
X0135594Y0016000D02*
Y0016400D01*
X0136194Y0016000D02*
Y0016400D01*
X0136794Y0016000D02*
Y0016400D01*
X0137394Y0016000D02*
Y0016400D01*
Y0026123D02*
Y0026425D01*
X0137994Y0016000D02*
Y0016400D01*
X0136493Y0026425D02*
X0137472D01*
X0134014Y0034024D02*
X0137747D01*
X0133593Y0034624D02*
X0137661D01*
X0132879Y0035224D02*
X0137658D01*
X0137472Y0026425D02*
Y0031975D01*
X0137528Y0026425D02*
Y0031975D01*
X0134357D02*
X0137472D01*
X0134394D02*
Y0032298D01*
X0133763Y0016000D02*
X0138558D01*
X0133738Y0016024D02*
X0156240D01*
X0133363Y0016400D02*
X0153200D01*
X0137175Y0026224D02*
X0139258D01*
X0138594Y0016000D02*
Y0016400D01*
X0137994Y0025725D02*
Y0026425D01*
X0138108Y0025624D02*
X0138686D01*
X0138594Y0025536D02*
Y0026425D01*
X0137528D02*
X0139258D01*
X0137528Y0031975D02*
X0139307D01*
X0134264Y0033424D02*
X0137956D01*
X0134388Y0032224D02*
X0138924D01*
X0134383Y0032824D02*
X0138320D01*
X0139194Y0026007D02*
Y0026425D01*
X0139258Y0026045D02*
Y0026425D01*
X0137994Y0031975D02*
Y0033347D01*
X0138594Y0031975D02*
Y0032513D01*
X0148194Y0002000D02*
Y0004574D01*
X0148794Y0002000D02*
Y0004574D01*
X0149394Y0002000D02*
Y0004574D01*
X0149994Y0002000D02*
Y0004574D01*
X0150594Y0002000D02*
Y0004574D01*
X0151194Y0002000D02*
Y0004574D01*
X0151794Y0002000D02*
Y0004574D01*
X0152394Y0002000D02*
Y0004574D01*
X0152994Y0002000D02*
Y0004574D01*
X0153594Y0002000D02*
Y0004574D01*
X0147594Y0012974D02*
Y0016400D01*
X0148194Y0012974D02*
Y0016400D01*
X0148794Y0012974D02*
Y0016400D01*
X0149394Y0012974D02*
Y0016400D01*
X0149994Y0012974D02*
Y0016400D01*
X0150700Y0004974D02*
Y0008774D01*
Y0012574D01*
X0150594Y0012974D02*
Y0016400D01*
X0151194Y0012974D02*
Y0016400D01*
X0151794Y0012974D02*
Y0016400D01*
X0147810Y0004574D02*
X0153900D01*
Y0004624D02*
X0156240D01*
X0150700Y0008774D02*
X0153500D01*
X0153900Y0005224D02*
X0156240D01*
X0153900Y0005824D02*
X0156240D01*
X0153900Y0006424D02*
X0156240D01*
X0153900Y0007024D02*
X0156240D01*
X0153900Y0007624D02*
X0156240D01*
X0153900Y0008224D02*
X0156240D01*
X0153900Y0008824D02*
X0156240D01*
X0153900Y0009424D02*
X0156240D01*
X0153900Y0010024D02*
X0156240D01*
X0153900Y0010624D02*
X0156240D01*
X0153900Y0011224D02*
X0156240D01*
X0153900Y0011824D02*
X0156240D01*
X0154194Y0002000D02*
Y0016746D01*
X0154794Y0002000D02*
Y0017331D01*
X0153900Y0004574D02*
Y0012974D01*
Y0012424D02*
X0156240D01*
X0155394Y0002000D02*
Y0018126D01*
X0152394Y0012974D02*
Y0016400D01*
X0152994Y0012974D02*
Y0016400D01*
X0153594Y0012974D02*
Y0016449D01*
X0154333Y0016870D02*
X0155030Y0017567D01*
X0154017Y0016624D02*
X0156240D01*
X0154687Y0017224D02*
X0156240D01*
X0155239Y0017824D02*
X0156240D01*
X0155476Y0018424D02*
X0156240D01*
X0155500Y0019024D02*
X0156240D01*
X0155500Y0019624D02*
X0156240D01*
X0155500Y0020224D02*
X0156240D01*
X0155500Y0020824D02*
X0156240D01*
X0155500Y0021424D02*
X0156240D01*
X0155500Y0022024D02*
X0156240D01*
X0155500Y0022624D02*
X0156240D01*
X0155500Y0023224D02*
X0156240D01*
X0155500Y0023824D02*
X0156240D01*
X0155500Y0024424D02*
X0156240D01*
X0155500Y0025024D02*
X0156240D01*
X0155500Y0025624D02*
X0156240D01*
X0155500Y0026224D02*
X0156240D01*
X0155500Y0026824D02*
X0156240D01*
X0155500Y0027424D02*
X0156240D01*
X0155500Y0028024D02*
X0156240D01*
X0155500Y0028624D02*
X0156240D01*
X0155500Y0029224D02*
X0156240D01*
X0155500Y0029824D02*
X0156240D01*
X0155500Y0030424D02*
X0156240D01*
X0155500Y0031024D02*
X0156240D01*
X0155500Y0031624D02*
X0156240D01*
X0155500Y0032224D02*
X0156240D01*
X0155500Y0032824D02*
X0156240D01*
X0155500Y0033424D02*
X0156240D01*
X0155500Y0034024D02*
X0156240D01*
X0155500Y0034624D02*
X0156240D01*
X0155500Y0035224D02*
X0156240D01*
X0129594Y0035268D02*
Y0037425D01*
X0128394Y0036269D02*
Y0037425D01*
X0128000Y0036663D02*
X0129130Y0035533D01*
X0128994Y0035669D02*
Y0037425D01*
X0130194Y0035538D02*
Y0037425D01*
X0132594Y0035381D02*
Y0037425D01*
X0130794Y0035674D02*
Y0037425D01*
X0131394Y0035694D02*
Y0037425D01*
X0131994Y0035600D02*
Y0037425D01*
X0128000D02*
X0132372D01*
X0133194Y0035003D02*
Y0037425D01*
X0125425Y0048372D02*
X0130425D01*
X0132372Y0037425D02*
Y0042428D01*
X0132428Y0037425D02*
Y0042428D01*
X0134994Y0031975D02*
Y0037425D01*
X0135594Y0031975D02*
Y0037425D01*
X0133200Y0045400D02*
Y0047972D01*
X0133794Y0034374D02*
Y0037425D01*
X0134394Y0032702D02*
Y0037425D01*
X0128838Y0035824D02*
X0137658D01*
X0128238Y0036424D02*
X0137658D01*
X0132828Y0040200D02*
X0135400D01*
X0128000Y0037024D02*
X0137667D01*
X0132428Y0037425D02*
X0137725D01*
X0135400Y0037825D02*
Y0040200D01*
X0137972D01*
X0135400D02*
Y0042575D01*
X0135975Y0042975D02*
X0138372D01*
X0135975Y0043024D02*
X0139213D01*
X0135975Y0044224D02*
X0138013D01*
X0135975Y0043624D02*
X0138613D01*
X0133200Y0045400D02*
X0135575D01*
X0135975Y0044824D02*
X0137413D01*
X0123946Y0048424D02*
X0136000D01*
X0135975Y0042975D02*
Y0048372D01*
Y0045424D02*
X0136813D01*
X0136000Y0046900D02*
Y0051600D01*
X0125425Y0048428D02*
X0130425D01*
Y0048372D02*
X0130975D01*
X0118882Y0064024D02*
X0128501D01*
X0119482Y0064624D02*
X0129401D01*
X0128394Y0063918D02*
Y0065025D01*
X0130425Y0048372D02*
X0130975D01*
X0130425Y0048428D02*
X0130975D01*
X0130425D02*
X0130975D01*
X0133700Y0056900D02*
Y0059275D01*
X0133794Y0059675D02*
Y0060882D01*
X0128994Y0064407D02*
Y0065025D01*
X0129594Y0064703D02*
Y0065025D01*
X0124028D02*
X0129972D01*
Y0069800D01*
X0130028Y0065025D02*
Y0069800D01*
X0133194Y0063705D02*
Y0065025D01*
X0133794Y0062518D02*
Y0065025D01*
X0131994Y0064627D02*
Y0065025D01*
X0132594Y0064280D02*
Y0065025D01*
X0133000Y0065425D02*
Y0067800D01*
X0130975Y0048372D02*
X0135975D01*
X0130975Y0048428D02*
X0135975D01*
X0133178Y0059675D02*
X0134405D01*
X0133293Y0059824D02*
X0134400D01*
X0133635Y0060424D02*
X0134400D01*
X0135975Y0052624D02*
X0136371D01*
X0133828Y0061024D02*
X0134400D01*
X0133396Y0063424D02*
X0134400D01*
X0132899Y0064024D02*
X0134400D01*
X0131999Y0064624D02*
X0134400D01*
X0130028Y0065025D02*
X0134400D01*
Y0059800D02*
Y0065025D01*
X0134394Y0059675D02*
Y0065025D01*
X0133899Y0061624D02*
X0134400D01*
X0133857Y0062224D02*
X0134400D01*
X0133696Y0062824D02*
X0134400D01*
X0136194Y0031975D02*
Y0037425D01*
X0136794Y0031975D02*
Y0037425D01*
X0137394Y0031975D02*
Y0037425D01*
X0137658Y0034774D02*
Y0036774D01*
X0138372Y0039424D02*
X0139065D01*
X0138372Y0040024D02*
X0139258D01*
X0138372Y0040624D02*
X0139258D01*
X0138372Y0041224D02*
X0139258D01*
X0136194Y0042975D02*
Y0046137D01*
X0138372Y0041824D02*
X0139258D01*
X0136794Y0042975D02*
Y0045444D01*
X0137994Y0042975D02*
Y0044244D01*
X0137394Y0042975D02*
Y0044844D01*
X0138372Y0038789D02*
Y0042975D01*
X0138594Y0039035D02*
Y0043644D01*
X0139194Y0039507D02*
Y0043044D01*
X0138372Y0042424D02*
X0139258D01*
Y0039545D02*
Y0042980D01*
X0155500Y0035824D02*
X0156240D01*
X0155500Y0036424D02*
X0156240D01*
X0155500Y0037024D02*
X0156240D01*
X0155500Y0037624D02*
X0156240D01*
X0155500Y0038224D02*
X0156240D01*
X0155500Y0038824D02*
X0156240D01*
X0155500Y0039424D02*
X0156240D01*
X0155500Y0040024D02*
X0156240D01*
X0155500Y0040624D02*
X0156240D01*
X0155500Y0041224D02*
X0156240D01*
X0155500Y0041824D02*
X0156240D01*
X0155500Y0042424D02*
X0156240D01*
X0136470Y0045767D02*
X0139258Y0042980D01*
X0155500Y0043024D02*
X0156240D01*
X0155500Y0043624D02*
X0156240D01*
X0155994Y0002000D02*
Y0117900D01*
X0156240Y0002000D02*
Y0117900D01*
X0155500Y0018700D02*
Y0106800D01*
Y0044224D02*
X0156240D01*
X0155500Y0044824D02*
X0156240D01*
X0155500Y0045424D02*
X0156240D01*
X0155500Y0046024D02*
X0156240D01*
X0155500Y0046624D02*
X0156240D01*
X0155500Y0047224D02*
X0156240D01*
X0155500Y0047824D02*
X0156240D01*
X0155500Y0048424D02*
X0156240D01*
X0155500Y0049024D02*
X0156240D01*
X0155500Y0049624D02*
X0156240D01*
X0155500Y0050224D02*
X0156240D01*
X0155500Y0050824D02*
X0156240D01*
X0135975Y0048428D02*
Y0054125D01*
X0136194Y0052363D02*
Y0054125D01*
X0135975Y0053224D02*
X0136600D01*
X0135975Y0053824D02*
X0136600D01*
X0135975Y0054125D02*
X0136600D01*
X0155500Y0051424D02*
X0156240D01*
X0155500Y0052024D02*
X0156240D01*
X0136600Y0052863D02*
Y0054125D01*
X0155500Y0052624D02*
X0156240D01*
X0155500Y0053224D02*
X0156240D01*
X0155500Y0053824D02*
X0156240D01*
X0155500Y0054424D02*
X0156240D01*
X0155500Y0055024D02*
X0156240D01*
X0155500Y0055624D02*
X0156240D01*
X0155500Y0056224D02*
X0156240D01*
X0155500Y0056824D02*
X0156240D01*
X0155500Y0057424D02*
X0156240D01*
X0155500Y0058024D02*
X0156240D01*
X0155500Y0058624D02*
X0156240D01*
X0155500Y0059224D02*
X0156240D01*
X0155500Y0059824D02*
X0156240D01*
X0155500Y0060424D02*
X0156240D01*
X0155500Y0061024D02*
X0156240D01*
X0155500Y0061624D02*
X0156240D01*
X0155500Y0062224D02*
X0156240D01*
X0155500Y0062824D02*
X0156240D01*
X0155500Y0063424D02*
X0156240D01*
X0155500Y0064024D02*
X0156240D01*
X0155500Y0064624D02*
X0156240D01*
X0155500Y0065224D02*
X0156240D01*
X0101761Y0072428D02*
X0102575D01*
Y0073624D02*
X0103135D01*
X0101810Y0072424D02*
X0103449D01*
X0102575Y0073024D02*
X0103469D01*
X0103194Y0072381D02*
Y0073503D01*
X0102575Y0074224D02*
X0102906D01*
X0102575Y0077224D02*
X0102990D01*
X0102575Y0077824D02*
X0103260D01*
X0102575Y0072428D02*
Y0078372D01*
Y0078428D02*
Y0083628D01*
Y0079024D02*
X0104181D01*
X0102575Y0079624D02*
X0104972D01*
X0102575Y0082024D02*
X0105413D01*
X0102594Y0072153D02*
Y0083626D01*
X0103194Y0077697D02*
Y0083606D01*
X0103794Y0078614D02*
Y0083700D01*
X0104994Y0079637D02*
Y0082449D01*
X0104394Y0079213D02*
Y0083919D01*
X0102575Y0080224D02*
X0106561D01*
X0102575Y0081424D02*
X0106013D01*
X0102575Y0080824D02*
X0106613D01*
X0106194Y0080142D02*
Y0081244D01*
X0112938Y0079024D02*
X0120561D01*
X0112338Y0079624D02*
X0120561D01*
X0106794Y0080261D02*
Y0080644D01*
X0111738Y0080224D02*
X0120561D01*
X0111138Y0080824D02*
X0113754D01*
X0105594Y0079939D02*
Y0081844D01*
X0107800Y0084163D02*
X0113230Y0078733D01*
X0105070Y0082367D02*
X0107144Y0080293D01*
X0109938Y0082024D02*
X0113754D01*
X0110394Y0081569D02*
Y0084403D01*
X0112194Y0079769D02*
Y0084458D01*
X0112794Y0079169D02*
Y0084725D01*
X0110994Y0080969D02*
Y0084307D01*
X0110538Y0081424D02*
X0113754D01*
X0111594Y0080369D02*
Y0084324D01*
X0102575Y0082624D02*
X0104861D01*
X0102575Y0083224D02*
X0104624D01*
X0104177Y0083824D02*
X0104600D01*
X0109194Y0082769D02*
Y0085007D01*
X0104600Y0083500D02*
Y0084029D01*
X0107800Y0085024D02*
X0109172D01*
X0107800Y0085624D02*
X0108607D01*
X0101700Y0094963D02*
X0107330Y0089333D01*
X0107429Y0089224D02*
X0108504D01*
X0106838Y0089824D02*
X0109001D01*
X0107800Y0084163D02*
Y0088200D01*
X0108594Y0083369D02*
Y0085643D01*
X0107800Y0086224D02*
X0108265D01*
X0107743Y0088624D02*
X0108204D01*
X0109600Y0090271D02*
Y0095100D01*
X0108738Y0083224D02*
X0113754D01*
X0108138Y0083824D02*
X0113754D01*
X0106238Y0090424D02*
X0109600D01*
X0107800Y0084424D02*
X0110316D01*
X0109794Y0082169D02*
Y0084626D01*
X0109338Y0082624D02*
X0113754D01*
X0112084Y0084424D02*
X0113754D01*
X0112800Y0090424D02*
X0115056D01*
X0103238Y0093424D02*
X0109600D01*
X0102638Y0094024D02*
X0109600D01*
X0102038Y0094624D02*
X0109600D01*
X0101700Y0095224D02*
X0109605D01*
X0101700Y0095824D02*
X0109773D01*
X0105638Y0091024D02*
X0109600D01*
X0112800D02*
X0115056D01*
X0105038Y0091624D02*
X0109600D01*
X0104438Y0092224D02*
X0109600D01*
X0103838Y0092824D02*
X0109600D01*
X0113239Y0065824D02*
X0113894D01*
X0113239Y0066424D02*
X0114494D01*
X0113239Y0071824D02*
X0113754D01*
X0113239Y0067024D02*
X0115094D01*
X0113239Y0067624D02*
X0115694D01*
X0113994Y0065924D02*
Y0071698D01*
X0114594Y0066524D02*
Y0071698D01*
X0113239Y0072424D02*
X0113754D01*
X0115194Y0067124D02*
Y0071698D01*
X0115717Y0067647D02*
Y0071698D01*
X0113394Y0078541D02*
Y0085170D01*
X0113754Y0071698D02*
Y0077641D01*
X0113700Y0073800D02*
Y0077600D01*
X0113994Y0077641D02*
Y0080359D01*
X0114594Y0077641D02*
Y0080359D01*
X0115194Y0077641D02*
Y0080359D01*
X0113239Y0068224D02*
X0115717D01*
X0113239Y0068824D02*
X0115717D01*
X0113239Y0069424D02*
X0115717D01*
X0113239Y0070024D02*
X0115717D01*
X0113239Y0070624D02*
X0115717D01*
X0113239Y0071224D02*
X0115717D01*
X0121057Y0066200D02*
X0122600D01*
X0113754Y0071698D02*
X0115717D01*
X0113754Y0077641D02*
X0120561D01*
X0113684Y0077824D02*
X0120561D01*
X0115794Y0077641D02*
Y0080359D01*
X0116394Y0077641D02*
Y0080359D01*
X0116994Y0077641D02*
Y0080359D01*
X0113471Y0078424D02*
X0120561D01*
X0117594Y0077641D02*
Y0080359D01*
X0118194Y0077641D02*
Y0080359D01*
X0118794Y0077641D02*
Y0080359D01*
X0119394Y0077641D02*
Y0080359D01*
X0119994Y0077641D02*
Y0080359D01*
X0120561Y0077641D02*
Y0080359D01*
X0113754D02*
Y0085572D01*
X0113228Y0085024D02*
X0113754D01*
X0113399Y0089824D02*
X0115056D01*
X0112800Y0091624D02*
X0115056D01*
X0112800Y0092224D02*
X0115056D01*
X0115194Y0086302D02*
Y0088114D01*
X0114196Y0088624D02*
X0115056D01*
X0113896Y0089224D02*
X0115056D01*
X0112800Y0090271D02*
Y0094437D01*
Y0092824D02*
X0115056D01*
X0112800Y0093424D02*
X0115056D01*
X0112800Y0094024D02*
X0115056D01*
X0112987Y0094624D02*
X0115056D01*
X0113994Y0089061D02*
Y0095631D01*
X0115056Y0088114D02*
Y0094845D01*
X0113394Y0089830D02*
Y0095031D01*
X0115056Y0094845D02*
X0115443D01*
X0113587Y0095224D02*
X0115443D01*
X0114154Y0083331D02*
X0117316D01*
X0113754Y0080359D02*
X0120561D01*
X0114167Y0086302D02*
X0120561D01*
X0114328Y0086824D02*
X0120561D01*
X0114399Y0087424D02*
X0120561D01*
X0117316Y0080759D02*
Y0083331D01*
Y0085902D01*
X0115794Y0086302D02*
Y0088114D01*
X0114357Y0088024D02*
X0120561D01*
X0116394Y0086302D02*
Y0088114D01*
X0116994Y0086302D02*
Y0088114D01*
X0117594Y0086302D02*
Y0088114D01*
X0114187Y0095824D02*
X0115443D01*
X0118194Y0086302D02*
Y0088114D01*
X0115056D02*
X0119031D01*
X0118794Y0086302D02*
Y0088114D01*
X0119394Y0086302D02*
Y0088125D01*
X0119994Y0086302D02*
Y0088153D01*
X0120561Y0086302D02*
Y0088361D01*
X0102594Y0094069D02*
Y0100825D01*
X0103194Y0093469D02*
Y0100825D01*
X0101700Y0094963D02*
Y0100825D01*
Y0098224D02*
X0106586D01*
X0101994Y0094669D02*
Y0100825D01*
X0105594Y0091069D02*
Y0100825D01*
X0106194Y0090469D02*
Y0100825D01*
X0103794Y0092869D02*
Y0100825D01*
X0104394Y0092269D02*
Y0100825D01*
X0104994Y0091669D02*
Y0100825D01*
X0102275Y0106375D02*
Y0110572D01*
X0101828Y0103600D02*
X0104400D01*
X0102594Y0106375D02*
Y0112000D01*
X0103794Y0106375D02*
Y0110586D01*
X0103194Y0106375D02*
Y0111503D01*
X0104400Y0101225D02*
Y0103600D01*
Y0105975D01*
X0104394Y0106375D02*
Y0109987D01*
X0105594Y0106375D02*
Y0109261D01*
X0104994Y0106375D02*
Y0109563D01*
X0106794Y0089869D02*
Y0097762D01*
X0107394Y0089266D02*
Y0096982D01*
X0101700Y0097624D02*
X0106874D01*
X0101700Y0096424D02*
X0108196D01*
X0101700Y0097024D02*
X0107350D01*
X0107994Y0083969D02*
Y0096532D01*
X0108594Y0089357D02*
Y0096262D01*
X0109194Y0089993D02*
Y0096126D01*
X0101700Y0098824D02*
X0106436D01*
X0101700Y0099424D02*
X0106402D01*
X0101700Y0100024D02*
X0106483D01*
X0101700Y0100624D02*
X0106687D01*
X0101700Y0100825D02*
X0106787D01*
X0107372Y0101597D02*
Y0106375D01*
X0104400Y0103600D02*
X0106972D01*
X0107428Y0101650D02*
Y0106375D01*
X0102275D02*
X0107372D01*
X0106194D02*
Y0109057D01*
X0102275Y0106624D02*
X0108888D01*
X0102275Y0109024D02*
X0106326D01*
X0102275Y0107224D02*
X0109262D01*
X0102275Y0107824D02*
X0109862D01*
X0106794Y0106375D02*
Y0108939D01*
X0107428Y0106375D02*
X0108824D01*
X0109270Y0107233D02*
X0110467Y0108430D01*
X0102275Y0110224D02*
X0104130D01*
X0102275Y0109624D02*
X0104893D01*
X0102275Y0110628D02*
Y0112000D01*
Y0110824D02*
X0103607D01*
X0102275Y0111424D02*
X0103234D01*
X0107994Y0106375D02*
Y0108938D01*
X0108594Y0106375D02*
Y0109054D01*
X0102275Y0112000D02*
X0102981D01*
X0109194Y0107151D02*
Y0109256D01*
X0109794Y0107756D02*
Y0109555D01*
X0102275Y0108424D02*
X0110462D01*
X0108474Y0109024D02*
X0112762D01*
X0109907Y0109624D02*
X0113362D01*
X0110394Y0108356D02*
Y0109977D01*
X0110994Y0108781D02*
Y0110571D01*
X0111600Y0108900D02*
X0112637D01*
X0110670Y0110224D02*
X0113962D01*
X0111193Y0110824D02*
X0114562D01*
X0110394Y0117223D02*
Y0117900D01*
X0110819Y0116824D02*
X0115770D01*
X0110994Y0116629D02*
Y0117900D01*
X0111594Y0108900D02*
Y0111478D01*
X0111566Y0111424D02*
X0115162D01*
X0111594Y0115722D02*
Y0117900D01*
X0111642Y0115624D02*
X0115083D01*
X0111299Y0116224D02*
X0115285D01*
X0114594Y0086302D02*
Y0096231D01*
X0112800Y0094437D02*
X0115158Y0096795D01*
X0115443Y0094845D02*
Y0096243D01*
X0114787Y0096424D02*
X0115454D01*
X0115700Y0100024D02*
X0116343D01*
X0115700Y0100624D02*
X0116933D01*
X0115700Y0098100D02*
Y0105037D01*
X0115794Y0098868D02*
Y0105131D01*
X0116394Y0100090D02*
Y0105731D01*
X0115700Y0101224D02*
X0118209D01*
X0115700Y0105037D02*
X0118669Y0108007D01*
X0116994Y0100670D02*
Y0106331D01*
X0117594Y0101021D02*
Y0106931D01*
X0118194Y0101221D02*
Y0107531D01*
X0118794Y0101298D02*
Y0105182D01*
X0121457Y0100024D02*
X0122143D01*
X0121194Y0100331D02*
Y0102613D01*
X0120867Y0100624D02*
X0122733D01*
X0115700Y0102424D02*
X0121408D01*
X0121794Y0099466D02*
Y0102216D01*
X0122394Y0100318D02*
Y0102113D01*
X0122994Y0100807D02*
Y0102113D01*
X0115700Y0103624D02*
X0120182D01*
X0115700Y0103024D02*
X0120782D01*
X0115700Y0104224D02*
X0119582D01*
X0115700Y0104824D02*
X0119001D01*
X0119394Y0101262D02*
Y0104413D01*
X0120594Y0100815D02*
Y0103213D01*
X0119994Y0101107D02*
Y0103813D01*
X0119139Y0104667D02*
X0121223Y0102583D01*
X0121869Y0106463D02*
X0123019Y0105313D01*
X0111828Y0112024D02*
X0115125D01*
X0111998Y0112624D02*
X0115056D01*
X0112085Y0113224D02*
X0115056D01*
X0112027Y0114424D02*
X0115056D01*
X0111879Y0115024D02*
X0115056D01*
X0112637Y0108900D02*
X0115309Y0111572D01*
X0115194Y0111456D02*
Y0111816D01*
X0112095Y0113824D02*
X0115056D01*
Y0112542D02*
Y0115298D01*
X0112194Y0108900D02*
Y0117900D01*
X0112794Y0109056D02*
Y0117900D01*
X0113394Y0109656D02*
Y0117900D01*
X0113994Y0110256D02*
Y0117900D01*
X0114594Y0110856D02*
Y0117900D01*
X0115194Y0116025D02*
Y0117900D01*
X0115794Y0116844D02*
Y0117900D01*
X0116394Y0117177D02*
Y0117900D01*
X0116994Y0117285D02*
Y0117900D01*
X0117594Y0117208D02*
Y0117900D01*
X0116087Y0105424D02*
X0118714D01*
X0116687Y0106024D02*
X0118669D01*
X0117287Y0106624D02*
X0118669D01*
X0117887Y0107224D02*
X0118669D01*
Y0105800D02*
Y0108007D01*
X0122994Y0105338D02*
Y0110031D01*
X0121869Y0106463D02*
Y0108906D01*
X0122394Y0105938D02*
Y0109431D01*
X0121869Y0108906D02*
X0123291Y0110329D01*
X0118194Y0116919D02*
Y0117900D01*
X0118794Y0117114D02*
Y0117900D01*
X0119394Y0117275D02*
Y0117900D01*
X0119994Y0117247D02*
Y0117900D01*
X0120594Y0117021D02*
Y0117900D01*
X0121194Y0117034D02*
Y0117900D01*
X0121794Y0117252D02*
Y0117900D01*
X0122394Y0117272D02*
Y0117900D01*
X0122994Y0117103D02*
Y0117900D01*
X0120682Y0065824D02*
X0124028D01*
X0122600Y0066200D02*
X0124028D01*
X0123761Y0077224D02*
X0125713D01*
X0123761Y0076001D02*
X0126763Y0073000D01*
X0127194D02*
Y0076700D01*
X0126763Y0073000D02*
X0128321D01*
X0125994Y0073769D02*
Y0076982D01*
X0126594Y0073169D02*
Y0076730D01*
X0127794Y0073000D02*
Y0076700D01*
X0123761Y0076001D02*
Y0079176D01*
X0124194Y0075569D02*
Y0078744D01*
X0123761Y0078424D02*
X0124513D01*
X0123761Y0077824D02*
X0125113D01*
X0123761Y0079176D02*
X0125767Y0077170D01*
X0124794Y0074969D02*
Y0078144D01*
X0125394Y0074369D02*
Y0077544D01*
X0126068Y0094624D02*
X0126370D01*
X0125538Y0074224D02*
X0128321D01*
X0124938Y0074824D02*
X0128321D01*
X0124338Y0075424D02*
X0128321D01*
X0123761Y0076024D02*
X0128321D01*
X0123761Y0076624D02*
X0128321D01*
Y0073000D02*
Y0076700D01*
X0130428Y0067800D02*
X0133000D01*
X0126738Y0073024D02*
X0128321D01*
X0126138Y0073624D02*
X0128321D01*
X0128721Y0074669D02*
X0131884D01*
X0126900Y0076700D02*
X0128321D01*
X0134957Y0091479D02*
X0136544D01*
X0134957D02*
Y0094445D01*
X0136944Y0090607D02*
X0137241Y0090904D01*
X0136944Y0091024D02*
X0137376D01*
X0136944Y0091624D02*
X0137773D01*
X0136944Y0092224D02*
X0138005D01*
X0136565Y0094024D02*
X0141928D01*
X0123594Y0101103D02*
Y0102113D01*
X0119591Y0101224D02*
X0124009D01*
X0124194Y0101260D02*
Y0102113D01*
X0126594Y0094723D02*
Y0095520D01*
X0128189Y0094624D02*
X0128929D01*
X0127194Y0094843D02*
Y0096095D01*
X0127794Y0094777D02*
Y0097282D01*
X0126594Y0100680D02*
Y0102113D01*
X0127194Y0100105D02*
Y0102113D01*
X0124794Y0101299D02*
Y0102113D01*
X0125394Y0101224D02*
Y0102113D01*
X0125994Y0101027D02*
Y0102113D01*
X0128394Y0094503D02*
Y0102113D01*
X0128994Y0094656D02*
Y0102113D01*
X0127794Y0098918D02*
Y0102113D01*
X0129594Y0094830D02*
Y0102113D01*
X0130194Y0094813D02*
Y0102113D01*
X0126355Y0095224D02*
X0141928D01*
X0126950Y0095824D02*
X0141928D01*
X0127426Y0096424D02*
X0141928D01*
X0127714Y0097024D02*
X0141928D01*
X0127865Y0097624D02*
X0141928D01*
X0130748Y0094624D02*
X0131488D01*
X0133308D02*
X0134047D01*
X0135866D02*
X0141928D01*
X0127257Y0100024D02*
X0138582D01*
X0127898Y0098224D02*
X0141928D01*
X0115700Y0101824D02*
X0137689D01*
X0126667Y0100624D02*
X0138116D01*
X0125391Y0101224D02*
X0137835D01*
X0130794Y0094600D02*
Y0102113D01*
X0131394Y0094573D02*
Y0102113D01*
X0131994Y0094803D02*
Y0102113D01*
X0127817Y0098824D02*
X0141928D01*
X0127613Y0099424D02*
X0139402D01*
X0155500Y0065824D02*
X0156240D01*
X0155500Y0066424D02*
X0156240D01*
X0155500Y0067024D02*
X0156240D01*
X0155500Y0067624D02*
X0156240D01*
X0155500Y0068224D02*
X0156240D01*
X0155500Y0068824D02*
X0156240D01*
X0155500Y0069424D02*
X0156240D01*
X0155500Y0070024D02*
X0156240D01*
X0155500Y0070624D02*
X0156240D01*
X0155500Y0071224D02*
X0156240D01*
X0155500Y0071824D02*
X0156240D01*
X0155500Y0072424D02*
X0156240D01*
X0155500Y0073024D02*
X0156240D01*
X0155500Y0073624D02*
X0156240D01*
X0155500Y0074224D02*
X0156240D01*
X0155500Y0074824D02*
X0156240D01*
X0155500Y0075424D02*
X0156240D01*
X0155500Y0076024D02*
X0156240D01*
X0155500Y0076624D02*
X0156240D01*
X0155500Y0077224D02*
X0156240D01*
X0155500Y0077824D02*
X0156240D01*
X0155500Y0078424D02*
X0156240D01*
X0155500Y0079024D02*
X0156240D01*
X0155500Y0079624D02*
X0156240D01*
X0155500Y0080224D02*
X0156240D01*
X0155500Y0080824D02*
X0156240D01*
X0155500Y0081424D02*
X0156240D01*
X0155500Y0082024D02*
X0156240D01*
X0155500Y0082624D02*
X0156240D01*
X0155500Y0083224D02*
X0156240D01*
X0155500Y0083824D02*
X0156240D01*
X0155500Y0084424D02*
X0156240D01*
X0155500Y0085024D02*
X0156240D01*
X0155500Y0085624D02*
X0156240D01*
X0155500Y0086224D02*
X0156240D01*
X0155500Y0086824D02*
X0156240D01*
X0155500Y0087424D02*
X0156240D01*
X0155500Y0088024D02*
X0156240D01*
X0155500Y0088624D02*
X0156240D01*
X0155500Y0089224D02*
X0156240D01*
X0136944Y0090607D02*
Y0092857D01*
Y0092824D02*
X0138401D01*
X0136862Y0093424D02*
X0139065D01*
X0155500Y0089824D02*
X0156240D01*
X0139794Y0093792D02*
Y0099256D01*
X0142579Y0093472D02*
Y0093825D01*
X0141928D02*
X0142579D01*
X0137994Y0092202D02*
Y0100847D01*
X0138594Y0093036D02*
Y0100013D01*
X0139194Y0093507D02*
Y0099541D01*
X0140394Y0093940D02*
Y0099108D01*
X0140994Y0093971D02*
Y0099077D01*
X0141594Y0093888D02*
Y0099160D01*
X0141928Y0093825D02*
Y0099259D01*
X0142212Y0099375D02*
X0142579D01*
X0155500Y0090424D02*
X0156240D01*
X0155500Y0091024D02*
X0156240D01*
X0155500Y0091624D02*
X0156240D01*
X0155500Y0092224D02*
X0156240D01*
X0155500Y0092824D02*
X0156240D01*
X0155500Y0093424D02*
X0156240D01*
X0155500Y0094024D02*
X0156240D01*
X0155500Y0094624D02*
X0156240D01*
X0155500Y0095224D02*
X0156240D01*
X0155500Y0095824D02*
X0156240D01*
X0155500Y0096424D02*
X0156240D01*
X0155500Y0097024D02*
X0156240D01*
X0155500Y0097624D02*
X0156240D01*
X0155500Y0098224D02*
X0156240D01*
X0155500Y0098824D02*
X0156240D01*
X0155500Y0099424D02*
X0156240D01*
X0155500Y0100024D02*
X0156240D01*
X0155500Y0100624D02*
X0156240D01*
X0155500Y0101224D02*
X0156240D01*
X0155500Y0101824D02*
X0156240D01*
X0121869Y0107224D02*
X0129436D01*
X0121869Y0106624D02*
X0129586D01*
X0121869Y0107824D02*
X0129402D01*
X0121869Y0108424D02*
X0129483D01*
X0121987Y0109024D02*
X0129687D01*
X0124194Y0105313D02*
Y0110626D01*
X0129594Y0105313D02*
Y0106604D01*
X0122308Y0106024D02*
X0129874D01*
X0122908Y0105424D02*
X0130350D01*
X0122587Y0109624D02*
X0130043D01*
X0123594Y0105313D02*
Y0110748D01*
X0124794Y0105313D02*
Y0110556D01*
X0125394Y0105313D02*
Y0110673D01*
X0126594Y0105313D02*
Y0110677D01*
X0125994Y0105313D02*
Y0111016D01*
X0127194Y0105313D02*
Y0110557D01*
X0127794Y0105313D02*
Y0110623D01*
X0128394Y0105313D02*
Y0110897D01*
X0129594Y0108796D02*
Y0110570D01*
X0128994Y0105313D02*
Y0110744D01*
X0132594Y0094835D02*
Y0102113D01*
X0133794Y0094469D02*
Y0102113D01*
X0133194Y0094678D02*
Y0102113D01*
X0122356D02*
X0133913D01*
X0134394Y0094763D02*
Y0102187D01*
X0134994Y0094845D02*
Y0102533D01*
X0134861Y0102424D02*
X0137658D01*
X0135487Y0103024D02*
X0137658D01*
X0123019Y0105313D02*
X0130468D01*
X0130194Y0109809D02*
Y0110587D01*
X0123187Y0110224D02*
X0130633D01*
X0135513Y0109024D02*
X0137214D01*
X0135046Y0102583D02*
X0137862Y0105399D01*
X0134994Y0109824D02*
Y0110555D01*
X0135157Y0109624D02*
X0156240D01*
X0134567Y0110224D02*
X0156240D01*
X0125719Y0110824D02*
X0126281D01*
X0124721Y0110955D02*
Y0113920D01*
X0128279Y0110824D02*
X0128840D01*
X0124721Y0113920D02*
Y0116886D01*
X0123594Y0116936D02*
Y0117900D01*
X0124194Y0117215D02*
Y0117900D01*
X0124794Y0117285D02*
Y0117900D01*
X0125394Y0117168D02*
Y0117900D01*
X0125994Y0116824D02*
Y0117900D01*
X0128394Y0116944D02*
Y0117900D01*
X0126594Y0117164D02*
Y0117900D01*
X0127194Y0117284D02*
Y0117900D01*
X0127794Y0117218D02*
Y0117900D01*
X0128994Y0117097D02*
Y0117900D01*
X0110132Y0117424D02*
X0156240D01*
X0129594Y0117271D02*
Y0117900D01*
X0130824Y0110362D02*
Y0110816D01*
X0130794Y0110341D02*
Y0110800D01*
Y0117041D02*
Y0117900D01*
X0131394Y0117014D02*
Y0117900D01*
X0130194Y0117254D02*
Y0117900D01*
X0131994Y0117244D02*
Y0117900D01*
X0109297D02*
X0156240D01*
X0133194Y0117120D02*
Y0117900D01*
X0133794Y0116910D02*
Y0117900D01*
X0132594Y0117276D02*
Y0117900D01*
X0134394Y0117204D02*
Y0117900D01*
X0134994Y0117286D02*
Y0117900D01*
X0136194Y0094413D02*
Y0103731D01*
X0136794Y0093616D02*
Y0104331D01*
X0135594Y0094740D02*
Y0103131D01*
X0136087Y0103624D02*
X0137658D01*
X0136687Y0104224D02*
X0137658D01*
X0137394Y0091039D02*
Y0104931D01*
X0137658Y0102274D02*
Y0104274D01*
X0137287Y0104824D02*
X0137705D01*
X0136194Y0108256D02*
Y0110987D01*
X0135796Y0107859D02*
X0136567Y0108630D01*
X0135594Y0108831D02*
Y0110660D01*
X0135717Y0108424D02*
X0136362D01*
X0136794Y0108818D02*
Y0111784D01*
X0137394Y0109070D02*
Y0117900D01*
X0137994Y0109100D02*
Y0117900D01*
X0138594Y0109100D02*
Y0117900D01*
X0155500Y0102424D02*
X0156240D01*
X0155500Y0103024D02*
X0156240D01*
X0155500Y0103624D02*
X0156240D01*
X0155500Y0104224D02*
X0156240D01*
X0155129Y0107824D02*
X0156240D01*
X0155500Y0104824D02*
X0156240D01*
X0155500Y0105424D02*
X0156240D01*
X0155500Y0106024D02*
X0156240D01*
X0155500Y0106624D02*
X0156240D01*
X0155443Y0107224D02*
X0156240D01*
X0154333Y0108630D02*
X0155030Y0107933D01*
X0137700Y0109100D02*
X0153200D01*
X0154194Y0108754D02*
Y0117900D01*
X0154794Y0108169D02*
Y0117900D01*
X0154538Y0108424D02*
X0156240D01*
X0155394Y0107374D02*
Y0117900D01*
X0136944Y0112542D02*
Y0115298D01*
X0139194Y0109100D02*
Y0117900D01*
X0135594Y0117181D02*
Y0117900D01*
X0136194Y0116854D02*
Y0117900D01*
X0136794Y0116057D02*
Y0117900D01*
X0139794Y0109100D02*
Y0117900D01*
X0140394Y0109100D02*
Y0117900D01*
X0140994Y0109100D02*
Y0117900D01*
X0141594Y0109100D02*
Y0117900D01*
X0142194Y0109100D02*
Y0117900D01*
X0142794Y0109100D02*
Y0117900D01*
X0143394Y0109100D02*
Y0117900D01*
X0143994Y0109100D02*
Y0117900D01*
X0144594Y0109100D02*
Y0117900D01*
X0145194Y0109100D02*
Y0117900D01*
X0145794Y0109100D02*
Y0117900D01*
X0146394Y0109100D02*
Y0117900D01*
X0146994Y0109100D02*
Y0117900D01*
X0147594Y0109100D02*
Y0117900D01*
X0148194Y0109100D02*
Y0117900D01*
X0135956Y0110824D02*
X0156240D01*
X0136600Y0111424D02*
X0156240D01*
X0136875Y0112024D02*
X0156240D01*
X0136944Y0112624D02*
X0156240D01*
X0136944Y0113224D02*
X0156240D01*
X0153686Y0109024D02*
X0156240D01*
X0136944Y0113824D02*
X0156240D01*
X0136944Y0114424D02*
X0156240D01*
X0136944Y0115024D02*
X0156240D01*
X0136917Y0115624D02*
X0156240D01*
X0148794Y0109100D02*
Y0117900D01*
X0149394Y0109100D02*
Y0117900D01*
X0149994Y0109100D02*
Y0117900D01*
X0136715Y0116224D02*
X0156240D01*
X0136230Y0116824D02*
X0156240D01*
X0150594Y0109100D02*
Y0117900D01*
X0151194Y0109100D02*
Y0117900D01*
X0151794Y0109100D02*
Y0117900D01*
X0152394Y0109100D02*
Y0117900D01*
X0152994Y0109100D02*
Y0117900D01*
X0153594Y0109051D02*
Y0117900D01*
X0038026Y0085874D02*
X0043426D01*
X0045926D01*
X0051600Y0028800D02*
X0051700Y0028700D01*
X0045300D02*
X0051700D01*
X0057400D01*
X0043926Y0034426D02*
Y0051000D01*
Y0053526D01*
Y0051000D02*
X0044000D01*
X0048600Y0043100D02*
X0048700Y0043000D01*
X0046326D02*
X0048700D01*
X0071000D01*
X0115506Y0054894D02*
X0119165D01*
X0122594D01*
X0093700Y0068548D02*
Y0075500D01*
Y0082063D01*
X0122600Y0067800D02*
Y0070300D01*
X0120395Y0067800D02*
X0122600D01*
X0127000D01*
X0086700Y0091900D02*
Y0095000D01*
Y0100000D01*
X0054800Y0040000D02*
X0060600D01*
X0066600D01*
X0045752Y0016248D02*
Y0020752D01*
Y0020800D01*
X0042052Y0020752D02*
X0045752D01*
X0060651Y0045051D02*
X0074283D01*
X0082151D01*
X0098600Y0014600D02*
Y0016600D01*
Y0019300D01*
X0054800Y0095300D02*
X0055500Y0094600D01*
X0121500Y0023100D02*
Y0027000D01*
X0115743Y0050957D02*
X0119165D01*
X0122500D01*
X0106600Y0058000D02*
X0112000D01*
Y0056100D02*
Y0058000D01*
Y0063931D01*
X0133200Y0045400D02*
Y0048400D01*
X0135400Y0037100D02*
Y0040200D01*
Y0042200D01*
X0125057Y0048400D02*
X0133200D01*
X0136000D01*
Y0042800D02*
Y0048400D01*
Y0052263D01*
X0101646Y0065154D02*
Y0068476D01*
Y0071946D01*
X0113700Y0073100D02*
Y0083331D01*
X0109769D02*
X0113700D01*
X0117316D01*
X0104400Y0092300D02*
Y0103600D01*
Y0106300D01*
X0070700Y0087800D02*
Y0092700D01*
X0068100D02*
X0070700D01*
X0072000D01*
X0063412Y0023288D02*
X0064300D01*
X0066486D01*
X0017343Y0074300D02*
X0030500D01*
X0067812Y0048988D02*
X0074283D01*
X0080112D01*
X0054600Y0046000D02*
Y0051000D01*
Y0053400D01*
X0050000Y0051000D02*
X0054600D01*
X0113800Y0003474D02*
Y0010700D01*
X0115200Y0027400D02*
Y0031272D01*
Y0034600D01*
X0109228Y0031272D02*
X0115200D01*
X0119165D01*
X0128200Y0051400D02*
X0130700D01*
X0133200D01*
X0099677Y0064823D02*
Y0068476D01*
Y0075400D01*
Y0078123D01*
X0130700Y0051400D02*
Y0061700D01*
X0110400Y0100100D02*
Y0103600D01*
Y0106100D01*
X0000400Y0000400D02*
Y0119500D01*
X0157800Y0000400D02*
Y0119500D01*
X0000400D02*
X0157800D01*
X0000400Y0000400D02*
X0157800D01*
D11*
X0038000Y0074300D02*
D03*
X0032000D02*
D03*
X0038026Y0079874D02*
D03*
X0032026D02*
D03*
X0064700Y0087800D02*
D03*
X0070700D02*
D03*
X0054126Y0087874D02*
D03*
X0060126D02*
D03*
X0047800Y0025800D02*
D03*
X0053800D02*
D03*
X0140500Y0029200D02*
D03*
X0134500D02*
D03*
X0129400Y0040200D02*
D03*
X0135400D02*
D03*
X0080700Y0100000D02*
D03*
X0086700D02*
D03*
X0098600Y0016600D02*
D03*
X0104600D02*
D03*
X0133000Y0067800D02*
D03*
X0127000D02*
D03*
X0110400Y0103600D02*
D03*
X0104400D02*
D03*
X0086700Y0095000D02*
D03*
X0080700D02*
D03*
X0086700Y0105000D02*
D03*
X0080700D02*
D03*
X0150900Y0042574D02*
D03*
X0144900D02*
D03*
X0048600Y0046000D02*
D03*
X0054600D02*
D03*
X0060600Y0051000D02*
D03*
X0054600D02*
D03*
X0050000D02*
D03*
X0044000D02*
D03*
X0133700Y0056900D02*
D03*
X0127700D02*
D03*
X0150900Y0029174D02*
D03*
X0051600Y0034000D02*
D03*
X0057600D02*
D03*
X0054800Y0040000D02*
D03*
X0048800D02*
D03*
X0150900Y0096600D02*
D03*
X0144900D02*
D03*
Y0083100D02*
D03*
X0150900D02*
D03*
X0144900Y0069574D02*
D03*
X0150900D02*
D03*
X0013226Y0032874D02*
D03*
X0007226D02*
D03*
X0046700Y0008000D02*
D03*
X0052700D02*
D03*
X0016826Y0046074D02*
D03*
X0022826D02*
D03*
X0049426Y0079874D02*
D03*
X0043426D02*
D03*
X0049426Y0085874D02*
D03*
X0043426D02*
D03*
X0089700Y0110800D02*
D03*
X0083700D02*
D03*
X0144900Y0056174D02*
D03*
X0150900D02*
D03*
X0038026Y0085874D02*
D03*
X0032026D02*
D03*
X0050200Y0062300D02*
D03*
X0056200D02*
D03*
D12*
X0068100Y0092700D02*
D03*
Y0098700D02*
D03*
X0054800Y0098500D02*
D03*
Y0104500D02*
D03*
X0060600Y0046000D02*
D03*
Y0040000D02*
D03*
X0121400Y0016900D02*
D03*
Y0022900D02*
D03*
X0066600Y0069200D02*
D03*
Y0063200D02*
D03*
X0099500Y0113600D02*
D03*
Y0107600D02*
D03*
X0099800Y0081400D02*
D03*
Y0075400D02*
D03*
X0133200Y0051400D02*
D03*
Y0045400D02*
D03*
X0128200Y0051400D02*
D03*
Y0045400D02*
D03*
X0056900Y0008200D02*
D03*
X0095700Y0090600D02*
D03*
Y0096600D02*
D03*
X0056900Y0014200D02*
D03*
D13*
X0045752Y0020800D02*
D03*
X0052248D02*
D03*
X0078552Y0088600D02*
D03*
X0085048D02*
D03*
X0075048Y0076400D02*
D03*
X0068552D02*
D03*
D14*
X0117043Y0091479D02*
D03*
D15*
X0119602D02*
D03*
X0122161D02*
D03*
X0124721D02*
D03*
X0127279D02*
D03*
X0129839D02*
D03*
X0132398D02*
D03*
X0134957D02*
D03*
X0117043Y0113920D02*
D03*
X0119602D02*
D03*
X0122161D02*
D03*
X0124721D02*
D03*
X0127279D02*
D03*
X0129839D02*
D03*
X0132398D02*
D03*
X0134957D02*
D03*
D16*
X0081961Y0068476D02*
D03*
X0089835D02*
D03*
X0109520Y0023594D02*
D03*
X0107551D02*
D03*
X0105583D02*
D03*
X0103614D02*
D03*
X0101646D02*
D03*
X0099677D02*
D03*
X0097709D02*
D03*
X0095740D02*
D03*
X0093772D02*
D03*
X0091803D02*
D03*
X0089835D02*
D03*
X0087866D02*
D03*
X0085898D02*
D03*
X0083929D02*
D03*
X0081961D02*
D03*
X0083929Y0068476D02*
D03*
X0085898D02*
D03*
X0087866D02*
D03*
X0091803D02*
D03*
X0093772D02*
D03*
X0095740D02*
D03*
X0097709D02*
D03*
X0099677D02*
D03*
X0101646D02*
D03*
X0109520D02*
D03*
X0105583D02*
D03*
X0107551D02*
D03*
X0103614D02*
D03*
D17*
X0119165Y0060799D02*
D03*
Y0052925D02*
D03*
Y0045051D02*
D03*
Y0037177D02*
D03*
X0074283Y0031272D02*
D03*
Y0039146D02*
D03*
Y0047020D02*
D03*
Y0054894D02*
D03*
X0119165Y0058831D02*
D03*
Y0056862D02*
D03*
Y0054894D02*
D03*
Y0050957D02*
D03*
Y0048988D02*
D03*
Y0047020D02*
D03*
Y0043083D02*
D03*
Y0041114D02*
D03*
Y0039146D02*
D03*
Y0035209D02*
D03*
Y0033240D02*
D03*
Y0031272D02*
D03*
X0074283Y0033240D02*
D03*
Y0035209D02*
D03*
Y0037177D02*
D03*
Y0041114D02*
D03*
Y0043083D02*
D03*
Y0045051D02*
D03*
Y0048988D02*
D03*
Y0050957D02*
D03*
Y0052925D02*
D03*
Y0056862D02*
D03*
Y0058831D02*
D03*
Y0060799D02*
D03*
D18*
X0117316Y0074669D02*
D03*
X0131884Y0083331D02*
D03*
X0117316D02*
D03*
X0131884Y0074669D02*
D03*
D19*
X0144900Y0029174D02*
D03*
X0066537Y0023237D02*
D03*
X0058663Y0019300D02*
D03*
X0066537Y0015363D02*
D03*
D20*
X0111488Y0023594D02*
D03*
D21*
X0111488Y0068476D02*
D03*
D22*
X0064300Y0029480D02*
X0065500Y0030680D01*
X0066537Y0023237D02*
X0069263D01*
X0012421Y0089076D02*
X0017343Y0084154D01*
X0012421Y0089076D02*
Y0093335D01*
X0017343Y0052835D02*
X0017343Y0052835D01*
X0098334Y0003540D02*
Y0008774D01*
X0145779Y0006353D02*
Y0008774D01*
X0142900Y0003474D02*
X0145779Y0006353D01*
X0012421Y0079835D02*
X0012421Y0066335D01*
X0012421Y0039335D02*
X0012421Y0039335D01*
X0069400Y0011600D02*
X0071300Y0013500D01*
Y0013618D02*
Y0021200D01*
X0069263Y0023237D02*
X0071300Y0021200D01*
X0017343Y0025835D02*
Y0039335D01*
X0017343Y0039335D02*
X0017426Y0039252D01*
X0017326Y0021526D02*
Y0025835D01*
X0012421Y0016621D02*
X0017326Y0021526D01*
X0012421Y0093335D02*
Y0106835D01*
X0012421Y0093335D02*
X0012421Y0093335D01*
X0012421Y0009079D02*
X0018026Y0003474D01*
X0042400Y0062300D02*
X0046282D01*
X0039900Y0059800D02*
X0042400Y0062300D01*
X0022200Y0059800D02*
X0039900D01*
X0012421Y0032874D02*
X0013226D01*
X0012421Y0025835D02*
Y0032874D01*
Y0039335D01*
X0012421Y0039335D02*
Y0052835D01*
Y0066335D01*
X0012421Y0009079D02*
Y0012335D01*
Y0016621D01*
X0017343Y0039335D02*
Y0046074D01*
Y0052835D01*
X0064300Y0023288D02*
X0066537Y0023237D01*
X0018026Y0003474D02*
X0069400D01*
X0113800D01*
X0142900D01*
X0069400D02*
Y0011600D01*
X0064300Y0023288D02*
Y0029480D01*
X0061600Y0034100D02*
X0065500D01*
Y0030680D02*
Y0034100D01*
Y0036500D01*
X0016826Y0046074D02*
X0017343D01*
X0017343Y0052835D02*
Y0066335D01*
Y0074300D01*
Y0079835D01*
Y0084154D01*
D23*
X0028400Y0097400D02*
X0041000D01*
X0024600Y0101200D02*
X0028400Y0097400D01*
X0150700Y0022274D02*
X0150700Y0022274D01*
X0041000Y0097400D02*
X0043600Y0100000D01*
X0007500Y0111600D02*
X0010900Y0115000D01*
X0007500Y0106835D02*
Y0111600D01*
X0145779Y0022274D02*
X0145779Y0022274D01*
X0043600Y0100000D02*
Y0109700D01*
X0007500Y0093335D02*
X0007500Y0100200D01*
X0145779Y0022274D02*
Y0029174D01*
Y0035774D01*
Y0042574D01*
Y0049274D01*
Y0056174D01*
Y0062774D01*
Y0069574D01*
Y0076274D01*
Y0083100D01*
Y0089774D01*
Y0096600D01*
Y0103274D01*
X0007226Y0032874D02*
X0007500D01*
Y0012335D02*
Y0019024D01*
Y0025835D01*
Y0032874D01*
Y0039335D01*
Y0046024D01*
Y0052835D01*
Y0060000D01*
Y0066335D01*
Y0073400D01*
Y0079835D01*
X0007500Y0086724D02*
X0007500Y0079835D01*
X0007500Y0093335D02*
X0007500Y0086724D01*
X0007500Y0100200D02*
X0007500Y0106835D01*
X0022538Y0112562D02*
X0024600Y0110500D01*
X0020100Y0115000D02*
X0022538Y0112562D01*
X0010900Y0115000D02*
X0015000D01*
X0020100D01*
X0024600Y0101200D02*
Y0105000D01*
Y0110500D01*
X0150700Y0022274D02*
Y0029174D01*
Y0035774D01*
Y0042574D01*
Y0049274D01*
Y0056174D01*
Y0062774D01*
Y0069574D01*
Y0076274D01*
Y0083100D01*
Y0089774D01*
Y0096600D01*
Y0103274D01*
D24*
X0049426Y0079874D02*
Y0085874D01*
X0054026Y0086274D02*
Y0087874D01*
X0053626Y0085874D02*
X0054026Y0086274D01*
X0049426Y0085874D02*
X0053626D01*
X0054126Y0087874D02*
Y0093426D01*
X0055300Y0094600D01*
X0059400D02*
X0063500Y0098700D01*
X0075400Y0084200D02*
Y0091000D01*
X0077300Y0092900D01*
X0077200Y0098700D02*
X0077300Y0098600D01*
Y0092900D02*
Y0098600D01*
X0078500Y0100000D02*
X0080700D01*
X0077200Y0098700D02*
X0078500Y0100000D01*
X0080700D02*
Y0105000D01*
X0055300Y0094600D02*
X0055500D01*
X0059400D01*
X0063500Y0098700D02*
X0068100D01*
X0077200D01*
D25*
X0007500Y0106835D02*
D03*
X0150700Y0089774D02*
D03*
Y0035774D02*
D03*
Y0076274D02*
D03*
Y0062774D02*
D03*
Y0103274D02*
D03*
Y0049274D02*
D03*
X0007500Y0093335D02*
D03*
X0007500Y0079835D02*
D03*
X0150700Y0022274D02*
D03*
X0007500Y0025835D02*
D03*
X0007500Y0052835D02*
D03*
Y0039335D02*
D03*
X0150700Y0008774D02*
D03*
X0108176D02*
D03*
X0007500Y0012335D02*
D03*
X0007500Y0066335D02*
D03*
D26*
X0012421Y0106835D02*
D03*
X0017342D02*
D03*
X0140858Y0089774D02*
D03*
X0145779D02*
D03*
Y0035774D02*
D03*
X0140858D02*
D03*
Y0076274D02*
D03*
X0145779D02*
D03*
Y0062774D02*
D03*
X0140858D02*
D03*
Y0103274D02*
D03*
X0145779D02*
D03*
Y0049274D02*
D03*
X0140858D02*
D03*
X0012421Y0093335D02*
D03*
X0017342D02*
D03*
X0022264D02*
D03*
X0027185Y0079835D02*
D03*
X0022264D02*
D03*
X0017343D02*
D03*
X0012421D02*
D03*
X0131015Y0022274D02*
D03*
X0135936D02*
D03*
X0140858D02*
D03*
X0145779D02*
D03*
X0012421Y0025835D02*
D03*
X0017343D02*
D03*
X0022264D02*
D03*
X0027185D02*
D03*
X0037028Y0052835D02*
D03*
X0032106D02*
D03*
X0027185D02*
D03*
X0022264D02*
D03*
X0017343D02*
D03*
X0012421Y0052835D02*
D03*
X0012421Y0039335D02*
D03*
X0017343D02*
D03*
X0022264D02*
D03*
X0027185D02*
D03*
X0032106D02*
D03*
X0037028D02*
D03*
X0121172Y0008774D02*
D03*
X0126094D02*
D03*
X0131015D02*
D03*
X0135936D02*
D03*
X0140858D02*
D03*
X0145779D02*
D03*
X0073728D02*
D03*
X0078649D02*
D03*
X0083570D02*
D03*
X0088491D02*
D03*
X0093413D02*
D03*
X0098334D02*
D03*
X0103255D02*
D03*
X0012421Y0012335D02*
D03*
X0017343D02*
D03*
X0022264D02*
D03*
X0027185D02*
D03*
X0032106D02*
D03*
X0037027D02*
D03*
X0041949D02*
D03*
X0012421Y0066335D02*
D03*
X0017343D02*
D03*
X0022264D02*
D03*
X0027185D02*
D03*
D27*
X0073700Y0071300D02*
D03*
X0082826Y0081074D02*
D03*
X0050700Y0014274D02*
D03*
X0075400Y0084200D02*
D03*
X0086600Y0050400D02*
D03*
X0022200Y0059800D02*
D03*
X0119100Y0027000D02*
D03*
X0061600Y0034100D02*
D03*
X0065500Y0036500D02*
D03*
X0103400Y0107300D02*
D03*
X0111200Y0087500D02*
D03*
X0094500Y0100600D02*
D03*
X0109600Y0099300D02*
D03*
X0108800Y0031700D02*
D03*
X0122600Y0070300D02*
D03*
X0136600Y0083200D02*
D03*
X0123700Y0107000D02*
D03*
X0130700Y0061700D02*
D03*
X0074800Y0104000D02*
D03*
X0065200Y0103100D02*
D03*
X0046282Y0062300D02*
D03*
X0118900Y0098100D02*
D03*
X0132600Y0107700D02*
D03*
X0124700Y0098100D02*
D03*
X0068600Y0027700D02*
D03*
X0100100Y0051200D02*
D03*
X0030900Y0033000D02*
D03*
X0077826Y0024474D02*
D03*
X0073700Y0094400D02*
D03*
X0134400Y0036100D02*
D03*
X0127500Y0074600D02*
D03*
X0135000Y0097300D02*
D03*
X0060200Y0062300D02*
D03*
X0094300Y0031600D02*
D03*
X0108100Y0061200D02*
D03*
X0103000Y0086800D02*
D03*
X0111300Y0052200D02*
D03*
X0080500Y0048600D02*
D03*
X0088900Y0080000D02*
D03*
X0112100Y0037600D02*
D03*
X0131200Y0032500D02*
D03*
X0115300Y0016100D02*
D03*
X0110500Y0042200D02*
D03*
X0093772Y0075500D02*
D03*
X0060600Y0008000D02*
D03*
X0035500Y0031300D02*
D03*
X0081400Y0034000D02*
D03*
X0100100Y0057800D02*
D03*
X0089500Y0031700D02*
D03*
X0089700Y0036500D02*
D03*
X0064900Y0011200D02*
D03*
X0098100Y0086800D02*
D03*
X0094900Y0062800D02*
D03*
X0060000Y0026100D02*
D03*
X0073226Y0026174D02*
D03*
D03*
X0060600Y0101500D02*
D03*
X0073200Y0108800D02*
D03*
X0104000Y0031300D02*
D03*
X0152600Y0115024D02*
D03*
X0015000Y0115000D02*
D03*
X0142500Y0115024D02*
D03*
X0005000Y0115024D02*
D03*
X0025000Y0115024D02*
D03*
Y0105000D02*
D03*
X0086600Y0058400D02*
D03*
X0150700Y0014600D02*
D03*
X0005000Y0005000D02*
D03*
X0064500Y0047600D02*
D03*
X0037794Y0065300D02*
D03*
X0032994Y0064400D02*
D03*
X0005000Y0019024D02*
D03*
Y0032874D02*
D03*
Y0046024D02*
D03*
Y0060000D02*
D03*
Y0073400D02*
D03*
Y0086724D02*
D03*
Y0100200D02*
D03*
D28*
X0059400Y0080600D02*
D03*
X0107400Y0075600D02*
D03*
Y0113600D02*
D03*
X0059400Y0094600D02*
D03*
Y0108600D02*
D03*
D29*
X0043600Y0109700D02*
D03*
D30*
X0033600D02*
D03*
M02*
