G04 #@! TF.FileFunction,Copper,L1,Top,Signal*
%FSLAX46Y46*%
G04 Gerber Fmt 4.6, Leading zero omitted, Abs format (unit mm)*
G04 Created by KiCad (PCBNEW (2015-08-03 BZR 6047)-product) date Mon 05 Oct 2015 04:51:26 PM CEST*
%MOMM*%
G01*
G04 APERTURE LIST*
%ADD10C,0.100000*%
%ADD11C,1.000000*%
%ADD12R,0.800000X0.800000*%
%ADD13R,0.797560X0.797560*%
%ADD14R,0.900000X0.500000*%
%ADD15C,0.600000*%
%ADD16C,0.250000*%
G04 APERTURE END LIST*
D10*
D11*
X103000000Y-100000000D03*
X104500000Y-100000000D03*
X106000000Y-100000000D03*
X107500000Y-100000000D03*
X109000000Y-100000000D03*
X110500000Y-100000000D03*
X112000000Y-100000000D03*
X101500000Y-98500000D03*
X113500000Y-98500000D03*
D12*
X100000000Y-88400000D03*
X100000000Y-89500000D03*
X100000000Y-90600000D03*
X100000000Y-91700000D03*
X100000000Y-92800000D03*
X100000000Y-93900000D03*
X100000000Y-95000000D03*
X100000000Y-96100000D03*
D13*
X114250000Y-92500000D03*
X114250000Y-93998600D03*
D14*
X114250000Y-88750000D03*
X114250000Y-90250000D03*
D15*
X103484355Y-94549859D03*
X109750000Y-89750000D03*
X105124993Y-94432943D03*
X106000010Y-95500000D03*
X105750000Y-91500000D03*
X103499992Y-93500000D03*
X105000000Y-89250000D03*
D16*
X103000000Y-95034214D02*
X103184356Y-94849858D01*
X103000000Y-100000000D02*
X103000000Y-95034214D01*
X103184356Y-94849858D02*
X103484355Y-94549859D01*
X109750000Y-89750000D02*
X110750000Y-88750000D01*
X110750000Y-88750000D02*
X114250000Y-88750000D01*
X105124993Y-94432943D02*
X105124993Y-97624993D01*
X105124993Y-94124993D02*
X105124993Y-94432943D01*
X103800000Y-92800000D02*
X105124993Y-94124993D01*
X107000001Y-99500001D02*
X107500000Y-100000000D01*
X100000000Y-92800000D02*
X103800000Y-92800000D01*
X105124993Y-97624993D02*
X107000001Y-99500001D01*
X106000010Y-95924264D02*
X106000010Y-95500000D01*
X106000010Y-97000010D02*
X106000010Y-95924264D01*
X109000000Y-100000000D02*
X106000010Y-97000010D01*
X100000000Y-90600000D02*
X102600000Y-90600000D01*
X102600000Y-90600000D02*
X110500000Y-98500000D01*
X110500000Y-98500000D02*
X110500000Y-99292894D01*
X110500000Y-99292894D02*
X110500000Y-100000000D01*
X114250000Y-93998600D02*
X114250000Y-94647380D01*
X114250000Y-94647380D02*
X111931106Y-96966274D01*
X111931106Y-96966274D02*
X111931106Y-97681106D01*
X112750000Y-98500000D02*
X111931106Y-97681106D01*
X111931106Y-97681106D02*
X107500000Y-93250000D01*
X107500000Y-93250000D02*
X105750000Y-91500000D01*
X113500000Y-98500000D02*
X112750000Y-98500000D01*
X101500000Y-98500000D02*
X101999999Y-98000001D01*
X101999999Y-98000001D02*
X101999999Y-95249999D01*
X101999999Y-95249999D02*
X100650000Y-93900000D01*
X100650000Y-93900000D02*
X100000000Y-93900000D01*
X106000000Y-100000000D02*
X104250000Y-98250000D01*
X104250000Y-98250000D02*
X104250000Y-94250008D01*
X104250000Y-94250008D02*
X103799991Y-93799999D01*
X103799991Y-93799999D02*
X103499992Y-93500000D01*
X105000000Y-89674264D02*
X105000000Y-89250000D01*
X112000000Y-98675002D02*
X105000000Y-91675002D01*
X105000000Y-91675002D02*
X105000000Y-89674264D01*
X112000000Y-100000000D02*
X112000000Y-98675002D01*
X114250000Y-90250000D02*
X114250000Y-92500000D01*
M02*
