G04 #@! TF.FileFunction,Legend,Bot*
%FSLAX46Y46*%
G04 Gerber Fmt 4.6, Leading zero omitted, Abs format (unit mm)*
G04 Created by KiCad (PCBNEW (2015-08-03 BZR 6047)-product) date Mon 05 Oct 2015 04:51:26 PM CEST*
%MOMM*%
G01*
G04 APERTURE LIST*
%ADD10C,0.100000*%
%ADD11C,0.200000*%
%ADD12C,0.150000*%
%ADD13C,1.400000*%
%ADD14R,1.200000X1.200000*%
%ADD15R,2.000000X1.200000*%
%ADD16R,3.400000X2.500000*%
%ADD17R,1.200000X2.940000*%
%ADD18R,1.800000X2.940000*%
G04 APERTURE END LIST*
D10*
D11*
X107095239Y-94652381D02*
X107095239Y-93652381D01*
X106857144Y-93652381D01*
X106714286Y-93700000D01*
X106619048Y-93795238D01*
X106571429Y-93890476D01*
X106523810Y-94080952D01*
X106523810Y-94223810D01*
X106571429Y-94414286D01*
X106619048Y-94509524D01*
X106714286Y-94604762D01*
X106857144Y-94652381D01*
X107095239Y-94652381D01*
X105714286Y-94604762D02*
X105809524Y-94652381D01*
X106000001Y-94652381D01*
X106095239Y-94604762D01*
X106142858Y-94509524D01*
X106142858Y-94128571D01*
X106095239Y-94033333D01*
X106000001Y-93985714D01*
X105809524Y-93985714D01*
X105714286Y-94033333D01*
X105666667Y-94128571D01*
X105666667Y-94223810D01*
X106142858Y-94319048D01*
X105095239Y-94652381D02*
X105190477Y-94604762D01*
X105238096Y-94509524D01*
X105238096Y-93652381D01*
X104857143Y-93985714D02*
X104476191Y-93985714D01*
X104714286Y-93652381D02*
X104714286Y-94509524D01*
X104666667Y-94604762D01*
X104571429Y-94652381D01*
X104476191Y-94652381D01*
X103714285Y-94652381D02*
X103714285Y-94128571D01*
X103761904Y-94033333D01*
X103857142Y-93985714D01*
X104047619Y-93985714D01*
X104142857Y-94033333D01*
X103714285Y-94604762D02*
X103809523Y-94652381D01*
X104047619Y-94652381D01*
X104142857Y-94604762D01*
X104190476Y-94509524D01*
X104190476Y-94414286D01*
X104142857Y-94319048D01*
X104047619Y-94271429D01*
X103809523Y-94271429D01*
X103714285Y-94223810D01*
X103238095Y-93985714D02*
X103238095Y-94652381D01*
X103238095Y-94080952D02*
X103190476Y-94033333D01*
X103095238Y-93985714D01*
X102952380Y-93985714D01*
X102857142Y-94033333D01*
X102809523Y-94128571D01*
X102809523Y-94652381D01*
X101904761Y-93985714D02*
X101904761Y-94795238D01*
X101952380Y-94890476D01*
X101999999Y-94938095D01*
X102095238Y-94985714D01*
X102238095Y-94985714D01*
X102333333Y-94938095D01*
X101904761Y-94604762D02*
X101999999Y-94652381D01*
X102190476Y-94652381D01*
X102285714Y-94604762D01*
X102333333Y-94557143D01*
X102380952Y-94461905D01*
X102380952Y-94176190D01*
X102333333Y-94080952D01*
X102285714Y-94033333D01*
X102190476Y-93985714D01*
X101999999Y-93985714D01*
X101904761Y-94033333D01*
X105761904Y-96252381D02*
X106095238Y-95776190D01*
X106333333Y-96252381D02*
X106333333Y-95252381D01*
X105952380Y-95252381D01*
X105857142Y-95300000D01*
X105809523Y-95347619D01*
X105761904Y-95442857D01*
X105761904Y-95585714D01*
X105809523Y-95680952D01*
X105857142Y-95728571D01*
X105952380Y-95776190D01*
X106333333Y-95776190D01*
X105333333Y-95871429D02*
X104571428Y-95871429D01*
X104190476Y-95252381D02*
X103571428Y-95252381D01*
X103904762Y-95633333D01*
X103761904Y-95633333D01*
X103666666Y-95680952D01*
X103619047Y-95728571D01*
X103571428Y-95823810D01*
X103571428Y-96061905D01*
X103619047Y-96157143D01*
X103666666Y-96204762D01*
X103761904Y-96252381D01*
X104047619Y-96252381D01*
X104142857Y-96204762D01*
X104190476Y-96157143D01*
X102619047Y-96252381D02*
X103190476Y-96252381D01*
X102904762Y-96252381D02*
X102904762Y-95252381D01*
X103000000Y-95395238D01*
X103095238Y-95490476D01*
X103190476Y-95538095D01*
D12*
X109550000Y-90725000D02*
X111250000Y-90725000D01*
X111250000Y-90725000D02*
X111250000Y-87525000D01*
X111250000Y-87525000D02*
X115150000Y-87525000D01*
X115150000Y-87525000D02*
X115150000Y-96975000D01*
X115150000Y-96975000D02*
X111250000Y-96975000D01*
X111250000Y-96975000D02*
X111250000Y-95975000D01*
X109050000Y-91625000D02*
X108550000Y-91125000D01*
X108550000Y-91125000D02*
X108550000Y-92125000D01*
X108550000Y-92125000D02*
X109050000Y-91625000D01*
X101150000Y-89550000D02*
X101750000Y-89550000D01*
X107950000Y-89550000D02*
X108550000Y-89550000D01*
X108250000Y-89250000D02*
X108250000Y-89850000D01*
X108950000Y-88650000D02*
G75*
G03X108950000Y-88650000I-300000J0D01*
G01*
X108050000Y-88650000D02*
G75*
G03X108050000Y-88650000I-300000J0D01*
G01*
X106750000Y-88650000D02*
G75*
G03X106750000Y-88650000I-300000J0D01*
G01*
X101750000Y-88650000D02*
G75*
G03X101750000Y-88650000I-300000J0D01*
G01*
X109250000Y-97050000D02*
X100650000Y-97050000D01*
X109250000Y-97050000D02*
X109250000Y-87850000D01*
X100650000Y-87850000D02*
X109250000Y-87850000D01*
X100650000Y-97050000D02*
X100650000Y-87850000D01*
X113702381Y-91511905D02*
X112702381Y-91511905D01*
X112702381Y-91892858D01*
X112750000Y-91988096D01*
X112797619Y-92035715D01*
X112892857Y-92083334D01*
X113035714Y-92083334D01*
X113130952Y-92035715D01*
X113178571Y-91988096D01*
X113226190Y-91892858D01*
X113226190Y-91511905D01*
X112702381Y-92416667D02*
X112702381Y-93035715D01*
X113083333Y-92702381D01*
X113083333Y-92845239D01*
X113130952Y-92940477D01*
X113178571Y-92988096D01*
X113273810Y-93035715D01*
X113511905Y-93035715D01*
X113607143Y-92988096D01*
X113654762Y-92940477D01*
X113702381Y-92845239D01*
X113702381Y-92559524D01*
X113654762Y-92464286D01*
X113607143Y-92416667D01*
X106654762Y-89916667D02*
X106702381Y-89821429D01*
X106702381Y-89630952D01*
X106654762Y-89535714D01*
X106607143Y-89488095D01*
X106511905Y-89440476D01*
X106226190Y-89440476D01*
X106130952Y-89488095D01*
X106083333Y-89535714D01*
X106035714Y-89630952D01*
X106035714Y-89821429D01*
X106083333Y-89916667D01*
X106035714Y-90345238D02*
X107035714Y-90345238D01*
X106083333Y-90345238D02*
X106035714Y-90440476D01*
X106035714Y-90630953D01*
X106083333Y-90726191D01*
X106130952Y-90773810D01*
X106226190Y-90821429D01*
X106511905Y-90821429D01*
X106607143Y-90773810D01*
X106654762Y-90726191D01*
X106702381Y-90630953D01*
X106702381Y-90440476D01*
X106654762Y-90345238D01*
X106035714Y-91250000D02*
X107035714Y-91250000D01*
X106083333Y-91250000D02*
X106035714Y-91345238D01*
X106035714Y-91535715D01*
X106083333Y-91630953D01*
X106130952Y-91678572D01*
X106226190Y-91726191D01*
X106511905Y-91726191D01*
X106607143Y-91678572D01*
X106654762Y-91630953D01*
X106702381Y-91535715D01*
X106702381Y-91345238D01*
X106654762Y-91250000D01*
X106702381Y-92154762D02*
X106035714Y-92154762D01*
X106130952Y-92154762D02*
X106083333Y-92202381D01*
X106035714Y-92297619D01*
X106035714Y-92440477D01*
X106083333Y-92535715D01*
X106178571Y-92583334D01*
X106702381Y-92583334D01*
X106178571Y-92583334D02*
X106083333Y-92630953D01*
X106035714Y-92726191D01*
X106035714Y-92869048D01*
X106083333Y-92964286D01*
X106178571Y-93011905D01*
X106702381Y-93011905D01*
%LPC*%
D13*
X103000000Y-100000000D03*
X104500000Y-100000000D03*
X106000000Y-100000000D03*
X107500000Y-100000000D03*
X109000000Y-100000000D03*
X110500000Y-100000000D03*
X112000000Y-100000000D03*
X101500000Y-98500000D03*
X113500000Y-98500000D03*
D14*
X100000000Y-88400000D03*
X100000000Y-89500000D03*
X100000000Y-90600000D03*
X100000000Y-91700000D03*
X100000000Y-92800000D03*
X100000000Y-93900000D03*
X100000000Y-95000000D03*
X100000000Y-96100000D03*
D15*
X110350000Y-91625000D03*
X110350000Y-92875000D03*
D16*
X113250000Y-89075000D03*
X113250000Y-95425000D03*
D17*
X101450000Y-87750000D03*
X106450000Y-87750000D03*
D18*
X108250000Y-87750000D03*
M02*
