G04 #@! TF.FileFunction,Legend,Top*
%FSLAX46Y46*%
G04 Gerber Fmt 4.6, Leading zero omitted, Abs format (unit mm)*
G04 Created by KiCad (PCBNEW (2015-08-03 BZR 6047)-product) date Mon 05 Oct 2015 04:51:26 PM CEST*
%MOMM*%
G01*
G04 APERTURE LIST*
%ADD10C,0.100000*%
%ADD11C,0.200000*%
%ADD12C,0.150000*%
%ADD13C,1.400000*%
%ADD14R,1.200000X1.200000*%
%ADD15R,1.197560X1.197560*%
%ADD16R,1.300000X0.900000*%
G04 APERTURE END LIST*
D10*
D11*
X103261905Y-98702381D02*
X102785714Y-98702381D01*
X102785714Y-97702381D01*
X103595238Y-98702381D02*
X103595238Y-98035714D01*
X103595238Y-97702381D02*
X103547619Y-97750000D01*
X103595238Y-97797619D01*
X103642857Y-97750000D01*
X103595238Y-97702381D01*
X103595238Y-97797619D01*
X104023809Y-98654762D02*
X104119047Y-98702381D01*
X104309523Y-98702381D01*
X104404762Y-98654762D01*
X104452381Y-98559524D01*
X104452381Y-98511905D01*
X104404762Y-98416667D01*
X104309523Y-98369048D01*
X104166666Y-98369048D01*
X104071428Y-98321429D01*
X104023809Y-98226190D01*
X104023809Y-98178571D01*
X104071428Y-98083333D01*
X104166666Y-98035714D01*
X104309523Y-98035714D01*
X104404762Y-98083333D01*
X105309524Y-98702381D02*
X105309524Y-98178571D01*
X105261905Y-98083333D01*
X105166667Y-98035714D01*
X104976190Y-98035714D01*
X104880952Y-98083333D01*
X105309524Y-98654762D02*
X105214286Y-98702381D01*
X104976190Y-98702381D01*
X104880952Y-98654762D01*
X104833333Y-98559524D01*
X104833333Y-98464286D01*
X104880952Y-98369048D01*
X104976190Y-98321429D01*
X105214286Y-98321429D01*
X105309524Y-98273810D01*
X106500000Y-97654762D02*
X105642857Y-98940476D01*
X106785714Y-98654762D02*
X106928571Y-98702381D01*
X107166667Y-98702381D01*
X107261905Y-98654762D01*
X107309524Y-98607143D01*
X107357143Y-98511905D01*
X107357143Y-98416667D01*
X107309524Y-98321429D01*
X107261905Y-98273810D01*
X107166667Y-98226190D01*
X106976190Y-98178571D01*
X106880952Y-98130952D01*
X106833333Y-98083333D01*
X106785714Y-97988095D01*
X106785714Y-97892857D01*
X106833333Y-97797619D01*
X106880952Y-97750000D01*
X106976190Y-97702381D01*
X107214286Y-97702381D01*
X107357143Y-97750000D01*
X107785714Y-98702381D02*
X107785714Y-97702381D01*
X108023809Y-97702381D01*
X108166667Y-97750000D01*
X108261905Y-97845238D01*
X108309524Y-97940476D01*
X108357143Y-98130952D01*
X108357143Y-98273810D01*
X108309524Y-98464286D01*
X108261905Y-98559524D01*
X108166667Y-98654762D01*
X108023809Y-98702381D01*
X107785714Y-98702381D01*
X109452381Y-98035714D02*
X109690476Y-98702381D01*
X109928572Y-98035714D01*
X110833334Y-98702381D02*
X110261905Y-98702381D01*
X110547619Y-98702381D02*
X110547619Y-97702381D01*
X110452381Y-97845238D01*
X110357143Y-97940476D01*
X110261905Y-97988095D01*
X111261905Y-98607143D02*
X111309524Y-98654762D01*
X111261905Y-98702381D01*
X111214286Y-98654762D01*
X111261905Y-98607143D01*
X111261905Y-98702381D01*
X111928571Y-97702381D02*
X112023810Y-97702381D01*
X112119048Y-97750000D01*
X112166667Y-97797619D01*
X112214286Y-97892857D01*
X112261905Y-98083333D01*
X112261905Y-98321429D01*
X112214286Y-98511905D01*
X112166667Y-98607143D01*
X112119048Y-98654762D01*
X112023810Y-98702381D01*
X111928571Y-98702381D01*
X111833333Y-98654762D01*
X111785714Y-98607143D01*
X111738095Y-98511905D01*
X111690476Y-98321429D01*
X111690476Y-98083333D01*
X111738095Y-97892857D01*
X111785714Y-97797619D01*
X111833333Y-97750000D01*
X111928571Y-97702381D01*
D12*
X107700000Y-86100000D02*
X112900000Y-86100000D01*
X104300000Y-86100000D02*
X105800000Y-86100000D01*
X105800000Y-86800000D02*
X107000000Y-86800000D01*
X107000000Y-86800000D02*
X107700000Y-86100000D01*
X105800000Y-86100000D02*
X105800000Y-86800000D01*
X104300000Y-86100000D02*
X103000000Y-87400000D01*
X103000000Y-87400000D02*
X97900000Y-87400000D01*
X97900000Y-97100000D02*
X97900000Y-87400000D01*
X97900000Y-97100000D02*
X112900000Y-97100000D01*
X112900000Y-97100000D02*
X112900000Y-86100000D01*
X114800000Y-94349300D02*
X114800000Y-92449300D01*
X113700000Y-94349300D02*
X113700000Y-92449300D01*
X114250000Y-93449300D02*
X114250000Y-92999300D01*
X114000000Y-93499300D02*
X114500000Y-93499300D01*
X114250000Y-93499300D02*
X114000000Y-93249300D01*
X114000000Y-93249300D02*
X114500000Y-93249300D01*
X114500000Y-93249300D02*
X114250000Y-93499300D01*
X113575000Y-90000000D02*
X113575000Y-89000000D01*
X114925000Y-89000000D02*
X114925000Y-90000000D01*
X112452381Y-93988095D02*
X111452381Y-93988095D01*
X111452381Y-93750000D01*
X111500000Y-93607142D01*
X111595238Y-93511904D01*
X111690476Y-93464285D01*
X111880952Y-93416666D01*
X112023810Y-93416666D01*
X112214286Y-93464285D01*
X112309524Y-93511904D01*
X112404762Y-93607142D01*
X112452381Y-93750000D01*
X112452381Y-93988095D01*
X112452381Y-92464285D02*
X112452381Y-93035714D01*
X112452381Y-92750000D02*
X111452381Y-92750000D01*
X111595238Y-92845238D01*
X111690476Y-92940476D01*
X111738095Y-93035714D01*
X112452381Y-89666666D02*
X111976190Y-90000000D01*
X112452381Y-90238095D02*
X111452381Y-90238095D01*
X111452381Y-89857142D01*
X111500000Y-89761904D01*
X111547619Y-89714285D01*
X111642857Y-89666666D01*
X111785714Y-89666666D01*
X111880952Y-89714285D01*
X111928571Y-89761904D01*
X111976190Y-89857142D01*
X111976190Y-90238095D01*
X112452381Y-88714285D02*
X112452381Y-89285714D01*
X112452381Y-89000000D02*
X111452381Y-89000000D01*
X111595238Y-89095238D01*
X111690476Y-89190476D01*
X111738095Y-89285714D01*
%LPC*%
D13*
X103000000Y-100000000D03*
X104500000Y-100000000D03*
X106000000Y-100000000D03*
X107500000Y-100000000D03*
X109000000Y-100000000D03*
X110500000Y-100000000D03*
X112000000Y-100000000D03*
X101500000Y-98500000D03*
X113500000Y-98500000D03*
D14*
X100000000Y-88400000D03*
X100000000Y-89500000D03*
X100000000Y-90600000D03*
X100000000Y-91700000D03*
X100000000Y-92800000D03*
X100000000Y-93900000D03*
X100000000Y-95000000D03*
X100000000Y-96100000D03*
D15*
X114250000Y-92500000D03*
X114250000Y-93998600D03*
D16*
X114250000Y-88750000D03*
X114250000Y-90250000D03*
M02*
