M48
INCH,TZ
T1C0.016
T2C0.020
%
G90
G05
T1
X4.0742Y-3.7224
X4.0748Y-3.6811
X4.1339Y-3.5138
X4.1388Y-3.7178
X4.1634Y-3.6024
X4.1732Y-3.7598
X4.3209Y-3.5335
T2
X3.937Y-3.4803
X3.937Y-3.5236
X3.937Y-3.5669
X3.937Y-3.6102
X3.937Y-3.6535
X3.937Y-3.6969
X3.937Y-3.7402
X3.937Y-3.7835
X3.9961Y-3.878
X4.0551Y-3.937
X4.1142Y-3.937
X4.1732Y-3.937
X4.2323Y-3.937
X4.2913Y-3.937
X4.3504Y-3.937
X4.4094Y-3.937
X4.4685Y-3.878
T0
M30
