%FSAX25Y25*%
%MOIN*%
G70*
G01*
G75*
%ADD10C,0.00800*%
%ADD11R,0.04724X0.03543*%
%ADD12O,0.05512X0.01102*%
%ADD13R,0.05512X0.01102*%
%ADD14O,0.01102X0.05512*%
%ADD15O,0.05512X0.01102*%
%ADD16R,0.02362X0.03150*%
%ADD17R,0.03543X0.03150*%
%ADD18R,0.03150X0.03543*%
%ADD19R,0.03150X0.03150*%
%ADD20R,0.03150X0.03543*%
%ADD21O,0.04331X0.01575*%
%ADD22R,0.04331X0.01575*%
%ADD23C,0.04000*%
%ADD24C,0.01500*%
%ADD25C,0.03000*%
%ADD26C,0.06299*%
%ADD27R,0.15000X0.07000*%
%ADD28O,0.15000X0.07000*%
%ADD29C,0.07000*%
%ADD30O,0.06000X0.04000*%
%ADD31C,0.04000*%
%ADD32R,0.06000X0.04000*%
D10*
X0115859Y0111004D02*
G03*
X0114726Y0111474I-0001133J-0001130D01*
G01*
X0115857Y0111005D02*
G03*
X0114726Y0111474I-0001131J-0001131D01*
G01*
X0121700Y0104500D02*
G03*
X0121231Y0105631I-0001600J0000000D01*
G01*
X0121700Y0104500D02*
G03*
X0121230Y0105633I-0001600J0000000D01*
G01*
X0111035Y0145779D02*
G03*
X0110533Y0147500I-0003200J0000000D01*
G01*
X0109881Y0143318D02*
G03*
X0111035Y0145779I-0002046J0002461D01*
G01*
Y0140858D02*
G03*
X0109881Y0143318I-0003200J0000000D01*
G01*
X0108402Y0137708D02*
G03*
X0111035Y0140858I-0000566J0003150D01*
G01*
X0111407Y0111474D02*
G03*
X0112574Y0114574I-0003533J0003100D01*
G01*
G03*
X0107874Y0119274I-0004700J0000000D01*
G01*
X0213418Y0079100D02*
G03*
X0213418Y0079100I-0007900J0000000D01*
G01*
X0121231Y0075795D02*
G03*
X0121700Y0076926I-0001131J0001131D01*
G01*
X0121230Y0075793D02*
G03*
X0121700Y0076926I-0001130J0001133D01*
G01*
X0113100Y0067800D02*
G03*
X0112630Y0068933I-0001600J0000000D01*
G01*
X0113100Y0067800D02*
G03*
X0112631Y0068931I-0001600J0000000D01*
G01*
X0120531Y0063169D02*
G03*
X0121000Y0064300I-0001131J0001131D01*
G01*
X0120530Y0063167D02*
G03*
X0121000Y0064300I-0001130J0001133D01*
G01*
X0118849Y0062007D02*
G03*
X0119831Y0062469I-0000149J0001593D01*
G01*
X0118849Y0062007D02*
G03*
X0119833Y0062470I-0000149J0001593D01*
G01*
X0111700Y0060000D02*
G03*
X0112005Y0060029I0000000J0001600D01*
G01*
X0111700Y0060000D02*
G03*
X0112005Y0060029I0000000J0001600D01*
G01*
X0112000Y0057819D02*
G03*
X0109334Y0055372I0001600J-0004419D01*
G01*
X0107967Y0136904D02*
G03*
X0108402Y0137708I-0001131J0001131D01*
G01*
X0107965Y0136903D02*
G03*
X0108402Y0137708I-0001130J0001133D01*
G01*
X0103532Y0143079D02*
G03*
X0104491Y0137954I0002303J-0002221D01*
G01*
X0101100Y0130700D02*
G03*
X0102233Y0131170I0000000J0001600D01*
G01*
X0101100Y0130700D02*
G03*
X0102231Y0131169I0000000J0001600D01*
G01*
X0097535Y0140858D02*
G03*
X0096639Y0143079I-0003200J0000000D01*
G01*
X0096381Y0138397D02*
G03*
X0097535Y0140858I-0002046J0002461D01*
G01*
Y0135936D02*
G03*
X0096381Y0138397I-0003200J0000000D01*
G01*
X0096804Y0133900D02*
G03*
X0097535Y0135936I-0002468J0002036D01*
G01*
X0099874Y0119274D02*
G03*
X0096341Y0111474I0000000J-0004700D01*
G01*
X0104649Y0098855D02*
G03*
X0107162Y0096925I0003951J0002545D01*
G01*
X0106870Y0096633D02*
G03*
X0106420Y0095749I0001130J-0001133D01*
G01*
X0106869Y0096631D02*
G03*
X0106420Y0095749I0001131J-0001131D01*
G01*
X0106400Y0089297D02*
G03*
X0105254Y0090199I-0002500J-0001997D01*
G01*
X0102546D02*
G03*
X0100712Y0087574I0001354J-0002899D01*
G01*
X0097100Y0089300D02*
G03*
X0096971Y0090199I-0003200J0000000D01*
G01*
X0090649Y0098855D02*
G03*
X0099099Y0100041I0003951J0002545D01*
G01*
X0092074Y0105363D02*
G03*
X0090649Y0103945I0002526J-0003963D01*
G01*
X0096595Y0087574D02*
G03*
X0097100Y0089300I-0002695J0001726D01*
G01*
X0118300Y0053400D02*
G03*
X0115705Y0057602I-0004700J0000000D01*
G01*
X0109775Y0050669D02*
G03*
X0118300Y0053400I0003825J0002731D01*
G01*
X0116700Y0044700D02*
G03*
X0112617Y0047776I-0003200J0000000D01*
G01*
G03*
X0111800Y0048000I-0000817J-0001376D01*
G01*
X0112617Y0047776D02*
G03*
X0111800Y0048000I-0000817J-0001376D01*
G01*
X0121660Y0041131D02*
G03*
X0119672Y0043118I-0001987J0000000D01*
G01*
X0121193Y0039851D02*
G03*
X0121660Y0041131I-0001521J0001280D01*
G01*
Y0038572D02*
G03*
X0121193Y0039851I-0001987J0000000D01*
G01*
Y0037292D02*
G03*
X0121660Y0038572I-0001521J0001280D01*
G01*
Y0036013D02*
G03*
X0121193Y0037292I-0001987J0000000D01*
G01*
Y0034733D02*
G03*
X0121660Y0036013I-0001521J0001280D01*
G01*
Y0033454D02*
G03*
X0121193Y0034733I-0001987J0000000D01*
G01*
X0121193Y0032174D02*
G03*
X0121660Y0033454I-0001521J0001280D01*
G01*
Y0030895D02*
G03*
X0121193Y0032174I-0001987J0000000D01*
G01*
X0116202Y0042985D02*
G03*
X0116700Y0044700I-0002702J0001715D01*
G01*
X0116917Y0043118D02*
G03*
X0116202Y0042985I0000000J-0001987D01*
G01*
X0100423Y0043428D02*
G03*
X0100727Y0042731I0001577J0000272D01*
G01*
X0100423Y0043428D02*
G03*
X0100727Y0042731I0001577J0000272D01*
G01*
X0114959Y0033796D02*
G03*
X0115396Y0032174I0001958J-0000343D01*
G01*
G03*
X0115396Y0029615I0001521J-0001280D01*
G01*
X0100614Y0035023D02*
G03*
X0105598Y0031275I0002060J-0002449D01*
G01*
X0091900Y0054000D02*
G03*
X0091513Y0055525I-0003200J0000000D01*
G01*
X0091112Y0045112D02*
G03*
X0092245Y0045582I0000000J0001600D01*
G01*
X0091112Y0045112D02*
G03*
X0092243Y0045581I0000000J0001600D01*
G01*
X0099219Y0036013D02*
G03*
X0099165Y0036472I-0001987J0000000D01*
G01*
X0098752Y0034733D02*
G03*
X0099219Y0036013I-0001521J0001280D01*
G01*
Y0033454D02*
G03*
X0098752Y0034733I-0001987J0000000D01*
G01*
X0098752Y0032174D02*
G03*
X0099219Y0033454I-0001521J0001280D01*
G01*
X0092572Y0039143D02*
G03*
X0092489Y0038644I0001903J-0000572D01*
G01*
G03*
X0092046Y0038781I-0000690J-0001444D01*
G01*
X0092489Y0038644D02*
G03*
X0092046Y0038781I-0000690J-0001444D01*
G01*
X0121193Y0029615D02*
G03*
X0121660Y0030895I-0001521J0001280D01*
G01*
Y0028335D02*
G03*
X0121193Y0029615I-0001987J0000000D01*
G01*
Y0027056D02*
G03*
X0121660Y0028335I-0001521J0001280D01*
G01*
Y0025776D02*
G03*
X0121193Y0027056I-0001987J0000000D01*
G01*
Y0024497D02*
G03*
X0121660Y0025776I-0001521J0001280D01*
G01*
X0115396Y0029615D02*
G03*
X0115252Y0027250I0001521J-0001280D01*
G01*
G03*
X0114774Y0026936I0000624J-0001473D01*
G01*
X0115252Y0027250D02*
G03*
X0114774Y0026936I0000624J-0001473D01*
G01*
X0121660Y0023217D02*
G03*
X0121193Y0024497I-0001987J0000000D01*
G01*
X0119672Y0021230D02*
G03*
X0121660Y0023217I0000000J0001987D01*
G01*
X0116474Y0021280D02*
G03*
X0116917Y0021230I0000442J0001938D01*
G01*
X0105598Y0031275D02*
G03*
X0109874Y0030463I0002576J0001899D01*
G01*
X0106970Y0021259D02*
G03*
X0106500Y0020126I0001130J-0001133D01*
G01*
X0106969Y0021257D02*
G03*
X0106500Y0020126I0001131J-0001131D01*
G01*
X0118100Y0015100D02*
G03*
X0116479Y0017884I-0003200J0000000D01*
G01*
X0113279Y0017859D02*
G03*
X0118100Y0015100I0001621J-0002759D01*
G01*
X0110931Y0002969D02*
G03*
X0111400Y0004100I-0001131J0001131D01*
G01*
X0110930Y0002967D02*
G03*
X0111400Y0004100I-0001130J0001133D01*
G01*
X0099219Y0030895D02*
G03*
X0098752Y0032174I-0001987J0000000D01*
G01*
X0098752Y0029615D02*
G03*
X0099219Y0030895I-0001521J0001280D01*
G01*
Y0028335D02*
G03*
X0098752Y0029615I-0001987J0000000D01*
G01*
Y0027056D02*
G03*
X0099219Y0028335I-0001521J0001280D01*
G01*
Y0025776D02*
G03*
X0098752Y0027056I-0001987J0000000D01*
G01*
Y0024497D02*
G03*
X0099219Y0025776I-0001521J0001280D01*
G01*
Y0023217D02*
G03*
X0098752Y0024497I-0001987J0000000D01*
G01*
X0092046Y0032131D02*
G03*
X0092465Y0031928I0000901J0001322D01*
G01*
X0092046Y0032131D02*
G03*
X0092465Y0031928I0000901J0001322D01*
G01*
X0097232Y0021230D02*
G03*
X0099219Y0023217I0000000J0001987D01*
G01*
X0092521Y0022858D02*
G03*
X0094476Y0021230I0001955J0000359D01*
G01*
X0106500Y0019641D02*
G03*
X0104274Y0020542I-0002226J-0002299D01*
G01*
X0102274D02*
G03*
X0099259Y0016272I0000000J-0003200D01*
G01*
G03*
X0099375Y0015988I0003015J0001071D01*
G01*
G03*
X0099576Y0015621I0002899J0001354D01*
G01*
X0093974Y0017342D02*
G03*
X0091374Y0020486I-0003200J0000000D01*
G01*
X0093472Y0015621D02*
G03*
X0093974Y0017342I-0002698J0001721D01*
G01*
X0089076Y0148479D02*
G03*
X0087166Y0147688I0000000J-0002700D01*
G01*
X0089076Y0148479D02*
G03*
X0087166Y0147688I0000000J-0002700D01*
G01*
X0084035Y0145779D02*
G03*
X0083533Y0147500I-0003200J0000000D01*
G01*
X0083528Y0144050D02*
G03*
X0084035Y0145779I-0002692J0001729D01*
G01*
X0062638Y0147500D02*
G03*
X0063032Y0143558I0002698J-0001721D01*
G01*
X0086379Y0090999D02*
G03*
X0086957Y0086874I0002695J-0001725D01*
G01*
X0085099Y0100041D02*
G03*
X0085287Y0101046I-0004499J0001359D01*
G01*
X0084972Y0099674D02*
G03*
X0085099Y0100041I-0004372J0001726D01*
G01*
X0082793Y0096944D02*
G03*
X0083926Y0096474I0001133J0001130D01*
G01*
X0082795Y0096943D02*
G03*
X0083926Y0096474I0001131J0001131D01*
G01*
X0086957Y0086874D02*
G03*
X0087647Y0081610I0002117J-0002400D01*
G01*
X0084274Y0075374D02*
G03*
X0084165Y0076202I-0003200J0000000D01*
G01*
X0084256Y0075037D02*
G03*
X0084274Y0075374I-0003182J0000337D01*
G01*
X0084700Y0075100D02*
G03*
X0084256Y0075037I0000000J-0001600D01*
G01*
X0084700Y0075100D02*
G03*
X0084256Y0075037I0000000J-0001600D01*
G01*
X0085099Y0102759D02*
G03*
X0082246Y0105802I-0004499J-0001359D01*
G01*
X0078954D02*
G03*
X0082594Y0097144I0001646J-0004402D01*
G01*
X0080117Y0095320D02*
G03*
X0078984Y0095790I-0001133J-0001130D01*
G01*
X0080115Y0095321D02*
G03*
X0078984Y0095790I-0001131J-0001131D01*
G01*
X0082574Y0092200D02*
G03*
X0082104Y0093333I-0001600J0000000D01*
G01*
X0082574Y0092200D02*
G03*
X0082105Y0093331I-0001600J0000000D01*
G01*
X0057035Y0145779D02*
G03*
X0056533Y0147500I-0003200J0000000D01*
G01*
X0018478Y0147688D02*
G03*
X0016569Y0148479I-0001909J-0001909D01*
G01*
X0018478Y0147688D02*
G03*
X0016569Y0148479I-0001909J-0001909D01*
G01*
X0007679Y0148479D02*
G03*
X0005770Y0147688I-0000000J-0002700D01*
G01*
X0007679Y0148479D02*
G03*
X0005770Y0147688I0000000J-0002700D01*
G01*
X0060167Y0092775D02*
G03*
X0060200Y0093100I-0001567J0000325D01*
G01*
X0060167Y0092775D02*
G03*
X0060200Y0093100I-0001567J0000325D01*
G01*
X0060028Y0092379D02*
G03*
X0060167Y0092775I-0001428J0000721D01*
G01*
X0060028Y0092379D02*
G03*
X0060167Y0092775I-0001428J0000721D01*
G01*
X0059731Y0091969D02*
G03*
X0060028Y0092379I-0001131J0001131D01*
G01*
X0059730Y0091967D02*
G03*
X0060028Y0092379I-0001130J0001133D01*
G01*
X0059815Y0087570D02*
G03*
X0058462Y0087833I-0000984J-0001448D01*
G01*
Y0080000D02*
G03*
X0059815Y0080263I0000368J0001712D01*
G01*
X0056139Y0143558D02*
G03*
X0057035Y0145779I-0002303J0002221D01*
G01*
X0050862Y0079963D02*
G03*
X0051399Y0080018I0000094J0001749D01*
G01*
G03*
X0051794Y0079369I0001526J0000482D01*
G01*
X0051399Y0080018D02*
G03*
X0051795Y0079367I0001526J0000482D01*
G01*
X0059370Y0079695D02*
G03*
X0058900Y0078563I0001130J-0001133D01*
G01*
X0059369Y0079694D02*
G03*
X0058900Y0078563I0001131J-0001131D01*
G01*
Y0074300D02*
G03*
X0059370Y0073167I0001600J0000000D01*
G01*
X0058900Y0074300D02*
G03*
X0059369Y0073169I0001600J0000000D01*
G01*
X0059400Y0071400D02*
G03*
X0058931Y0072531I-0001600J0000000D01*
G01*
X0059400Y0071400D02*
G03*
X0058930Y0072533I-0001600J0000000D01*
G01*
X0051800Y0077700D02*
G03*
X0050862Y0079963I-0003200J0000000D01*
G01*
X0047858Y0091521D02*
G03*
X0047388Y0090388I0001130J-0001133D01*
G01*
X0047857Y0091519D02*
G03*
X0047388Y0090388I0001131J-0001131D01*
G01*
X0022138Y0147500D02*
G03*
X0022194Y0143973I0002698J-0001721D01*
G01*
X0047388Y0087833D02*
G03*
X0046035Y0087570I-0000368J-0001712D01*
G01*
Y0080263D02*
G03*
X0046439Y0080060I0000984J0001448D01*
G01*
X0046035Y0087570D02*
G03*
X0044600Y0087813I-0000984J-0001448D01*
G01*
X0044067Y0080263D02*
G03*
X0046035Y0080263I0000984J0001448D01*
G01*
X0046439Y0080060D02*
G03*
X0051800Y0077700I0002161J-0002360D01*
G01*
X0042714Y0080000D02*
G03*
X0044067Y0080263I0000368J0001712D01*
G01*
X0086575Y0051608D02*
G03*
X0091900Y0054000I0002125J0002392D01*
G01*
X0079115Y0050280D02*
G03*
X0080300Y0053400I-0003515J0003120D01*
G01*
X0072331Y0057142D02*
G03*
X0072656Y0057393I-0000808J0001381D01*
G01*
X0072331Y0057142D02*
G03*
X0072654Y0057392I-0000808J0001381D01*
G01*
X0080300Y0053400D02*
G03*
X0072407Y0056849I-0004700J0000000D01*
G01*
G03*
X0072331Y0057142I-0001726J-0000295D01*
G01*
X0064823Y0055570D02*
G03*
X0064823Y0053602I0001448J-0000984D01*
G01*
G03*
X0064823Y0051633I0001448J-0000984D01*
G01*
G03*
X0064823Y0049665I0001448J-0000984D01*
G01*
G03*
X0064534Y0048463I0001448J-0000984D01*
G01*
X0064031Y0048569D02*
G03*
X0064500Y0049700I-0001131J0001131D01*
G01*
X0064030Y0048567D02*
G03*
X0064500Y0049700I-0001130J0001133D01*
G01*
X0061900Y0047100D02*
G03*
X0063033Y0047570I0000000J0001600D01*
G01*
X0061900Y0047100D02*
G03*
X0063031Y0047569I0000000J0001600D01*
G01*
X0060800Y0067414D02*
G03*
X0059400Y0069071I-0003000J-0001114D01*
G01*
X0063333Y0046630D02*
G03*
X0062200Y0047100I-0001133J-0001130D01*
G01*
X0063331Y0046631D02*
G03*
X0062200Y0047100I-0001131J-0001131D01*
G01*
X0057700D02*
G03*
X0056569Y0046631I0000000J-0001600D01*
G01*
X0057700Y0047100D02*
G03*
X0056567Y0046630I0000000J-0001600D01*
G01*
X0050588Y0044136D02*
G03*
X0055400Y0046900I0001612J0002764D01*
G01*
X0053764Y0043826D02*
G03*
X0053314Y0042947I0001130J-0001133D01*
G01*
X0053762Y0043825D02*
G03*
X0053314Y0042947I0001131J-0001131D01*
G01*
X0082331Y0042131D02*
G03*
X0081199Y0041662I0000000J-0001600D01*
G01*
X0082331Y0042131D02*
G03*
X0081198Y0041661I0000000J-0001600D01*
G01*
X0080731Y0027469D02*
G03*
X0081200Y0028600I-0001131J0001131D01*
G01*
X0080730Y0027467D02*
G03*
X0081200Y0028600I-0001130J0001133D01*
G01*
X0072200Y0026600D02*
G03*
X0073333Y0027070I0000000J0001600D01*
G01*
X0069600Y0039700D02*
G03*
X0069131Y0040831I-0001600J0000000D01*
G01*
X0069600Y0039700D02*
G03*
X0069130Y0040833I-0001600J0000000D01*
G01*
X0055878Y0035381D02*
G03*
X0056659Y0035091I0000984J0001448D01*
G01*
X0053909Y0035381D02*
G03*
X0055878Y0035381I0000984J0001448D01*
G01*
X0053314Y0042947D02*
G03*
X0051941Y0042688I-0000389J-0001708D01*
G01*
G03*
X0050588Y0042951I-0000984J-0001448D01*
G01*
X0051941Y0035381D02*
G03*
X0053909Y0035381I0000984J0001448D01*
G01*
X0049972D02*
G03*
X0051941Y0035381I0000984J0001448D01*
G01*
X0056570Y0035002D02*
G03*
X0056100Y0033869I0001130J-0001133D01*
G01*
X0056569Y0035001D02*
G03*
X0056100Y0033869I0001131J-0001131D01*
G01*
X0072200Y0026600D02*
G03*
X0073331Y0027069I0000000J0001600D01*
G01*
X0056575Y0027704D02*
G03*
X0060225Y0028734I0001125J0002996D01*
G01*
X0059837Y0023800D02*
G03*
X0058706Y0023331I0000000J-0001600D01*
G01*
X0059837Y0023800D02*
G03*
X0058705Y0023330I0000000J-0001600D01*
G01*
X0051598Y0067860D02*
G03*
X0049270Y0066193I0000502J-0003160D01*
G01*
X0033043Y0042979D02*
G03*
X0032256Y0042688I0000197J-0001740D01*
G01*
X0030978Y0046701D02*
G03*
X0033043Y0042979I0003122J-0000701D01*
G01*
X0032256Y0042688D02*
G03*
X0029520Y0041239I-0000984J-0001448D01*
G01*
X0029200Y0047189D02*
G03*
X0030978Y0046701I0001700J0002711D01*
G01*
X0028731Y0044369D02*
G03*
X0029200Y0045500I-0001131J0001131D01*
G01*
X0028730Y0044367D02*
G03*
X0029200Y0045500I-0001130J0001133D01*
G01*
X0026239Y0042538D02*
G03*
X0027370Y0043007I0000000J0001600D01*
G01*
X0026239Y0042538D02*
G03*
X0027371Y0043009I0000000J0001600D01*
G01*
X0048433Y0035169D02*
G03*
X0049972Y0035381I0000555J0001661D01*
G01*
X0048151Y0034788D02*
G03*
X0048433Y0035169I-0001131J0001131D01*
G01*
X0048150Y0034787D02*
G03*
X0048433Y0035169I-0001130J0001133D01*
G01*
X0029135Y0040635D02*
G03*
X0028003Y0040166I0000000J-0001600D01*
G01*
X0029135Y0040635D02*
G03*
X0028002Y0040165I0000000J-0001600D01*
G01*
X0019678Y0062828D02*
G03*
X0019941Y0061476I0001712J-0000368D01*
G01*
G03*
X0019941Y0059507I0001448J-0000984D01*
G01*
X0014918Y0063187D02*
G03*
X0015928Y0062828I0001010J0001241D01*
G01*
X0019941Y0059507D02*
G03*
X0019678Y0058154I0001448J-0000984D01*
G01*
X0014918Y0063187D02*
G03*
X0015928Y0062828I0001010J0001241D01*
G01*
X0011820Y0062327D02*
G03*
X0012545Y0063187I-0002046J0002461D01*
G01*
X0012974Y0059866D02*
G03*
X0011820Y0062327I-0003200J0000000D01*
G01*
Y0057406D02*
G03*
X0012974Y0059866I-0002046J0002461D01*
G01*
Y0054945D02*
G03*
X0011820Y0057406I-0003200J0000000D01*
G01*
X0020983Y0039275D02*
G03*
X0021633Y0039670I-0000483J0001525D01*
G01*
X0020983Y0039275D02*
G03*
X0021631Y0039669I-0000483J0001525D01*
G01*
X0012472Y0053224D02*
G03*
X0012974Y0054945I-0002698J0001721D01*
G01*
X0038183Y0028600D02*
G03*
X0039315Y0029070I0000000J0001600D01*
G01*
X0038183Y0028600D02*
G03*
X0039314Y0029069I0000000J0001600D01*
G01*
X0035700Y0027000D02*
G03*
X0035271Y0028600I-0003200J0000000D01*
G01*
X0031975Y0023843D02*
G03*
X0035700Y0027000I0000525J0003157D01*
G01*
X0039545Y0018942D02*
G03*
X0036774Y0020542I-0002771J-0001600D01*
G01*
X0034774D02*
G03*
X0031975Y0018893I0000000J-0003200D01*
G01*
X0025320Y0019803D02*
G03*
X0026425Y0021707I-0002046J0002461D01*
G01*
X0026045Y0018942D02*
G03*
X0025320Y0019803I-0002771J-0001600D01*
G01*
X0012588Y0015819D02*
G03*
X0013233Y0016213I-0000488J0001524D01*
G01*
X0012588Y0015819D02*
G03*
X0013231Y0016211I-0000488J0001524D01*
G01*
X0011820Y0014882D02*
G03*
X0012588Y0015819I-0002046J0002461D01*
G01*
X0012974Y0012421D02*
G03*
X0011820Y0014882I-0003200J0000000D01*
G01*
X0012472Y0010700D02*
G03*
X0012974Y0012421I-0002698J0001721D01*
G01*
X0014674Y0004426D02*
G03*
X0015144Y0003293I0001600J0000000D01*
G01*
X0014674Y0004426D02*
G03*
X0015143Y0003295I0001600J0000000D01*
G01*
X0121800Y0055200D02*
X0121974Y0055026D01*
X0122900Y0054100D01*
X0119200Y0051600D02*
X0121974D01*
Y0055026D01*
Y0034500D02*
Y0051600D01*
X0045051Y0083917D02*
Y0097549D01*
Y0076049D02*
Y0083917D01*
X0102000Y0052400D02*
X0108400D01*
X0099700D02*
X0102000D01*
X0064400Y0047100D02*
X0064500Y0047200D01*
Y0055400D01*
Y0045600D02*
Y0047200D01*
X0063000Y0025200D02*
X0068000D01*
X0060700D02*
X0063000D01*
X0050957Y0039035D02*
Y0042457D01*
Y0035700D02*
Y0039035D01*
X0048800Y0024600D02*
X0053600D01*
X0045800D02*
X0048800D01*
X0045800D02*
Y0031700D01*
Y0022000D02*
Y0024600D01*
X0112574Y0129224D02*
X0277540D01*
X0112574Y0128524D02*
X0277540D01*
X0112574Y0127824D02*
X0277540D01*
X0112574Y0127124D02*
X0277540D01*
X0112574Y0126424D02*
X0277540D01*
X0112574Y0125724D02*
X0277540D01*
X0112574Y0125024D02*
X0277540D01*
X0112574Y0124324D02*
X0277540D01*
X0112574Y0123624D02*
X0277540D01*
X0112574Y0122924D02*
X0277540D01*
X0115838Y0111024D02*
X0277540D01*
X0116538Y0110324D02*
X0277540D01*
X0117238Y0109624D02*
X0277540D01*
X0117938Y0108924D02*
X0277540D01*
X0118638Y0108224D02*
X0277540D01*
X0112574Y0122224D02*
X0277540D01*
X0112574Y0121524D02*
X0277540D01*
X0112574Y0120824D02*
X0277540D01*
X0112574Y0120124D02*
X0277540D01*
X0119594Y0107269D02*
Y0156240D01*
X0118894Y0107969D02*
Y0156240D01*
X0118194Y0108669D02*
Y0156240D01*
X0120994Y0105869D02*
Y0156240D01*
X0120294Y0106569D02*
Y0156240D01*
X0116094Y0110769D02*
Y0156240D01*
X0115394Y0111328D02*
Y0156240D01*
X0114694Y0111474D02*
Y0156240D01*
X0117494Y0109369D02*
Y0156240D01*
X0116794Y0110069D02*
Y0156240D01*
X0119338Y0107524D02*
X0277540D01*
X0120038Y0106824D02*
X0277540D01*
X0120738Y0106124D02*
X0277540D01*
X0113994Y0111474D02*
Y0156240D01*
X0112574Y0119874D02*
Y0129274D01*
X0113294Y0111474D02*
Y0156240D01*
X0112594Y0111474D02*
Y0156240D01*
X0211994Y0083625D02*
Y0156240D01*
X0211294Y0084490D02*
Y0156240D01*
X0210594Y0085154D02*
Y0156240D01*
X0213394Y0079721D02*
Y0156240D01*
X0212694Y0082405D02*
Y0156240D01*
X0208494Y0086418D02*
Y0156240D01*
X0207794Y0086665D02*
Y0156240D01*
X0207094Y0086841D02*
Y0156240D01*
X0209894Y0085678D02*
Y0156240D01*
X0209194Y0086093D02*
Y0156240D01*
X0121700Y0104024D02*
X0277540D01*
X0121700Y0103324D02*
X0277540D01*
X0121700Y0102624D02*
X0277540D01*
X0121700Y0101924D02*
X0277540D01*
X0121700Y0101224D02*
X0277540D01*
X0121406Y0105424D02*
X0277540D01*
X0121684Y0104724D02*
X0277540D01*
X0121700Y0100524D02*
X0277540D01*
X0121700Y0099824D02*
X0277540D01*
X0206394Y0086951D02*
Y0156240D01*
X0205694Y0086998D02*
Y0156240D01*
X0204994Y0086983D02*
Y0156240D01*
X0204294Y0086905D02*
Y0156240D01*
X0203594Y0086762D02*
Y0156240D01*
X0202894Y0086551D02*
Y0156240D01*
X0202194Y0086266D02*
Y0156240D01*
X0201494Y0085898D02*
Y0156240D01*
X0200794Y0085432D02*
Y0156240D01*
X0200094Y0084843D02*
Y0156240D01*
X0199394Y0084090D02*
Y0156240D01*
X0121694Y0104643D02*
Y0156240D01*
X0198694Y0083079D02*
Y0156240D01*
X0197994Y0081507D02*
Y0156240D01*
X0115859Y0111004D02*
X0121230Y0105633D01*
X0121700Y0076926D02*
Y0104500D01*
X0111035Y0153724D02*
X0277540D01*
X0111035Y0153024D02*
X0277540D01*
X0111035Y0152324D02*
X0277540D01*
X0111035Y0151624D02*
X0277540D01*
X0111035Y0150924D02*
X0277540D01*
X0111035Y0150224D02*
X0277540D01*
X0111035Y0149524D02*
X0277540D01*
X0111035Y0148824D02*
X0277540D01*
X0111035Y0148124D02*
X0277540D01*
X0110580Y0147424D02*
X0277540D01*
X0110892Y0146724D02*
X0277540D01*
X0111026Y0146024D02*
X0277540D01*
X0111003Y0145324D02*
X0277540D01*
X0110820Y0144624D02*
X0277540D01*
X0111024Y0141124D02*
X0277540D01*
X0110443Y0143924D02*
X0277540D01*
X0109989Y0143224D02*
X0277540D01*
X0110567Y0142524D02*
X0277540D01*
X0110886Y0141824D02*
X0277540D01*
X0110494Y0153900D02*
Y0156240D01*
X0111035Y0147500D02*
Y0153900D01*
X0109794D02*
Y0156240D01*
X0110533Y0147500D02*
X0111035D01*
X0102635Y0153900D02*
X0111035D01*
X0109094D02*
Y0156240D01*
X0106835Y0150700D02*
X0110635D01*
X0111006Y0140424D02*
X0277540D01*
X0110494Y0142639D02*
Y0143997D01*
X0110828Y0139724D02*
X0277540D01*
X0110458Y0139024D02*
X0277540D01*
X0109791Y0138324D02*
X0277540D01*
X0108382Y0137624D02*
X0277540D01*
X0107987Y0136924D02*
X0277540D01*
X0107287Y0136224D02*
X0277540D01*
X0106587Y0135524D02*
X0277540D01*
X0105887Y0134824D02*
X0277540D01*
X0105187Y0134124D02*
X0277540D01*
X0104487Y0133424D02*
X0277540D01*
X0103787Y0132724D02*
X0277540D01*
X0103087Y0132024D02*
X0277540D01*
X0102387Y0131324D02*
X0277540D01*
X0096787Y0130624D02*
X0277540D01*
X0096087Y0129924D02*
X0277540D01*
X0112103Y0116624D02*
X0277540D01*
X0112376Y0115924D02*
X0277540D01*
X0112529Y0115224D02*
X0277540D01*
X0112574Y0114524D02*
X0277540D01*
X0112514Y0113824D02*
X0277540D01*
X0094300Y0119424D02*
X0277540D01*
X0110080Y0118724D02*
X0277540D01*
X0111065Y0118024D02*
X0277540D01*
X0111685Y0117324D02*
X0277540D01*
X0111894Y0129274D02*
Y0156240D01*
X0111194Y0129274D02*
Y0156240D01*
X0110494Y0129274D02*
Y0139076D01*
X0111894Y0117010D02*
Y0119874D01*
X0111194Y0117901D02*
Y0119874D01*
X0095437Y0129274D02*
X0112574D01*
X0109794D02*
Y0138327D01*
X0095174Y0119874D02*
X0112574D01*
X0110494Y0118476D02*
Y0119874D01*
X0112345Y0113124D02*
X0277540D01*
X0112054Y0112424D02*
X0277540D01*
X0111894Y0111474D02*
Y0112138D01*
X0111612Y0111724D02*
X0277540D01*
X0109794Y0118864D02*
Y0119874D01*
X0111407Y0111474D02*
X0114726D01*
X0103874Y0114574D02*
X0112174D01*
X0121700Y0099124D02*
X0277540D01*
X0121700Y0098424D02*
X0277540D01*
X0121700Y0097724D02*
X0277540D01*
X0121700Y0097024D02*
X0277540D01*
X0121700Y0096324D02*
X0277540D01*
X0121700Y0095624D02*
X0277540D01*
X0121700Y0094924D02*
X0277540D01*
X0121700Y0094224D02*
X0277540D01*
X0121700Y0093524D02*
X0277540D01*
X0121700Y0092824D02*
X0277540D01*
X0121700Y0092124D02*
X0277540D01*
X0121700Y0091424D02*
X0277540D01*
X0121700Y0090724D02*
X0277540D01*
X0121700Y0090024D02*
X0277540D01*
X0208218Y0086524D02*
X0277540D01*
X0121700Y0089324D02*
X0277540D01*
X0121700Y0088624D02*
X0277540D01*
X0121700Y0087924D02*
X0277540D01*
X0121700Y0087224D02*
X0277540D01*
X0209665Y0085824D02*
X0277540D01*
X0210629Y0085124D02*
X0277540D01*
X0211354Y0084424D02*
X0277540D01*
X0211923Y0083724D02*
X0277540D01*
X0212374Y0083024D02*
X0277540D01*
X0121700Y0086524D02*
X0202818D01*
X0121700Y0085824D02*
X0201372D01*
X0121700Y0085124D02*
X0200408D01*
X0121700Y0084424D02*
X0199682D01*
X0121700Y0083724D02*
X0199113D01*
X0212730Y0082324D02*
X0277540D01*
X0213004Y0081624D02*
X0277540D01*
X0121700Y0083024D02*
X0198662D01*
X0213205Y0080924D02*
X0277540D01*
X0213338Y0080224D02*
X0277540D01*
X0121700Y0082324D02*
X0198306D01*
X0121700Y0081624D02*
X0198032D01*
X0121700Y0080924D02*
X0197832D01*
X0121700Y0080224D02*
X0197698D01*
X0213407Y0079524D02*
X0277540D01*
X0213413Y0078824D02*
X0277540D01*
X0213358Y0078124D02*
X0277540D01*
X0213238Y0077424D02*
X0277540D01*
X0213053Y0076724D02*
X0277540D01*
X0212795Y0076024D02*
X0277540D01*
X0212457Y0075324D02*
X0277540D01*
X0212028Y0074624D02*
X0277540D01*
X0211487Y0073924D02*
X0277540D01*
X0210799Y0073224D02*
X0277540D01*
X0209897Y0072524D02*
X0277540D01*
X0208596Y0071824D02*
X0277540D01*
X0121000Y0071124D02*
X0277540D01*
X0121000Y0070424D02*
X0277540D01*
X0121000Y0069724D02*
X0277540D01*
X0121000Y0069024D02*
X0277540D01*
X0121000Y0068324D02*
X0277540D01*
X0121000Y0067624D02*
X0277540D01*
X0121000Y0066924D02*
X0277540D01*
X0121700Y0079524D02*
X0197629D01*
X0121700Y0078824D02*
X0197623D01*
X0121700Y0078124D02*
X0197679D01*
X0121700Y0077424D02*
X0197798D01*
X0121422Y0076024D02*
X0198241D01*
X0121687Y0076724D02*
X0197984D01*
X0121000Y0075324D02*
X0198579D01*
X0121000Y0074624D02*
X0199008D01*
X0121000Y0075563D02*
X0121230Y0075793D01*
X0121000Y0073924D02*
X0199550D01*
X0121000Y0064300D02*
Y0075563D01*
Y0072524D02*
X0201140D01*
X0121000Y0073224D02*
X0200237D01*
X0121000Y0066224D02*
X0277540D01*
X0121000Y0071824D02*
X0202440D01*
X0117800Y0069546D02*
Y0072428D01*
X0117494Y0069546D02*
Y0072428D01*
X0116794Y0069546D02*
Y0072428D01*
X0116094Y0069546D02*
Y0072428D01*
X0115394Y0069546D02*
Y0072428D01*
X0112825Y0075400D02*
X0115200D01*
X0112425Y0072428D02*
X0117800D01*
X0115200Y0072828D02*
Y0075400D01*
X0111600Y0071824D02*
X0117800D01*
X0114694Y0069546D02*
Y0072428D01*
X0116074Y0066574D02*
Y0069146D01*
X0121000Y0065524D02*
X0277540D01*
X0113699Y0066574D02*
X0116074D01*
X0121000Y0064824D02*
X0277540D01*
X0120990Y0064124D02*
X0277540D01*
X0111600Y0071124D02*
X0117800D01*
X0111600Y0070424D02*
X0117800D01*
X0111838Y0069724D02*
X0117800D01*
X0113299Y0069546D02*
X0117800D01*
X0111600Y0075837D02*
X0112425Y0076662D01*
X0111787Y0076024D02*
X0112425D01*
Y0072428D02*
Y0076662D01*
X0111894Y0069669D02*
Y0076131D01*
X0111600Y0069963D02*
Y0075837D01*
Y0075324D02*
X0112425D01*
X0111600Y0074624D02*
X0112425D01*
X0111600Y0073924D02*
X0112425D01*
X0111600Y0073224D02*
X0112425D01*
X0113994Y0069546D02*
Y0072428D01*
X0112538Y0069024D02*
X0113299D01*
X0112594Y0068969D02*
Y0072428D01*
X0113299Y0065149D02*
Y0069546D01*
X0113100Y0065083D02*
Y0067800D01*
X0111600Y0072524D02*
X0112425D01*
X0111600Y0069963D02*
X0112630Y0068933D01*
X0120739Y0063424D02*
X0277540D01*
X0120087Y0062724D02*
X0277540D01*
X0119833Y0062470D02*
X0120530Y0063167D01*
X0118978Y0062024D02*
X0277540D01*
X0118849Y0061324D02*
X0277540D01*
X0118849Y0057602D02*
Y0062007D01*
Y0060624D02*
X0277540D01*
X0118849Y0059924D02*
X0277540D01*
X0118849Y0059224D02*
X0277540D01*
X0118849Y0058524D02*
X0277540D01*
X0118849Y0057824D02*
X0277540D01*
X0116467Y0057124D02*
X0277540D01*
X0115705Y0057602D02*
X0118849D01*
X0117198Y0056424D02*
X0277540D01*
X0117685Y0055724D02*
X0277540D01*
X0112000Y0057819D02*
Y0059900D01*
X0111894Y0057779D02*
Y0060012D01*
X0111194Y0057437D02*
Y0060000D01*
X0105887Y0059224D02*
X0112000D01*
X0106663Y0060000D02*
X0111700D01*
X0110494Y0056927D02*
Y0060000D01*
X0109794Y0056157D02*
Y0060000D01*
X0117494Y0056032D02*
Y0057602D01*
X0116794Y0056848D02*
Y0057602D01*
X0105187Y0058524D02*
X0112000D01*
X0104775Y0055372D02*
X0109334D01*
X0104487Y0057824D02*
X0112000D01*
X0103787Y0057124D02*
X0110733D01*
X0103087Y0056424D02*
X0110002D01*
X0102387Y0055724D02*
X0109515D01*
X0108394Y0153900D02*
Y0156240D01*
X0107694Y0153900D02*
Y0156240D01*
X0106994Y0153900D02*
Y0156240D01*
X0106294Y0153900D02*
Y0156240D01*
X0105594Y0153900D02*
Y0156240D01*
X0104894Y0153900D02*
Y0156240D01*
X0104194Y0153900D02*
Y0156240D01*
X0103494Y0153900D02*
Y0156240D01*
X0102794Y0153900D02*
Y0156240D01*
X0097535Y0153724D02*
X0102635D01*
X0106835Y0150700D02*
Y0153500D01*
X0104194Y0137656D02*
Y0138111D01*
X0103494Y0136956D02*
Y0138677D01*
X0103035Y0150700D02*
X0106835D01*
X0102233Y0131170D02*
X0107965Y0136903D01*
X0100437Y0133900D02*
X0104491Y0137954D01*
X0102094Y0148479D02*
Y0156240D01*
X0102635Y0148479D02*
Y0153900D01*
X0101394Y0148479D02*
Y0156240D01*
X0102794Y0141851D02*
Y0143079D01*
X0100694Y0148479D02*
Y0156240D01*
X0099994Y0148479D02*
Y0156240D01*
X0099294Y0148479D02*
Y0156240D01*
X0098594Y0148479D02*
Y0156240D01*
X0097894Y0148479D02*
Y0156240D01*
X0097535Y0148479D02*
Y0153900D01*
X0102094Y0135556D02*
Y0143079D01*
X0102794Y0136256D02*
Y0139864D01*
X0101394Y0134856D02*
Y0143079D01*
X0100694Y0134156D02*
Y0143079D01*
X0099994Y0133900D02*
Y0143079D01*
X0099294Y0133900D02*
Y0143079D01*
X0098594Y0133900D02*
Y0143079D01*
X0097894Y0133900D02*
Y0143079D01*
X0109094Y0129274D02*
Y0137915D01*
X0108394Y0129274D02*
Y0137672D01*
X0107694Y0129274D02*
Y0136631D01*
X0109094Y0119113D02*
Y0119874D01*
X0106994Y0129274D02*
Y0135931D01*
X0106294Y0129274D02*
Y0135231D01*
X0105594Y0129274D02*
Y0134531D01*
X0104894Y0129274D02*
Y0133831D01*
X0104194Y0129274D02*
Y0133131D01*
X0103494Y0129274D02*
Y0132431D01*
X0108394Y0119245D02*
Y0119874D01*
X0107694Y0119274D02*
Y0119874D01*
X0106994Y0119274D02*
Y0119874D01*
X0106294Y0119274D02*
Y0119874D01*
X0105594Y0119274D02*
Y0119874D01*
X0104894Y0119274D02*
Y0119874D01*
X0104194Y0119274D02*
Y0119874D01*
X0099874Y0119274D02*
X0107874D01*
X0103874Y0114574D02*
Y0118874D01*
X0102794Y0129274D02*
Y0131731D01*
X0102094Y0129274D02*
Y0131046D01*
X0101394Y0129274D02*
Y0130727D01*
X0100694Y0129274D02*
Y0130700D01*
X0099994Y0129274D02*
Y0130700D01*
X0099294Y0129274D02*
Y0130700D01*
X0098594Y0129274D02*
Y0130700D01*
X0097894Y0129274D02*
Y0130700D01*
X0103494Y0119274D02*
Y0119874D01*
X0102794Y0119274D02*
Y0119874D01*
X0102094Y0119274D02*
Y0119874D01*
X0101394Y0119274D02*
Y0119874D01*
X0100694Y0119274D02*
Y0119874D01*
X0099994Y0119274D02*
Y0119874D01*
X0099294Y0119238D02*
Y0119874D01*
X0098594Y0119096D02*
Y0119874D01*
X0097894Y0118836D02*
Y0119874D01*
X0097535Y0153024D02*
X0102635D01*
X0097535Y0152324D02*
X0102635D01*
X0097535Y0151624D02*
X0102635D01*
X0097535Y0150924D02*
X0102635D01*
X0097535Y0150224D02*
X0102635D01*
X0097535Y0149524D02*
X0102635D01*
X0097535Y0148824D02*
X0102635D01*
X0097535Y0148479D02*
X0102635D01*
X0096639Y0143079D02*
X0103532D01*
X0097067Y0142524D02*
X0103104D01*
X0097386Y0141824D02*
X0102785D01*
X0097524Y0141124D02*
X0102647D01*
X0097506Y0140424D02*
X0102665D01*
X0097379Y0136924D02*
X0103462D01*
X0097328Y0139724D02*
X0102843D01*
X0096465Y0138324D02*
X0103880D01*
X0096958Y0139024D02*
X0103212D01*
X0097054Y0137624D02*
X0104162D01*
X0097522Y0136224D02*
X0102762D01*
X0097194Y0153900D02*
Y0156240D01*
X0096494Y0153900D02*
Y0156240D01*
X0095794Y0153900D02*
Y0156240D01*
X0095094Y0153900D02*
Y0156240D01*
X0094394Y0153900D02*
Y0156240D01*
X0093694Y0153900D02*
Y0156240D01*
X0092994Y0153900D02*
Y0156240D01*
X0092294Y0153900D02*
Y0156240D01*
X0091594Y0153900D02*
Y0156240D01*
X0097194Y0142296D02*
Y0143079D01*
X0093335Y0150700D02*
Y0153500D01*
X0097194Y0137375D02*
Y0139419D01*
X0090894Y0153900D02*
Y0156240D01*
X0090194Y0153900D02*
Y0156240D01*
X0093335Y0150700D02*
X0097135D01*
X0089535D02*
X0093335D01*
X0097509Y0135524D02*
X0102062D01*
X0097336Y0134824D02*
X0101362D01*
X0096973Y0134124D02*
X0100662D01*
X0097194Y0133900D02*
Y0134497D01*
Y0129274D02*
Y0130700D01*
X0096804Y0133900D02*
X0100437D01*
X0096863Y0130700D02*
X0101100D01*
X0095437Y0129274D02*
X0096863Y0130700D01*
X0096494Y0129274D02*
Y0130331D01*
X0097194Y0118435D02*
Y0119874D01*
X0095794Y0129274D02*
Y0129631D01*
X0096494Y0117839D02*
Y0119874D01*
X0095794Y0116906D02*
Y0119874D01*
X0094300Y0118724D02*
X0097668D01*
X0095174Y0129011D02*
X0095437Y0129274D01*
X0094300Y0118024D02*
X0096683D01*
X0094300Y0128137D02*
X0095174Y0129011D01*
X0094687Y0128524D02*
X0095174D01*
Y0119874D02*
Y0129011D01*
X0095094Y0112469D02*
Y0128931D01*
X0094394Y0113169D02*
Y0128231D01*
X0094300Y0127824D02*
X0095174D01*
X0094300Y0127124D02*
X0095174D01*
X0094300Y0126424D02*
X0095174D01*
X0094300Y0113263D02*
Y0128137D01*
Y0125724D02*
X0095174D01*
X0094300Y0125024D02*
X0095174D01*
X0094300Y0124324D02*
X0095174D01*
X0094300Y0123624D02*
X0095174D01*
X0094300Y0122924D02*
X0095174D01*
X0094300Y0122224D02*
X0095174D01*
X0094300Y0121524D02*
X0095174D01*
X0094300Y0120824D02*
X0095174D01*
X0094300Y0120124D02*
X0095174D01*
X0106870Y0096633D02*
X0107162Y0096925D01*
X0106294Y0095749D02*
Y0097305D01*
X0105594Y0095749D02*
Y0097787D01*
X0104649Y0097724D02*
X0105671D01*
X0104649Y0097024D02*
X0106884D01*
X0104649Y0098424D02*
X0104962D01*
X0104894Y0095749D02*
Y0098510D01*
X0104649Y0095749D02*
Y0098855D01*
Y0096324D02*
X0106629D01*
X0105254Y0090199D02*
X0106400D01*
X0105579Y0090024D02*
X0106400D01*
X0106294Y0089424D02*
Y0090199D01*
X0104649Y0095749D02*
X0106420D01*
X0104674Y0092974D02*
Y0095349D01*
X0102102Y0092974D02*
X0104674D01*
Y0090599D02*
Y0092974D01*
X0099170Y0100302D02*
X0104030D01*
X0099156Y0100246D02*
X0104044D01*
X0098712Y0099124D02*
X0099099D01*
X0101874Y0097274D02*
Y0099846D01*
X0099099Y0095749D02*
Y0100041D01*
X0098238Y0098424D02*
X0099099D01*
X0097529Y0097724D02*
X0099099D01*
X0098594Y0095749D02*
Y0098922D01*
X0097894Y0095749D02*
Y0098047D01*
X0101874Y0097274D02*
X0104249D01*
X0101874Y0094702D02*
Y0097274D01*
X0101702Y0090199D02*
Y0094302D01*
Y0090199D02*
X0102546D01*
X0101646D02*
Y0094302D01*
X0099499Y0097274D02*
X0101874D01*
X0097194Y0095749D02*
Y0097480D01*
X0097017Y0090024D02*
X0102221D01*
X0096971Y0090199D02*
X0101646D01*
X0109094Y0055372D02*
Y0060000D01*
X0108394Y0055372D02*
Y0060000D01*
X0106400Y0089297D02*
Y0090199D01*
X0107694Y0055372D02*
Y0060000D01*
X0106994Y0055372D02*
Y0060000D01*
X0101137Y0077900D02*
X0102000Y0077037D01*
Y0076472D02*
Y0077037D01*
X0100825Y0076472D02*
X0102000D01*
X0106294Y0055372D02*
Y0059631D01*
X0105594Y0055372D02*
Y0058931D01*
X0104894Y0055372D02*
Y0058231D01*
X0104225Y0055372D02*
X0104775D01*
X0104194D02*
Y0057531D01*
X0104225Y0055372D02*
X0104775D01*
X0103494D02*
Y0056831D01*
X0102034Y0055372D02*
X0104225D01*
X0102794D02*
Y0056131D01*
X0101394Y0089289D02*
Y0090199D01*
X0100694Y0087574D02*
Y0090199D01*
X0099994Y0087574D02*
Y0090199D01*
Y0076472D02*
Y0077900D01*
X0099294Y0087574D02*
Y0090199D01*
X0098594Y0087574D02*
Y0090199D01*
X0097894Y0087574D02*
Y0090199D01*
X0097194Y0087574D02*
Y0090199D01*
X0099294Y0076472D02*
Y0077900D01*
X0101394Y0076472D02*
Y0077644D01*
X0098594Y0076472D02*
Y0077900D01*
X0100825Y0071951D02*
Y0076472D01*
X0100675Y0071871D02*
Y0076472D01*
X0097894D02*
Y0077900D01*
X0097900Y0073500D02*
Y0076072D01*
Y0073500D02*
X0100275D01*
X0097900Y0070928D02*
Y0073500D01*
X0094300Y0117324D02*
X0096063D01*
X0094300Y0116624D02*
X0095645D01*
X0094300Y0115924D02*
X0095372D01*
X0095574Y0114574D02*
X0103874D01*
X0095138Y0112424D02*
X0095694D01*
X0094300Y0115224D02*
X0095219D01*
X0094300Y0114524D02*
X0095174D01*
X0094300Y0113824D02*
X0095234D01*
X0094300Y0113263D02*
X0096089Y0111474D01*
X0094438Y0113124D02*
X0095403D01*
X0096316Y0097024D02*
X0099099D01*
X0096494Y0096549D02*
Y0097098D01*
X0095794Y0111769D02*
Y0112242D01*
X0096846Y0096324D02*
X0099099D01*
X0096846Y0095749D02*
Y0096549D01*
X0095794D02*
Y0096854D01*
X0090300Y0101400D02*
X0094600D01*
X0090902Y0096549D02*
X0096846D01*
X0090649Y0106788D02*
X0092074Y0105363D01*
X0091594Y0105013D02*
Y0105844D01*
X0090649Y0106124D02*
X0091313D01*
X0090894Y0104290D02*
Y0106544D01*
X0090649Y0103945D02*
Y0106788D01*
X0090392Y0107046D02*
X0090649Y0106788D01*
X0089494Y0107046D02*
Y0107944D01*
X0090649Y0105424D02*
X0092013D01*
X0094600Y0097100D02*
Y0101400D01*
X0092994Y0096549D02*
Y0096983D01*
X0090649Y0104724D02*
X0091278D01*
X0092294Y0096549D02*
Y0097305D01*
X0091594Y0096549D02*
Y0097787D01*
X0090649Y0097724D02*
X0091671D01*
X0090649Y0098424D02*
X0090962D01*
X0090649Y0097024D02*
X0092884D01*
X0090649Y0096549D02*
Y0098855D01*
X0097100Y0089324D02*
X0101422D01*
X0097028Y0088624D02*
X0100987D01*
X0096846Y0095749D02*
X0099099D01*
X0096789Y0087924D02*
X0100761D01*
X0097194Y0076472D02*
Y0077900D01*
X0096595Y0087574D02*
X0100712D01*
X0093197Y0077900D02*
X0101137D01*
X0096494Y0076472D02*
Y0077900D01*
X0095794Y0076472D02*
Y0077900D01*
X0095675Y0076472D02*
X0100675D01*
X0095125D02*
X0095675D01*
X0095125D02*
X0095675D01*
Y0070528D02*
X0099375D01*
X0095675Y0070472D02*
X0099348D01*
X0093197Y0077424D02*
X0101613D01*
X0095125Y0070528D02*
X0095675D01*
X0095125Y0070472D02*
X0095675D01*
X0095125Y0070528D02*
X0095675D01*
X0095094Y0076472D02*
Y0077900D01*
X0093197Y0076725D02*
Y0077900D01*
X0090902Y0091900D02*
Y0096549D01*
X0094394Y0076472D02*
Y0077900D01*
X0093694Y0076472D02*
Y0077900D01*
X0090675Y0076472D02*
X0095125D01*
X0090846Y0091939D02*
Y0096549D01*
X0090125Y0076472D02*
X0090675D01*
X0090125D02*
X0090675D01*
X0092900Y0073500D02*
Y0076072D01*
X0095125Y0070472D02*
X0095675D01*
X0092900Y0070928D02*
Y0073500D01*
X0090675Y0070528D02*
X0095125D01*
X0090675Y0070472D02*
X0095125D01*
X0090125Y0070528D02*
X0090675D01*
X0090125Y0070472D02*
X0090675D01*
X0090125Y0070528D02*
X0090675D01*
X0090125Y0070472D02*
X0090675D01*
X0277540Y0001960D02*
Y0156240D01*
X0277094Y0001960D02*
Y0156240D01*
X0276394Y0001960D02*
Y0156240D01*
X0275694Y0001960D02*
Y0156240D01*
X0274994Y0001960D02*
Y0156240D01*
X0274294Y0001960D02*
Y0156240D01*
X0273594Y0001960D02*
Y0156240D01*
X0272894Y0001960D02*
Y0156240D01*
X0272194Y0001960D02*
Y0156240D01*
X0271494Y0001960D02*
Y0156240D01*
X0270794Y0001960D02*
Y0156240D01*
X0270094Y0001960D02*
Y0156240D01*
X0269394Y0001960D02*
Y0156240D01*
X0268694Y0001960D02*
Y0156240D01*
X0267994Y0001960D02*
Y0156240D01*
X0267294Y0001960D02*
Y0156240D01*
X0266594Y0001960D02*
Y0156240D01*
X0265894Y0001960D02*
Y0156240D01*
X0265194Y0001960D02*
Y0156240D01*
X0264494Y0001960D02*
Y0156240D01*
X0263794Y0001960D02*
Y0156240D01*
X0263094Y0001960D02*
Y0156240D01*
X0262394Y0001960D02*
Y0156240D01*
X0261694Y0001960D02*
Y0156240D01*
X0260994Y0001960D02*
Y0156240D01*
X0260294Y0001960D02*
Y0156240D01*
X0259594Y0001960D02*
Y0156240D01*
X0258894Y0001960D02*
Y0156240D01*
X0258194Y0001960D02*
Y0156240D01*
X0257494Y0001960D02*
Y0156240D01*
X0256794Y0001960D02*
Y0156240D01*
X0256094Y0001960D02*
Y0156240D01*
X0255394Y0001960D02*
Y0156240D01*
X0254694Y0001960D02*
Y0156240D01*
X0253994Y0001960D02*
Y0156240D01*
X0253294Y0001960D02*
Y0156240D01*
X0252594Y0001960D02*
Y0156240D01*
X0251894Y0001960D02*
Y0156240D01*
X0251194Y0001960D02*
Y0156240D01*
X0250494Y0001960D02*
Y0156240D01*
X0249794Y0001960D02*
Y0156240D01*
X0249094Y0001960D02*
Y0156240D01*
X0248394Y0001960D02*
Y0156240D01*
X0247694Y0001960D02*
Y0156240D01*
X0246994Y0001960D02*
Y0156240D01*
X0246294Y0001960D02*
Y0156240D01*
X0245594Y0001960D02*
Y0156240D01*
X0244894Y0001960D02*
Y0156240D01*
X0244194Y0001960D02*
Y0156240D01*
X0243494Y0001960D02*
Y0156240D01*
X0242794Y0001960D02*
Y0156240D01*
X0242094Y0001960D02*
Y0156240D01*
X0241394Y0001960D02*
Y0156240D01*
X0240694Y0001960D02*
Y0156240D01*
X0239994Y0001960D02*
Y0156240D01*
X0239294Y0001960D02*
Y0156240D01*
X0238594Y0001960D02*
Y0156240D01*
X0237894Y0001960D02*
Y0156240D01*
X0237194Y0001960D02*
Y0156240D01*
X0236494Y0001960D02*
Y0156240D01*
X0235794Y0001960D02*
Y0156240D01*
X0235094Y0001960D02*
Y0156240D01*
X0234394Y0001960D02*
Y0156240D01*
X0233694Y0001960D02*
Y0156240D01*
X0232994Y0001960D02*
Y0156240D01*
X0232294Y0001960D02*
Y0156240D01*
X0231594Y0001960D02*
Y0156240D01*
X0230894Y0001960D02*
Y0156240D01*
X0230194Y0001960D02*
Y0156240D01*
X0229494Y0001960D02*
Y0156240D01*
X0228794Y0001960D02*
Y0156240D01*
X0228094Y0001960D02*
Y0156240D01*
X0227394Y0001960D02*
Y0156240D01*
X0226694Y0001960D02*
Y0156240D01*
X0225994Y0001960D02*
Y0156240D01*
X0225294Y0001960D02*
Y0156240D01*
X0224594Y0001960D02*
Y0156240D01*
X0223894Y0001960D02*
Y0156240D01*
X0223194Y0001960D02*
Y0156240D01*
X0222494Y0001960D02*
Y0156240D01*
X0221794Y0001960D02*
Y0156240D01*
X0221094Y0001960D02*
Y0156240D01*
X0220394Y0001960D02*
Y0156240D01*
X0219694Y0001960D02*
Y0156240D01*
X0218994Y0001960D02*
Y0156240D01*
X0218294Y0001960D02*
Y0156240D01*
X0217594Y0001960D02*
Y0156240D01*
X0216894Y0001960D02*
Y0156240D01*
X0216194Y0001960D02*
Y0156240D01*
X0215494Y0001960D02*
Y0156240D01*
X0214794Y0001960D02*
Y0156240D01*
X0214094Y0001960D02*
Y0156240D01*
X0197294Y0001960D02*
Y0156240D01*
X0196594Y0001960D02*
Y0156240D01*
X0195894Y0001960D02*
Y0156240D01*
X0195194Y0001960D02*
Y0156240D01*
X0194494Y0001960D02*
Y0156240D01*
X0193794Y0001960D02*
Y0156240D01*
X0193094Y0001960D02*
Y0156240D01*
X0192394Y0001960D02*
Y0156240D01*
X0191694Y0001960D02*
Y0156240D01*
X0190994Y0001960D02*
Y0156240D01*
X0190294Y0001960D02*
Y0156240D01*
X0189594Y0001960D02*
Y0156240D01*
X0188894Y0001960D02*
Y0156240D01*
X0188194Y0001960D02*
Y0156240D01*
X0187494Y0001960D02*
Y0156240D01*
X0186794Y0001960D02*
Y0156240D01*
X0186094Y0001960D02*
Y0156240D01*
X0185394Y0001960D02*
Y0156240D01*
X0184694Y0001960D02*
Y0156240D01*
X0183994Y0001960D02*
Y0156240D01*
X0183294Y0001960D02*
Y0156240D01*
X0182594Y0001960D02*
Y0156240D01*
X0181894Y0001960D02*
Y0156240D01*
X0181194Y0001960D02*
Y0156240D01*
X0180494Y0001960D02*
Y0156240D01*
X0179794Y0001960D02*
Y0156240D01*
X0179094Y0001960D02*
Y0156240D01*
X0178394Y0001960D02*
Y0156240D01*
X0177694Y0001960D02*
Y0156240D01*
X0176994Y0001960D02*
Y0156240D01*
X0176294Y0001960D02*
Y0156240D01*
X0175594Y0001960D02*
Y0156240D01*
X0174894Y0001960D02*
Y0156240D01*
X0174194Y0001960D02*
Y0156240D01*
X0173494Y0001960D02*
Y0156240D01*
X0172794Y0001960D02*
Y0156240D01*
X0172094Y0001960D02*
Y0156240D01*
X0171394Y0001960D02*
Y0156240D01*
X0170694Y0001960D02*
Y0156240D01*
X0169994Y0001960D02*
Y0156240D01*
X0169294Y0001960D02*
Y0156240D01*
X0168594Y0001960D02*
Y0156240D01*
X0167894Y0001960D02*
Y0156240D01*
X0167194Y0001960D02*
Y0156240D01*
X0166494Y0001960D02*
Y0156240D01*
X0165794Y0001960D02*
Y0156240D01*
X0165094Y0001960D02*
Y0156240D01*
X0164394Y0001960D02*
Y0156240D01*
X0163694Y0001960D02*
Y0156240D01*
X0162994Y0001960D02*
Y0156240D01*
X0162294Y0001960D02*
Y0156240D01*
X0161594Y0001960D02*
Y0156240D01*
X0160894Y0001960D02*
Y0156240D01*
X0160194Y0001960D02*
Y0156240D01*
X0159494Y0001960D02*
Y0156240D01*
X0158794Y0001960D02*
Y0156240D01*
X0158094Y0001960D02*
Y0156240D01*
X0213394Y0001960D02*
Y0078479D01*
X0212694Y0001960D02*
Y0075795D01*
X0211994Y0001960D02*
Y0074575D01*
X0211294Y0001960D02*
Y0073710D01*
X0210594Y0001960D02*
Y0073046D01*
X0209894Y0001960D02*
Y0072522D01*
X0209194Y0001960D02*
Y0072107D01*
X0208494Y0001960D02*
Y0071782D01*
X0207794Y0001960D02*
Y0071535D01*
X0202894Y0001960D02*
Y0071649D01*
X0207094Y0001960D02*
Y0071359D01*
X0206394Y0001960D02*
Y0071249D01*
X0205694Y0001960D02*
Y0071202D01*
X0204994Y0001960D02*
Y0071217D01*
X0204294Y0001960D02*
Y0071295D01*
X0121569Y0041724D02*
X0277540D01*
X0121657Y0041024D02*
X0277540D01*
X0121489Y0040324D02*
X0277540D01*
X0203594Y0001960D02*
Y0071438D01*
X0157394Y0001960D02*
Y0156240D01*
X0156694Y0001960D02*
Y0156240D01*
X0155994Y0001960D02*
Y0156240D01*
X0155294Y0001960D02*
Y0156240D01*
X0154594Y0001960D02*
Y0156240D01*
X0153894Y0001960D02*
Y0156240D01*
X0153194Y0001960D02*
Y0156240D01*
X0152494Y0001960D02*
Y0156240D01*
X0151794Y0001960D02*
Y0156240D01*
X0201494Y0001960D02*
Y0072302D01*
X0202194Y0001960D02*
Y0071934D01*
X0200794Y0001960D02*
Y0072768D01*
X0200094Y0001960D02*
Y0073357D01*
X0199394Y0001960D02*
Y0074110D01*
X0198694Y0001960D02*
Y0075121D01*
X0197994Y0001960D02*
Y0076693D01*
X0151094Y0001960D02*
Y0156240D01*
X0150394Y0001960D02*
Y0156240D01*
X0149694Y0001960D02*
Y0156240D01*
X0148994Y0001960D02*
Y0156240D01*
X0148294Y0001960D02*
Y0156240D01*
X0147594Y0001960D02*
Y0156240D01*
X0146894Y0001960D02*
Y0156240D01*
X0146194Y0001960D02*
Y0156240D01*
X0145494Y0001960D02*
Y0156240D01*
X0144794Y0001960D02*
Y0156240D01*
X0144094Y0001960D02*
Y0156240D01*
X0143394Y0001960D02*
Y0156240D01*
X0142694Y0001960D02*
Y0156240D01*
X0141994Y0001960D02*
Y0156240D01*
X0141294Y0001960D02*
Y0156240D01*
X0140594Y0001960D02*
Y0156240D01*
X0139894Y0001960D02*
Y0156240D01*
X0139194Y0001960D02*
Y0156240D01*
X0138494Y0001960D02*
Y0156240D01*
X0137794Y0001960D02*
Y0156240D01*
X0137094Y0001960D02*
Y0156240D01*
X0136394Y0001960D02*
Y0156240D01*
X0135694Y0001960D02*
Y0156240D01*
X0134994Y0001960D02*
Y0156240D01*
X0134294Y0001960D02*
Y0156240D01*
X0133594Y0001960D02*
Y0156240D01*
X0132894Y0001960D02*
Y0156240D01*
X0132194Y0001960D02*
Y0156240D01*
X0131494Y0001960D02*
Y0156240D01*
X0130794Y0001960D02*
Y0156240D01*
X0130094Y0001960D02*
Y0156240D01*
X0129394Y0001960D02*
Y0156240D01*
X0128694Y0001960D02*
Y0156240D01*
X0127994Y0001960D02*
Y0156240D01*
X0127294Y0001960D02*
Y0156240D01*
X0126594Y0001960D02*
Y0156240D01*
X0125894Y0001960D02*
Y0156240D01*
X0125194Y0001960D02*
Y0156240D01*
X0124494Y0001960D02*
Y0156240D01*
X0118010Y0055024D02*
X0277540D01*
X0118208Y0054324D02*
X0277540D01*
X0118295Y0053624D02*
X0277540D01*
X0118276Y0052924D02*
X0277540D01*
X0118151Y0052224D02*
X0277540D01*
X0117910Y0051524D02*
X0277540D01*
X0117531Y0050824D02*
X0277540D01*
X0116971Y0050124D02*
X0277540D01*
X0116107Y0049424D02*
X0277540D01*
X0114078Y0048724D02*
X0277540D01*
X0116456Y0045924D02*
X0277540D01*
X0116657Y0045224D02*
X0277540D01*
X0116695Y0044524D02*
X0277540D01*
X0116578Y0043824D02*
X0277540D01*
X0121181Y0042424D02*
X0277540D01*
X0109775Y0048024D02*
X0277540D01*
X0115331Y0047324D02*
X0277540D01*
X0116057Y0046624D02*
X0277540D01*
X0116285Y0043124D02*
X0277540D01*
X0121628Y0038924D02*
X0277540D01*
X0121629Y0038224D02*
X0277540D01*
X0121486Y0036824D02*
X0277540D01*
X0121657Y0036124D02*
X0277540D01*
X0121571Y0035424D02*
X0277540D01*
X0121358Y0039624D02*
X0277540D01*
X0121361Y0037524D02*
X0277540D01*
X0121200Y0034724D02*
X0277540D01*
X0121576Y0034024D02*
X0277540D01*
X0121656Y0033324D02*
X0277540D01*
X0121479Y0032624D02*
X0277540D01*
X0121632Y0031224D02*
X0277540D01*
X0121625Y0030524D02*
X0277540D01*
X0121496Y0029124D02*
X0277540D01*
X0121372Y0031924D02*
X0277540D01*
X0121347Y0029824D02*
X0277540D01*
X0121658Y0028424D02*
X0277540D01*
X0121564Y0027724D02*
X0277540D01*
X0121583Y0026324D02*
X0277540D01*
X0121654Y0025624D02*
X0277540D01*
X0121468Y0024924D02*
X0277540D01*
X0121386Y0024224D02*
X0277540D01*
X0121636Y0023524D02*
X0277540D01*
X0121219Y0027024D02*
X0277540D01*
X0121621Y0022824D02*
X0277540D01*
X0121332Y0022124D02*
X0277540D01*
X0120530Y0021424D02*
X0277540D01*
X0116474Y0020724D02*
X0277540D01*
X0117293Y0017224D02*
X0277540D01*
X0117765Y0016524D02*
X0277540D01*
X0118017Y0015824D02*
X0277540D01*
X0118100Y0015124D02*
X0277540D01*
X0118028Y0014424D02*
X0277540D01*
X0116474Y0020024D02*
X0277540D01*
X0116474Y0019324D02*
X0277540D01*
X0116474Y0018624D02*
X0277540D01*
X0116478Y0017924D02*
X0277540D01*
X0117789Y0013724D02*
X0277540D01*
X0117335Y0013024D02*
X0277540D01*
X0116492Y0012324D02*
X0277540D01*
X0111400Y0011624D02*
X0277540D01*
X0111400Y0010924D02*
X0277540D01*
X0111400Y0010224D02*
X0277540D01*
X0111400Y0009524D02*
X0277540D01*
X0111400Y0008824D02*
X0277540D01*
X0111400Y0008124D02*
X0277540D01*
X0111400Y0007424D02*
X0277540D01*
X0111400Y0006724D02*
X0277540D01*
X0111400Y0006024D02*
X0277540D01*
X0111400Y0005324D02*
X0277540D01*
X0111400Y0004624D02*
X0277540D01*
X0111390Y0003924D02*
X0277540D01*
X0111139Y0003224D02*
X0277540D01*
X0110487Y0002524D02*
X0277540D01*
X0109923Y0001960D02*
X0277540D01*
X0118194Y0054394D02*
Y0057602D01*
X0111894Y0047997D02*
Y0049021D01*
X0116094Y0046574D02*
Y0049416D01*
X0115394Y0047280D02*
Y0049056D01*
X0109775Y0050124D02*
X0110230D01*
X0109775Y0049428D02*
Y0050669D01*
X0111194Y0048000D02*
Y0049363D01*
X0110494Y0048000D02*
Y0049873D01*
X0113994Y0047862D02*
Y0048717D01*
X0113294Y0047893D02*
Y0048710D01*
X0112594Y0047789D02*
Y0048809D01*
X0114694Y0047669D02*
Y0048829D01*
X0109775Y0048724D02*
X0113122D01*
X0109775Y0048000D02*
X0111800D01*
X0107000Y0052400D02*
Y0054972D01*
X0104775Y0049428D02*
X0109775D01*
X0107000Y0049828D02*
Y0052400D01*
X0104775Y0049372D02*
X0109775D01*
X0109794Y0048000D02*
Y0050643D01*
X0102034Y0055372D02*
X0106663Y0060000D01*
X0102000Y0052400D02*
Y0054972D01*
X0099625Y0052400D02*
X0102000D01*
Y0049828D02*
Y0052400D01*
X0099225Y0049428D02*
Y0052562D01*
X0104225Y0049428D02*
X0104775D01*
X0104225Y0049372D02*
X0104775D01*
X0104225Y0049428D02*
X0104775D01*
X0109775Y0048000D02*
Y0049372D01*
X0104225D02*
X0104775D01*
X0099225Y0049428D02*
X0104225D01*
X0099225Y0049372D02*
X0104225D01*
X0099225Y0043428D02*
X0100423D01*
X0099225D02*
Y0049372D01*
X0123794Y0001960D02*
Y0156240D01*
X0123094Y0001960D02*
Y0156240D01*
X0120994Y0042615D02*
Y0064157D01*
X0122394Y0001960D02*
Y0156240D01*
X0121694Y0001960D02*
Y0076783D01*
X0119594Y0043118D02*
Y0062273D01*
X0116917Y0043118D02*
X0119672D01*
X0118894D02*
Y0062012D01*
X0120294Y0043018D02*
Y0062931D01*
X0118295Y0033454D02*
X0121260D01*
X0118194Y0043118D02*
Y0052406D01*
X0117494Y0043118D02*
Y0050768D01*
X0116794Y0043114D02*
Y0049952D01*
X0099994Y0042731D02*
Y0043428D01*
X0099294Y0042731D02*
Y0043428D01*
X0115329Y0033454D02*
X0118295D01*
X0114774Y0032624D02*
X0115110D01*
X0114774Y0031924D02*
X0115217D01*
X0114774Y0026936D02*
Y0033611D01*
X0099994Y0034322D02*
Y0035644D01*
X0099219Y0042731D02*
Y0043118D01*
X0092228Y0055525D02*
X0095262D01*
X0094394Y0054656D02*
Y0055525D01*
X0093694Y0053956D02*
Y0055525D01*
X0098887Y0052224D02*
X0099225D01*
X0098187Y0051524D02*
X0099225D01*
X0091732Y0055024D02*
X0094762D01*
X0091883Y0054324D02*
X0094062D01*
X0091878Y0053624D02*
X0093362D01*
X0092245Y0045582D02*
X0099225Y0052562D01*
X0090018Y0050280D02*
X0095262Y0055525D01*
X0097487Y0050824D02*
X0099225D01*
X0096087Y0049424D02*
X0111093D01*
X0096787Y0050124D02*
X0099225D01*
X0095387Y0048724D02*
X0099225D01*
X0094687Y0048024D02*
X0099225D01*
X0093987Y0047324D02*
X0099225D01*
X0093287Y0046624D02*
X0099225D01*
X0092587Y0045924D02*
X0099225D01*
X0091701Y0045224D02*
X0099225D01*
X0092228Y0055525D02*
Y0059600D01*
X0092172Y0055525D02*
Y0059600D01*
X0091513Y0055525D02*
X0092172D01*
X0092994Y0053256D02*
Y0055525D01*
X0092294Y0052556D02*
Y0055525D01*
X0091714Y0052924D02*
X0092662D01*
X0091362Y0052224D02*
X0091962D01*
X0091594Y0051856D02*
Y0052634D01*
X0090894Y0051156D02*
Y0051670D01*
X0091594Y0043502D02*
Y0045186D01*
X0090894Y0043502D02*
Y0045112D01*
X0090728Y0051524D02*
X0091262D01*
X0090194Y0050456D02*
Y0051170D01*
Y0043502D02*
Y0045112D01*
X0089494Y0050280D02*
Y0050900D01*
X0099219Y0042731D02*
X0100727D01*
X0098594Y0043118D02*
Y0051931D01*
X0099165Y0036472D02*
X0100614Y0035023D01*
X0099294Y0018507D02*
Y0036344D01*
X0097894Y0043118D02*
Y0051231D01*
X0097194Y0043118D02*
Y0050531D01*
X0096494Y0043118D02*
Y0049831D01*
X0092046Y0043124D02*
X0100507D01*
X0092488Y0043118D02*
X0099219D01*
X0099130Y0035424D02*
X0100213D01*
X0099135Y0034024D02*
X0099822D01*
X0099215Y0033324D02*
X0099563D01*
X0098931Y0031924D02*
X0099541D01*
X0099038Y0032624D02*
X0099474D01*
X0098759Y0034724D02*
X0100304D01*
X0095794Y0043118D02*
Y0049131D01*
X0095094Y0043118D02*
Y0048431D01*
X0094394Y0043118D02*
Y0047731D01*
X0093694Y0043118D02*
Y0047031D01*
X0092994Y0043118D02*
Y0046331D01*
X0092488Y0039143D02*
Y0043118D01*
X0089494Y0043502D02*
Y0045112D01*
X0092294Y0038722D02*
Y0045631D01*
X0092046Y0038781D02*
Y0043502D01*
Y0042424D02*
X0092488D01*
X0092046Y0041724D02*
X0092488D01*
X0092046Y0041024D02*
X0092488D01*
X0092046Y0040324D02*
X0092488D01*
X0092046Y0038924D02*
X0092520D01*
X0092046Y0039624D02*
X0092488D01*
X0114774Y0029824D02*
X0115242D01*
X0114774Y0029124D02*
X0115092D01*
X0116917Y0021230D02*
X0119672D01*
X0116474Y0018480D02*
Y0021280D01*
X0112861Y0020024D02*
X0113274D01*
X0112161Y0019324D02*
X0113274D01*
Y0018474D02*
Y0020437D01*
X0111400Y0018563D02*
X0113274Y0020437D01*
X0109794Y0024082D02*
Y0030414D01*
X0109874Y0024163D02*
Y0030463D01*
X0109094Y0023382D02*
Y0030109D01*
X0106994Y0021282D02*
Y0030200D01*
X0106294Y0019825D02*
Y0030585D01*
X0105131Y0030524D02*
X0106380D01*
X0105594Y0020258D02*
Y0031264D01*
X0104894Y0020482D02*
Y0030269D01*
X0108394Y0022682D02*
Y0029982D01*
X0106970Y0021259D02*
X0109874Y0024163D01*
X0107694Y0021982D02*
Y0030010D01*
X0111461Y0018624D02*
X0113274D01*
X0104311Y0029824D02*
X0109874D01*
X0106019Y0020024D02*
X0106500D01*
Y0019641D02*
Y0020126D01*
X0120994Y0001960D02*
Y0021733D01*
X0120294Y0001960D02*
Y0021329D01*
X0119594Y0001960D02*
Y0021230D01*
X0118894Y0001960D02*
Y0021230D01*
X0118194Y0001960D02*
Y0021230D01*
X0116794Y0017680D02*
Y0021234D01*
X0116474Y0018480D02*
X0116479Y0017884D01*
X0113274Y0018459D02*
X0113279Y0017859D01*
X0117494Y0016974D02*
Y0021230D01*
Y0001960D02*
Y0013226D01*
X0116794Y0001960D02*
Y0012520D01*
X0116094Y0001960D02*
Y0012131D01*
X0115394Y0001960D02*
Y0011938D01*
X0114694Y0001960D02*
Y0011907D01*
X0111400Y0017924D02*
X0113278D01*
X0111400Y0012324D02*
X0113307D01*
X0113994Y0001960D02*
Y0012031D01*
X0112594Y0017318D02*
Y0019757D01*
X0111400Y0017224D02*
X0112507D01*
X0111894Y0016196D02*
Y0019057D01*
Y0001960D02*
Y0014004D01*
X0111400Y0004100D02*
Y0018563D01*
Y0016524D02*
X0112034D01*
X0111400Y0015824D02*
X0111783D01*
X0111400Y0014424D02*
X0111772D01*
X0111400Y0015124D02*
X0111700D01*
X0111400Y0013024D02*
X0112464D01*
X0113294Y0001960D02*
Y0012332D01*
X0111400Y0013724D02*
X0112011D01*
X0112594Y0001960D02*
Y0012882D01*
X0111194Y0001960D02*
Y0003314D01*
X0109923Y0001960D02*
X0110930Y0002967D01*
X0110494Y0001960D02*
Y0002531D01*
X0099184Y0030524D02*
X0100217D01*
X0099217Y0028424D02*
X0109874D01*
X0099191Y0031224D02*
X0099773D01*
X0099123Y0027724D02*
X0109874D01*
X0104194Y0020542D02*
Y0029758D01*
X0098906Y0029824D02*
X0101037D01*
X0099056Y0029124D02*
X0109874D01*
X0099142Y0026324D02*
X0109874D01*
X0099213Y0025624D02*
X0109874D01*
X0099027Y0024924D02*
X0109874D01*
X0099195Y0023524D02*
X0109236D01*
X0099180Y0022824D02*
X0108536D01*
X0098778Y0027024D02*
X0109874D01*
X0098945Y0024224D02*
X0109874D01*
X0098891Y0022124D02*
X0107836D01*
X0098089Y0021424D02*
X0107136D01*
X0092046Y0031924D02*
X0092462D01*
X0092046Y0031508D02*
X0092465Y0031928D01*
X0092046Y0031508D02*
Y0032131D01*
X0095854Y0023217D02*
X0098819D01*
X0092888D02*
X0095854D01*
Y0021630D02*
Y0023217D01*
X0094476Y0021230D02*
X0097232D01*
X0091787Y0022124D02*
X0092816D01*
X0091374Y0021711D02*
X0092521Y0022858D01*
X0091374Y0021424D02*
X0093618D01*
X0103494Y0020542D02*
Y0029481D01*
X0102274Y0020542D02*
X0104274D01*
X0102794D02*
Y0029376D01*
X0102094Y0020537D02*
Y0029427D01*
X0101394Y0020419D02*
Y0029641D01*
X0091374Y0020724D02*
X0106616D01*
X0100694Y0020125D02*
Y0030060D01*
X0099994Y0019587D02*
Y0030826D01*
X0093921Y0017924D02*
X0099127D01*
X0093972Y0017224D02*
X0099076D01*
X0099375Y0015621D02*
Y0015988D01*
X0092519Y0020024D02*
X0100529D01*
X0093286Y0019324D02*
X0099762D01*
X0093706Y0018624D02*
X0099342D01*
X0093825Y0016272D02*
X0099259D01*
X0098594D02*
Y0021770D01*
X0097894Y0016272D02*
Y0021343D01*
X0093694Y0018652D02*
Y0021390D01*
X0097194Y0016272D02*
Y0021230D01*
X0096494Y0016272D02*
Y0021230D01*
X0091594Y0020436D02*
Y0021931D01*
X0091374Y0020486D02*
Y0021711D01*
X0092994Y0019647D02*
Y0021893D01*
X0092294Y0020158D02*
Y0022631D01*
X0095794Y0016272D02*
Y0021230D01*
X0095094Y0016272D02*
Y0021230D01*
X0094394Y0016272D02*
Y0021232D01*
X0093868Y0016524D02*
X0099180D01*
X0093825Y0015621D02*
Y0016272D01*
X0093694Y0015621D02*
Y0016033D01*
X0093472Y0015621D02*
X0093825D01*
X0089494Y0153900D02*
Y0156240D01*
X0089135Y0153900D02*
X0097535D01*
X0089135Y0148479D02*
Y0153900D01*
X0088794Y0148464D02*
Y0156240D01*
X0088094Y0148294D02*
Y0156240D01*
X0084035Y0153724D02*
X0089135D01*
X0084035Y0153024D02*
X0089135D01*
X0075635Y0153900D02*
X0084035D01*
X0087394Y0147891D02*
Y0156240D01*
X0084035Y0147500D02*
Y0153900D01*
Y0152324D02*
X0089135D01*
X0084035Y0151624D02*
X0089135D01*
X0084035Y0150924D02*
X0089135D01*
X0084035Y0150224D02*
X0089135D01*
X0084035Y0149524D02*
X0089135D01*
X0084035Y0148824D02*
X0089135D01*
X0084035Y0148124D02*
X0087738D01*
X0083894Y0153900D02*
Y0156240D01*
X0083194Y0153900D02*
Y0156240D01*
X0082494Y0153900D02*
Y0156240D01*
X0081794Y0153900D02*
Y0156240D01*
X0081094Y0153900D02*
Y0156240D01*
X0080394Y0153900D02*
Y0156240D01*
X0079694Y0153900D02*
Y0156240D01*
X0078994Y0153900D02*
Y0156240D01*
X0078294Y0153900D02*
Y0156240D01*
X0077594Y0153900D02*
Y0156240D01*
X0076894Y0153900D02*
Y0156240D01*
X0079835Y0150700D02*
Y0153500D01*
X0076194Y0153900D02*
Y0156240D01*
X0083533Y0147500D02*
X0084035D01*
X0079835Y0150700D02*
X0083635D01*
X0076035D02*
X0079835D01*
X0075635Y0148479D02*
Y0153900D01*
X0075494Y0148479D02*
Y0156240D01*
X0074794Y0148479D02*
Y0156240D01*
X0086694Y0147215D02*
Y0156240D01*
X0085994Y0146515D02*
Y0156240D01*
X0083894Y0146721D02*
Y0147500D01*
X0085294Y0145815D02*
Y0156240D01*
X0084594Y0145115D02*
Y0156240D01*
X0083580Y0147424D02*
X0086903D01*
X0083892Y0146724D02*
X0086203D01*
X0084026Y0146024D02*
X0085503D01*
X0083528Y0144050D02*
X0087166Y0147688D01*
X0088649Y0108224D02*
X0089213D01*
X0088649Y0107524D02*
X0089913D01*
X0088794Y0107046D02*
Y0108644D01*
X0088649Y0108788D02*
X0090392Y0107046D01*
X0088649D02*
Y0108788D01*
X0084003Y0145324D02*
X0084803D01*
X0085874Y0108774D02*
X0088249D01*
X0083499D02*
X0085874D01*
X0083894Y0144415D02*
Y0144837D01*
X0082649Y0110174D02*
X0083099D01*
X0082649Y0109624D02*
X0083099D01*
Y0105802D02*
Y0110174D01*
X0082649Y0105802D02*
Y0110174D01*
X0076137D02*
X0077099D01*
Y0105802D02*
Y0110174D01*
X0076894Y0104290D02*
Y0110174D01*
X0076194Y0103035D02*
Y0110174D01*
X0082649Y0108924D02*
X0083099D01*
X0079874Y0108774D02*
X0082249D01*
X0077499D02*
X0079874D01*
X0082649Y0108224D02*
X0083099D01*
X0082649Y0107524D02*
X0083099D01*
X0075587Y0109624D02*
X0077099D01*
X0074887Y0108924D02*
X0077099D01*
X0075494Y0097869D02*
Y0109531D01*
X0074794Y0098569D02*
Y0108831D01*
X0069894Y0153900D02*
Y0156240D01*
X0069194Y0153900D02*
Y0156240D01*
X0068494Y0153900D02*
Y0156240D01*
X0070535Y0153724D02*
X0075635D01*
X0074094Y0148479D02*
Y0156240D01*
X0002000D02*
X0277540D01*
X0002000Y0155824D02*
X0277540D01*
X0002000Y0155124D02*
X0277540D01*
X0002000Y0154424D02*
X0277540D01*
X0067794Y0153900D02*
Y0156240D01*
X0070535Y0153024D02*
X0075635D01*
X0070535Y0152324D02*
X0075635D01*
X0070535Y0151624D02*
X0075635D01*
X0070535Y0150924D02*
X0075635D01*
X0070535Y0150224D02*
X0075635D01*
X0062135Y0153900D02*
X0070535D01*
X0066335Y0150700D02*
X0070135D01*
X0070535Y0149524D02*
X0075635D01*
X0070535Y0148824D02*
X0075635D01*
X0067094Y0153900D02*
Y0156240D01*
X0066394Y0153900D02*
Y0156240D01*
X0065694Y0153900D02*
Y0156240D01*
X0064994Y0153900D02*
Y0156240D01*
X0064294Y0153900D02*
Y0156240D01*
X0063594Y0153900D02*
Y0156240D01*
X0062894Y0153900D02*
Y0156240D01*
X0062194Y0153900D02*
Y0156240D01*
X0057035Y0153724D02*
X0062135D01*
X0057035Y0153024D02*
X0062135D01*
X0057035Y0152324D02*
X0062135D01*
X0057035Y0151624D02*
X0062135D01*
X0066335Y0150700D02*
Y0153500D01*
X0062535Y0150700D02*
X0066335D01*
X0057035Y0150924D02*
X0062135D01*
X0057035Y0150224D02*
X0062135D01*
X0057035Y0149524D02*
X0062135D01*
X0057035Y0148824D02*
X0062135D01*
X0073394Y0148479D02*
Y0156240D01*
X0072694Y0148479D02*
Y0156240D01*
X0071994Y0148479D02*
Y0156240D01*
X0071294Y0148479D02*
Y0156240D01*
X0070594Y0148479D02*
Y0156240D01*
X0070535Y0148479D02*
Y0153900D01*
Y0148479D02*
X0075635D01*
X0062135Y0147500D02*
X0062638D01*
X0056139Y0143558D02*
X0063032D01*
X0073900Y0107937D02*
X0076137Y0110174D01*
X0074187Y0108224D02*
X0077099D01*
X0074094Y0099269D02*
Y0108131D01*
X0073900Y0099463D02*
Y0107937D01*
X0063900Y0092800D02*
Y0107628D01*
X0060200Y0113628D02*
X0063900D01*
X0060200Y0113572D02*
X0063900D01*
X0060200Y0107628D02*
X0063900D01*
X0063594Y0092775D02*
Y0107628D01*
X0062135Y0147500D02*
Y0153900D01*
X0057035Y0148124D02*
X0062135D01*
X0062194Y0146387D02*
Y0147500D01*
X0061494Y0143558D02*
Y0156240D01*
X0060794Y0143558D02*
Y0156240D01*
X0056580Y0147424D02*
X0062591D01*
X0056892Y0146724D02*
X0062278D01*
X0057026Y0146024D02*
X0062145D01*
X0057003Y0145324D02*
X0062168D01*
X0062300Y0110600D02*
Y0113172D01*
Y0108028D02*
Y0110600D01*
X0062194Y0143558D02*
Y0145171D01*
X0062894Y0092775D02*
Y0107628D01*
X0062194Y0092775D02*
Y0107628D01*
X0056443Y0143924D02*
X0062727D01*
X0056820Y0144624D02*
X0062351D01*
X0061494Y0092775D02*
Y0107628D01*
X0060794Y0092775D02*
Y0107628D01*
X0088649Y0107046D02*
X0090392D01*
X0087874Y0104074D02*
X0090249D01*
X0085499D02*
X0087874D01*
Y0101502D02*
Y0104074D01*
X0083099Y0105802D02*
X0085099D01*
X0085291Y0101102D02*
X0089909D01*
X0083028Y0105424D02*
X0085099D01*
X0085287Y0101046D02*
X0089913D01*
X0084902Y0090999D02*
X0086379D01*
X0082574Y0090724D02*
X0086222D01*
X0085994Y0090141D02*
Y0090999D01*
X0086694Y0086613D02*
Y0087135D01*
X0082574Y0090024D02*
X0085963D01*
X0082574Y0089324D02*
X0085874D01*
X0082574Y0088624D02*
X0085941D01*
X0082574Y0087224D02*
X0086617D01*
X0082574Y0087924D02*
X0086173D01*
X0084594Y0103878D02*
Y0105802D01*
X0084499Y0104024D02*
X0085099D01*
X0083894Y0104753D02*
Y0105802D01*
X0085099Y0102759D02*
Y0105802D01*
Y0099674D02*
Y0100041D01*
X0082649Y0106824D02*
X0083099D01*
X0082649Y0106124D02*
X0083099D01*
X0083922Y0104724D02*
X0085099D01*
X0083194Y0105320D02*
Y0105802D01*
X0083926Y0096474D02*
X0084902D01*
Y0090999D02*
Y0096474D01*
X0082447Y0092824D02*
X0084902D01*
X0082494Y0092701D02*
Y0097098D01*
X0082574Y0092124D02*
X0084902D01*
X0082574Y0091424D02*
X0084902D01*
X0087647Y0076725D02*
Y0081610D01*
X0086701Y0080924D02*
X0087647D01*
X0086701Y0081624D02*
X0087618D01*
X0087394Y0076472D02*
Y0081751D01*
X0086701Y0076725D02*
Y0082275D01*
X0082574Y0086524D02*
X0086617D01*
X0082574Y0085824D02*
X0086173D01*
X0086701Y0080224D02*
X0087647D01*
X0086701Y0079524D02*
X0087647D01*
X0086701Y0078824D02*
X0087647D01*
X0086701Y0078124D02*
X0087647D01*
X0086701Y0077424D02*
X0087647D01*
Y0076725D02*
X0093197D01*
X0085994Y0070528D02*
X0090125D01*
X0084687Y0076724D02*
X0102000D01*
X0084688Y0076725D02*
X0086701D01*
X0085125Y0076472D02*
X0090125D01*
X0086015Y0070472D02*
X0090125D01*
X0085994Y0085341D02*
Y0088407D01*
Y0082275D02*
Y0083607D01*
X0085294Y0082275D02*
Y0090999D01*
X0084594Y0082275D02*
Y0096474D01*
X0084165Y0076202D02*
X0084688Y0076725D01*
X0082574Y0085124D02*
X0085941D01*
X0083894Y0082275D02*
Y0096474D01*
X0083194Y0082275D02*
Y0096652D01*
X0082574Y0082275D02*
Y0092200D01*
X0085125Y0075100D02*
Y0076472D01*
X0084207Y0076024D02*
X0085125D01*
X0084700Y0075100D02*
X0085125D01*
X0084594Y0075096D02*
Y0076631D01*
X0084274Y0075324D02*
X0085125D01*
X0082246Y0105802D02*
X0082649D01*
X0077099D02*
X0078954D01*
X0078294Y0105495D02*
Y0105802D01*
X0077594Y0105013D02*
Y0105802D01*
X0073900Y0107524D02*
X0077099D01*
X0073900Y0106824D02*
X0077099D01*
X0073900Y0106124D02*
X0077099D01*
X0073900Y0105424D02*
X0078172D01*
X0073900Y0104724D02*
X0077278D01*
X0074938Y0098424D02*
X0076962D01*
X0075638Y0097724D02*
X0077671D01*
X0074238Y0099124D02*
X0076488D01*
X0076338Y0097024D02*
X0078884D01*
X0076194Y0097169D02*
Y0099765D01*
X0073900Y0104024D02*
X0076701D01*
X0073900Y0103324D02*
X0076312D01*
X0073900Y0102624D02*
X0076062D01*
X0073900Y0099824D02*
X0076172D01*
X0060200Y0107524D02*
X0063900D01*
X0060200Y0106824D02*
X0063900D01*
X0060200Y0106124D02*
X0063900D01*
X0073900Y0101924D02*
X0075929D01*
X0060200Y0105424D02*
X0063900D01*
X0060200Y0104724D02*
X0063900D01*
X0060200Y0104024D02*
X0063900D01*
X0060200Y0103324D02*
X0063900D01*
X0060200Y0102624D02*
X0063900D01*
X0060200Y0101924D02*
X0063900D01*
X0073900Y0101224D02*
X0075903D01*
X0060200D02*
X0063900D01*
X0073900Y0100524D02*
X0075982D01*
X0060200D02*
X0063900D01*
X0060200Y0099824D02*
X0063900D01*
X0060200Y0099124D02*
X0063900D01*
X0060200Y0098424D02*
X0063900D01*
X0060200Y0097724D02*
X0063900D01*
X0081094Y0094343D02*
Y0096726D01*
X0080512Y0094924D02*
X0084902D01*
X0080394Y0095043D02*
Y0096705D01*
X0080117Y0095320D02*
X0082104Y0093333D01*
X0081794Y0093643D02*
Y0096854D01*
X0077038Y0096324D02*
X0084902D01*
X0079693Y0095624D02*
X0084902D01*
X0082574Y0084424D02*
X0085874D01*
X0082574Y0083024D02*
X0086221D01*
X0082574Y0083724D02*
X0085963D01*
X0082574Y0082324D02*
X0086703D01*
X0082574Y0082275D02*
X0086701D01*
X0081212Y0094224D02*
X0084902D01*
X0081912Y0093524D02*
X0084902D01*
X0078994Y0095790D02*
Y0096983D01*
X0079694Y0095624D02*
Y0096788D01*
X0078294Y0095790D02*
Y0097305D01*
X0077573Y0095790D02*
X0078984D01*
X0077594D02*
Y0097787D01*
X0076894Y0096469D02*
Y0098510D01*
X0060200Y0097024D02*
X0063900D01*
X0073900Y0099463D02*
X0077573Y0095790D01*
X0060200Y0096324D02*
X0063900D01*
X0060200Y0095624D02*
X0063900D01*
X0060200Y0094924D02*
X0063900D01*
X0060200Y0094224D02*
X0063900D01*
X0060200Y0093524D02*
X0063900D01*
X0060176Y0092824D02*
X0063900D01*
X0060167Y0092775D02*
X0063900D01*
X0059370Y0073167D02*
X0060800Y0071737D01*
X0059400Y0071124D02*
X0060800D01*
X0059400Y0070424D02*
X0060800D01*
X0056594Y0153900D02*
Y0156240D01*
X0055894Y0153900D02*
Y0156240D01*
X0055194Y0153900D02*
Y0156240D01*
X0054494Y0153900D02*
Y0156240D01*
X0053794Y0153900D02*
Y0156240D01*
X0053094Y0153900D02*
Y0156240D01*
X0052394Y0153900D02*
Y0156240D01*
X0051694Y0153900D02*
Y0156240D01*
X0050994Y0153900D02*
Y0156240D01*
X0050294Y0153900D02*
Y0156240D01*
X0049594Y0153900D02*
Y0156240D01*
X0048635Y0153900D02*
X0057035D01*
X0048894D02*
Y0156240D01*
X0043294Y0153900D02*
Y0156240D01*
X0042594Y0153900D02*
Y0156240D01*
X0041894Y0153900D02*
Y0156240D01*
X0041194Y0153900D02*
Y0156240D01*
X0035649Y0153900D02*
X0043535D01*
X0040494D02*
Y0156240D01*
X0039794Y0153900D02*
Y0156240D01*
X0039094Y0153900D02*
Y0156240D01*
X0038394Y0153900D02*
Y0156240D01*
X0037694Y0153900D02*
Y0156240D01*
X0036994Y0153900D02*
Y0156240D01*
X0036294Y0153900D02*
Y0156240D01*
X0035594Y0153946D02*
Y0156240D01*
X0034894Y0153946D02*
Y0156240D01*
X0034194Y0153946D02*
Y0156240D01*
X0033494Y0153946D02*
Y0156240D01*
X0032794Y0153946D02*
Y0156240D01*
X0035135Y0153900D02*
X0035649D01*
X0032094Y0153946D02*
Y0156240D01*
X0031394Y0153946D02*
Y0156240D01*
X0030694Y0153946D02*
Y0156240D01*
X0030099Y0153946D02*
X0035649D01*
X0029994Y0153900D02*
Y0156240D01*
X0029294Y0153900D02*
Y0156240D01*
X0028594Y0153900D02*
Y0156240D01*
X0060094Y0143558D02*
Y0156240D01*
X0059394Y0143558D02*
Y0156240D01*
X0058694Y0143558D02*
Y0156240D01*
X0057994Y0143558D02*
Y0156240D01*
X0057294Y0143558D02*
Y0156240D01*
X0043535Y0153724D02*
X0048635D01*
X0043535Y0153024D02*
X0048635D01*
X0043535Y0152324D02*
X0048635D01*
X0057035Y0147500D02*
Y0153900D01*
X0052835Y0150700D02*
Y0153500D01*
Y0150700D02*
X0056635D01*
X0049035D02*
X0052835D01*
X0043535Y0151624D02*
X0048635D01*
X0056533Y0147500D02*
X0057035D01*
X0043535Y0150924D02*
X0048635D01*
X0043535Y0150224D02*
X0048635D01*
X0043535Y0149524D02*
X0048635D01*
X0043535Y0148824D02*
X0048635D01*
X0048194Y0148479D02*
Y0156240D01*
X0047494Y0148479D02*
Y0156240D01*
X0046794Y0148479D02*
Y0156240D01*
X0046094Y0148479D02*
Y0156240D01*
X0045394Y0148479D02*
Y0156240D01*
X0027894Y0153900D02*
Y0156240D01*
X0027194Y0153900D02*
Y0156240D01*
X0044694Y0148479D02*
Y0156240D01*
X0043994Y0148479D02*
Y0156240D01*
X0048635Y0148479D02*
Y0153900D01*
X0039335Y0150700D02*
X0043135D01*
X0039335D02*
Y0153500D01*
X0043535Y0148479D02*
X0048635D01*
X0043535D02*
Y0153900D01*
X0032874Y0150974D02*
Y0153546D01*
X0030499Y0150974D02*
X0032874D01*
X0030099Y0148479D02*
Y0153946D01*
X0030035Y0148479D02*
Y0153900D01*
X0026494D02*
Y0156240D01*
X0025794Y0153900D02*
Y0156240D01*
X0025094Y0153900D02*
Y0156240D01*
X0024394Y0153900D02*
Y0156240D01*
X0023694Y0153900D02*
Y0156240D01*
X0022994Y0153900D02*
Y0156240D01*
X0021635Y0153900D02*
X0030035D01*
X0022294D02*
Y0156240D01*
X0016535Y0153724D02*
X0021635D01*
X0015994Y0153900D02*
Y0156240D01*
X0025835Y0150700D02*
Y0153500D01*
X0016535Y0153024D02*
X0021635D01*
X0016535Y0152324D02*
X0021635D01*
X0025835Y0150700D02*
X0029635D01*
X0022035D02*
X0025835D01*
X0016535Y0151624D02*
X0021635D01*
X0008135Y0153900D02*
X0016535D01*
Y0150924D02*
X0021635D01*
X0012335Y0150700D02*
X0016135D01*
X0015294Y0153900D02*
Y0156240D01*
X0014594Y0153900D02*
Y0156240D01*
X0013894Y0153900D02*
Y0156240D01*
X0013194Y0153900D02*
Y0156240D01*
X0012494Y0153900D02*
Y0156240D01*
X0011794Y0153900D02*
Y0156240D01*
X0011094Y0153900D02*
Y0156240D01*
X0010394Y0153900D02*
Y0156240D01*
X0009694Y0153900D02*
Y0156240D01*
X0008994Y0153900D02*
Y0156240D01*
X0008294Y0153900D02*
Y0156240D01*
X0002000Y0153724D02*
X0008135D01*
X0012335Y0150700D02*
Y0153500D01*
X0008535Y0150700D02*
X0012335D01*
X0002000Y0153024D02*
X0008135D01*
X0002000Y0152324D02*
X0008135D01*
X0002000Y0151624D02*
X0008135D01*
X0002000Y0150924D02*
X0008135D01*
X0020194Y0145973D02*
Y0156240D01*
X0021635Y0147500D02*
Y0153900D01*
X0019494Y0146673D02*
Y0156240D01*
X0021594Y0144573D02*
Y0156240D01*
X0020894Y0145273D02*
Y0156240D01*
X0017394Y0148350D02*
Y0156240D01*
X0016694Y0148476D02*
Y0156240D01*
X0016535Y0148479D02*
Y0153900D01*
X0018794Y0147373D02*
Y0156240D01*
X0018094Y0148007D02*
Y0156240D01*
X0016535Y0150224D02*
X0021635D01*
Y0147500D02*
X0022138D01*
X0017906Y0148124D02*
X0021635D01*
X0018742Y0147424D02*
X0022091D01*
X0018478Y0147688D02*
X0022194Y0143973D01*
X0016535Y0149524D02*
X0021635D01*
X0016535Y0148824D02*
X0021635D01*
X0007594Y0148477D02*
Y0156240D01*
X0006894Y0148362D02*
Y0156240D01*
X0006194Y0148034D02*
Y0156240D01*
X0005494Y0147412D02*
Y0156240D01*
X0004794Y0146712D02*
Y0156240D01*
X0004094Y0146012D02*
Y0156240D01*
X0003394Y0145312D02*
Y0156240D01*
X0002694Y0144612D02*
Y0156240D01*
X0002000Y0143918D02*
Y0156240D01*
X0008135Y0148479D02*
Y0153900D01*
X0002000Y0150224D02*
X0008135D01*
X0007679Y0148479D02*
X0008135D01*
X0002000Y0149524D02*
X0008135D01*
X0002000Y0148824D02*
X0008135D01*
X0002000Y0148124D02*
X0006342D01*
X0002000Y0143918D02*
X0005770Y0147688D01*
X0060200Y0093100D02*
Y0107628D01*
X0058462Y0090699D02*
X0059730Y0091967D01*
X0060028Y0087694D02*
Y0092379D01*
X0059394Y0087779D02*
Y0091631D01*
X0059187Y0091424D02*
X0060028D01*
X0058487Y0090724D02*
X0060028D01*
X0058462Y0090024D02*
X0060028D01*
X0058462Y0089324D02*
X0060028D01*
X0059370Y0079695D02*
X0059890Y0080215D01*
X0058462Y0088624D02*
X0060028D01*
X0058462Y0087924D02*
X0060028D01*
X0058694Y0087867D02*
Y0090931D01*
X0056594Y0143558D02*
Y0144157D01*
X0058831Y0083917D02*
Y0087472D01*
X0058462Y0087833D02*
Y0090699D01*
X0051000Y0097600D02*
Y0100172D01*
Y0095028D02*
Y0097600D01*
X0050294Y0093956D02*
Y0094628D01*
X0049594Y0093256D02*
Y0094628D01*
X0059394Y0079719D02*
Y0080054D01*
X0058462Y0079524D02*
X0059221D01*
X0058831Y0080361D02*
Y0083917D01*
X0058462Y0078824D02*
X0058921D01*
X0051596D02*
X0052338D01*
X0051229Y0079524D02*
X0051657D01*
X0059394Y0071543D02*
Y0073144D01*
X0058462Y0078124D02*
X0058900D01*
X0058462Y0077424D02*
X0058900D01*
X0058462Y0076724D02*
X0058900D01*
X0058462Y0073224D02*
X0059316D01*
X0058462Y0073924D02*
X0058945D01*
X0059343Y0071824D02*
X0060713D01*
X0059479Y0069024D02*
X0060800D01*
X0059400Y0069071D02*
Y0071400D01*
X0060278Y0068324D02*
X0060800D01*
X0060094Y0068531D02*
Y0072444D01*
X0058938Y0072524D02*
X0060013D01*
X0059400Y0069724D02*
X0060800D01*
X0058694Y0072769D02*
Y0079966D01*
X0058900Y0074300D02*
Y0078563D01*
X0058462Y0073001D02*
Y0080000D01*
X0052900Y0069163D02*
Y0078262D01*
X0052394Y0068656D02*
Y0078769D01*
X0051795Y0079367D02*
X0052900Y0078262D01*
X0051694Y0078518D02*
Y0079479D01*
X0051772Y0078124D02*
X0052900D01*
X0058462Y0076024D02*
X0058900D01*
X0058462Y0075324D02*
X0058900D01*
X0051788Y0077424D02*
X0052900D01*
X0058462Y0074624D02*
X0058900D01*
X0058462Y0073001D02*
X0058930Y0072533D01*
X0051648Y0076724D02*
X0052900D01*
X0051326Y0076024D02*
X0052900D01*
X0050744Y0075324D02*
X0052900D01*
X0049484Y0074624D02*
X0052900D01*
X0048775Y0100628D02*
X0052200D01*
X0048225D02*
X0048775D01*
X0048225D02*
X0048775D01*
X0048225Y0100572D02*
X0052200D01*
X0048194Y0091856D02*
Y0094825D01*
X0044600Y0100628D02*
X0048225D01*
X0044600Y0100375D02*
X0048225D01*
X0044600Y0094825D02*
X0048225D01*
Y0094628D02*
X0050966D01*
X0047494Y0090960D02*
Y0094825D01*
X0047858Y0091521D02*
X0050966Y0094628D01*
X0044600Y0094224D02*
X0050562D01*
X0048894Y0092556D02*
Y0094628D01*
X0044600Y0093524D02*
X0049862D01*
X0044600Y0092824D02*
X0049162D01*
X0044600Y0092124D02*
X0048462D01*
X0044600Y0091424D02*
X0047769D01*
X0019442Y0146724D02*
X0021778D01*
X0020142Y0146024D02*
X0021645D01*
X0020842Y0145324D02*
X0021668D01*
X0021542Y0144624D02*
X0021851D01*
X0002000Y0147424D02*
X0005506D01*
X0002000Y0146724D02*
X0004806D01*
X0002000Y0146024D02*
X0004106D01*
X0002000Y0145324D02*
X0003406D01*
X0046000Y0097600D02*
Y0099975D01*
X0044600Y0090724D02*
X0047424D01*
X0046000Y0095225D02*
Y0097600D01*
X0047388Y0087833D02*
Y0090388D01*
X0046794Y0087858D02*
Y0094825D01*
X0044600Y0090024D02*
X0047388D01*
X0002000Y0144624D02*
X0002706D01*
X0044600Y0089324D02*
X0047388D01*
X0044600Y0088624D02*
X0047388D01*
X0046094Y0087608D02*
Y0094825D01*
X0046794Y0068669D02*
Y0075059D01*
X0046094Y0079690D02*
Y0080225D01*
X0044600Y0087924D02*
X0047388D01*
X0042714Y0075324D02*
X0046456D01*
X0043638Y0071824D02*
X0052900D01*
X0044338Y0071124D02*
X0052900D01*
X0045038Y0070424D02*
X0052900D01*
X0045738Y0069724D02*
X0052900D01*
X0046438Y0069024D02*
X0052762D01*
X0042714Y0073924D02*
X0052900D01*
X0042714Y0074624D02*
X0047716D01*
X0042714Y0073224D02*
X0052900D01*
X0042938Y0072524D02*
X0052900D01*
X0045394Y0087839D02*
Y0094825D01*
X0045051Y0083917D02*
Y0087472D01*
X0044694Y0087836D02*
Y0094825D01*
X0045394Y0070069D02*
Y0079994D01*
X0045051Y0080361D02*
Y0083917D01*
X0044600Y0087813D02*
Y0094825D01*
X0044694Y0070769D02*
Y0079997D01*
X0043994Y0071469D02*
Y0080216D01*
X0042714Y0079524D02*
X0045971D01*
X0042714Y0078824D02*
X0045604D01*
X0042714Y0072749D02*
Y0080000D01*
X0046094Y0069369D02*
Y0075710D01*
X0043294Y0072169D02*
Y0079973D01*
X0042714Y0078124D02*
X0045428D01*
X0042714Y0077424D02*
X0045412D01*
X0042714Y0076024D02*
X0045874D01*
X0042714Y0076724D02*
X0045552D01*
X0083800Y0053900D02*
Y0056472D01*
X0081425Y0053900D02*
X0083800D01*
X0081025Y0056928D02*
Y0058374D01*
X0083800Y0051328D02*
Y0053900D01*
X0073637Y0058374D02*
X0081025D01*
Y0056928D02*
X0086228D01*
X0077186Y0057824D02*
X0081025D01*
Y0056872D02*
X0086228D01*
X0078467Y0057124D02*
X0081025D01*
X0089095Y0050824D02*
X0090562D01*
X0088794Y0050280D02*
Y0050801D01*
X0088094Y0050280D02*
Y0050858D01*
X0087394Y0050280D02*
Y0051079D01*
X0086694Y0050280D02*
Y0051507D01*
X0086575Y0050928D02*
Y0051608D01*
X0081025Y0050928D02*
X0086575D01*
X0079531Y0050824D02*
X0088305D01*
X0085994Y0050280D02*
Y0050928D01*
X0078294Y0057252D02*
Y0058374D01*
X0077594Y0057656D02*
Y0058374D01*
X0076894Y0057919D02*
Y0058374D01*
X0079694Y0055709D02*
Y0058374D01*
X0078994Y0056652D02*
Y0058374D01*
X0076194Y0058062D02*
Y0058374D01*
X0074794Y0058030D02*
Y0058374D01*
X0074094Y0057852D02*
Y0058374D01*
X0073087Y0057824D02*
X0074014D01*
X0073394Y0057550D02*
Y0058131D01*
X0080010Y0055024D02*
X0081025D01*
X0080208Y0054324D02*
X0081025D01*
X0080295Y0053624D02*
X0081025D01*
X0080276Y0052924D02*
X0081025D01*
Y0050928D02*
Y0056872D01*
X0079198Y0056424D02*
X0081025D01*
X0079685Y0055724D02*
X0081025D01*
X0080151Y0052224D02*
X0081025D01*
X0079909Y0051524D02*
X0081025D01*
X0085294Y0050280D02*
Y0050928D01*
X0088794Y0043502D02*
Y0045112D01*
X0084594Y0050280D02*
Y0050928D01*
X0088094Y0043502D02*
Y0045112D01*
X0087394Y0043502D02*
Y0045112D01*
X0083894Y0050280D02*
Y0050928D01*
X0083194Y0050280D02*
Y0050928D01*
X0082494Y0050280D02*
Y0050928D01*
X0079115Y0050280D02*
X0090018D01*
X0081794D02*
Y0050928D01*
X0086694Y0043502D02*
Y0045112D01*
X0085994Y0043502D02*
Y0045112D01*
X0085294Y0043502D02*
Y0045112D01*
X0084921Y0043502D02*
X0092046D01*
X0084921Y0042131D02*
Y0043502D01*
X0084594Y0042131D02*
Y0045112D01*
X0083894Y0042131D02*
Y0045112D01*
X0083194Y0042131D02*
Y0045112D01*
X0082494Y0042131D02*
Y0045112D01*
X0081094Y0050280D02*
Y0050928D01*
X0081794Y0042038D02*
Y0045112D01*
X0080394Y0050280D02*
Y0058374D01*
X0081094Y0041556D02*
Y0045112D01*
X0080394Y0040856D02*
Y0045112D01*
X0079694Y0050280D02*
Y0051091D01*
Y0040156D02*
Y0045112D01*
X0078994Y0039456D02*
Y0045112D01*
X0078294Y0038756D02*
Y0045112D01*
X0076894Y0043502D02*
Y0045112D01*
X0076194Y0043502D02*
Y0045112D01*
X0077594Y0038056D02*
Y0045112D01*
X0077479Y0037942D02*
Y0043502D01*
X0075494D02*
Y0045112D01*
X0074794Y0043502D02*
Y0045112D01*
X0074094Y0043502D02*
Y0045112D01*
X0073394Y0043502D02*
Y0045112D01*
X0072656Y0057393D02*
X0073637Y0058374D01*
X0072694Y0057094D02*
Y0057431D01*
X0072337Y0057124D02*
X0072733D01*
X0068476Y0056554D02*
X0072032D01*
X0064500Y0055537D02*
X0064715Y0055752D01*
X0064500Y0053624D02*
X0064808D01*
X0064500Y0049700D02*
Y0055537D01*
X0064168Y0048724D02*
X0064521D01*
X0063487Y0048024D02*
X0064520D01*
X0060794Y0067431D02*
Y0071744D01*
X0063033Y0047570D02*
X0064030Y0048567D01*
X0060800Y0067414D02*
Y0071737D01*
X0047138Y0068324D02*
X0052062D01*
X0051694Y0067956D02*
Y0076882D01*
X0051598Y0067860D02*
X0052900Y0069163D01*
X0062717Y0047324D02*
X0064520D01*
X0063338Y0046624D02*
X0064520D01*
X0062894Y0046942D02*
Y0047446D01*
X0057700Y0047100D02*
X0061900D01*
X0057700D02*
X0061900D01*
X0055394D02*
X0057700D01*
X0072432Y0045112D02*
X0091112D01*
X0072694Y0043502D02*
Y0045112D01*
X0071994Y0043502D02*
Y0044961D01*
X0071294Y0043502D02*
Y0044961D01*
X0070594Y0043502D02*
Y0044961D01*
X0064520Y0045442D02*
X0065002Y0044961D01*
X0072432D01*
X0064038Y0045924D02*
X0064520D01*
X0069894Y0036600D02*
Y0044961D01*
X0069194Y0040766D02*
Y0044961D01*
X0067094Y0042869D02*
Y0044961D01*
X0070354Y0043502D02*
X0077479D01*
X0066394Y0043569D02*
Y0044961D01*
X0068494Y0041469D02*
Y0044961D01*
X0067794Y0042169D02*
Y0044961D01*
X0065438Y0044524D02*
X0099225D01*
X0065694Y0044269D02*
Y0044961D01*
X0066138Y0043824D02*
X0099225D01*
X0065002Y0044961D02*
X0069130Y0040833D01*
X0064294Y0045669D02*
Y0048914D01*
X0063594Y0046369D02*
Y0048131D01*
X0064520Y0045442D02*
Y0048463D01*
X0063333Y0046630D02*
X0064520Y0045442D01*
X0056594Y0046656D02*
Y0047100D01*
X0055388Y0046624D02*
X0056562D01*
X0055894Y0045956D02*
Y0047100D01*
X0053764Y0043826D02*
X0056567Y0046630D01*
X0055248Y0045924D02*
X0055862D01*
X0055194Y0045256D02*
Y0045769D01*
X0053084Y0043824D02*
X0053762D01*
X0053094Y0042983D02*
Y0043827D01*
X0052394Y0042908D02*
Y0043706D01*
X0051694Y0042828D02*
Y0043740D01*
X0082331Y0042131D02*
X0084921D01*
X0082163Y0033500D02*
X0084921D01*
X0081987Y0033324D02*
X0084921D01*
Y0028898D02*
Y0033500D01*
X0077479Y0043124D02*
X0084921D01*
X0077479Y0042424D02*
X0084921D01*
X0081287Y0032624D02*
X0084921D01*
X0081200Y0032537D02*
X0082163Y0033500D01*
X0088484Y0031869D02*
X0091646D01*
X0085321D02*
X0088484D01*
X0081200Y0031924D02*
X0084921D01*
Y0028898D02*
X0089435D01*
X0088484Y0029298D02*
Y0031869D01*
X0081200Y0031224D02*
X0084921D01*
X0081200Y0030524D02*
X0084921D01*
X0081200Y0029824D02*
X0084921D01*
X0081200Y0029124D02*
X0084921D01*
X0077479Y0041724D02*
X0081265D01*
X0077479Y0041024D02*
X0080562D01*
X0077479Y0040324D02*
X0079862D01*
X0077479Y0037942D02*
X0081198Y0041661D01*
X0077479Y0039624D02*
X0079162D01*
X0073917Y0040531D02*
X0077079D01*
X0073917D02*
Y0043102D01*
X0077479Y0038924D02*
X0078462D01*
X0073917Y0037959D02*
Y0040531D01*
X0077096Y0037559D02*
X0077479Y0037942D01*
X0076137Y0036600D02*
X0077096Y0037559D01*
X0076194Y0036656D02*
Y0037559D01*
X0075494Y0036600D02*
Y0037559D01*
X0074794Y0036600D02*
Y0037559D01*
X0074094Y0036600D02*
Y0037559D01*
X0073394Y0036600D02*
Y0037559D01*
X0072694Y0036600D02*
Y0037559D01*
X0071994Y0036600D02*
Y0037559D01*
X0088794Y0028256D02*
Y0028898D01*
X0088094Y0027556D02*
Y0028898D01*
X0087394Y0026856D02*
Y0028898D01*
X0086694Y0026156D02*
Y0028898D01*
X0085994Y0025456D02*
Y0028898D01*
X0084594Y0024056D02*
Y0033500D01*
X0085294Y0024756D02*
Y0028898D01*
X0083894Y0023356D02*
Y0033500D01*
X0082737Y0022200D02*
X0089435Y0028898D01*
X0083194Y0022656D02*
Y0033500D01*
X0081190Y0028424D02*
X0088962D01*
X0080939Y0027724D02*
X0088262D01*
X0080287Y0027024D02*
X0087562D01*
X0079587Y0026324D02*
X0086862D01*
X0078887Y0025624D02*
X0086162D01*
X0078187Y0024924D02*
X0085462D01*
X0077487Y0024224D02*
X0084762D01*
X0076787Y0023524D02*
X0084062D01*
X0076087Y0022824D02*
X0083362D01*
X0082494Y0022200D02*
Y0033500D01*
X0081200Y0028600D02*
Y0032537D01*
X0081794Y0022200D02*
Y0033131D01*
X0081094Y0022200D02*
Y0028026D01*
X0073333Y0027070D02*
X0075046Y0028784D01*
X0075463Y0022200D02*
X0080730Y0027467D01*
X0080394Y0022200D02*
Y0027131D01*
X0079694Y0022200D02*
Y0026431D01*
X0078994Y0022200D02*
Y0025731D01*
X0078294Y0022200D02*
Y0025031D01*
X0077594Y0022200D02*
Y0024331D01*
X0076894Y0022200D02*
Y0023631D01*
X0072694Y0026356D02*
Y0026678D01*
X0075463Y0022200D02*
X0082737D01*
X0076194D02*
Y0022931D01*
X0068938Y0041024D02*
X0070354D01*
X0070754Y0040531D02*
X0073917D01*
X0069473Y0040324D02*
X0070354D01*
X0069600Y0039624D02*
X0070354D01*
Y0037559D02*
Y0043502D01*
X0066838Y0043124D02*
X0070354D01*
X0067538Y0042424D02*
X0070354D01*
X0068238Y0041724D02*
X0070354D01*
Y0037559D02*
X0077096D01*
X0071294Y0036600D02*
Y0037559D01*
X0069600Y0038924D02*
X0070354D01*
X0070594Y0036600D02*
Y0037559D01*
X0069600Y0036600D02*
Y0039700D01*
Y0037524D02*
X0077062D01*
X0069600Y0038224D02*
X0070354D01*
X0069600Y0036824D02*
X0076362D01*
X0069600Y0036600D02*
X0076137D01*
X0055894Y0033772D02*
Y0035371D01*
X0053794Y0033772D02*
Y0035309D01*
X0050588Y0043124D02*
X0053353D01*
X0055194Y0033772D02*
Y0035105D01*
X0054494Y0033772D02*
Y0035125D01*
X0053094Y0033772D02*
Y0035087D01*
X0048087Y0034724D02*
X0056348D01*
X0047387Y0034024D02*
X0056107D01*
X0051025Y0033772D02*
X0056100D01*
X0052394D02*
Y0035161D01*
X0070775Y0026600D02*
X0072200D01*
X0060225Y0028228D02*
Y0028734D01*
X0070775Y0024438D02*
X0075235Y0028898D01*
X0071994Y0025656D02*
Y0026600D01*
X0060225Y0028228D02*
X0061548D01*
X0060225Y0028172D02*
X0061575D01*
X0058877Y0027724D02*
X0060225D01*
X0056575Y0027024D02*
X0060225D01*
X0070775Y0026324D02*
X0072662D01*
X0070775Y0025624D02*
X0071962D01*
X0071294Y0024956D02*
Y0026600D01*
X0070775Y0024924D02*
X0071262D01*
X0070775Y0024438D02*
Y0026600D01*
X0056575Y0026324D02*
X0060225D01*
X0056575Y0025624D02*
X0060225D01*
X0068000Y0025200D02*
X0070375D01*
X0060625D02*
X0063000D01*
X0060094Y0023800D02*
Y0028576D01*
X0060225Y0023800D02*
Y0028172D01*
X0059394Y0023737D02*
Y0027985D01*
X0057994Y0023300D02*
Y0027514D01*
X0057294Y0023300D02*
Y0027526D01*
X0051824Y0027828D02*
X0056288D01*
X0051772Y0027772D02*
X0056410D01*
X0056594Y0023300D02*
Y0027697D01*
X0056575Y0023300D02*
Y0027704D01*
Y0024924D02*
X0060225D01*
X0056575Y0024224D02*
X0060225D01*
X0059837Y0023800D02*
X0060225D01*
X0053800Y0024800D02*
X0056175D01*
X0053800D02*
Y0027372D01*
X0056575Y0023524D02*
X0058939D01*
X0056575Y0023300D02*
X0058675D01*
X0050994Y0067703D02*
Y0075576D01*
X0050294Y0067341D02*
Y0074985D01*
X0049594Y0066689D02*
Y0074658D01*
X0048894Y0066569D02*
Y0074514D01*
X0048194Y0067269D02*
Y0074526D01*
X0047838Y0067624D02*
X0050801D01*
X0047494Y0067969D02*
Y0074697D01*
X0048538Y0066924D02*
X0049800D01*
X0042714Y0072749D02*
X0049270Y0066193D01*
X0050588Y0043824D02*
X0051316D01*
X0050994Y0042990D02*
Y0043936D01*
X0050588Y0042951D02*
Y0044136D01*
X0032094Y0042786D02*
Y0043507D01*
X0027487Y0043124D02*
X0032696D01*
X0028187Y0043824D02*
X0031753D01*
X0030694Y0042893D02*
Y0046707D01*
X0029200Y0045500D02*
Y0047189D01*
X0029994Y0042437D02*
Y0046831D01*
X0029294Y0040635D02*
Y0047132D01*
X0029200Y0046624D02*
X0030961D01*
X0029200Y0045924D02*
X0030901D01*
X0029176Y0045224D02*
X0030995D01*
X0028868Y0044524D02*
X0031260D01*
X0031394Y0042986D02*
Y0044293D01*
X0027371Y0043009D02*
X0028730Y0044367D01*
X0024387Y0042424D02*
X0029982D01*
X0024501Y0042538D02*
X0026239D01*
X0023687Y0041724D02*
X0029589D01*
X0022987Y0041024D02*
X0029520D01*
X0050957Y0039035D02*
Y0042591D01*
X0051694Y0033772D02*
Y0035241D01*
X0050957Y0035479D02*
Y0039035D01*
X0050294Y0031975D02*
Y0035209D01*
X0049594Y0031975D02*
Y0035187D01*
X0048894Y0031975D02*
Y0035081D01*
X0048194Y0031975D02*
Y0034833D01*
X0051025Y0032069D02*
Y0033772D01*
X0046687Y0033324D02*
X0051025D01*
X0047494Y0031975D02*
Y0034131D01*
X0046794Y0031975D02*
Y0033431D01*
X0046094Y0031975D02*
Y0032731D01*
X0045987Y0032624D02*
X0051025D01*
X0045828Y0031975D02*
X0050914D01*
X0045338D02*
X0048150Y0034787D01*
X0045828Y0027375D02*
Y0031975D01*
X0028594Y0040540D02*
Y0044231D01*
X0027894Y0040056D02*
Y0043531D01*
X0027194Y0039356D02*
Y0042855D01*
X0033240Y0039035D02*
Y0042591D01*
X0026494Y0039275D02*
Y0042559D01*
X0025794Y0039275D02*
Y0042538D01*
X0025094Y0039275D02*
Y0042538D01*
X0024394Y0039275D02*
Y0042431D01*
X0023694Y0039275D02*
Y0041731D01*
X0029520Y0040635D02*
Y0041239D01*
X0029135Y0040635D02*
X0029520D01*
X0045338Y0031975D02*
X0045772D01*
X0022287Y0040324D02*
X0028188D01*
X0022994Y0039275D02*
Y0041031D01*
X0026772Y0038934D02*
X0028002Y0040165D01*
X0026772Y0038934D02*
Y0039275D01*
X0019494Y0058154D02*
Y0062828D01*
X0018794Y0058154D02*
Y0062828D01*
X0018575Y0058154D02*
Y0062572D01*
X0015928Y0062828D02*
X0019678D01*
X0012220Y0062724D02*
X0019659D01*
X0018575Y0062024D02*
X0019693D01*
X0013025Y0062572D02*
X0018575D01*
Y0061324D02*
X0019849D01*
X0018575Y0060624D02*
X0019644D01*
X0018575Y0059924D02*
X0019733D01*
X0020039Y0058523D02*
X0023594D01*
X0018575Y0059224D02*
X0019785D01*
X0015800Y0059600D02*
X0018175D01*
X0018575Y0058524D02*
X0019638D01*
X0018575Y0058154D02*
X0019678D01*
X0015294Y0062572D02*
Y0062960D01*
X0014594Y0062572D02*
Y0063187D01*
X0013894Y0062572D02*
Y0063187D01*
X0013194Y0062572D02*
Y0063187D01*
X0012545D02*
X0014918D01*
X0013025Y0056628D02*
Y0062572D01*
X0012494Y0061552D02*
Y0063101D01*
X0015800Y0059600D02*
Y0062172D01*
X0012137Y0062024D02*
X0013025D01*
X0012622Y0061324D02*
X0013025D01*
X0013425Y0059600D02*
X0015800D01*
X0012679Y0058524D02*
X0013025D01*
X0012238Y0057824D02*
X0013025D01*
X0012117Y0057124D02*
X0013025D01*
Y0056628D02*
X0014329D01*
X0013025Y0056572D02*
X0014306D01*
X0013025Y0050628D02*
X0013866D01*
X0021633Y0039670D02*
X0024501Y0042538D01*
X0013194Y0049956D02*
Y0050628D01*
X0012611Y0056424D02*
X0013025D01*
X0012689Y0053624D02*
X0013025D01*
X0012974Y0049737D02*
X0013866Y0050628D01*
X0012974Y0050124D02*
X0013362D01*
X0022294Y0039275D02*
Y0040331D01*
X0021585Y0039624D02*
X0027462D01*
X0021594Y0039275D02*
Y0039632D01*
X0020983Y0039275D02*
X0026772D01*
X0017800Y0036500D02*
X0020372D01*
X0020828Y0035200D02*
Y0039234D01*
X0020772Y0035200D02*
Y0039223D01*
X0012472Y0053224D02*
X0012974D01*
X0012494Y0056631D02*
Y0058180D01*
X0013025Y0050628D02*
Y0056572D01*
X0012974Y0049737D02*
Y0053224D01*
X0008774Y0050024D02*
X0012574D01*
X0008774Y0047224D02*
Y0050024D01*
X0006174Y0046824D02*
X0010061D01*
X0006174Y0046624D02*
X0009862D01*
X0009237Y0046000D02*
X0010061Y0046824D01*
X0009694Y0046456D02*
Y0046824D01*
X0008994Y0046000D02*
Y0046824D01*
X0008294Y0046000D02*
Y0046824D01*
X0007594Y0046000D02*
Y0046824D01*
X0006894Y0046000D02*
Y0046824D01*
X0006194Y0046000D02*
Y0046824D01*
X0006174Y0046000D02*
X0009237D01*
X0006174D02*
Y0046824D01*
X0045828Y0026425D02*
Y0027375D01*
Y0026425D02*
Y0027375D01*
X0045772D02*
Y0031975D01*
Y0026425D02*
Y0027375D01*
Y0026425D02*
Y0027375D01*
X0039315Y0029070D02*
X0039828Y0029583D01*
X0039370Y0029124D02*
X0039828D01*
X0035366Y0028424D02*
X0039828D01*
X0035617Y0027724D02*
X0039828D01*
Y0027375D02*
Y0029583D01*
X0045828Y0021825D02*
Y0026425D01*
X0046228Y0024600D02*
X0048800D01*
X0045772Y0021825D02*
Y0026425D01*
X0045394Y0021356D02*
Y0021825D01*
X0044694Y0020656D02*
Y0021825D01*
X0035700Y0027024D02*
X0039828D01*
Y0026425D02*
Y0027375D01*
Y0021825D02*
X0045772D01*
X0031975Y0021424D02*
X0045462D01*
X0039828Y0026425D02*
Y0027375D01*
X0036994Y0020535D02*
Y0028600D01*
X0036294Y0020542D02*
Y0028600D01*
X0035271D02*
X0038183D01*
X0035594Y0027818D02*
Y0028600D01*
X0035628Y0026324D02*
X0039828D01*
X0035389Y0025624D02*
X0039828D01*
X0034936Y0024924D02*
X0039828D01*
Y0021825D02*
Y0026425D01*
X0035594Y0020542D02*
Y0026182D01*
X0034093Y0024224D02*
X0039828D01*
X0031975Y0023524D02*
X0039828D01*
X0031975Y0022824D02*
X0039828D01*
X0031975Y0022124D02*
X0039828D01*
X0042980Y0018942D02*
X0045862Y0021825D01*
X0043994Y0019956D02*
Y0021825D01*
X0043294Y0019256D02*
Y0021825D01*
X0042594Y0018942D02*
Y0021825D01*
X0041894Y0018942D02*
Y0021825D01*
X0038394Y0020102D02*
Y0028614D01*
X0037694Y0020407D02*
Y0028600D01*
X0034894Y0020542D02*
Y0024876D01*
X0039794Y0018942D02*
Y0029548D01*
X0039094Y0019547D02*
Y0028885D01*
X0038519Y0020024D02*
X0044062D01*
X0039286Y0019324D02*
X0043362D01*
X0041194Y0018942D02*
Y0021825D01*
X0039545Y0018942D02*
X0042980D01*
X0040494D02*
Y0021825D01*
X0026079Y0020724D02*
X0044762D01*
X0034774Y0020542D02*
X0036774D01*
X0034194Y0020489D02*
Y0024285D01*
X0033494Y0020275D02*
Y0023958D01*
X0031975Y0020728D02*
Y0023843D01*
X0032794Y0019856D02*
Y0023813D01*
X0032094Y0019090D02*
Y0023826D01*
X0026425Y0020728D02*
X0031975D01*
X0026425D02*
Y0021707D01*
Y0020672D02*
X0031975D01*
Y0018893D02*
Y0020672D01*
Y0020024D02*
X0033029D01*
X0025560D02*
X0026425D01*
Y0018942D02*
Y0020672D01*
X0026045Y0018942D02*
X0026425D01*
X0025786Y0019324D02*
X0026425D01*
X0025794Y0019315D02*
Y0020291D01*
X0015994Y0001960D02*
Y0002444D01*
X0014245Y0017224D02*
X0014674D01*
X0013545Y0016524D02*
X0014674D01*
X0013233Y0016213D02*
X0014674Y0017654D01*
X0012917Y0013024D02*
X0014674D01*
X0012973Y0012324D02*
X0014674D01*
X0012606Y0015824D02*
X0014674D01*
X0012081Y0015124D02*
X0014674D01*
X0012269Y0014424D02*
X0014674D01*
X0012697Y0013724D02*
X0014674D01*
X0012873Y0011624D02*
X0014674D01*
X0012974Y0010224D02*
X0014674D01*
X0012974Y0009524D02*
X0014674D01*
X0012974Y0008824D02*
X0014674D01*
X0012974Y0008124D02*
X0014674D01*
X0012602Y0010924D02*
X0014674D01*
X0012974Y0007424D02*
X0014674D01*
X0012974Y0006724D02*
X0014674D01*
X0012974Y0006024D02*
X0014674D01*
X0012494Y0014108D02*
Y0015656D01*
X0002000Y0011624D02*
X0003331D01*
X0002000Y0012324D02*
X0002631D01*
X0002000Y0012956D02*
X0004444Y0010512D01*
X0002000Y0010924D02*
X0004031D01*
X0012472Y0010700D02*
X0012974D01*
X0002000Y0010224D02*
X0004574D01*
X0002000Y0009524D02*
X0004574D01*
X0008774Y0007500D02*
X0012574D01*
X0004974D02*
X0008774D01*
X0002000Y0008824D02*
X0004574D01*
X0002000Y0008124D02*
X0004574D01*
X0002000Y0007424D02*
X0004574D01*
X0002000Y0006724D02*
X0004574D01*
X0014674Y0004426D02*
Y0017654D01*
X0014594Y0001960D02*
Y0017573D01*
X0013894Y0001960D02*
Y0016873D01*
X0012974Y0005324D02*
X0014674D01*
X0012974Y0004624D02*
X0014674D01*
X0012974Y0004300D02*
Y0010700D01*
X0013194Y0001960D02*
Y0016174D01*
X0004574Y0004300D02*
X0012974D01*
X0015144Y0003293D02*
X0016477Y0001960D01*
X0015294D02*
Y0003144D01*
X0012494Y0001960D02*
Y0004300D01*
X0011794Y0001960D02*
Y0004300D01*
X0011094Y0001960D02*
Y0004300D01*
X0002000Y0003224D02*
X0015213D01*
X0002000Y0003924D02*
X0014755D01*
X0002000Y0001960D02*
X0016477D01*
X0002000Y0002524D02*
X0015913D01*
X0004574Y0004300D02*
Y0010390D01*
X0008774Y0004700D02*
Y0007500D01*
X0004094Y0001960D02*
Y0010862D01*
X0003394Y0001960D02*
Y0011562D01*
X0002694Y0001960D02*
Y0012262D01*
X0002000Y0006024D02*
X0004574D01*
X0002000Y0005324D02*
X0004574D01*
X0002000Y0004624D02*
X0004574D01*
X0002000Y0001960D02*
Y0012956D01*
X0010394Y0001960D02*
Y0004300D01*
X0009694Y0001960D02*
Y0004300D01*
X0008994Y0001960D02*
Y0004300D01*
X0008294Y0001960D02*
Y0004300D01*
X0007594Y0001960D02*
Y0004300D01*
X0006894Y0001960D02*
Y0004300D01*
X0006194Y0001960D02*
Y0004300D01*
X0005494Y0001960D02*
Y0004300D01*
X0004794Y0001960D02*
Y0004300D01*
X0053900Y0024900D02*
X0060400D01*
X0095400Y0061200D02*
X0100200D01*
X0086900D02*
X0095400D01*
X0095200Y0061000D02*
X0095400Y0061200D01*
X0074300Y0127700D02*
Y0140858D01*
X0051000Y0103600D02*
Y0108200D01*
X0083800Y0059974D02*
X0085674D01*
X0072974D02*
X0083800D01*
X0048988Y0083917D02*
Y0090388D01*
Y0078088D02*
Y0083917D01*
X0068476Y0058523D02*
X0071523D01*
X0065223D02*
X0068476D01*
X0051000Y0103600D02*
X0053400D01*
X0046000D02*
X0051000D01*
X0022800Y0095276D02*
X0023288Y0094788D01*
X0035209Y0039035D02*
Y0044891D01*
Y0035609D02*
Y0039035D01*
X0015800Y0053600D02*
Y0056000D01*
Y0050300D02*
Y0053600D01*
X0003474Y0044400D02*
X0009900D01*
X0028700Y0106500D02*
Y0112900D01*
Y0102100D02*
Y0106500D01*
X0028800Y0106600D01*
X0020752Y0112448D02*
Y0116148D01*
Y0112448D02*
X0020800D01*
X0016248D02*
X0020752D01*
X0068000Y0035000D02*
X0076800D01*
X0068000D02*
Y0039700D01*
Y0031200D02*
Y0035000D01*
X0063000Y0031200D02*
Y0042400D01*
Y0028900D02*
Y0031200D01*
X0087900Y0067500D02*
X0092900D01*
X0085700D02*
X0087900D01*
X0043000Y0109500D02*
Y0111874D01*
Y0087200D02*
Y0109500D01*
X0043100Y0109600D01*
X0051000Y0114274D02*
X0053526D01*
X0034426D02*
X0051000D01*
X0042800Y0029200D02*
Y0031700D01*
Y0024600D02*
Y0029200D01*
X0052925Y0083917D02*
Y0089725D01*
Y0080500D02*
Y0083917D01*
X0056862D02*
X0056900Y0083879D01*
X0056862Y0083917D02*
Y0091362D01*
Y0072338D02*
Y0083917D01*
X0040000Y0097600D02*
Y0103400D01*
Y0091600D02*
Y0097600D01*
X0085874Y0114774D02*
Y0120174D01*
Y0112274D02*
Y0114774D01*
X0015896Y0131015D02*
X0017000Y0129911D01*
X0015728Y0121172D02*
X0020752Y0116148D01*
X0012335Y0121172D02*
X0015728D01*
X0012335Y0126094D02*
X0015506D01*
X0008000Y0111100D02*
Y0139800D01*
X0027874Y0089874D02*
X0030326D01*
X0031100Y0089100D01*
X0064854Y0060491D02*
X0069264D01*
X0035774Y0017342D02*
X0043642D01*
X0048000Y0021700D02*
X0059337D01*
X0106700Y0071400D02*
Y0077800D01*
X0108000Y0079100D01*
X0110800Y0079600D02*
Y0087700D01*
X0108300Y0077100D02*
X0110800Y0079600D01*
X0108300Y0066400D02*
Y0077100D01*
X0105800Y0070500D02*
X0106700Y0071400D01*
X0021236Y0135936D02*
X0025835D01*
X0020200Y0134900D02*
X0021236Y0135936D01*
X0018764Y0022264D02*
X0022274D01*
X0017874Y0005200D02*
Y0021374D01*
X0018764Y0022264D01*
X0016274Y0024674D02*
X0018785Y0027185D01*
X0016274Y0004426D02*
Y0024674D01*
X0014400Y0025100D02*
X0019700Y0030400D01*
X0014400Y0019642D02*
Y0025100D01*
X0017874Y0005200D02*
X0018774Y0004300D01*
X0016274Y0004426D02*
X0018000Y0002700D01*
X0012700Y0025700D02*
X0019000Y0032000D01*
X0012700Y0022700D02*
Y0025700D01*
X0012100Y0017342D02*
X0014400Y0019642D01*
X0008774Y0017342D02*
X0012100D01*
X0079000Y0064500D02*
X0096800D01*
X0097900Y0065600D02*
Y0067500D01*
X0096800Y0064500D02*
X0097900Y0065600D01*
X0023200Y0040900D02*
X0025600D01*
X0021500Y0039200D02*
X0023200Y0040900D01*
X0017800Y0036500D02*
Y0038100D01*
X0018900Y0039200D01*
X0021500D01*
X0011885Y0027185D02*
X0018300Y0033600D01*
X0008774Y0027185D02*
X0011885D01*
X0069264Y0066397D02*
X0074597D01*
X0118700Y0063600D02*
X0119400Y0064300D01*
X0101100Y0132300D02*
X0106835Y0138035D01*
X0096200Y0132300D02*
X0101100D01*
X0106835Y0138035D02*
Y0140858D01*
X0046074Y0121400D02*
Y0135374D01*
X0095426Y0109874D02*
X0114726D01*
X0092700Y0128800D02*
X0096200Y0132300D01*
X0092700Y0112600D02*
Y0128800D01*
Y0112600D02*
X0095426Y0109874D01*
X0090700Y0111800D02*
X0094226Y0108274D01*
X0090700Y0111800D02*
Y0130900D01*
X0093335Y0133535D01*
Y0135936D01*
X0088900Y0140140D02*
X0089617Y0140858D01*
X0088900Y0110800D02*
Y0140140D01*
Y0110800D02*
X0093326Y0106374D01*
X0008774Y0039700D02*
X0017754Y0048680D01*
X0008774Y0037027D02*
Y0039700D01*
X0017754Y0048680D02*
X0022600D01*
X0017829Y0074271D02*
X0022500D01*
X0012549Y0079551D02*
X0017829Y0074271D01*
X0008774Y0079551D02*
X0012549D01*
X0015098Y0072302D02*
X0022807D01*
X0012770Y0074630D02*
X0015098Y0072302D01*
X0008774Y0074630D02*
X0012770D01*
X0052800Y0017342D02*
X0055558Y0020100D01*
X0012264Y0022264D02*
X0012700Y0022700D01*
X0008774Y0022264D02*
X0012264D01*
X0020500Y0040800D02*
X0023839Y0044139D01*
X0015800Y0040800D02*
X0020500D01*
X0013300Y0038300D02*
X0015800Y0040800D01*
X0019100Y0044000D02*
Y0045900D01*
X0019912Y0046712D01*
X0022807D01*
X0013300Y0033300D02*
Y0038300D01*
X0012106Y0032106D02*
X0013300Y0033300D01*
X0029042Y0017342D02*
X0029400Y0017700D01*
X0022274Y0017342D02*
X0029042D01*
X0018785Y0027185D02*
X0022274D01*
X0008774Y0032106D02*
X0012106D01*
X0008774Y0050024D02*
X0009000Y0049798D01*
X0008774Y0064787D02*
X0015569D01*
X0015928Y0064428D01*
X0014335Y0068365D02*
X0022807D01*
X0008774Y0069709D02*
X0012991D01*
X0014335Y0068365D01*
X0049274Y0017342D02*
X0052800D01*
X0089774D02*
X0089774Y0017342D01*
Y0022374D01*
X0082442Y0017342D02*
X0093435Y0028335D01*
X0076274Y0017342D02*
X0082442D01*
X0100817Y0023217D02*
X0101800Y0024200D01*
X0095854Y0023217D02*
X0100817D01*
X0102674Y0032574D02*
Y0035226D01*
X0099328Y0038572D02*
X0102674Y0035226D01*
X0095854Y0038572D02*
X0099328D01*
X0089774Y0022374D02*
X0093176Y0025776D01*
X0095854D01*
X0108205Y0041131D02*
X0118295D01*
X0113872Y0038572D02*
X0118295D01*
X0111474Y0036174D02*
X0113872Y0038572D01*
X0113174Y0034274D02*
X0114913Y0036013D01*
X0118295D01*
X0120928Y0033454D02*
X0121974Y0034500D01*
X0118295Y0033454D02*
X0120928D01*
X0114874Y0018474D02*
Y0024774D01*
X0115876Y0025776D01*
X0118295D01*
X0093435Y0028335D02*
X0095854D01*
X0093695Y0030895D02*
X0095854D01*
X0114874Y0018474D02*
X0114900Y0015100D01*
X0095200Y0058300D02*
Y0061000D01*
X0088700Y0057800D02*
X0089200Y0058300D01*
X0088700Y0054000D02*
Y0057800D01*
X0081800Y0053800D02*
X0083400D01*
X0081300Y0054300D02*
X0081800Y0053800D01*
X0081300Y0054300D02*
Y0055448D01*
X0078374Y0058374D02*
X0081300Y0055448D01*
X0085674Y0059974D02*
X0086900Y0061200D01*
X0080074Y0061574D02*
X0081400Y0062900D01*
X0078200Y0064800D02*
X0079000Y0064500D01*
X0092900Y0073500D02*
X0097900D01*
X0087174Y0077100D02*
X0087574Y0076700D01*
X0087174Y0077100D02*
Y0081674D01*
X0089074Y0084474D02*
X0090848Y0082700D01*
X0101800D01*
X0078200Y0064800D02*
X0078328Y0064428D01*
X0069264D02*
X0078328D01*
X0048374Y0118574D02*
Y0128274D01*
X0051115Y0131015D01*
X0046074Y0135374D02*
X0048774D01*
X0049336Y0135936D01*
X0052835D01*
X0012335Y0131015D02*
X0015896D01*
X0075874Y0077237D02*
X0079374Y0080737D01*
X0075874Y0075874D02*
Y0077237D01*
X0077474Y0076574D02*
X0080974Y0080074D01*
X0077474Y0075074D02*
Y0076574D01*
X0073265Y0068365D02*
X0080274Y0075374D01*
X0069264Y0068365D02*
X0073265D01*
X0072734Y0070334D02*
X0077474Y0075074D01*
X0084174Y0084674D02*
X0087174Y0081674D01*
X0084174Y0084674D02*
Y0090074D01*
X0089074Y0089274D02*
X0092374Y0085974D01*
X0096674Y0092974D02*
X0098674D01*
X0095874Y0093774D02*
X0096674Y0092974D01*
X0093874Y0093774D02*
X0095874D01*
X0072302Y0072302D02*
X0075874Y0075874D01*
X0069264Y0070334D02*
X0072734D01*
X0069264Y0072302D02*
X0072302D01*
X0069264Y0062460D02*
X0072788D01*
X0015928Y0064428D02*
X0022807D01*
X0051115Y0131015D02*
X0052474D01*
X0079835Y0126213D02*
X0079874Y0126174D01*
X0079835Y0126213D02*
Y0131015D01*
X0085874Y0126174D02*
Y0133974D01*
X0083912Y0135936D02*
X0085874Y0133974D01*
X0079835Y0135936D02*
X0083912D01*
X0089617Y0140858D02*
X0093335D01*
X0012335Y0145779D02*
X0012335Y0145779D01*
X0079835Y0136012D02*
X0080472D01*
X0085374Y0111774D02*
X0085874Y0112274D01*
X0079874Y0114774D02*
Y0120174D01*
X0077774Y0114774D02*
X0079874D01*
X0019409Y0076239D02*
X0022807D01*
X0114472Y0053576D02*
X0116074Y0055177D01*
X0018774Y0004300D02*
X0107500D01*
X0108400Y0002700D02*
X0109800Y0004100D01*
X0108100Y0020126D02*
X0111474Y0023500D01*
Y0036174D01*
X0107500Y0004300D02*
X0108100Y0004900D01*
Y0020126D01*
X0109800Y0004100D02*
Y0019226D01*
X0113174Y0022600D02*
Y0034274D01*
X0109800Y0019226D02*
X0113174Y0022600D01*
X0018000Y0002700D02*
X0108400D01*
X0110000Y0076500D02*
X0111900Y0078400D01*
X0093326Y0106374D02*
X0111926D01*
X0115000Y0103300D01*
Y0098900D02*
Y0103300D01*
X0094226Y0108274D02*
X0113226D01*
X0118500Y0103000D01*
X0114726Y0109874D02*
X0120100Y0104500D01*
X0113474Y0114574D02*
X0121800Y0106248D01*
X0115200Y0085500D02*
X0116074Y0086374D01*
Y0089809D01*
X0070964Y0135936D02*
X0071800Y0135100D01*
X0066335Y0135936D02*
X0070964D01*
X0008774Y0084472D02*
X0011176D01*
X0008000Y0139800D02*
X0009058Y0140858D01*
X0012335D01*
X0014200Y0101300D02*
X0016000D01*
X0017863Y0099437D01*
X0019400D01*
X0008000Y0101500D02*
Y0105500D01*
Y0101500D02*
X0008200Y0101300D01*
X0008000Y0094900D02*
Y0101100D01*
X0008200Y0101300D01*
X0014900Y0095600D02*
X0015463Y0095037D01*
X0012900Y0095600D02*
X0014900D01*
X0015463Y0091563D02*
Y0095037D01*
X0083926Y0078226D02*
Y0079500D01*
X0081074Y0075374D02*
X0083926Y0078226D01*
X0080274Y0075374D02*
X0081074D01*
X0103600Y0073500D02*
Y0077700D01*
X0101800Y0079500D02*
X0103600Y0077700D01*
X0090422Y0079500D02*
X0101800D01*
X0100800Y0069800D02*
X0101500Y0070500D01*
X0105800D01*
X0081700Y0066100D02*
X0084300D01*
X0085700Y0067500D01*
X0092100Y0076700D02*
X0092900Y0075900D01*
Y0073500D02*
Y0075900D01*
X0087574Y0076700D02*
X0092100D01*
X0083000Y0071800D02*
X0084700Y0073500D01*
X0083000Y0069400D02*
Y0071800D01*
X0084700Y0073500D02*
X0087900D01*
X0031300Y0120800D02*
Y0122700D01*
X0034800Y0119800D02*
Y0125500D01*
X0033000Y0127300D02*
X0034800Y0125500D01*
X0031100Y0089100D02*
X0037500D01*
X0017000Y0127000D02*
Y0129911D01*
X0046000Y0097600D02*
X0051000D01*
X0032600Y0079700D02*
X0033240Y0080340D01*
Y0083917D01*
X0054894Y0038247D02*
Y0039035D01*
X0033240D02*
Y0042160D01*
X0032400Y0043000D02*
X0033240Y0042160D01*
X0027700Y0043000D02*
X0032400D01*
X0025600Y0040900D02*
X0027700Y0043000D01*
X0023594Y0050649D02*
X0027051D01*
X0027600Y0050100D01*
Y0045500D02*
Y0050100D01*
X0026239Y0044139D02*
X0027600Y0045500D01*
X0023839Y0044139D02*
X0026239D01*
X0056862Y0039035D02*
Y0042362D01*
X0054894Y0039035D02*
Y0042694D01*
X0050957Y0042457D02*
X0051700Y0043200D01*
X0053100D01*
X0053900Y0052100D02*
X0055700Y0050300D01*
X0029135Y0039035D02*
X0031272D01*
X0026600Y0036500D02*
X0029135Y0039035D01*
X0023800Y0036500D02*
X0026600D01*
X0031272Y0035528D02*
Y0039035D01*
X0049500Y0071600D02*
X0050400D01*
X0027440Y0062460D02*
X0029400Y0060500D01*
X0022807Y0062460D02*
X0027440D01*
X0027009Y0060491D02*
X0027800Y0059700D01*
Y0057700D02*
Y0059700D01*
X0029400Y0058363D02*
Y0060500D01*
Y0058363D02*
X0031263Y0056500D01*
X0027800Y0057700D02*
X0030600Y0054900D01*
X0022807Y0060491D02*
X0027009D01*
X0053900Y0052100D02*
Y0055100D01*
X0031800Y0035000D02*
X0034600D01*
X0035209Y0035609D01*
X0031272Y0035528D02*
X0031800Y0035000D01*
X0031000Y0033600D02*
X0031200Y0033400D01*
X0036746D01*
X0039146Y0035800D02*
Y0039035D01*
X0036746Y0033400D02*
X0039146Y0035800D01*
X0018300Y0033600D02*
X0031000D01*
X0030400Y0032000D02*
X0030600Y0031800D01*
X0019000Y0032000D02*
X0030400D01*
X0041114Y0035414D02*
Y0039035D01*
X0037500Y0031800D02*
X0041114Y0035414D01*
X0030600Y0031800D02*
X0037500D01*
X0029800Y0030400D02*
X0030000Y0030200D01*
X0038183D01*
X0043083Y0035100D02*
Y0039035D01*
X0038183Y0030200D02*
X0043083Y0035100D01*
X0019700Y0030400D02*
X0029800D01*
X0047020Y0035920D02*
Y0039035D01*
X0049100Y0035000D02*
X0050257D01*
X0050957Y0035700D01*
X0062774Y0017342D02*
X0070642D01*
X0083400Y0020600D02*
X0093695Y0030895D01*
X0070642Y0017342D02*
X0073900Y0020600D01*
X0083400D01*
X0102574Y0085974D02*
X0103900Y0087300D01*
X0092374Y0085974D02*
X0102574D01*
X0093900Y0089300D02*
Y0093748D01*
X0093874Y0093774D02*
X0093900Y0093748D01*
X0034100Y0046000D02*
X0035209Y0044891D01*
X0028614Y0054586D02*
X0029900Y0053300D01*
X0022807Y0054586D02*
X0028614D01*
X0028183Y0052617D02*
X0030900Y0049900D01*
X0022807Y0052617D02*
X0028183D01*
X0053100Y0043200D02*
X0057000Y0047100D01*
X0054894Y0042694D02*
X0057700Y0045500D01*
X0062200D01*
X0056862Y0042362D02*
X0058400Y0043900D01*
X0061500D01*
X0052200Y0046900D02*
X0054000Y0048700D01*
X0042800Y0031700D02*
X0047020Y0035920D01*
X0045800Y0031700D02*
X0049100Y0035000D01*
X0053900Y0030700D02*
X0057700D01*
X0053800Y0030800D02*
X0053900Y0030700D01*
X0048800Y0029200D02*
X0051000D01*
X0051500Y0029700D01*
Y0030300D01*
X0052000Y0030800D01*
X0053800D01*
X0053600Y0024600D02*
X0053900Y0024900D01*
X0055558Y0020100D02*
X0060000D01*
X0060500Y0020600D01*
X0071600D01*
X0059337Y0021700D02*
X0059837Y0022200D01*
X0070800D01*
X0061500Y0043900D02*
X0063000Y0042400D01*
X0092946Y0033454D02*
X0095854D01*
X0091300Y0035100D02*
X0092946Y0033454D01*
X0092987Y0036013D02*
X0095854D01*
X0091800Y0037200D02*
X0092987Y0036013D01*
X0082331Y0040531D02*
X0088484D01*
X0073917Y0029917D02*
Y0031869D01*
X0072200Y0028200D02*
X0073917Y0029917D01*
X0063700Y0028200D02*
X0072200D01*
X0063000Y0028900D02*
X0063700Y0028200D01*
X0060400Y0024900D02*
X0060700Y0025200D01*
X0014323Y0058523D02*
X0022807D01*
X0029900Y0027000D02*
X0032500D01*
X0029200Y0026300D02*
X0029900Y0027000D01*
X0029200Y0023700D02*
Y0026300D01*
X0008774Y0050024D02*
X0012400D01*
X0013000Y0050624D01*
Y0057200D01*
X0014323Y0058523D01*
X0009900Y0044400D02*
X0015800Y0050300D01*
Y0056000D02*
X0016354Y0056554D01*
X0023594D01*
X0115200Y0081400D02*
Y0085500D01*
Y0072900D02*
Y0075400D01*
X0113200Y0070900D02*
X0115200Y0072900D01*
X0113200Y0070900D02*
X0115700D01*
X0116074Y0070526D01*
Y0066574D02*
Y0070526D01*
X0111900Y0078400D02*
X0117600D01*
X0118500Y0079300D01*
Y0103000D01*
X0119400Y0076226D02*
X0120100Y0076926D01*
Y0104500D01*
X0119400Y0064300D02*
Y0076226D01*
X0027700Y0080500D02*
X0028500Y0079700D01*
X0026400Y0084800D02*
X0027700Y0083500D01*
Y0080500D02*
Y0083500D01*
X0028500Y0079700D02*
X0032600D01*
X0045051Y0076049D02*
X0049500Y0071600D01*
X0025100Y0104400D02*
X0025800D01*
X0022800Y0102100D02*
X0025100Y0104400D01*
X0022800Y0095276D02*
Y0102100D01*
X0025800Y0108000D02*
Y0110400D01*
X0025400Y0107600D02*
X0025800Y0108000D01*
X0023700Y0107600D02*
X0025400D01*
X0022052Y0105952D02*
X0023700Y0107600D01*
X0020800Y0105952D02*
X0022052D01*
X0014274Y0110474D02*
X0016248Y0112448D01*
X0014274Y0106174D02*
Y0110474D01*
X0026100Y0099500D02*
X0028700Y0102100D01*
X0015506Y0126094D02*
X0028700Y0112900D01*
X0020200Y0126100D02*
Y0134900D01*
Y0126100D02*
X0033726Y0112574D01*
X0025835Y0122865D02*
Y0131015D01*
X0017000Y0127000D02*
X0033100Y0110900D01*
X0028800Y0106600D02*
X0034200D01*
X0034100Y0096600D02*
Y0100500D01*
X0033100Y0110900D02*
X0035000D01*
X0036500Y0109400D01*
X0033726Y0112574D02*
X0042300D01*
X0036500Y0109400D02*
X0040100D01*
X0040300Y0109600D01*
X0037500Y0089100D02*
X0040000Y0091600D01*
X0043083Y0083917D02*
Y0087117D01*
X0045774Y0115974D02*
X0048374Y0118574D01*
X0025835Y0122865D02*
X0034426Y0114274D01*
X0031300Y0120800D02*
X0036126Y0115974D01*
X0045774D01*
X0042248Y0117574D02*
X0046074Y0121400D01*
X0034800Y0119800D02*
X0037026Y0117574D01*
X0042248D01*
X0043000Y0087200D02*
X0043083Y0087117D01*
X0042300Y0112574D02*
X0043000Y0111874D01*
X0043100Y0109600D02*
X0046000D01*
X0053400Y0103600D02*
X0053800Y0103200D01*
X0053526Y0114274D02*
X0055400Y0112400D01*
X0052835Y0118365D02*
Y0121172D01*
Y0118365D02*
X0057000Y0114200D01*
X0053800Y0095200D02*
Y0103200D01*
X0055400Y0094500D02*
Y0112400D01*
X0057000Y0093800D02*
Y0114200D01*
X0065229Y0074271D02*
X0068476D01*
X0063900Y0075600D02*
X0065229Y0074271D01*
X0028000Y0064300D02*
X0032600Y0059700D01*
X0028000Y0064300D02*
Y0065197D01*
X0022807Y0066397D02*
X0026800D01*
X0028000Y0065197D01*
X0034000Y0062800D02*
X0036300D01*
X0022807Y0070334D02*
X0026466D01*
X0052835Y0126094D02*
X0056406D01*
X0057500Y0125000D01*
X0058600Y0093100D02*
Y0115600D01*
X0057500Y0116700D02*
Y0125000D01*
Y0116700D02*
X0058600Y0115600D01*
X0065500Y0130180D02*
X0066335Y0131015D01*
X0073200Y0123500D02*
Y0126600D01*
X0074300Y0127700D01*
X0071800Y0129800D02*
Y0135100D01*
X0070200Y0117500D02*
X0073200D01*
X0077300Y0114300D02*
X0077774Y0114774D01*
X0073800Y0114300D02*
X0077300D01*
X0062017Y0083917D02*
X0063000Y0084900D01*
X0060799Y0083917D02*
X0062017D01*
X0063000Y0084900D02*
Y0090000D01*
X0068800Y0082200D02*
Y0083500D01*
X0067200Y0083000D02*
Y0084300D01*
X0066000Y0087100D02*
Y0092300D01*
X0065000Y0086100D02*
X0066000Y0087100D01*
X0062100Y0077900D02*
X0067200Y0083000D01*
X0063900Y0075600D02*
Y0077300D01*
X0068800Y0082200D01*
X0060500Y0078563D02*
X0065000Y0083063D01*
Y0086100D01*
X0067200Y0084300D02*
X0069000Y0086100D01*
Y0090000D01*
X0069029Y0083728D02*
X0072100Y0086800D01*
Y0092037D01*
X0075474Y0111774D02*
X0085374D01*
X0101669Y0041131D02*
X0104000Y0038800D01*
X0095854Y0041131D02*
X0101669D01*
X0108174Y0033174D02*
Y0041100D01*
X0110000Y0069300D02*
Y0076500D01*
Y0069300D02*
X0111500Y0067800D01*
X0103600Y0067500D02*
X0106200D01*
X0107300Y0066400D01*
X0108300D01*
X0081400Y0062900D02*
X0099600D01*
X0100800Y0064100D01*
Y0069800D01*
X0100200Y0061200D02*
X0103600Y0064600D01*
Y0067500D01*
X0110000Y0063200D02*
X0111500Y0064700D01*
Y0067800D01*
X0071523Y0058523D02*
X0072974Y0059974D01*
X0072788Y0062460D02*
X0073674Y0061574D01*
X0080074D01*
X0071854Y0056554D02*
X0073674Y0058374D01*
X0078374D01*
X0115800Y0048200D02*
X0119006Y0051406D01*
X0113600Y0053400D02*
Y0059900D01*
X0114274Y0060574D01*
X0116074D01*
X0110800Y0093200D02*
X0113100D01*
X0114039Y0094139D02*
X0116074D01*
X0113100Y0093200D02*
X0114039Y0094139D01*
X0108900Y0096400D02*
X0112500D01*
X0108000Y0095500D02*
X0108900Y0096400D01*
X0108000Y0079100D02*
Y0095500D01*
X0112500Y0096400D02*
X0115000Y0098900D01*
X0072000Y0082100D02*
X0073052Y0083152D01*
X0076400D01*
X0079374Y0080737D02*
Y0091537D01*
X0080974Y0080074D02*
Y0092200D01*
X0076300Y0092500D02*
X0078411D01*
X0079374Y0091537D01*
X0076910Y0094190D02*
X0078984D01*
X0080974Y0092200D01*
X0101874Y0097274D02*
X0104026D01*
X0104674Y0096626D01*
Y0092974D02*
Y0096626D01*
X0111800Y0046400D02*
X0113500Y0044700D01*
X0106200Y0046400D02*
X0111800D01*
X0108400Y0052400D02*
X0109200Y0051600D01*
Y0049700D02*
X0110700Y0048200D01*
X0115800D01*
X0109200Y0049700D02*
Y0051600D01*
X0102000Y0043700D02*
Y0046400D01*
Y0043700D02*
X0103126Y0042574D01*
X0106700D02*
X0108174Y0041100D01*
X0103126Y0042574D02*
X0106700D01*
X0111700Y0061600D02*
X0113700Y0063600D01*
X0118700D01*
X0105200Y0063200D02*
X0110000D01*
X0106000Y0061600D02*
X0111700D01*
X0091524Y0044224D02*
X0099700Y0052400D01*
X0065876Y0044224D02*
X0091524D01*
X0091112Y0046712D02*
X0106000Y0061600D01*
X0068476Y0046712D02*
X0091112D01*
X0090680Y0048680D02*
X0105200Y0063200D01*
X0068476Y0048680D02*
X0090680D01*
X0074252Y0089648D02*
X0076400D01*
X0073700Y0090200D02*
Y0092700D01*
Y0090200D02*
X0074252Y0089648D01*
X0056862Y0091362D02*
X0058600Y0093100D01*
X0052925Y0089725D02*
X0057000Y0093800D01*
X0050957Y0083917D02*
Y0090057D01*
X0055400Y0094500D01*
X0048988Y0090388D02*
X0053800Y0095200D01*
X0121800Y0055200D02*
Y0106248D01*
X0062200Y0045500D02*
X0068000Y0039700D01*
X0048600Y0077700D02*
X0048988Y0078088D01*
X0068476Y0056554D02*
X0071854D01*
X0064500Y0045600D02*
X0065876Y0044224D01*
X0057000Y0047100D02*
X0064400D01*
X0065654Y0056554D02*
X0068476D01*
X0064500Y0055400D02*
X0065654Y0056554D01*
X0061900Y0048700D02*
X0062900Y0049700D01*
Y0056200D01*
X0065223Y0058523D01*
X0054000Y0048700D02*
X0061900D01*
X0061300Y0056937D02*
X0064854Y0060491D01*
X0060200Y0050300D02*
X0061300Y0051400D01*
Y0056937D01*
X0055700Y0050300D02*
X0060200D01*
X0052925Y0080500D02*
X0054500Y0078925D01*
X0074597Y0066397D02*
X0076200Y0068000D01*
X0079800D02*
X0081700Y0066100D01*
X0076200Y0068000D02*
X0079800D01*
X0043642Y0017342D02*
X0048000Y0021700D01*
X0044700Y0020900D02*
X0045800Y0022000D01*
X0040800Y0020900D02*
X0044700D01*
X0037300Y0024400D02*
X0040800Y0020900D01*
X0031263Y0056500D02*
X0036700D01*
X0039000Y0058800D01*
X0033100Y0070800D02*
X0036300Y0067600D01*
X0038400D01*
X0040500Y0045200D02*
Y0050826D01*
X0030600Y0054900D02*
X0039700D01*
X0033300Y0066000D02*
X0037700D01*
X0029900Y0053300D02*
X0040500D01*
X0045300Y0045200D02*
Y0053363D01*
X0035209Y0073291D02*
Y0083917D01*
X0037177Y0073723D02*
Y0083917D01*
X0041114Y0072086D02*
Y0083917D01*
X0045300Y0053363D02*
X0047000Y0055063D01*
X0040500Y0050826D02*
X0045400Y0055726D01*
X0040500Y0053300D02*
X0043800Y0056600D01*
X0039700Y0054900D02*
X0042200Y0057400D01*
X0048988Y0055688D02*
X0051600Y0058300D01*
X0048988Y0038247D02*
Y0055688D01*
X0048600Y0062500D02*
X0049600Y0061500D01*
X0037177Y0073723D02*
X0047000Y0063900D01*
Y0055063D02*
Y0063900D01*
X0035209Y0073291D02*
X0045400Y0063100D01*
Y0055726D02*
Y0063100D01*
X0038400Y0067600D02*
X0043800Y0062200D01*
Y0056600D02*
Y0062200D01*
X0037700Y0066000D02*
X0042200Y0061500D01*
Y0057400D02*
Y0061500D01*
X0048600Y0062500D02*
Y0064600D01*
X0041114Y0072086D02*
X0048600Y0064600D01*
X0053900Y0055100D02*
X0057300Y0058500D01*
Y0059900D01*
X0049600Y0061500D02*
X0054300D01*
X0055900Y0063100D01*
X0058831Y0083917D02*
Y0091031D01*
X0062300Y0094500D01*
X0052100Y0065000D02*
Y0066100D01*
X0054500Y0068500D01*
Y0078925D01*
X0058100Y0053500D02*
Y0056000D01*
X0057700Y0030700D02*
Y0033869D01*
X0058831Y0035000D02*
Y0039035D01*
X0057700Y0033869D02*
X0058831Y0035000D01*
X0064000Y0061900D02*
Y0073200D01*
X0062100Y0075100D02*
X0064000Y0073200D01*
X0062100Y0075100D02*
Y0077900D01*
X0058100Y0056000D02*
X0064000Y0061900D01*
X0061100Y0063100D02*
X0062400Y0064400D01*
Y0072400D01*
X0060500Y0074300D02*
Y0078563D01*
Y0074300D02*
X0062400Y0072400D01*
X0055900Y0063100D02*
X0061100D01*
X0057800Y0066300D02*
Y0071400D01*
X0056862Y0072338D02*
X0057800Y0071400D01*
X0026466Y0070334D02*
X0034000Y0062800D01*
X0029400Y0069900D02*
X0033300Y0066000D01*
X0029400Y0069900D02*
Y0075448D01*
X0024474Y0080374D02*
X0029400Y0075448D01*
X0011176Y0084472D02*
X0019409Y0076239D01*
X0062300Y0094500D02*
Y0106100D01*
X0070700Y0111200D02*
X0073800Y0114300D01*
X0070700Y0098100D02*
Y0111200D01*
Y0098100D02*
X0076300Y0092500D01*
X0072300Y0108600D02*
X0075474Y0111774D01*
X0072300Y0098800D02*
X0076910Y0094190D01*
X0072300Y0098800D02*
Y0108600D01*
X0068900Y0116200D02*
X0070200Y0117500D01*
X0068900Y0097500D02*
Y0116200D01*
Y0097500D02*
X0073700Y0092700D01*
X0065500Y0092800D02*
X0066000Y0092300D01*
X0065500Y0092800D02*
Y0130180D01*
X0067100Y0097037D02*
X0072100Y0092037D01*
X0067100Y0097037D02*
Y0125100D01*
X0071800Y0129800D01*
X0080600Y0101400D02*
X0083926Y0098074D01*
X0087874D01*
Y0093774D02*
Y0098074D01*
X0072000Y0076739D02*
Y0082100D01*
X0071500Y0076239D02*
X0072000Y0076739D01*
X0068476Y0076239D02*
X0071500D01*
X0076800Y0035000D02*
X0082331Y0040531D01*
X0078000Y0033900D02*
X0081300Y0037200D01*
X0091800D01*
X0070800Y0022200D02*
X0078000Y0029400D01*
Y0033900D01*
X0079600Y0033200D02*
X0081500Y0035100D01*
X0079600Y0028600D02*
Y0033200D01*
X0071600Y0020600D02*
X0079600Y0028600D01*
X0081500Y0035100D02*
X0091300D01*
X0000400Y0000360D02*
Y0157840D01*
Y0157840D02*
X0279140D01*
Y0000360D02*
Y0157840D01*
X0000400Y0000360D02*
X0279140D01*
D11*
X0088484Y0031869D02*
D03*
X0073917Y0040531D02*
D03*
X0088484D02*
D03*
X0073917Y0031869D02*
D03*
D12*
X0068476Y0054586D02*
D03*
Y0050649D02*
D03*
Y0052617D02*
D03*
Y0048680D02*
D03*
Y0056554D02*
D03*
Y0058523D02*
D03*
Y0060491D02*
D03*
Y0062460D02*
D03*
Y0064428D02*
D03*
Y0066397D02*
D03*
Y0068365D02*
D03*
Y0070334D02*
D03*
Y0072302D02*
D03*
Y0074271D02*
D03*
Y0076239D02*
D03*
X0023594D02*
D03*
Y0074271D02*
D03*
Y0072302D02*
D03*
Y0070334D02*
D03*
Y0068365D02*
D03*
Y0066397D02*
D03*
Y0064428D02*
D03*
Y0062460D02*
D03*
Y0060491D02*
D03*
Y0058523D02*
D03*
Y0056554D02*
D03*
Y0054586D02*
D03*
Y0052617D02*
D03*
Y0050649D02*
D03*
Y0048680D02*
D03*
D13*
X0068476Y0046712D02*
D03*
D14*
X0060799Y0083917D02*
D03*
X0058831D02*
D03*
X0056862D02*
D03*
X0052925D02*
D03*
X0050957D02*
D03*
X0048988D02*
D03*
X0045051D02*
D03*
X0043083D02*
D03*
X0041114D02*
D03*
X0037177D02*
D03*
X0035209D02*
D03*
X0033240D02*
D03*
X0031272Y0039035D02*
D03*
X0033240D02*
D03*
X0035209D02*
D03*
X0039146D02*
D03*
X0041114D02*
D03*
X0043083D02*
D03*
X0047020D02*
D03*
X0048988D02*
D03*
X0050957D02*
D03*
X0054894D02*
D03*
X0056862D02*
D03*
X0058831D02*
D03*
X0054894Y0083917D02*
D03*
X0047020D02*
D03*
X0039146D02*
D03*
X0031272D02*
D03*
X0037177Y0039035D02*
D03*
X0045051D02*
D03*
X0052925D02*
D03*
X0060799D02*
D03*
D15*
X0023594Y0046712D02*
D03*
D16*
X0116074Y0089809D02*
D03*
Y0094139D02*
D03*
D17*
X0014200Y0101300D02*
D03*
X0095200Y0058300D02*
D03*
X0089200D02*
D03*
X0008200Y0101300D02*
D03*
X0093874Y0093774D02*
D03*
X0087874D02*
D03*
X0104674Y0092974D02*
D03*
X0098674D02*
D03*
X0042800Y0029200D02*
D03*
X0048800D02*
D03*
X0042800Y0024600D02*
D03*
X0048800D02*
D03*
X0046000Y0097600D02*
D03*
X0040000D02*
D03*
X0023800Y0036500D02*
D03*
X0017800D02*
D03*
X0069000Y0090000D02*
D03*
X0063000D02*
D03*
D18*
X0116074Y0066574D02*
D03*
Y0060574D02*
D03*
X0056174Y0007300D02*
D03*
Y0013300D02*
D03*
X0097900Y0067500D02*
D03*
Y0073500D02*
D03*
X0103600D02*
D03*
Y0067500D02*
D03*
X0087900Y0073500D02*
D03*
Y0067500D02*
D03*
X0083800Y0059900D02*
D03*
Y0053900D02*
D03*
X0085874Y0114774D02*
D03*
Y0108774D02*
D03*
Y0120174D02*
D03*
Y0126174D02*
D03*
X0079874Y0114774D02*
D03*
Y0108774D02*
D03*
Y0120174D02*
D03*
Y0126174D02*
D03*
X0046074Y0135374D02*
D03*
Y0141374D02*
D03*
X0092900Y0067500D02*
D03*
Y0073500D02*
D03*
X0008000Y0105500D02*
D03*
Y0111500D02*
D03*
X0032874Y0150974D02*
D03*
Y0144974D02*
D03*
X0069574Y0007300D02*
D03*
Y0013300D02*
D03*
X0083100Y0007300D02*
D03*
Y0013300D02*
D03*
X0096600D02*
D03*
Y0007300D02*
D03*
X0073200Y0117500D02*
D03*
Y0123500D02*
D03*
X0102000Y0052400D02*
D03*
Y0046400D02*
D03*
X0107000D02*
D03*
Y0052400D02*
D03*
X0040000Y0109400D02*
D03*
Y0103400D02*
D03*
X0034000Y0100600D02*
D03*
Y0106600D02*
D03*
X0025800Y0110400D02*
D03*
Y0104400D02*
D03*
X0062300Y0110600D02*
D03*
Y0116600D02*
D03*
X0015800Y0053600D02*
D03*
Y0059600D02*
D03*
X0029174Y0007300D02*
D03*
X0029200Y0017700D02*
D03*
Y0023700D02*
D03*
X0063000Y0031200D02*
D03*
Y0025200D02*
D03*
X0068000Y0031200D02*
D03*
Y0025200D02*
D03*
X0051000Y0114200D02*
D03*
Y0108200D02*
D03*
Y0103600D02*
D03*
Y0097600D02*
D03*
X0046000Y0103600D02*
D03*
Y0109600D02*
D03*
X0101874Y0103274D02*
D03*
Y0097274D02*
D03*
X0087874Y0098074D02*
D03*
Y0104074D02*
D03*
X0042574Y0013300D02*
D03*
Y0007300D02*
D03*
X0110800Y0093200D02*
D03*
Y0087200D02*
D03*
X0115200Y0075400D02*
D03*
Y0081400D02*
D03*
X0053800Y0024800D02*
D03*
Y0030800D02*
D03*
D19*
X0083926Y0079500D02*
D03*
X0090422D02*
D03*
X0020800Y0105952D02*
D03*
Y0112448D02*
D03*
X0076400Y0083152D02*
D03*
Y0089648D02*
D03*
D20*
X0015363Y0091663D02*
D03*
X0019300Y0099537D02*
D03*
X0023237Y0091663D02*
D03*
X0029174Y0013300D02*
D03*
D21*
X0118295Y0023217D02*
D03*
Y0025776D02*
D03*
Y0028335D02*
D03*
Y0030895D02*
D03*
Y0033454D02*
D03*
Y0036013D02*
D03*
Y0038572D02*
D03*
Y0041131D02*
D03*
X0095854Y0023217D02*
D03*
Y0025776D02*
D03*
Y0028335D02*
D03*
Y0030895D02*
D03*
Y0033454D02*
D03*
Y0036013D02*
D03*
Y0038572D02*
D03*
D22*
Y0041131D02*
D03*
D23*
X0093335Y0150700D02*
X0106835D01*
X0079835D02*
X0093335D01*
X0066335D02*
X0079835D01*
X0052835D02*
X0066335D01*
X0039335D02*
X0052835D01*
X0032874D02*
X0039335D01*
X0025835D02*
X0032874D01*
X0012335D02*
X0025835D01*
X0096600Y0007500D02*
X0103274D01*
X0089774D02*
X0096600D01*
X0083100D02*
X0089774D01*
X0076274D02*
X0083100D01*
X0069574D02*
X0076274D01*
X0062774D02*
X0069574D01*
X0056174D02*
X0062774D01*
X0049274D02*
X0056174D01*
X0042574D02*
X0049274D01*
X0035774D02*
X0042574D01*
X0029174D02*
X0035774D01*
X0022274D02*
X0029174D01*
X0096600Y0012421D02*
X0103274D01*
X0089774D02*
X0096600D01*
X0083100D02*
X0089774D01*
X0076274D02*
X0083100D01*
X0069574D02*
X0076274D01*
X0062774D02*
X0069574D01*
X0056174D02*
X0062774D01*
X0049274D02*
X0056174D01*
X0042574D02*
X0049274D01*
X0035774D02*
X0042574D01*
X0029174D02*
X0035774D01*
X0022274D02*
X0029174D01*
X0022274Y0012421D02*
X0022274Y0012421D01*
X0022274Y0007500D02*
X0022274Y0007500D01*
X0106835Y0150700D02*
X0106835Y0150700D01*
X0114974Y0116074D02*
Y0147937D01*
X0103874Y0114574D02*
X0113474D01*
X0114974Y0116074D01*
X0112135Y0150776D02*
X0114974Y0147937D01*
X0107672Y0150776D02*
X0112135D01*
D24*
X0079874Y0108774D02*
X0085874D01*
X0075800D02*
X0079874D01*
X0091926Y0104074D02*
X0098726Y0097274D01*
X0107172Y0101576D02*
X0109472D01*
X0105374Y0103374D02*
X0107172Y0101576D01*
X0102674Y0103374D02*
X0105374D01*
X0085874Y0104574D02*
X0086274Y0104174D01*
X0085874Y0104574D02*
Y0108774D01*
X0084174Y0089800D02*
Y0092874D01*
X0080848Y0096200D02*
X0084174Y0092874D01*
X0086274Y0104174D02*
X0087874D01*
Y0104074D02*
X0091926D01*
X0098726Y0097274D02*
X0101874D01*
X0077700Y0096200D02*
X0080848D01*
X0074300Y0099600D02*
X0077700Y0096200D01*
X0074300Y0099600D02*
Y0107400D01*
X0075674Y0108774D01*
D25*
X0093335Y0145779D02*
X0106835D01*
X0089076D02*
X0093335D01*
X0079835Y0140858D02*
X0084154D01*
X0074300D02*
X0079835D01*
X0066335D02*
X0074300D01*
X0052835D02*
X0066335D01*
X0039252Y0140774D02*
X0039335Y0140858D01*
X0046074D02*
X0052835D01*
X0039335D02*
X0046074D01*
X0025835D02*
X0039335D01*
X0023288Y0094788D02*
X0023700Y0095200D01*
X0023237Y0094737D02*
X0023288Y0094788D01*
X0023237Y0091663D02*
Y0094737D01*
Y0088237D02*
Y0091663D01*
X0003474Y0044400D02*
Y0141574D01*
Y0015300D02*
Y0044400D01*
X0062300Y0121000D02*
Y0125400D01*
Y0116600D02*
Y0121000D01*
X0032874Y0145779D02*
X0039335D01*
X0025835D02*
X0032874D01*
X0059800Y0127900D02*
X0062300Y0125400D01*
X0059800Y0127900D02*
Y0136000D01*
X0003800Y0089500D02*
X0010900D01*
X0013500Y0086900D01*
X0021490Y0140858D02*
X0028390D01*
X0003474Y0015300D02*
X0006353Y0012421D01*
X0008774D01*
X0003540Y0059866D02*
X0008774D01*
X0016569Y0145779D02*
X0021490Y0140858D01*
X0084154Y0140858D02*
X0089076Y0145779D01*
X0012335D02*
X0016569D01*
X0039335Y0145779D02*
X0039335Y0145779D01*
X0007679Y0145779D02*
X0012335D01*
X0039335Y0145779D02*
X0052835D01*
X0066335Y0145779D02*
X0079835D01*
X0052835Y0140858D02*
X0052835Y0140858D01*
X0029100Y0095200D02*
X0030500Y0096600D01*
X0034100D01*
Y0095100D02*
X0036500Y0092700D01*
X0034100Y0095100D02*
Y0096600D01*
X0023700Y0095200D02*
X0029100D01*
X0021900Y0086900D02*
X0023237Y0088237D01*
X0013600Y0086900D02*
X0021900D01*
X0062300Y0106100D02*
Y0110600D01*
X0003474Y0141574D02*
X0007679Y0145779D01*
D26*
X0205518Y0079100D02*
D03*
D27*
X0103874Y0124574D02*
D03*
D28*
Y0114574D02*
D03*
D29*
X0080600Y0101400D02*
D03*
X0075600Y0053400D02*
D03*
X0113600D02*
D03*
X0094600Y0101400D02*
D03*
X0108600D02*
D03*
D30*
X0025835Y0135936D02*
D03*
Y0131015D02*
D03*
X0012335Y0145779D02*
D03*
Y0140858D02*
D03*
Y0135936D02*
D03*
Y0131015D02*
D03*
Y0116251D02*
D03*
X0008774Y0084472D02*
D03*
Y0079551D02*
D03*
Y0074630D02*
D03*
Y0069709D02*
D03*
Y0064787D02*
D03*
Y0059866D02*
D03*
Y0054945D02*
D03*
Y0037027D02*
D03*
Y0032106D02*
D03*
Y0027185D02*
D03*
X0008774Y0022264D02*
D03*
X0008774Y0017342D02*
D03*
X0008774Y0012421D02*
D03*
X0039335Y0145779D02*
D03*
Y0140858D02*
D03*
X0052835Y0121172D02*
D03*
Y0126094D02*
D03*
Y0131015D02*
D03*
Y0135936D02*
D03*
Y0140858D02*
D03*
Y0145779D02*
D03*
X0025835Y0140858D02*
D03*
Y0145779D02*
D03*
X0066335Y0131015D02*
D03*
Y0135936D02*
D03*
Y0140858D02*
D03*
Y0145779D02*
D03*
X0079835Y0145779D02*
D03*
Y0140858D02*
D03*
Y0135936D02*
D03*
Y0131015D02*
D03*
X0093335Y0135936D02*
D03*
Y0140858D02*
D03*
Y0145779D02*
D03*
X0049274Y0012421D02*
D03*
Y0017342D02*
D03*
X0103274D02*
D03*
Y0012421D02*
D03*
X0062774D02*
D03*
Y0017342D02*
D03*
X0076274D02*
D03*
Y0012421D02*
D03*
X0089774Y0017342D02*
D03*
Y0012421D02*
D03*
X0106835Y0145779D02*
D03*
Y0140858D02*
D03*
X0039335Y0135936D02*
D03*
Y0121172D02*
D03*
Y0126094D02*
D03*
Y0131015D02*
D03*
X0012335Y0121172D02*
D03*
Y0126094D02*
D03*
X0035774Y0017342D02*
D03*
Y0012421D02*
D03*
X0022274Y0027185D02*
D03*
Y0022264D02*
D03*
Y0012421D02*
D03*
Y0017342D02*
D03*
D31*
X0072000Y0082100D02*
D03*
X0014274Y0107500D02*
D03*
X0081074Y0075374D02*
D03*
X0084594Y0027000D02*
D03*
X0058400Y0025624D02*
D03*
X0132300Y0127100D02*
D03*
Y0154100D02*
D03*
X0195200Y0087300D02*
D03*
X0122400Y0010100D02*
D03*
X0177900Y0019100D02*
D03*
X0170400D02*
D03*
X0177900Y0034100D02*
D03*
X0170400D02*
D03*
X0177900Y0049100D02*
D03*
X0170400D02*
D03*
X0150400D02*
D03*
Y0034100D02*
D03*
Y0019100D02*
D03*
X0160400D02*
D03*
Y0034100D02*
D03*
Y0049100D02*
D03*
X0170400Y0064100D02*
D03*
X0177900D02*
D03*
X0150400D02*
D03*
Y0079100D02*
D03*
X0177900D02*
D03*
X0170400D02*
D03*
X0160400D02*
D03*
Y0064100D02*
D03*
X0142900Y0019100D02*
D03*
Y0034100D02*
D03*
Y0049100D02*
D03*
X0190100Y0010100D02*
D03*
X0122900Y0054100D02*
D03*
X0128900Y0010100D02*
D03*
X0155400Y0094100D02*
D03*
X0202900Y0011600D02*
D03*
X0197900Y0054100D02*
D03*
X0190400D02*
D03*
X0202900Y0056600D02*
D03*
Y0049100D02*
D03*
X0142900Y0064100D02*
D03*
X0202900Y0041600D02*
D03*
Y0034100D02*
D03*
X0142900Y0079100D02*
D03*
X0202900Y0026600D02*
D03*
Y0019100D02*
D03*
X0196600Y0010100D02*
D03*
X0177900Y0006600D02*
D03*
X0185400Y0011600D02*
D03*
Y0019100D02*
D03*
Y0026600D02*
D03*
Y0034100D02*
D03*
Y0041600D02*
D03*
X0130400Y0054100D02*
D03*
X0185400Y0049100D02*
D03*
Y0056600D02*
D03*
X0162900Y0006600D02*
D03*
X0185400Y0064100D02*
D03*
Y0071600D02*
D03*
X0147900Y0006600D02*
D03*
X0185400Y0079100D02*
D03*
X0188300Y0086624D02*
D03*
X0185400Y0094100D02*
D03*
X0115400Y0009100D02*
D03*
X0177900Y0094100D02*
D03*
X0135400Y0011600D02*
D03*
X0170400Y0094100D02*
D03*
X0135400Y0019100D02*
D03*
Y0026600D02*
D03*
X0162900Y0094100D02*
D03*
X0135400Y0034100D02*
D03*
Y0041600D02*
D03*
Y0049100D02*
D03*
Y0056600D02*
D03*
X0147900Y0094100D02*
D03*
X0135400Y0064100D02*
D03*
Y0071600D02*
D03*
Y0079100D02*
D03*
Y0086600D02*
D03*
X0133900Y0094100D02*
D03*
X0140400D02*
D03*
X0115200Y0085500D02*
D03*
X0025600Y0040900D02*
D03*
X0200400Y0094100D02*
D03*
X0140400Y0139100D02*
D03*
X0125400Y0109100D02*
D03*
X0123000Y0004100D02*
D03*
X0155374Y0124100D02*
D03*
X0140400Y0109100D02*
D03*
X0155400D02*
D03*
X0170400D02*
D03*
X0200400D02*
D03*
X0215400D02*
D03*
X0275400Y0079100D02*
D03*
X0245400Y0034100D02*
D03*
X0260400Y0019100D02*
D03*
X0245272Y0004100D02*
D03*
X0012900Y0095600D02*
D03*
X0088700Y0054000D02*
D03*
X0102674Y0032574D02*
D03*
X0113200Y0070900D02*
D03*
X0260400Y0154100D02*
D03*
X0245400D02*
D03*
X0230400D02*
D03*
X0215400D02*
D03*
X0200400D02*
D03*
X0185400D02*
D03*
X0170400D02*
D03*
X0155400D02*
D03*
X0260400Y0139100D02*
D03*
X0245400D02*
D03*
X0230400D02*
D03*
X0155400D02*
D03*
X0260400Y0124100D02*
D03*
X0245400D02*
D03*
X0230400D02*
D03*
X0260400Y0109100D02*
D03*
X0245400D02*
D03*
X0230400D02*
D03*
X0184535Y0109176D02*
D03*
X0260400Y0094100D02*
D03*
X0245400D02*
D03*
X0230400D02*
D03*
X0260535Y0079100D02*
D03*
X0245400D02*
D03*
X0230400D02*
D03*
X0260400Y0064100D02*
D03*
X0245400D02*
D03*
X0215400D02*
D03*
Y0094100D02*
D03*
X0260400Y0049100D02*
D03*
X0245400D02*
D03*
X0230400D02*
D03*
X0215400D02*
D03*
X0260400Y0034100D02*
D03*
X0230400D02*
D03*
X0215400D02*
D03*
X0275400Y0154100D02*
D03*
Y0139100D02*
D03*
Y0124100D02*
D03*
Y0109100D02*
D03*
Y0094100D02*
D03*
Y0064100D02*
D03*
Y0049100D02*
D03*
Y0034100D02*
D03*
Y0019100D02*
D03*
Y0004100D02*
D03*
X0245400Y0019100D02*
D03*
X0230400D02*
D03*
X0215400D02*
D03*
X0260400Y0004100D02*
D03*
X0230400D02*
D03*
X0215400D02*
D03*
X0200400D02*
D03*
X0185400D02*
D03*
X0170400D02*
D03*
X0155400D02*
D03*
X0140400D02*
D03*
X0019100Y0044000D02*
D03*
X0024474Y0080374D02*
D03*
X0008000Y0094900D02*
D03*
X0027874Y0089874D02*
D03*
X0215400Y0139100D02*
D03*
X0200400D02*
D03*
X0215400Y0124100D02*
D03*
X0200400D02*
D03*
X0114900Y0015100D02*
D03*
X0101800Y0024200D02*
D03*
X0113500Y0044700D02*
D03*
X0108174Y0033174D02*
D03*
X0089074Y0084474D02*
D03*
X0101800Y0082700D02*
D03*
X0089074Y0089274D02*
D03*
X0084174Y0090074D02*
D03*
X0083000Y0069400D02*
D03*
X0078200Y0064800D02*
D03*
X0213727Y0074350D02*
D03*
X0210250Y0070873D02*
D03*
X0205500Y0069600D02*
D03*
X0200750Y0087327D02*
D03*
X0205500Y0088600D02*
D03*
X0210250Y0087327D02*
D03*
X0213745Y0083850D02*
D03*
X0215018Y0079100D02*
D03*
X0026174Y0084974D02*
D03*
X0026100Y0099500D02*
D03*
X0062300Y0106100D02*
D03*
X0100400Y0139024D02*
D03*
X0057300Y0059900D02*
D03*
X0052100Y0064700D02*
D03*
X0230400Y0064100D02*
D03*
X0048600Y0077700D02*
D03*
X0057800Y0066300D02*
D03*
X0125400Y0139100D02*
D03*
X0128900Y0089100D02*
D03*
X0202900Y0064100D02*
D03*
X0036500Y0092700D02*
D03*
X0034100Y0096600D02*
D03*
X0050400Y0071600D02*
D03*
X0031300Y0122700D02*
D03*
X0036300Y0062800D02*
D03*
X0058100Y0053500D02*
D03*
X0104000Y0038800D02*
D03*
X0032600Y0059700D02*
D03*
X0037300Y0024400D02*
D03*
X0039000Y0058800D02*
D03*
X0033100Y0070800D02*
D03*
X0052200Y0046900D02*
D03*
X0057700Y0030700D02*
D03*
X0033000Y0127300D02*
D03*
X0034100Y0046000D02*
D03*
X0030900Y0049900D02*
D03*
X0093900Y0089300D02*
D03*
X0040500Y0045200D02*
D03*
X0045300D02*
D03*
X0051600Y0058300D02*
D03*
X0103900Y0087300D02*
D03*
X0032500Y0027000D02*
D03*
X0108300Y0066400D02*
D03*
X0062300Y0121000D02*
D03*
X0059800Y0136000D02*
D03*
D32*
X0012335Y0150700D02*
D03*
X0008774Y0050024D02*
D03*
Y0007500D02*
D03*
X0039335Y0150700D02*
D03*
X0052835D02*
D03*
X0025835Y0150700D02*
D03*
X0066335D02*
D03*
X0079835Y0150700D02*
D03*
X0093335Y0150700D02*
D03*
X0049274Y0007500D02*
D03*
X0103274D02*
D03*
X0062774D02*
D03*
X0076274D02*
D03*
X0089774D02*
D03*
X0106835Y0150700D02*
D03*
X0035774Y0007500D02*
D03*
X0022274Y0007500D02*
D03*
M02*
