%FSAX25Y25*%
%MOIN*%
G70*
G01*
G75*
%ADD10C,0.00800*%
%ADD11R,0.04724X0.03543*%
%ADD12O,0.05512X0.01102*%
%ADD13R,0.05512X0.01102*%
%ADD14O,0.01102X0.05512*%
%ADD15O,0.05512X0.01102*%
%ADD16R,0.02362X0.03150*%
%ADD17R,0.03543X0.03150*%
%ADD18R,0.03150X0.03543*%
%ADD19R,0.03150X0.03150*%
%ADD20R,0.03150X0.03543*%
%ADD21O,0.04331X0.01575*%
%ADD22R,0.04331X0.01575*%
%ADD23C,0.04000*%
%ADD24C,0.01500*%
%ADD25C,0.03000*%
%ADD26C,0.06299*%
%ADD27R,0.15000X0.07000*%
%ADD28O,0.15000X0.07000*%
%ADD29C,0.07000*%
%ADD30O,0.06000X0.04000*%
%ADD31C,0.04000*%
%ADD32R,0.06000X0.04000*%
%ADD33R,0.09449X0.07874*%
%ADD34R,0.03150X0.02362*%
%ADD35O,0.09843X0.02362*%
%ADD36R,0.04921X0.04331*%
%ADD37R,0.04921X0.04331*%
%ADD38R,0.02362X0.03543*%
%ADD39R,0.04724X0.04724*%
%ADD40R,0.12992X0.05906*%
%ADD41R,0.03937X0.05906*%
%ADD42R,0.23622X0.02953*%
%ADD43R,0.23622X0.07087*%
%ADD44O,0.09843X0.02362*%
%ADD45O,0.09843X0.02362*%
%ADD46R,0.09843X0.02362*%
%ADD47C,0.07000*%
%ADD48C,0.02500*%
%ADD49C,0.02400*%
%ADD50C,0.02362*%
%ADD51C,0.02000*%
%ADD52R,0.62992X0.62992*%
%ADD53R,0.05524X0.04343*%
%ADD54O,0.06312X0.01902*%
%ADD55R,0.06312X0.01902*%
%ADD56O,0.01902X0.06312*%
%ADD57O,0.06312X0.01902*%
%ADD58R,0.03162X0.03950*%
%ADD59R,0.04343X0.03950*%
%ADD60R,0.03950X0.04343*%
%ADD61R,0.03950X0.03950*%
%ADD62R,0.03950X0.04343*%
%ADD63O,0.05131X0.02375*%
%ADD64R,0.05131X0.02375*%
%ADD65C,0.07099*%
%ADD66R,0.15800X0.07800*%
%ADD67O,0.15800X0.07800*%
%ADD68C,0.07800*%
%ADD69O,0.06800X0.04800*%
%ADD70C,0.04800*%
%ADD71R,0.06800X0.04800*%
%ADD72R,0.10249X0.08674*%
%ADD73R,0.03950X0.03162*%
%ADD74O,0.10643X0.03162*%
%ADD75R,0.05721X0.05131*%
%ADD76R,0.05721X0.05131*%
%ADD77R,0.03162X0.04343*%
%ADD78R,0.05524X0.05524*%
%ADD79R,0.13792X0.06706*%
%ADD80R,0.04737X0.06706*%
%ADD81R,0.24422X0.03753*%
%ADD82R,0.24422X0.07887*%
%ADD83O,0.10643X0.03162*%
%ADD84O,0.10643X0.03162*%
%ADD85R,0.10643X0.03162*%
%ADD86C,0.01000*%
%ADD87R,0.55000X0.10000*%
D10*
X0000400Y0000360D02*
Y0157840D01*
Y0157840D02*
X0279140D01*
Y0000360D02*
Y0157840D01*
X0000400Y0000360D02*
X0279140D01*
X0073600Y0084800D02*
G03*
X0074771Y0080429I-0001600J-0002771D01*
G01*
X0081102Y0078698D02*
G03*
X0084201Y0076528I0000000J-0003299D01*
G01*
X0017549Y0107457D02*
G03*
X0017549Y0107457I-0003299J0000000D01*
G01*
X0016299Y0077201D02*
X0016799Y0077701D01*
Y0078700D01*
X0016299Y0079200D01*
X0015799D01*
X0015300Y0078700D01*
Y0077701D01*
X0014800Y0077201D01*
X0014300D01*
X0013800Y0077701D01*
Y0078700D01*
X0014300Y0079200D01*
X0016799Y0074202D02*
Y0076201D01*
X0013800D01*
Y0074202D01*
X0015300Y0076201D02*
Y0075201D01*
X0013800Y0073202D02*
X0016799D01*
Y0071702D01*
X0016299Y0071203D01*
X0015300D01*
X0014800Y0071702D01*
Y0073202D01*
Y0072202D02*
X0013800Y0071203D01*
X0016799Y0070203D02*
Y0069203D01*
Y0069703D01*
X0013800D01*
Y0070203D01*
Y0069203D01*
Y0067704D02*
X0015799D01*
X0016799Y0066704D01*
X0015799Y0065704D01*
X0013800D01*
X0015300D01*
Y0067704D01*
X0016799Y0064705D02*
X0013800D01*
Y0062705D01*
X0066200Y0096299D02*
Y0093300D01*
X0068199D01*
X0071198Y0096299D02*
X0069199D01*
Y0093300D01*
X0071198D01*
X0069199Y0094800D02*
X0070199D01*
X0072198Y0096299D02*
Y0093300D01*
X0073698D01*
X0074197Y0093800D01*
Y0095799D01*
X0073698Y0096299D01*
X0072198D01*
X0077196Y0093300D02*
X0075197D01*
X0077196Y0095299D01*
Y0095799D01*
X0076697Y0096299D01*
X0075697D01*
X0075197Y0095799D01*
X0016900Y0118199D02*
Y0115200D01*
X0018899D01*
X0021898Y0118199D02*
X0019899D01*
Y0115200D01*
X0021898D01*
X0019899Y0116700D02*
X0020899D01*
X0022898Y0118199D02*
Y0115200D01*
X0024398D01*
X0024897Y0115700D01*
Y0117699D01*
X0024398Y0118199D01*
X0022898D01*
X0025897Y0117699D02*
X0026397Y0118199D01*
X0027397D01*
X0027896Y0117699D01*
Y0117199D01*
X0027397Y0116700D01*
X0026897D01*
X0027397D01*
X0027896Y0116200D01*
Y0115700D01*
X0027397Y0115200D01*
X0026397D01*
X0025897Y0115700D01*
X0102699Y0004099D02*
X0102199Y0004599D01*
X0101200D01*
X0100700Y0004099D01*
Y0003599D01*
X0101200Y0003100D01*
X0102199D01*
X0102699Y0002600D01*
Y0002100D01*
X0102199Y0001600D01*
X0101200D01*
X0100700Y0002100D01*
X0105199Y0001600D02*
Y0004599D01*
X0103699Y0003100D01*
X0105698D01*
X0089299Y0004099D02*
X0088800Y0004599D01*
X0087800D01*
X0087300Y0004099D01*
Y0003599D01*
X0087800Y0003100D01*
X0088800D01*
X0089299Y0002600D01*
Y0002100D01*
X0088800Y0001600D01*
X0087800D01*
X0087300Y0002100D01*
X0090299Y0004099D02*
X0090799Y0004599D01*
X0091799D01*
X0092298Y0004099D01*
Y0003599D01*
X0091799Y0003100D01*
X0091299D01*
X0091799D01*
X0092298Y0002600D01*
Y0002100D01*
X0091799Y0001600D01*
X0090799D01*
X0090299Y0002100D01*
X0075699Y0004099D02*
X0075200Y0004599D01*
X0074200D01*
X0073700Y0004099D01*
Y0003599D01*
X0074200Y0003100D01*
X0075200D01*
X0075699Y0002600D01*
Y0002100D01*
X0075200Y0001600D01*
X0074200D01*
X0073700Y0002100D01*
X0076699Y0004599D02*
X0078698D01*
Y0004099D01*
X0076699Y0002100D01*
Y0001600D01*
X0062199Y0004099D02*
X0061699Y0004599D01*
X0060700D01*
X0060200Y0004099D01*
Y0003599D01*
X0060700Y0003100D01*
X0061699D01*
X0062199Y0002600D01*
Y0002100D01*
X0061699Y0001600D01*
X0060700D01*
X0060200Y0002100D01*
X0065198Y0004599D02*
X0064199Y0004099D01*
X0063199Y0003100D01*
Y0002100D01*
X0063699Y0001600D01*
X0064699D01*
X0065198Y0002100D01*
Y0002600D01*
X0064699Y0003100D01*
X0063199D01*
X0048799Y0004099D02*
X0048300Y0004599D01*
X0047300D01*
X0046800Y0004099D01*
Y0003599D01*
X0047300Y0003100D01*
X0048300D01*
X0048799Y0002600D01*
Y0002100D01*
X0048300Y0001600D01*
X0047300D01*
X0046800Y0002100D01*
X0051798Y0001600D02*
X0049799D01*
X0051798Y0003599D01*
Y0004099D01*
X0051299Y0004599D01*
X0050299D01*
X0049799Y0004099D01*
X0034999D02*
X0034499Y0004599D01*
X0033500D01*
X0033000Y0004099D01*
Y0003599D01*
X0033500Y0003100D01*
X0034499D01*
X0034999Y0002600D01*
Y0002100D01*
X0034499Y0001600D01*
X0033500D01*
X0033000Y0002100D01*
X0035999Y0004099D02*
X0036499Y0004599D01*
X0037499D01*
X0037998Y0004099D01*
Y0002100D01*
X0037499Y0001600D01*
X0036499D01*
X0035999Y0002100D01*
Y0004099D01*
X0018100Y0001600D02*
Y0004599D01*
X0019600D01*
X0020099Y0004099D01*
Y0003100D01*
X0019600Y0002600D01*
X0018100D01*
X0019100D02*
X0020099Y0001600D01*
X0023098Y0004599D02*
X0021099D01*
Y0001600D01*
X0023098D01*
X0021099Y0003100D02*
X0022099D01*
X0026097Y0004099D02*
X0025598Y0004599D01*
X0024598D01*
X0024098Y0004099D01*
Y0002100D01*
X0024598Y0001600D01*
X0025598D01*
X0026097Y0002100D01*
X0007299Y0004099D02*
X0006799Y0004599D01*
X0005800D01*
X0005300Y0004099D01*
Y0003599D01*
X0005800Y0003100D01*
X0006799D01*
X0007299Y0002600D01*
Y0002100D01*
X0006799Y0001600D01*
X0005800D01*
X0005300Y0002100D01*
X0008299Y0001600D02*
Y0004599D01*
X0009799D01*
X0010298Y0004099D01*
Y0003100D01*
X0009799Y0002600D01*
X0008299D01*
X0011298Y0004599D02*
X0012298D01*
X0011798D01*
Y0001600D01*
X0011298D01*
X0012298D01*
X0008400Y0156599D02*
Y0154100D01*
X0008900Y0153600D01*
X0009900D01*
X0010399Y0154100D01*
Y0156599D01*
X0013398Y0156099D02*
X0012899Y0156599D01*
X0011899D01*
X0011399Y0156099D01*
Y0155599D01*
X0011899Y0155099D01*
X0012899D01*
X0013398Y0154600D01*
Y0154100D01*
X0012899Y0153600D01*
X0011899D01*
X0011399Y0154100D01*
X0014398Y0156599D02*
Y0153600D01*
X0015898D01*
X0016397Y0154100D01*
Y0154600D01*
X0015898Y0155099D01*
X0014398D01*
X0015898D01*
X0016397Y0155599D01*
Y0156099D01*
X0015898Y0156599D01*
X0014398D01*
X0022600D02*
X0023600D01*
X0023100D01*
Y0153600D01*
X0022600D01*
X0023600D01*
X0027099D02*
X0025099D01*
X0027099Y0155599D01*
Y0156099D01*
X0026599Y0156599D01*
X0025599D01*
X0025099Y0156099D01*
X0030098D02*
X0029598Y0156599D01*
X0028598D01*
X0028098Y0156099D01*
Y0154100D01*
X0028598Y0153600D01*
X0029598D01*
X0030098Y0154100D01*
X0037299Y0156099D02*
X0036799Y0156599D01*
X0035800D01*
X0035300Y0156099D01*
Y0154100D01*
X0035800Y0153600D01*
X0036799D01*
X0037299Y0154100D01*
X0038299Y0153600D02*
Y0155599D01*
X0039299Y0156599D01*
X0040298Y0155599D01*
Y0153600D01*
Y0155099D01*
X0038299D01*
X0041298Y0153600D02*
Y0156599D01*
X0042298Y0155599D01*
X0043297Y0156599D01*
Y0153600D01*
X0048500Y0156599D02*
Y0153600D01*
X0049999D01*
X0050499Y0154100D01*
Y0156099D01*
X0049999Y0156599D01*
X0048500D01*
X0051499D02*
Y0153600D01*
X0053498D01*
X0054498Y0156599D02*
Y0153600D01*
X0055998D01*
X0056497Y0154100D01*
Y0156099D01*
X0055998Y0156599D01*
X0054498D01*
X0074800Y0153600D02*
Y0155599D01*
X0075800Y0156599D01*
X0076799Y0155599D01*
Y0153600D01*
Y0155099D01*
X0074800D01*
X0077799Y0156599D02*
Y0153600D01*
X0079299D01*
X0079798Y0154100D01*
Y0156099D01*
X0079299Y0156599D01*
X0077799D01*
X0082797Y0156099D02*
X0082298Y0156599D01*
X0081298D01*
X0080798Y0156099D01*
Y0154100D01*
X0081298Y0153600D01*
X0082298D01*
X0082797Y0154100D01*
X0085796Y0153600D02*
X0083797D01*
X0085796Y0155599D01*
Y0156099D01*
X0085297Y0156599D01*
X0084297D01*
X0083797Y0156099D01*
X0061700Y0153600D02*
Y0155599D01*
X0062700Y0156599D01*
X0063699Y0155599D01*
Y0153600D01*
Y0155099D01*
X0061700D01*
X0064699Y0156599D02*
Y0153600D01*
X0066199D01*
X0066698Y0154100D01*
Y0156099D01*
X0066199Y0156599D01*
X0064699D01*
X0069697Y0156099D02*
X0069198Y0156599D01*
X0068198D01*
X0067698Y0156099D01*
Y0154100D01*
X0068198Y0153600D01*
X0069198D01*
X0069697Y0154100D01*
X0070697Y0153600D02*
X0071697D01*
X0071197D01*
Y0156599D01*
X0070697Y0156099D01*
X0089900Y0156599D02*
X0090900D01*
X0090400D01*
Y0153600D01*
X0089900D01*
X0090900D01*
X0092399D02*
Y0156599D01*
X0093899D01*
X0094398Y0156099D01*
Y0155099D01*
X0093899Y0154600D01*
X0092399D01*
X0093399D02*
X0094398Y0153600D01*
X0095398Y0156599D02*
Y0153600D01*
Y0155099D01*
X0097398D01*
Y0156599D01*
Y0153600D01*
X0103400Y0156599D02*
X0104400D01*
X0103900D01*
Y0153600D01*
X0103400D01*
X0104400D01*
X0105899D02*
Y0156599D01*
X0107399D01*
X0107898Y0156099D01*
Y0155099D01*
X0107399Y0154600D01*
X0105899D01*
X0106899D02*
X0107898Y0153600D01*
X0108898Y0156599D02*
Y0154600D01*
X0109898Y0153600D01*
X0110898Y0154600D01*
Y0156599D01*
X0093300Y0079499D02*
Y0076500D01*
X0095299D01*
X0098298Y0079499D02*
X0096299D01*
Y0076500D01*
X0098298D01*
X0096299Y0078000D02*
X0097299D01*
X0099298Y0079499D02*
Y0076500D01*
X0100798D01*
X0101297Y0077000D01*
Y0078999D01*
X0100798Y0079499D01*
X0099298D01*
X0102297Y0076500D02*
X0103297D01*
X0102797D01*
Y0079499D01*
X0102297Y0078999D01*
D24*
X0113700Y0124598D02*
X0120364D01*
X0117032Y0127931D02*
Y0121266D01*
X0181000Y0135298D02*
X0184999D01*
X0182999D01*
Y0129300D01*
X0186998Y0135298D02*
X0188997D01*
X0187998D01*
Y0129300D01*
X0186998D01*
X0188997D01*
X0191996D02*
Y0135298D01*
X0195995Y0129300D01*
Y0135298D01*
X0197994D02*
Y0134298D01*
X0199994Y0132299D01*
X0201993Y0134298D01*
Y0135298D01*
X0199994Y0132299D02*
Y0129300D01*
X0209991Y0133299D02*
X0211990Y0129300D01*
X0213989Y0133299D01*
X0219987Y0129300D02*
X0215989D01*
X0219987Y0133299D01*
Y0134298D01*
X0218988Y0135298D01*
X0216988D01*
X0215989Y0134298D01*
X0221987Y0129300D02*
Y0130300D01*
X0222986D01*
Y0129300D01*
X0221987D01*
X0226985D02*
X0228984D01*
X0227985D01*
Y0135298D01*
X0226985Y0134298D01*
X0231983Y0129300D02*
X0233983D01*
X0232983D01*
Y0135298D01*
X0231983Y0134298D01*
X0113800Y0114498D02*
X0120465D01*
D86*
X0209150Y0007600D02*
Y0015098D01*
X0211649D02*
Y0007600D01*
X0207900Y0012598D02*
X0211649D01*
X0212898D01*
X0207900Y0010099D02*
X0212898D01*
X0205600Y0025100D02*
Y0028599D01*
X0207349D01*
X0207933Y0028016D01*
Y0026849D01*
X0207349Y0026266D01*
X0205600D01*
X0209099Y0025100D02*
Y0027433D01*
X0210265Y0028599D01*
X0211431Y0027433D01*
Y0025100D01*
Y0026849D01*
X0209099D01*
X0212598Y0025100D02*
Y0028599D01*
X0214347D01*
X0214930Y0028016D01*
Y0026849D01*
X0214347Y0026266D01*
X0212598D01*
X0216097Y0025100D02*
Y0027433D01*
X0217263Y0028599D01*
X0218429Y0027433D01*
Y0025100D01*
Y0026849D01*
X0216097D01*
X0219596Y0025100D02*
Y0028599D01*
X0221345D01*
X0221928Y0028016D01*
Y0026849D01*
X0221345Y0026266D01*
X0219596D01*
X0220762D02*
X0221928Y0025100D01*
X0223094D02*
Y0027433D01*
X0224261Y0028599D01*
X0225427Y0027433D01*
Y0025100D01*
Y0026849D01*
X0223094D01*
X0226593Y0028599D02*
X0228926D01*
Y0028016D01*
X0226593Y0025683D01*
Y0025100D01*
X0228926D01*
X0230092Y0028599D02*
X0232425D01*
Y0028016D01*
X0230092Y0025683D01*
Y0025100D01*
X0232425D01*
X0233591Y0028599D02*
X0234757D01*
X0234174D01*
Y0025100D01*
X0233591D01*
X0234757D01*
X0242338Y0028016D02*
X0241755Y0028599D01*
X0240589D01*
X0240005Y0028016D01*
Y0025683D01*
X0240589Y0025100D01*
X0241755D01*
X0242338Y0025683D01*
Y0026849D01*
X0241172D01*
X0243504Y0025100D02*
Y0028599D01*
X0245254D01*
X0245837Y0028016D01*
Y0026849D01*
X0245254Y0026266D01*
X0243504D01*
X0247003Y0028599D02*
Y0025100D01*
X0249336D01*
X0254001D02*
Y0028599D01*
X0255750D01*
X0256334Y0028016D01*
Y0026849D01*
X0255750Y0026266D01*
X0254001D01*
X0257500Y0025100D02*
Y0028599D01*
X0259249D01*
X0259833Y0028016D01*
Y0026849D01*
X0259249Y0026266D01*
X0257500D01*
X0258666D02*
X0259833Y0025100D01*
X0262748Y0028599D02*
X0261582D01*
X0260999Y0028016D01*
Y0025683D01*
X0261582Y0025100D01*
X0262748D01*
X0263331Y0025683D01*
Y0028016D01*
X0262748Y0028599D01*
X0266830D02*
X0265664D01*
X0266247D01*
Y0025683D01*
X0265664Y0025100D01*
X0265081D01*
X0264498Y0025683D01*
X0270329Y0028599D02*
X0267997D01*
Y0025100D01*
X0270329D01*
X0267997Y0026849D02*
X0269163D01*
X0273828Y0028016D02*
X0273245Y0028599D01*
X0272078D01*
X0271495Y0028016D01*
Y0025683D01*
X0272078Y0025100D01*
X0273245D01*
X0273828Y0025683D01*
X0274994Y0028599D02*
X0277327D01*
X0276161D01*
Y0025100D01*
D87*
X0242900Y0011600D02*
D03*
M02*
