%FSAX25Y25*%
%MOIN*%
G70*
G01*
G75*
%ADD10C,0.00800*%
%ADD11R,0.04724X0.03543*%
%ADD12O,0.05512X0.01102*%
%ADD13R,0.05512X0.01102*%
%ADD14O,0.01102X0.05512*%
%ADD15O,0.05512X0.01102*%
%ADD16R,0.02362X0.03150*%
%ADD17R,0.03543X0.03150*%
%ADD18R,0.03150X0.03543*%
%ADD19R,0.03150X0.03150*%
%ADD20R,0.03150X0.03543*%
%ADD21O,0.04331X0.01575*%
%ADD22R,0.04331X0.01575*%
%ADD23C,0.04000*%
%ADD24C,0.01500*%
%ADD25C,0.03000*%
%ADD26C,0.06299*%
%ADD27R,0.15000X0.07000*%
%ADD28O,0.15000X0.07000*%
%ADD29C,0.07000*%
%ADD30O,0.06000X0.04000*%
%ADD31C,0.04000*%
%ADD32R,0.06000X0.04000*%
%ADD33R,0.09449X0.07874*%
%ADD34R,0.03150X0.02362*%
%ADD35O,0.09843X0.02362*%
%ADD36R,0.04921X0.04331*%
%ADD37R,0.04921X0.04331*%
%ADD38R,0.02362X0.03543*%
%ADD39R,0.04724X0.04724*%
%ADD40R,0.12992X0.05906*%
%ADD41R,0.03937X0.05906*%
%ADD42R,0.23622X0.02953*%
%ADD43R,0.23622X0.07087*%
%ADD44O,0.09843X0.02362*%
%ADD45O,0.09843X0.02362*%
%ADD46R,0.09843X0.02362*%
%ADD47C,0.07000*%
%ADD48C,0.02500*%
%ADD49C,0.02400*%
%ADD50C,0.02362*%
%ADD51C,0.02000*%
%ADD52R,0.62992X0.62992*%
%ADD53R,0.05524X0.04343*%
%ADD54O,0.06312X0.01902*%
%ADD55R,0.06312X0.01902*%
%ADD56O,0.01902X0.06312*%
%ADD57O,0.06312X0.01902*%
%ADD58R,0.03162X0.03950*%
%ADD59R,0.04343X0.03950*%
%ADD60R,0.03950X0.04343*%
%ADD61R,0.03950X0.03950*%
%ADD62R,0.03950X0.04343*%
%ADD63O,0.05131X0.02375*%
%ADD64R,0.05131X0.02375*%
%ADD65C,0.07099*%
%ADD66R,0.15800X0.07800*%
%ADD67O,0.15800X0.07800*%
%ADD68C,0.07800*%
%ADD69O,0.06800X0.04800*%
%ADD70C,0.04800*%
%ADD71R,0.06800X0.04800*%
D10*
X0000400Y0000360D02*
Y0157840D01*
Y0157840D02*
X0279140D01*
Y0000360D02*
Y0157840D01*
X0000400Y0000360D02*
X0279140D01*
D52*
X0200400Y0079100D02*
D03*
D53*
X0088484Y0031869D02*
D03*
X0073917Y0040531D02*
D03*
X0088484D02*
D03*
X0073917Y0031869D02*
D03*
D54*
X0068476Y0054586D02*
D03*
Y0050649D02*
D03*
Y0052617D02*
D03*
Y0048680D02*
D03*
Y0056554D02*
D03*
Y0058523D02*
D03*
Y0060491D02*
D03*
Y0062460D02*
D03*
Y0064428D02*
D03*
Y0066397D02*
D03*
Y0068365D02*
D03*
Y0070334D02*
D03*
Y0072302D02*
D03*
Y0074271D02*
D03*
Y0076239D02*
D03*
X0023594D02*
D03*
Y0074271D02*
D03*
Y0072302D02*
D03*
Y0070334D02*
D03*
Y0068365D02*
D03*
Y0066397D02*
D03*
Y0064428D02*
D03*
Y0062460D02*
D03*
Y0060491D02*
D03*
Y0058523D02*
D03*
Y0056554D02*
D03*
Y0054586D02*
D03*
Y0052617D02*
D03*
Y0050649D02*
D03*
Y0048680D02*
D03*
D55*
X0068476Y0046712D02*
D03*
D56*
X0060799Y0083917D02*
D03*
X0058831D02*
D03*
X0056862D02*
D03*
X0052925D02*
D03*
X0050957D02*
D03*
X0048988D02*
D03*
X0045051D02*
D03*
X0043083D02*
D03*
X0041114D02*
D03*
X0037177D02*
D03*
X0035209D02*
D03*
X0033240D02*
D03*
X0031272Y0039035D02*
D03*
X0033240D02*
D03*
X0035209D02*
D03*
X0039146D02*
D03*
X0041114D02*
D03*
X0043083D02*
D03*
X0047020D02*
D03*
X0048988D02*
D03*
X0050957D02*
D03*
X0054894D02*
D03*
X0056862D02*
D03*
X0058831D02*
D03*
X0054894Y0083917D02*
D03*
X0047020D02*
D03*
X0039146D02*
D03*
X0031272D02*
D03*
X0037177Y0039035D02*
D03*
X0045051D02*
D03*
X0052925D02*
D03*
X0060799D02*
D03*
D57*
X0023594Y0046712D02*
D03*
D58*
X0116074Y0089809D02*
D03*
Y0094139D02*
D03*
D59*
X0014200Y0101300D02*
D03*
X0095200Y0058300D02*
D03*
X0089200D02*
D03*
X0008200Y0101300D02*
D03*
X0093874Y0093774D02*
D03*
X0087874D02*
D03*
X0104674Y0092974D02*
D03*
X0098674D02*
D03*
X0042800Y0029200D02*
D03*
X0048800D02*
D03*
X0042800Y0024600D02*
D03*
X0048800D02*
D03*
X0046000Y0097600D02*
D03*
X0040000D02*
D03*
X0023800Y0036500D02*
D03*
X0017800D02*
D03*
X0069000Y0090000D02*
D03*
X0063000D02*
D03*
D60*
X0116074Y0066574D02*
D03*
Y0060574D02*
D03*
X0056174Y0007300D02*
D03*
Y0013300D02*
D03*
X0097900Y0067500D02*
D03*
Y0073500D02*
D03*
X0103600D02*
D03*
Y0067500D02*
D03*
X0087900Y0073500D02*
D03*
Y0067500D02*
D03*
X0083800Y0059900D02*
D03*
Y0053900D02*
D03*
X0085874Y0114774D02*
D03*
Y0108774D02*
D03*
Y0120174D02*
D03*
Y0126174D02*
D03*
X0079874Y0114774D02*
D03*
Y0108774D02*
D03*
Y0120174D02*
D03*
Y0126174D02*
D03*
X0046074Y0135374D02*
D03*
Y0141374D02*
D03*
X0092900Y0067500D02*
D03*
Y0073500D02*
D03*
X0008000Y0105500D02*
D03*
Y0111500D02*
D03*
X0032874Y0150974D02*
D03*
Y0144974D02*
D03*
X0069574Y0007300D02*
D03*
Y0013300D02*
D03*
X0083100Y0007300D02*
D03*
Y0013300D02*
D03*
X0096600D02*
D03*
Y0007300D02*
D03*
X0073200Y0117500D02*
D03*
Y0123500D02*
D03*
X0102000Y0052400D02*
D03*
Y0046400D02*
D03*
X0107000D02*
D03*
Y0052400D02*
D03*
X0040000Y0109400D02*
D03*
Y0103400D02*
D03*
X0034000Y0100600D02*
D03*
Y0106600D02*
D03*
X0025800Y0110400D02*
D03*
Y0104400D02*
D03*
X0062300Y0110600D02*
D03*
Y0116600D02*
D03*
X0015800Y0053600D02*
D03*
Y0059600D02*
D03*
X0029174Y0007300D02*
D03*
X0029200Y0017700D02*
D03*
Y0023700D02*
D03*
X0063000Y0031200D02*
D03*
Y0025200D02*
D03*
X0068000Y0031200D02*
D03*
Y0025200D02*
D03*
X0051000Y0114200D02*
D03*
Y0108200D02*
D03*
Y0103600D02*
D03*
Y0097600D02*
D03*
X0046000Y0103600D02*
D03*
Y0109600D02*
D03*
X0101874Y0103274D02*
D03*
Y0097274D02*
D03*
X0087874Y0098074D02*
D03*
Y0104074D02*
D03*
X0042574Y0013300D02*
D03*
Y0007300D02*
D03*
X0110800Y0093200D02*
D03*
Y0087200D02*
D03*
X0115200Y0075400D02*
D03*
Y0081400D02*
D03*
X0053800Y0024800D02*
D03*
Y0030800D02*
D03*
D61*
X0083926Y0079500D02*
D03*
X0090422D02*
D03*
X0020800Y0105952D02*
D03*
Y0112448D02*
D03*
X0076400Y0083152D02*
D03*
Y0089648D02*
D03*
D62*
X0015363Y0091663D02*
D03*
X0019300Y0099537D02*
D03*
X0023237Y0091663D02*
D03*
X0029174Y0013300D02*
D03*
D63*
X0118295Y0023217D02*
D03*
Y0025776D02*
D03*
Y0028335D02*
D03*
Y0030895D02*
D03*
Y0033454D02*
D03*
Y0036013D02*
D03*
Y0038572D02*
D03*
Y0041131D02*
D03*
X0095854Y0023217D02*
D03*
Y0025776D02*
D03*
Y0028335D02*
D03*
Y0030895D02*
D03*
Y0033454D02*
D03*
Y0036013D02*
D03*
Y0038572D02*
D03*
D64*
Y0041131D02*
D03*
D65*
X0205518Y0079100D02*
D03*
D66*
X0103874Y0124574D02*
D03*
D67*
Y0114574D02*
D03*
D68*
X0080600Y0101400D02*
D03*
X0075600Y0053400D02*
D03*
X0113600D02*
D03*
X0094600Y0101400D02*
D03*
X0108600D02*
D03*
D69*
X0025835Y0135936D02*
D03*
Y0131015D02*
D03*
X0012335Y0145779D02*
D03*
Y0140858D02*
D03*
Y0135936D02*
D03*
Y0131015D02*
D03*
Y0116251D02*
D03*
X0008774Y0084472D02*
D03*
Y0079551D02*
D03*
Y0074630D02*
D03*
Y0069709D02*
D03*
Y0064787D02*
D03*
Y0059866D02*
D03*
Y0054945D02*
D03*
Y0037027D02*
D03*
Y0032106D02*
D03*
Y0027185D02*
D03*
X0008774Y0022264D02*
D03*
X0008774Y0017342D02*
D03*
X0008774Y0012421D02*
D03*
X0039335Y0145779D02*
D03*
Y0140858D02*
D03*
X0052835Y0121172D02*
D03*
Y0126094D02*
D03*
Y0131015D02*
D03*
Y0135936D02*
D03*
Y0140858D02*
D03*
Y0145779D02*
D03*
X0025835Y0140858D02*
D03*
Y0145779D02*
D03*
X0066335Y0131015D02*
D03*
Y0135936D02*
D03*
Y0140858D02*
D03*
Y0145779D02*
D03*
X0079835Y0145779D02*
D03*
Y0140858D02*
D03*
Y0135936D02*
D03*
Y0131015D02*
D03*
X0093335Y0135936D02*
D03*
Y0140858D02*
D03*
Y0145779D02*
D03*
X0049274Y0012421D02*
D03*
Y0017342D02*
D03*
X0103274D02*
D03*
Y0012421D02*
D03*
X0062774D02*
D03*
Y0017342D02*
D03*
X0076274D02*
D03*
Y0012421D02*
D03*
X0089774Y0017342D02*
D03*
Y0012421D02*
D03*
X0106835Y0145779D02*
D03*
Y0140858D02*
D03*
X0039335Y0135936D02*
D03*
Y0121172D02*
D03*
Y0126094D02*
D03*
Y0131015D02*
D03*
X0012335Y0121172D02*
D03*
Y0126094D02*
D03*
X0035774Y0017342D02*
D03*
Y0012421D02*
D03*
X0022274Y0027185D02*
D03*
Y0022264D02*
D03*
Y0012421D02*
D03*
Y0017342D02*
D03*
D70*
X0072000Y0082100D02*
D03*
X0014274Y0107500D02*
D03*
X0081074Y0075374D02*
D03*
X0084594Y0027000D02*
D03*
X0058400Y0025624D02*
D03*
X0132300Y0127100D02*
D03*
Y0154100D02*
D03*
X0195200Y0087300D02*
D03*
X0122400Y0010100D02*
D03*
X0177900Y0019100D02*
D03*
X0170400D02*
D03*
X0177900Y0034100D02*
D03*
X0170400D02*
D03*
X0177900Y0049100D02*
D03*
X0170400D02*
D03*
X0150400D02*
D03*
Y0034100D02*
D03*
Y0019100D02*
D03*
X0160400D02*
D03*
Y0034100D02*
D03*
Y0049100D02*
D03*
X0170400Y0064100D02*
D03*
X0177900D02*
D03*
X0150400D02*
D03*
Y0079100D02*
D03*
X0177900D02*
D03*
X0170400D02*
D03*
X0160400D02*
D03*
Y0064100D02*
D03*
X0142900Y0019100D02*
D03*
Y0034100D02*
D03*
Y0049100D02*
D03*
X0190100Y0010100D02*
D03*
X0122900Y0054100D02*
D03*
X0128900Y0010100D02*
D03*
X0155400Y0094100D02*
D03*
X0202900Y0011600D02*
D03*
X0197900Y0054100D02*
D03*
X0190400D02*
D03*
X0202900Y0056600D02*
D03*
Y0049100D02*
D03*
X0142900Y0064100D02*
D03*
X0202900Y0041600D02*
D03*
Y0034100D02*
D03*
X0142900Y0079100D02*
D03*
X0202900Y0026600D02*
D03*
Y0019100D02*
D03*
X0196600Y0010100D02*
D03*
X0177900Y0006600D02*
D03*
X0185400Y0011600D02*
D03*
Y0019100D02*
D03*
Y0026600D02*
D03*
Y0034100D02*
D03*
Y0041600D02*
D03*
X0130400Y0054100D02*
D03*
X0185400Y0049100D02*
D03*
Y0056600D02*
D03*
X0162900Y0006600D02*
D03*
X0185400Y0064100D02*
D03*
Y0071600D02*
D03*
X0147900Y0006600D02*
D03*
X0185400Y0079100D02*
D03*
X0188300Y0086624D02*
D03*
X0185400Y0094100D02*
D03*
X0115400Y0009100D02*
D03*
X0177900Y0094100D02*
D03*
X0135400Y0011600D02*
D03*
X0170400Y0094100D02*
D03*
X0135400Y0019100D02*
D03*
Y0026600D02*
D03*
X0162900Y0094100D02*
D03*
X0135400Y0034100D02*
D03*
Y0041600D02*
D03*
Y0049100D02*
D03*
Y0056600D02*
D03*
X0147900Y0094100D02*
D03*
X0135400Y0064100D02*
D03*
Y0071600D02*
D03*
Y0079100D02*
D03*
Y0086600D02*
D03*
X0133900Y0094100D02*
D03*
X0140400D02*
D03*
X0115200Y0085500D02*
D03*
X0025600Y0040900D02*
D03*
X0200400Y0094100D02*
D03*
X0140400Y0139100D02*
D03*
X0125400Y0109100D02*
D03*
X0123000Y0004100D02*
D03*
X0155374Y0124100D02*
D03*
X0140400Y0109100D02*
D03*
X0155400D02*
D03*
X0170400D02*
D03*
X0200400D02*
D03*
X0215400D02*
D03*
X0275400Y0079100D02*
D03*
X0245400Y0034100D02*
D03*
X0260400Y0019100D02*
D03*
X0245272Y0004100D02*
D03*
X0012900Y0095600D02*
D03*
X0088700Y0054000D02*
D03*
X0102674Y0032574D02*
D03*
X0113200Y0070900D02*
D03*
X0260400Y0154100D02*
D03*
X0245400D02*
D03*
X0230400D02*
D03*
X0215400D02*
D03*
X0200400D02*
D03*
X0185400D02*
D03*
X0170400D02*
D03*
X0155400D02*
D03*
X0260400Y0139100D02*
D03*
X0245400D02*
D03*
X0230400D02*
D03*
X0155400D02*
D03*
X0260400Y0124100D02*
D03*
X0245400D02*
D03*
X0230400D02*
D03*
X0260400Y0109100D02*
D03*
X0245400D02*
D03*
X0230400D02*
D03*
X0184535Y0109176D02*
D03*
X0260400Y0094100D02*
D03*
X0245400D02*
D03*
X0230400D02*
D03*
X0260535Y0079100D02*
D03*
X0245400D02*
D03*
X0230400D02*
D03*
X0260400Y0064100D02*
D03*
X0245400D02*
D03*
X0215400D02*
D03*
Y0094100D02*
D03*
X0260400Y0049100D02*
D03*
X0245400D02*
D03*
X0230400D02*
D03*
X0215400D02*
D03*
X0260400Y0034100D02*
D03*
X0230400D02*
D03*
X0215400D02*
D03*
X0275400Y0154100D02*
D03*
Y0139100D02*
D03*
Y0124100D02*
D03*
Y0109100D02*
D03*
Y0094100D02*
D03*
Y0064100D02*
D03*
Y0049100D02*
D03*
Y0034100D02*
D03*
Y0019100D02*
D03*
Y0004100D02*
D03*
X0245400Y0019100D02*
D03*
X0230400D02*
D03*
X0215400D02*
D03*
X0260400Y0004100D02*
D03*
X0230400D02*
D03*
X0215400D02*
D03*
X0200400D02*
D03*
X0185400D02*
D03*
X0170400D02*
D03*
X0155400D02*
D03*
X0140400D02*
D03*
X0019100Y0044000D02*
D03*
X0024474Y0080374D02*
D03*
X0008000Y0094900D02*
D03*
X0027874Y0089874D02*
D03*
X0215400Y0139100D02*
D03*
X0200400D02*
D03*
X0215400Y0124100D02*
D03*
X0200400D02*
D03*
X0114900Y0015100D02*
D03*
X0101800Y0024200D02*
D03*
X0113500Y0044700D02*
D03*
X0108174Y0033174D02*
D03*
X0089074Y0084474D02*
D03*
X0101800Y0082700D02*
D03*
X0089074Y0089274D02*
D03*
X0084174Y0090074D02*
D03*
X0083000Y0069400D02*
D03*
X0078200Y0064800D02*
D03*
X0213727Y0074350D02*
D03*
X0210250Y0070873D02*
D03*
X0205500Y0069600D02*
D03*
X0200750Y0087327D02*
D03*
X0205500Y0088600D02*
D03*
X0210250Y0087327D02*
D03*
X0213745Y0083850D02*
D03*
X0215018Y0079100D02*
D03*
X0026174Y0084974D02*
D03*
X0026100Y0099500D02*
D03*
X0062300Y0106100D02*
D03*
X0100400Y0139024D02*
D03*
X0057300Y0059900D02*
D03*
X0052100Y0064700D02*
D03*
X0230400Y0064100D02*
D03*
X0048600Y0077700D02*
D03*
X0057800Y0066300D02*
D03*
X0125400Y0139100D02*
D03*
X0128900Y0089100D02*
D03*
X0202900Y0064100D02*
D03*
X0036500Y0092700D02*
D03*
X0034100Y0096600D02*
D03*
X0050400Y0071600D02*
D03*
X0031300Y0122700D02*
D03*
X0036300Y0062800D02*
D03*
X0058100Y0053500D02*
D03*
X0104000Y0038800D02*
D03*
X0032600Y0059700D02*
D03*
X0037300Y0024400D02*
D03*
X0039000Y0058800D02*
D03*
X0033100Y0070800D02*
D03*
X0052200Y0046900D02*
D03*
X0057700Y0030700D02*
D03*
X0033000Y0127300D02*
D03*
X0034100Y0046000D02*
D03*
X0030900Y0049900D02*
D03*
X0093900Y0089300D02*
D03*
X0040500Y0045200D02*
D03*
X0045300D02*
D03*
X0051600Y0058300D02*
D03*
X0103900Y0087300D02*
D03*
X0032500Y0027000D02*
D03*
X0108300Y0066400D02*
D03*
X0062300Y0121000D02*
D03*
X0059800Y0136000D02*
D03*
D71*
X0012335Y0150700D02*
D03*
X0008774Y0050024D02*
D03*
Y0007500D02*
D03*
X0039335Y0150700D02*
D03*
X0052835D02*
D03*
X0025835Y0150700D02*
D03*
X0066335D02*
D03*
X0079835Y0150700D02*
D03*
X0093335Y0150700D02*
D03*
X0049274Y0007500D02*
D03*
X0103274D02*
D03*
X0062774D02*
D03*
X0076274D02*
D03*
X0089774D02*
D03*
X0106835Y0150700D02*
D03*
X0035774Y0007500D02*
D03*
X0022274Y0007500D02*
D03*
M02*
